<svg viewBox="0 0 595.275590551 595.275590551" width="595.275590551pt" height="595.275590551pt" xmlns="http://www.w3.org/2000/svg" xmlns:xlink="http://www.w3.org/1999/xlink" xmlns:h5="http://www.w3.org/1999/xhtml"><path fill="#f4f6f5" fill-rule="nonzero" d="M 0 0v 595.275590551h 595.275590551v -595.275590551Z "/><path fill="#1f9d72" fill-rule="nonzero" d="M 0 0v 595.275590551h 15.590551181v -595.275590551Z "/><g transform="matrix(1 0 0 -1 513.446996494 50.32175812)"><use xlink:href="#g12B4F24763C60C11DC82091DAA88390C" x="0" y="0" fill="#5a6b66" fill-rule="nonzero"/><use xlink:href="#g3E4573124205ACC198E9F459B510F564" x="16.857421875" y="0" fill="#5a6b66" fill-rule="nonzero"/><use xlink:href="#g290682C0358F22985358E828942BD110" x="33.71484375" y="0" fill="#5a6b66" fill-rule="nonzero"/></g><g><path fill="none" stroke="#1f9d72" stroke-width="2" stroke-linecap="butt" stroke-linejoin="miter" stroke-miterlimit="4" transform="translate(73.700787402 53.12745294)" d="M 0 0h 22.677165354"/><g transform="matrix(1 0 0 -1 106.299212598 58.065929503)"><use xlink:href="#g3C72BE75F5354BD0A554C057F2FA573A" x="0" y="0" fill="#5a6b66" fill-rule="nonzero"/><use xlink:href="#g8266A689B851DEF3E1736EDC378F4835" x="9.326660156" y="0" fill="#5a6b66" fill-rule="nonzero"/><use xlink:href="#g4EBE89919D7A75A1CFCCDA9CB6B4C48B" x="18.653320313" y="0" fill="#5a6b66" fill-rule="nonzero"/><use xlink:href="#gBC5416D29E50877D61457B98B84FAAEF" x="37.306640625" y="0" fill="#5a6b66" fill-rule="nonzero"/><use xlink:href="#g4EBE89919D7A75A1CFCCDA9CB6B4C48B" x="46.633300781" y="0" fill="#5a6b66" fill-rule="nonzero"/><use xlink:href="#g5032CFCAE45184E06787003414B76DCC" x="55.959960938" y="0" fill="#5a6b66" fill-rule="nonzero"/><use xlink:href="#gDB69EAF5B2019833F3A1F0B97FB4D4F0" x="65.286621094" y="0" fill="#5a6b66" fill-rule="nonzero"/><use xlink:href="#gBC5416D29E50877D61457B98B84FAAEF" x="74.61328125" y="0" fill="#5a6b66" fill-rule="nonzero"/></g><g transform="translate(73.700787402 95.039157849)"><g transform="matrix(1 0 0 -1 0 20.64)"><use xlink:href="#g727B822BF8B0C9F11E0495B4D9C4D20D" x="0" y="0" fill="#0f1f1c" fill-rule="nonzero"/><use xlink:href="#gF3AEE9B7483354CD351D9C619BBE5016" x="20.864" y="0" fill="#0f1f1c" fill-rule="nonzero"/><use xlink:href="#gF5319D267F6BD29D5AD0B76371FA4378" x="40.672" y="0" fill="#0f1f1c" fill-rule="nonzero"/><use xlink:href="#g3199BFDF963B1298AE87F91957D54079" x="54.112" y="0" fill="#0f1f1c" fill-rule="nonzero"/><use xlink:href="#g3199BFDF963B1298AE87F91957D54079" x="69.984" y="0" fill="#0f1f1c" fill-rule="nonzero"/><use xlink:href="#gF5319D267F6BD29D5AD0B76371FA4378" x="93.632" y="0" fill="#0f1f1c" fill-rule="nonzero"/><use xlink:href="#g3199BFDF963B1298AE87F91957D54079" x="107.072" y="0" fill="#0f1f1c" fill-rule="nonzero"/><use xlink:href="#g7A4E725C3D8AD8143B0DD7C9D6CF1472" x="122.72" y="0" fill="#0f1f1c" fill-rule="nonzero"/><use xlink:href="#gF2E2CF453DEC8F50EFCCC6910B1C31BC" x="138.912" y="0" fill="#0f1f1c" fill-rule="nonzero"/><use xlink:href="#g2B5C7B2D57C889A5AE716E3EE49138E6" x="152.576" y="0" fill="#0f1f1c" fill-rule="nonzero"/><use xlink:href="#gB01CC3CEBCE063EE5E3D9083A0590916" x="170.208" y="0" fill="#0f1f1c" fill-rule="nonzero"/><use xlink:href="#gF2E2CF453DEC8F50EFCCC6910B1C31BC" x="189.92" y="0" fill="#0f1f1c" fill-rule="nonzero"/><use xlink:href="#gF8FE094D6EF780C643F81BE02829640A" x="211.584" y="0" fill="#0f1f1c" fill-rule="nonzero"/><use xlink:href="#g8768EE16E111452FF47FA8C59EFF028" x="221.888" y="0" fill="#0f1f1c" fill-rule="nonzero"/><use xlink:href="#gDF67AEF496C2E04D16C09421D83C905D" x="241.344" y="0" fill="#0f1f1c" fill-rule="nonzero"/><use xlink:href="#g8768EE16E111452FF47FA8C59EFF028" x="261.856" y="0" fill="#0f1f1c" fill-rule="nonzero"/><use xlink:href="#gF2E2CF453DEC8F50EFCCC6910B1C31BC" x="273.312" y="0" fill="#0f1f1c" fill-rule="nonzero"/><use xlink:href="#g85F870BECD06F73E44BEFCBB88257478" x="294.976" y="0" fill="#0f1f1c" fill-rule="nonzero"/><use xlink:href="#g7A4E725C3D8AD8143B0DD7C9D6CF1472" x="309.568" y="0" fill="#0f1f1c" fill-rule="nonzero"/><use xlink:href="#gF5319D267F6BD29D5AD0B76371FA4378" x="325.76" y="0" fill="#0f1f1c" fill-rule="nonzero"/><use xlink:href="#g2B5C7B2D57C889A5AE716E3EE49138E6" x="339.2" y="0" fill="#0f1f1c" fill-rule="nonzero"/><use xlink:href="#gC22E1235C07F6A9C913000FCE7015052" x="356.832" y="0" fill="#0f1f1c" fill-rule="nonzero"/><use xlink:href="#gF2E2CF453DEC8F50EFCCC6910B1C31BC" x="375.968" y="0" fill="#0f1f1c" fill-rule="nonzero"/><use xlink:href="#g3199BFDF963B1298AE87F91957D54079" x="389.632" y="0" fill="#0f1f1c" fill-rule="nonzero"/><use xlink:href="#g1113511317E717628708072C5CBF4B60" x="405.28" y="0" fill="#0f1f1c" fill-rule="nonzero"/><use xlink:href="#gF2E2CF453DEC8F50EFCCC6910B1C31BC" x="415.68" y="0" fill="#0f1f1c" fill-rule="nonzero"/><use xlink:href="#gAE68F787B16A4145742AE43F27F02CAA" x="429.344" y="0" fill="#0f1f1c" fill-rule="nonzero"/></g></g><g transform="matrix(1 0 0 -1 73.700787402 175.036521284)"><use xlink:href="#gB747CD3665E27F01F03A3C6D5432EAD1" x="0" y="0" fill="#1f9d72" fill-rule="nonzero"/></g><g transform="translate(110.551181102 160.757099409)"><g transform="matrix(1 0 0 -1 0 11.844)"><use xlink:href="#gB37E5593BB49025D576B66546B7C455E" x="0" y="0" fill="#0f1f1c" fill-rule="nonzero"/><use xlink:href="#gEE4910E8C583E65535BA875A3D5E5551" x="9.954" y="0" fill="#0f1f1c" fill-rule="nonzero"/><use xlink:href="#gA71AC0F14069258C6C6D364FF157BBA5" x="14.706" y="0" fill="#0f1f1c" fill-rule="nonzero"/><use xlink:href="#gD4D2AF1CFE03D90768AB777F476722D2" x="22.932" y="0" fill="#0f1f1c" fill-rule="nonzero"/><use xlink:href="#g4BAD997147D7C522293FF83512F0FE84" x="27.81" y="0" fill="#0f1f1c" fill-rule="nonzero"/><use xlink:href="#g2FB892216296617E4A22A4A96F950B99" x="42.066" y="0" fill="#0f1f1c" fill-rule="nonzero"/><use xlink:href="#gF14C377604C6893A1B5FBF988C117C84" x="47.754" y="0" fill="#0f1f1c" fill-rule="nonzero"/><use xlink:href="#g4230FDF6391DC76389F3D2CC174200F" x="55.674" y="0" fill="#0f1f1c" fill-rule="nonzero"/><use xlink:href="#g2FB892216296617E4A22A4A96F950B99" x="64.494" y="0" fill="#0f1f1c" fill-rule="nonzero"/><use xlink:href="#gD4D2AF1CFE03D90768AB777F476722D2" x="74.682" y="0" fill="#0f1f1c" fill-rule="nonzero"/><use xlink:href="#g4BAD997147D7C522293FF83512F0FE84" x="79.56" y="0" fill="#0f1f1c" fill-rule="nonzero"/><use xlink:href="#g370B07E733F22EF9EAB71B2DF6FCFC46" x="89.316" y="0" fill="#0f1f1c" fill-rule="nonzero"/><use xlink:href="#gB37E5593BB49025D576B66546B7C455E" x="97.776" y="0" fill="#0f1f1c" fill-rule="nonzero"/><use xlink:href="#gD2D12C2363C38E1E7F8EB4C4DE91CAF7" x="107.514" y="0" fill="#0f1f1c" fill-rule="nonzero"/><use xlink:href="#g6F990A89F3AB3834CB0E0FD44D2CF28" x="120.132" y="0" fill="#0f1f1c" fill-rule="nonzero"/><use xlink:href="#g8CA929D1E4C4B97EADAFDF05D1A576B9" x="133.362" y="0" fill="#0f1f1c" fill-rule="nonzero"/><use xlink:href="#g7526E4234DDA1A75229FAC914BDBC428" x="142.434" y="0" fill="#0f1f1c" fill-rule="nonzero"/><use xlink:href="#g2FB892216296617E4A22A4A96F950B99" x="151.992" y="0" fill="#0f1f1c" fill-rule="nonzero"/><use xlink:href="#gEA39FD7EDF40C279C0C3838D3D6AB466" x="157.68" y="0" fill="#0f1f1c" fill-rule="nonzero"/><use xlink:href="#gD2D12C2363C38E1E7F8EB4C4DE91CAF7" x="166.14" y="0" fill="#0f1f1c" fill-rule="nonzero"/><use xlink:href="#gD4D2AF1CFE03D90768AB777F476722D2" x="178.758" y="0" fill="#0f1f1c" fill-rule="nonzero"/><use xlink:href="#gA61AEB7691570E11476B4C7E3B139AF0" x="183.636" y="0" fill="#0f1f1c" fill-rule="nonzero"/><use xlink:href="#gD4D2AF1CFE03D90768AB777F476722D2" x="198.612" y="0" fill="#0f1f1c" fill-rule="nonzero"/><use xlink:href="#g2FB892216296617E4A22A4A96F950B99" x="203.49" y="0" fill="#0f1f1c" fill-rule="nonzero"/><use xlink:href="#g370B07E733F22EF9EAB71B2DF6FCFC46" x="209.178" y="0" fill="#0f1f1c" fill-rule="nonzero"/><use xlink:href="#gB96A7AB956FB05E702D89B93BD910BD9" x="217.638" y="0" fill="#0f1f1c" fill-rule="nonzero"/><use xlink:href="#gF14C377604C6893A1B5FBF988C117C84" x="226.44" y="0" fill="#0f1f1c" fill-rule="nonzero"/><use xlink:href="#g6CE0D6591E89A716DA6CFE7F3C300A78" x="234.486" y="0" fill="#0f1f1c" fill-rule="nonzero"/><use xlink:href="#gC6502D67F8A97EA9AAE96751BCF9F57" x="241.182" y="0" fill="#0f1f1c" fill-rule="nonzero"/><use xlink:href="#gD4D2AF1CFE03D90768AB777F476722D2" x="248.202" y="0" fill="#0f1f1c" fill-rule="nonzero"/><use xlink:href="#g8CA929D1E4C4B97EADAFDF05D1A576B9" x="253.08" y="0" fill="#0f1f1c" fill-rule="nonzero"/><use xlink:href="#g4BAD997147D7C522293FF83512F0FE84" x="262.152" y="0" fill="#0f1f1c" fill-rule="nonzero"/><use xlink:href="#gD4D2AF1CFE03D90768AB777F476722D2" x="276.408" y="0" fill="#0f1f1c" fill-rule="nonzero"/><use xlink:href="#g2FB892216296617E4A22A4A96F950B99" x="281.286" y="0" fill="#0f1f1c" fill-rule="nonzero"/><use xlink:href="#g370B07E733F22EF9EAB71B2DF6FCFC46" x="286.974" y="0" fill="#0f1f1c" fill-rule="nonzero"/><use xlink:href="#g6CE0D6591E89A716DA6CFE7F3C300A78" x="295.434" y="0" fill="#0f1f1c" fill-rule="nonzero"/><use xlink:href="#gF14C377604C6893A1B5FBF988C117C84" x="301.986" y="0" fill="#0f1f1c" fill-rule="nonzero"/><use xlink:href="#g3A01C6432CFD86234350E100FFBEBFA9" x="310.032" y="0" fill="#0f1f1c" fill-rule="nonzero"/><use xlink:href="#gF14C377604C6893A1B5FBF988C117C84" x="319.032" y="0" fill="#0f1f1c" fill-rule="nonzero"/><use xlink:href="#g4BAD997147D7C522293FF83512F0FE84" x="327.078" y="0" fill="#0f1f1c" fill-rule="nonzero"/><use xlink:href="#gF14C377604C6893A1B5FBF988C117C84" x="336.834" y="0" fill="#0f1f1c" fill-rule="nonzero"/><use xlink:href="#g6CE0D6591E89A716DA6CFE7F3C300A78" x="344.88" y="0" fill="#0f1f1c" fill-rule="nonzero"/><use xlink:href="#gA71AC0F14069258C6C6D364FF157BBA5" x="351.576" y="0" fill="#0f1f1c" fill-rule="nonzero"/><use xlink:href="#g2FB892216296617E4A22A4A96F950B99" x="359.802" y="0" fill="#0f1f1c" fill-rule="nonzero"/><use xlink:href="#gF14C377604C6893A1B5FBF988C117C84" x="365.49" y="0" fill="#0f1f1c" fill-rule="nonzero"/><use xlink:href="#gD4D2AF1CFE03D90768AB777F476722D2" x="378.036" y="0" fill="#0f1f1c" fill-rule="nonzero"/><use xlink:href="#g2FB892216296617E4A22A4A96F950B99" x="382.914" y="0" fill="#0f1f1c" fill-rule="nonzero"/><use xlink:href="#gEA39FD7EDF40C279C0C3838D3D6AB466" x="388.602" y="0" fill="#0f1f1c" fill-rule="nonzero"/></g></g><g transform="matrix(1 0 0 -1 73.700787402 211.593884719)"><use xlink:href="#g96DCDFE45BDAAB8B979F67BCA2525E53" x="0" y="0" fill="#1f9d72" fill-rule="nonzero"/></g><g transform="translate(110.551181102 197.314462844)"><g transform="matrix(1 0 0 -1 0 11.844)"><use xlink:href="#g9FAC5CAE9A84A2A2D29E9ADBAACA3D6E" x="0" y="0" fill="#0f1f1c" fill-rule="nonzero"/><use xlink:href="#g4BAD997147D7C522293FF83512F0FE84" x="12.636" y="0" fill="#0f1f1c" fill-rule="nonzero"/><use xlink:href="#gF14C377604C6893A1B5FBF988C117C84" x="22.392" y="0" fill="#0f1f1c" fill-rule="nonzero"/><use xlink:href="#gEE4910E8C583E65535BA875A3D5E5551" x="34.938" y="0" fill="#0f1f1c" fill-rule="nonzero"/><use xlink:href="#gA71AC0F14069258C6C6D364FF157BBA5" x="39.69" y="0" fill="#0f1f1c" fill-rule="nonzero"/><use xlink:href="#g2F4137E3144978548D6DCAE64AA8D5E" x="47.916" y="0" fill="#0f1f1c" fill-rule="nonzero"/><use xlink:href="#g8CA929D1E4C4B97EADAFDF05D1A576B9" x="57.042" y="0" fill="#0f1f1c" fill-rule="nonzero"/><use xlink:href="#g7526E4234DDA1A75229FAC914BDBC428" x="66.114" y="0" fill="#0f1f1c" fill-rule="nonzero"/><use xlink:href="#g2FB892216296617E4A22A4A96F950B99" x="75.672" y="0" fill="#0f1f1c" fill-rule="nonzero"/><use xlink:href="#gC6502D67F8A97EA9AAE96751BCF9F57" x="85.86" y="0" fill="#0f1f1c" fill-rule="nonzero"/><use xlink:href="#gF14C377604C6893A1B5FBF988C117C84" x="92.88" y="0" fill="#0f1f1c" fill-rule="nonzero"/><use xlink:href="#g2FB892216296617E4A22A4A96F950B99" x="100.926" y="0" fill="#0f1f1c" fill-rule="nonzero"/><use xlink:href="#gC6502D67F8A97EA9AAE96751BCF9F57" x="106.614" y="0" fill="#0f1f1c" fill-rule="nonzero"/><use xlink:href="#g2FB892216296617E4A22A4A96F950B99" x="118.134" y="0" fill="#0f1f1c" fill-rule="nonzero"/><use xlink:href="#g12EAA33DE55B39CFC2167BFB9E90B717" x="123.822" y="0" fill="#0f1f1c" fill-rule="nonzero"/><use xlink:href="#gF14C377604C6893A1B5FBF988C117C84" x="133.506" y="0" fill="#0f1f1c" fill-rule="nonzero"/><use xlink:href="#gEE4910E8C583E65535BA875A3D5E5551" x="146.052" y="0" fill="#0f1f1c" fill-rule="nonzero"/><use xlink:href="#g8CA929D1E4C4B97EADAFDF05D1A576B9" x="150.804" y="0" fill="#0f1f1c" fill-rule="nonzero"/><use xlink:href="#g8CA929D1E4C4B97EADAFDF05D1A576B9" x="160.002" y="0" fill="#0f1f1c" fill-rule="nonzero"/><use xlink:href="#g528598DFEB7D795655EC5396883E1B4F" x="169.074" y="0" fill="#0f1f1c" fill-rule="nonzero"/><use xlink:href="#g8CA929D1E4C4B97EADAFDF05D1A576B9" x="182.79" y="0" fill="#0f1f1c" fill-rule="nonzero"/><use xlink:href="#g41F8034ED62AEE70F777DB29FD99D328" x="191.862" y="0" fill="#0f1f1c" fill-rule="nonzero"/><use xlink:href="#gF14C377604C6893A1B5FBF988C117C84" x="201.942" y="0" fill="#0f1f1c" fill-rule="nonzero"/><use xlink:href="#gB96A7AB956FB05E702D89B93BD910BD9" x="209.862" y="0" fill="#0f1f1c" fill-rule="nonzero"/><use xlink:href="#gF14C377604C6893A1B5FBF988C117C84" x="218.664" y="0" fill="#0f1f1c" fill-rule="nonzero"/><use xlink:href="#g6CE0D6591E89A716DA6CFE7F3C300A78" x="226.71" y="0" fill="#0f1f1c" fill-rule="nonzero"/><use xlink:href="#g2F4137E3144978548D6DCAE64AA8D5E" x="233.676" y="0" fill="#0f1f1c" fill-rule="nonzero"/><use xlink:href="#g3D1BE6A7D7DF58BE16C77B81DD4EDB19" x="247.446" y="0" fill="#0f1f1c" fill-rule="nonzero"/><use xlink:href="#gA71AC0F14069258C6C6D364FF157BBA5" x="256.788" y="0" fill="#0f1f1c" fill-rule="nonzero"/><use xlink:href="#g3A01C6432CFD86234350E100FFBEBFA9" x="265.014" y="0" fill="#0f1f1c" fill-rule="nonzero"/><use xlink:href="#gF14C377604C6893A1B5FBF988C117C84" x="274.014" y="0" fill="#0f1f1c" fill-rule="nonzero"/><use xlink:href="#gA71AC0F14069258C6C6D364FF157BBA5" x="286.56" y="0" fill="#0f1f1c" fill-rule="nonzero"/><use xlink:href="#g2FB892216296617E4A22A4A96F950B99" x="294.786" y="0" fill="#0f1f1c" fill-rule="nonzero"/><use xlink:href="#g8CA929D1E4C4B97EADAFDF05D1A576B9" x="304.974" y="0" fill="#0f1f1c" fill-rule="nonzero"/><use xlink:href="#g4BAD997147D7C522293FF83512F0FE84" x="314.046" y="0" fill="#0f1f1c" fill-rule="nonzero"/><use xlink:href="#gAAE4F204C5B064E8427F7DDAE181B640" x="323.802" y="0" fill="#0f1f1c" fill-rule="nonzero"/><use xlink:href="#gF14C377604C6893A1B5FBF988C117C84" x="331.506" y="0" fill="#0f1f1c" fill-rule="nonzero"/><use xlink:href="#gEA39FD7EDF40C279C0C3838D3D6AB466" x="339.372" y="0" fill="#0f1f1c" fill-rule="nonzero"/></g></g><g transform="matrix(1 0 0 -1 73.700787402 248.151248155)"><use xlink:href="#gB6AB529754F6FD63C7E2F65CF029A392" x="0" y="0" fill="#1f9d72" fill-rule="nonzero"/></g><g transform="translate(110.551181102 233.87182628)"><g transform="matrix(1 0 0 -1 0 11.844)"><use xlink:href="#g763CD1329B145638F7CA2FC1B34B1822" x="0" y="0" fill="#0f1f1c" fill-rule="nonzero"/><use xlink:href="#g8CA929D1E4C4B97EADAFDF05D1A576B9" x="12.582" y="0" fill="#0f1f1c" fill-rule="nonzero"/><use xlink:href="#gB734F421729D7FEDB8B0EE1E1EA0CD29" x="26.154" y="0" fill="#0f1f1c" fill-rule="nonzero"/><use xlink:href="#gF14C377604C6893A1B5FBF988C117C84" x="35.262" y="0" fill="#0f1f1c" fill-rule="nonzero"/><use xlink:href="#gC6502D67F8A97EA9AAE96751BCF9F57" x="43.308" y="0" fill="#0f1f1c" fill-rule="nonzero"/><use xlink:href="#gD4D2AF1CFE03D90768AB777F476722D2" x="50.328" y="0" fill="#0f1f1c" fill-rule="nonzero"/><use xlink:href="#g3A01C6432CFD86234350E100FFBEBFA9" x="55.206" y="0" fill="#0f1f1c" fill-rule="nonzero"/><use xlink:href="#g4BAD997147D7C522293FF83512F0FE84" x="64.206" y="0" fill="#0f1f1c" fill-rule="nonzero"/><use xlink:href="#g2FB892216296617E4A22A4A96F950B99" x="78.462" y="0" fill="#0f1f1c" fill-rule="nonzero"/><use xlink:href="#g8CA929D1E4C4B97EADAFDF05D1A576B9" x="84.15" y="0" fill="#0f1f1c" fill-rule="nonzero"/><use xlink:href="#g8CA929D1E4C4B97EADAFDF05D1A576B9" x="93.348" y="0" fill="#0f1f1c" fill-rule="nonzero"/><use xlink:href="#gEE4910E8C583E65535BA875A3D5E5551" x="102.42" y="0" fill="#0f1f1c" fill-rule="nonzero"/><use xlink:href="#g370B07E733F22EF9EAB71B2DF6FCFC46" x="107.172" y="0" fill="#0f1f1c" fill-rule="nonzero"/><use xlink:href="#g4BAD997147D7C522293FF83512F0FE84" x="115.632" y="0" fill="#0f1f1c" fill-rule="nonzero"/><use xlink:href="#g8CA929D1E4C4B97EADAFDF05D1A576B9" x="125.388" y="0" fill="#0f1f1c" fill-rule="nonzero"/><use xlink:href="#gF80B307EF822B86FB55BF5DF0D963523" x="138.96" y="0" fill="#0f1f1c" fill-rule="nonzero"/><use xlink:href="#gA71AC0F14069258C6C6D364FF157BBA5" x="153.18" y="0" fill="#0f1f1c" fill-rule="nonzero"/><use xlink:href="#g4BAD997147D7C522293FF83512F0FE84" x="161.406" y="0" fill="#0f1f1c" fill-rule="nonzero"/><use xlink:href="#g7526E4234DDA1A75229FAC914BDBC428" x="171.162" y="0" fill="#0f1f1c" fill-rule="nonzero"/><use xlink:href="#gA71AC0F14069258C6C6D364FF157BBA5" x="180.72" y="0" fill="#0f1f1c" fill-rule="nonzero"/><use xlink:href="#gEE4910E8C583E65535BA875A3D5E5551" x="188.946" y="0" fill="#0f1f1c" fill-rule="nonzero"/><use xlink:href="#gF14C377604C6893A1B5FBF988C117C84" x="198.198" y="0" fill="#0f1f1c" fill-rule="nonzero"/><use xlink:href="#g4230FDF6391DC76389F3D2CC174200F" x="206.118" y="0" fill="#0f1f1c" fill-rule="nonzero"/><use xlink:href="#g3D1BE6A7D7DF58BE16C77B81DD4EDB19" x="214.938" y="0" fill="#0f1f1c" fill-rule="nonzero"/><use xlink:href="#g8CA929D1E4C4B97EADAFDF05D1A576B9" x="224.406" y="0" fill="#0f1f1c" fill-rule="nonzero"/><use xlink:href="#g6CE0D6591E89A716DA6CFE7F3C300A78" x="233.478" y="0" fill="#0f1f1c" fill-rule="nonzero"/><use xlink:href="#g2FB892216296617E4A22A4A96F950B99" x="240.174" y="0" fill="#0f1f1c" fill-rule="nonzero"/><use xlink:href="#g370B07E733F22EF9EAB71B2DF6FCFC46" x="245.862" y="0" fill="#0f1f1c" fill-rule="nonzero"/><use xlink:href="#g4BAD997147D7C522293FF83512F0FE84" x="254.322" y="0" fill="#0f1f1c" fill-rule="nonzero"/><use xlink:href="#g8CA929D1E4C4B97EADAFDF05D1A576B9" x="264.078" y="0" fill="#0f1f1c" fill-rule="nonzero"/><use xlink:href="#g3D1BE6A7D7DF58BE16C77B81DD4EDB19" x="277.65" y="0" fill="#0f1f1c" fill-rule="nonzero"/><use xlink:href="#gD4D2AF1CFE03D90768AB777F476722D2" x="286.992" y="0" fill="#0f1f1c" fill-rule="nonzero"/><use xlink:href="#g4230FDF6391DC76389F3D2CC174200F" x="291.87" y="0" fill="#0f1f1c" fill-rule="nonzero"/><use xlink:href="#gF14C377604C6893A1B5FBF988C117C84" x="300.69" y="0" fill="#0f1f1c" fill-rule="nonzero"/><use xlink:href="#gEE4910E8C583E65535BA875A3D5E5551" x="308.736" y="0" fill="#0f1f1c" fill-rule="nonzero"/><use xlink:href="#g3D1BE6A7D7DF58BE16C77B81DD4EDB19" x="317.988" y="0" fill="#0f1f1c" fill-rule="nonzero"/><use xlink:href="#g7526E4234DDA1A75229FAC914BDBC428" x="327.33" y="0" fill="#0f1f1c" fill-rule="nonzero"/><use xlink:href="#gC6502D67F8A97EA9AAE96751BCF9F57" x="336.888" y="0" fill="#0f1f1c" fill-rule="nonzero"/><use xlink:href="#g12EAA33DE55B39CFC2167BFB9E90B717" x="343.908" y="0" fill="#0f1f1c" fill-rule="nonzero"/><use xlink:href="#gD4D2AF1CFE03D90768AB777F476722D2" x="353.592" y="0" fill="#0f1f1c" fill-rule="nonzero"/><use xlink:href="#g4BAD997147D7C522293FF83512F0FE84" x="358.47" y="0" fill="#0f1f1c" fill-rule="nonzero"/><use xlink:href="#g3A01C6432CFD86234350E100FFBEBFA9" x="368.226" y="0" fill="#0f1f1c" fill-rule="nonzero"/><use xlink:href="#gEA39FD7EDF40C279C0C3838D3D6AB466" x="377.226" y="0" fill="#0f1f1c" fill-rule="nonzero"/></g></g></g><defs><symbol id="g12B4F24763C60C11DC82091DAA88390C" overflow="visible"><path d="M 0 0m 2.549804688 1.162109375h 4.689453125v -1.162109375h -6.200195313v 1.162109375q 1.278320313 1.346679688 2.235351563 2.37890625q 0.95703125 1.032226563 1.319335938 1.456054688q 0.68359375 0.833984375 0.922851563 1.350097656q 0.239257813 0.516113281 0.239257813 1.056152344q 0 0.854492188 -0.502441406 1.33984375q -0.502441406 0.485351563 -1.377441406 0.485351563q -0.622070313 0 -1.305664063 -0.225585938q -0.68359375 -0.225585938 -1.44921875 -0.68359375v 1.39453125q 0.704101563 0.334960938 1.384277344 0.505859375q 0.680175781 0.170898438 1.343261719 0.170898438q 1.497070313 0 2.409667969 -0.796386719q 0.912597656 -0.796386719 0.912597656 -2.088378906q 0 -0.65625 -0.304199219 -1.3125q -0.304199219 -0.65625 -0.987792969 -1.44921875q -0.3828125 -0.444335938 -1.110839844 -1.23046875q -0.728027344 -0.786132813 -2.218261719 -2.3515625Z "/></symbol><symbol id="g3E4573124205ACC198E9F459B510F564" overflow="visible"><path d="M 0 0m 6.077148438 10.206054688h 1.298828125l -5.373046875 -11.504882813h -1.305664063l 5.379882813 11.504882813Z "/></symbol><symbol id="g290682C0358F22985358E828942BD110" overflow="visible"><path d="M 0 0m 5.3046875 5.461914063q 1.004882813 -0.266601563 1.538085938 -0.946777344q 0.533203125 -0.680175781 0.533203125 -1.698730469q 0 -1.408203125 -0.946777344 -2.211425781q -0.946777344 -0.803222656 -2.621582031 -0.803222656q -0.704101563 0 -1.435546875 0.129882813q -0.731445313 0.129882813 -1.435546875 0.375976563v 1.374023438q 0.697265625 -0.362304688 1.374023438 -0.540039063q 0.676757813 -0.177734375 1.346679688 -0.177734375q 1.134765625 0 1.743164063 0.512695313q 0.608398438 0.512695313 0.608398438 1.4765625q 0 0.888671875 -0.608398438 1.411621094q -0.608398438 0.522949219 -1.647460938 0.522949219h -1.052734375v 1.134765625h 1.052734375q 0.950195313 0 1.483398438 0.416992188q 0.533203125 0.416992188 0.533203125 1.162109375q 0 0.786132813 -0.495605469 1.206542969q -0.495605469 0.420410156 -1.411621094 0.420410156q -0.608398438 0 -1.2578125 -0.13671875q -0.649414063 -0.13671875 -1.360351563 -0.41015625v 1.271484375q 0.827148438 0.21875 1.473144531 0.328125q 0.645996094 0.109375 1.145019531 0.109375q 1.490234375 0 2.382324219 -0.748535156q 0.892089844 -0.748535156 0.892089844 -1.985839844q 0 -0.840820313 -0.468261719 -1.401367188q -0.468261719 -0.560546875 -1.363769531 -0.79296875Z "/></symbol><symbol id="g3C72BE75F5354BD0A554C057F2FA573A" overflow="visible"><path d="M 0 0m 0 9.477050781h 1.250488281l 0.907714844 -7.693359375l 1.079101563 5.090820313h 1.339355469l 1.091796875 -5.103515625l 0.907714844 7.706054688h 1.250488281l -1.415527344 -9.477050781h -1.212402344l -1.288574219 5.630371094l -1.282226563 -5.630371094h -1.212402344l -1.415527344 9.477050781Z "/></symbol><symbol id="g8266A689B851DEF3E1736EDC378F4835" overflow="visible"><path d="M 0 0m 0.869628906 9.477050781h 1.288574219v -3.884765625h 3.510253906v 3.884765625h 1.288574219v -9.477050781h -1.288574219v 4.513183594h -3.510253906v -4.513183594h -1.288574219v 9.477050781Z "/></symbol><symbol id="g4EBE89919D7A75A1CFCCDA9CB6B4C48B" overflow="visible"><path d="M 0 0m 0.234863281 9.477050781h 1.364746094l 2.310546875 -4.183105469l 2.304199219 4.183105469h 1.377441406l -3.040527344 -5.224121094v -4.252929688h -1.288574219v 4.252929688l -3.027832031 5.224121094Z "/></symbol><symbol id="gBC5416D29E50877D61457B98B84FAAEF" overflow="visible"><path d="M 0 0m 0.298339844 9.477050781h 7.229980469v -1.079101563h -2.964355469v -8.397949219h -1.288574219v 8.397949219h -2.977050781v 1.079101563Z "/></symbol><symbol id="g5032CFCAE45184E06787003414B76DCC" overflow="visible"><path d="M 0 0m 2.532714844 8.423339844v -3.561035156h 1.485351563q 0.888671875 0 1.386962891 0.469726563q 0.498291016 0.469726563 0.498291016 1.313964844q 0 0.844238281 -0.495117188 1.310791016q -0.495117188 0.466552734 -1.390136719 0.466552734h -1.485351563Z m -1.282226563 1.053710938h 2.767578125q 1.586914063 0 2.405761719 -0.720458984q 0.818847656 -0.720458984 0.818847656 -2.110595703q 0 -1.402832031 -0.815673828 -2.120117188q -0.815673828 -0.717285156 -2.408935547 -0.717285156h -1.485351563v -3.80859375h -1.282226563v 9.477050781Z "/></symbol><symbol id="gDB69EAF5B2019833F3A1F0B97FB4D4F0" overflow="visible"><path d="M 0 0m 6.423828125 9.153320313v -1.301269531q -0.583984375 0.374511719 -1.171142578 0.564941406q -0.587158203 0.190429688 -1.183837891 0.190429688q -0.907714844 0 -1.434570313 -0.422119141q -0.526855469 -0.422119141 -0.526855469 -1.139404297q 0 -0.628417969 0.345947266 -0.958496094q 0.345947266 -0.330078125 1.291748047 -0.552246094l 0.672851563 -0.15234375q 1.333007813 -0.311035156 1.942382813 -0.977539063q 0.609375 -0.666503906 0.609375 -1.815429688q 0 -1.352050781 -0.837890625 -2.062988281q -0.837890625 -0.7109375 -2.4375 -0.7109375q -0.666503906 0 -1.339355469 0.142822266q -0.672851563 0.142822266 -1.352050781 0.428466797v 1.364746094q 0.729980469 -0.463378906 1.380615234 -0.679199219q 0.650634766 -0.215820313 1.310791016 -0.215820313q 0.971191406 0 1.510742188 0.434814453q 0.539550781 0.434814453 0.539550781 1.215576172q 0 0.7109375 -0.371337891 1.085449219q -0.371337891 0.374511719 -1.291748047 0.577636719l -0.685546875 0.158691406q -1.3203125 0.298339844 -1.916992188 0.901367188q -0.596679688 0.603027344 -0.596679688 1.618652344q 0 1.26953125 0.853759766 2.034423828q 0.853759766 0.764892578 2.269287109 0.764892578q 0.545898438 0 1.148925781 -0.123779297q 0.603027344 -0.123779297 1.26953125 -0.371337891Z "/></symbol><symbol id="g727B822BF8B0C9F11E0495B4D9C4D20D" overflow="visible"><path d="M 0 0m 12.96 3.936v 12.16c 0 2.048 0.32 3.232 1.472 3.232h 0.704c 2.4 0 3.744 -0.8 4.288 -3.264c 0.352 0 0.96 0.032 1.248 0.16c -0.224 1.472 -0.384 3.136 -0.416 4.576c 0 0.032 -0.064 0.096 -0.096 0.096c -1.088 -0.096 -4.64 -0.256 -7.168 -0.256h -4.512c -2.464 0 -6.24 0.16 -7.456 0.256c -0.064 0 -0.128 -0.064 -0.128 -0.096c -0.128 -1.44 -0.448 -3.136 -0.8 -4.672c 0.32 -0.128 0.864 -0.16 1.248 -0.16c 0.64 2.56 1.952 3.36 4.064 3.36h 1.568c 1.184 0 1.504 -1.184 1.504 -3.136v -12.256c 0 -2.656 -0.544 -2.816 -3.104 -2.912c -0.192 -0.192 -0.192 -0.896 0 -1.088c 1.568 0.032 3.232 0.064 5.28 0.064c 2.112 0 3.808 -0.032 5.408 -0.064c 0.192 0.192 0.192 0.896 0 1.088c -2.56 0.096 -3.104 0.256 -3.104 2.912Z "/></symbol><symbol id="gF3AEE9B7483354CD351D9C619BBE5016" overflow="visible"><path d="M 0 0m 16.896 4.096v 4.992c 0 3.52 -1.504 5.12 -4.256 5.12c -1.184 0 -3.456 -1.184 -5.28 -2.304v 6.752c 0 2.08 0.096 3.264 0.096 3.264c 0 0.288 -0.224 0.416 -0.512 0.416c -1.184 -0.384 -3.744 -0.736 -6.016 -0.832c -0.096 -0.384 -0.064 -0.736 0.096 -1.024c 2.016 -0.16 2.176 -0.192 2.176 -2.4v -14.016c 0 -2.656 -0.512 -2.944 -2.464 -3.04c -0.192 -0.192 -0.192 -0.896 0 -1.088c 1.344 0.032 2.784 0.064 4.544 0.064c 1.536 0 2.528 -0.032 3.904 -0.064c 0.192 0.192 0.192 0.896 0 1.088c -1.344 0.096 -1.824 0.384 -1.824 3.04v 6.56c 1.344 0.832 2.4 1.216 2.976 1.216c 1.28 0 2.4 -0.576 2.4 -2.4v -5.344c 0 -2.688 -0.512 -2.976 -1.824 -3.072c -0.192 -0.192 -0.192 -0.896 0 -1.088c 1.344 0.032 2.368 0.064 3.904 0.064c 1.76 0 3.168 -0.032 4.544 -0.064c 0.192 0.192 0.192 0.896 0 1.088c -1.952 0.096 -2.464 0.384 -2.464 3.072Z "/></symbol><symbol id="gF5319D267F6BD29D5AD0B76371FA4378" overflow="visible"><path d="M 0 0m 7.296 8.576c 0 1.152 0.352 1.632 0.768 2.112c 0.256 0.32 0.544 0.544 1.024 0.544c 0.288 0 0.64 -0.288 0.896 -0.608c 0.224 -0.256 0.768 -0.512 1.504 -0.512c 0.928 0 1.824 0.96 1.824 2.304c 0 0.832 -0.96 1.792 -2.112 1.792c -1.12 0 -2.336 -0.96 -3.808 -3.072h -0.128c -0.064 0.96 -0.224 2.528 -0.224 2.528c -0.032 0.288 -0.288 0.544 -0.736 0.544c -1.504 -0.384 -3.2 -0.832 -5.312 -1.056c -0.064 -0.192 0 -0.8 0.064 -0.992c 1.76 -0.16 2.08 -0.448 2.08 -2.272v -5.984c 0 -2.656 -0.352 -2.72 -2.304 -2.88c -0.192 -0.192 -0.192 -0.896 0 -1.088c 1.344 0.032 2.688 0.064 4.384 0.064c 1.696 0 3.008 -0.032 4.384 -0.064c 0.192 0.192 0.192 0.896 0 1.088c -1.952 0.128 -2.304 0.224 -2.304 2.88Z "/></symbol><symbol id="g3199BFDF963B1298AE87F91957D54079" overflow="visible"><path d="M 0 0m 13.792 4.128c -1.312 -1.344 -3.04 -1.696 -4.256 -1.696c -2.496 0 -4.032 1.44 -4.032 4.576c 0 0.224 0.032 0.352 0.032 0.512h 7.68c 0.768 0 0.928 0.544 0.928 0.992c 0 2.72 -1.056 5.696 -5.76 5.696c -3.36 0 -7.2 -2.976 -7.2 -7.872c 0 -1.856 0.672 -3.808 2.048 -5.056c 1.216 -1.088 2.784 -1.6 5.056 -1.6c 2.208 0 4.384 1.12 5.984 3.456c 0 0.416 -0.16 0.992 -0.48 0.992Z m -8.128 4.672c 0.032 1.12 0.192 2.336 0.64 2.976c 0.512 0.768 1.376 1.088 1.728 1.088c 0.864 0 2.048 -0.832 2.048 -3.392c 0 -0.192 0 -0.608 -0.064 -0.672Z "/></symbol><symbol id="g7A4E725C3D8AD8143B0DD7C9D6CF1472" overflow="visible"><path d="M 0 0m 9.44 1.568c 0.224 -1.312 1.088 -1.888 2.496 -1.888c 1.76 0 3.008 0.672 4.192 1.792c -0.064 0.384 -0.192 0.64 -0.576 0.896c -0.416 -0.32 -0.736 -0.448 -1.344 -0.448c -0.704 0 -0.896 0.576 -0.896 2.144l 0.064 4.608c 0 4.608 -2.848 5.536 -5.472 5.536c -2.336 0 -5.92 -1.344 -5.92 -3.456c 0 -0.896 0.384 -1.6 1.632 -1.6c 1.152 0 1.984 0.704 1.984 1.472c 0 0.16 -0.032 0.352 -0.064 0.544c -0.064 0.32 -0.128 0.64 -0.064 0.96c 0.032 0.352 0.288 0.736 1.344 0.736c 1.344 0 2.464 -0.576 2.464 -4.64l -2.144 -0.672c -3.36 -1.056 -5.728 -1.984 -5.728 -4.512c 0 -2.208 1.216 -3.36 4 -3.36c 0.928 0 2.784 1.024 3.84 1.856Z m -0.16 5.408v -4.224c -0.8 -0.64 -1.6 -1.152 -2.176 -1.152c -1.376 0 -1.856 0.928 -1.856 1.92c 0 1.184 0.096 2.176 2.368 2.912Z "/></symbol><symbol id="gF2E2CF453DEC8F50EFCCC6910B1C31BC" overflow="visible"><path d="M 0 0m 1.536 4.672c 0.128 -1.568 0.288 -3.072 0.544 -4.288c 0.608 -0.192 2.656 -0.704 4.448 -0.704c 2.464 0 5.536 1.344 5.536 4.128c 0 1.088 -0.256 1.952 -0.992 2.752c -0.896 1.024 -2.24 1.824 -3.712 2.464c -1.28 0.544 -1.728 1.568 -1.728 2.496c 0 0.736 0.608 1.344 1.536 1.344c 1.12 0 2.208 -1.024 3.008 -2.976c 0.576 -0.096 0.928 -0.064 1.248 0.16c 0 1.152 -0.128 2.368 -0.416 3.392c -1.024 0.448 -1.824 0.768 -3.584 0.768c -1.696 0 -3.296 -0.64 -4.32 -1.664c -0.736 -0.736 -1.088 -1.632 -1.088 -2.496c 0 -0.96 0.384 -1.728 0.992 -2.4c 0.992 -1.088 2.752 -2.208 3.712 -2.656c 1.28 -0.576 1.632 -1.728 1.632 -2.496c 0 -1.024 -1.024 -1.568 -1.888 -1.568c -1.44 0 -2.976 1.472 -3.648 3.808c -0.512 0.096 -0.768 0.064 -1.28 -0.064Z "/></symbol><symbol id="g2B5C7B2D57C889A5AE716E3EE49138E6" overflow="visible"><path d="M 0 0m 1.184 6.624c 0 -4.192 3.328 -6.944 7.616 -6.944c 2.272 0 4.16 0.64 5.472 1.824c 1.632 1.44 2.176 3.616 2.176 5.408c 0 4.192 -2.848 7.296 -7.616 7.296c -2.656 0 -4.64 -0.928 -5.888 -2.368c -1.216 -1.408 -1.76 -3.328 -1.76 -5.216Z m 7.136 6.24c 2.176 0 3.648 -2.592 3.648 -6.976c 0 -3.84 -1.504 -4.864 -2.656 -4.864c -2.624 0 -3.648 3.936 -3.648 6.304c 0 2.944 0.512 5.536 2.656 5.536Z "/></symbol><symbol id="gB01CC3CEBCE063EE5E3D9083A0590916" overflow="visible"><path d="M 0 0m 7.296 3.904v 6.432c 1.28 0.864 2.56 1.504 3.136 1.504c 1.28 0 2.24 -0.576 2.24 -2.4v -5.344c 0 -2.688 -0.512 -2.976 -1.824 -3.072c -0.192 -0.192 -0.192 -0.896 0 -1.088c 1.344 0.032 2.368 0.064 3.904 0.064c 1.76 0 3.168 -0.032 4.544 -0.064c 0.192 0.192 0.192 0.896 0 1.088c -1.952 0.096 -2.464 0.384 -2.464 3.072v 4.992c 0 3.52 -1.504 5.12 -4.256 5.12c -1.28 0 -3.552 -1.408 -5.312 -2.624c -0.096 1.12 -0.224 2.08 -0.224 2.08c -0.032 0.384 -0.288 0.544 -0.736 0.544c -1.184 -0.32 -3.104 -0.768 -5.312 -1.056c -0.064 -0.192 0 -0.832 0.064 -1.024c 1.76 -0.16 2.08 -0.416 2.08 -2.24v -5.984c 0 -2.656 -0.352 -2.72 -2.304 -2.88c -0.192 -0.192 -0.192 -0.896 0 -1.088c 1.344 0.032 2.688 0.064 4.384 0.064c 1.472 0 2.368 -0.032 3.744 -0.064c 0.192 0.192 0.192 0.896 0 1.088c -1.344 0.128 -1.664 0.224 -1.664 2.88Z "/></symbol><symbol id="gF8FE094D6EF780C643F81BE02829640A" overflow="visible"><path d="M 0 0m 7.424 3.904v 6.368c 0 1.6 0.128 3.392 0.128 3.392c 0 0.352 -0.288 0.544 -0.736 0.544c -0.896 -0.352 -3.488 -0.608 -5.696 -0.896c -0.064 -0.192 0 -0.832 0.064 -1.024c 1.76 -0.16 2.08 -0.416 2.08 -2.24v -6.144c 0 -2.656 -0.352 -2.72 -2.304 -2.88c -0.192 -0.192 -0.192 -0.896 0 -1.088c 1.344 0.032 2.688 0.064 4.384 0.064c 1.696 0 3.008 -0.032 4.384 -0.064c 0.192 0.192 0.192 0.896 0 1.088c -1.952 0.128 -2.304 0.224 -2.304 2.88Z m -4.32 15.168c 0 -1.056 0.768 -2.112 2.048 -2.112c 1.44 0 2.272 1.152 2.272 1.984c 0 0.96 -0.736 2.112 -2.08 2.112c -1.504 0 -2.24 -1.024 -2.24 -1.984Z "/></symbol><symbol id="g8768EE16E111452FF47FA8C59EFF028" overflow="visible"><path d="M 0 0m 2.016 13.888c -0.448 0 -0.928 -0.128 -1.344 -0.48v -0.928c 0 -0.16 0.032 -0.192 0.16 -0.192h 2.08c -0.064 -3.232 -0.096 -7.328 -0.096 -8.928c 0 -1.12 0.288 -2.208 0.96 -2.784c 0.736 -0.608 1.888 -0.896 2.656 -0.896c 1.76 0 3.712 0.896 4.352 1.792c 0 0.384 -0.192 0.576 -0.576 0.896c -0.416 -0.32 -1.216 -0.448 -1.824 -0.448c -0.704 0 -1.408 0.544 -1.408 2.144c 0 1.6 -0.032 5.024 -0.032 8.224h 3.232c 0.32 0 0.768 0.128 0.768 0.416v 0.992c 0 0.128 -0.096 0.192 -0.256 0.192h -3.744l 0.032 1.088c 0.064 2.144 0.16 3.616 0.16 3.616c 0 0.192 -0.096 0.288 -0.256 0.288c -0.224 0 -1.408 -0.352 -1.92 -0.576c -0.544 -0.224 -1.472 -0.416 -1.696 -0.704c -0.224 -0.288 -0.352 -1.152 -0.352 -3.712Z "/></symbol><symbol id="gDF67AEF496C2E04D16C09421D83C905D" overflow="visible"><path d="M 0 0m 7.52 4.096v 8.192h 4.192c 1.472 -0.16 1.76 -0.512 1.76 -2.24v -6.144c 0 -2.656 -0.384 -2.72 -1.984 -2.88c -0.192 -0.192 -0.192 -0.896 0 -1.088c 1.344 0.032 2.496 0.064 4.064 0.064c 1.696 0 3.008 -0.032 4.384 -0.064c 0.192 0.192 0.192 0.896 0 1.088c -1.952 0.128 -2.304 0.224 -2.304 2.88v 6.368c 0 1.6 0.128 3.392 0.128 3.392c 0 0.352 -0.288 0.544 -0.736 0.544c -0.48 -0.192 -1.408 -0.256 -2.496 -0.32h -7.008v 1.408c 0 4.768 2.112 5.696 2.816 5.696c 1.056 0 1.728 -0.544 2.208 -1.856c 0.384 -1.024 1.184 -2.08 2.368 -2.08c 1.12 0 2.048 0.704 2.048 2.144c 0 0.576 -0.608 1.6 -1.6 2.144c -1.056 0.576 -2.688 0.992 -4.416 0.992c -1.984 0 -3.712 -0.48 -4.896 -1.632c -1.472 -1.44 -2.688 -2.784 -2.688 -6.4v -0.416h -0.384c -1.088 0 -2.272 -0.48 -2.272 -0.736v -0.544c 0 -0.224 0.128 -0.32 0.864 -0.32h 1.792v -8.256c 0 -2.624 -0.512 -2.912 -2.464 -3.008c -0.192 -0.192 -0.192 -0.896 0 -1.088c 1.344 0.032 2.784 0.064 4.544 0.064c 1.664 0 2.848 -0.032 4.224 -0.064c 0.192 0.192 0.192 0.896 0 1.088c -1.664 0.128 -2.144 0.384 -2.144 3.072Z "/></symbol><symbol id="g85F870BECD06F73E44BEFCBB88257478" overflow="visible"><path d="M 0 0m 13.504 2.784c 0 0.384 -0.064 0.992 -0.416 0.992c -1.28 -1.184 -2.368 -1.792 -3.296 -1.792c -2.4 0 -4.288 1.728 -4.288 5.568c 0 3.552 0.8 5.312 2.496 5.312c 1.184 0 1.664 -1.248 1.76 -2.272c 0.096 -0.864 0.96 -1.504 1.984 -1.504c 1.024 0 1.76 0.8 1.76 1.792c 0 1.44 -1.728 3.328 -5.216 3.328c -3.776 0 -7.104 -3.04 -7.104 -7.776c 0 -2.08 0.736 -3.904 1.984 -5.088c 1.248 -1.184 2.72 -1.664 4.992 -1.664c 1.92 0 4.128 1.344 5.344 3.104Z "/></symbol><symbol id="gC22E1235C07F6A9C913000FCE7015052" overflow="visible"><path d="M 0 0m 16.32 4.256v 5.536c 0 2.688 0.064 2.304 0.064 3.072c 0 0.544 -0.128 0.896 -0.32 1.088c -0.576 -0.032 -1.216 -0.064 -1.824 -0.064c -0.896 0 -2.976 0.032 -4.224 0.064c -0.192 -0.192 -0.192 -0.896 0 -1.088c 1.632 -0.16 2.144 -0.384 2.144 -3.072v -5.92c 0 -0.32 0 -0.64 0.032 -0.96c -1.312 -0.8 -2.368 -0.864 -2.944 -0.864c -1.28 0 -2.24 0.16 -2.24 2.4v 5.344c 0 2.688 0.064 2.304 0.064 3.072c 0 0.544 -0.128 0.896 -0.32 1.088c -0.576 -0.032 -1.248 -0.064 -1.824 -0.064c -1.632 0 -2.848 0.032 -4.224 0.064c -0.192 -0.192 -0.192 -0.896 0 -1.088c 1.472 -0.064 2.144 -0.384 2.144 -3.072v -4.992c 0 -3.392 1.344 -5.12 4.096 -5.12c 1.152 0 3.488 0.928 5.344 1.952c 0.064 -0.8 0.128 -1.408 0.128 -1.408c 0.032 -0.384 0.288 -0.544 0.736 -0.544c 1.184 0.32 3.104 0.768 5.312 1.056c 0.064 0.192 0 0.832 -0.064 1.024c -1.728 0.16 -2.08 0.672 -2.08 2.496Z "/></symbol><symbol id="g1113511317E717628708072C5CBF4B60" overflow="visible"><path d="M 0 0m 3.2 4.064c 0 -2.656 -0.512 -2.944 -2.464 -3.04c -0.192 -0.192 -0.192 -0.896 0 -1.088c 1.344 0.032 2.784 0.064 4.544 0.064c 1.76 0 3.168 -0.032 4.544 -0.064c 0.192 0.192 0.192 0.896 0 1.088c -1.952 0.096 -2.464 0.384 -2.464 3.04v 14.592c 0 2.08 0.096 3.264 0.096 3.264c 0 0.288 -0.224 0.416 -0.512 0.416c -1.184 -0.384 -3.744 -0.736 -6.016 -0.832c -0.096 -0.384 -0.064 -0.736 0.096 -1.024c 2.016 -0.16 2.176 -0.192 2.176 -2.4Z "/></symbol><symbol id="gAE68F787B16A4145742AE43F27F02CAA" overflow="visible"><path d="M 0 0m 1.568 1.856c 0 -1.216 1.024 -2.176 2.304 -2.176c 1.28 0 2.368 1.024 2.368 2.24c 0 1.248 -1.024 2.208 -2.304 2.208c -1.28 0 -2.368 -1.024 -2.368 -2.272Z "/></symbol><symbol id="gB747CD3665E27F01F03A3C6D5432EAD1" overflow="visible"><path d="M 0 0m 2.01953125 2.79296875h 3.544921875v 10.409179688l -3.297851563 -0.81640625v 2.857421875l 3.319335938 0.794921875h 3.061523438v -13.245117188h 3.544921875v -2.79296875h -10.172851563v 2.79296875Z "/></symbol><symbol id="gB37E5593BB49025D576B66546B7C455E" overflow="visible"><path d="M 0 0m 1.872 9.414v -7.218c 0 -1.494 -0.306 -1.584 -1.566 -1.638c -0.108 -0.108 -0.108 -0.486 0 -0.594c 0.81 0.018 1.692 0.036 2.34 0.036c 0.63 0 1.692 -0.018 2.592 -0.036c 0.108 0.108 0.108 0.486 0 0.594c -1.404 0.072 -1.836 0.144 -1.836 1.638v 3.06c 0.396 -0.126 0.828 -0.18 1.458 -0.18c 3.276 0 4.266 2.142 4.266 3.672c 0 1.062 -0.702 2.988 -4.032 2.988c -0.684 0 -1.746 -0.126 -2.466 -0.126c -0.666 0 -1.602 0.018 -2.322 0.036c -0.108 -0.108 -0.108 -0.486 0 -0.594c 1.26 -0.054 1.566 -0.144 1.566 -1.638Z m 1.53 0.558c 0 0.522 0.27 1.152 1.566 1.152c 1.242 0 2.484 -0.414 2.484 -2.7c 0 -1.944 -0.936 -2.736 -2.682 -2.736c -0.45 0 -1.17 0.036 -1.368 0.09Z "/></symbol><symbol id="gEE4910E8C583E65535BA875A3D5E5551" overflow="visible"><path d="M 0 0m 1.71 2.196c 0 -1.494 -0.198 -1.584 -1.296 -1.638c -0.108 -0.108 -0.108 -0.486 0 -0.594c 0.63 0.018 1.296 0.036 2.016 0.036c 0.72 0 1.404 -0.018 1.998 -0.036c 0.108 0.108 0.108 0.486 0 0.594c -1.098 0.054 -1.296 0.144 -1.296 1.638v 8.298c 0 1.17 0.072 1.89 0.072 1.89c 0 0.126 -0.072 0.18 -0.234 0.18c -0.45 -0.18 -1.8 -0.432 -2.52 -0.486c -0.036 -0.144 0 -0.432 0.108 -0.54c 1.044 -0.072 1.152 -0.126 1.152 -1.476Z "/></symbol><symbol id="gA71AC0F14069258C6C6D364FF157BBA5" overflow="visible"><path d="M 0 0m 5.274 0.864c 0.108 -0.558 0.306 -1.044 1.206 -1.044c 0.684 0 1.332 0.306 1.71 0.666c -0.036 0.216 -0.108 0.378 -0.306 0.486c -0.126 -0.108 -0.432 -0.288 -0.666 -0.288c -0.522 0 -0.54 0.702 -0.54 1.53v 2.646c 0 2.556 -1.404 3.042 -2.718 3.042c -1.476 0 -2.97 -0.972 -2.97 -1.998c 0 -0.432 0.216 -0.648 0.63 -0.648c 0.522 0 0.846 0.378 0.846 0.612c 0 0.126 -0.018 0.252 -0.054 0.324c -0.018 0.054 -0.036 0.162 -0.036 0.36c 0 0.558 0.756 0.756 1.44 0.756c 0.612 0 1.458 -0.306 1.458 -2.34c 0 -0.126 -0.054 -0.198 -0.108 -0.216l -1.548 -0.378c -1.728 -0.432 -2.97 -1.386 -2.97 -2.61c 0 -1.476 1.008 -1.944 2.268 -1.944c 0.63 0 1.17 0.144 1.962 0.756l 0.36 0.288Z m 0 3.33v -2.376c 0 -0.234 -0.108 -0.36 -0.252 -0.468c -0.468 -0.378 -1.08 -0.792 -1.584 -0.792c -0.9 0 -1.296 0.72 -1.296 1.278c 0 0.81 0.378 1.638 1.71 1.98Z "/></symbol><symbol id="gD4D2AF1CFE03D90768AB777F476722D2" overflow="visible"><path d="M 0 0m 3.258 2.196v 3.582c 0 0.9 0.072 2.052 0.072 2.052c 0 0.072 -0.09 0.126 -0.234 0.126c -0.504 -0.198 -1.224 -0.36 -2.466 -0.522c -0.036 -0.108 0 -0.396 0.036 -0.504c 0.99 -0.09 1.17 -0.198 1.17 -1.224v -3.51c 0 -1.494 -0.198 -1.548 -1.296 -1.638c -0.108 -0.108 -0.108 -0.486 0 -0.594c 0.594 0.018 1.296 0.036 2.016 0.036c 0.72 0 1.404 -0.018 1.998 -0.036c 0.108 0.108 0.108 0.486 0 0.594c -1.098 0.072 -1.296 0.144 -1.296 1.638Z m -1.638 8.586c 0 -0.468 0.432 -0.936 0.864 -0.936c 0.504 0 0.936 0.486 0.936 0.864c 0 0.432 -0.378 0.936 -0.864 0.936c -0.432 0 -0.936 -0.432 -0.936 -0.864Z "/></symbol><symbol id="g4BAD997147D7C522293FF83512F0FE84" overflow="visible"><path d="M 0 0m 3.312 6.444c -0.108 -0.126 -0.216 -0.162 -0.216 0c -0.018 0.486 -0.054 1.188 -0.144 1.368c -0.036 0.09 -0.072 0.144 -0.216 0.144c -0.504 -0.198 -0.972 -0.36 -2.214 -0.522c -0.036 -0.108 0 -0.396 0.036 -0.504c 0.972 -0.09 1.17 -0.18 1.17 -1.224v -3.51c 0 -1.476 -0.18 -1.548 -1.26 -1.638c -0.108 -0.108 -0.108 -0.486 0 -0.594c 0.54 0.018 1.26 0.036 1.98 0.036c 0.72 0 1.26 -0.018 1.8 -0.036c 0.108 0.108 0.108 0.486 0 0.594c -0.918 0.09 -1.098 0.162 -1.098 1.638v 2.952c 0 0.378 0.162 0.594 0.306 0.756c 0.684 0.666 1.494 1.062 2.196 1.062c 0.36 0 0.738 -0.234 0.954 -0.648c 0.18 -0.36 0.216 -0.846 0.216 -1.386v -2.736c 0 -1.476 -0.18 -1.548 -1.116 -1.638c -0.09 -0.108 -0.09 -0.486 0 -0.594c 0.54 0.018 1.116 0.036 1.836 0.036c 0.72 0 1.368 -0.018 1.908 -0.036c 0.09 0.108 0.09 0.486 0 0.594c -1.008 0.09 -1.206 0.162 -1.206 1.638v 2.682c 0 0.99 -0.072 1.854 -0.486 2.412c -0.306 0.396 -0.864 0.612 -1.494 0.612c -0.882 0 -1.89 -0.234 -2.952 -1.458Z "/></symbol><symbol id="g2FB892216296617E4A22A4A96F950B99" overflow="visible"><path d="M 0 0m 0.774 7.722c -0.252 0 -0.324 -0.216 -0.324 -0.36v -0.234c 0 -0.09 0.018 -0.108 0.09 -0.108h 1.062v -5.418c 0 -1.278 0.558 -1.782 1.386 -1.782c 0.828 0 1.728 0.396 2.43 1.188c -0.036 0.18 -0.144 0.288 -0.324 0.306c -0.468 -0.36 -1.008 -0.504 -1.476 -0.504c -0.486 0 -0.594 0.54 -0.594 1.656v 4.554h 1.872c 0.18 0 0.432 0.072 0.432 0.234v 0.36c 0 0.072 -0.054 0.108 -0.144 0.108h -2.16v 0.702c 0 1.17 0.072 1.89 0.072 1.89c 0 0.108 -0.054 0.162 -0.144 0.162c -0.072 0 -0.234 -0.072 -0.396 -0.162c -0.198 -0.108 -0.378 -0.198 -0.612 -0.252c -0.216 -0.072 -0.396 -0.126 -0.396 -0.252c 0 -0.216 0.054 -0.09 0.054 -2.088Z "/></symbol><symbol id="gF14C377604C6893A1B5FBF988C117C84" overflow="visible"><path d="M 0 0m 6.948 1.674c -0.666 -0.684 -1.188 -0.972 -2.232 -0.972c -0.648 0 -1.404 0.378 -1.962 1.296c -0.36 0.594 -0.576 1.422 -0.576 2.466l 4.788 -0.036c 0.216 0 0.342 0.108 0.342 0.306c 0 1.512 -0.54 3.132 -3.042 3.132c -1.566 0 -3.6 -1.494 -3.6 -4.23c 0 -1.008 0.252 -1.98 0.846 -2.664c 0.612 -0.72 1.458 -1.152 2.754 -1.152c 1.368 0 2.34 0.63 3.06 1.566c -0.054 0.18 -0.162 0.27 -0.378 0.288Z m -4.716 3.402c 0.342 2.034 1.602 2.196 2.034 2.196c 0.684 0 1.494 -0.378 1.494 -1.89c 0 -0.162 -0.072 -0.252 -0.27 -0.252Z "/></symbol><symbol id="g4230FDF6391DC76389F3D2CC174200F" overflow="visible"><path d="M 0 0m 3.276 6.444c -0.414 0.612 -0.288 0.63 0.522 0.72c 0.108 0.108 0.108 0.486 0 0.594c -0.486 -0.018 -1.278 -0.036 -1.818 -0.036c -0.54 0 -1.08 0.018 -1.548 0.036c -0.108 -0.108 -0.108 -0.486 0 -0.594c 0.612 -0.054 1.116 -0.36 1.62 -1.098l 1.566 -2.286c 0.09 -0.126 0.09 -0.18 0.018 -0.27l -1.512 -1.944c -0.72 -0.918 -1.116 -0.972 -1.746 -1.008c -0.108 -0.108 -0.108 -0.486 0 -0.594c 0.36 0.018 0.756 0.036 1.296 0.036c 0.54 0 1.044 -0.018 1.512 -0.036c 0.108 0.108 0.108 0.486 0 0.594c -0.648 0.072 -0.792 0.144 -0.396 0.72l 1.134 1.638c 0.144 0.216 0.216 0.198 0.324 0.036l 1.044 -1.44c 0.63 -0.864 0.342 -0.9 -0.234 -0.954c -0.108 -0.108 -0.108 -0.486 0 -0.594c 0.54 0.018 1.134 0.036 1.782 0.036c 0.684 0 1.17 -0.018 1.602 -0.036c 0.108 0.108 0.108 0.486 0 0.594c -0.81 0.054 -1.08 0.108 -1.8 1.134l -1.62 2.286c -0.072 0.108 -0.09 0.162 0 0.27l 1.512 1.926c 0.666 0.846 1.098 0.936 1.746 0.99c 0.108 0.108 0.108 0.486 0 0.594c -0.36 -0.018 -0.774 -0.036 -1.314 -0.036c -0.54 0 -1.044 0.018 -1.512 0.036c -0.108 -0.108 -0.108 -0.486 0 -0.594c 0.666 -0.072 0.864 -0.126 0.432 -0.738l -1.17 -1.638c -0.126 -0.18 -0.198 -0.162 -0.342 0.036Z "/></symbol><symbol id="g370B07E733F22EF9EAB71B2DF6FCFC46" overflow="visible"><path d="M 0 0m 1.872 1.71c -0.558 0 -0.954 -0.378 -0.954 -0.882c 0 -0.558 0.468 -0.738 0.792 -0.792c 0.342 -0.036 0.648 -0.144 0.648 -0.558c 0 -0.378 -0.648 -1.206 -1.584 -1.44c 0 -0.18 0.036 -0.306 0.162 -0.432c 1.08 0.198 2.124 1.062 2.124 2.322c 0 1.08 -0.468 1.782 -1.188 1.782Z "/></symbol><symbol id="gD2D12C2363C38E1E7F8EB4C4DE91CAF7" overflow="visible"><path d="M 0 0m 2.664 11.61c -0.648 0 -1.602 0.018 -2.322 0.036c -0.108 -0.108 -0.108 -0.486 0 -0.594c 1.26 -0.054 1.566 -0.144 1.566 -1.638v -7.218c 0 -1.494 -0.306 -1.584 -1.566 -1.638c -0.108 -0.108 -0.108 -0.486 0 -0.594c 0.702 0.018 1.656 0.036 2.34 0.036c 0.666 0 1.422 -0.036 3.276 -0.036c 2.538 0 5.886 1.152 5.886 5.58c 0 3.348 -2.754 6.102 -6.21 6.102c -1.278 0 -2.268 -0.036 -2.97 -0.036Z m 0.774 -10.098v 8.64c 0 0.63 0.63 0.882 1.512 0.882c 3.888 0 5.166 -3.15 5.166 -5.922c 0 -3.636 -2.178 -4.536 -4.716 -4.536c -1.764 0 -1.962 0.36 -1.962 0.936Z "/></symbol><symbol id="g6F990A89F3AB3834CB0E0FD44D2CF28" overflow="visible"><path d="M 0 0m 5.094 5.814c 1.53 0 1.584 -0.414 1.638 -1.224c 0.108 -0.108 0.486 -0.108 0.594 0c -0.018 0.45 -0.036 0.972 -0.036 1.584c 0 0.612 0.018 1.08 0.036 1.548c -0.108 0.108 -0.486 0.108 -0.594 0c -0.054 -0.99 -0.108 -1.224 -1.638 -1.224h -1.674v 3.24c 0 0.972 0.216 1.152 1.008 1.152h 0.81c 1.908 0 2.358 -0.72 2.754 -1.962c 0.216 0 0.414 0.036 0.558 0.09c -0.09 0.738 -0.36 2.466 -0.396 2.61c 0 0.036 -0.018 0.054 -0.072 0.054c -0.306 -0.054 -0.396 -0.072 -0.846 -0.072h -4.59c -0.576 0 -1.602 0.018 -2.322 0.036c -0.108 -0.108 -0.108 -0.486 0 -0.594c 1.26 -0.054 1.566 -0.144 1.566 -1.638v -7.218c 0 -1.494 -0.306 -1.584 -1.566 -1.638c -0.108 -0.108 -0.108 -0.486 0 -0.594c 0.63 0.018 1.53 0.036 2.34 0.036c 0.81 0 1.692 -0.018 2.322 -0.036c 0.108 0.108 0.108 0.486 0 0.594c -1.26 0.054 -1.566 0.144 -1.566 1.638v 3.618Z "/></symbol><symbol id="g8CA929D1E4C4B97EADAFDF05D1A576B9" overflow="visible"><path d="M 0 0m 0.738 3.69c 0 -1.836 1.224 -3.87 3.78 -3.87c 1.152 0 2.034 0.414 2.646 1.008c 0.81 0.792 1.17 1.926 1.17 3.024c 0 1.872 -1.026 4.05 -3.78 4.05c -1.188 0 -2.16 -0.486 -2.826 -1.26c -0.648 -0.774 -0.99 -1.818 -0.99 -2.952Z m 3.546 3.582c 1.548 0 2.502 -1.404 2.502 -3.996c 0 -2.268 -1.17 -2.826 -2.016 -2.826c -1.872 0 -2.484 2.268 -2.484 3.654c 0 1.566 0.378 3.168 1.998 3.168Z "/></symbol><symbol id="g7526E4234DDA1A75229FAC914BDBC428" overflow="visible"><path d="M 0 0m 3.906 -0.18c 0.702 0 1.548 0.36 2.43 1.08c 0.09 0.072 0.252 0.108 0.27 -0.018c 0.054 -0.45 0.198 -1.062 0.198 -1.062c 0.144 -0.054 0.234 -0.036 0.342 0c 0.396 0.324 1.026 0.594 2.124 0.72c 0.108 0.108 0.108 0.378 0 0.486c -1.152 0.09 -1.314 0.432 -1.314 1.314v 3.456c 0 0.54 0.072 1.854 0.072 1.854c 0 0.054 -0.054 0.108 -0.144 0.108c -0.09 -0.018 -0.36 -0.036 -0.63 -0.036c -0.576 0 -1.224 0.018 -1.836 0.036c -0.108 -0.108 -0.108 -0.486 0 -0.594c 0.882 -0.054 1.116 -0.27 1.116 -1.458v -3.474c 0 -0.342 -0.036 -0.486 -0.288 -0.702c -0.666 -0.576 -1.35 -0.864 -1.8 -0.864c -0.54 0 -1.44 0.252 -1.44 1.854v 3.276c 0 0.54 0.072 1.854 0.072 1.854c 0 0.054 -0.054 0.108 -0.144 0.108c -0.09 -0.018 -0.36 -0.036 -0.63 -0.036c -0.576 0 -1.224 0.018 -1.836 0.036c -0.108 -0.108 -0.108 -0.486 0 -0.594c 0.864 -0.072 1.116 -0.27 1.116 -1.44v -3.456c 0 -1.242 0.54 -2.448 2.322 -2.448Z "/></symbol><symbol id="gEA39FD7EDF40C279C0C3838D3D6AB466" overflow="visible"><path d="M 0 0m 1.026 0.774c 0 -0.522 0.432 -0.954 0.954 -0.954c 0.522 0 0.954 0.432 0.954 0.954c 0 0.522 -0.432 0.954 -0.954 0.954c -0.522 0 -0.954 -0.432 -0.954 -0.954Z "/></symbol><symbol id="gA61AEB7691570E11476B4C7E3B139AF0" overflow="visible"><path d="M 0 0m 8.046 2.196v 4.824h 1.656c 0.18 0 0.432 0.072 0.432 0.234v 0.36c 0 0.072 -0.054 0.108 -0.144 0.108h -1.944v 0.954c 0 0.36 0.018 1.17 0.126 1.782c 0.252 1.314 0.72 1.476 1.116 1.476c 0.432 0 0.81 -0.252 0.972 -0.612c 0.18 -0.378 0.36 -0.72 0.846 -0.72c 0.36 0 0.63 0.27 0.63 0.63c 0 0.738 -0.828 1.332 -2.16 1.332c -0.666 0 -1.692 -0.396 -2.304 -1.35c -0.234 0.432 -1.044 1.044 -2.484 1.044c -0.486 0 -0.954 -0.126 -1.332 -0.342c -1.242 -0.72 -1.836 -1.998 -1.836 -4.194h -0.882c -0.324 0 -0.414 -0.216 -0.414 -0.36v -0.234c 0 -0.09 0.018 -0.108 0.09 -0.108h 1.206v -4.824c 0 -1.494 -0.198 -1.566 -1.17 -1.638c -0.108 -0.108 -0.108 -0.486 0 -0.594c 0.594 0.018 1.242 0.036 1.89 0.036c 0.576 0 1.188 -0.018 1.764 -0.036c 0.108 0.108 0.108 0.486 0 0.594c -0.828 0.072 -1.062 0.144 -1.062 1.638v 4.824h 3.582v -4.824c 0 -1.494 -0.198 -1.566 -0.99 -1.638c -0.108 -0.108 -0.108 -0.486 0 -0.594c 0.522 0.018 1.098 0.036 1.71 0.036c 0.576 0 1.35 -0.018 2.124 -0.036c 0.108 0.108 0.108 0.486 0 0.594c -1.224 0.072 -1.422 0.144 -1.422 1.638Z m -1.242 7.956c -0.162 -0.648 -0.18 -1.35 -0.18 -1.71v -0.72h -3.582v 0.162c 0 1.224 0.144 1.854 0.252 2.196c 0.378 1.44 1.188 1.638 1.458 1.638c 0.63 0 0.954 -0.432 1.152 -0.882c 0.162 -0.36 0.324 -0.72 0.792 -0.72c 0.036 0 0.09 0.018 0.108 0.036Z "/></symbol><symbol id="gB96A7AB956FB05E702D89B93BD910BD9" overflow="visible"><path d="M 0 0m 5.85 7.164c 0.972 -0.072 1.08 -0.288 0.702 -1.206l -1.458 -3.528c -0.288 -0.702 -0.378 -0.702 -0.666 0.054l -1.296 3.474c -0.324 0.864 -0.396 1.08 0.558 1.206c 0.108 0.108 0.108 0.486 0 0.594c -0.594 -0.018 -1.224 -0.036 -1.818 -0.036c -0.594 0 -1.134 0.018 -1.674 0.036c -0.108 -0.108 -0.108 -0.486 0 -0.594c 0.954 -0.108 1.08 -0.396 1.44 -1.314l 2.304 -5.688c 0.108 -0.27 0.216 -0.378 0.45 -0.378c 0.18 0 0.306 0.108 0.432 0.414l 2.394 5.634c 0.342 0.792 0.54 1.242 1.548 1.332c 0.108 0.108 0.108 0.486 0 0.594c -0.36 -0.018 -0.792 -0.036 -1.26 -0.036c -0.594 0 -1.206 0.018 -1.656 0.036c -0.108 -0.108 -0.108 -0.486 0 -0.594Z "/></symbol><symbol id="g6CE0D6591E89A716DA6CFE7F3C300A78" overflow="visible"><path d="M 0 0m 3.168 6.444c -0.036 0.72 -0.054 1.188 -0.144 1.368c -0.036 0.09 -0.072 0.144 -0.216 0.144c -0.504 -0.198 -0.972 -0.36 -2.214 -0.522c -0.036 -0.108 0 -0.396 0.036 -0.504c 0.972 -0.09 1.17 -0.18 1.17 -1.224v -3.51c 0 -1.494 -0.216 -1.566 -1.332 -1.638c -0.108 -0.108 -0.108 -0.486 0 -0.594c 0.63 0.018 1.332 0.036 2.052 0.036c 0.72 0 1.548 -0.018 2.178 -0.036c 0.108 0.108 0.108 0.486 0 0.594c -1.26 0.09 -1.476 0.144 -1.476 1.638v 2.502c 0 0.468 0.216 0.882 0.432 1.206c 0.198 0.288 0.612 0.882 0.828 0.882c 0.162 0 0.324 -0.036 0.468 -0.234c 0.126 -0.18 0.342 -0.414 0.648 -0.414c 0.432 0 0.846 0.45 0.846 0.9c 0 0.342 -0.324 0.864 -1.08 0.864c -0.846 0 -1.584 -0.792 -1.998 -1.494c -0.108 -0.198 -0.198 -0.054 -0.198 0.036Z "/></symbol><symbol id="gC6502D67F8A97EA9AAE96751BCF9F57" overflow="visible"><path d="M 0 0m 0.864 2.484c 0.072 -0.882 0.126 -1.728 0.126 -2.484c 0.18 0.036 0.36 0.054 0.45 0.054c 0.126 0 0.234 0 0.36 -0.036c 0.486 -0.126 0.972 -0.198 1.638 -0.198c 1.008 0 2.862 0.486 2.862 2.268c 0 1.224 -0.882 1.944 -2.106 2.394c -1.08 0.414 -1.8 0.684 -1.8 1.674c 0 0.738 0.648 1.152 1.26 1.152c 0.396 0 1.44 -0.144 1.674 -1.674c 0.108 -0.108 0.468 -0.09 0.576 0.018c 0.054 0.648 0.09 1.314 0.108 1.908c -0.558 0.09 -1.422 0.342 -2.358 0.342c -1.332 0 -2.538 -0.864 -2.538 -2.016c 0 -1.314 0.594 -1.872 1.98 -2.448c 1.494 -0.612 1.836 -0.99 1.836 -1.764c 0 -0.882 -0.864 -1.26 -1.53 -1.26c -0.702 0 -1.098 0.234 -1.278 0.432c -0.396 0.414 -0.594 1.206 -0.702 1.656c -0.108 0.108 -0.45 0.09 -0.558 -0.018Z "/></symbol><symbol id="g3A01C6432CFD86234350E100FFBEBFA9" overflow="visible"><path d="M 0 0m 7.992 6.966c 0.342 0 0.666 0.324 0.666 0.684c 0 0.378 -0.342 0.666 -0.828 0.666c -0.468 0 -1.332 -0.306 -1.8 -0.918c -0.216 0.144 -0.81 0.504 -1.872 0.504c -1.602 0 -3.078 -1.08 -3.078 -2.736c 0 -0.972 0.432 -1.53 0.936 -2.016c -0.504 -0.432 -0.792 -1.206 -0.792 -1.818c 0 -0.648 0.36 -1.152 0.828 -1.386c -0.972 -0.576 -1.476 -1.404 -1.476 -2.178c 0 -1.566 1.476 -2.052 2.862 -2.052c 2.43 0 5.058 1.17 5.058 3.114c 0 0.576 -0.27 1.026 -0.792 1.458c -0.702 0.576 -1.962 0.594 -2.628 0.594c -0.324 0 -0.774 -0.036 -1.206 -0.09c -0.27 -0.018 -0.45 -0.036 -0.54 -0.036c -0.522 0 -1.152 0.252 -1.152 1.026c 0 0.36 0.108 0.738 0.324 1.044c 0.432 -0.252 0.936 -0.378 1.638 -0.378c 1.584 0 3.042 0.99 3.042 2.754c 0 0.846 -0.252 1.332 -0.774 1.872c 0.126 0.18 0.486 0.432 0.72 0.432c 0.126 0 0.252 -0.054 0.36 -0.216c 0.072 -0.144 0.306 -0.324 0.504 -0.324Z m -5.616 -7.146c 0.198 -0.054 0.486 -0.09 0.72 -0.09c 0.558 0 1.062 0.054 1.314 0.054c 0.9 0 1.656 -0.018 2.178 -0.306c 0.702 -0.396 0.918 -0.648 0.918 -1.116c 0 -1.296 -1.908 -1.98 -3.528 -1.98c -0.648 0 -2.16 0.522 -2.16 1.746c 0 0.612 0.036 1.062 0.558 1.692Z m 3.366 5.202c 0 -1.674 -0.846 -2.016 -1.512 -2.016c -1.512 0 -1.674 1.278 -1.674 2.43c 0 1.26 0.45 1.908 1.44 1.908c 1.134 0 1.746 -0.828 1.746 -2.322Z "/></symbol><symbol id="g96DCDFE45BDAAB8B979F67BCA2525E53" overflow="visible"><path d="M 0 0m 4.662109375 2.79296875h 6.756835938v -2.79296875h -10.18359375v 2.70703125l 1.71875 1.826171875q 3.061523438 3.254882813 3.716796875 4.006835938q 0.805664063 0.923828125 1.16015625 1.638183594q 0.354492188 0.714355469 0.354492188 1.412597656q 0 1.07421875 -0.649902344 1.659667969q -0.649902344 0.585449219 -1.842285156 0.585449219q -0.848632813 0 -1.906738281 -0.338378906q -1.058105469 -0.338378906 -2.207519531 -0.982910156v 2.954101563q 1.149414063 0.418945313 2.250488281 0.639160156q 1.101074219 0.220214844 2.110839844 0.220214844q 2.545898438 0 4.001464844 -1.187011719q 1.455566406 -1.187011719 1.455566406 -3.238769531q 0 -0.9453125 -0.316894531 -1.772460938q -0.316894531 -0.827148438 -1.090332031 -1.836914063q -0.569335938 -0.73046875 -3.125976563 -3.287109375q -1.385742188 -1.385742188 -2.202148438 -2.212890625Z "/></symbol><symbol id="g9FAC5CAE9A84A2A2D29E9ADBAACA3D6E" overflow="visible"><path d="M 0 0m 11.988 5.922c 0 3.726 -2.574 5.922 -5.796 5.922c -3.492 0 -5.526 -2.772 -5.526 -6.264c 0 -3.546 2.574 -5.76 5.634 -5.76c 1.998 0 3.582 0.864 4.572 2.268c 0.72 1.026 1.116 2.322 1.116 3.834Z m -6.03 5.274c 2.376 0 4.302 -1.98 4.302 -5.616c 0 -3.222 -1.548 -5.112 -3.6 -5.112c -2.196 0 -4.266 1.962 -4.266 5.418c 0 3.78 1.782 5.31 3.564 5.31Z "/></symbol><symbol id="g2F4137E3144978548D6DCAE64AA8D5E" overflow="visible"><path d="M 0 0m 3.672 -2.88c 0.288 0.504 0.522 1.008 0.738 1.548c 1.44 3.474 2.25 5.328 3.186 7.344c 0.36 0.756 0.612 1.044 1.458 1.152c 0.108 0.108 0.108 0.486 0 0.594c -0.36 -0.018 -0.774 -0.036 -1.278 -0.036c -0.54 0 -1.098 0.018 -1.638 0.036c -0.108 -0.108 -0.108 -0.486 0 -0.594c 0.576 -0.054 1.152 -0.162 0.864 -0.81l -1.782 -4.122c -0.126 -0.288 -0.288 -0.342 -0.432 0.018l -1.602 3.744c -0.324 0.756 -0.414 1.098 0.594 1.17c 0.108 0.108 0.108 0.486 0 0.594c -0.666 -0.018 -1.386 -0.036 -2.034 -0.036c -0.612 0 -1.098 0.018 -1.458 0.036c -0.108 -0.108 -0.108 -0.486 0 -0.594c 0.72 -0.09 0.954 -0.252 1.422 -1.35l 2.034 -4.734c 0.162 -0.36 0.432 -1.188 0.252 -1.692c -0.216 -0.594 -0.432 -1.098 -0.702 -1.656c -0.198 -0.36 -0.45 -0.522 -0.9 -0.522c -0.252 0 -0.324 0.054 -0.522 0.054c -0.522 0 -0.792 -0.54 -0.792 -0.774c 0 -0.378 0.36 -0.666 0.846 -0.666c 0.378 0 1.098 0.144 1.746 1.296Z "/></symbol><symbol id="g12EAA33DE55B39CFC2167BFB9E90B717" overflow="visible"><path d="M 0 0m 3.006 5.148c 0 0.378 0.162 0.594 0.306 0.756c 0.684 0.666 1.602 1.062 2.304 1.062c 0.36 0 0.738 -0.234 0.954 -0.648c 0.18 -0.36 0.216 -0.846 0.216 -1.386v -2.736c 0 -1.476 -0.18 -1.548 -1.116 -1.638c -0.09 -0.108 -0.09 -0.486 0 -0.594c 0.504 0.018 1.116 0.036 1.836 0.036c 0.72 0 1.314 -0.018 1.908 -0.036c 0.09 0.108 0.09 0.486 0 0.594c -1.008 0.09 -1.206 0.162 -1.206 1.638v 2.682c 0 0.99 -0.072 1.872 -0.486 2.412c -0.306 0.396 -0.864 0.612 -1.494 0.612c -0.882 0 -1.962 -0.234 -3.06 -1.458c 0 -0.018 -0.018 -0.018 -0.036 -0.036c -0.054 -0.072 -0.144 -0.18 -0.144 0.036l 0.018 4.05c 0 1.17 0.072 1.89 0.072 1.89c 0 0.126 -0.072 0.18 -0.234 0.18c -0.45 -0.18 -1.8 -0.432 -2.52 -0.486c -0.036 -0.144 0 -0.432 0.108 -0.54c 0.054 0 0.108 0 0.162 0c 0.792 -0.054 0.99 -0.054 0.99 -1.476v -7.866c 0 -1.494 -0.216 -1.566 -1.26 -1.638c -0.108 -0.108 -0.108 -0.486 0 -0.594c 0.594 0.018 1.26 0.036 1.98 0.036c 0.684 0 1.278 -0.018 1.782 -0.036c 0.108 0.108 0.108 0.486 0 0.594c -0.918 0.072 -1.08 0.144 -1.08 1.638Z "/></symbol><symbol id="g528598DFEB7D795655EC5396883E1B4F" overflow="visible"><path d="M 0 0m 1.548 2.196c 0 -1.494 -0.198 -1.566 -1.206 -1.638c -0.108 -0.108 -0.108 -0.486 0 -0.594c 0.594 0.018 1.206 0.036 1.926 0.036c 0.63 0 1.224 -0.018 1.638 -0.036c 0.108 0.108 0.108 0.486 0 0.594c -0.738 0.072 -0.936 0.144 -0.936 1.638v 1.566c 0.342 -0.018 0.594 -0.036 0.774 -0.09c 0.198 -0.144 0.36 -0.306 0.576 -0.594l 1.314 -1.764c 0.522 -0.702 0.738 -1.044 0.756 -1.26c 0 -0.054 0.018 -0.09 0.072 -0.09c 0.36 0.018 0.756 0.036 1.116 0.036c 0.558 0 1.116 -0.018 1.476 -0.036c 0.108 0.108 0.108 0.486 0 0.594c -0.612 0.072 -1.062 0.144 -1.548 0.756l -2.376 2.988c -0.072 0.09 -0.126 0.162 -0.126 0.252c 0 0.072 0 0.108 0.072 0.18l 1.584 1.638c 0.54 0.576 1.17 0.72 1.89 0.792c 0.108 0.108 0.108 0.486 0 0.594c -0.414 -0.018 -0.918 -0.036 -1.566 -0.036c -0.684 0 -1.35 0.018 -1.764 0.036c -0.108 -0.108 -0.108 -0.486 0 -0.594c 1.008 -0.072 0.576 -0.702 0.414 -0.918c -0.414 -0.522 -0.972 -1.134 -1.44 -1.476c -0.396 -0.288 -0.882 -0.504 -1.224 -0.558v 6.282c 0 1.17 0.072 1.89 0.072 1.89c 0 0.126 -0.072 0.18 -0.234 0.18c -0.45 -0.18 -1.8 -0.432 -2.52 -0.486c -0.036 -0.144 0 -0.432 0.108 -0.54c 0.054 0 0.108 0 0.162 0c 0.792 -0.054 0.99 -0.054 0.99 -1.476Z "/></symbol><symbol id="g41F8034ED62AEE70F777DB29FD99D328" overflow="visible"><path d="M 0 0m 3.15 2.196v 4.824h 1.674c 0.162 0 0.414 0.072 0.414 0.234v 0.36c 0 0.072 -0.054 0.108 -0.144 0.108h -1.944v 1.026c 0 2.772 0.828 3.204 1.422 3.204c 0.54 0 0.828 -0.216 1.08 -0.846c 0.144 -0.324 0.342 -0.576 0.72 -0.576c 0.306 0 0.738 0.378 0.738 0.738c 0 0.306 -0.198 0.63 -0.576 0.918c -0.468 0.324 -0.936 0.378 -1.62 0.378c -1.512 0 -3.186 -1.314 -3.186 -4.122v -0.72h -0.918c -0.324 0 -0.414 -0.216 -0.414 -0.36v -0.234c 0 -0.09 0.018 -0.108 0.09 -0.108h 1.242v -4.824c 0 -1.494 -0.288 -1.566 -1.26 -1.638c -0.108 -0.108 -0.108 -0.486 0 -0.594c 0.63 0.018 1.26 0.036 1.98 0.036c 0.72 0 1.584 -0.018 2.214 -0.036c 0.108 0.108 0.108 0.486 0 0.594c -1.404 0.072 -1.512 0.144 -1.512 1.638Z "/></symbol><symbol id="g3D1BE6A7D7DF58BE16C77B81DD4EDB19" overflow="visible"><path d="M 0 0m 2.808 6.624c -0.018 0.54 -0.054 1.008 -0.144 1.188c -0.036 0.09 -0.072 0.144 -0.216 0.144c -0.504 -0.198 -0.972 -0.36 -2.214 -0.522c -0.036 -0.108 0 -0.396 0.036 -0.504c 0.972 -0.09 1.17 -0.18 1.17 -1.224v -7.686c 0 -1.494 -0.198 -1.584 -1.296 -1.638c -0.108 -0.108 -0.108 -0.486 0 -0.594c 0.63 0.018 1.296 0.036 2.016 0.036c 0.72 0 1.584 -0.018 2.178 -0.036c 0.108 0.108 0.108 0.486 0 0.594c -1.278 0.072 -1.476 0.144 -1.476 1.638v 1.944c 0 0.234 0.072 0.216 0.252 0.144c 0.45 -0.18 0.99 -0.288 1.566 -0.288c 1.008 0 1.908 0.306 2.646 1.008c 0.846 0.828 1.332 1.944 1.332 3.402c 0 1.908 -1.35 3.672 -3.186 3.672c -0.828 0 -1.746 -0.54 -2.466 -1.35c -0.108 -0.108 -0.18 -0.108 -0.198 0.072Z m 0.342 -0.666c 0.468 0.576 1.296 1.116 1.818 1.116c 1.152 0 2.142 -1.296 2.142 -3.33c 0 -1.476 -0.522 -3.312 -2.538 -3.312c -0.324 0 -0.954 0.09 -1.278 0.378c -0.36 0.324 -0.432 0.432 -0.432 1.08v 3.276c 0 0.378 0.072 0.54 0.288 0.792Z "/></symbol><symbol id="gAAE4F204C5B064E8427F7DDAE181B640" overflow="visible"><path d="M 0 0m 7.164 1.638c -0.072 0.162 -0.216 0.234 -0.378 0.252c -0.612 -0.792 -1.386 -1.188 -2.16 -1.188c -1.314 0 -2.412 1.332 -2.412 3.438c 0 1.98 0.864 3.168 2.052 3.168c 1.062 0 1.206 -0.63 1.278 -1.26c 0.054 -0.486 0.306 -0.648 0.684 -0.648c 0.378 0 0.882 0.234 0.882 0.792c 0 0.99 -1.026 1.71 -2.754 1.71c -1.782 0 -3.69 -1.602 -3.69 -4.158c 0 -2.322 1.296 -3.924 3.564 -3.924c 1.08 0 2.034 0.342 2.934 1.818Z "/></symbol><symbol id="gB6AB529754F6FD63C7E2F65CF029A392" overflow="visible"><path d="M 0 0m 5.897460938 7.17578125h -1.697265625v 2.79296875h 1.697265625q 1.181640625 0 1.831542969 0.467285156q 0.649902344 0.467285156 0.649902344 1.315917969q 0 0.891601563 -0.649902344 1.391113281q -0.649902344 0.499511719 -1.831542969 0.499511719q -0.90234375 0 -1.93359375 -0.225585938q -1.03125 -0.225585938 -2.137695313 -0.655273438v 2.87890625q 1.106445313 0.333007813 2.180664063 0.510253906q 1.07421875 0.177246094 2.0625 0.177246094q 2.53515625 0 3.953125 -1.106445313q 1.41796875 -1.106445313 1.41796875 -3.05078125q 0 -1.428710938 -0.81640625 -2.336425781q -0.81640625 -0.907714844 -2.331054688 -1.187011719q 1.71875 -0.30078125 2.62109375 -1.369628906q 0.90234375 -1.068847656 0.90234375 -2.809082031q 0 -2.331054688 -1.493164063 -3.555664063q -1.493164063 -1.224609375 -4.33984375 -1.224609375q -1.213867188 0 -2.390136719 0.204101563q -1.176269531 0.204101563 -2.250488281 0.590820313v 2.943359375q 1.009765625 -0.504882813 2.180664063 -0.768066406q 1.170898438 -0.263183594 2.459960938 -0.263183594q 1.2890625 0 2.041015625 0.596191406q 0.751953125 0.596191406 0.751953125 1.605957031q 0 1.235351563 -0.751953125 1.906738281q -0.751953125 0.671386719 -2.126953125 0.671386719Z "/></symbol><symbol id="g763CD1329B145638F7CA2FC1B34B1822" overflow="visible"><path d="M 0 0m 10.008 9.216v -5.886c 0 -0.342 0 -0.54 -0.126 -0.54c -0.072 0 -0.342 0.324 -0.864 0.99l -6.174 7.83l -2.43 0.036c -0.108 -0.108 -0.108 -0.486 0 -0.594c 0.774 -0.054 1.314 -0.684 1.422 -1.152v -7.506c 0 -1.602 -0.306 -1.71 -1.566 -1.836c -0.108 -0.108 -0.108 -0.486 0 -0.594c 0.774 0.018 1.584 0.036 2.016 0.036c 0.414 0 1.242 -0.018 1.998 -0.036c 0.108 0.108 0.108 0.486 0 0.594c -1.26 0.126 -1.566 0.198 -1.566 1.836v 5.508c 0 0.612 0 0.882 0.144 0.882c 0.108 0 0.306 -0.198 0.612 -0.594l 6.282 -7.938c 0.198 -0.27 0.432 -0.432 0.72 -0.432c 0.252 0 0.414 0.216 0.414 0.558v 8.838c 0 1.602 0.306 1.71 1.566 1.836c 0.108 0.108 0.108 0.486 0 0.594c -0.738 -0.018 -1.584 -0.036 -2.016 -0.036c -0.378 0 -1.206 0.018 -1.998 0.036c -0.108 -0.108 -0.108 -0.486 0 -0.594c 1.26 -0.126 1.566 -0.198 1.566 -1.836Z "/></symbol><symbol id="gB734F421729D7FEDB8B0EE1E1EA0CD29" overflow="visible"><path d="M 0 0m 6.012 0.9c 0.09 0.072 0.252 0.108 0.27 -0.018c 0.054 -0.432 0.198 -1.062 0.198 -1.062c 0.144 -0.054 0.234 -0.036 0.342 0c 0.396 0.324 1.026 0.594 2.124 0.72c 0.108 0.108 0.108 0.378 0 0.486c -1.152 0.09 -1.314 0.432 -1.314 1.314v 8.154c 0 1.17 0.072 1.89 0.072 1.89c 0 0.126 -0.072 0.18 -0.234 0.18c -0.45 -0.18 -1.8 -0.432 -2.52 -0.486c -0.036 -0.144 0 -0.432 0.108 -0.54c 0.054 0 0.108 0 0.162 0c 0.792 -0.054 0.99 -0.054 0.99 -1.476v -2.304c 0 -0.126 -0.036 -0.162 -0.162 -0.162c -0.072 0 -0.81 0.306 -1.404 0.306c -1.188 0 -1.98 -0.396 -2.7 -1.08c -0.774 -0.774 -1.242 -1.836 -1.242 -3.168c 0 -2.214 1.116 -3.834 3.06 -3.834c 0.702 0 1.368 0.36 2.25 1.08Z m 0.198 1.332c 0 -0.342 -0.036 -0.486 -0.288 -0.702c -0.666 -0.576 -1.242 -0.864 -1.692 -0.864c -0.972 0 -1.98 1.062 -1.98 3.312c 0 1.296 0.252 2.016 0.522 2.394c 0.558 0.846 1.314 0.9 1.674 0.9c 0.648 0 1.098 -0.234 1.458 -0.648c 0.252 -0.288 0.306 -0.414 0.306 -0.972Z "/></symbol><symbol id="gF80B307EF822B86FB55BF5DF0D963523" overflow="visible"><path d="M 0 0m 3.06 6.444c -0.018 0.54 -0.054 1.188 -0.144 1.368c -0.036 0.09 -0.072 0.144 -0.216 0.144c -0.504 -0.198 -0.972 -0.36 -2.214 -0.522c -0.036 -0.108 0 -0.396 0.036 -0.504c 0.972 -0.09 1.17 -0.18 1.17 -1.224v -3.51c 0 -1.476 -0.234 -1.566 -1.224 -1.638c -0.108 -0.108 -0.108 -0.486 0 -0.594c 0.54 0.018 1.224 0.036 1.944 0.036c 0.72 0 1.278 -0.018 1.818 -0.036c 0.108 0.108 0.108 0.486 0 0.594c -0.918 0.09 -1.116 0.162 -1.116 1.638v 2.952c 0 0.378 0.162 0.594 0.306 0.756c 0.72 0.702 1.386 1.062 1.944 1.062c 0.684 0 1.188 -0.432 1.188 -1.638v -3.132c 0 -1.476 -0.144 -1.566 -1.116 -1.638c -0.09 -0.108 -0.09 -0.486 0 -0.594c 0.45 0.018 1.116 0.036 1.836 0.036c 0.72 0 1.314 -0.018 1.764 -0.036c 0.09 0.108 0.09 0.486 0 0.594c -0.9 0.072 -1.062 0.162 -1.062 1.638v 2.862c 0 0.252 0 0.504 -0.018 0.72c 0.864 0.954 1.674 1.188 2.376 1.188c 0.684 0 1.08 -0.396 1.08 -1.602v -3.168c 0 -1.476 -0.18 -1.566 -1.116 -1.638c -0.09 -0.108 -0.09 -0.486 0 -0.594c 0.45 0.018 1.116 0.036 1.836 0.036c 0.72 0 1.35 -0.018 1.854 -0.036c 0.09 0.108 0.09 0.486 0 0.594c -0.99 0.072 -1.152 0.162 -1.152 1.638v 2.844c 0 1.602 -0.27 2.862 -1.854 2.862c -0.918 0 -2.034 -0.342 -2.97 -1.332c -0.054 -0.054 -0.162 -0.144 -0.198 0.018c -0.162 0.738 -0.864 1.314 -1.8 1.314c -1.044 0 -1.98 -0.612 -2.736 -1.458c -0.09 -0.09 -0.198 -0.216 -0.216 0Z "/></symbol></defs></svg>