<svg viewBox="0 0 595.275590551 595.275590551" width="595.275590551pt" height="595.275590551pt" xmlns="http://www.w3.org/2000/svg" xmlns:xlink="http://www.w3.org/1999/xlink" xmlns:h5="http://www.w3.org/1999/xhtml"><path fill="#f4f6f5" fill-rule="nonzero" d="M 0 0v 595.275590551h 595.275590551v -595.275590551Z "/><path fill="#1f9d72" fill-rule="nonzero" d="M 0 0v 595.275590551h 15.590551181v -595.275590551Z "/><g transform="matrix(1 0 0 -1 513.446996494 50.32175812)"><use xlink:href="#gC7DCC0F5FD0CB6BF8ED6A16BFC18DC6" x="0" y="0" fill="#5a6b66" fill-rule="nonzero"/><use xlink:href="#g3E4573124205ACC198E9F459B510F564" x="16.857421875" y="0" fill="#5a6b66" fill-rule="nonzero"/><use xlink:href="#g290682C0358F22985358E828942BD110" x="33.71484375" y="0" fill="#5a6b66" fill-rule="nonzero"/></g><g><path fill="none" stroke="#1f9d72" stroke-width="2" stroke-linecap="butt" stroke-linejoin="miter" stroke-miterlimit="4" transform="translate(73.700787402 53.12745294)" d="M 0 0h 22.677165354"/><g transform="matrix(1 0 0 -1 106.299212598 58.065929503)"><use xlink:href="#gBC5416D29E50877D61457B98B84FAAEF" x="0" y="0" fill="#5a6b66" fill-rule="nonzero"/><use xlink:href="#g4EBE89919D7A75A1CFCCDA9CB6B4C48B" x="9.326660156" y="0" fill="#5a6b66" fill-rule="nonzero"/><use xlink:href="#g5032CFCAE45184E06787003414B76DCC" x="18.653320313" y="0" fill="#5a6b66" fill-rule="nonzero"/><use xlink:href="#gDB69EAF5B2019833F3A1F0B97FB4D4F0" x="27.979980469" y="0" fill="#5a6b66" fill-rule="nonzero"/><use xlink:href="#gBC5416D29E50877D61457B98B84FAAEF" x="37.306640625" y="0" fill="#5a6b66" fill-rule="nonzero"/><use xlink:href="#g85E3C4838E6C783F5D48489FAB328CC9" x="55.959960938" y="0" fill="#5a6b66" fill-rule="nonzero"/><use xlink:href="#g497C9500F64A3698A0331B4157E37DA1" x="74.61328125" y="0" fill="#5a6b66" fill-rule="nonzero"/><use xlink:href="#gBAD5ED42EE4C37530F11FC2C3E2D321E" x="83.939941406" y="0" fill="#5a6b66" fill-rule="nonzero"/><use xlink:href="#gAA2E96D33246CF9F23305041FBE5DDF5" x="93.266601563" y="0" fill="#5a6b66" fill-rule="nonzero"/><use xlink:href="#g40FE5C81914FFE2CB9A4CCCCC6614822" x="102.593261719" y="0" fill="#5a6b66" fill-rule="nonzero"/><use xlink:href="#g8ECADC286FC758FBE86F7951C12F81DB" x="111.919921875" y="0" fill="#5a6b66" fill-rule="nonzero"/><use xlink:href="#gDB69EAF5B2019833F3A1F0B97FB4D4F0" x="121.246582031" y="0" fill="#5a6b66" fill-rule="nonzero"/><use xlink:href="#g42A8F8B05BA6DE3C8D2169C773AE3295" x="130.573242188" y="0" fill="#5a6b66" fill-rule="nonzero"/><use xlink:href="#g8EC0523766C20CC5F15842AFE1B48683" x="139.899902344" y="0" fill="#5a6b66" fill-rule="nonzero"/></g><g transform="translate(73.700787402 237.3219805)"><g transform="matrix(1 0 0 -1 0 34.83)"><use xlink:href="#g753660A20C81AF2126CA6898B593E970" x="0" y="0" fill="#0f1f1c" fill-rule="nonzero"/><use xlink:href="#gFF852A116D6F7CAF55F5BA2EE9AE95E9" x="35.316" y="0" fill="#0f1f1c" fill-rule="nonzero"/><use xlink:href="#gF507842C6673B9C9D62843BA588E75A8" x="67.608" y="0" fill="#0f1f1c" fill-rule="nonzero"/><use xlink:href="#g46C5AFBDF8F72CE9A67645D65E9C9DFB" x="84.996" y="0" fill="#0f1f1c" fill-rule="nonzero"/><use xlink:href="#gF89F988CB139936BC097402B44DDD0D3" x="102.546" y="0" fill="#0f1f1c" fill-rule="nonzero"/><use xlink:href="#gF89F988CB139936BC097402B44DDD0D3" x="146.34" y="0" fill="#0f1f1c" fill-rule="nonzero"/><use xlink:href="#gC3BF8C15D8BFC81F4EE5F59A330306F2" x="176.634" y="0" fill="#0f1f1c" fill-rule="nonzero"/><use xlink:href="#g596260FC8DBF9253ED5EED90AA383E66" x="203.418" y="0" fill="#0f1f1c" fill-rule="nonzero"/><use xlink:href="#g5082662CBF46879EB070783470DB82A8" x="228.042" y="0" fill="#0f1f1c" fill-rule="nonzero"/><use xlink:href="#gD4324E420D8A77FB7C88EEFA21C6D6FF" x="261.144" y="0" fill="#0f1f1c" fill-rule="nonzero"/></g><g transform="matrix(1 0 0 -1 0 82.01)"><use xlink:href="#gECB0E767947EFC63C231E9BF3A9A7447" x="0" y="0" fill="#1f9d72" fill-rule="nonzero"/><use xlink:href="#gA8E7C3DCA8DA447BCE24A317DA2C1B28" x="21.114" y="0" fill="#1f9d72" fill-rule="nonzero"/><use xlink:href="#g244FB6CB032105F45B8B6AD695A6789E" x="43.794" y="0" fill="#1f9d72" fill-rule="nonzero"/><use xlink:href="#g6FC3FECAB25C81D49E24D800206D0953" x="73.548" y="0" fill="#1f9d72" fill-rule="nonzero"/><use xlink:href="#g53AC8B2796B26F9133DAAB96C3EC99F5" x="135.918" y="0" fill="#1f9d72" fill-rule="nonzero"/><use xlink:href="#gC3BF8C15D8BFC81F4EE5F59A330306F2" x="155.25" y="0" fill="#1f9d72" fill-rule="nonzero"/><use xlink:href="#g1EC705ED9F542637E68F6AFAFA50EF5F" x="181.278" y="0" fill="#1f9d72" fill-rule="nonzero"/><use xlink:href="#g53AC8B2796B26F9133DAAB96C3EC99F5" x="211.572" y="0" fill="#1f9d72" fill-rule="nonzero"/></g><g transform="matrix(1 0 0 -1 0 130.508582677)"><use xlink:href="#g2A3861BD060A2842E68B2CE24BAC115A" x="0" y="0" fill="#5a6b66" fill-rule="nonzero"/><use xlink:href="#gB4BBCCC22F57BF42E1C62D26706C4CAE" x="14.04" y="0" fill="#5a6b66" fill-rule="nonzero"/><use xlink:href="#g3DA8883EB89789500FDB8901794F6269" x="24.88" y="0" fill="#5a6b66" fill-rule="nonzero"/><use xlink:href="#gC3DF2B83E06FC6A1081CD9E99DA38A42" x="38.82" y="0" fill="#5a6b66" fill-rule="nonzero"/><use xlink:href="#gEA4A05FB6A39FCD9296410386F58FB1E" x="44.1" y="0" fill="#5a6b66" fill-rule="nonzero"/><use xlink:href="#g1685DC75425F2DA10DE2B98EC29256E" x="53.24" y="0" fill="#5a6b66" fill-rule="nonzero"/><use xlink:href="#gDC21C9441C16C48FE1BF5699ED702476" x="63.38" y="0" fill="#5a6b66" fill-rule="nonzero"/><use xlink:href="#gC7070C224B11A08A93065FC5065335CA" x="73.46" y="0" fill="#5a6b66" fill-rule="nonzero"/><use xlink:href="#g1755E114A63BA6471116C427BDFA71B0" x="84.08" y="0" fill="#5a6b66" fill-rule="nonzero"/><use xlink:href="#gD3DCA2C2E6987F3CBC00FC28DE7BC603" x="90.4" y="0" fill="#5a6b66" fill-rule="nonzero"/><use xlink:href="#gC7070C224B11A08A93065FC5065335CA" x="99.8" y="0" fill="#5a6b66" fill-rule="nonzero"/><use xlink:href="#gC758D12E411EB95C8EE9D353CCC10649" x="110.42" y="0" fill="#5a6b66" fill-rule="nonzero"/><use xlink:href="#g3DA8883EB89789500FDB8901794F6269" x="118.22" y="0" fill="#5a6b66" fill-rule="nonzero"/><use xlink:href="#g7583EB8920F699196162A33DB636C4A9" x="127.3" y="0" fill="#5a6b66" fill-rule="nonzero"/><use xlink:href="#gDC21C9441C16C48FE1BF5699ED702476" x="142.42" y="0" fill="#5a6b66" fill-rule="nonzero"/><use xlink:href="#gB4BBCCC22F57BF42E1C62D26706C4CAE" x="152.5" y="0" fill="#5a6b66" fill-rule="nonzero"/><use xlink:href="#g3DA8883EB89789500FDB8901794F6269" x="168.34" y="0" fill="#5a6b66" fill-rule="nonzero"/><use xlink:href="#g38825CEE884F0F917A1BBAA0D0FAFFBD" x="177.14" y="0" fill="#5a6b66" fill-rule="nonzero"/><use xlink:href="#g3DA8883EB89789500FDB8901794F6269" x="186.92" y="0" fill="#5a6b66" fill-rule="nonzero"/><use xlink:href="#g6CD26CAA73C9309561AA0446D38A159" x="195.86" y="0" fill="#5a6b66" fill-rule="nonzero"/><use xlink:href="#g1685DC75425F2DA10DE2B98EC29256E" x="203.6" y="0" fill="#5a6b66" fill-rule="nonzero"/><use xlink:href="#g61A16DB8E6C338E369815B2C6D1149C3" x="218.9" y="0" fill="#5a6b66" fill-rule="nonzero"/><use xlink:href="#gEA4A05FB6A39FCD9296410386F58FB1E" x="227.46" y="0" fill="#5a6b66" fill-rule="nonzero"/><use xlink:href="#g6CD26CAA73C9309561AA0446D38A159" x="236.6" y="0" fill="#5a6b66" fill-rule="nonzero"/><use xlink:href="#g7583EB8920F699196162A33DB636C4A9" x="243.88" y="0" fill="#5a6b66" fill-rule="nonzero"/><use xlink:href="#gF69160880E56000C9A753D8A2FE57ECD" x="254" y="0" fill="#5a6b66" fill-rule="nonzero"/></g></g></g><defs><symbol id="gC7DCC0F5FD0CB6BF8ED6A16BFC18DC6" overflow="visible"><path d="M 0 0m 1.845703125 1.162109375h 2.146484375v 7.799804688l -2.310546875 -0.51953125v 1.2578125l 2.296875 0.505859375h 1.380859375v -9.043945313h 2.119140625v -1.162109375h -5.6328125v 1.162109375Z "/></symbol><symbol id="g3E4573124205ACC198E9F459B510F564" overflow="visible"><path d="M 0 0m 6.077148438 10.206054688h 1.298828125l -5.373046875 -11.504882813h -1.305664063l 5.379882813 11.504882813Z "/></symbol><symbol id="g290682C0358F22985358E828942BD110" overflow="visible"><path d="M 0 0m 5.3046875 5.461914063q 1.004882813 -0.266601563 1.538085938 -0.946777344q 0.533203125 -0.680175781 0.533203125 -1.698730469q 0 -1.408203125 -0.946777344 -2.211425781q -0.946777344 -0.803222656 -2.621582031 -0.803222656q -0.704101563 0 -1.435546875 0.129882813q -0.731445313 0.129882813 -1.435546875 0.375976563v 1.374023438q 0.697265625 -0.362304688 1.374023438 -0.540039063q 0.676757813 -0.177734375 1.346679688 -0.177734375q 1.134765625 0 1.743164063 0.512695313q 0.608398438 0.512695313 0.608398438 1.4765625q 0 0.888671875 -0.608398438 1.411621094q -0.608398438 0.522949219 -1.647460938 0.522949219h -1.052734375v 1.134765625h 1.052734375q 0.950195313 0 1.483398438 0.416992188q 0.533203125 0.416992188 0.533203125 1.162109375q 0 0.786132813 -0.495605469 1.206542969q -0.495605469 0.420410156 -1.411621094 0.420410156q -0.608398438 0 -1.2578125 -0.13671875q -0.649414063 -0.13671875 -1.360351563 -0.41015625v 1.271484375q 0.827148438 0.21875 1.473144531 0.328125q 0.645996094 0.109375 1.145019531 0.109375q 1.490234375 0 2.382324219 -0.748535156q 0.892089844 -0.748535156 0.892089844 -1.985839844q 0 -0.840820313 -0.468261719 -1.401367188q -0.468261719 -0.560546875 -1.363769531 -0.79296875Z "/></symbol><symbol id="gBC5416D29E50877D61457B98B84FAAEF" overflow="visible"><path d="M 0 0m 0.298339844 9.477050781h 7.229980469v -1.079101563h -2.964355469v -8.397949219h -1.288574219v 8.397949219h -2.977050781v 1.079101563Z "/></symbol><symbol id="g4EBE89919D7A75A1CFCCDA9CB6B4C48B" overflow="visible"><path d="M 0 0m 0.234863281 9.477050781h 1.364746094l 2.310546875 -4.183105469l 2.304199219 4.183105469h 1.377441406l -3.040527344 -5.224121094v -4.252929688h -1.288574219v 4.252929688l -3.027832031 5.224121094Z "/></symbol><symbol id="g5032CFCAE45184E06787003414B76DCC" overflow="visible"><path d="M 0 0m 2.532714844 8.423339844v -3.561035156h 1.485351563q 0.888671875 0 1.386962891 0.469726563q 0.498291016 0.469726563 0.498291016 1.313964844q 0 0.844238281 -0.495117188 1.310791016q -0.495117188 0.466552734 -1.390136719 0.466552734h -1.485351563Z m -1.282226563 1.053710938h 2.767578125q 1.586914063 0 2.405761719 -0.720458984q 0.818847656 -0.720458984 0.818847656 -2.110595703q 0 -1.402832031 -0.815673828 -2.120117188q -0.815673828 -0.717285156 -2.408935547 -0.717285156h -1.485351563v -3.80859375h -1.282226563v 9.477050781Z "/></symbol><symbol id="gDB69EAF5B2019833F3A1F0B97FB4D4F0" overflow="visible"><path d="M 0 0m 6.423828125 9.153320313v -1.301269531q -0.583984375 0.374511719 -1.171142578 0.564941406q -0.587158203 0.190429688 -1.183837891 0.190429688q -0.907714844 0 -1.434570313 -0.422119141q -0.526855469 -0.422119141 -0.526855469 -1.139404297q 0 -0.628417969 0.345947266 -0.958496094q 0.345947266 -0.330078125 1.291748047 -0.552246094l 0.672851563 -0.15234375q 1.333007813 -0.311035156 1.942382813 -0.977539063q 0.609375 -0.666503906 0.609375 -1.815429688q 0 -1.352050781 -0.837890625 -2.062988281q -0.837890625 -0.7109375 -2.4375 -0.7109375q -0.666503906 0 -1.339355469 0.142822266q -0.672851563 0.142822266 -1.352050781 0.428466797v 1.364746094q 0.729980469 -0.463378906 1.380615234 -0.679199219q 0.650634766 -0.215820313 1.310791016 -0.215820313q 0.971191406 0 1.510742188 0.434814453q 0.539550781 0.434814453 0.539550781 1.215576172q 0 0.7109375 -0.371337891 1.085449219q -0.371337891 0.374511719 -1.291748047 0.577636719l -0.685546875 0.158691406q -1.3203125 0.298339844 -1.916992188 0.901367188q -0.596679688 0.603027344 -0.596679688 1.618652344q 0 1.26953125 0.853759766 2.034423828q 0.853759766 0.764892578 2.269287109 0.764892578q 0.545898438 0 1.148925781 -0.123779297q 0.603027344 -0.123779297 1.26953125 -0.371337891Z "/></symbol><symbol id="g85E3C4838E6C783F5D48489FAB328CC9" overflow="visible"><path d="M 0 0m 3.104003906 5.484375h 1.599609375v -1.936035156h -1.599609375v 1.936035156Z "/></symbol><symbol id="g497C9500F64A3698A0331B4157E37DA1" overflow="visible"><path d="M 0 0m 6.811035156 0.336425781q -0.488769531 -0.260253906 -1.002929688 -0.390380859q -0.514160156 -0.130126953 -1.091796875 -0.130126953q -1.821777344 0 -2.827880859 1.288574219q -1.006103516 1.288574219 -1.006103516 3.624511719q 0 2.323242188 1.012451172 3.621337891q 1.012451172 1.298095703 2.821533203 1.298095703q 0.577636719 0 1.091796875 -0.130126953q 0.514160156 -0.130126953 1.002929688 -0.390380859v -1.313964844q -0.469726563 0.387207031 -1.009277344 0.590332031q -0.539550781 0.203125 -1.085449219 0.203125q -1.250488281 0 -1.872558594 -0.96484375q -0.622070313 -0.96484375 -0.622070313 -2.913574219q 0 -1.942382813 0.622070313 -2.907226563q 0.622070313 -0.96484375 1.872558594 -0.96484375q 0.55859375 0 1.094970703 0.203125q 0.536376953 0.203125 0.999755859 0.590332031v -1.313964844Z "/></symbol><symbol id="gBAD5ED42EE4C37530F11FC2C3E2D321E" overflow="visible"><path d="M 0 0m 3.91015625 8.347167969l -1.352050781 -4.849609375h 2.704101563l -1.352050781 4.849609375Z m -0.774414063 1.129882813h 1.555175781l 2.900878906 -9.477050781h -1.326660156l -0.698242188 2.469238281h -3.319824219l -0.685546875 -2.469238281h -1.326660156l 2.900878906 9.477050781Z "/></symbol><symbol id="gAA2E96D33246CF9F23305041FBE5DDF5" overflow="visible"><path d="M 0 0m 4.82421875 4.475097656q 0.495117188 -0.126953125 0.844238281 -0.479248047q 0.349121094 -0.352294922 0.869628906 -1.406005859l 1.288574219 -2.58984375h -1.377441406l -1.129882813 2.393066406q -0.488769531 1.021972656 -0.879150391 1.317138672q -0.390380859 0.295166016 -1.018798828 0.295166016h -1.225097656v -4.005371094h -1.288574219v 9.477050781h 2.640625q 1.561523438 0 2.393066406 -0.704589844q 0.831542969 -0.704589844 0.831542969 -2.037597656q 0 -0.939453125 -0.510986328 -1.532958984q -0.510986328 -0.593505859 -1.437744141 -0.726806641Z m -2.627929688 3.948242188v -3.364257813h 1.402832031q 0.920410156 0 1.37109375 0.412597656q 0.450683594 0.412597656 0.450683594 1.263183594q 0 0.818847656 -0.479248047 1.253662109q -0.479248047 0.434814453 -1.393310547 0.434814453h -1.352050781Z "/></symbol><symbol id="g40FE5C81914FFE2CB9A4CCCCC6614822" overflow="visible"><path d="M 0 0m 5.744628906 4.729003906q 0 2.088378906 -0.428466797 2.983398438q -0.428466797 0.895019531 -1.406005859 0.895019531q -0.971191406 0 -1.399658203 -0.895019531q -0.428466797 -0.895019531 -0.428466797 -2.983398438q 0 -2.08203125 0.428466797 -2.977050781q 0.428466797 -0.895019531 1.399658203 -0.895019531q 0.977539063 0 1.406005859 0.891845703q 0.428466797 0.891845703 0.428466797 2.980224609Z m 1.339355469 0q 0 -2.475585938 -0.783935547 -3.694335938q -0.783935547 -1.21875 -2.389892578 -1.21875q -1.605957031 0 -2.38671875 1.212402344q -0.780761719 1.212402344 -0.780761719 3.700683594q 0 2.481933594 0.783935547 3.700683594q 0.783935547 1.21875 2.383544922 1.21875q 1.605957031 0 2.389892578 -1.21875q 0.783935547 -1.21875 0.783935547 -3.700683594Z "/></symbol><symbol id="g8ECADC286FC758FBE86F7951C12F81DB" overflow="visible"><path d="M 0 0m 0.933105469 3.637207031v 5.83984375h 1.288574219v -6.423828125q 0 -0.691894531 0.038085938 -0.987060547q 0.038085938 -0.295166016 0.133300781 -0.453857422q 0.203125 -0.374511719 0.587158203 -0.564941406q 0.384033203 -0.190429688 0.929931641 -0.190429688q 0.552246094 0 0.933105469 0.190429688q 0.380859375 0.190429688 0.590332031 0.564941406q 0.095214844 0.158691406 0.133300781 0.450683594q 0.038085938 0.291992188 0.038085938 0.977539063v 6.436523438h 1.282226563v -5.83984375q 0 -1.453613281 -0.180908203 -2.066162109q -0.180908203 -0.612548828 -0.625244141 -1.012451172q -0.418945313 -0.374511719 -0.958496094 -0.55859375q -0.539550781 -0.184082031 -1.212402344 -0.184082031q -0.666503906 0 -1.206054688 0.184082031q -0.539550781 0.184082031 -0.96484375 0.55859375q -0.437988281 0.393554688 -0.622070313 1.018798828q -0.184082031 0.625244141 -0.184082031 2.059814453Z "/></symbol><symbol id="g42A8F8B05BA6DE3C8D2169C773AE3295" overflow="visible"><path d="M 0 0m 1.250488281 9.477050781h 5.624023438v -1.079101563h -4.341796875v -2.805664063h 4.151367188v -1.079101563h -4.151367188v -3.434082031h 4.462402344v -1.079101563h -5.744628906v 9.477050781Z "/></symbol><symbol id="g8EC0523766C20CC5F15842AFE1B48683" overflow="visible"><path d="M 0 0m 1.364746094 9.477050781h 1.288574219v -8.397949219h 4.576660156v -1.079101563h -5.865234375v 9.477050781Z "/></symbol><symbol id="g753660A20C81AF2126CA6898B593E970" overflow="visible"><path d="M 0 0m 9.342 34.83c -2.16 0 -8.316 0.108 -8.316 0.108c -0.54 -0.324 -0.54 -1.512 0 -1.836c 2.97 -0.162 4.482 -0.378 4.482 -4.86v -21.654c 0 -4.482 -1.512 -4.698 -4.482 -4.86c -0.54 -0.324 -0.54 -1.512 0 -1.836c 0 0 6.156 0.108 8.316 0.108c 2.16 0 5.616 -0.108 8.856 -0.108c 11.07 0 14.634 4.644 14.634 10.152c 0 4.752 -2.376 7.83 -8.1 9.342v 0.108c 2.916 1.296 5.184 4.266 5.184 7.02c 0 3.726 -1.998 8.424 -12.906 8.424c -2.7 0 -5.94 -0.108 -7.668 -0.108Z m 3.726 -16.794h 3.834c 5.562 0 7.992 -3.294 7.992 -7.938c 0 -3.24 -1.134 -7.938 -8.262 -7.938c -3.24 0 -3.564 0.81 -3.564 2.376Z m 0 12.312c 0 1.566 0.27 2.322 3.78 2.322c 2.484 0 5.508 -0.972 5.508 -6.264c 0 -4.32 -2.43 -6.102 -6.264 -6.102h -3.024Z "/></symbol><symbol id="gFF852A116D6F7CAF55F5BA2EE9AE95E9" overflow="visible"><path d="M 0 0m 27.54 7.182v 9.342c 0 4.536 0.108 3.888 0.108 5.184c 0 0.918 -0.216 1.512 -0.54 1.836c -0.972 -0.054 -2.052 -0.108 -3.078 -0.108c -1.512 0 -5.022 0.054 -7.128 0.108c -0.324 -0.324 -0.324 -1.512 0 -1.836c 2.754 -0.27 3.618 -0.648 3.618 -5.184v -9.99c 0 -0.54 0 -1.08 0.054 -1.62c -2.214 -1.35 -3.996 -1.458 -4.968 -1.458c -2.16 0 -3.78 0.27 -3.78 4.05v 9.018c 0 4.536 0.108 3.888 0.108 5.184c 0 0.918 -0.216 1.512 -0.54 1.836c -0.972 -0.054 -2.106 -0.108 -3.078 -0.108c -2.754 0 -4.806 0.054 -7.128 0.108c -0.324 -0.324 -0.324 -1.512 0 -1.836c 2.484 -0.108 3.618 -0.648 3.618 -5.184v -8.424c 0 -5.724 2.268 -8.64 6.912 -8.64c 1.944 0 5.886 1.566 9.018 3.294c 0.108 -1.35 0.216 -2.376 0.216 -2.376c 0.054 -0.648 0.486 -0.918 1.242 -0.918c 1.998 0.54 5.238 1.296 8.964 1.782c 0.108 0.324 0 1.404 -0.108 1.728c -2.916 0.27 -3.51 1.134 -3.51 4.212Z "/></symbol><symbol id="gF507842C6673B9C9D62843BA588E75A8" overflow="visible"><path d="M 0 0m 12.528 6.588v 10.746c 0 2.7 0.216 5.724 0.216 5.724c 0 0.594 -0.486 0.918 -1.242 0.918c -1.512 -0.594 -5.886 -1.026 -9.612 -1.512c -0.108 -0.324 0 -1.404 0.108 -1.728c 2.97 -0.27 3.51 -0.702 3.51 -3.78v -10.368c 0 -4.482 -0.594 -4.59 -3.888 -4.86c -0.324 -0.324 -0.324 -1.512 0 -1.836c 2.268 0.054 4.536 0.108 7.398 0.108c 2.862 0 5.076 -0.054 7.398 -0.108c 0.324 0.324 0.324 1.512 0 1.836c -3.294 0.216 -3.888 0.378 -3.888 4.86Z m -7.29 25.596c 0 -1.782 1.296 -3.564 3.456 -3.564c 2.43 0 3.834 1.944 3.834 3.348c 0 1.62 -1.242 3.564 -3.51 3.564c -2.538 0 -3.78 -1.728 -3.78 -3.348Z "/></symbol><symbol id="g46C5AFBDF8F72CE9A67645D65E9C9DFB" overflow="visible"><path d="M 0 0m 5.4 6.858c 0 -4.482 -0.864 -4.968 -4.158 -5.13c -0.324 -0.324 -0.324 -1.512 0 -1.836c 2.268 0.054 4.698 0.108 7.668 0.108c 2.97 0 5.346 -0.054 7.668 -0.108c 0.324 0.324 0.324 1.512 0 1.836c -3.294 0.162 -4.158 0.648 -4.158 5.13v 24.624c 0 3.51 0.162 5.508 0.162 5.508c 0 0.486 -0.378 0.702 -0.864 0.702c -1.998 -0.648 -6.318 -1.242 -10.152 -1.404c -0.162 -0.648 -0.108 -1.242 0.162 -1.728c 3.402 -0.27 3.672 -0.324 3.672 -4.05Z "/></symbol><symbol id="gF89F988CB139936BC097402B44DDD0D3" overflow="visible"><path d="M 0 0m 19.17 2.592c 0.108 -1.296 0.216 -2.214 0.216 -2.214c 0.054 -0.648 0.486 -0.918 1.242 -0.918c 1.998 0.54 5.238 1.296 8.964 1.782c 0.108 0.324 0 1.404 -0.108 1.728c -2.916 0.27 -3.51 1.134 -3.51 4.212v 24.3c 0 3.51 0.162 5.508 0.162 5.508c 0 0.486 -0.378 0.702 -0.864 0.702c -1.998 -0.648 -6.318 -1.242 -10.152 -1.404c -0.162 -0.648 -0.108 -1.35 0.162 -1.836c 3.402 -0.27 3.672 -0.324 3.672 -4.05v -7.02c -1.026 0.324 -2.322 0.594 -3.888 0.594c -6.966 0 -13.068 -6.102 -13.068 -13.284c 0 -3.186 1.134 -6.912 3.78 -8.964c 1.944 -1.512 3.294 -2.268 6.318 -2.268c 1.458 0 5.454 2.376 6.588 3.132Z m -0.162 2.538c -1.134 -0.918 -3.996 -2.106 -4.644 -2.106c -2.7 0 -4.806 3.024 -4.806 9.342c 0 2.862 0.324 5.346 1.35 7.02c 0.918 1.458 2.376 2.322 3.996 2.322c 1.404 0 2.754 -0.162 4.05 -1.944v -13.284c 0 -0.432 0 -0.918 0.054 -1.35Z "/></symbol><symbol id="gC3BF8C15D8BFC81F4EE5F59A330306F2" overflow="visible"><path d="M 0 0m 23.274 6.966c -2.214 -2.268 -5.13 -2.862 -7.182 -2.862c -4.212 0 -6.804 2.43 -6.804 7.722c 0 0.378 0.054 0.594 0.054 0.864h 12.96c 1.296 0 1.566 0.918 1.566 1.674c 0 4.59 -1.782 9.612 -9.72 9.612c -5.67 0 -12.15 -5.022 -12.15 -13.284c 0 -3.132 1.134 -6.426 3.456 -8.532c 2.052 -1.836 4.698 -2.7 8.532 -2.7c 3.726 0 7.398 1.89 10.098 5.832c 0 0.702 -0.27 1.674 -0.81 1.674Z m -13.716 7.884c 0.054 1.89 0.324 3.942 1.08 5.022c 0.864 1.296 2.322 1.836 2.916 1.836c 1.458 0 3.456 -1.404 3.456 -5.724c 0 -0.324 0 -1.026 -0.108 -1.134Z "/></symbol><symbol id="g596260FC8DBF9253ED5EED90AA383E66" overflow="visible"><path d="M 0 0m 22.788 4.698c 0 0.648 -0.108 1.674 -0.702 1.674c -2.16 -1.998 -3.996 -3.024 -5.562 -3.024c -4.05 0 -7.236 2.916 -7.236 9.396c 0 5.994 1.35 8.964 4.212 8.964c 1.998 0 2.808 -2.106 2.97 -3.834c 0.162 -1.458 1.62 -2.538 3.348 -2.538c 1.728 0 2.97 1.35 2.97 3.024c 0 2.43 -2.916 5.616 -8.802 5.616c -6.372 0 -11.988 -5.13 -11.988 -13.122c 0 -3.51 1.242 -6.588 3.348 -8.586c 2.106 -1.998 4.59 -2.808 8.424 -2.808c 3.24 0 6.966 2.268 9.018 5.238Z "/></symbol><symbol id="g5082662CBF46879EB070783470DB82A8" overflow="visible"><path d="M 0 0m 5.4 6.858c 0 -4.482 -0.864 -4.968 -4.158 -5.13c -0.324 -0.324 -0.324 -1.512 0 -1.836c 2.268 0.054 4.698 0.108 7.668 0.108c 2.376 0 4.752 -0.054 6.048 -0.108c 0.324 0.324 0.324 1.512 0 1.836c -1.62 0.216 -2.538 0.648 -2.538 5.13v 4.428c 1.512 0 3.186 -0.162 3.726 -1.026c 1.242 -1.836 2.754 -4.05 3.672 -6.048c 0.702 -1.512 0.864 -1.998 0.864 -2.808v -1.404l 0.108 -0.108c 0 0 2.43 0.108 4.32 0.108c 2.214 0 5.238 -0.054 7.236 -0.108c 0.324 0.324 0.324 1.512 0 1.836c -2.106 0.216 -3.294 0.054 -4.914 2.484l -6.264 9.234c -0.27 0.378 -0.378 0.81 -0.162 1.08l 2.7 2.97c 1.728 1.89 3.186 3.78 7.29 4.212c 0.324 0.324 0.324 1.512 0 1.836c -1.188 -0.054 -4.59 -0.108 -5.994 -0.108c -1.998 0 -4.536 0.054 -6.534 0.108c -0.324 -0.324 -0.324 -1.512 0 -1.836c 2.916 -0.216 3.78 -0.702 2.214 -2.862c -1.188 -1.62 -2.376 -2.916 -3.456 -3.888c -0.702 -0.594 -3.186 -1.512 -4.806 -1.512v 18.036c 0 3.51 0.162 5.508 0.162 5.508c 0 0.486 -0.378 0.702 -0.864 0.702c -1.998 -0.648 -6.318 -1.242 -10.152 -1.404c -0.162 -0.648 -0.108 -1.242 0.162 -1.728c 3.402 -0.27 3.672 -0.324 3.672 -4.05Z "/></symbol><symbol id="gD4324E420D8A77FB7C88EEFA21C6D6FF" overflow="visible"><path d="M 0 0m 2.592 7.884c 0.216 -2.646 0.486 -5.184 0.918 -7.236c 1.026 -0.324 4.482 -1.188 7.506 -1.188c 4.158 0 9.342 2.268 9.342 6.966c 0 1.836 -0.432 3.294 -1.674 4.644c -1.512 1.728 -3.78 3.078 -6.264 4.158c -2.16 0.918 -2.916 2.646 -2.916 4.212c 0 1.242 1.026 2.268 2.592 2.268c 1.89 0 3.726 -1.728 5.076 -5.022c 0.972 -0.162 1.566 -0.108 2.106 0.27c 0 1.944 -0.216 3.996 -0.702 5.724c -1.728 0.756 -3.078 1.296 -6.048 1.296c -2.862 0 -5.562 -1.08 -7.29 -2.808c -1.242 -1.242 -1.836 -2.754 -1.836 -4.212c 0 -1.62 0.648 -2.916 1.674 -4.05c 1.674 -1.836 4.644 -3.726 6.264 -4.482c 2.16 -0.972 2.754 -2.916 2.754 -4.212c 0 -1.728 -1.728 -2.646 -3.186 -2.646c -2.43 0 -5.022 2.484 -6.156 6.426c -0.864 0.162 -1.296 0.108 -2.16 -0.108Z "/></symbol><symbol id="gECB0E767947EFC63C231E9BF3A9A7447" overflow="visible"><path d="M 0 0m 12.42 6.912v 13.824h 4.644c 0.972 0 1.89 0.27 1.89 0.918v 1.242c 0 0.324 -0.054 0.54 -1.08 0.54h -5.454v 2.754c 0 8.046 2.214 9.234 3.402 9.234c 0.918 0 1.134 -0.81 1.512 -2.106c 0.486 -1.728 1.89 -3.078 3.834 -3.078c 1.782 0 3.078 1.134 3.078 3.456c 0 1.458 -1.674 3.996 -7.398 3.996c -2.538 0 -5.562 -0.918 -7.614 -3.132c -1.998 -2.16 -3.834 -4.86 -3.834 -10.044v -1.08h -0.108c -1.836 0 -4.05 -0.27 -4.05 -0.702v -1.458c 0 -0.378 0.216 -0.54 1.458 -0.54h 2.7v -13.932c 0 -4.428 -0.864 -4.914 -4.158 -5.076c -0.324 -0.324 -0.324 -1.512 0 -1.836c 2.268 0.054 4.698 0.108 7.668 0.108c 2.97 0 5.346 -0.054 7.668 -0.108c 0.324 0.324 0.324 1.512 0 1.836c -3.294 0.162 -4.158 0.648 -4.158 5.184Z "/></symbol><symbol id="gA8E7C3DCA8DA447BCE24A317DA2C1B28" overflow="visible"><path d="M 0 0m 12.312 14.472c 0 1.944 0.594 2.754 1.296 3.564c 0.432 0.54 0.918 0.918 1.728 0.918c 0.486 0 1.08 -0.486 1.512 -1.026c 0.378 -0.432 1.296 -0.864 2.538 -0.864c 1.566 0 3.078 1.62 3.078 3.888c 0 1.404 -1.62 3.024 -3.564 3.024c -1.89 0 -3.942 -1.62 -6.426 -5.184h -0.216c -0.108 1.62 -0.378 4.266 -0.378 4.266c -0.054 0.486 -0.486 0.918 -1.242 0.918c -2.538 -0.648 -5.4 -1.404 -8.964 -1.782c -0.108 -0.324 0 -1.35 0.108 -1.674c 2.97 -0.27 3.51 -0.756 3.51 -3.834v -10.098c 0 -4.482 -0.594 -4.59 -3.888 -4.86c -0.324 -0.324 -0.324 -1.512 0 -1.836c 2.268 0.054 4.536 0.108 7.398 0.108c 2.862 0 5.076 -0.054 7.398 -0.108c 0.324 0.324 0.324 1.512 0 1.836c -3.294 0.216 -3.888 0.378 -3.888 4.86Z "/></symbol><symbol id="g244FB6CB032105F45B8B6AD695A6789E" overflow="visible"><path d="M 0 0m 1.998 11.178c 0 -7.074 5.616 -11.718 12.852 -11.718c 3.834 0 7.02 1.08 9.234 3.078c 2.754 2.43 3.672 6.102 3.672 9.126c 0 7.074 -4.806 12.312 -12.852 12.312c -4.482 0 -7.83 -1.566 -9.936 -3.996c -2.052 -2.376 -2.97 -5.616 -2.97 -8.802Z m 12.042 10.53c 3.672 0 6.156 -4.374 6.156 -11.772c 0 -6.48 -2.538 -8.208 -4.482 -8.208c -4.428 0 -6.156 6.642 -6.156 10.638c 0 4.968 0.864 9.342 4.482 9.342Z "/></symbol><symbol id="g6FC3FECAB25C81D49E24D800206D0953" overflow="visible"><path d="M 0 0m 12.312 6.588v 10.746c 0 0.27 0 0.54 0 0.81c 2.106 1.296 3.996 1.836 4.914 1.836c 2.16 0 3.78 -0.972 3.78 -4.05v -9.018c 0 -4.536 -0.864 -5.022 -3.078 -5.184c -0.324 -0.324 -0.324 -1.512 0 -1.836c 2.268 0.054 3.996 0.108 6.588 0.108c 2.592 0 4.266 -0.054 6.588 -0.108c 0.324 0.324 0.324 1.512 0 1.836c -2.16 0.162 -3.078 0.648 -3.078 5.184v 8.424c 0 1.35 -0.054 2.43 -0.216 2.97c 2.052 1.026 4.374 1.674 5.238 1.674c 2.16 0 3.672 -0.972 3.672 -4.05v -9.018c 0 -4.536 -0.864 -5.022 -3.078 -5.184c -0.324 -0.324 -0.324 -1.512 0 -1.836c 2.268 0.054 3.996 0.108 6.588 0.108c 2.97 0 5.346 -0.054 7.668 -0.108c 0.324 0.324 0.324 1.512 0 1.836c -3.294 0.162 -4.158 0.648 -4.158 5.184v 8.424c 0 5.94 -2.16 8.64 -6.804 8.64c -1.998 0 -6.534 -2.16 -9.666 -3.888c -0.81 2.322 -2.97 3.888 -6.156 3.888c -1.944 0 -5.832 -2.052 -8.91 -3.78c -0.162 1.62 -0.324 2.862 -0.324 2.862c -0.054 0.648 -0.486 0.918 -1.242 0.918c -1.998 -0.54 -5.238 -1.296 -8.964 -1.782c -0.108 -0.324 0 -1.404 0.108 -1.728c 2.97 -0.27 3.51 -0.702 3.51 -3.78v -10.098c 0 -4.482 -0.594 -4.59 -3.888 -4.86c -0.324 -0.324 -0.324 -1.512 0 -1.836c 2.268 0.054 4.536 0.108 7.398 0.108c 2.484 0 3.996 -0.054 6.318 -0.108c 0.324 0.324 0.324 1.512 0 1.836c -2.268 0.216 -2.808 0.378 -2.808 4.86Z "/></symbol><symbol id="g53AC8B2796B26F9133DAAB96C3EC99F5" overflow="visible"><path d="M 0 0m 3.402 23.436c -0.756 0 -1.566 -0.216 -2.268 -0.81v -1.566c 0 -0.27 0.054 -0.324 0.27 -0.324h 3.51c -0.108 -5.454 -0.162 -12.366 -0.162 -15.066c 0 -1.89 0.486 -3.726 1.62 -4.698c 1.242 -1.026 3.186 -1.512 4.482 -1.512c 2.97 0 6.264 1.512 7.344 3.024c 0 0.648 -0.324 0.972 -0.972 1.512c -0.702 -0.54 -2.052 -0.756 -3.078 -0.756c -1.188 0 -2.376 0.918 -2.376 3.618c 0 2.7 -0.054 8.478 -0.054 13.878h 5.454c 0.54 0 1.296 0.216 1.296 0.702v 1.674c 0 0.216 -0.162 0.324 -0.432 0.324h -6.318l 0.054 1.836c 0.108 3.618 0.27 6.102 0.27 6.102c 0 0.324 -0.162 0.486 -0.432 0.486c -0.378 0 -2.376 -0.594 -3.24 -0.972c -0.918 -0.378 -2.484 -0.702 -2.862 -1.188c -0.378 -0.486 -0.594 -1.944 -0.594 -6.264Z "/></symbol><symbol id="g1EC705ED9F542637E68F6AFAFA50EF5F" overflow="visible"><path d="M 0 0m 9.882 3.942l 3.348 4.698c 0.216 0.27 0.378 0.432 0.54 0.162l 2.592 -4.914c 0.918 -1.728 0.378 -1.89 -1.512 -2.16c -0.324 -0.324 -0.324 -1.512 0 -1.836c 1.08 0.054 4.482 0.108 7.344 0.108c 2.808 0 6.156 -0.054 7.236 -0.108c 0.324 0.324 0.324 1.512 0 1.836c -1.998 0.324 -3.834 1.026 -5.562 3.618l -4.752 7.074c -0.27 0.432 -0.27 0.594 -0.108 0.81l 4.806 5.832c 1.512 1.836 3.456 2.484 5.13 2.646c 0.324 0.324 0.324 1.512 0 1.836c -1.08 -0.054 -2.754 -0.108 -4.536 -0.108c -2.106 0 -4.32 0.054 -5.4 0.108c -0.324 -0.324 -0.324 -1.512 0 -1.836c 1.944 -0.162 2.376 -0.756 1.296 -2.322l -2.916 -4.158c -0.162 -0.27 -0.432 -0.27 -0.648 0.108l -2.43 4.104c -1.134 1.944 -0.432 2.052 1.62 2.268c 0.324 0.324 0.324 1.512 0 1.836c -1.08 -0.054 -4.59 -0.108 -7.56 -0.108c -2.646 0 -5.724 0.054 -6.804 0.108c -0.324 -0.324 -0.324 -1.512 0 -1.836c 2.43 0 3.51 -1.458 5.022 -3.618l 4.806 -6.858c 0.162 -0.216 0.162 -0.432 -0.162 -0.81l -4.968 -6.156c -1.35 -1.728 -3.726 -2.322 -5.346 -2.538c -0.324 -0.324 -0.324 -1.512 0 -1.836c 1.08 0.054 2.754 0.108 4.482 0.108c 2.322 0 4.86 -0.054 5.94 -0.108c 0.324 0.324 0.324 1.512 0 1.836c -0.972 0.216 -2.646 0.54 -1.458 2.214Z "/></symbol><symbol id="g2A3861BD060A2842E68B2CE24BAC115A" overflow="visible"><path d="M 0 0m 13.32 6.58c 0 4.14 -2.86 6.58 -6.44 6.58c -3.88 0 -6.14 -3.08 -6.14 -6.96c 0 -3.94 2.86 -6.4 6.26 -6.4c 2.22 0 3.98 0.96 5.08 2.52c 0.8 1.14 1.24 2.58 1.24 4.26Z m -6.7 5.86c 2.64 0 4.78 -2.2 4.78 -6.24c 0 -3.58 -1.72 -5.68 -4 -5.68c -2.44 0 -4.74 2.18 -4.74 6.02c 0 4.2 1.98 5.9 3.96 5.9Z "/></symbol><symbol id="gB4BBCCC22F57BF42E1C62D26706C4CAE" overflow="visible"><path d="M 0 0m 3.68 7.16c -0.12 -0.14 -0.24 -0.18 -0.24 0c -0.02 0.54 -0.06 1.32 -0.16 1.52c -0.04 0.1 -0.08 0.16 -0.24 0.16c -0.56 -0.22 -1.08 -0.4 -2.46 -0.58c -0.04 -0.12 0 -0.44 0.04 -0.56c 1.08 -0.1 1.3 -0.2 1.3 -1.36v -3.9c 0 -1.64 -0.2 -1.72 -1.4 -1.82c -0.12 -0.12 -0.12 -0.54 0 -0.66c 0.6 0.02 1.4 0.04 2.2 0.04c 0.8 0 1.4 -0.02 2 -0.04c 0.12 0.12 0.12 0.54 0 0.66c -1.02 0.1 -1.22 0.18 -1.22 1.82v 3.28c 0 0.42 0.18 0.66 0.34 0.84c 0.76 0.74 1.66 1.18 2.44 1.18c 0.4 0 0.82 -0.26 1.06 -0.72c 0.2 -0.4 0.24 -0.94 0.24 -1.54v -3.04c 0 -1.64 -0.2 -1.72 -1.24 -1.82c -0.1 -0.12 -0.1 -0.54 0 -0.66c 0.6 0.02 1.24 0.04 2.04 0.04c 0.8 0 1.52 -0.02 2.12 -0.04c 0.1 0.12 0.1 0.54 0 0.66c -1.12 0.1 -1.34 0.18 -1.34 1.82v 2.98c 0 1.1 -0.08 2.06 -0.54 2.68c -0.34 0.44 -0.96 0.68 -1.66 0.68c -0.98 0 -2.1 -0.26 -3.28 -1.62Z "/></symbol><symbol id="g3DA8883EB89789500FDB8901794F6269" overflow="visible"><path d="M 0 0m 7.72 1.86c -0.74 -0.76 -1.32 -1.08 -2.48 -1.08c -0.72 0 -1.56 0.42 -2.18 1.44c -0.4 0.66 -0.64 1.58 -0.64 2.74l 5.32 -0.04c 0.24 0 0.38 0.12 0.38 0.34c 0 1.68 -0.6 3.48 -3.38 3.48c -1.74 0 -4 -1.66 -4 -4.7c 0 -1.12 0.28 -2.2 0.94 -2.96c 0.68 -0.8 1.62 -1.28 3.06 -1.28c 1.52 0 2.6 0.7 3.4 1.74c -0.06 0.2 -0.18 0.3 -0.42 0.32Z m -5.24 3.78c 0.38 2.26 1.78 2.44 2.26 2.44c 0.76 0 1.66 -0.42 1.66 -2.1c 0 -0.18 -0.08 -0.28 -0.3 -0.28Z "/></symbol><symbol id="gC3DF2B83E06FC6A1081CD9E99DA38A42" overflow="visible"><path d="M 0 0m 1.9 2.44c 0 -1.66 -0.22 -1.76 -1.44 -1.82c -0.12 -0.12 -0.12 -0.54 0 -0.66c 0.7 0.02 1.44 0.04 2.24 0.04c 0.8 0 1.56 -0.02 2.22 -0.04c 0.12 0.12 0.12 0.54 0 0.66c -1.22 0.06 -1.44 0.16 -1.44 1.82v 9.22c 0 1.3 0.08 2.1 0.08 2.1c 0 0.14 -0.08 0.2 -0.26 0.2c -0.5 -0.2 -2 -0.48 -2.8 -0.54c -0.04 -0.16 0 -0.48 0.12 -0.6c 1.16 -0.08 1.28 -0.14 1.28 -1.64Z "/></symbol><symbol id="gEA4A05FB6A39FCD9296410386F58FB1E" overflow="visible"><path d="M 0 0m 5.86 0.96c 0.12 -0.62 0.34 -1.16 1.34 -1.16c 0.76 0 1.48 0.34 1.9 0.74c -0.04 0.24 -0.12 0.42 -0.34 0.54c -0.14 -0.12 -0.48 -0.32 -0.74 -0.32c -0.58 0 -0.6 0.78 -0.6 1.7v 2.94c 0 2.84 -1.56 3.38 -3.02 3.38c -1.64 0 -3.3 -1.08 -3.3 -2.22c 0 -0.48 0.24 -0.72 0.7 -0.72c 0.58 0 0.94 0.42 0.94 0.68c 0 0.14 -0.02 0.28 -0.06 0.36c -0.02 0.06 -0.04 0.18 -0.04 0.4c 0 0.62 0.84 0.84 1.6 0.84c 0.68 0 1.62 -0.34 1.62 -2.6c 0 -0.14 -0.06 -0.22 -0.12 -0.24l -1.72 -0.42c -1.92 -0.48 -3.3 -1.54 -3.3 -2.9c 0 -1.64 1.12 -2.16 2.52 -2.16c 0.7 0 1.3 0.16 2.18 0.84l 0.4 0.32Z m 0 3.7v -2.64c 0 -0.26 -0.12 -0.4 -0.28 -0.52c -0.52 -0.42 -1.2 -0.88 -1.76 -0.88c -1 0 -1.44 0.8 -1.44 1.42c 0 0.9 0.42 1.82 1.9 2.2Z "/></symbol><symbol id="g1685DC75425F2DA10DE2B98EC29256E" overflow="visible"><path d="M 0 0m 4.08 -3.2c 0.32 0.56 0.58 1.12 0.82 1.72c 1.6 3.86 2.5 5.92 3.54 8.16c 0.4 0.84 0.68 1.16 1.62 1.28c 0.12 0.12 0.12 0.54 0 0.66c -0.4 -0.02 -0.86 -0.04 -1.42 -0.04c -0.6 0 -1.22 0.02 -1.82 0.04c -0.12 -0.12 -0.12 -0.54 0 -0.66c 0.64 -0.06 1.28 -0.18 0.96 -0.9l -1.98 -4.58c -0.14 -0.32 -0.32 -0.38 -0.48 0.02l -1.78 4.16c -0.36 0.84 -0.46 1.22 0.66 1.3c 0.12 0.12 0.12 0.54 0 0.66c -0.74 -0.02 -1.54 -0.04 -2.26 -0.04c -0.68 0 -1.22 0.02 -1.62 0.04c -0.12 -0.12 -0.12 -0.54 0 -0.66c 0.8 -0.1 1.06 -0.28 1.58 -1.5l 2.26 -5.26c 0.18 -0.4 0.48 -1.32 0.28 -1.88c -0.24 -0.66 -0.48 -1.22 -0.78 -1.84c -0.22 -0.4 -0.5 -0.58 -1 -0.58c -0.28 0 -0.36 0.06 -0.58 0.06c -0.58 0 -0.88 -0.6 -0.88 -0.86c 0 -0.42 0.4 -0.74 0.94 -0.74c 0.42 0 1.22 0.16 1.94 1.44Z "/></symbol><symbol id="gDC21C9441C16C48FE1BF5699ED702476" overflow="visible"><path d="M 0 0m 0.82 4.1c 0 -2.04 1.36 -4.3 4.2 -4.3c 1.28 0 2.26 0.46 2.94 1.12c 0.9 0.88 1.3 2.14 1.3 3.36c 0 2.08 -1.14 4.5 -4.2 4.5c -1.32 0 -2.4 -0.54 -3.14 -1.4c -0.72 -0.86 -1.1 -2.02 -1.1 -3.28Z m 3.94 3.98c 1.72 0 2.78 -1.56 2.78 -4.44c 0 -2.52 -1.3 -3.14 -2.24 -3.14c -2.08 0 -2.76 2.52 -2.76 4.06c 0 1.74 0.42 3.52 2.22 3.52Z "/></symbol><symbol id="gC7070C224B11A08A93065FC5065335CA" overflow="visible"><path d="M 0 0m 4.34 -0.2c 0.78 0 1.72 0.4 2.7 1.2c 0.1 0.08 0.28 0.12 0.3 -0.02c 0.06 -0.5 0.22 -1.18 0.22 -1.18c 0.16 -0.06 0.26 -0.04 0.38 0c 0.44 0.36 1.14 0.66 2.36 0.8c 0.12 0.12 0.12 0.42 0 0.54c -1.28 0.1 -1.46 0.48 -1.46 1.46v 3.84c 0 0.6 0.08 2.06 0.08 2.06c 0 0.06 -0.06 0.12 -0.16 0.12c -0.1 -0.02 -0.4 -0.04 -0.7 -0.04c -0.64 0 -1.36 0.02 -2.04 0.04c -0.12 -0.12 -0.12 -0.54 0 -0.66c 0.98 -0.06 1.24 -0.3 1.24 -1.62v -3.86c 0 -0.38 -0.04 -0.54 -0.32 -0.78c -0.74 -0.64 -1.5 -0.96 -2 -0.96c -0.6 0 -1.6 0.28 -1.6 2.06v 3.64c 0 0.6 0.08 2.06 0.08 2.06c 0 0.06 -0.06 0.12 -0.16 0.12c -0.1 -0.02 -0.4 -0.04 -0.7 -0.04c -0.64 0 -1.36 0.02 -2.04 0.04c -0.12 -0.12 -0.12 -0.54 0 -0.66c 0.96 -0.08 1.24 -0.3 1.24 -1.6v -3.84c 0 -1.38 0.6 -2.72 2.58 -2.72Z "/></symbol><symbol id="g1755E114A63BA6471116C427BDFA71B0" overflow="visible"><path d="M 0 0m 0.86 8.58c -0.28 0 -0.36 -0.24 -0.36 -0.4v -0.26c 0 -0.1 0.02 -0.12 0.1 -0.12h 1.18v -6.02c 0 -1.42 0.62 -1.98 1.54 -1.98c 0.92 0 1.92 0.44 2.7 1.32c -0.04 0.2 -0.16 0.32 -0.36 0.34c -0.52 -0.4 -1.12 -0.56 -1.64 -0.56c -0.54 0 -0.66 0.6 -0.66 1.84v 5.06h 2.08c 0.2 0 0.48 0.08 0.48 0.26v 0.4c 0 0.08 -0.06 0.12 -0.16 0.12h -2.4v 0.78c 0 1.3 0.08 2.1 0.08 2.1c 0 0.12 -0.06 0.18 -0.16 0.18c -0.08 0 -0.26 -0.08 -0.44 -0.18c -0.22 -0.12 -0.42 -0.22 -0.68 -0.28c -0.24 -0.08 -0.44 -0.14 -0.44 -0.28c 0 -0.24 0.06 -0.1 0.06 -2.32Z "/></symbol><symbol id="gD3DCA2C2E6987F3CBC00FC28DE7BC603" overflow="visible"><path d="M 0 0m 2.08 1.9c -0.62 0 -1.06 -0.42 -1.06 -0.98c 0 -0.62 0.52 -0.82 0.88 -0.88c 0.38 -0.04 0.72 -0.16 0.72 -0.62c 0 -0.42 -0.72 -1.34 -1.76 -1.6c 0 -0.2 0.04 -0.34 0.18 -0.48c 1.2 0.22 2.36 1.18 2.36 2.58c 0 1.2 -0.52 1.98 -1.32 1.98Z "/></symbol><symbol id="gC758D12E411EB95C8EE9D353CCC10649" overflow="visible"><path d="M 0 0m 0.96 2.76c 0.08 -0.98 0.14 -1.92 0.14 -2.76c 0.2 0.04 0.4 0.06 0.5 0.06c 0.14 0 0.26 0 0.4 -0.04c 0.54 -0.14 1.08 -0.22 1.82 -0.22c 1.12 0 3.18 0.54 3.18 2.52c 0 1.36 -0.98 2.16 -2.34 2.66c -1.2 0.46 -2 0.76 -2 1.86c 0 0.82 0.72 1.28 1.4 1.28c 0.44 0 1.6 -0.16 1.86 -1.86c 0.12 -0.12 0.52 -0.1 0.64 0.02c 0.06 0.72 0.1 1.46 0.12 2.12c -0.62 0.1 -1.58 0.38 -2.62 0.38c -1.48 0 -2.82 -0.96 -2.82 -2.24c 0 -1.46 0.66 -2.08 2.2 -2.72c 1.66 -0.68 2.04 -1.1 2.04 -1.96c 0 -0.98 -0.96 -1.4 -1.7 -1.4c -0.78 0 -1.22 0.26 -1.42 0.48c -0.44 0.46 -0.66 1.34 -0.78 1.84c -0.12 0.12 -0.5 0.1 -0.62 -0.02Z "/></symbol><symbol id="g7583EB8920F699196162A33DB636C4A9" overflow="visible"><path d="M 0 0m 6.68 1c 0.1 0.08 0.28 0.12 0.3 -0.02c 0.06 -0.48 0.22 -1.18 0.22 -1.18c 0.16 -0.06 0.26 -0.04 0.38 0c 0.44 0.36 1.14 0.66 2.36 0.8c 0.12 0.12 0.12 0.42 0 0.54c -1.28 0.1 -1.46 0.48 -1.46 1.46v 9.06c 0 1.3 0.08 2.1 0.08 2.1c 0 0.14 -0.08 0.2 -0.26 0.2c -0.5 -0.2 -2 -0.48 -2.8 -0.54c -0.04 -0.16 0 -0.48 0.12 -0.6c 0.06 0 0.12 0 0.18 0c 0.88 -0.06 1.1 -0.06 1.1 -1.64v -2.56c 0 -0.14 -0.04 -0.18 -0.18 -0.18c -0.08 0 -0.9 0.34 -1.56 0.34c -1.32 0 -2.2 -0.44 -3 -1.2c -0.86 -0.86 -1.38 -2.04 -1.38 -3.52c 0 -2.46 1.24 -4.26 3.4 -4.26c 0.78 0 1.52 0.4 2.5 1.2Z m 0.22 1.48c 0 -0.38 -0.04 -0.54 -0.32 -0.78c -0.74 -0.64 -1.38 -0.96 -1.88 -0.96c -1.08 0 -2.2 1.18 -2.2 3.68c 0 1.44 0.28 2.24 0.58 2.66c 0.62 0.94 1.46 1 1.86 1c 0.72 0 1.22 -0.26 1.62 -0.72c 0.28 -0.32 0.34 -0.46 0.34 -1.08Z "/></symbol><symbol id="g38825CEE884F0F917A1BBAA0D0FAFFBD" overflow="visible"><path d="M 0 0m 6.5 7.96c 1.08 -0.08 1.2 -0.32 0.78 -1.34l -1.62 -3.92c -0.32 -0.78 -0.42 -0.78 -0.74 0.06l -1.44 3.86c -0.36 0.96 -0.44 1.2 0.62 1.34c 0.12 0.12 0.12 0.54 0 0.66c -0.66 -0.02 -1.36 -0.04 -2.02 -0.04c -0.66 0 -1.26 0.02 -1.86 0.04c -0.12 -0.12 -0.12 -0.54 0 -0.66c 1.06 -0.12 1.2 -0.44 1.6 -1.46l 2.56 -6.32c 0.12 -0.3 0.24 -0.42 0.5 -0.42c 0.2 0 0.34 0.12 0.48 0.46l 2.66 6.26c 0.38 0.88 0.6 1.38 1.72 1.48c 0.12 0.12 0.12 0.54 0 0.66c -0.4 -0.02 -0.88 -0.04 -1.4 -0.04c -0.66 0 -1.34 0.02 -1.84 0.04c -0.12 -0.12 -0.12 -0.54 0 -0.66Z "/></symbol><symbol id="g6CD26CAA73C9309561AA0446D38A159" overflow="visible"><path d="M 0 0m 3.52 7.16c -0.04 0.8 -0.06 1.32 -0.16 1.52c -0.04 0.1 -0.08 0.16 -0.24 0.16c -0.56 -0.22 -1.08 -0.4 -2.46 -0.58c -0.04 -0.12 0 -0.44 0.04 -0.56c 1.08 -0.1 1.3 -0.2 1.3 -1.36v -3.9c 0 -1.66 -0.24 -1.74 -1.48 -1.82c -0.12 -0.12 -0.12 -0.54 0 -0.66c 0.7 0.02 1.48 0.04 2.28 0.04c 0.8 0 1.72 -0.02 2.42 -0.04c 0.12 0.12 0.12 0.54 0 0.66c -1.4 0.1 -1.64 0.16 -1.64 1.82v 2.78c 0 0.52 0.24 0.98 0.48 1.34c 0.22 0.32 0.68 0.98 0.92 0.98c 0.18 0 0.36 -0.04 0.52 -0.26c 0.14 -0.2 0.38 -0.46 0.72 -0.46c 0.48 0 0.94 0.5 0.94 1c 0 0.38 -0.36 0.96 -1.2 0.96c -0.94 0 -1.76 -0.88 -2.22 -1.66c -0.12 -0.22 -0.22 -0.06 -0.22 0.04Z "/></symbol><symbol id="g61A16DB8E6C338E369815B2C6D1149C3" overflow="visible"><path d="M 0 0m 7.96 1.82c -0.08 0.18 -0.24 0.26 -0.42 0.28c -0.68 -0.88 -1.54 -1.32 -2.4 -1.32c -1.46 0 -2.68 1.48 -2.68 3.82c 0 2.2 0.96 3.52 2.28 3.52c 1.18 0 1.34 -0.7 1.42 -1.4c 0.06 -0.54 0.34 -0.72 0.76 -0.72c 0.42 0 0.98 0.26 0.98 0.88c 0 1.1 -1.14 1.9 -3.06 1.9c -1.98 0 -4.1 -1.78 -4.1 -4.62c 0 -2.58 1.44 -4.36 3.96 -4.36c 1.2 0 2.26 0.38 3.26 2.02Z "/></symbol><symbol id="gF69160880E56000C9A753D8A2FE57ECD" overflow="visible"><path d="M 0 0m 1.14 0.86c 0 -0.58 0.48 -1.06 1.06 -1.06c 0.58 0 1.06 0.48 1.06 1.06c 0 0.58 -0.48 1.06 -1.06 1.06c -0.58 0 -1.06 -0.48 -1.06 -1.06Z "/></symbol></defs></svg>