<svg class="typst-doc" viewBox="0 0 680.3149606299213 510.23622047244095" width="680.3149606299213pt" height="510.23622047244095pt" xmlns="http://www.w3.org/2000/svg" xmlns:xlink="http://www.w3.org/1999/xlink" xmlns:h5="http://www.w3.org/1999/xhtml">
    <path class="typst-shape" fill="#0f1f1c" fill-rule="nonzero" d="M 0 0v 510.2362 h 680.31494 v -510.2362 Z "/>
    <g>
        <path class="typst-shape" fill="#1f9d72" fill-rule="nonzero" d="M 0 0v 510.2362 h 15.590551 v -510.2362 Z "/>
        <g class="typst-text" transform="matrix(1 0 0 -1 603.0679212598426 48.89703937007874)">
            <use xlink:href="#gC2A730C4EDB48FB2BD10FD38BE277B66" x="0" y="0" fill="#5a6b66" fill-rule="nonzero"/>
            <use xlink:href="#g2F792B3F85B0235452B38FA8E8636948" x="6.510000000000001" y="0" fill="#5a6b66" fill-rule="nonzero"/>
            <use xlink:href="#g8A5FF6BE40FBDB4AEF6814D1879A1ADE" x="16.520000000000003" y="0" fill="#5a6b66" fill-rule="nonzero"/>
            <use xlink:href="#gC2A730C4EDB48FB2BD10FD38BE277B66" x="24.542" y="0" fill="#5a6b66" fill-rule="nonzero"/>
            <use xlink:href="#g2F792B3F85B0235452B38FA8E8636948" x="31.052000000000003" y="0" fill="#5a6b66" fill-rule="nonzero"/>
        </g>
        <g class="typst-group">
            <g>
                <g class="typst-group">
                    <g>
                        <path class="typst-shape" fill="none" stroke="#1f9d72" stroke-width="2" stroke-linecap="butt" stroke-linejoin="miter" stroke-miterlimit="4" transform="matrix(1 0 0 1 73.7007874015748 163.89955905511812)" d="M 0 0h 22.677166 "/>
                        <g class="typst-text" transform="matrix(1 0 0 -1 106.2992125984252 168.17655905511813)">
                            <use xlink:href="#gFC0D2AE00DCFE9914106B14594305127" x="0" y="0" fill="#5a6b66" fill-rule="nonzero"/>
                            <use xlink:href="#gE54E8FC3BE18E9AEAFB298B6077F05BB" x="7.805" y="0" fill="#5a6b66" fill-rule="nonzero"/>
                            <use xlink:href="#gD04B6E7C1DB850EB32DD1F493413A9DD" x="18.795" y="0" fill="#5a6b66" fill-rule="nonzero"/>
                            <use xlink:href="#g7E36E4B4E63E4C821B6661CE8739877E" x="24.156000000000002" y="0" fill="#5a6b66" fill-rule="nonzero"/>
                            <use xlink:href="#gD04B6E7C1DB850EB32DD1F493413A9DD" x="37.439" y="0" fill="#5a6b66" fill-rule="nonzero"/>
                            <use xlink:href="#gA5033C126C50EB760A6232A746C7E235" x="43.281" y="0" fill="#5a6b66" fill-rule="nonzero"/>
                        </g>
                    </g>
                </g>
                <g class="typst-text" transform="matrix(1 0 0 -1 73.7007874015748 267.2197874015748)">
                    <use xlink:href="#g4E61E8E2234CF50D700D539AB8D2284D" x="0" y="0" fill="#f4f6f5" fill-rule="nonzero"/>
                    <use xlink:href="#g7A5FF0C6DE09C08C0E58982AE4A47DD5" x="32.476" y="0" fill="#f4f6f5" fill-rule="nonzero"/>
                    <use xlink:href="#gB04F8B276083B7057D1ECB9EF1DCF479" x="57.822" y="0" fill="#f4f6f5" fill-rule="nonzero"/>
                    <use xlink:href="#g14F18C7D282FEC5EDC9DE6368766D6F7" x="99.452" y="0" fill="#f4f6f5" fill-rule="nonzero"/>
                    <use xlink:href="#gD2319443EE61C2A9560BF2422DDE4AC9" x="126.178" y="0" fill="#f4f6f5" fill-rule="nonzero"/>
                    <use xlink:href="#gE5A18BD18E6FB46D2C4D7C9461B8483A" x="140.99" y="0" fill="#f4f6f5" fill-rule="nonzero"/>
                    <use xlink:href="#gFD6F623ACF2C259261D51ED2F9554840" x="155.94" y="0" fill="#f4f6f5" fill-rule="nonzero"/>
                    <use xlink:href="#gA620BC187BC2E8B251156E4B188D8550" x="189.934" y="0" fill="#f4f6f5" fill-rule="nonzero"/>
                    <use xlink:href="#g3C64EF141A29663D5B656680E14B0838" x="213.21" y="0" fill="#f4f6f5" fill-rule="nonzero"/>
                    <use xlink:href="#g8860DFD50318A40B2A6C96ADA976BAFF" x="241.546" y="0" fill="#f4f6f5" fill-rule="nonzero"/>
                    <use xlink:href="#g14F18C7D282FEC5EDC9DE6368766D6F7" x="278.852" y="0" fill="#f4f6f5" fill-rule="nonzero"/>
                    <use xlink:href="#g7A5FF0C6DE09C08C0E58982AE4A47DD5" x="305.9" y="0" fill="#f4f6f5" fill-rule="nonzero"/>
                    <use xlink:href="#g19A4BA5A7D4F5D2DF3AC2B36A37A251A" x="331.246" y="0" fill="#f4f6f5" fill-rule="nonzero"/>
                    <use xlink:href="#gE32B80424EE60A84DD8796EFEFE820F9" x="350.888" y="0" fill="#f4f6f5" fill-rule="nonzero"/>
                    <use xlink:href="#g316D14C6CECB578ED3527C79D140322B" x="367.356" y="0" fill="#f4f6f5" fill-rule="nonzero"/>
                </g>
                <g class="typst-text" transform="matrix(1 0 0 -1 73.7007874015748 350.6136614173229)">
                    <use xlink:href="#g9A7B72DE394CCED7219873B6D4969F19" x="0" y="0" fill="#8fa49d" fill-rule="nonzero"/>
                    <use xlink:href="#g3D9A220F65F47D20A7921857FFF773D3" x="5.372" y="0" fill="#8fa49d" fill-rule="nonzero"/>
                    <use xlink:href="#g3C8C298BF49110334AF0DB559BCEE1AB" x="14.127" y="0" fill="#8fa49d" fill-rule="nonzero"/>
                    <use xlink:href="#g3C6D44BCC9B9659C859BE80F00732BCE" x="22.950000000000003" y="0" fill="#8fa49d" fill-rule="nonzero"/>
                    <use xlink:href="#g9A7B72DE394CCED7219873B6D4969F19" x="29.580000000000002" y="0" fill="#8fa49d" fill-rule="nonzero"/>
                    <use xlink:href="#g1966FDECEBC19A8D7A84ACC8B35D88DF" x="39.202" y="0" fill="#8fa49d" fill-rule="nonzero"/>
                    <use xlink:href="#gEF767FBB6F792FE136C4D85CC55AE049" x="46.477999999999994" y="0" fill="#8fa49d" fill-rule="nonzero"/>
                    <use xlink:href="#gADDB3759E7A2F00F1FB7E6BC4D7D10BA" x="55.04599999999999" y="0" fill="#8fa49d" fill-rule="nonzero"/>
                    <use xlink:href="#g3C8C298BF49110334AF0DB559BCEE1AB" x="68.476" y="0" fill="#8fa49d" fill-rule="nonzero"/>
                    <use xlink:href="#g5AEEA5FF511651E88E12E41C57FEE83D" x="77.299" y="0" fill="#8fa49d" fill-rule="nonzero"/>
                    <use xlink:href="#g55EFD16B988EB22864B015E1215D5A07" x="81.906" y="0" fill="#8fa49d" fill-rule="nonzero"/>
                    <use xlink:href="#gD7E9F723F4FA86CCB5DC66E7F2540EFB" x="86.394" y="0" fill="#8fa49d" fill-rule="nonzero"/>
                    <use xlink:href="#g1966FDECEBC19A8D7A84ACC8B35D88DF" x="98.24300000000001" y="0" fill="#8fa49d" fill-rule="nonzero"/>
                    <use xlink:href="#g9A9AE9516CABD981BBD1C49A7814A01B" x="105.519" y="0" fill="#8fa49d" fill-rule="nonzero"/>
                    <use xlink:href="#g618D00BF98B798CA15E4A2A7AF61422" x="113.28800000000001" y="0" fill="#8fa49d" fill-rule="nonzero"/>
                    <use xlink:href="#gEF767FBB6F792FE136C4D85CC55AE049" x="119.47600000000001" y="0" fill="#8fa49d" fill-rule="nonzero"/>
                    <use xlink:href="#g4483C6DCD8E08E9AC08ECB6C30DFD6BF" x="128.044" y="0" fill="#8fa49d" fill-rule="nonzero"/>
                    <use xlink:href="#g3C6D44BCC9B9659C859BE80F00732BCE" x="137.07100000000003" y="0" fill="#8fa49d" fill-rule="nonzero"/>
                    <use xlink:href="#gD7E9F723F4FA86CCB5DC66E7F2540EFB" x="143.70100000000002" y="0" fill="#8fa49d" fill-rule="nonzero"/>
                    <use xlink:href="#g55EFD16B988EB22864B015E1215D5A07" x="151.3" y="0" fill="#8fa49d" fill-rule="nonzero"/>
                    <use xlink:href="#g204CBBAC503FD8F51F9C308ED93B5730" x="155.788" y="0" fill="#8fa49d" fill-rule="nonzero"/>
                    <use xlink:href="#g9A7B72DE394CCED7219873B6D4969F19" x="159.52800000000002" y="0" fill="#8fa49d" fill-rule="nonzero"/>
                    <use xlink:href="#g3D9A220F65F47D20A7921857FFF773D3" x="164.90000000000003" y="0" fill="#8fa49d" fill-rule="nonzero"/>
                    <use xlink:href="#g3C8C298BF49110334AF0DB559BCEE1AB" x="173.65500000000003" y="0" fill="#8fa49d" fill-rule="nonzero"/>
                    <use xlink:href="#g1966FDECEBC19A8D7A84ACC8B35D88DF" x="186.72800000000004" y="0" fill="#8fa49d" fill-rule="nonzero"/>
                    <use xlink:href="#g9A9AE9516CABD981BBD1C49A7814A01B" x="194.00400000000005" y="0" fill="#8fa49d" fill-rule="nonzero"/>
                    <use xlink:href="#g618D00BF98B798CA15E4A2A7AF61422" x="201.77300000000005" y="0" fill="#8fa49d" fill-rule="nonzero"/>
                    <use xlink:href="#gEF767FBB6F792FE136C4D85CC55AE049" x="207.96100000000004" y="0" fill="#8fa49d" fill-rule="nonzero"/>
                    <use xlink:href="#g4483C6DCD8E08E9AC08ECB6C30DFD6BF" x="216.52900000000005" y="0" fill="#8fa49d" fill-rule="nonzero"/>
                    <use xlink:href="#g3C6D44BCC9B9659C859BE80F00732BCE" x="225.55600000000004" y="0" fill="#8fa49d" fill-rule="nonzero"/>
                    <use xlink:href="#gD7E9F723F4FA86CCB5DC66E7F2540EFB" x="232.18600000000004" y="0" fill="#8fa49d" fill-rule="nonzero"/>
                    <use xlink:href="#g55EFD16B988EB22864B015E1215D5A07" x="239.78500000000003" y="0" fill="#8fa49d" fill-rule="nonzero"/>
                    <use xlink:href="#g204CBBAC503FD8F51F9C308ED93B5730" x="244.27300000000002" y="0" fill="#8fa49d" fill-rule="nonzero"/>
                    <use xlink:href="#g3C8C298BF49110334AF0DB559BCEE1AB" x="248.01300000000003" y="0" fill="#8fa49d" fill-rule="nonzero"/>
                    <use xlink:href="#g31DBA84B5C57044287ED80B248FC7559" x="256.95500000000004" y="0" fill="#8fa49d" fill-rule="nonzero"/>
                    <use xlink:href="#g9F59AD36F2E55C1AF73E16B53349CE95" x="265.557" y="0" fill="#8fa49d" fill-rule="nonzero"/>
                </g>
            </g>
        </g>
    </g>
    <defs id="glyph">
        <symbol id="gC2A730C4EDB48FB2BD10FD38BE277B66" overflow="visible">
            <path d="M 0 0m 3.1920002 -0.14 c 1.0779998 0 2.7159998 1.092 2.7159998 4.382 c 0 1.3860002 -0.33599997 2.5760002 -0.95199966 3.388 c -0.36400032 0.48999977 -0.95200014 0.90999985 -1.7080002 0.90999985 c -1.386 0 -2.7020001 -1.652 -2.7020001 -4.424 c 0 -1.4980001 0.462 -2.8980002 1.232 -3.6680002 c 0.39200008 -0.39200002 0.86800015 -0.588 1.4140002 -0.588 Z m 0.055999994 8.190001 c 0.23799992 0 0.4619999 -0.08400011 0.6299999 -0.23799992 c 0.43400025 -0.36399984 0.81200004 -1.428 0.81200004 -3.304 c 0 -1.2880003 -0.041999817 -2.1700003 -0.23799992 -2.8840003 c -0.3080001 -1.148 -0.99399996 -1.274 -1.246 -1.274 c -1.302 0 -1.442 2.394 -1.442 3.612 c 0 3.444 0.854 4.0880003 1.4840001 4.0880003 Z "/>
        </symbol>
        <symbol id="g2F792B3F85B0235452B38FA8E8636948" overflow="visible">
            <path d="M 0 0m 2.38 7.4900002 h 2.506 c -1.092 -2.716 -2.198 -5.446 -3.15 -7.5740004 l 0.11199999 -0.098000005 l 0.95200014 0.04200001 c 0.79799986 2.38 1.5679998 4.704 3.1360002 8.526001 l -0.22399998 0.16799927 c -0.2380004 -0.069999695 -0.546 -0.15399933 -1.0780001 -0.15399933 h -2.8840003 c -0.47599995 0 -0.44799995 0.13999939 -0.6999999 0.1960001 c -0.042000055 0 -0.056000054 0 -0.056000054 -0.04200077 c -0.013999999 -0.67199945 -0.16799998 -1.5119996 -0.27999997 -2.2399998 c 0.15399998 -0.041999817 0.29399997 -0.055999756 0.448 -0.041999817 c 0.30799997 1.1199999 0.77 1.2179999 1.218 1.2179999 Z "/>
        </symbol>
        <symbol id="g8A5FF6BE40FBDB4AEF6814D1879A1ADE" overflow="visible">
            <path d="M 0 0m 4.102 9.044001 h -0.5740001 l -3.318 -9.870001 h 0.574 Z "/>
        </symbol>
        <symbol id="gFC0D2AE00DCFE9914106B14594305127" overflow="visible">
            <path d="M 0 0m 5.135 8.203 c -0.7540002 0.10400009 -0.72800016 0.35099983 -2.002 0.35099983 c -1.3130001 0 -2.4700003 -0.8709998 -2.4700003 -2.2489996 c 0 -1.3650002 1.131 -1.9890003 2.275 -2.4310002 c 0.7800002 -0.29900002 1.7420003 -0.6630001 1.7420003 -1.937 c 0 -1.053 -0.58500004 -1.599 -1.6250002 -1.599 c -1.209 0 -1.9890001 0.559 -2.275 1.846 c -0.16900003 0.052000046 -0.29900002 0.026000023 -0.42900002 -0.039000034 c 0.051999986 -1.0009999 0.104 -1.339 0.26 -1.976 c 0.81900007 0 1.1830001 -0.299 2.34 -0.299 c 0.58500004 0 1.1440003 0.14299999 1.5990002 0.429 c 0.7539997 0.46800002 1.2220001 1.261 1.2220001 2.093 c 0 1.378 -1.0400004 1.9890001 -2.1060002 2.392 c -0.78 0.28600025 -2.08 0.7800002 -2.08 1.8720002 c 0 0.72800016 0.663 1.4560003 1.43 1.4560003 c 1.2609999 0 1.6640003 -0.80600023 1.924 -1.6640005 c 0.14300013 -0.026000023 0.31200027 -0.013000011 0.4289999 0.07800007 c -0.052000046 0.6240001 -0.103999615 0.9879999 -0.23399973 1.677 Z "/>
        </symbol>
        <symbol id="gE54E8FC3BE18E9AEAFB298B6077F05BB" overflow="visible">
            <path d="M 0 0m 8.034 1.5860001 v 5.2130003 c 0 1.079 0.22099972 1.144 1.1309996 1.1830001 c 0.07800007 0.07800007 0.07800007 0.35099983 0 0.4289999 c -0.533 -0.013000488 -1.1959996 -0.026000023 -1.6899996 -0.026000023 c -0.48100042 0 -1.105 0.012999535 -1.677 0.026000023 c -0.07800007 -0.07800007 -0.07800007 -0.35099983 0 -0.4289999 c 0.90999985 -0.039000034 1.131 -0.10400009 1.131 -1.1830001 v -2.0800004 h -4.446 v 2.0800004 c 0 1.079 0.22099996 1.144 1.131 1.1830001 c 0.07800007 0.07800007 0.07800007 0.35099983 0 0.4289999 c -0.49399996 -0.013000488 -1.027 -0.026000023 -1.69 -0.026000023 c -0.65 0 -1.1830001 0.012999535 -1.677 0.026000023 c -0.07800001 -0.07800007 -0.07800001 -0.35099983 0 -0.4289999 c 0.9100001 -0.039000034 1.131 -0.10400009 1.131 -1.1830001 v -5.2130003 c 0 -1.079 -0.22099996 -1.144 -1.131 -1.1830001 c -0.07800001 -0.07799998 -0.07800001 -0.351 0 -0.429 c 0.572 0.013 1.1960001 0.026 1.69 0.026 c 0.46799994 0 1.105 -0.013 1.677 -0.026 c 0.07800007 0.078 0.07800007 0.351 0 0.429 c -0.9100001 0.039000005 -1.131 0.10400003 -1.131 1.1830001 v 2.587 h 4.446 v -2.587 c 0 -1.079 -0.2210002 -1.144 -1.131 -1.1830001 c -0.07800007 -0.07799998 -0.07800007 -0.351 0 -0.429 c 0.58499956 0.013 1.2089996 0.026 1.6899996 0.026 c 0.48100042 0 1.1050005 -0.013 1.677 -0.026 c 0.07800007 0.078 0.07800007 0.351 0 0.429 c -0.90999985 0.039000005 -1.1309996 0.10400003 -1.1309996 1.1830001 Z "/>
        </symbol>
        <symbol id="gD04B6E7C1DB850EB32DD1F493413A9DD" overflow="visible">
            <path d="M 0 0m 2.483 1.5860001 v 5.2130003 c 0 1.079 0.22099996 1.144 1.131 1.1830001 c 0.07800007 0.07800007 0.07800007 0.35099983 0 0.4289999 c -0.572 -0.013000488 -1.1830001 -0.026000023 -1.69 -0.026000023 c -0.42900002 0 -1.066 0.012999535 -1.677 0.026000023 c -0.07800001 -0.07800007 -0.07800001 -0.35099983 0 -0.4289999 c 0.9100001 -0.039000034 1.131 -0.10400009 1.131 -1.1830001 v -5.2130003 c 0 -1.079 -0.22099996 -1.144 -1.131 -1.1830001 c -0.07800001 -0.07799998 -0.07800001 -0.351 0 -0.429 c 0.58500004 0.013 1.222 0.026 1.69 0.026 c 0.46799994 0 1.092 -0.013 1.677 -0.026 c 0.07800007 0.078 0.07800007 0.351 0 0.429 c -0.9100001 0.039000005 -1.131 0.10400003 -1.131 1.1830001 Z "/>
        </symbol>
        <symbol id="g7E36E4B4E63E4C821B6661CE8739877E" overflow="visible">
            <path d="M 0 0m 1.352 6.7990003 v -5.2130003 c 0 -1.079 -0.22099996 -1.144 -1.131 -1.1830001 c -0.077999994 -0.07799998 -0.077999994 -0.351 0 -0.429 c 0.585 0.013 1.2220001 0.026 1.69 0.026 c 0.45499992 0 1.2220001 -0.013 1.872 -0.026 c 0.07800007 0.078 0.07800007 0.351 0 0.429 c -1.0139999 0.052000016 -1.326 0.10400003 -1.326 1.1830001 v 2.21 c 0.286 -0.09099984 0.59800005 -0.12999988 1.053 -0.12999988 c 2.366 0 3.081 1.5470002 3.081 2.6520002 c 0 0.7669997 -0.50699997 2.1579995 -2.912 2.1579995 c -0.49399996 0 -1.2610002 -0.0909996 -1.7810001 -0.0909996 c -0.48099995 0 -1.1570001 0.012999535 -1.677 0.026000023 c -0.077999994 -0.07800007 -0.077999994 -0.35099983 0 -0.4289999 c 0.91 -0.039000034 1.131 -0.10400009 1.131 -1.1830001 Z m 1.105 0.40299988 c 0 0.37699986 0.19499993 0.83200026 1.131 0.83200026 c 0.8970001 0 1.7939999 -0.29900026 1.7939999 -1.9500003 c 0 -1.4039998 -0.67599964 -1.9759998 -1.9369998 -1.9759998 c -0.32500005 0 -0.845 0.026000023 -0.98800015 0.06499958 Z "/>
        </symbol>
        <symbol id="gA5033C126C50EB760A6232A746C7E235" overflow="visible">
            <path d="M 0 0m 4.55 1.5860001 v 4.966 c 0 0.83200026 0.13000011 1.3260002 0.59800005 1.3260002 h 0.28599977 c 0.9749999 0 1.586 -0.3380003 1.8070002 -1.3390002 c 0.14300013 0 0.3249998 0.013000011 0.4419999 0.06500006 c -0.09100008 0.59800005 -0.15600014 1.2610002 -0.16900015 1.8459997 c 0 0.013000488 -0.026000023 0.03900051 -0.038999557 0.03900051 c -0.4420004 -0.03900051 -1.8850002 -0.10400009 -2.9120002 -0.10400009 h -1.118 c -1.0010002 0 -2.535 0.06499958 -3.0290003 0.10400009 c -0.025999993 0 -0.051999986 -0.026000023 -0.051999986 -0.03900051 c -0.052000016 -0.58499956 -0.18200001 -1.2609997 -0.32500002 -1.8849998 c 0.13 -0.052000046 0.286 -0.06500006 0.442 -0.06500006 c 0.26 1.04 0.858 1.3780003 1.7160001 1.3780003 h 0.6370001 c 0.48099995 0 0.61100006 -0.49399996 0.61100006 -1.2870002 v -5.005 c 0 -1.079 -0.2210002 -1.144 -1.2610002 -1.1830001 c -0.07800007 -0.07799998 -0.07800007 -0.351 0 -0.429 c 0.6370001 0.013 1.3 0.026 1.8200002 0.026 c 0.49399996 0 1.1570001 -0.013 1.8070002 -0.026 c 0.07799959 0.078 0.07799959 0.351 0 0.429 c -1.0400004 0.039000005 -1.2610002 0.10400003 -1.2610002 1.1830001 Z "/>
        </symbol>
        <symbol id="g4E61E8E2234CF50D700D539AB8D2284D" overflow="visible">
            <path d="M 0 0m 18.262 -0.46 c 4.462002 0 8.556002 2.116 11.684 6.21 c -0.22999954 0.41400003 -1.0119991 0.9660001 -1.5179996 0.9660001 c -3.2659988 -3.588 -6.9919987 -4.784 -10.212 -4.784 c -5.3359995 0 -9.568 6.2559996 -9.568 13.432 c 0 7.129999 3.6800003 13.018 9.154 13.018 c 6.3479996 0 8.417999 -3.5879993 9.614 -7.5440006 c 0.55200005 -0.18400002 1.4720001 -0.045999527 1.9780006 0.23000145 c -0.23000145 2.3920002 -0.5980015 4.5999985 -1.012001 7.129999 c -2.3460007 0.22999954 -4.4160004 2.0699997 -10.073999 2.0699997 c -9.016001 0 -16.606 -5.657999 -16.606 -15.778 c 0 -4.3239994 1.886 -9.384 5.566 -12.052 c 2.9439998 -2.116 6.532 -2.898 10.9939995 -2.898 Z "/>
        </symbol>
        <symbol id="g7A5FF0C6DE09C08C0E58982AE4A47DD5" overflow="visible">
            <path d="M 0 0m 1.702 9.522 c 0 -6.026 4.784 -9.982 10.948 -9.982 c 3.2660007 0 5.9799995 0.92 7.866001 2.622 c 2.3459988 2.07 3.1279984 5.198 3.1279984 7.774 c 0 6.026 -4.094 10.488 -10.947999 10.488 c -3.8179998 0 -6.67 -1.3339996 -8.464001 -3.4039993 c -1.7479999 -2.0240002 -2.5299997 -4.7840004 -2.5299997 -7.498 Z m 10.258 8.97 c 3.1280003 0 5.2440004 -3.7260008 5.2440004 -10.028001 c 0 -5.5199995 -2.1620007 -6.9919996 -3.8180008 -6.9919996 c -3.7719994 0 -5.2439995 5.658 -5.2439995 9.062 c 0 4.2319994 0.73600006 7.958 3.8179998 7.958 Z "/>
        </symbol>
        <symbol id="gB04F8B276083B7057D1ECB9EF1DCF479" overflow="visible">
            <path d="M 0 0m 10.488 5.612 v 9.153999 c 0 0.2300005 0 0.46000004 0 0.69000053 c 1.7939997 1.1039991 3.4040003 1.5640001 4.186 1.5640001 c 1.8400002 0 3.2199993 -0.828001 3.2199993 -3.4500008 v -7.6819997 c 0 -3.864 -0.73599815 -4.278 -2.6219988 -4.416 c -0.27600002 -0.27600002 -0.27600002 -1.288 0 -1.564 c 1.9320002 0.046 3.4040003 0.092 5.6120005 0.092 c 2.2080002 0 3.6339989 -0.046 5.6119995 -0.092 c 0.27599907 0.276 0.27599907 1.288 0 1.564 c -1.8400002 0.13800001 -2.6219997 0.5519999 -2.6219997 4.416 v 7.176 c 0 1.1499996 -0.046001434 2.0699997 -0.18400002 2.5299997 c 1.7479992 0.87400055 3.7259998 1.4260006 4.462 1.4260006 c 1.8400002 0 3.1280003 -0.828001 3.1280003 -3.4500008 v -7.6819997 c 0 -3.864 -0.73600006 -4.278 -2.6219997 -4.416 c -0.27600098 -0.27600002 -0.27600098 -1.288 0 -1.564 c 1.9319992 0.046 3.4039993 0.092 5.6119995 0.092 c 2.5299988 0 4.554001 -0.046 6.5320015 -0.092 c 0.27599716 0.276 0.27599716 1.288 0 1.564 c -2.8060036 0.13800001 -3.5420036 0.5519999 -3.5420036 4.416 v 7.176 c 0 5.0600004 -1.8400002 7.3599997 -5.7959976 7.3599997 c -1.7020016 0 -5.566 -1.8400002 -8.234001 -3.3120003 c -0.6899986 1.9780006 -2.5299988 3.3120003 -5.2439995 3.3120003 c -1.6560001 0 -4.9680004 -1.7479992 -7.59 -3.2199993 c -0.13799953 1.3799992 -0.27600002 2.4379997 -0.27600002 2.4379997 c -0.045999527 0.55200005 -0.41399956 0.7819996 -1.0579996 0.7819996 c -1.7020001 -0.45999908 -4.4620004 -1.1040001 -7.636 -1.5179996 c -0.09200001 -0.27600098 0 -1.196001 0.09200001 -1.4720001 c 2.5299997 -0.22999954 2.9899998 -0.5979996 2.9899998 -3.2200003 v -8.601999 c 0 -3.8179998 -0.50600004 -3.9099998 -3.3119998 -4.14 c -0.27599996 -0.27600002 -0.27599996 -1.288 0 -1.564 c 1.932 0.046 3.8639998 0.092 6.302 0.092 c 2.1160002 0 3.4040003 -0.046 5.382 -0.092 c 0.27600002 0.276 0.27600002 1.288 0 1.564 c -1.9320002 0.18400002 -2.3920002 0.32200003 -2.3920002 4.14 Z "/>
        </symbol>
        <symbol id="g14F18C7D282FEC5EDC9DE6368766D6F7" overflow="visible">
            <path d="M 0 0m 4.37 14.214 v -19.274 c 0 -3.8180003 -0.5059998 -3.9100003 -3.3119998 -4.14 c -0.27599996 -0.27600002 -0.27599996 -1.2880001 0 -1.5640001 c 1.932 0.045999527 3.8639998 0.09200001 6.302 0.09200001 c 2.4380002 0 4.324 -0.04600048 6.3019996 -0.09200001 c 0.27600002 0.27600002 0.27600002 1.2880001 0 1.5640001 c -2.8059998 0.18400002 -3.3119993 0.32199955 -3.3119993 4.14 v 5.382 c 1.0120001 -0.506 1.9779997 -0.782 3.0819998 -0.782 c 6.9919996 0 11.5460005 4.6 11.5460005 11.362 c 0 2.5759993 -0.9660015 5.4279995 -2.7600002 7.222 c -1.6100006 1.6099987 -3.9099998 2.2999992 -6.302 2.2999992 c -1.3340006 0 -3.8180008 -1.6100006 -5.4280005 -3.0819988 h -0.27600002 c -0.09200001 1.2879982 -0.22999954 2.2999992 -0.22999954 2.2999992 c -0.04600048 0.55200005 -0.4140005 0.7819996 -1.0580006 0.7819996 c -1.7019997 -0.45999908 -4.462 -1.1040001 -7.6359997 -1.5179996 c -0.09200001 -0.27600098 0 -1.196001 0.09200001 -1.4720001 c 2.5300002 -0.22999954 2.9899998 -0.5979996 2.9899998 -3.2200003 Z m 5.9800005 -11.224 v 11.776 c 0 0.27600002 0 0.5060005 0 0.78200054 c 1.3339996 1.1959991 3.0359993 1.7940006 4.094 1.7940006 c 1.8859997 0 4.094 -2.3000011 4.094 -7.682001 c 0 -3.8639998 -1.3799992 -8.188 -5.382 -8.188 c -0.5060005 0 -1.6560001 0.27600002 -2.8059998 1.518 Z "/>
        </symbol>
        <symbol id="gD2319443EE61C2A9560BF2422DDE4AC9" overflow="visible">
            <path d="M 0 0m 10.672 5.612 v 9.153999 c 0 2.3000002 0.18400002 4.8760004 0.18400002 4.8760004 c 0 0.5060005 -0.41399956 0.7819996 -1.0579996 0.7819996 c -1.2880001 -0.5060005 -5.0140004 -0.87400055 -8.188001 -1.2880001 c -0.09200001 -0.27599907 0 -1.1959991 0.09200001 -1.4720001 c 2.5299997 -0.22999954 2.9899998 -0.5979996 2.9899998 -3.2199993 v -8.832001 c 0 -3.8179998 -0.50600004 -3.9099998 -3.3119998 -4.14 c -0.27600002 -0.27600002 -0.27600002 -1.288 0 -1.564 c 1.932 0.046 3.8639998 0.092 6.302 0.092 c 2.4379997 0 4.3239994 -0.046 6.302 -0.092 c 0.27600002 0.276 0.27600002 1.288 0 1.564 c -2.8059998 0.18400002 -3.3120003 0.32200003 -3.3120003 4.14 Z m -6.21 21.804 c 0 -1.5179996 1.1040001 -3.0360012 2.9440002 -3.0360012 c 2.0699997 0 3.2659998 1.6560001 3.2659998 2.8520012 c 0 1.3799992 -1.0579996 3.0359993 -2.9899998 3.0359993 c -2.1620002 0 -3.2200003 -1.4720001 -3.2200003 -2.8519993 Z "/>
        </symbol>
        <symbol id="gE5A18BD18E6FB46D2C4D7C9461B8483A" overflow="visible">
            <path d="M 0 0m 4.6 5.842 c 0 -3.818 -0.7359998 -4.232 -3.5419998 -4.37 c -0.27599996 -0.27600002 -0.27599996 -1.288 0 -1.564 c 1.932 0.046 4.002 0.092 6.532 0.092 c 2.5299997 0 4.554 -0.046 6.5319996 -0.092 c 0.27600002 0.276 0.27600002 1.288 0 1.564 c -2.8059998 0.13800001 -3.5419998 0.5519999 -3.5419998 4.37 v 20.976002 c 0 2.9899998 0.13800049 4.6919994 0.13800049 4.6919994 c 0 0.41399956 -0.3220005 0.5980015 -0.73600006 0.5980015 c -1.7020006 -0.55200195 -5.3820004 -1.0580025 -8.648001 -1.196001 c -0.13800001 -0.55200005 -0.09200001 -1.0580006 0.13800001 -1.4720001 c 2.8979998 -0.22999954 3.1279998 -0.27600098 3.1279998 -3.4500008 Z "/>
        </symbol>
        <symbol id="gFD6F623ACF2C259261D51ED2F9554840" overflow="visible">
            <path d="M 0 0m 19.826 5.934 c -1.8859997 -1.9320002 -4.37 -2.438 -6.118 -2.438 c -3.5880003 0 -5.796 2.07 -5.796 6.578 c 0 0.32199955 0.046000004 0.50599957 0.046000004 0.73600006 h 11.039999 c 1.1040001 0 1.3340015 0.7819996 1.3340015 1.4259996 c 0 3.9099998 -1.5180016 8.188 -8.280001 8.188 c -4.83 0 -10.35 -4.278 -10.35 -11.316 c 0 -2.6679997 0.96599996 -5.474 2.9439998 -7.2679996 c 1.7480001 -1.564 4.002 -2.3 7.2679996 -2.3 c 3.1740007 0 6.302 1.61 8.602001 4.968 c 0 0.59800005 -0.23000145 1.4260001 -0.69000053 1.4260001 Z m -11.684 6.7159996 c 0.045999527 1.6100006 0.27600002 3.3579998 0.9200001 4.278 c 0.73600006 1.1040001 1.9779997 1.5640011 2.4840002 1.5640011 c 1.2419996 0 2.9439993 -1.196001 2.9439993 -4.8760004 c 0 -0.27600002 0 -0.87400055 -0.09200001 -0.96600056 Z "/>
        </symbol>
        <symbol id="gA620BC187BC2E8B251156E4B188D8550" overflow="visible">
            <path d="M 0 0m 13.57 2.254 c 0.3220005 -1.8859999 1.5640001 -2.714 3.5880013 -2.714 c 2.5299988 0 4.3239994 0.96599996 6.025999 2.576 c -0.091999054 0.55200005 -0.27599907 0.9200001 -0.8279991 1.2880001 c -0.5980015 -0.46000004 -1.0580006 -0.64400005 -1.9320011 -0.64400005 c -1.0119991 0 -1.2880001 0.82800007 -1.2880001 3.082 l 0.09200096 6.6239996 c 0 6.6240005 -4.094001 7.958 -7.866 7.958 c -3.3580008 0 -8.51 -1.9319992 -8.51 -4.9679995 c 0 -1.2880001 0.55200005 -2.3000002 2.346 -2.3000002 c 1.6560001 0 2.8520002 1.0120001 2.8520002 2.1160002 c 0 0.22999954 -0.04600048 0.50599957 -0.09200001 0.78200054 c -0.09200001 0.45999908 -0.18400002 0.9200001 -0.09200001 1.3799992 c 0.046000004 0.5060005 0.41399956 1.0580006 1.9320002 1.0580006 c 1.9320002 0 3.5419998 -0.828001 3.5419998 -6.670001 l -3.0819998 -0.9659996 c -4.8300004 -1.5179996 -8.234 -2.8520002 -8.234 -6.486 c 0 -3.1739998 1.7480001 -4.83 5.75 -4.83 c 1.3339996 0 4.002 1.472 5.5199995 2.668 Z m -0.22999954 7.774 v -6.0719995 c -1.1500006 -0.9200001 -2.3000002 -1.6560001 -3.1280003 -1.6560001 c -1.9779997 0 -2.6679997 1.3340001 -2.6679997 2.76 c 0 1.7020001 0.13800001 3.1279998 3.4039998 4.1860003 Z "/>
        </symbol>
        <symbol id="g3C64EF141A29663D5B656680E14B0838" overflow="visible">
            <path d="M 0 0m 10.488 5.612 v 9.246 c 1.8400002 1.2420006 3.6800003 2.1620007 4.5080004 2.1620007 c 1.8400002 0 3.2199993 -0.828001 3.2199993 -3.4500008 v -7.6819997 c 0 -3.864 -0.73600006 -4.278 -2.6219997 -4.416 c -0.27600002 -0.27600002 -0.27600002 -1.288 0 -1.564 c 1.9320011 0.046 3.4039993 0.092 5.6119995 0.092 c 2.5300007 0 4.554001 -0.046 6.5320015 -0.092 c 0.27599907 0.276 0.27599907 1.288 0 1.564 c -2.8060017 0.13800001 -3.5420017 0.5519999 -3.5420017 4.416 v 7.176 c 0 5.0600004 -2.1619987 7.3599997 -6.118 7.3599997 c -1.8399982 0 -5.105999 -2.0240002 -7.6359987 -3.7719994 c -0.13800049 1.6099987 -0.3220005 2.9899998 -0.3220005 2.9899998 c -0.045999527 0.55200005 -0.41399956 0.7819996 -1.0579996 0.7819996 c -1.7020001 -0.45999908 -4.4620004 -1.1040001 -7.636 -1.5179996 c -0.09200001 -0.27600098 0 -1.196001 0.09200001 -1.4720001 c 2.5299997 -0.22999954 2.9899998 -0.5979996 2.9899998 -3.2200003 v -8.601999 c 0 -3.8179998 -0.50600004 -3.9099998 -3.3119998 -4.14 c -0.27599996 -0.27600002 -0.27599996 -1.288 0 -1.564 c 1.932 0.046 3.8639998 0.092 6.302 0.092 c 2.1160002 0 3.4040003 -0.046 5.382 -0.092 c 0.27600002 0.276 0.27600002 1.288 0 1.564 c -1.9320002 0.18400002 -2.3920002 0.32200003 -2.3920002 4.14 Z "/>
        </symbol>
        <symbol id="g8860DFD50318A40B2A6C96ADA976BAFF" overflow="visible">
            <path d="M 0 0m 16.33 2.208 c 0.09200096 -1.104 0.18400002 -1.8859999 0.18400002 -1.8859999 c 0.045999527 -0.552 0.41399956 -0.782 1.0580006 -0.782 c 1.7019997 0.46 4.462 1.104 7.6359997 1.518 c 0.091999054 0.27600002 0 1.196 -0.09200096 1.472 c -2.4839993 0.23000002 -2.9899998 0.9660001 -2.9899998 3.588 v 20.7 c 0 2.9899998 0.13800049 4.6919994 0.13800049 4.6919994 c 0 0.41399956 -0.3220005 0.5980015 -0.73600006 0.5980015 c -1.7019997 -0.55200195 -5.382 -1.0580025 -8.648 -1.196001 c -0.13800049 -0.55200005 -0.09200001 -1.1500015 0.13799953 -1.5640011 c 2.8980007 -0.22999954 3.1280003 -0.27599907 3.1280003 -3.4499989 v -5.9800014 c -0.8739996 0.27600098 -1.9779997 0.5060005 -3.3120003 0.5060005 c -5.9339995 0 -11.132 -5.198 -11.132 -11.316 c 0 -2.7139997 0.96599996 -5.8879995 3.2199998 -7.6359997 c 1.6560001 -1.288 2.8060002 -1.932 5.382 -1.932 c 1.2420006 0 4.646 2.024 5.6120005 2.668 Z m -0.13800049 2.162 c -0.9659996 -0.7819998 -3.4039993 -1.7939999 -3.9559994 -1.7939999 c -2.3000002 0 -4.094 2.576 -4.094 7.958 c 0 2.4379997 0.27600002 4.554 1.1499996 5.9799995 c 0.78200054 1.2420006 2.0240002 1.9780006 3.4040003 1.9780006 c 1.1960001 0 2.3459997 -0.13800049 3.4499998 -1.6560001 v -11.316 c 0 -0.36800003 0 -0.78200006 0.045999527 -1.1500001 Z "/>
        </symbol>
        <symbol id="g19A4BA5A7D4F5D2DF3AC2B36A37A251A" overflow="visible">
            <path d="M 0 0m 2.208 6.716 c 0.18400002 -2.2540002 0.41400003 -4.4160004 0.78200006 -6.164 c 0.8740001 -0.276 3.818 -1.012 6.394 -1.012 c 3.5419998 0 7.958001 1.932 7.958001 5.934 c 0 1.5640001 -0.36800003 2.8059998 -1.4260006 3.9560003 c -1.2880001 1.4720001 -3.2200003 2.6219997 -5.3360004 3.5419998 c -1.8400002 0.7819996 -2.4840002 2.2539997 -2.4840002 3.5879993 c 0 1.0580006 0.87400055 1.9320011 2.2080002 1.9320011 c 1.6099997 0 3.1739998 -1.4720001 4.3240004 -4.278001 c 0.82800007 -0.13799953 1.3339996 -0.09200001 1.7940006 0.2300005 c 0 1.6560001 -0.18400002 3.4039993 -0.5980005 4.8759995 c -1.4720001 0.644001 -2.6220007 1.1040001 -5.1520004 1.1040001 c -2.4379997 0 -4.738 -0.9200001 -6.21 -2.3920002 c -1.0579998 -1.0579987 -1.5639999 -2.3459997 -1.5639999 -3.5879993 c 0 -1.3800001 0.55200005 -2.4840002 1.4259999 -3.4499998 c 1.4260001 -1.5640001 3.9559999 -3.1740003 5.336 -3.8180003 c 1.8400002 -0.82800007 2.3459997 -2.4840002 2.3459997 -3.588 c 0 -1.4720001 -1.4719992 -2.2540002 -2.7139997 -2.2540002 c -2.0699997 0 -4.278 2.1160002 -5.244 5.474 c -0.7359998 0.13800001 -1.1039999 0.09200001 -1.8399999 -0.09200001 Z "/>
        </symbol>
        <symbol id="gE32B80424EE60A84DD8796EFEFE820F9" overflow="visible">
            <path d="M 0 0m 2.898 19.964 c -0.64400005 0 -1.334 -0.18400002 -1.9319999 -0.69000053 v -1.3339996 c 0 -0.23000145 0.045999944 -0.27600098 0.22999996 -0.27600098 h 2.9899998 c -0.09200001 -4.646 -0.13800001 -10.533999 -0.13800001 -12.834 c 0 -1.6099999 0.41400003 -3.1739998 1.3800001 -4.002 c 1.0580001 -0.874 2.7140002 -1.288 3.8180003 -1.288 c 2.5299997 0 5.3359995 1.288 6.2559996 2.576 c 0 0.55200005 -0.27600002 0.82800007 -0.82800007 1.2880001 c -0.5979996 -0.46000004 -1.7480001 -0.64400005 -2.6219997 -0.64400005 c -1.0120001 0 -2.0240002 0.78200006 -2.0240002 3.082 c 0 2.3000002 -0.045999527 7.222 -0.045999527 11.822 h 4.646 c 0.46000004 0 1.1040001 0.18400002 1.1040001 0.5979996 v 1.4260006 c 0 0.18400002 -0.13800049 0.27600098 -0.36800003 0.27600098 h -5.382 l 0.045999527 1.5639992 c 0.09200001 3.0820007 0.2300005 5.198 0.2300005 5.198 c 0 0.27600098 -0.13800049 0.41399956 -0.36800003 0.41399956 c -0.3220005 0 -2.0240002 -0.5059986 -2.7600002 -0.8279991 c -0.78200006 -0.3220005 -2.1160002 -0.5979996 -2.4380002 -1.012001 c -0.32200003 -0.41399956 -0.50600004 -1.6560001 -0.50600004 -5.3359985 Z "/>
        </symbol>
        <symbol id="g316D14C6CECB578ED3527C79D140322B" overflow="visible">
            <path d="M 0 0m 2.254 2.668 c 0 -1.7479999 1.4720001 -3.128 3.312 -3.128 c 1.8400002 0 3.4040003 1.472 3.4040003 3.22 c 0 1.7939999 -1.4720001 3.174 -3.3120003 3.174 c -1.8399999 0 -3.404 -1.4720001 -3.404 -3.266 Z "/>
        </symbol>
        <symbol id="g9A7B72DE394CCED7219873B6D4969F19" overflow="visible">
            <path d="M 0 0m 0.73100007 7.293 c -0.23800004 0 -0.30600005 -0.204 -0.30600005 -0.33999968 v -0.2210002 c 0 -0.08500004 0.01700002 -0.10199976 0.08500004 -0.10199976 h 1.003 v -5.1170006 c 0 -1.2070001 0.52700007 -1.6830001 1.3090001 -1.6830001 c 0.7819998 0 1.6320002 0.374 2.2949998 1.122 c -0.03399992 0.17000008 -0.13599968 0.27200007 -0.30599976 0.28900003 c -0.4419999 -0.34000003 -0.95200014 -0.476 -1.394 -0.476 c -0.4590001 0 -0.5610001 0.51000005 -0.5610001 1.5640001 v 4.3010006 h 1.7679999 c 0.17000008 0 0.408 0.06799984 0.408 0.22099972 v 0.34000015 c 0 0.06799984 -0.05099964 0.10199976 -0.13599968 0.10199976 h -2.0400002 v 0.6630001 c 0 1.1050005 0.06800008 1.7849998 0.06800008 1.7849998 c 0 0.10200024 -0.05100012 0.15300083 -0.13600016 0.15300083 c -0.06799984 0 -0.22099996 -0.06800079 -0.37400007 -0.15300083 c -0.1869998 -0.10199928 -0.35699987 -0.18699932 -0.57799995 -0.23799992 c -0.204 -0.06799984 -0.37399995 -0.11899948 -0.37399995 -0.23799992 c 0 -0.20399952 0.051 -0.08500004 0.051 -1.9720001 Z "/>
        </symbol>
        <symbol id="g3D9A220F65F47D20A7921857FFF773D3" overflow="visible">
            <path d="M 0 0m 3.4680002 -2.7200003 c 0.27200007 0.47600007 0.49300003 0.95200014 0.69700027 1.4620003 c 1.3599997 3.2810001 2.125 5.032 3.0089998 6.9360003 c 0.34000015 0.71399975 0.57800007 0.98600006 1.3770003 1.0879998 c 0.10200024 0.10200024 0.10200024 0.4590001 0 0.56100035 c -0.34000015 -0.017000198 -0.73099995 -0.034000397 -1.2070003 -0.034000397 c -0.50999975 0 -1.0370002 0.017000198 -1.5469999 0.034000397 c -0.10200024 -0.10200024 -0.10200024 -0.4590001 0 -0.56100035 c 0.54400015 -0.05100012 1.0879998 -0.15299988 0.816 -0.76499987 l -1.6830001 -3.8930004 c -0.11899996 -0.27199996 -0.27199984 -0.32299995 -0.408 0.01699996 l -1.5130002 3.5360003 c -0.306 0.7140002 -0.39100003 1.0370002 0.5610001 1.105 c 0.102 0.10200024 0.102 0.4590001 0 0.56100035 c -0.62899995 -0.017000198 -1.309 -0.034000397 -1.9210001 -0.034000397 c -0.57799995 0 -1.037 0.017000198 -1.3770001 0.034000397 c -0.102 -0.10200024 -0.102 -0.4590001 0 -0.56100035 c 0.68 -0.08500004 0.9010001 -0.23799992 1.3430002 -1.2750001 l 1.9210001 -4.471 c 0.15299988 -0.34000003 0.408 -1.1220001 0.23799992 -1.598 c -0.204 -0.56100005 -0.408 -1.0370002 -0.6630001 -1.5640001 c -0.1869998 -0.3399999 -0.42499995 -0.49300003 -0.8499999 -0.49300003 c -0.23800015 0 -0.306 0.05100012 -0.49300003 0.05100012 c -0.49300003 0 -0.748 -0.51 -0.748 -0.7310002 c 0 -0.35699987 0.34000003 -0.62899995 0.799 -0.62899995 c 0.357 0 1.0370001 0.13600016 1.649 1.224 Z "/>
        </symbol>
        <symbol id="g3C8C298BF49110334AF0DB559BCEE1AB" overflow="visible">
            <path d="M 0 0m 2.6520002 6.2560005 c -0.01699996 0.50999975 -0.05100012 0.95199966 -0.13600016 1.1219997 c -0.03399992 0.08500004 -0.06799984 0.13600016 -0.204 0.13600016 c -0.47599995 -0.1869998 -0.918 -0.34000015 -2.091 -0.49300003 c -0.03400001 -0.10200024 0 -0.37400007 0.03400001 -0.47599983 c 0.9180001 -0.08500004 1.1050001 -0.17000008 1.1050001 -1.1560001 v -7.259001 c 0 -1.411 -0.18700004 -1.496 -1.2240001 -1.5470002 c -0.102000006 -0.102 -0.102000006 -0.45899987 0 -0.5609999 c 0.595 0.01699996 1.2240001 0.03399992 1.9040002 0.03399992 c 0.68000007 0 1.496 -0.01699996 2.057 -0.03399992 c 0.10200024 0.102 0.10200024 0.45899987 0 0.5609999 c -1.207 0.06800008 -1.394 0.13600016 -1.394 1.5470002 v 1.8360001 c 0 0.22100002 0.06800008 0.20400003 0.23800015 0.136 c 0.42499995 -0.17000002 0.93499994 -0.272 1.4789999 -0.272 c 0.95200014 0 1.802 0.28900003 2.499 0.9520001 c 0.79900026 0.78200006 1.2579999 1.836 1.2579999 3.213 c 0 1.8020003 -1.2749996 3.4680002 -3.0089998 3.4680002 c -0.78200006 0 -1.6489999 -0.50999975 -2.329 -1.2750001 c -0.102 -0.10199976 -0.17000008 -0.10199976 -0.18700004 0.06800032 Z m 0.32299995 -0.6290002 c 0.44200015 0.54400015 1.2240002 1.0539999 1.7170002 1.0539999 c 1.0879998 0 2.0229998 -1.224 2.0229998 -3.145 c 0 -1.394 -0.49300003 -3.1280003 -2.3969998 -3.1280003 c -0.30600023 0 -0.901 0.08500001 -1.2070003 0.35700002 c -0.3399999 0.30600005 -0.408 0.40800005 -0.408 1.02 v 3.094 c 0 0.35699987 0.06800008 0.5100002 0.27200007 0.74800014 Z "/>
        </symbol>
        <symbol id="g3C6D44BCC9B9659C859BE80F00732BCE" overflow="visible">
            <path d="M 0 0m 0.81600004 2.3460002 c 0.06800002 -0.83300006 0.11900002 -1.6320002 0.11900002 -2.3460002 c 0.16999996 0.034 0.34000003 0.051000003 0.42500007 0.051000003 c 0.11899996 0 0.22099996 0 0.3399999 -0.034 c 0.4590001 -0.119 0.918 -0.18700002 1.5470002 -0.18700002 c 0.95200014 0 2.703 0.45900002 2.703 2.1420002 c 0 1.1560001 -0.8330002 1.836 -1.9890001 2.2610002 c -1.02 0.3909998 -1.7 0.6459999 -1.7 1.5809999 c 0 0.697 0.612 1.0880003 1.19 1.0880003 c 0.37400007 0 1.3600001 -0.13600016 1.5809999 -1.5810003 c 0.10200024 -0.10199976 0.4420004 -0.08500004 0.54400015 0.017000198 c 0.05100012 0.612 0.08500004 1.2410002 0.10200024 1.802 c -0.52699995 0.08500004 -1.3430004 0.32299995 -2.2270002 0.32299995 c -1.2580001 0 -2.3970003 -0.816 -2.3970003 -1.9039998 c 0 -1.2410002 0.5610001 -1.7680004 1.8700002 -2.3120003 c 1.4109998 -0.57800007 1.7340002 -0.9350002 1.7340002 -1.6660001 c 0 -0.83300006 -0.8160002 -1.19 -1.4450004 -1.19 c -0.66299987 0 -1.037 0.22100002 -1.207 0.408 c -0.37399995 0.39100003 -0.561 1.139 -0.663 1.5640001 c -0.102 0.102 -0.425 0.08500004 -0.527 -0.01699996 Z "/>
        </symbol>
        <symbol id="g1966FDECEBC19A8D7A84ACC8B35D88DF" overflow="visible">
            <path d="M 0 0m 6.7660003 1.547 c -0.06799984 0.153 -0.204 0.22100008 -0.35699987 0.23800004 c -0.57800007 -0.748 -1.309 -1.122 -2.04 -1.122 c -1.2410002 0 -2.2780004 1.2580001 -2.2780004 3.2470002 c 0 1.8699999 0.816 2.992 1.9380002 2.992 c 1.0029998 0 1.1389999 -0.59500027 1.2069998 -1.19 c 0.05100012 -0.4590001 0.28900003 -0.612 0.6460004 -0.612 c 0.35699987 0 0.8329997 0.22099972 0.8329997 0.74800014 c 0 0.93499994 -0.96899986 1.6149998 -2.6009998 1.6149998 c -1.6830001 0 -3.4850004 -1.513 -3.4850004 -3.927 c 0 -2.1930003 1.224 -3.7060003 3.3660002 -3.7060003 c 1.0200002 0 1.9210002 0.323 2.7710001 1.717 Z "/>
        </symbol>
        <symbol id="gEF767FBB6F792FE136C4D85CC55AE049" overflow="visible">
            <path d="M 0 0m 0.697 3.4850001 c 0 -1.7340001 1.156 -3.6550002 3.5700002 -3.6550002 c 1.0880003 0 1.921 0.39100003 2.499 0.9520001 c 0.76500034 0.748 1.105 1.819 1.105 2.8560002 c 0 1.7679999 -0.96899986 3.825 -3.5700002 3.825 c -1.122 0 -2.04 -0.4590001 -2.6690001 -1.19 c -0.612 -0.73099995 -0.93500006 -1.717 -0.93500006 -2.788 Z m 3.349 3.3830004 c 1.4620004 0 2.3630004 -1.3260002 2.3630004 -3.7740004 c 0 -2.1420002 -1.105 -2.6690001 -1.9040003 -2.6690001 c -1.7679999 0 -2.346 2.1420002 -2.346 3.4510002 c 0 1.4790003 0.35699987 2.9920003 1.8869998 2.9920003 Z "/>
        </symbol>
        <symbol id="gADDB3759E7A2F00F1FB7E6BC4D7D10BA" overflow="visible">
            <path d="M 0 0m 2.89 6.0860004 c -0.01699996 0.50999975 -0.05099988 1.1219997 -0.13599992 1.2919998 c -0.03399992 0.08500004 -0.06800008 0.13600016 -0.204 0.13600016 c -0.47600007 -0.1869998 -0.9180001 -0.34000015 -2.091 -0.49300003 c -0.03400001 -0.10200024 0 -0.37400007 0.03400001 -0.47599983 c 0.9180001 -0.08500004 1.105 -0.17000008 1.105 -1.1560001 v -3.3150003 c 0 -1.394 -0.22099996 -1.4790001 -1.156 -1.5470002 c -0.102 -0.102 -0.102 -0.459 0 -0.561 c 0.51 0.017 1.156 0.034 1.8360001 0.034 c 0.68000007 0 1.207 -0.017 1.717 -0.034 c 0.102 0.102000006 0.102 0.45900002 0 0.561 c -0.86699986 0.08500004 -1.0539999 0.15300006 -1.0539999 1.5470002 v 2.7880003 c 0 0.35699987 0.15299988 0.5609999 0.28900003 0.71399975 c 0.68000007 0.6630001 1.3089998 1.0030003 1.8360002 1.0030003 c 0.6459999 0 1.1219997 -0.408 1.1219997 -1.5470004 v -2.958 c 0 -1.394 -0.13599968 -1.4790001 -1.0539999 -1.5470002 c -0.08500004 -0.102 -0.08500004 -0.459 0 -0.561 c 0.4250002 0.017 1.0539999 0.034 1.7340002 0.034 c 0.6799998 0 1.2409997 -0.017 1.6659999 -0.034 c 0.08500004 0.102000006 0.08500004 0.45900002 0 0.561 c -0.8499999 0.06800002 -1.0029998 0.15300006 -1.0029998 1.5470002 v 2.7030003 c 0 0.23799992 0 0.47599983 -0.017000198 0.6799998 c 0.81600046 0.901 1.5809999 1.1220002 2.244 1.1220002 c 0.6459999 0 1.0200005 -0.37400007 1.0200005 -1.513 v -2.9920003 c 0 -1.394 -0.17000008 -1.4790001 -1.0539999 -1.5470002 c -0.08500004 -0.102 -0.08500004 -0.459 0 -0.561 c 0.42499924 0.017 1.0539999 0.034 1.7339993 0.034 c 0.6800003 0 1.2750006 -0.017 1.7510004 -0.034 c 0.08500004 0.102000006 0.08500004 0.45900002 0 0.561 c -0.93499947 0.06800002 -1.0880003 0.15300006 -1.0880003 1.5470002 v 2.686 c 0 1.513 -0.2550001 2.703 -1.7509995 2.703 c -0.8670006 0 -1.9210005 -0.32299995 -2.8050003 -1.2579999 c -0.05100012 -0.05100012 -0.15300035 -0.13600016 -0.18700027 0.016999722 c -0.15299988 0.697 -0.816 1.2410002 -1.6999998 1.2410002 c -0.98600006 0 -1.8700004 -0.57800007 -2.5840003 -1.3769999 c -0.08500004 -0.08500004 -0.18700004 -0.204 -0.204 0 Z "/>
        </symbol>
        <symbol id="g5AEEA5FF511651E88E12E41C57FEE83D" overflow="visible">
            <path d="M 0 0m 3.0770001 2.0740001 v 3.3830001 c 0 0.8499999 0.06800008 1.9380002 0.06800008 1.9380002 c 0 0.06799984 -0.08500004 0.11899996 -0.22099996 0.11899996 c -0.47600007 -0.1869998 -1.1560001 -0.34000015 -2.3290002 -0.49300003 c -0.03399998 -0.10200024 0 -0.37400007 0.03399998 -0.47599983 c 0.9350001 -0.08500004 1.105 -0.18700027 1.105 -1.1560001 v -3.3150003 c 0 -1.411 -0.18700004 -1.4620001 -1.224 -1.5470002 c -0.10200003 -0.102 -0.10200003 -0.459 0 -0.561 c 0.56100005 0.017 1.224 0.034 1.904 0.034 c 0.68000007 0 1.3260002 -0.017 1.8870001 -0.034 c 0.10200024 0.102000006 0.10200024 0.45900002 0 0.561 c -1.037 0.06800002 -1.224 0.13600004 -1.224 1.5470002 Z m -1.547 8.109 c 0 -0.4420004 0.408 -0.8839998 0.8160001 -0.8839998 c 0.47600007 0 0.88400006 0.45899963 0.88400006 0.816 c 0 0.408 -0.3570001 0.8839998 -0.8160002 0.8839998 c -0.408 0 -0.88399994 -0.408 -0.88399994 -0.816 Z "/>
        </symbol>
        <symbol id="g55EFD16B988EB22864B015E1215D5A07" overflow="visible">
            <path d="M 0 0m 1.6150001 2.0740001 c 0 -1.411 -0.18700004 -1.496 -1.2240001 -1.5470002 c -0.10200003 -0.102 -0.10200003 -0.459 0 -0.561 c 0.595 0.017 1.2240001 0.034 1.904 0.034 c 0.68000007 0 1.3260002 -0.017 1.8870001 -0.034 c 0.10200024 0.102000006 0.10200024 0.45900002 0 0.561 c -1.037 0.051 -1.224 0.13600004 -1.224 1.5470002 v 7.837 c 0 1.1050005 0.06800008 1.7850008 0.06800008 1.7850008 c 0 0.11899948 -0.06800008 0.16999912 -0.2210002 0.16999912 c -0.42499995 -0.16999912 -1.7 -0.408 -2.38 -0.45899963 c -0.03399998 -0.13599968 0 -0.408 0.102 -0.5100002 c 0.9860001 -0.06799984 1.088 -0.11899948 1.088 -1.394 Z "/>
        </symbol>
        <symbol id="gD7E9F723F4FA86CCB5DC66E7F2540EFB" overflow="visible">
            <path d="M 0 0m 6.5620003 1.5810001 c -0.6290002 -0.646 -1.1219997 -0.91800004 -2.1079998 -0.91800004 c -0.6120002 0 -1.3260002 0.35700005 -1.8530004 1.224 c -0.3399999 0.5610001 -0.5439999 1.3430002 -0.5439999 2.329 l 4.5220003 -0.03399992 c 0.204 0 0.32299995 0.10200024 0.32299995 0.28900003 c 0 1.428 -0.5100002 2.9580002 -2.8730001 2.9580002 c -1.4790001 0 -3.4000003 -1.4110003 -3.4000003 -3.9950001 c 0 -0.95200014 0.23800004 -1.8700001 0.7990001 -2.5160003 c 0.57799995 -0.68000007 1.377 -1.088 2.6010003 -1.088 c 1.2919998 0 2.21 0.595 2.8899999 1.4790001 c -0.05099964 0.17000008 -0.15299988 0.2550001 -0.35699987 0.27200007 Z m -4.4540005 3.213 c 0.3230002 1.921 1.5130002 2.0740004 1.9210002 2.0740004 c 0.6459999 0 1.4110003 -0.35700035 1.4110003 -1.7850003 c 0 -0.15299988 -0.06800032 -0.23799992 -0.2550001 -0.23799992 Z "/>
        </symbol>
        <symbol id="g9A9AE9516CABD981BBD1C49A7814A01B" overflow="visible">
            <path d="M 0 0m 4.9810004 0.81600004 c 0.10199976 -0.52700007 0.28900003 -0.98600006 1.1389999 -0.98600006 c 0.6459999 0 1.2579999 0.28900003 1.6150002 0.62900007 c -0.034000397 0.20400003 -0.10200024 0.35700002 -0.28900003 0.45900002 c -0.11899996 -0.102 -0.408 -0.272 -0.6290002 -0.272 c -0.49300003 0 -0.5100002 0.663 -0.5100002 1.445 v 2.499 c 0 2.414 -1.3259997 2.8730001 -2.567 2.8730001 c -1.394 0 -2.8050003 -0.91799974 -2.8050003 -1.8870001 c 0 -0.408 0.204 -0.612 0.595 -0.612 c 0.4929999 0 0.79900014 0.35699987 0.79900014 0.57800007 c 0 0.11899996 -0.017000198 0.23799992 -0.05100012 0.30600023 c -0.01699996 0.05099964 -0.03399992 0.15299988 -0.03399992 0.33999968 c 0 0.52699995 0.714 0.7140002 1.3599999 0.7140002 c 0.57800007 0 1.3770003 -0.28900003 1.3770003 -2.21 c 0 -0.11899996 -0.05100012 -0.18700027 -0.10200024 -0.204 l -1.4619999 -0.35700035 c -1.6320002 -0.40799975 -2.8050003 -1.3089998 -2.8050003 -2.465 c 0 -1.394 0.9520001 -1.8360002 2.1420002 -1.8360002 c 0.595 0 1.105 0.136 1.8530002 0.71400005 l 0.34000015 0.272 Z m 0 3.1450002 v -2.244 c 0 -0.22100008 -0.10200024 -0.34000003 -0.2380004 -0.44200003 c -0.4419999 -0.35700005 -1.0199997 -0.7480001 -1.4959998 -0.7480001 c -0.85000014 0 -1.2240002 0.68 -1.2240002 1.207 c 0 0.765 0.3570001 1.547 1.6150002 1.87 Z "/>
        </symbol>
        <symbol id="g618D00BF98B798CA15E4A2A7AF61422" overflow="visible">
            <path d="M 0 0m 2.992 6.0860004 c -0.03399992 0.6799998 -0.05099988 1.1219997 -0.13599992 1.2919998 c -0.03399992 0.08500004 -0.06800008 0.13600016 -0.204 0.13600016 c -0.47600007 -0.1869998 -0.9180001 -0.34000015 -2.091 -0.49300003 c -0.03400004 -0.10200024 0 -0.37400007 0.03399998 -0.47599983 c 0.9180001 -0.08500004 1.105 -0.17000008 1.105 -1.1560001 v -3.3150003 c 0 -1.411 -0.204 -1.4790001 -1.258 -1.5470002 c -0.102 -0.102 -0.102 -0.459 0 -0.561 c 0.595 0.017 1.258 0.034 1.9380001 0.034 c 0.68000007 0 1.4620001 -0.017 2.0570002 -0.034 c 0.10199976 0.102000006 0.10199976 0.45900002 0 0.561 c -1.19 0.08500004 -1.394 0.13600004 -1.394 1.5470002 v 2.3630002 c 0 0.4419999 0.204 0.8330002 0.408 1.1389999 c 0.18700004 0.2720003 0.57800007 0.8330002 0.78200006 0.8330002 c 0.15299988 0 0.30599976 -0.03399992 0.4419999 -0.2210002 c 0.11899996 -0.17000008 0.32299995 -0.3909998 0.612 -0.3909998 c 0.408 0 0.79900026 0.4249997 0.79900026 0.8499999 c 0 0.32299995 -0.30600023 0.816 -1.02 0.816 c -0.79900026 0 -1.4960003 -0.74800014 -1.8870003 -1.4109998 c -0.102 -0.18700027 -0.18700004 -0.05100012 -0.18700004 0.03399992 Z "/>
        </symbol>
        <symbol id="g4483C6DCD8E08E9AC08ECB6C30DFD6BF" overflow="visible">
            <path d="M 0 0m 3.6890001 -0.17000002 c 0.6630001 0 1.4620004 0.34000003 2.295 1.02 c 0.08500004 0.06800002 0.23799992 0.102 0.2550001 -0.01699996 c 0.05100012 -0.42500004 0.1869998 -1.003 0.1869998 -1.003 c 0.13600016 -0.051 0.2210002 -0.033999994 0.32300043 0 c 0.37400007 0.30600002 0.96899986 0.56100005 2.0059996 0.68000007 c 0.10200024 0.102 0.10200024 0.357 0 0.459 c -1.0879998 0.08499998 -1.2409997 0.40800005 -1.2409997 1.2409999 v 3.2640004 c 0 0.50999975 0.06799984 1.7509999 0.06799984 1.7509999 c 0 0.05100012 -0.05099964 0.10200024 -0.13599968 0.10200024 c -0.08500004 -0.017000198 -0.34000015 -0.034000397 -0.59500027 -0.034000397 c -0.54400015 0 -1.1560001 0.017000198 -1.7340002 0.034000397 c -0.10199976 -0.10200024 -0.10199976 -0.4590001 0 -0.56100035 c 0.8330002 -0.05100012 1.0540004 -0.2550001 1.0540004 -1.3769999 v -3.2810004 c 0 -0.32299995 -0.03399992 -0.459 -0.2720003 -0.663 c -0.6289997 -0.544 -1.2750001 -0.81600004 -1.6999998 -0.81600004 c -0.5100002 0 -1.3600001 0.23800004 -1.3600001 1.7510002 v 3.0940003 c 0 0.50999975 0.06799984 1.7509999 0.06799984 1.7509999 c 0 0.05100012 -0.05099988 0.10200024 -0.13599992 0.10200024 c -0.08500004 -0.017000198 -0.3399999 -0.034000397 -0.595 -0.034000397 c -0.544 0 -1.156 0.017000198 -1.7340001 0.034000397 c -0.102 -0.10200024 -0.102 -0.4590001 0 -0.56100035 c 0.816 -0.06799984 1.054 -0.2550001 1.054 -1.3600001 v -3.264 c 0 -1.1730001 0.51 -2.3120003 2.193 -2.3120003 Z "/>
        </symbol>
        <symbol id="g204CBBAC503FD8F51F9C308ED93B5730" overflow="visible">
            <path d="M 0 0m 0.96900004 0.73100007 c 0 -0.49300006 0.40800005 -0.9010001 0.9010001 -0.9010001 c 0.49300003 0 0.901 0.40800002 0.901 0.9010001 c 0 0.49300003 -0.408 0.901 -0.901 0.901 c -0.49300003 0 -0.9010001 -0.408 -0.9010001 -0.901 Z "/>
        </symbol>
        <symbol id="g31DBA84B5C57044287ED80B248FC7559" overflow="visible">
            <path d="M 0 0m 5.6780005 0.85 c 0.08500004 0.06800002 0.23799992 0.102 0.25499964 -0.01699996 c 0.05100012 -0.40800005 0.18700027 -1.003 0.18700027 -1.003 c 0.13600016 -0.051 0.2210002 -0.033999994 0.32299995 0 c 0.37400007 0.30600002 0.96899986 0.56100005 2.006 0.68000007 c 0.10200024 0.102 0.10200024 0.357 0 0.459 c -1.0879998 0.08499998 -1.2410002 0.40800005 -1.2410002 1.2409999 v 7.701 c 0 1.1050005 0.06800032 1.7850008 0.06800032 1.7850008 c 0 0.11899948 -0.06800032 0.16999912 -0.2210002 0.16999912 c -0.4249997 -0.16999912 -1.6999998 -0.408 -2.38 -0.45899963 c -0.03399992 -0.13599968 0 -0.408 0.10200024 -0.5100002 c 0.05099964 0 0.10199976 0 0.15299988 0 c 0.74800014 -0.05099964 0.93499994 -0.05099964 0.93499994 -1.394 v -2.1759996 c 0 -0.119000435 -0.03399992 -0.15300035 -0.15299988 -0.15300035 c -0.06799984 0 -0.76499987 0.28900003 -1.3260002 0.28900003 c -1.122 0 -1.8700001 -0.37400007 -2.5500002 -1.02 c -0.73100007 -0.73099995 -1.1730001 -1.7340002 -1.1730001 -2.992 c 0 -2.091 1.0540001 -3.6210003 2.89 -3.6210003 c 0.66299987 0 1.292 0.34000003 2.1250002 1.02 Z m 0.1869998 1.258 c 0 -0.32299995 -0.03399992 -0.459 -0.27199984 -0.663 c -0.6290002 -0.544 -1.1730003 -0.81600004 -1.5980003 -0.81600004 c -0.918 0 -1.8700001 1.003 -1.8700001 3.1280003 c 0 1.2240002 0.23800015 1.904 0.49300003 2.261 c 0.5270002 0.79900026 1.2410002 0.8500004 1.5810003 0.8500004 c 0.612 0 1.0369997 -0.2210002 1.3769999 -0.612 c 0.23799992 -0.2720003 0.28900003 -0.39100027 0.28900003 -0.9180002 Z "/>
        </symbol>
        <symbol id="g9F59AD36F2E55C1AF73E16B53349CE95" overflow="visible">
            <path d="M 0 0m 2.9750001 2.0740001 v 4.5560007 h 1.5810001 c 0.15299988 0 0.39100027 0.06799984 0.39100027 0.22099972 v 0.34000015 c 0 0.06799984 -0.05100012 0.10199976 -0.13600016 0.10199976 h -1.8360002 v 0.96899986 c 0 2.618001 0.78200006 3.026001 1.3430002 3.026001 c 0.50999975 0 0.78200006 -0.20400047 1.02 -0.79900074 c 0.13600016 -0.30599976 0.32299995 -0.5439997 0.6799998 -0.5439997 c 0.28900003 0 0.697 0.35700035 0.697 0.69699955 c 0 0.2890005 -0.1869998 0.59500027 -0.5439997 0.8670006 c -0.4420004 0.30599976 -0.8840003 0.3569994 -1.5300002 0.3569994 c -1.4280002 0 -3.0090003 -1.2409992 -3.0090003 -3.8929996 v -0.6800003 h -0.86700004 c -0.30600002 0 -0.39100003 -0.204 -0.39100003 -0.33999968 v -0.2210002 c 0 -0.08500004 0.01700002 -0.10199976 0.08500001 -0.10199976 h 1.1730001 v -4.5560007 c 0 -1.411 -0.27199996 -1.4790001 -1.19 -1.5470002 c -0.102 -0.102 -0.102 -0.459 0 -0.561 c 0.595 0.017 1.19 0.034 1.87 0.034 c 0.68000007 0 1.496 -0.017 2.0910003 -0.034 c 0.10199976 0.102000006 0.10199976 0.45900002 0 0.561 c -1.3260002 0.06800002 -1.4280002 0.13600004 -1.4280002 1.5470002 Z "/>
        </symbol>
    </defs>
</svg>
