<svg viewBox="0 0 595.275590551 595.275590551" width="595.275590551pt" height="595.275590551pt" xmlns="http://www.w3.org/2000/svg" xmlns:xlink="http://www.w3.org/1999/xlink" xmlns:h5="http://www.w3.org/1999/xhtml"><path fill="#0f1f1c" fill-rule="nonzero" d="M 0 0v 595.275590551h 595.275590551v -595.275590551Z "/><path fill="#1f9d72" fill-rule="nonzero" d="M 0 0v 595.275590551h 15.590551181v -595.275590551Z "/><g transform="matrix(1 0 0 -1 513.446996494 50.32175812)"><use xlink:href="#g290682C0358F22985358E828942BD110" x="0" y="0" fill="#5a6b66" fill-rule="nonzero"/><use xlink:href="#g3E4573124205ACC198E9F459B510F564" x="16.857421875" y="0" fill="#5a6b66" fill-rule="nonzero"/><use xlink:href="#g290682C0358F22985358E828942BD110" x="33.71484375" y="0" fill="#5a6b66" fill-rule="nonzero"/></g><g><path fill="none" stroke="#1f9d72" stroke-width="2" stroke-linecap="butt" stroke-linejoin="miter" stroke-miterlimit="4" transform="translate(73.700787402 205.554236282)" d="M 0 0h 22.677165354"/><g transform="matrix(1 0 0 -1 106.299212598 210.492712844)"><use xlink:href="#gDB69EAF5B2019833F3A1F0B97FB4D4F0" x="0" y="0" fill="#5a6b66" fill-rule="nonzero"/><use xlink:href="#g8266A689B851DEF3E1736EDC378F4835" x="9.326660156" y="0" fill="#5a6b66" fill-rule="nonzero"/><use xlink:href="#gFA75D07040FC1628EF315D77C94AB259" x="18.653320313" y="0" fill="#5a6b66" fill-rule="nonzero"/><use xlink:href="#g5032CFCAE45184E06787003414B76DCC" x="27.979980469" y="0" fill="#5a6b66" fill-rule="nonzero"/><use xlink:href="#gFA75D07040FC1628EF315D77C94AB259" x="46.633300781" y="0" fill="#5a6b66" fill-rule="nonzero"/><use xlink:href="#gBC5416D29E50877D61457B98B84FAAEF" x="55.959960938" y="0" fill="#5a6b66" fill-rule="nonzero"/></g><g transform="matrix(1 0 0 -1 73.700787402 309.535941191)"><use xlink:href="#g7E9CAB0D000E4581B612A883DB15C79F" x="0" y="0" fill="#f4f6f5" fill-rule="nonzero"/><use xlink:href="#g126CA79377F627F9633AB40BACDE84EE" x="32.476" y="0" fill="#f4f6f5" fill-rule="nonzero"/><use xlink:href="#gA7A308064ACA2853E92DCA8809C95CDE" x="57.822" y="0" fill="#f4f6f5" fill-rule="nonzero"/><use xlink:href="#g9A78B35F029571C0C61AE2191D9AEEF6" x="99.452" y="0" fill="#f4f6f5" fill-rule="nonzero"/><use xlink:href="#gE6A572DBE3645EF799CFF1E62D22A09C" x="126.178" y="0" fill="#f4f6f5" fill-rule="nonzero"/><use xlink:href="#g9353C03DAFD0EB83D03224B226A6E0E7" x="140.99" y="0" fill="#f4f6f5" fill-rule="nonzero"/><use xlink:href="#g3BBFD09661BE85F80927BC19E0D16DD9" x="155.94" y="0" fill="#f4f6f5" fill-rule="nonzero"/><use xlink:href="#gAD87BE57394FFBDC44D7D205BA151394" x="189.934" y="0" fill="#f4f6f5" fill-rule="nonzero"/><use xlink:href="#gA3899652C7E8930887A56DCAE7CE1530" x="213.21" y="0" fill="#f4f6f5" fill-rule="nonzero"/><use xlink:href="#g1D13CA981FC4E0EFE9D1B9512B62C7E0" x="241.546" y="0" fill="#f4f6f5" fill-rule="nonzero"/><use xlink:href="#g9A78B35F029571C0C61AE2191D9AEEF6" x="278.852" y="0" fill="#f4f6f5" fill-rule="nonzero"/><use xlink:href="#g126CA79377F627F9633AB40BACDE84EE" x="305.9" y="0" fill="#f4f6f5" fill-rule="nonzero"/><use xlink:href="#gF4E998D3F1FF79CCC135A9EE42CDE047" x="331.246" y="0" fill="#f4f6f5" fill-rule="nonzero"/><use xlink:href="#g7280B28AEF7CEF5CAD4BE177D239D899" x="350.888" y="0" fill="#f4f6f5" fill-rule="nonzero"/><use xlink:href="#g11CC97F4ACF337A3B20034B603A9470D" x="367.356" y="0" fill="#f4f6f5" fill-rule="nonzero"/></g><g transform="matrix(1 0 0 -1 73.700787402 394.659830832)"><use xlink:href="#gF521D2AD9D8935BFD1E44A25085E033" x="0" y="0" fill="#8fa49d" fill-rule="nonzero"/><use xlink:href="#g965638C170A0CAB0AB8276BAFFF1DC71" x="10.234863281" y="0" fill="#8fa49d" fill-rule="nonzero"/><use xlink:href="#g392B755E8796EB227C3A1BF736866109" x="20.469726563" y="0" fill="#8fa49d" fill-rule="nonzero"/><use xlink:href="#gEBD5690478F669BABE666D2D9FFB163D" x="30.704589844" y="0" fill="#8fa49d" fill-rule="nonzero"/><use xlink:href="#gF521D2AD9D8935BFD1E44A25085E033" x="40.939453125" y="0" fill="#8fa49d" fill-rule="nonzero"/><use xlink:href="#g317B1107998FBE69BCFCA1A4DC88DCFF" x="61.409179688" y="0" fill="#8fa49d" fill-rule="nonzero"/><use xlink:href="#g9981AA481802ED2383E2EA741CC1D4B8" x="71.644042969" y="0" fill="#8fa49d" fill-rule="nonzero"/><use xlink:href="#g8A8D69B84EE455084ED438018A6A1329" x="81.87890625" y="0" fill="#8fa49d" fill-rule="nonzero"/><use xlink:href="#g392B755E8796EB227C3A1BF736866109" x="92.113769531" y="0" fill="#8fa49d" fill-rule="nonzero"/><use xlink:href="#g8A2EF29887DB5E165B370F972EDEE221" x="102.348632813" y="0" fill="#8fa49d" fill-rule="nonzero"/><use xlink:href="#g608DBDD930E240D97265123A84117FA5" x="112.583496094" y="0" fill="#8fa49d" fill-rule="nonzero"/><use xlink:href="#g1C1D22176C6EE81E930502DE93833E64" x="122.818359375" y="0" fill="#8fa49d" fill-rule="nonzero"/><use xlink:href="#g317B1107998FBE69BCFCA1A4DC88DCFF" x="143.288085938" y="0" fill="#8fa49d" fill-rule="nonzero"/><use xlink:href="#g97F362F3C5E072A6E72577BADF5DF516" x="153.522949219" y="0" fill="#8fa49d" fill-rule="nonzero"/><use xlink:href="#gAE3D8B94483776AC3C1E9571E5AAEF9D" x="163.7578125" y="0" fill="#8fa49d" fill-rule="nonzero"/><use xlink:href="#g9981AA481802ED2383E2EA741CC1D4B8" x="173.992675781" y="0" fill="#8fa49d" fill-rule="nonzero"/><use xlink:href="#gAA623C865F0C355B702BAEDCE3E876F6" x="184.227539063" y="0" fill="#8fa49d" fill-rule="nonzero"/><use xlink:href="#gEBD5690478F669BABE666D2D9FFB163D" x="194.462402344" y="0" fill="#8fa49d" fill-rule="nonzero"/><use xlink:href="#g1C1D22176C6EE81E930502DE93833E64" x="204.697265625" y="0" fill="#8fa49d" fill-rule="nonzero"/><use xlink:href="#g608DBDD930E240D97265123A84117FA5" x="214.932128906" y="0" fill="#8fa49d" fill-rule="nonzero"/><use xlink:href="#gDEE6C3ED1DD79E627DC1A313A397DB87" x="225.166992188" y="0" fill="#8fa49d" fill-rule="nonzero"/><use xlink:href="#gF521D2AD9D8935BFD1E44A25085E033" x="235.401855469" y="0" fill="#8fa49d" fill-rule="nonzero"/><use xlink:href="#g965638C170A0CAB0AB8276BAFFF1DC71" x="245.63671875" y="0" fill="#8fa49d" fill-rule="nonzero"/><use xlink:href="#g392B755E8796EB227C3A1BF736866109" x="255.871582031" y="0" fill="#8fa49d" fill-rule="nonzero"/><use xlink:href="#g317B1107998FBE69BCFCA1A4DC88DCFF" x="276.341308594" y="0" fill="#8fa49d" fill-rule="nonzero"/><use xlink:href="#g97F362F3C5E072A6E72577BADF5DF516" x="286.576171875" y="0" fill="#8fa49d" fill-rule="nonzero"/><use xlink:href="#gAE3D8B94483776AC3C1E9571E5AAEF9D" x="296.811035156" y="0" fill="#8fa49d" fill-rule="nonzero"/><use xlink:href="#g9981AA481802ED2383E2EA741CC1D4B8" x="307.045898438" y="0" fill="#8fa49d" fill-rule="nonzero"/><use xlink:href="#gAA623C865F0C355B702BAEDCE3E876F6" x="317.280761719" y="0" fill="#8fa49d" fill-rule="nonzero"/><use xlink:href="#gEBD5690478F669BABE666D2D9FFB163D" x="327.515625" y="0" fill="#8fa49d" fill-rule="nonzero"/><use xlink:href="#g1C1D22176C6EE81E930502DE93833E64" x="337.750488281" y="0" fill="#8fa49d" fill-rule="nonzero"/><use xlink:href="#g608DBDD930E240D97265123A84117FA5" x="347.985351563" y="0" fill="#8fa49d" fill-rule="nonzero"/><use xlink:href="#gDEE6C3ED1DD79E627DC1A313A397DB87" x="358.220214844" y="0" fill="#8fa49d" fill-rule="nonzero"/><use xlink:href="#g392B755E8796EB227C3A1BF736866109" x="368.455078125" y="0" fill="#8fa49d" fill-rule="nonzero"/><use xlink:href="#g30BA1F537631CD2E6D6C37996CB79041" x="378.689941406" y="0" fill="#8fa49d" fill-rule="nonzero"/><use xlink:href="#g2E861A09477F59F375ECA4D889DAFBB6" x="388.924804688" y="0" fill="#8fa49d" fill-rule="nonzero"/></g></g><defs><symbol id="g290682C0358F22985358E828942BD110" overflow="visible"><path d="M 0 0m 5.3046875 5.461914063q 1.004882813 -0.266601563 1.538085938 -0.946777344q 0.533203125 -0.680175781 0.533203125 -1.698730469q 0 -1.408203125 -0.946777344 -2.211425781q -0.946777344 -0.803222656 -2.621582031 -0.803222656q -0.704101563 0 -1.435546875 0.129882813q -0.731445313 0.129882813 -1.435546875 0.375976563v 1.374023438q 0.697265625 -0.362304688 1.374023438 -0.540039063q 0.676757813 -0.177734375 1.346679688 -0.177734375q 1.134765625 0 1.743164063 0.512695313q 0.608398438 0.512695313 0.608398438 1.4765625q 0 0.888671875 -0.608398438 1.411621094q -0.608398438 0.522949219 -1.647460938 0.522949219h -1.052734375v 1.134765625h 1.052734375q 0.950195313 0 1.483398438 0.416992188q 0.533203125 0.416992188 0.533203125 1.162109375q 0 0.786132813 -0.495605469 1.206542969q -0.495605469 0.420410156 -1.411621094 0.420410156q -0.608398438 0 -1.2578125 -0.13671875q -0.649414063 -0.13671875 -1.360351563 -0.41015625v 1.271484375q 0.827148438 0.21875 1.473144531 0.328125q 0.645996094 0.109375 1.145019531 0.109375q 1.490234375 0 2.382324219 -0.748535156q 0.892089844 -0.748535156 0.892089844 -1.985839844q 0 -0.840820313 -0.468261719 -1.401367188q -0.468261719 -0.560546875 -1.363769531 -0.79296875Z "/></symbol><symbol id="g3E4573124205ACC198E9F459B510F564" overflow="visible"><path d="M 0 0m 6.077148438 10.206054688h 1.298828125l -5.373046875 -11.504882813h -1.305664063l 5.379882813 11.504882813Z "/></symbol><symbol id="gDB69EAF5B2019833F3A1F0B97FB4D4F0" overflow="visible"><path d="M 0 0m 6.423828125 9.153320313v -1.301269531q -0.583984375 0.374511719 -1.171142578 0.564941406q -0.587158203 0.190429688 -1.183837891 0.190429688q -0.907714844 0 -1.434570313 -0.422119141q -0.526855469 -0.422119141 -0.526855469 -1.139404297q 0 -0.628417969 0.345947266 -0.958496094q 0.345947266 -0.330078125 1.291748047 -0.552246094l 0.672851563 -0.15234375q 1.333007813 -0.311035156 1.942382813 -0.977539063q 0.609375 -0.666503906 0.609375 -1.815429688q 0 -1.352050781 -0.837890625 -2.062988281q -0.837890625 -0.7109375 -2.4375 -0.7109375q -0.666503906 0 -1.339355469 0.142822266q -0.672851563 0.142822266 -1.352050781 0.428466797v 1.364746094q 0.729980469 -0.463378906 1.380615234 -0.679199219q 0.650634766 -0.215820313 1.310791016 -0.215820313q 0.971191406 0 1.510742188 0.434814453q 0.539550781 0.434814453 0.539550781 1.215576172q 0 0.7109375 -0.371337891 1.085449219q -0.371337891 0.374511719 -1.291748047 0.577636719l -0.685546875 0.158691406q -1.3203125 0.298339844 -1.916992188 0.901367188q -0.596679688 0.603027344 -0.596679688 1.618652344q 0 1.26953125 0.853759766 2.034423828q 0.853759766 0.764892578 2.269287109 0.764892578q 0.545898438 0 1.148925781 -0.123779297q 0.603027344 -0.123779297 1.26953125 -0.371337891Z "/></symbol><symbol id="g8266A689B851DEF3E1736EDC378F4835" overflow="visible"><path d="M 0 0m 0.869628906 9.477050781h 1.288574219v -3.884765625h 3.510253906v 3.884765625h 1.288574219v -9.477050781h -1.288574219v 4.513183594h -3.510253906v -4.513183594h -1.288574219v 9.477050781Z "/></symbol><symbol id="gFA75D07040FC1628EF315D77C94AB259" overflow="visible"><path d="M 0 0m 1.275878906 9.477050781h 5.262207031v -1.079101563h -1.986816406v -7.318847656h 1.986816406v -1.079101563h -5.262207031v 1.079101563h 1.986816406v 7.318847656h -1.986816406v 1.079101563Z "/></symbol><symbol id="g5032CFCAE45184E06787003414B76DCC" overflow="visible"><path d="M 0 0m 2.532714844 8.423339844v -3.561035156h 1.485351563q 0.888671875 0 1.386962891 0.469726563q 0.498291016 0.469726563 0.498291016 1.313964844q 0 0.844238281 -0.495117188 1.310791016q -0.495117188 0.466552734 -1.390136719 0.466552734h -1.485351563Z m -1.282226563 1.053710938h 2.767578125q 1.586914063 0 2.405761719 -0.720458984q 0.818847656 -0.720458984 0.818847656 -2.110595703q 0 -1.402832031 -0.815673828 -2.120117188q -0.815673828 -0.717285156 -2.408935547 -0.717285156h -1.485351563v -3.80859375h -1.282226563v 9.477050781Z "/></symbol><symbol id="gBC5416D29E50877D61457B98B84FAAEF" overflow="visible"><path d="M 0 0m 0.298339844 9.477050781h 7.229980469v -1.079101563h -2.964355469v -8.397949219h -1.288574219v 8.397949219h -2.977050781v 1.079101563Z "/></symbol><symbol id="g7E9CAB0D000E4581B612A883DB15C79F" overflow="visible"><path d="M 0 0m 18.262 -0.46c 4.462 0 8.556 2.116 11.684 6.21c -0.23 0.414 -1.012 0.966 -1.518 0.966c -3.266 -3.588 -6.992 -4.784 -10.212 -4.784c -5.336 0 -9.568 6.256 -9.568 13.432c 0 7.13 3.68 13.018 9.154 13.018c 6.348 0 8.418 -3.588 9.614 -7.544c 0.552 -0.184 1.472 -0.046 1.978 0.23c -0.23 2.392 -0.598 4.6 -1.012 7.13c -2.346 0.23 -4.416 2.07 -10.074 2.07c -9.016 0 -16.606 -5.658 -16.606 -15.778c 0 -4.324 1.886 -9.384 5.566 -12.052c 2.944 -2.116 6.532 -2.898 10.994 -2.898Z "/></symbol><symbol id="g126CA79377F627F9633AB40BACDE84EE" overflow="visible"><path d="M 0 0m 1.702 9.522c 0 -6.026 4.784 -9.982 10.948 -9.982c 3.266 0 5.98 0.92 7.866 2.622c 2.346 2.07 3.128 5.198 3.128 7.774c 0 6.026 -4.094 10.488 -10.948 10.488c -3.818 0 -6.67 -1.334 -8.464 -3.404c -1.748 -2.024 -2.53 -4.784 -2.53 -7.498Z m 10.258 8.97c 3.128 0 5.244 -3.726 5.244 -10.028c 0 -5.52 -2.162 -6.992 -3.818 -6.992c -3.772 0 -5.244 5.658 -5.244 9.062c 0 4.232 0.736 7.958 3.818 7.958Z "/></symbol><symbol id="gA7A308064ACA2853E92DCA8809C95CDE" overflow="visible"><path d="M 0 0m 10.488 5.612v 9.154c 0 0.23 0 0.46 0 0.69c 1.794 1.104 3.404 1.564 4.186 1.564c 1.84 0 3.22 -0.828 3.22 -3.45v -7.682c 0 -3.864 -0.736 -4.278 -2.622 -4.416c -0.276 -0.276 -0.276 -1.288 0 -1.564c 1.932 0.046 3.404 0.092 5.612 0.092c 2.208 0 3.634 -0.046 5.612 -0.092c 0.276 0.276 0.276 1.288 0 1.564c -1.84 0.138 -2.622 0.552 -2.622 4.416v 7.176c 0 1.15 -0.046 2.07 -0.184 2.53c 1.748 0.874 3.726 1.426 4.462 1.426c 1.84 0 3.128 -0.828 3.128 -3.45v -7.682c 0 -3.864 -0.736 -4.278 -2.622 -4.416c -0.276 -0.276 -0.276 -1.288 0 -1.564c 1.932 0.046 3.404 0.092 5.612 0.092c 2.53 0 4.554 -0.046 6.532 -0.092c 0.276 0.276 0.276 1.288 0 1.564c -2.806 0.138 -3.542 0.552 -3.542 4.416v 7.176c 0 5.06 -1.84 7.36 -5.796 7.36c -1.702 0 -5.566 -1.84 -8.234 -3.312c -0.69 1.978 -2.53 3.312 -5.244 3.312c -1.656 0 -4.968 -1.748 -7.59 -3.22c -0.138 1.38 -0.276 2.438 -0.276 2.438c -0.046 0.552 -0.414 0.782 -1.058 0.782c -1.702 -0.46 -4.462 -1.104 -7.636 -1.518c -0.092 -0.276 0 -1.196 0.092 -1.472c 2.53 -0.23 2.99 -0.598 2.99 -3.22v -8.602c 0 -3.818 -0.506 -3.91 -3.312 -4.14c -0.276 -0.276 -0.276 -1.288 0 -1.564c 1.932 0.046 3.864 0.092 6.302 0.092c 2.116 0 3.404 -0.046 5.382 -0.092c 0.276 0.276 0.276 1.288 0 1.564c -1.932 0.184 -2.392 0.322 -2.392 4.14Z "/></symbol><symbol id="g9A78B35F029571C0C61AE2191D9AEEF6" overflow="visible"><path d="M 0 0m 4.37 14.214v -19.274c 0 -3.818 -0.506 -3.91 -3.312 -4.14c -0.276 -0.276 -0.276 -1.288 0 -1.564c 1.932 0.046 3.864 0.092 6.302 0.092c 2.438 0 4.324 -0.046 6.302 -0.092c 0.276 0.276 0.276 1.288 0 1.564c -2.806 0.184 -3.312 0.322 -3.312 4.14v 5.382c 1.012 -0.506 1.978 -0.782 3.082 -0.782c 6.992 0 11.546 4.6 11.546 11.362c 0 2.576 -0.966 5.428 -2.76 7.222c -1.61 1.61 -3.91 2.3 -6.302 2.3c -1.334 0 -3.818 -1.61 -5.428 -3.082h -0.276c -0.092 1.288 -0.23 2.3 -0.23 2.3c -0.046 0.552 -0.414 0.782 -1.058 0.782c -1.702 -0.46 -4.462 -1.104 -7.636 -1.518c -0.092 -0.276 0 -1.196 0.092 -1.472c 2.53 -0.23 2.99 -0.598 2.99 -3.22Z m 5.98 -11.224v 11.776c 0 0.276 0 0.506 0 0.782c 1.334 1.196 3.036 1.794 4.094 1.794c 1.886 0 4.094 -2.3 4.094 -7.682c 0 -3.864 -1.38 -8.188 -5.382 -8.188c -0.506 0 -1.656 0.276 -2.806 1.518Z "/></symbol><symbol id="gE6A572DBE3645EF799CFF1E62D22A09C" overflow="visible"><path d="M 0 0m 10.672 5.612v 9.154c 0 2.3 0.184 4.876 0.184 4.876c 0 0.506 -0.414 0.782 -1.058 0.782c -1.288 -0.506 -5.014 -0.874 -8.188 -1.288c -0.092 -0.276 0 -1.196 0.092 -1.472c 2.53 -0.23 2.99 -0.598 2.99 -3.22v -8.832c 0 -3.818 -0.506 -3.91 -3.312 -4.14c -0.276 -0.276 -0.276 -1.288 0 -1.564c 1.932 0.046 3.864 0.092 6.302 0.092c 2.438 0 4.324 -0.046 6.302 -0.092c 0.276 0.276 0.276 1.288 0 1.564c -2.806 0.184 -3.312 0.322 -3.312 4.14Z m -6.21 21.804c 0 -1.518 1.104 -3.036 2.944 -3.036c 2.07 0 3.266 1.656 3.266 2.852c 0 1.38 -1.058 3.036 -2.99 3.036c -2.162 0 -3.22 -1.472 -3.22 -2.852Z "/></symbol><symbol id="g9353C03DAFD0EB83D03224B226A6E0E7" overflow="visible"><path d="M 0 0m 4.6 5.842c 0 -3.818 -0.736 -4.232 -3.542 -4.37c -0.276 -0.276 -0.276 -1.288 0 -1.564c 1.932 0.046 4.002 0.092 6.532 0.092c 2.53 0 4.554 -0.046 6.532 -0.092c 0.276 0.276 0.276 1.288 0 1.564c -2.806 0.138 -3.542 0.552 -3.542 4.37v 20.976c 0 2.99 0.138 4.692 0.138 4.692c 0 0.414 -0.322 0.598 -0.736 0.598c -1.702 -0.552 -5.382 -1.058 -8.648 -1.196c -0.138 -0.552 -0.092 -1.058 0.138 -1.472c 2.898 -0.23 3.128 -0.276 3.128 -3.45Z "/></symbol><symbol id="g3BBFD09661BE85F80927BC19E0D16DD9" overflow="visible"><path d="M 0 0m 19.826 5.934c -1.886 -1.932 -4.37 -2.438 -6.118 -2.438c -3.588 0 -5.796 2.07 -5.796 6.578c 0 0.322 0.046 0.506 0.046 0.736h 11.04c 1.104 0 1.334 0.782 1.334 1.426c 0 3.91 -1.518 8.188 -8.28 8.188c -4.83 0 -10.35 -4.278 -10.35 -11.316c 0 -2.668 0.966 -5.474 2.944 -7.268c 1.748 -1.564 4.002 -2.3 7.268 -2.3c 3.174 0 6.302 1.61 8.602 4.968c 0 0.598 -0.23 1.426 -0.69 1.426Z m -11.684 6.716c 0.046 1.61 0.276 3.358 0.92 4.278c 0.736 1.104 1.978 1.564 2.484 1.564c 1.242 0 2.944 -1.196 2.944 -4.876c 0 -0.276 0 -0.874 -0.092 -0.966Z "/></symbol><symbol id="gAD87BE57394FFBDC44D7D205BA151394" overflow="visible"><path d="M 0 0m 13.57 2.254c 0.322 -1.886 1.564 -2.714 3.588 -2.714c 2.53 0 4.324 0.966 6.026 2.576c -0.092 0.552 -0.276 0.92 -0.828 1.288c -0.598 -0.46 -1.058 -0.644 -1.932 -0.644c -1.012 0 -1.288 0.828 -1.288 3.082l 0.092 6.624c 0 6.624 -4.094 7.958 -7.866 7.958c -3.358 0 -8.51 -1.932 -8.51 -4.968c 0 -1.288 0.552 -2.3 2.346 -2.3c 1.656 0 2.852 1.012 2.852 2.116c 0 0.23 -0.046 0.506 -0.092 0.782c -0.092 0.46 -0.184 0.92 -0.092 1.38c 0.046 0.506 0.414 1.058 1.932 1.058c 1.932 0 3.542 -0.828 3.542 -6.67l -3.082 -0.966c -4.83 -1.518 -8.234 -2.852 -8.234 -6.486c 0 -3.174 1.748 -4.83 5.75 -4.83c 1.334 0 4.002 1.472 5.52 2.668Z m -0.23 7.774v -6.072c -1.15 -0.92 -2.3 -1.656 -3.128 -1.656c -1.978 0 -2.668 1.334 -2.668 2.76c 0 1.702 0.138 3.128 3.404 4.186Z "/></symbol><symbol id="gA3899652C7E8930887A56DCAE7CE1530" overflow="visible"><path d="M 0 0m 10.488 5.612v 9.246c 1.84 1.242 3.68 2.162 4.508 2.162c 1.84 0 3.22 -0.828 3.22 -3.45v -7.682c 0 -3.864 -0.736 -4.278 -2.622 -4.416c -0.276 -0.276 -0.276 -1.288 0 -1.564c 1.932 0.046 3.404 0.092 5.612 0.092c 2.53 0 4.554 -0.046 6.532 -0.092c 0.276 0.276 0.276 1.288 0 1.564c -2.806 0.138 -3.542 0.552 -3.542 4.416v 7.176c 0 5.06 -2.162 7.36 -6.118 7.36c -1.84 0 -5.106 -2.024 -7.636 -3.772c -0.138 1.61 -0.322 2.99 -0.322 2.99c -0.046 0.552 -0.414 0.782 -1.058 0.782c -1.702 -0.46 -4.462 -1.104 -7.636 -1.518c -0.092 -0.276 0 -1.196 0.092 -1.472c 2.53 -0.23 2.99 -0.598 2.99 -3.22v -8.602c 0 -3.818 -0.506 -3.91 -3.312 -4.14c -0.276 -0.276 -0.276 -1.288 0 -1.564c 1.932 0.046 3.864 0.092 6.302 0.092c 2.116 0 3.404 -0.046 5.382 -0.092c 0.276 0.276 0.276 1.288 0 1.564c -1.932 0.184 -2.392 0.322 -2.392 4.14Z "/></symbol><symbol id="g1D13CA981FC4E0EFE9D1B9512B62C7E0" overflow="visible"><path d="M 0 0m 16.33 2.208c 0.092 -1.104 0.184 -1.886 0.184 -1.886c 0.046 -0.552 0.414 -0.782 1.058 -0.782c 1.702 0.46 4.462 1.104 7.636 1.518c 0.092 0.276 0 1.196 -0.092 1.472c -2.484 0.23 -2.99 0.966 -2.99 3.588v 20.7c 0 2.99 0.138 4.692 0.138 4.692c 0 0.414 -0.322 0.598 -0.736 0.598c -1.702 -0.552 -5.382 -1.058 -8.648 -1.196c -0.138 -0.552 -0.092 -1.15 0.138 -1.564c 2.898 -0.23 3.128 -0.276 3.128 -3.45v -5.98c -0.874 0.276 -1.978 0.506 -3.312 0.506c -5.934 0 -11.132 -5.198 -11.132 -11.316c 0 -2.714 0.966 -5.888 3.22 -7.636c 1.656 -1.288 2.806 -1.932 5.382 -1.932c 1.242 0 4.646 2.024 5.612 2.668Z m -0.138 2.162c -0.966 -0.782 -3.404 -1.794 -3.956 -1.794c -2.3 0 -4.094 2.576 -4.094 7.958c 0 2.438 0.276 4.554 1.15 5.98c 0.782 1.242 2.024 1.978 3.404 1.978c 1.196 0 2.346 -0.138 3.45 -1.656v -11.316c 0 -0.368 0 -0.782 0.046 -1.15Z "/></symbol><symbol id="gF4E998D3F1FF79CCC135A9EE42CDE047" overflow="visible"><path d="M 0 0m 2.208 6.716c 0.184 -2.254 0.414 -4.416 0.782 -6.164c 0.874 -0.276 3.818 -1.012 6.394 -1.012c 3.542 0 7.958 1.932 7.958 5.934c 0 1.564 -0.368 2.806 -1.426 3.956c -1.288 1.472 -3.22 2.622 -5.336 3.542c -1.84 0.782 -2.484 2.254 -2.484 3.588c 0 1.058 0.874 1.932 2.208 1.932c 1.61 0 3.174 -1.472 4.324 -4.278c 0.828 -0.138 1.334 -0.092 1.794 0.23c 0 1.656 -0.184 3.404 -0.598 4.876c -1.472 0.644 -2.622 1.104 -5.152 1.104c -2.438 0 -4.738 -0.92 -6.21 -2.392c -1.058 -1.058 -1.564 -2.346 -1.564 -3.588c 0 -1.38 0.552 -2.484 1.426 -3.45c 1.426 -1.564 3.956 -3.174 5.336 -3.818c 1.84 -0.828 2.346 -2.484 2.346 -3.588c 0 -1.472 -1.472 -2.254 -2.714 -2.254c -2.07 0 -4.278 2.116 -5.244 5.474c -0.736 0.138 -1.104 0.092 -1.84 -0.092Z "/></symbol><symbol id="g7280B28AEF7CEF5CAD4BE177D239D899" overflow="visible"><path d="M 0 0m 2.898 19.964c -0.644 0 -1.334 -0.184 -1.932 -0.69v -1.334c 0 -0.23 0.046 -0.276 0.23 -0.276h 2.99c -0.092 -4.646 -0.138 -10.534 -0.138 -12.834c 0 -1.61 0.414 -3.174 1.38 -4.002c 1.058 -0.874 2.714 -1.288 3.818 -1.288c 2.53 0 5.336 1.288 6.256 2.576c 0 0.552 -0.276 0.828 -0.828 1.288c -0.598 -0.46 -1.748 -0.644 -2.622 -0.644c -1.012 0 -2.024 0.782 -2.024 3.082c 0 2.3 -0.046 7.222 -0.046 11.822h 4.646c 0.46 0 1.104 0.184 1.104 0.598v 1.426c 0 0.184 -0.138 0.276 -0.368 0.276h -5.382l 0.046 1.564c 0.092 3.082 0.23 5.198 0.23 5.198c 0 0.276 -0.138 0.414 -0.368 0.414c -0.322 0 -2.024 -0.506 -2.76 -0.828c -0.782 -0.322 -2.116 -0.598 -2.438 -1.012c -0.322 -0.414 -0.506 -1.656 -0.506 -5.336Z "/></symbol><symbol id="g11CC97F4ACF337A3B20034B603A9470D" overflow="visible"><path d="M 0 0m 2.254 2.668c 0 -1.748 1.472 -3.128 3.312 -3.128c 1.84 0 3.404 1.472 3.404 3.22c 0 1.794 -1.472 3.174 -3.312 3.174c -1.84 0 -3.404 -1.472 -3.404 -3.266Z "/></symbol><symbol id="gF521D2AD9D8935BFD1E44A25085E033" overflow="visible"><path d="M 0 0m 5.096679688 11.936523438v -2.639648438h 3.469726563v -1.187011719h -3.469726563v -5.046875q 0 -1.029296875 0.390136719 -1.436035156q 0.390136719 -0.406738281 1.361328125 -0.406738281h 1.718261719v -1.220214844h -1.867675781q -1.718261719 0 -2.423828125 0.688964844q -0.705566406 0.688964844 -0.705566406 2.374023438v 5.046875h -2.481933594v 1.187011719h 2.481933594v 2.639648438h 1.52734375Z "/></symbol><symbol id="g965638C170A0CAB0AB8276BAFFF1DC71" overflow="visible"><path d="M 0 0m 7.122070313 2.98828125q -0.381835938 -0.971191406 -0.971191406 -2.556640625q -0.821777344 -2.19140625 -1.104003906 -2.672851563q -0.381835938 -0.647460938 -0.954589844 -0.971191406q -0.572753906 -0.323730469 -1.336425781 -0.323730469h -1.228515625v 1.278320313h 0.904785156q 0.672363281 0 1.054199219 0.390136719q 0.381835938 0.390136719 0.971191406 2.017089844l -3.594238281 9.147460938h 1.618652344l 2.755859375 -7.271484375l 2.714355469 7.271484375h 1.618652344l -2.448730469 -6.30859375Z "/></symbol><symbol id="g392B755E8796EB227C3A1BF736866109" overflow="visible"><path d="M 0 0m 3.112792969 1.170410156v -4.706542969h -1.535644531v 12.833007813h 1.535644531v -1.187011719q 0.381835938 0.688964844 1.016845703 1.050048828q 0.635009766 0.361083984 1.465087891 0.361083984q 1.685058594 0 2.643798828 -1.303222656q 0.958740234 -1.303222656 0.958740234 -3.610839844q 0 -2.266113281 -0.962890625 -3.556884766q -0.962890625 -1.290771484 -2.639648438 -1.290771484q -0.846679688 0 -1.481689453 0.361083984q -0.635009766 0.361083984 -1.000244141 1.050048828Z m 4.482421875 3.469726563q 0 1.776367188 -0.560302734 2.681152344q -0.560302734 0.904785156 -1.664306641 0.904785156q -1.112304688 0 -1.685058594 -0.908935547q -0.572753906 -0.908935547 -0.572753906 -2.677001953q 0 -1.759765625 0.572753906 -2.672851563q 0.572753906 -0.913085938 1.685058594 -0.913085938q 1.104003906 0 1.664306641 0.904785156q 0.560302734 0.904785156 0.560302734 2.681152344Z "/></symbol><symbol id="gEBD5690478F669BABE666D2D9FFB163D" overflow="visible"><path d="M 0 0m 8.076660156 8.973144531v -1.494140625q -0.655761719 0.381835938 -1.319824219 0.572753906q -0.6640625 0.190917969 -1.353027344 0.190917969q -1.037597656 0 -1.548095703 -0.336181641q -0.510498047 -0.336181641 -0.510498047 -1.025146484q 0 -0.622558594 0.381835938 -0.9296875q 0.381835938 -0.307128906 1.900878906 -0.59765625l 0.614257813 -0.116210938q 1.137207031 -0.215820313 1.722412109 -0.86328125q 0.585205078 -0.647460938 0.585205078 -1.685058594q 0 -1.377929688 -0.979492188 -2.154052734q -0.979492188 -0.776123047 -2.72265625 -0.776123047q -0.688964844 0 -1.444335938 0.145263672q -0.755371094 0.145263672 -1.635253906 0.435791016v 1.577148438q 0.854980469 -0.439941406 1.635253906 -0.659912109q 0.780273438 -0.219970703 1.477539063 -0.219970703q 1.012695313 0 1.568847656 0.410888672q 0.556152344 0.410888672 0.556152344 1.149658203q 0 1.0625 -2.033691406 1.469238281l -0.06640625 0.016601563l -0.572753906 0.116210938q -1.319824219 0.257324219 -1.92578125 0.867431641q -0.605957031 0.610107422 -0.605957031 1.664306641q 0 1.336425781 0.904785156 2.062744141q 0.904785156 0.726318359 2.581542969 0.726318359q 0.747070313 0 1.436035156 -0.136962891q 0.688964844 -0.136962891 1.353027344 -0.410888672Z "/></symbol><symbol id="g317B1107998FBE69BCFCA1A4DC88DCFF" overflow="visible"><path d="M 0 0m 8.807128906 0.473144531q -0.614257813 -0.356933594 -1.265869141 -0.535400391q -0.651611328 -0.178466797 -1.332275391 -0.178466797q -2.158203125 0 -3.374267578 1.294921875q -1.216064453 1.294921875 -1.216064453 3.5859375q 0 2.291015625 1.216064453 3.5859375q 1.216064453 1.294921875 3.374267578 1.294921875q 0.672363281 0 1.311523438 -0.174316406q 0.639160156 -0.174316406 1.286621094 -0.539550781v -1.602050781q -0.605957031 0.539550781 -1.216064453 0.780273438q -0.610107422 0.240722656 -1.382080078 0.240722656q -1.436035156 0 -2.208007813 -0.9296875q -0.771972656 -0.9296875 -0.771972656 -2.65625q 0 -1.718261719 0.776123047 -2.652099609q 0.776123047 -0.933837891 2.203857422 -0.933837891q 0.796875 0 1.427734375 0.244873047q 0.630859375 0.244873047 1.170410156 0.759521484v -1.585449219Z "/></symbol><symbol id="g9981AA481802ED2383E2EA741CC1D4B8" overflow="visible"><path d="M 0 0m 5.11328125 8.226074219q -1.162109375 0 -1.759765625 -0.904785156q -0.59765625 -0.904785156 -0.59765625 -2.681152344q 0 -1.768066406 0.59765625 -2.677001953q 0.59765625 -0.908935547 1.759765625 -0.908935547q 1.170410156 0 1.768066406 0.908935547q 0.59765625 0.908935547 0.59765625 2.677001953q 0 1.776367188 -0.59765625 2.681152344q -0.59765625 0.904785156 -1.768066406 0.904785156Z m 0 1.294921875q 1.934082031 0 2.959228516 -1.253417969q 1.025146484 -1.253417969 1.025146484 -3.627441406q 0 -2.382324219 -1.020996094 -3.631591797q -1.020996094 -1.249267578 -2.963378906 -1.249267578q -1.934082031 0 -2.955078125 1.249267578q -1.020996094 1.249267578 -1.020996094 3.631591797q 0 2.374023438 1.020996094 3.627441406q 1.020996094 1.253417969 2.955078125 1.253417969Z "/></symbol><symbol id="g8A8D69B84EE455084ED438018A6A1329" overflow="visible"><path d="M 0 0m 5.611328125 8.350585938q 0.282226563 0.59765625 0.718017578 0.884033203q 0.435791016 0.286376953 1.050048828 0.286376953q 1.120605469 0 1.581298828 -0.867431641q 0.460693359 -0.867431641 0.460693359 -3.266357422v -5.387207031h -1.39453125v 5.320800781q 0 1.967285156 -0.219970703 2.444580078q -0.219970703 0.477294922 -0.801025391 0.477294922q -0.6640625 0 -0.908935547 -0.510498047q -0.244873047 -0.510498047 -0.244873047 -2.411376953v -5.320800781h -1.39453125v 5.320800781q 0 1.9921875 -0.236572266 2.45703125q -0.236572266 0.46484375 -0.850830078 0.46484375q -0.605957031 0 -0.842529297 -0.510498047q -0.236572266 -0.510498047 -0.236572266 -2.411376953v -5.320800781h -1.386230469v 9.296875h 1.386230469v -0.796875q 0.273925781 0.498046875 0.684814453 0.759521484q 0.410888672 0.261474609 0.933837891 0.261474609q 0.630859375 0 1.050048828 -0.290527344q 0.419189453 -0.290527344 0.651611328 -0.879882813Z "/></symbol><symbol id="g8A2EF29887DB5E165B370F972EDEE221" overflow="visible"><path d="M 0 0m 2.125 9.296875h 3.909667969v -8.109863281h 3.029785156v -1.187011719h -7.586914063v 1.187011719h 3.029785156v 6.922851563h -2.382324219v 1.187011719Z m 2.382324219 3.619140625h 1.52734375v -1.934082031h -1.52734375v 1.934082031Z "/></symbol><symbol id="g608DBDD930E240D97265123A84117FA5" overflow="visible"><path d="M 0 0m 5.304199219 3.370117188q 0 -1.029296875 0.377685547 -1.552246094q 0.377685547 -0.522949219 1.116455078 -0.522949219h 1.784667969v -1.294921875h -1.934082031q -1.369628906 0 -2.120849609 0.879882813q -0.751220703 0.879882813 -0.751220703 2.490234375v 8.441894531h -2.448730469v 1.1953125h 3.976074219v -9.637207031Z "/></symbol><symbol id="g1C1D22176C6EE81E930502DE93833E64" overflow="visible"><path d="M 0 0m 9.23046875 5.030273438v -0.747070313h -6.615722656v -0.049804688q 0 -1.519042969 0.792724609 -2.349121094q 0.792724609 -0.830078125 2.237060547 -0.830078125q 0.73046875 0 1.52734375 0.232421875q 0.796875 0.232421875 1.701660156 0.705566406v -1.519042969q -0.871582031 -0.356933594 -1.680908203 -0.535400391q -0.809326172 -0.178466797 -1.564697266 -0.178466797q -2.166503906 0 -3.38671875 1.299072266q -1.220214844 1.299072266 -1.220214844 3.581787109q 0 2.224609375 1.1953125 3.552734375q 1.1953125 1.328125 3.1875 1.328125q 1.776367188 0 2.801513672 -1.203613281q 1.025146484 -1.203613281 1.025146484 -3.287109375Z m -1.52734375 0.448242188q -0.033203125 1.344726563 -0.635009766 2.046142578q -0.601806641 0.701416016 -1.730712891 0.701416016q -1.104003906 0 -1.817871094 -0.73046875q -0.713867188 -0.73046875 -0.846679688 -2.025390625l 5.030273438 0.008300781Z "/></symbol><symbol id="g97F362F3C5E072A6E72577BADF5DF516" overflow="visible"><path d="M 0 0m 5.827148438 4.673339844h -0.506347656q -1.336425781 0 -2.012939453 -0.468994141q -0.676513672 -0.468994141 -0.676513672 -1.398681641q 0 -0.838378906 0.506347656 -1.303222656q 0.506347656 -0.46484375 1.402832031 -0.46484375q 1.26171875 0 1.983886719 0.875732422q 0.722167969 0.875732422 0.73046875 2.419677734v 0.340332031h -1.427734375Z m 2.963378906 0.630859375v -5.304199219h -1.535644531v 1.377929688q -0.489746094 -0.830078125 -1.232666016 -1.224365234q -0.742919922 -0.394287109 -1.805419922 -0.394287109q -1.419433594 0 -2.266113281 0.801025391q -0.846679688 0.801025391 -0.846679688 2.145751953q 0 1.552246094 1.041748047 2.357421875q 1.041748047 0.805175781 3.058837891 0.805175781h 2.050292969v 0.240722656q -0.008300781 1.112304688 -0.564453125 1.614501953q -0.556152344 0.502197266 -1.776367188 0.502197266q -0.780273438 0 -1.577148438 -0.224121094q -0.796875 -0.224121094 -1.552246094 -0.655761719v 1.52734375q 0.846679688 0.323730469 1.622802734 0.485595703q 0.776123047 0.161865234 1.506591797 0.161865234q 1.153808594 0 1.971435547 -0.340332031q 0.817626953 -0.340332031 1.323974609 -1.020996094q 0.315429688 -0.415039063 0.448242188 -1.025146484q 0.1328125 -0.610107422 0.1328125 -1.830322266Z "/></symbol><symbol id="gAE3D8B94483776AC3C1E9571E5AAEF9D" overflow="visible"><path d="M 0 0m 9.587402344 7.379394531q -0.489746094 0.381835938 -0.99609375 0.556152344q -0.506347656 0.174316406 -1.112304688 0.174316406q -1.427734375 0 -2.183105469 -0.896484375q -0.755371094 -0.896484375 -0.755371094 -2.58984375v -4.623535156h -1.535644531v 9.296875h 1.535644531v -1.817871094q 0.381835938 0.987792969 1.174560547 1.514892578q 0.792724609 0.527099609 1.880126953 0.527099609q 0.564453125 0 1.054199219 -0.141113281q 0.489746094 -0.141113281 0.937988281 -0.439941406v -1.560546875Z "/></symbol><symbol id="gAA623C865F0C355B702BAEDCE3E876F6" overflow="visible"><path d="M 0 0m 1.618652344 3.51953125v 5.760742188h 1.52734375v -5.760742188q 0 -1.253417969 0.444091797 -1.842773438q 0.444091797 -0.589355469 1.373779297 -0.589355469q 1.079101563 0 1.651855469 0.759521484q 0.572753906 0.759521484 0.572753906 2.178955078v 5.254394531h 1.535644531v -9.280273438h -1.535644531v 1.39453125q -0.406738281 -0.805175781 -1.108154297 -1.220214844q -0.701416016 -0.415039063 -1.639404297 -0.415039063q -1.427734375 0 -2.125 0.933837891q -0.697265625 0.933837891 -0.697265625 2.826416016Z "/></symbol><symbol id="gDEE6C3ED1DD79E627DC1A313A397DB87" overflow="visible"><path d="M 0 0m 4.059082031 2.531738281h 2.091796875v -2.531738281h -2.091796875v 2.531738281Z "/></symbol><symbol id="g30BA1F537631CD2E6D6C37996CB79041" overflow="visible"><path d="M 0 0m 7.122070313 8.109863281v 4.806152344h 1.52734375v -12.916015625h -1.52734375v 1.170410156q -0.381835938 -0.688964844 -1.016845703 -1.050048828q -0.635009766 -0.361083984 -1.465087891 -0.361083984q -1.685058594 0 -2.652099609 1.307373047q -0.967041016 1.307373047 -0.967041016 3.606689453q 0 2.266113281 0.971191406 3.556884766q 0.971191406 1.290771484 2.647949219 1.290771484q 0.838378906 0 1.477539063 -0.361083984q 0.639160156 -0.361083984 1.004394531 -1.050048828Z m -4.490722656 -3.469726563q 0 -1.776367188 0.564453125 -2.681152344q 0.564453125 -0.904785156 1.668457031 -0.904785156q 1.104003906 0 1.680908203 0.913085938q 0.576904297 0.913085938 0.576904297 2.672851563q 0 1.768066406 -0.576904297 2.677001953q -0.576904297 0.908935547 -1.680908203 0.908935547q -1.104003906 0 -1.668457031 -0.904785156q -0.564453125 -0.904785156 -0.564453125 -2.681152344Z "/></symbol><symbol id="g2E861A09477F59F375ECA4D889DAFBB6" overflow="visible"><path d="M 0 0m 8.823730469 12.916015625v -1.270019531h -1.734863281q -0.821777344 0 -1.141357422 -0.336181641q -0.319580078 -0.336181641 -0.319580078 -1.191162109v -0.821777344h 3.195800781v -1.187011719h -3.195800781v -8.109863281h -1.52734375v 8.109863281h -2.481933594v 1.187011719h 2.481933594v 0.647460938q 0 1.52734375 0.701416016 2.249511719q 0.701416016 0.722167969 2.187255859 0.722167969h 1.834472656Z "/></symbol></defs></svg>