<svg viewBox="0 0 595.275590551 595.275590551" width="595.275590551pt" height="595.275590551pt" xmlns="http://www.w3.org/2000/svg" xmlns:xlink="http://www.w3.org/1999/xlink" xmlns:h5="http://www.w3.org/1999/xhtml"><path fill="#f4f6f5" fill-rule="nonzero" d="M 0 0v 595.275590551h 595.275590551v -595.275590551Z "/><path fill="#1f9d72" fill-rule="nonzero" d="M 0 0v 595.275590551h 15.590551181v -595.275590551Z "/><g><g transform="translate(73.700787402 48.188976378)"><path fill="none" stroke="#5a6b66" stroke-width="1" stroke-linecap="butt" stroke-linejoin="miter" stroke-miterlimit="4" stroke-dashoffset="0" stroke-dasharray="3 3" d="M 0 0m 7.5 0h 458.385826772c 4.142135624 0 7.5 3.357864376 7.5 7.5v 483.897637795c 0 4.142135624 -3.357864376 7.5 -7.5 7.5h -458.385826772c -4.142135624 0 -7.5 -3.357864376 -7.5 -7.5v -483.897637795c 0 -4.142135624 3.357864376 -7.5 7.5 -7.5"/><g transform="matrix(1 0 0 -1 156.62015948 256.666592335)"><use xlink:href="#g51CE801F6BBF207609B4D0478C1E3173" x="0" y="0" fill="#5a6b66" fill-rule="nonzero"/><use xlink:href="#g9AC0C4612D5CD3163555A4AD3B31555A" x="11.438964844" y="0" fill="#5a6b66" fill-rule="nonzero"/><use xlink:href="#gC253326435758EE995563B30CEDFE010" x="22.877929688" y="0" fill="#5a6b66" fill-rule="nonzero"/><use xlink:href="#g949057E5F07BBAEE939AB7BEE21BC029" x="34.316894531" y="0" fill="#5a6b66" fill-rule="nonzero"/><use xlink:href="#g7E2D5A2EF59E9D6AD739F78F03D38781" x="57.194824219" y="0" fill="#5a6b66" fill-rule="nonzero"/><use xlink:href="#g9AC0C4612D5CD3163555A4AD3B31555A" x="68.633789063" y="0" fill="#5a6b66" fill-rule="nonzero"/><use xlink:href="#g9E9E52AA21D6BF061C8034463FDFA022" x="80.072753906" y="0" fill="#5a6b66" fill-rule="nonzero"/><use xlink:href="#g29CEA21B1BB70E6A7DCAC75B26306E70" x="91.51171875" y="0" fill="#5a6b66" fill-rule="nonzero"/><use xlink:href="#g4F1748F9D9EE805AB1797157461CE756" x="114.389648438" y="0" fill="#5a6b66" fill-rule="nonzero"/><use xlink:href="#g9E9E52AA21D6BF061C8034463FDFA022" x="125.828613281" y="0" fill="#5a6b66" fill-rule="nonzero"/><use xlink:href="#g706928A8E519F8D8710BCAE61F3BDF9F" x="137.267578125" y="0" fill="#5a6b66" fill-rule="nonzero"/><use xlink:href="#g9E9E52AA21D6BF061C8034463FDFA022" x="148.706542969" y="0" fill="#5a6b66" fill-rule="nonzero"/></g></g></g><defs><symbol id="g51CE801F6BBF207609B4D0478C1E3173" overflow="visible"><path d="M 0 0m 8.516601563 5.186035156q 0 1.985351563 -0.630859375 2.996582031q -0.630859375 1.011230469 -1.864746094 1.011230469q -1.243164063 0 -1.883300781 -1.015869141q -0.640136719 -1.015869141 -0.640136719 -2.991943359q 0 -1.966796875 0.640136719 -2.987304688q 0.640136719 -1.020507813 1.883300781 -1.020507813q 1.233886719 0 1.864746094 1.011230469q 0.630859375 1.011230469 0.630859375 2.996582031Z m -5.019042969 3.877929688q 0.408203125 0.760742188 1.127197266 1.168945313q 0.718994141 0.408203125 1.665283203 0.408203125q 1.874023438 0 2.950195313 -1.442626953q 1.076171875 -1.442626953 1.076171875 -3.975341797q 0 -2.569824219 -1.080810547 -4.031005859q -1.080810547 -1.461181641 -2.964111328 -1.461181641q -0.927734375 0 -1.637451172 0.403564453q -0.709716797 0.403564453 -1.136474609 1.173583984v -1.308105469h -1.70703125v 14.435546875h 1.70703125v -5.371582031Z "/></symbol><symbol id="g9AC0C4612D5CD3163555A4AD3B31555A" overflow="visible"><path d="M 0 0m 5.71484375 9.193847656q -1.298828125 0 -1.966796875 -1.011230469q -0.66796875 -1.011230469 -0.66796875 -2.996582031q 0 -1.976074219 0.66796875 -2.991943359q 0.66796875 -1.015869141 1.966796875 -1.015869141q 1.308105469 0 1.976074219 1.015869141q 0.66796875 1.015869141 0.66796875 2.991943359q 0 1.985351563 -0.66796875 2.996582031q -0.66796875 1.011230469 -1.976074219 1.011230469Z m 0 1.447265625q 2.161621094 0 3.307373047 -1.400878906q 1.145751953 -1.400878906 1.145751953 -4.054199219q 0 -2.662597656 -1.141113281 -4.058837891q -1.141113281 -1.396240234 -3.312011719 -1.396240234q -2.161621094 0 -3.302734375 1.396240234q -1.141113281 1.396240234 -1.141113281 4.058837891q 0 2.653320313 1.141113281 4.054199219q 1.141113281 1.400878906 3.302734375 1.400878906Z "/></symbol><symbol id="gC253326435758EE995563B30CEDFE010" overflow="visible"><path d="M 0 0m 7.959960938 9.063964844v 5.371582031h 1.70703125v -14.435546875h -1.70703125v 1.308105469q -0.426757813 -0.770019531 -1.136474609 -1.173583984q -0.709716797 -0.403564453 -1.637451172 -0.403564453q -1.883300781 0 -2.964111328 1.461181641q -1.080810547 1.461181641 -1.080810547 4.031005859q 0 2.532714844 1.085449219 3.975341797q 1.085449219 1.442626953 2.959472656 1.442626953q 0.937011719 0 1.651367188 -0.403564453q 0.714355469 -0.403564453 1.122558594 -1.173583984Z m -5.019042969 -3.877929688q 0 -1.985351563 0.630859375 -2.996582031q 0.630859375 -1.011230469 1.864746094 -1.011230469q 1.233886719 0 1.878662109 1.020507813q 0.644775391 1.020507813 0.644775391 2.987304688q 0 1.976074219 -0.644775391 2.991943359q -0.644775391 1.015869141 -1.878662109 1.015869141q -1.233886719 0 -1.864746094 -1.011230469q -0.630859375 -1.011230469 -0.630859375 -2.996582031Z "/></symbol><symbol id="g949057E5F07BBAEE939AB7BEE21BC029" overflow="visible"><path d="M 0 0m 7.959960938 3.33984375q -0.426757813 -1.085449219 -1.085449219 -2.857421875q -0.918457031 -2.44921875 -1.233886719 -2.987304688q -0.426757813 -0.723632813 -1.066894531 -1.085449219q -0.640136719 -0.361816406 -1.493652344 -0.361816406h -1.373046875v 1.428710938h 1.011230469q 0.751464844 0 1.178222656 0.436035156q 0.426757813 0.436035156 1.085449219 2.254394531l -4.017089844 10.223632813h 1.809082031l 3.080078125 -8.126953125l 3.033691406 8.126953125h 1.809082031l -2.736816406 -7.05078125Z "/></symbol><symbol id="g7E2D5A2EF59E9D6AD739F78F03D38781" overflow="visible"><path d="M 0 0m 7.959960938 5.278808594q 0 1.920410156 -0.626220703 2.917724609q -0.626220703 0.997314453 -1.822998047 0.997314453q -1.252441406 0 -1.911132813 -0.997314453q -0.658691406 -0.997314453 -0.658691406 -2.917724609q 0 -1.920410156 0.663330078 -2.927001953q 0.663330078 -1.006591797 1.925048828 -1.006591797q 1.178222656 0 1.804443359 1.011230469q 0.626220703 1.011230469 0.626220703 2.922363281Z m 1.70703125 -4.610839844q 0 -2.337890625 -1.104003906 -3.543945313q -1.104003906 -1.206054688 -3.247070313 -1.206054688q -0.705078125 0 -1.475097656 0.129882813q -0.770019531 0.129882813 -1.540039063 0.380371094v 1.688476563q 0.909179688 -0.426757813 1.651367188 -0.630859375q 0.7421875 -0.204101563 1.363769531 -0.204101563q 1.382324219 0 2.013183594 0.751464844q 0.630859375 0.751464844 0.630859375 2.384277344v 0.07421875v 1.159667969q -0.408203125 -0.872070313 -1.11328125 -1.298828125q -0.705078125 -0.426757813 -1.716308594 -0.426757813q -1.818359375 0 -2.903808594 1.456542969q -1.085449219 1.456542969 -1.085449219 3.896484375q 0 2.44921875 1.085449219 3.905761719q 1.085449219 1.456542969 2.903808594 1.456542969q 1.001953125 0 1.697753906 -0.398925781q 0.695800781 -0.398925781 1.131835938 -1.233886719v 1.345214844h 1.70703125v -9.685546875Z "/></symbol><symbol id="g9E9E52AA21D6BF061C8034463FDFA022" overflow="visible"><path d="M 0 0m 10.31640625 5.622070313v -0.834960938h -7.394042969v -0.055664063q 0 -1.697753906 0.885986328 -2.625488281q 0.885986328 -0.927734375 2.500244141 -0.927734375q 0.81640625 0 1.70703125 0.259765625q 0.890625 0.259765625 1.901855469 0.788574219v -1.697753906q -0.974121094 -0.398925781 -1.878662109 -0.598388672q -0.904541016 -0.199462891 -1.748779297 -0.199462891q -2.421386719 0 -3.78515625 1.451904297q -1.363769531 1.451904297 -1.363769531 4.003173828q 0 2.486328125 1.3359375 3.970703125q 1.3359375 1.484375 3.5625 1.484375q 1.985351563 0 3.131103516 -1.345214844q 1.145751953 -1.345214844 1.145751953 -3.673828125Z m -1.70703125 0.500976563q -0.037109375 1.502929688 -0.709716797 2.286865234q -0.672607422 0.783935547 -1.934326172 0.783935547q -1.233886719 0 -2.031738281 -0.81640625q -0.797851563 -0.81640625 -0.946289063 -2.263671875l 5.622070313 0.009277344Z "/></symbol><symbol id="g29CEA21B1BB70E6A7DCAC75B26306E70" overflow="visible"><path d="M 0 0m 9.026855469 10.028808594v -1.669921875q -0.732910156 0.426757813 -1.475097656 0.640136719q -0.7421875 0.213378906 -1.512207031 0.213378906q -1.159667969 0 -1.730224609 -0.375732422q -0.570556641 -0.375732422 -0.570556641 -1.145751953q 0 -0.695800781 0.426757813 -1.0390625q 0.426757813 -0.343261719 2.124511719 -0.66796875l 0.686523438 -0.129882813q 1.270996094 -0.241210938 1.925048828 -0.96484375q 0.654052734 -0.723632813 0.654052734 -1.883300781q 0 -1.540039063 -1.094726563 -2.407470703q -1.094726563 -0.867431641 -3.04296875 -0.867431641q -0.770019531 0 -1.614257813 0.162353516q -0.844238281 0.162353516 -1.827636719 0.487060547v 1.762695313q 0.955566406 -0.491699219 1.827636719 -0.737548828q 0.872070313 -0.245849609 1.651367188 -0.245849609q 1.131835938 0 1.753417969 0.459228516q 0.621582031 0.459228516 0.621582031 1.284912109q 0 1.1875 -2.272949219 1.642089844l -0.07421875 0.018554688l -0.640136719 0.129882813q -1.475097656 0.287597656 -2.15234375 0.969482422q -0.677246094 0.681884766 -0.677246094 1.860107422q 0 1.493652344 1.011230469 2.305419922q 1.011230469 0.811767578 2.885253906 0.811767578q 0.834960938 0 1.604980469 -0.153076172q 0.770019531 -0.153076172 1.512207031 -0.459228516Z "/></symbol><symbol id="g4F1748F9D9EE805AB1797157461CE756" overflow="visible"><path d="M 0 0m 9.750488281 6.438476563v -6.438476563h -1.716308594v 6.438476563q 0 1.400878906 -0.491699219 2.059570313q -0.491699219 0.658691406 -1.540039063 0.658691406q -1.196777344 0 -1.841552734 -0.848876953q -0.644775391 -0.848876953 -0.644775391 -2.435302734v -5.872558594h -1.70703125v 14.435546875h 1.70703125v -5.603515625q 0.454589844 0.890625 1.233886719 1.349853516q 0.779296875 0.459228516 1.846191406 0.459228516q 1.586425781 0 2.370361328 -1.043701172q 0.783935547 -1.043701172 0.783935547 -3.158935547Z "/></symbol><symbol id="g706928A8E519F8D8710BCAE61F3BDF9F" overflow="visible"><path d="M 0 0m 10.715332031 8.247558594q -0.547363281 0.426757813 -1.11328125 0.621582031q -0.565917969 0.194824219 -1.243164063 0.194824219q -1.595703125 0 -2.439941406 -1.001953125q -0.844238281 -1.001953125 -0.844238281 -2.89453125v -5.167480469h -1.716308594v 10.390625h 1.716308594v -2.031738281q 0.426757813 1.104003906 1.312744141 1.693115234q 0.885986328 0.589111328 2.101318359 0.589111328q 0.630859375 0 1.178222656 -0.157714844q 0.547363281 -0.157714844 1.048339844 -0.491699219v -1.744140625Z "/></symbol></defs></svg>