<svg viewBox="0 0 368.503937008 31.181102362" width="368.503937008pt" height="31.181102362pt" xmlns="http://www.w3.org/2000/svg" xmlns:xlink="http://www.w3.org/1999/xlink" xmlns:h5="http://www.w3.org/1999/xhtml"><path fill="#1a1a1a" fill-rule="nonzero" d="M 0 0v 31.181102362h 368.503937008v -31.181102362Z "/><path fill="oklab(29.299% -0.00004 0.00013)" fill-rule="nonzero" transform="translate(5.5 5.5)" d="M 0 0m 0 2.75c 0 -1.518783062 1.231216938 -2.75 2.75 -2.75h 47.362587402c 1.518783062 0 2.75 1.231216938 2.75 2.75v 13.3625c 0 1.518783062 -1.231216938 2.75 -2.75 2.75h -47.362587402c -1.518783062 0 -2.75 -1.231216938 -2.75 -2.75Z "/><path fill="none" stroke="oklab(36.82% -0.00007 0.00025)" stroke-width="0.5" stroke-linecap="butt" stroke-linejoin="miter" stroke-miterlimit="4" transform="translate(5.5 5.5)" d="M 0 0m 2.75 0h 47.362587402c 1.518783062 0 2.75 1.231216938 2.75 2.75v 13.3625c 0 1.518783062 -1.231216938 2.75 -2.75 2.75h -47.362587402c -1.518783062 0 -2.75 -1.231216938 -2.75 -2.75v -13.3625c 0 -1.518783062 1.231216938 -2.75 2.75 -2.75"/><g transform="matrix(1 0 0 -1 14.592231201 17.3625)"><use xlink:href="#g456AD937DC2937D08C65447A730E726D" x="0" y="0" fill="#f5f5f4" fill-rule="nonzero"/><use xlink:href="#gE09A3ADFCF530C436E55FAE05BBD0471" x="3.853125" y="0" fill="#f5f5f4" fill-rule="nonzero"/><use xlink:href="#gC060D7A872A16415F276D43220F650FC" x="7.70625" y="0" fill="#f5f5f4" fill-rule="nonzero"/><use xlink:href="#g18031212F8FCB97E3C804DB611CC05D6" x="11.559375" y="0" fill="#f5f5f4" fill-rule="nonzero"/><use xlink:href="#g7ED2802AFD988B570858B1204B64271E" x="15.4125" y="0" fill="#f5f5f4" fill-rule="nonzero"/><use xlink:href="#g291536C80F8DE3CED9990CFCEEC20614" x="19.265625" y="0" fill="#f5f5f4" fill-rule="nonzero"/><use xlink:href="#g9B2CE83B5F5DB8910E1A461B0DA99D75" x="23.11875" y="0" fill="#f5f5f4" fill-rule="nonzero"/><use xlink:href="#g318CA96B802C13F1E46A006D1B79899A" x="26.971875" y="0" fill="#f5f5f4" fill-rule="nonzero"/><use xlink:href="#gE37A466C69F390038433D14A813F9645" x="30.825" y="0" fill="#f5f5f4" fill-rule="nonzero"/></g><g transform="matrix(1 0 0 -1 62.362587402 12.62175)"><use xlink:href="#g654468A4D354BB73DD45BC5191C1B38D" x="0" y="0" fill="oklab(70.664% -0.00024 0.00083)" fill-rule="nonzero"/><use xlink:href="#gCA4ADCABFC6717E79EA2B587E84AACB3" x="4.8555" y="0" fill="oklab(70.664% -0.00024 0.00083)" fill-rule="nonzero"/><use xlink:href="#g51CA2F722BFDE47BCF9687985FAB26C4" x="7.2735" y="0" fill="oklab(70.664% -0.00024 0.00083)" fill-rule="nonzero"/><use xlink:href="#g4C618A5D2B8FBBFC82B7C933A53FA6E4" x="9.035" y="0" fill="oklab(70.664% -0.00024 0.00083)" fill-rule="nonzero"/><use xlink:href="#gBDDACCF8F25298B1E06BF69EE432EE70" x="11.089" y="0" fill="oklab(70.664% -0.00024 0.00083)" fill-rule="nonzero"/><use xlink:href="#g4C2F62F67F1A965BBE392C7CDE99EB6E" x="13.9945" y="0" fill="oklab(70.664% -0.00024 0.00083)" fill-rule="nonzero"/></g><g transform="matrix(1 0 0 -1 63.847337402 21.51775)"><use xlink:href="#gEBE5D1AA7FD1D58A6569B852BABE7169" x="0" y="0" fill="oklab(70.664% -0.00024 0.00083)" fill-rule="nonzero"/></g><path fill="oklab(27.12% 0.01566 0.01411)" fill-rule="nonzero" transform="translate(82.892087402 5.5)" d="M 0 0m 0 2.6c 0 -1.43594035 1.16405965 -2.6 2.6 -2.6h 47.662587402c 1.43594035 0 2.6 1.16405965 2.6 2.6v 13.6625c 0 1.43594035 -1.16405965 2.6 -2.6 2.6h -47.662587402c -1.43594035 0 -2.6 -1.16405965 -2.6 -2.6Z "/><path fill="none" stroke="oklab(44.035% 0.06524 0.05878)" stroke-width="0.8" stroke-linecap="butt" stroke-linejoin="miter" stroke-miterlimit="4" transform="translate(82.892087402 5.5)" d="M 0 0m 2.6 0h 47.662587402c 1.43594035 0 2.6 1.16405965 2.6 2.6v 13.6625c 0 1.43594035 -1.16405965 2.6 -2.6 2.6h -47.662587402c -1.43594035 0 -2.6 -1.16405965 -2.6 -2.6v -13.6625c 0 -1.43594035 1.16405965 -2.6 2.6 -2.6"/><g transform="matrix(1 0 0 -1 95.837443602 17.3625)"><use xlink:href="#gC060D7A872A16415F276D43220F650FC" x="0" y="0" fill="oklab(80.104% 0.07159 0.06523)" fill-rule="nonzero"/><use xlink:href="#g8C4581C590787D48AD0BDE8F0B17B121" x="3.853125" y="0" fill="oklab(80.104% 0.07159 0.06523)" fill-rule="nonzero"/><use xlink:href="#gE37A466C69F390038433D14A813F9645" x="7.70625" y="0" fill="oklab(80.104% 0.07159 0.06523)" fill-rule="nonzero"/><use xlink:href="#g8C4581C590787D48AD0BDE8F0B17B121" x="11.559375" y="0" fill="oklab(80.104% 0.07159 0.06523)" fill-rule="nonzero"/><use xlink:href="#gA7ECCC49EB6CA2B1B6D2E75A650F2943" x="15.4125" y="0" fill="oklab(80.104% 0.07159 0.06523)" fill-rule="nonzero"/><use xlink:href="#g751F7809C88759A27B07296714DEE3CC" x="19.265625" y="0" fill="oklab(80.104% 0.07159 0.06523)" fill-rule="nonzero"/><use xlink:href="#gE37A466C69F390038433D14A813F9645" x="23.11875" y="0" fill="oklab(80.104% 0.07159 0.06523)" fill-rule="nonzero"/></g><g transform="matrix(1 0 0 -1 139.754674803 12.62175)"><use xlink:href="#gCA4ADCABFC6717E79EA2B587E84AACB3" x="0" y="0" fill="oklab(70.664% -0.00024 0.00083)" fill-rule="nonzero"/><use xlink:href="#gBDDACCF8F25298B1E06BF69EE432EE70" x="2.366" y="0" fill="oklab(70.664% -0.00024 0.00083)" fill-rule="nonzero"/><use xlink:href="#gA3AB81503264C89759EED0CA1E91B374" x="5.2715" y="0" fill="oklab(70.664% -0.00024 0.00083)" fill-rule="nonzero"/><use xlink:href="#g698DF5D0A3D98C2C2D717CBA0616C0BB" x="8.242" y="0" fill="oklab(70.664% -0.00024 0.00083)" fill-rule="nonzero"/><use xlink:href="#g4C2F62F67F1A965BBE392C7CDE99EB6E" x="11.531" y="0" fill="oklab(70.664% -0.00024 0.00083)" fill-rule="nonzero"/></g><g transform="matrix(1 0 0 -1 140.007674803 21.51775)"><use xlink:href="#gEBE5D1AA7FD1D58A6569B852BABE7169" x="0" y="0" fill="oklab(70.664% -0.00024 0.00083)" fill-rule="nonzero"/></g><path fill="oklab(29.299% -0.00004 0.00013)" fill-rule="nonzero" transform="translate(157.820674803 5.5)" d="M 0 0m 0 2.75c 0 -1.518783062 1.231216938 -2.75 2.75 -2.75h 47.362587402c 1.518783062 0 2.75 1.231216938 2.75 2.75v 13.3625c 0 1.518783062 -1.231216938 2.75 -2.75 2.75h -47.362587402c -1.518783062 0 -2.75 -1.231216938 -2.75 -2.75Z "/><path fill="none" stroke="oklab(36.82% -0.00007 0.00025)" stroke-width="0.5" stroke-linecap="butt" stroke-linejoin="miter" stroke-miterlimit="4" transform="translate(157.820674803 5.5)" d="M 0 0m 2.75 0h 47.362587402c 1.518783062 0 2.75 1.231216938 2.75 2.75v 13.3625c 0 1.518783062 -1.231216938 2.75 -2.75 2.75h -47.362587402c -1.518783062 0 -2.75 -1.231216938 -2.75 -2.75v -13.3625c 0 -1.518783062 1.231216938 -2.75 2.75 -2.75"/><g transform="matrix(1 0 0 -1 161.133218504 17.3625)"><use xlink:href="#g456AD937DC2937D08C65447A730E726D" x="0" y="0" fill="#f5f5f4" fill-rule="nonzero"/><use xlink:href="#gE09A3ADFCF530C436E55FAE05BBD0471" x="3.853125" y="0" fill="#f5f5f4" fill-rule="nonzero"/><use xlink:href="#gC060D7A872A16415F276D43220F650FC" x="7.70625" y="0" fill="#f5f5f4" fill-rule="nonzero"/><use xlink:href="#g18031212F8FCB97E3C804DB611CC05D6" x="11.559375" y="0" fill="#f5f5f4" fill-rule="nonzero"/><use xlink:href="#g8C4581C590787D48AD0BDE8F0B17B121" x="15.4125" y="0" fill="#f5f5f4" fill-rule="nonzero"/><use xlink:href="#g291536C80F8DE3CED9990CFCEEC20614" x="19.265625" y="0" fill="#f5f5f4" fill-rule="nonzero"/><use xlink:href="#g8C4581C590787D48AD0BDE8F0B17B121" x="23.11875" y="0" fill="#f5f5f4" fill-rule="nonzero"/><use xlink:href="#g2E31FEA734F9380014FF14542E82CCFD" x="26.971875" y="0" fill="#f5f5f4" fill-rule="nonzero"/><use xlink:href="#gA6CA33733EF4AA1506F3A584B73BA635" x="30.825" y="0" fill="#f5f5f4" fill-rule="nonzero"/><use xlink:href="#gA7ECCC49EB6CA2B1B6D2E75A650F2943" x="34.678125" y="0" fill="#f5f5f4" fill-rule="nonzero"/><use xlink:href="#g7ED2802AFD988B570858B1204B64271E" x="38.53125" y="0" fill="#f5f5f4" fill-rule="nonzero"/><use xlink:href="#gA7ECCC49EB6CA2B1B6D2E75A650F2943" x="42.384375" y="0" fill="#f5f5f4" fill-rule="nonzero"/></g><g transform="matrix(1 0 0 -1 214.683262205 12.62175)"><use xlink:href="#g654468A4D354BB73DD45BC5191C1B38D" x="0" y="0" fill="oklab(70.664% -0.00024 0.00083)" fill-rule="nonzero"/><use xlink:href="#gCA4ADCABFC6717E79EA2B587E84AACB3" x="4.8555" y="0" fill="oklab(70.664% -0.00024 0.00083)" fill-rule="nonzero"/><use xlink:href="#g51CA2F722BFDE47BCF9687985FAB26C4" x="7.2735" y="0" fill="oklab(70.664% -0.00024 0.00083)" fill-rule="nonzero"/><use xlink:href="#g4C618A5D2B8FBBFC82B7C933A53FA6E4" x="9.035" y="0" fill="oklab(70.664% -0.00024 0.00083)" fill-rule="nonzero"/><use xlink:href="#gBDDACCF8F25298B1E06BF69EE432EE70" x="11.089" y="0" fill="oklab(70.664% -0.00024 0.00083)" fill-rule="nonzero"/><use xlink:href="#g4C2F62F67F1A965BBE392C7CDE99EB6E" x="13.9945" y="0" fill="oklab(70.664% -0.00024 0.00083)" fill-rule="nonzero"/></g><g transform="matrix(1 0 0 -1 216.168012205 21.51775)"><use xlink:href="#gEBE5D1AA7FD1D58A6569B852BABE7169" x="0" y="0" fill="oklab(70.664% -0.00024 0.00083)" fill-rule="nonzero"/></g><path fill="oklab(27.12% 0.01566 0.01411)" fill-rule="nonzero" transform="translate(235.212762205 5.5)" d="M 0 0m 0 2.6c 0 -1.43594035 1.16405965 -2.6 2.6 -2.6h 47.662587402c 1.43594035 0 2.6 1.16405965 2.6 2.6v 13.6625c 0 1.43594035 -1.16405965 2.6 -2.6 2.6h -47.662587402c -1.43594035 0 -2.6 -1.16405965 -2.6 -2.6Z "/><path fill="none" stroke="oklab(44.035% 0.06524 0.05878)" stroke-width="0.8" stroke-linecap="butt" stroke-linejoin="miter" stroke-miterlimit="4" transform="translate(235.212762205 5.5)" d="M 0 0m 2.6 0h 47.662587402c 1.43594035 0 2.6 1.16405965 2.6 2.6v 13.6625c 0 1.43594035 -1.16405965 2.6 -2.6 2.6h -47.662587402c -1.43594035 0 -2.6 -1.16405965 -2.6 -2.6v -13.6625c 0 -1.43594035 1.16405965 -2.6 2.6 -2.6"/><g transform="matrix(1 0 0 -1 250.084680906 17.3625)"><use xlink:href="#g4B1F8F5ABAF2D4B7840F67D41128FF49" x="0" y="0" fill="oklab(80.104% 0.07159 0.06523)" fill-rule="nonzero"/><use xlink:href="#g751F7809C88759A27B07296714DEE3CC" x="3.853125" y="0" fill="oklab(80.104% 0.07159 0.06523)" fill-rule="nonzero"/><use xlink:href="#gA7ECCC49EB6CA2B1B6D2E75A650F2943" x="7.70625" y="0" fill="oklab(80.104% 0.07159 0.06523)" fill-rule="nonzero"/><use xlink:href="#g318CA96B802C13F1E46A006D1B79899A" x="11.559375" y="0" fill="oklab(80.104% 0.07159 0.06523)" fill-rule="nonzero"/><use xlink:href="#g2E31FEA734F9380014FF14542E82CCFD" x="15.4125" y="0" fill="oklab(80.104% 0.07159 0.06523)" fill-rule="nonzero"/><use xlink:href="#gE37A466C69F390038433D14A813F9645" x="19.265625" y="0" fill="oklab(80.104% 0.07159 0.06523)" fill-rule="nonzero"/></g><g transform="matrix(1 0 0 -1 292.075349606 12.62175)"><use xlink:href="#gCA4ADCABFC6717E79EA2B587E84AACB3" x="0" y="0" fill="oklab(70.664% -0.00024 0.00083)" fill-rule="nonzero"/><use xlink:href="#gBDDACCF8F25298B1E06BF69EE432EE70" x="2.366" y="0" fill="oklab(70.664% -0.00024 0.00083)" fill-rule="nonzero"/><use xlink:href="#gA3AB81503264C89759EED0CA1E91B374" x="5.2715" y="0" fill="oklab(70.664% -0.00024 0.00083)" fill-rule="nonzero"/><use xlink:href="#g698DF5D0A3D98C2C2D717CBA0616C0BB" x="8.242" y="0" fill="oklab(70.664% -0.00024 0.00083)" fill-rule="nonzero"/><use xlink:href="#g4C2F62F67F1A965BBE392C7CDE99EB6E" x="11.531" y="0" fill="oklab(70.664% -0.00024 0.00083)" fill-rule="nonzero"/></g><g transform="matrix(1 0 0 -1 292.328349606 21.51775)"><use xlink:href="#gEBE5D1AA7FD1D58A6569B852BABE7169" x="0" y="0" fill="oklab(70.664% -0.00024 0.00083)" fill-rule="nonzero"/></g><path fill="oklab(29.299% -0.00004 0.00013)" fill-rule="nonzero" transform="translate(310.141349606 5.5)" d="M 0 0m 0 2.75c 0 -1.518783062 1.231216938 -2.75 2.75 -2.75h 47.362587402c 1.518783062 0 2.75 1.231216938 2.75 2.75v 13.3625c 0 1.518783062 -1.231216938 2.75 -2.75 2.75h -47.362587402c -1.518783062 0 -2.75 -1.231216938 -2.75 -2.75Z "/><path fill="none" stroke="oklab(36.82% -0.00007 0.00025)" stroke-width="0.5" stroke-linecap="butt" stroke-linejoin="miter" stroke-miterlimit="4" transform="translate(310.141349606 5.5)" d="M 0 0m 2.75 0h 47.362587402c 1.518783062 0 2.75 1.231216938 2.75 2.75v 13.3625c 0 1.518783062 -1.231216938 2.75 -2.75 2.75h -47.362587402c -1.518783062 0 -2.75 -1.231216938 -2.75 -2.75v -13.3625c 0 -1.518783062 1.231216938 -2.75 2.75 -2.75"/><g transform="matrix(1 0 0 -1 317.307018307 17.3625)"><use xlink:href="#g456AD937DC2937D08C65447A730E726D" x="0" y="0" fill="#f5f5f4" fill-rule="nonzero"/><use xlink:href="#gE09A3ADFCF530C436E55FAE05BBD0471" x="3.853125" y="0" fill="#f5f5f4" fill-rule="nonzero"/><use xlink:href="#gC060D7A872A16415F276D43220F650FC" x="7.70625" y="0" fill="#f5f5f4" fill-rule="nonzero"/><use xlink:href="#g18031212F8FCB97E3C804DB611CC05D6" x="11.559375" y="0" fill="#f5f5f4" fill-rule="nonzero"/><use xlink:href="#g4B1F8F5ABAF2D4B7840F67D41128FF49" x="15.4125" y="0" fill="#f5f5f4" fill-rule="nonzero"/><use xlink:href="#g751F7809C88759A27B07296714DEE3CC" x="19.265625" y="0" fill="#f5f5f4" fill-rule="nonzero"/><use xlink:href="#g9B2CE83B5F5DB8910E1A461B0DA99D75" x="23.11875" y="0" fill="#f5f5f4" fill-rule="nonzero"/><use xlink:href="#gE09A3ADFCF530C436E55FAE05BBD0471" x="26.971875" y="0" fill="#f5f5f4" fill-rule="nonzero"/><use xlink:href="#g4B1F8F5ABAF2D4B7840F67D41128FF49" x="30.825" y="0" fill="#f5f5f4" fill-rule="nonzero"/><use xlink:href="#gE37A466C69F390038433D14A813F9645" x="34.678125" y="0" fill="#f5f5f4" fill-rule="nonzero"/></g><defs><symbol id="g456AD937DC2937D08C65447A730E726D" overflow="visible"><path d="M 0 0m 2.1125 3.14375q 0.10625 0.225 0.2703125 0.3328125q 0.1640625 0.1078125 0.3953125 0.1078125q 0.421875 0 0.5953125 -0.3265625q 0.1734375 -0.3265625 0.1734375 -1.2296875v -2.028125h -0.525v 2.003125q 0 0.740625 -0.0828125 0.9203125q -0.0828125 0.1796875 -0.3015625 0.1796875q -0.25 0 -0.3421875 -0.1921875q -0.0921875 -0.1921875 -0.0921875 -0.9078125v -2.003125h -0.525v 2.003125q 0 0.75 -0.0890625 0.925q -0.0890625 0.175 -0.3203125 0.175q -0.228125 0 -0.3171875 -0.1921875q -0.0890625 -0.1921875 -0.0890625 -0.9078125v -2.003125h -0.521875v 3.5h 0.521875v -0.3q 0.103125 0.1875 0.2578125 0.2859375q 0.1546875 0.0984375 0.3515625 0.0984375q 0.2375 0 0.3953125 -0.109375q 0.1578125 -0.109375 0.2453125 -0.33125Z "/></symbol><symbol id="gE09A3ADFCF530C436E55FAE05BBD0471" overflow="visible"><path d="M 0 0m 1.925 3.096875q -0.4375 0 -0.6625 -0.340625q -0.225 -0.340625 -0.225 -1.009375q 0 -0.665625 0.225 -1.0078125q 0.225 -0.3421875 0.6625 -0.3421875q 0.440625 0 0.665625 0.3421875q 0.225 0.3421875 0.225 1.0078125q 0 0.66875 -0.225 1.009375q -0.225 0.340625 -0.665625 0.340625Z m 0 0.4875q 0.728125 0 1.1140625 -0.471875q 0.3859375 -0.471875 0.3859375 -1.365625q 0 -0.896875 -0.384375 -1.3671875q -0.384375 -0.4703125 -1.115625 -0.4703125q -0.728125 0 -1.1125 0.4703125q -0.384375 0.4703125 -0.384375 1.3671875q 0 0.89375 0.384375 1.365625q 0.384375 0.471875 1.1125 0.471875Z "/></symbol><symbol id="gC060D7A872A16415F276D43220F650FC" overflow="visible"><path d="M 0 0m 2.68125 3.053125v 1.809375h 0.575v -4.8625h -0.575v 0.440625q -0.14375 -0.259375 -0.3828125 -0.3953125q -0.2390625 -0.1359375 -0.5515625 -0.1359375q -0.634375 0 -0.9984375 0.4921875q -0.3640625 0.4921875 -0.3640625 1.3578125q 0 0.853125 0.365625 1.3390625q 0.365625 0.4859375 0.996875 0.4859375q 0.315625 0 0.55625 -0.1359375q 0.240625 -0.1359375 0.378125 -0.3953125Z m -1.690625 -1.30625q 0 -0.66875 0.2125 -1.009375q 0.2125 -0.340625 0.628125 -0.340625q 0.415625 0 0.6328125 0.34375q 0.2171875 0.34375 0.2171875 1.00625q 0 0.665625 -0.2171875 1.0078125q -0.2171875 0.3421875 -0.6328125 0.3421875q -0.415625 0 -0.628125 -0.340625q -0.2125 -0.340625 -0.2125 -1.009375Z "/></symbol><symbol id="g18031212F8FCB97E3C804DB611CC05D6" overflow="visible"><path d="M 0 0m 3.853125 -1.259375v -0.25h -3.853125v 0.25h 3.853125Z "/></symbol><symbol id="g7ED2802AFD988B570858B1204B64271E" overflow="visible"><path d="M 0 0m 0.8 3.5h 1.471875v -3.053125h 1.140625v -0.446875h -2.85625v 0.446875h 1.140625v 2.60625h -0.896875v 0.446875Z m 0.896875 1.3625h 0.575v -0.728125h -0.575v 0.728125Z "/></symbol><symbol id="g291536C80F8DE3CED9990CFCEEC20614" overflow="visible"><path d="M 0 0m 3.284375 2.16875v -2.16875h -0.578125v 2.16875q 0 0.471875 -0.165625 0.69375q -0.165625 0.221875 -0.51875 0.221875q -0.403125 0 -0.6203125 -0.2859375q -0.2171875 -0.2859375 -0.2171875 -0.8203125v -1.978125h -0.575v 3.5h 0.575v -0.525q 0.153125 0.3 0.415625 0.4546875q 0.2625 0.1546875 0.621875 0.1546875q 0.534375 0 0.7984375 -0.3515625q 0.2640625 -0.3515625 0.2640625 -1.0640625Z "/></symbol><symbol id="g9B2CE83B5F5DB8910E1A461B0DA99D75" overflow="visible"><path d="M 0 0m 1.171875 0.440625v -1.771875h -0.578125v 4.83125h 0.578125v -0.446875q 0.14375 0.259375 0.3828125 0.3953125q 0.2390625 0.1359375 0.5515625 0.1359375q 0.634375 0 0.9953125 -0.490625q 0.3609375 -0.490625 0.3609375 -1.359375q 0 -0.853125 -0.3625 -1.3390625q -0.3625 -0.4859375 -0.99375 -0.4859375q -0.31875 0 -0.5578125 0.1359375q -0.2390625 0.1359375 -0.3765625 0.3953125Z m 1.6875 1.30625q 0 0.66875 -0.2109375 1.009375q -0.2109375 0.340625 -0.6265625 0.340625q -0.41875 0 -0.634375 -0.3421875q -0.215625 -0.3421875 -0.215625 -1.0078125q 0 -0.6625 0.215625 -1.00625q 0.215625 -0.34375 0.634375 -0.34375q 0.415625 0 0.6265625 0.340625q 0.2109375 0.340625 0.2109375 1.009375Z "/></symbol><symbol id="g318CA96B802C13F1E46A006D1B79899A" overflow="visible"><path d="M 0 0m 0.609375 1.325v 2.16875h 0.575v -2.16875q 0 -0.471875 0.1671875 -0.69375q 0.1671875 -0.221875 0.5171875 -0.221875q 0.40625 0 0.621875 0.2859375q 0.215625 0.2859375 0.215625 0.8203125v 1.978125h 0.578125v -3.49375h -0.578125v 0.525q -0.153125 -0.303125 -0.4171875 -0.459375q -0.2640625 -0.15625 -0.6171875 -0.15625q -0.5375 0 -0.8 0.3515625q -0.2625 0.3515625 -0.2625 1.0640625Z "/></symbol><symbol id="gE37A466C69F390038433D14A813F9645" overflow="visible"><path d="M 0 0m 1.91875 4.49375v -0.99375h 1.30625v -0.446875h -1.30625v -1.9q 0 -0.3875 0.146875 -0.540625q 0.146875 -0.153125 0.5125 -0.153125h 0.646875v -0.459375h -0.703125q -0.646875 0 -0.9125 0.259375q -0.265625 0.259375 -0.265625 0.89375v 1.9h -0.934375v 0.446875h 0.934375v 0.99375h 0.575Z "/></symbol><symbol id="g654468A4D354BB73DD45BC5191C1B38D" overflow="visible"><path d="M 0 0m 1.3195 2.587c 0.039 0.039 0.039 0.1755 0 0.2145c -0.195 -0.0065 -0.4225 -0.013 -0.6565 -0.013c -0.247 0 -0.4225 0.0065 -0.5915 0.013c -0.039 -0.039 -0.039 -0.1755 0 -0.2145c 0.3055 -0.0325 0.377 -0.0975 0.5135 -0.4355l 0.8515 -2.0995c 0.039 -0.091 0.091 -0.13 0.156 -0.13c 0.0585 0 0.1105 0.039 0.156 0.143l 0.6565 1.599l 0.6695 -1.612c 0.039 -0.091 0.091 -0.13 0.156 -0.13c 0.0585 0 0.1105 0.039 0.1495 0.1365l 0.8515 2.0605c 0.104 0.2665 0.2145 0.4485 0.546 0.468c 0.039 0.039 0.039 0.1755 0 0.2145c -0.13 -0.0065 -0.273 -0.013 -0.468 -0.013c -0.195 0 -0.468 0.0065 -0.663 0.013c -0.039 -0.039 -0.039 -0.1755 0 -0.2145c 0.4875 -0.026 0.4225 -0.2145 0.3315 -0.442l -0.546 -1.352c -0.065 -0.1625 -0.091 -0.1625 -0.143 -0.026l -0.559 1.4235c -0.1235 0.3055 -0.1105 0.3705 0.234 0.3965c 0.039 0.039 0.039 0.1755 0 0.2145c -0.195 -0.0065 -0.455 -0.013 -0.65 -0.013c -0.1625 0 -0.377 0.0065 -0.572 0.013c -0.039 -0.039 -0.039 -0.1755 0 -0.2145c 0.3055 -0.026 0.3835 -0.2145 0.5005 -0.507l 0.039 -0.104l -0.455 -1.1505c -0.0845 -0.2145 -0.0975 -0.221 -0.182 -0.013l -0.52 1.339c -0.1235 0.312 -0.117 0.416 0.195 0.4355Z "/></symbol><symbol id="gCA4ADCABFC6717E79EA2B587E84AACB3" overflow="visible"><path d="M 0 0m 1.144 2.327c -0.013 0.26 -0.0195 0.429 -0.052 0.494c -0.013 0.0325 -0.026 0.052 -0.078 0.052c -0.182 -0.0715 -0.351 -0.13 -0.7995 -0.1885c -0.013 -0.039 0 -0.143 0.013 -0.182c 0.351 -0.0325 0.4225 -0.065 0.4225 -0.442v -1.2675c 0 -0.5395 -0.078 -0.5655 -0.481 -0.5915c -0.039 -0.039 -0.039 -0.1755 0 -0.2145c 0.2275 0.0065 0.481 0.013 0.741 0.013c 0.26 0 0.559 -0.0065 0.7865 -0.013c 0.039 0.039 0.039 0.1755 0 0.2145c -0.455 0.0325 -0.533 0.052 -0.533 0.5915v 0.9035c 0 0.169 0.078 0.3185 0.156 0.4355c 0.0715 0.104 0.221 0.3185 0.299 0.3185c 0.0585 0 0.117 -0.013 0.169 -0.0845c 0.0455 -0.065 0.1235 -0.1495 0.234 -0.1495c 0.156 0 0.3055 0.1625 0.3055 0.325c 0 0.1235 -0.117 0.312 -0.39 0.312c -0.3055 0 -0.572 -0.286 -0.7215 -0.5395c -0.039 -0.0715 -0.0715 -0.0195 -0.0715 0.013Z "/></symbol><symbol id="g51CA2F722BFDE47BCF9687985FAB26C4" overflow="visible"><path d="M 0 0m 1.1765 0.793v 1.2935c 0 0.325 0.026 0.741 0.026 0.741c 0 0.026 -0.0325 0.0455 -0.0845 0.0455c -0.182 -0.0715 -0.442 -0.13 -0.8905 -0.1885c -0.013 -0.039 0 -0.143 0.013 -0.182c 0.3575 -0.0325 0.4225 -0.0715 0.4225 -0.442v -1.2675c 0 -0.5395 -0.0715 -0.559 -0.468 -0.5915c -0.039 -0.039 -0.039 -0.1755 0 -0.2145c 0.2145 0.0065 0.468 0.013 0.728 0.013c 0.26 0 0.507 -0.0065 0.7215 -0.013c 0.039 0.039 0.039 0.1755 0 0.2145c -0.3965 0.026 -0.468 0.052 -0.468 0.5915Z m -0.5915 3.1005c 0 -0.169 0.156 -0.338 0.312 -0.338c 0.182 0 0.338 0.1755 0.338 0.312c 0 0.156 -0.1365 0.338 -0.312 0.338c -0.156 0 -0.338 -0.156 -0.338 -0.312Z "/></symbol><symbol id="g4C618A5D2B8FBBFC82B7C933A53FA6E4" overflow="visible"><path d="M 0 0m 0.2795 2.7885c -0.091 0 -0.117 -0.078 -0.117 -0.13v -0.0845c 0 -0.0325 0.0065 -0.039 0.0325 -0.039h 0.3835v -1.9565c 0 -0.4615 0.2015 -0.6435 0.5005 -0.6435c 0.299 0 0.624 0.143 0.8775 0.429c -0.013 0.065 -0.052 0.104 -0.117 0.1105c -0.169 -0.13 -0.364 -0.182 -0.533 -0.182c -0.1755 0 -0.2145 0.195 -0.2145 0.598v 1.6445h 0.676c 0.065 0 0.156 0.026 0.156 0.0845v 0.13c 0 0.026 -0.0195 0.039 -0.052 0.039h -0.78v 0.2535c 0 0.4225 0.026 0.6825 0.026 0.6825c 0 0.039 -0.0195 0.0585 -0.052 0.0585c -0.026 0 -0.0845 -0.026 -0.143 -0.0585c -0.0715 -0.039 -0.1365 -0.0715 -0.221 -0.091c -0.078 -0.026 -0.143 -0.0455 -0.143 -0.091c 0 -0.078 0.0195 -0.0325 0.0195 -0.754Z "/></symbol><symbol id="gBDDACCF8F25298B1E06BF69EE432EE70" overflow="visible"><path d="M 0 0m 2.509 0.6045c -0.2405 -0.247 -0.429 -0.351 -0.806 -0.351c -0.234 0 -0.507 0.1365 -0.7085 0.468c -0.13 0.2145 -0.208 0.5135 -0.208 0.8905l 1.729 -0.013c 0.078 0 0.1235 0.039 0.1235 0.1105c 0 0.546 -0.195 1.131 -1.0985 1.131c -0.5655 0 -1.3 -0.5395 -1.3 -1.5275c 0 -0.364 0.091 -0.715 0.3055 -0.962c 0.221 -0.26 0.5265 -0.416 0.9945 -0.416c 0.494 0 0.845 0.2275 1.105 0.5655c -0.0195 0.065 -0.0585 0.0975 -0.1365 0.104Z m -1.703 1.2285c 0.1235 0.7345 0.5785 0.793 0.7345 0.793c 0.247 0 0.5395 -0.1365 0.5395 -0.6825c 0 -0.0585 -0.026 -0.091 -0.0975 -0.091Z "/></symbol><symbol id="g4C2F62F67F1A965BBE392C7CDE99EB6E" overflow="visible"><path d="M 0 0m 0.312 0.897c 0.026 -0.3185 0.0455 -0.624 0.0455 -0.897c 0.065 0.013 0.13 0.0195 0.1625 0.0195c 0.0455 0 0.0845 0 0.13 -0.013c 0.1755 -0.0455 0.351 -0.0715 0.5915 -0.0715c 0.364 0 1.0335 0.1755 1.0335 0.819c 0 0.442 -0.3185 0.702 -0.7605 0.8645c -0.39 0.1495 -0.65 0.247 -0.65 0.6045c 0 0.2665 0.234 0.416 0.455 0.416c 0.143 0 0.52 -0.052 0.6045 -0.6045c 0.039 -0.039 0.169 -0.0325 0.208 0.0065c 0.0195 0.234 0.0325 0.4745 0.039 0.689c -0.2015 0.0325 -0.5135 0.1235 -0.8515 0.1235c -0.481 0 -0.9165 -0.312 -0.9165 -0.728c 0 -0.4745 0.2145 -0.676 0.715 -0.884c 0.5395 -0.221 0.663 -0.3575 0.663 -0.637c 0 -0.3185 -0.312 -0.455 -0.5525 -0.455c -0.2535 0 -0.3965 0.0845 -0.4615 0.156c -0.143 0.1495 -0.2145 0.4355 -0.2535 0.598c -0.039 0.039 -0.1625 0.0325 -0.2015 -0.0065Z "/></symbol><symbol id="gEBE5D1AA7FD1D58A6569B852BABE7169" overflow="visible"><path d="M 0 0m 10.272 0.984c 1.032 1.164 2.004 1.836 2.592 2.04v 0.276c -1.296 0.528 -2.592 2.064 -2.592 2.076h -0.48c 0.468 -1.008 0.96 -1.56 1.356 -1.884h -10.44v -0.624h 10.44c -0.384 -0.372 -0.972 -1.02 -1.332 -1.884Z "/></symbol><symbol id="g8C4581C590787D48AD0BDE8F0B17B121" overflow="visible"><path d="M 0 0m 2.19375 1.759375h -0.190625q -0.503125 0 -0.7578125 -0.1765625q -0.2546875 -0.1765625 -0.2546875 -0.5265625q 0 -0.315625 0.190625 -0.490625q 0.190625 -0.175 0.528125 -0.175q 0.475 0 0.746875 0.3296875q 0.271875 0.3296875 0.275 0.9109375v 0.128125h -0.5375Z m 1.115625 0.2375v -1.996875h -0.578125v 0.51875q -0.184375 -0.3125 -0.4640625 -0.4609375q -0.2796875 -0.1484375 -0.6796875 -0.1484375q -0.534375 0 -0.853125 0.3015625q -0.31875 0.3015625 -0.31875 0.8078125q 0 0.584375 0.3921875 0.8875q 0.3921875 0.303125 1.1515625 0.303125h 0.771875v 0.090625q -0.003125 0.41875 -0.2125 0.6078125q -0.209375 0.1890625 -0.66875 0.1890625q -0.29375 0 -0.59375 -0.084375q -0.3 -0.084375 -0.584375 -0.246875v 0.575q 0.31875 0.121875 0.6109375 0.1828125q 0.2921875 0.0609375 0.5671875 0.0609375q 0.434375 0 0.7421875 -0.128125q 0.3078125 -0.128125 0.4984375 -0.384375q 0.11875 -0.15625 0.16875 -0.3859375q 0.05 -0.2296875 0.05 -0.6890625Z "/></symbol><symbol id="gA7ECCC49EB6CA2B1B6D2E75A650F2943" overflow="visible"><path d="M 0 0m 3.040625 3.378125v -0.5625q -0.246875 0.14375 -0.496875 0.215625q -0.25 0.071875 -0.509375 0.071875q -0.390625 0 -0.5828125 -0.1265625q -0.1921875 -0.1265625 -0.1921875 -0.3859375q 0 -0.234375 0.14375 -0.35q 0.14375 -0.115625 0.715625 -0.225l 0.23125 -0.04375q 0.428125 -0.08125 0.6484375 -0.325q 0.2203125 -0.24375 0.2203125 -0.634375q 0 -0.51875 -0.36875 -0.8109375q -0.36875 -0.2921875 -1.025 -0.2921875q -0.259375 0 -0.54375 0.0546875q -0.284375 0.0546875 -0.615625 0.1640625v 0.59375q 0.321875 -0.165625 0.615625 -0.2484375q 0.29375 -0.0828125 0.55625 -0.0828125q 0.38125 0 0.590625 0.1546875q 0.209375 0.1546875 0.209375 0.4328125q 0 0.4 -0.765625 0.553125l -0.025 0.00625l -0.215625 0.04375q -0.496875 0.096875 -0.725 0.3265625q -0.228125 0.2296875 -0.228125 0.6265625q 0 0.503125 0.340625 0.7765625q 0.340625 0.2734375 0.971875 0.2734375q 0.28125 0 0.540625 -0.0515625q 0.259375 -0.0515625 0.509375 -0.1546875Z "/></symbol><symbol id="g751F7809C88759A27B07296714DEE3CC" overflow="visible"><path d="M 0 0m 3.475 1.89375v -0.28125h -2.490625v -0.01875q 0 -0.571875 0.2984375 -0.884375q 0.2984375 -0.3125 0.8421875 -0.3125q 0.275 0 0.575 0.0875q 0.3 0.0875 0.640625 0.265625v -0.571875q -0.328125 -0.134375 -0.6328125 -0.2015625q -0.3046875 -0.0671875 -0.5890625 -0.0671875q -0.815625 0 -1.275 0.4890625q -0.459375 0.4890625 -0.459375 1.3484375q 0 0.8375 0.45 1.3375q 0.45 0.5 1.2 0.5q 0.66875 0 1.0546875 -0.453125q 0.3859375 -0.453125 0.3859375 -1.2375Z m -0.575 0.16875q -0.0125 0.50625 -0.2390625 0.7703125q -0.2265625 0.2640625 -0.6515625 0.2640625q -0.415625 0 -0.684375 -0.275q -0.26875 -0.275 -0.31875 -0.7625l 1.89375 0.003125Z "/></symbol><symbol id="gA3AB81503264C89759EED0CA1E91B374" overflow="visible"><path d="M 0 0m 1.9045 0.312c 0.039 -0.2015 0.1105 -0.377 0.4355 -0.377c 0.247 0 0.481 0.1105 0.6175 0.2405c -0.013 0.078 -0.039 0.1365 -0.1105 0.1755c -0.0455 -0.039 -0.156 -0.104 -0.2405 -0.104c -0.1885 0 -0.195 0.2535 -0.195 0.5525v 0.9555c 0 0.923 -0.507 1.0985 -0.9815 1.0985c -0.533 0 -1.0725 -0.351 -1.0725 -0.7215c 0 -0.156 0.078 -0.234 0.2275 -0.234c 0.1885 0 0.3055 0.1365 0.3055 0.221c 0 0.0455 -0.0065 0.091 -0.0195 0.117c -0.0065 0.0195 -0.013 0.0585 -0.013 0.13c 0 0.2015 0.273 0.273 0.52 0.273c 0.221 0 0.5265 -0.1105 0.5265 -0.845c 0 -0.0455 -0.0195 -0.0715 -0.039 -0.078l -0.559 -0.1365c -0.624 -0.156 -1.0725 -0.5005 -1.0725 -0.9425c 0 -0.533 0.364 -0.702 0.819 -0.702c 0.2275 0 0.4225 0.052 0.7085 0.273l 0.13 0.104Z m 0 1.2025v -0.858c 0 -0.0845 -0.039 -0.13 -0.091 -0.169c -0.169 -0.1365 -0.39 -0.286 -0.572 -0.286c -0.325 0 -0.468 0.26 -0.468 0.4615c 0 0.2925 0.1365 0.5915 0.6175 0.715Z "/></symbol><symbol id="g698DF5D0A3D98C2C2D717CBA0616C0BB" overflow="visible"><path d="M 0 0m 2.171 0.325c 0.0325 0.026 0.091 0.039 0.0975 -0.0065c 0.0195 -0.156 0.0715 -0.3835 0.0715 -0.3835c 0.052 -0.0195 0.0845 -0.013 0.1235 0c 0.143 0.117 0.3705 0.2145 0.767 0.26c 0.039 0.039 0.039 0.1365 0 0.1755c -0.416 0.0325 -0.4745 0.156 -0.4745 0.4745v 2.9445c 0 0.4225 0.026 0.6825 0.026 0.6825c 0 0.0455 -0.026 0.065 -0.0845 0.065c -0.1625 -0.065 -0.65 -0.156 -0.91 -0.1755c -0.013 -0.052 0 -0.156 0.039 -0.195c 0.0195 0 0.039 0 0.0585 0c 0.286 -0.0195 0.3575 -0.0195 0.3575 -0.533v -0.832c 0 -0.0455 -0.013 -0.0585 -0.0585 -0.0585c -0.026 0 -0.2925 0.1105 -0.507 0.1105c -0.429 0 -0.715 -0.143 -0.975 -0.39c -0.2795 -0.2795 -0.4485 -0.663 -0.4485 -1.144c 0 -0.7995 0.403 -1.3845 1.105 -1.3845c 0.2535 0 0.494 0.13 0.8125 0.39Z m 0.0715 0.481c 0 -0.1235 -0.013 -0.1755 -0.104 -0.2535c -0.2405 -0.208 -0.4485 -0.312 -0.611 -0.312c -0.351 0 -0.715 0.3835 -0.715 1.196c 0 0.468 0.091 0.728 0.1885 0.8645c 0.2015 0.3055 0.4745 0.325 0.6045 0.325c 0.234 0 0.3965 -0.0845 0.5265 -0.234c 0.091 -0.104 0.1105 -0.1495 0.1105 -0.351Z "/></symbol><symbol id="g2E31FEA734F9380014FF14542E82CCFD" overflow="visible"><path d="M 0 0m 1.996875 1.26875q 0 -0.3875 0.1421875 -0.584375q 0.1421875 -0.196875 0.4203125 -0.196875h 0.671875v -0.4875h -0.728125q -0.515625 0 -0.7984375 0.33125q -0.2828125 0.33125 -0.2828125 0.9375v 3.178125h -0.921875v 0.45h 1.496875v -3.628125Z "/></symbol><symbol id="gA6CA33733EF4AA1506F3A584B73BA635" overflow="visible"><path d="M 0 0m 2.68125 1.125q -0.14375 -0.365625 -0.365625 -0.9625q -0.309375 -0.825 -0.415625 -1.00625q -0.14375 -0.24375 -0.359375 -0.365625q -0.215625 -0.121875 -0.503125 -0.121875h -0.4625v 0.48125h 0.340625q 0.253125 0 0.396875 0.146875q 0.14375 0.146875 0.365625 0.759375l -1.353125 3.44375h 0.609375l 1.0375 -2.7375l 1.021875 2.7375h 0.609375l -0.921875 -2.375Z "/></symbol><symbol id="g4B1F8F5ABAF2D4B7840F67D41128FF49" overflow="visible"><path d="M 0 0m 3.609375 2.778125q -0.184375 0.14375 -0.375 0.209375q -0.190625 0.065625 -0.41875 0.065625q -0.5375 0 -0.821875 -0.3375q -0.284375 -0.3375 -0.284375 -0.975v -1.740625h -0.578125v 3.5h 0.578125v -0.684375q 0.14375 0.371875 0.4421875 0.5703125q 0.2984375 0.1984375 0.7078125 0.1984375q 0.2125 0 0.396875 -0.053125q 0.184375 -0.053125 0.353125 -0.165625v -0.5875Z "/></symbol></defs></svg>