<svg viewBox="0 0 368.503937008 212.598425197" width="368.503937008pt" height="212.598425197pt" xmlns="http://www.w3.org/2000/svg" xmlns:xlink="http://www.w3.org/1999/xlink" xmlns:h5="http://www.w3.org/1999/xhtml"><path fill="#1a1a1a" fill-rule="nonzero" d="M 0 0v 212.598425197h 368.503937008v -212.598425197Z "/><path fill="#1a1a1a" fill-rule="nonzero" transform="translate(5.5 5.5)" d="M 0 0m 0 4.25c 0 -2.347210187 1.902789813 -4.25 4.25 -4.25h 349.003937008c 2.347210187 0 4.25 1.902789813 4.25 4.25v 193.098425197c 0 2.347210187 -1.902789813 4.25 -4.25 4.25h -349.003937008c -2.347210187 0 -4.25 -1.902789813 -4.25 -4.25Z "/><path fill="none" stroke="oklab(62.04% -0.00588 -0.08941)" stroke-width="1.5" stroke-linecap="butt" stroke-linejoin="miter" stroke-miterlimit="4" transform="translate(5.5 5.5)" d="M 0 0m 4.25 0h 349.003937008c 2.347210187 0 4.25 1.902789813 4.25 4.25v 193.098425197c 0 2.347210187 -1.902789813 4.25 -4.25 4.25h -349.003937008c -2.347210187 0 -4.25 -1.902789813 -4.25 -4.25v -193.098425197c 0 -2.347210187 1.902789813 -4.25 4.25 -4.25"/><g transform="matrix(1 0 0 -1 153.039468504 21.595)"><use xlink:href="#g805F4A875668C9F44726675C950B1BF5" x="0" y="0" fill="oklab(62.04% -0.00588 -0.08941)" fill-rule="nonzero"/><use xlink:href="#g91B01334F80632633C2B229D930B162" x="5.566" y="0" fill="oklab(62.04% -0.00588 -0.08941)" fill-rule="nonzero"/><use xlink:href="#gB1C98CEB2863E378D3B505B49CB5C4D2" x="10.582" y="0" fill="oklab(62.04% -0.00588 -0.08941)" fill-rule="nonzero"/><use xlink:href="#gC14BE50F1468F5902AA9D472AD29244E" x="20.537" y="0" fill="oklab(62.04% -0.00588 -0.08941)" fill-rule="nonzero"/><use xlink:href="#gBEC4FA6960B1D9FF0F7FEE7720207F05" x="25.806" y="0" fill="oklab(62.04% -0.00588 -0.08941)" fill-rule="nonzero"/><use xlink:href="#g453A32922757F3F32A7A2644294359E5" x="28.49" y="0" fill="oklab(62.04% -0.00588 -0.08941)" fill-rule="nonzero"/><use xlink:href="#g628D38FCFF0E42049F5AA83044B0F23B" x="32.428" y="0" fill="oklab(62.04% -0.00588 -0.08941)" fill-rule="nonzero"/><use xlink:href="#g628D38FCFF0E42049F5AA83044B0F23B" x="38.566" y="0" fill="oklab(62.04% -0.00588 -0.08941)" fill-rule="nonzero"/><use xlink:href="#gFDB9066647BF256CAB5F7E35AAB6AC33" x="44.627" y="0" fill="oklab(62.04% -0.00588 -0.08941)" fill-rule="nonzero"/><use xlink:href="#g967D4E6F53FF9C93C5840D1ABE9ADADD" x="48.202" y="0" fill="oklab(62.04% -0.00588 -0.08941)" fill-rule="nonzero"/><use xlink:href="#g2D5B92E3E4024BC0BA8952CC9DC03EB3" x="54.945" y="0" fill="oklab(62.04% -0.00588 -0.08941)" fill-rule="nonzero"/><use xlink:href="#g453A32922757F3F32A7A2644294359E5" x="58.487" y="0" fill="oklab(62.04% -0.00588 -0.08941)" fill-rule="nonzero"/></g><path fill="oklab(29.299% -0.00004 0.00013)" fill-rule="nonzero" transform="translate(17.5 44.795)" d="M 0 0m 0 2.75c 0 -1.518783062 1.231216938 -2.75 2.75 -2.75h 150.251968504c 1.518783062 0 2.75 1.231216938 2.75 2.75v 61.799212598c 0 1.518783062 -1.231216938 2.75 -2.75 2.75h -150.251968504c -1.518783062 0 -2.75 -1.231216938 -2.75 -2.75Z "/><path fill="none" stroke="oklab(36.82% -0.00007 0.00025)" stroke-width="0.5" stroke-linecap="butt" stroke-linejoin="miter" stroke-miterlimit="4" transform="translate(17.5 44.795)" d="M 0 0m 2.75 0h 150.251968504c 1.518783062 0 2.75 1.231216938 2.75 2.75v 61.799212598c 0 1.518783062 -1.231216938 2.75 -2.75 2.75h -150.251968504c -1.518783062 0 -2.75 -1.231216938 -2.75 -2.75v -61.799212598c 0 -1.518783062 1.231216938 -2.75 2.75 -2.75"/><g transform="matrix(1 0 0 -1 56.485484252 77.189106299)"><use xlink:href="#g3D3238DF620450543BAD24E1071B67BE" x="0" y="0" fill="#f5f5f4" fill-rule="nonzero"/><use xlink:href="#g5436BD544ECE03432793975AD4760DBB" x="5.544" y="0" fill="#f5f5f4" fill-rule="nonzero"/><use xlink:href="#g628D38FCFF0E42049F5AA83044B0F23B" x="13.948" y="0" fill="#f5f5f4" fill-rule="nonzero"/><use xlink:href="#gE177666A084CE018A9AE7FDF45719721" x="20.009" y="0" fill="#f5f5f4" fill-rule="nonzero"/><use xlink:href="#gCFF0DA99E5CFE2CECE774A25DE75EE69" x="25.971" y="0" fill="#f5f5f4" fill-rule="nonzero"/><use xlink:href="#gC14BE50F1468F5902AA9D472AD29244E" x="29.403" y="0" fill="#f5f5f4" fill-rule="nonzero"/><use xlink:href="#g91B01334F80632633C2B229D930B162" x="34.859" y="0" fill="#f5f5f4" fill-rule="nonzero"/><use xlink:href="#g453A32922757F3F32A7A2644294359E5" x="39.875" y="0" fill="#f5f5f4" fill-rule="nonzero"/><use xlink:href="#gB1C98CEB2863E378D3B505B49CB5C4D2" x="46.563" y="0" fill="#f5f5f4" fill-rule="nonzero"/><use xlink:href="#g628D38FCFF0E42049F5AA83044B0F23B" x="56.518" y="0" fill="#f5f5f4" fill-rule="nonzero"/><use xlink:href="#g6DC7C83518F7696205F98713009FDA0F" x="62.656" y="0" fill="#f5f5f4" fill-rule="nonzero"/><use xlink:href="#gC14BE50F1468F5902AA9D472AD29244E" x="68.827" y="0" fill="#f5f5f4" fill-rule="nonzero"/><use xlink:href="#gFDB9066647BF256CAB5F7E35AAB6AC33" x="74.206" y="0" fill="#f5f5f4" fill-rule="nonzero"/></g><g transform="matrix(1 0 0 -1 48.048984252 86.795106299)"><use xlink:href="#g278CDBF56D01CEF52DD9E59412421D51" x="0" y="0" fill="oklab(70.664% -0.00024 0.00083)" fill-rule="nonzero"/><use xlink:href="#g7F53C732E919D004D6F103F0B6654A5" x="4.907" y="0" fill="oklab(70.664% -0.00024 0.00083)" fill-rule="nonzero"/><use xlink:href="#gABB9F1B4C6313DD44D3DD6524A14736D" x="8.106" y="0" fill="oklab(70.664% -0.00024 0.00083)" fill-rule="nonzero"/><use xlink:href="#g7F53C732E919D004D6F103F0B6654A5" x="10.318" y="0" fill="oklab(70.664% -0.00024 0.00083)" fill-rule="nonzero"/><use xlink:href="#gE526F6D2B84A63AE0DCACF8701BCF7C4" x="13.517" y="0" fill="oklab(70.664% -0.00024 0.00083)" fill-rule="nonzero"/><use xlink:href="#gA7BF18C335220D5E7117B3A9324A7487" x="16.247" y="0" fill="oklab(70.664% -0.00024 0.00083)" fill-rule="nonzero"/><use xlink:href="#gABB9F1B4C6313DD44D3DD6524A14736D" x="19.376" y="0" fill="oklab(70.664% -0.00024 0.00083)" fill-rule="nonzero"/><use xlink:href="#gACEEC821E32B0AF4C95491008446F924" x="23.338" y="0" fill="oklab(70.664% -0.00024 0.00083)" fill-rule="nonzero"/><use xlink:href="#g33A69BF2376C3C48FD05BABB631680A7" x="26.838" y="0" fill="oklab(70.664% -0.00024 0.00083)" fill-rule="nonzero"/><use xlink:href="#gF110F371CD849FA0EAB8C4CB22785684" x="31.703" y="0" fill="oklab(70.664% -0.00024 0.00083)" fill-rule="nonzero"/><use xlink:href="#g7F53C732E919D004D6F103F0B6654A5" x="35.497" y="0" fill="oklab(70.664% -0.00024 0.00083)" fill-rule="nonzero"/><use xlink:href="#g9D9F00457DD473BEA9AD32B9D633655D" x="38.696" y="0" fill="oklab(70.664% -0.00024 0.00083)" fill-rule="nonzero"/><use xlink:href="#gFCB1E9349BAA290E231F7FCF8330EA4A" x="40.544" y="0" fill="oklab(70.664% -0.00024 0.00083)" fill-rule="nonzero"/><use xlink:href="#gE526F6D2B84A63AE0DCACF8701BCF7C4" x="44.149" y="0" fill="oklab(70.664% -0.00024 0.00083)" fill-rule="nonzero"/><use xlink:href="#g95109BF97F5D69311623DCB01E17B5" x="46.879" y="0" fill="oklab(70.664% -0.00024 0.00083)" fill-rule="nonzero"/><use xlink:href="#gE526F6D2B84A63AE0DCACF8701BCF7C4" x="48.776" y="0" fill="oklab(70.664% -0.00024 0.00083)" fill-rule="nonzero"/><use xlink:href="#g8D8738BE302236837EF68011C1FA0A28" x="51.506" y="0" fill="oklab(70.664% -0.00024 0.00083)" fill-rule="nonzero"/><use xlink:href="#gA7BF18C335220D5E7117B3A9324A7487" x="55.615" y="0" fill="oklab(70.664% -0.00024 0.00083)" fill-rule="nonzero"/><use xlink:href="#gE526F6D2B84A63AE0DCACF8701BCF7C4" x="58.744" y="0" fill="oklab(70.664% -0.00024 0.00083)" fill-rule="nonzero"/><use xlink:href="#gF03346E6A3FFD945A12950F24C79EA53" x="61.474" y="0" fill="oklab(70.664% -0.00024 0.00083)" fill-rule="nonzero"/><use xlink:href="#g9D9F00457DD473BEA9AD32B9D633655D" x="65.191" y="0" fill="oklab(70.664% -0.00024 0.00083)" fill-rule="nonzero"/><use xlink:href="#gABB9F1B4C6313DD44D3DD6524A14736D" x="67.039" y="0" fill="oklab(70.664% -0.00024 0.00083)" fill-rule="nonzero"/><use xlink:href="#gACEEC821E32B0AF4C95491008446F924" x="71.001" y="0" fill="oklab(70.664% -0.00024 0.00083)" fill-rule="nonzero"/><use xlink:href="#g586F6F4EF3F12A17845F726CFBB79853" x="74.501" y="0" fill="oklab(70.664% -0.00024 0.00083)" fill-rule="nonzero"/><use xlink:href="#gEED51DA56EC6F651CDEA9C1904670910" x="78.288" y="0" fill="oklab(70.664% -0.00024 0.00083)" fill-rule="nonzero"/><use xlink:href="#g15DA33CDDA977652EC4FAB62F28BD18E" x="80.836" y="0" fill="oklab(70.664% -0.00024 0.00083)" fill-rule="nonzero"/><use xlink:href="#gF4F4BFD7DBEE0C9B799E1FA2BF07A520" x="84.364" y="0" fill="oklab(70.664% -0.00024 0.00083)" fill-rule="nonzero"/><use xlink:href="#gA7BF18C335220D5E7117B3A9324A7487" x="86.268" y="0" fill="oklab(70.664% -0.00024 0.00083)" fill-rule="nonzero"/><use xlink:href="#gFB891BE0A6F67F5DCF46E294A74CDFE3" x="89.446" y="0" fill="oklab(70.664% -0.00024 0.00083)" fill-rule="nonzero"/><use xlink:href="#gABB9F1B4C6313DD44D3DD6524A14736D" x="92.442" y="0" fill="oklab(70.664% -0.00024 0.00083)" fill-rule="nonzero"/></g><g transform="matrix(1 0 0 -1 176.906968504 82.721606299)"><use xlink:href="#gABC9746C45A0EDC29020BEE77353565B" x="0" y="0" fill="oklab(70.664% -0.00024 0.00083)" fill-rule="nonzero"/></g><path fill="oklab(29.299% -0.00004 0.00013)" fill-rule="nonzero" transform="translate(195.251968504 44.795)" d="M 0 0m 0 2.75c 0 -1.518783062 1.231216938 -2.75 2.75 -2.75h 150.251968504c 1.518783062 0 2.75 1.231216938 2.75 2.75v 61.799212598c 0 1.518783062 -1.231216938 2.75 -2.75 2.75h -150.251968504c -1.518783062 0 -2.75 -1.231216938 -2.75 -2.75Z "/><path fill="none" stroke="oklab(36.82% -0.00007 0.00025)" stroke-width="0.5" stroke-linecap="butt" stroke-linejoin="miter" stroke-miterlimit="4" transform="translate(195.251968504 44.795)" d="M 0 0m 2.75 0h 150.251968504c 1.518783062 0 2.75 1.231216938 2.75 2.75v 61.799212598c 0 1.518783062 -1.231216938 2.75 -2.75 2.75h -150.251968504c -1.518783062 0 -2.75 -1.231216938 -2.75 -2.75v -61.799212598c 0 -1.518783062 1.231216938 -2.75 2.75 -2.75"/><g transform="matrix(1 0 0 -1 234.248452756 77.189106299)"><use xlink:href="#g453A32922757F3F32A7A2644294359E5" x="0" y="0" fill="#f5f5f4" fill-rule="nonzero"/><use xlink:href="#g805F4A875668C9F44726675C950B1BF5" x="3.938" y="0" fill="#f5f5f4" fill-rule="nonzero"/><use xlink:href="#g47C477A4B9B11053B4775F3BF201C465" x="9.504" y="0" fill="#f5f5f4" fill-rule="nonzero"/><use xlink:href="#g3D10C80058B8A2499EDE8ED7FF46B553" x="14.212" y="0" fill="#f5f5f4" fill-rule="nonzero"/><use xlink:href="#gC14BE50F1468F5902AA9D472AD29244E" x="19.943" y="0" fill="#f5f5f4" fill-rule="nonzero"/><use xlink:href="#g453A32922757F3F32A7A2644294359E5" x="25.322" y="0" fill="#f5f5f4" fill-rule="nonzero"/><use xlink:href="#gD2AA3B4ACBC41440BCB2A32823E63FB0" x="29.26" y="0" fill="#f5f5f4" fill-rule="nonzero"/><use xlink:href="#g6FC90B5DBBBD9B59457434959F101F1F" x="36.707" y="0" fill="#f5f5f4" fill-rule="nonzero"/><use xlink:href="#g2D5B92E3E4024BC0BA8952CC9DC03EB3" x="43.098" y="0" fill="#f5f5f4" fill-rule="nonzero"/><use xlink:href="#g6FC90B5DBBBD9B59457434959F101F1F" x="46.64" y="0" fill="#f5f5f4" fill-rule="nonzero"/><use xlink:href="#gC14BE50F1468F5902AA9D472AD29244E" x="53.108" y="0" fill="#f5f5f4" fill-rule="nonzero"/><use xlink:href="#gFDB9066647BF256CAB5F7E35AAB6AC33" x="58.487" y="0" fill="#f5f5f4" fill-rule="nonzero"/><use xlink:href="#g2D5B92E3E4024BC0BA8952CC9DC03EB3" x="62.062" y="0" fill="#f5f5f4" fill-rule="nonzero"/><use xlink:href="#g1143AE89DED3DE0B703E6104D3FB935E" x="65.604" y="0" fill="#f5f5f4" fill-rule="nonzero"/><use xlink:href="#gC14BE50F1468F5902AA9D472AD29244E" x="72.38" y="0" fill="#f5f5f4" fill-rule="nonzero"/></g><g transform="matrix(1 0 0 -1 241.620952756 86.795106299)"><use xlink:href="#g9058E2A4AD22408D53EAD5B2801CF3F8" x="0" y="0" fill="oklab(70.664% -0.00024 0.00083)" fill-rule="nonzero"/><use xlink:href="#gA7BF18C335220D5E7117B3A9324A7487" x="3.5" y="0" fill="oklab(70.664% -0.00024 0.00083)" fill-rule="nonzero"/><use xlink:href="#gF110F371CD849FA0EAB8C4CB22785684" x="6.629" y="0" fill="oklab(70.664% -0.00024 0.00083)" fill-rule="nonzero"/><use xlink:href="#gA7BF18C335220D5E7117B3A9324A7487" x="10.423" y="0" fill="oklab(70.664% -0.00024 0.00083)" fill-rule="nonzero"/><use xlink:href="#gEED51DA56EC6F651CDEA9C1904670910" x="13.552" y="0" fill="oklab(70.664% -0.00024 0.00083)" fill-rule="nonzero"/><use xlink:href="#g7F53C732E919D004D6F103F0B6654A5" x="16.156" y="0" fill="oklab(70.664% -0.00024 0.00083)" fill-rule="nonzero"/><use xlink:href="#gABB9F1B4C6313DD44D3DD6524A14736D" x="19.355" y="0" fill="oklab(70.664% -0.00024 0.00083)" fill-rule="nonzero"/><use xlink:href="#gA7BF18C335220D5E7117B3A9324A7487" x="21.567" y="0" fill="oklab(70.664% -0.00024 0.00083)" fill-rule="nonzero"/><use xlink:href="#gACEEC821E32B0AF4C95491008446F924" x="26.446" y="0" fill="oklab(70.664% -0.00024 0.00083)" fill-rule="nonzero"/><use xlink:href="#gEED51DA56EC6F651CDEA9C1904670910" x="29.946" y="0" fill="oklab(70.664% -0.00024 0.00083)" fill-rule="nonzero"/><use xlink:href="#gF03346E6A3FFD945A12950F24C79EA53" x="32.55" y="0" fill="oklab(70.664% -0.00024 0.00083)" fill-rule="nonzero"/><use xlink:href="#gF110F371CD849FA0EAB8C4CB22785684" x="36.267" y="0" fill="oklab(70.664% -0.00024 0.00083)" fill-rule="nonzero"/><use xlink:href="#gACEEC821E32B0AF4C95491008446F924" x="41.811" y="0" fill="oklab(70.664% -0.00024 0.00083)" fill-rule="nonzero"/><use xlink:href="#gEED51DA56EC6F651CDEA9C1904670910" x="45.311" y="0" fill="oklab(70.664% -0.00024 0.00083)" fill-rule="nonzero"/><use xlink:href="#gA7BF18C335220D5E7117B3A9324A7487" x="47.859" y="0" fill="oklab(70.664% -0.00024 0.00083)" fill-rule="nonzero"/><use xlink:href="#g2A00D5AD23258A592B8B29234C197A30" x="50.988" y="0" fill="oklab(70.664% -0.00024 0.00083)" fill-rule="nonzero"/><use xlink:href="#g15DA33CDDA977652EC4FAB62F28BD18E" x="54.67" y="0" fill="oklab(70.664% -0.00024 0.00083)" fill-rule="nonzero"/><use xlink:href="#gEED51DA56EC6F651CDEA9C1904670910" x="58.198" y="0" fill="oklab(70.664% -0.00024 0.00083)" fill-rule="nonzero"/><use xlink:href="#gABB9F1B4C6313DD44D3DD6524A14736D" x="60.802" y="0" fill="oklab(70.664% -0.00024 0.00083)" fill-rule="nonzero"/></g><g transform="matrix(1 0 0 -1 92.372984252 126.371212598)"><use xlink:href="#g10B7176955C36CE5FA5412723C35606F" x="0" y="0" fill="oklab(70.664% -0.00024 0.00083)" fill-rule="nonzero"/></g><g transform="matrix(1 0 0 -1 270.124952756 126.371212598)"><use xlink:href="#g10B7176955C36CE5FA5412723C35606F" x="0" y="0" fill="oklab(70.664% -0.00024 0.00083)" fill-rule="nonzero"/></g><path fill="oklab(29.299% -0.00004 0.00013)" fill-rule="nonzero" transform="translate(17.5 132.094212598)" d="M 0 0m 0 2.75c 0 -1.518783062 1.231216938 -2.75 2.75 -2.75h 150.251968504c 1.518783062 0 2.75 1.231216938 2.75 2.75v 61.799212598c 0 1.518783062 -1.231216938 2.75 -2.75 2.75h -150.251968504c -1.518783062 0 -2.75 -1.231216938 -2.75 -2.75Z "/><path fill="none" stroke="oklab(36.82% -0.00007 0.00025)" stroke-width="0.5" stroke-linecap="butt" stroke-linejoin="miter" stroke-miterlimit="4" transform="translate(17.5 132.094212598)" d="M 0 0m 2.75 0h 150.251968504c 1.518783062 0 2.75 1.231216938 2.75 2.75v 61.799212598c 0 1.518783062 -1.231216938 2.75 -2.75 2.75h -150.251968504c -1.518783062 0 -2.75 -1.231216938 -2.75 -2.75v -61.799212598c 0 -1.518783062 1.231216938 -2.75 2.75 -2.75"/><g transform="matrix(1 0 0 -1 70.422484252 164.488318898)"><use xlink:href="#g3D3238DF620450543BAD24E1071B67BE" x="0" y="0" fill="#f5f5f4" fill-rule="nonzero"/><use xlink:href="#gFD77BB960CB6A16FDAE898A1A0D1F4F" x="5.544" y="0" fill="#f5f5f4" fill-rule="nonzero"/><use xlink:href="#g2D5B92E3E4024BC0BA8952CC9DC03EB3" x="12.353" y="0" fill="#f5f5f4" fill-rule="nonzero"/><use xlink:href="#g1143AE89DED3DE0B703E6104D3FB935E" x="15.895" y="0" fill="#f5f5f4" fill-rule="nonzero"/><use xlink:href="#g634686C8EDE8BFEE70C07DDBDBAA86E3" x="22.671" y="0" fill="#f5f5f4" fill-rule="nonzero"/><use xlink:href="#g805F4A875668C9F44726675C950B1BF5" x="31.559" y="0" fill="#f5f5f4" fill-rule="nonzero"/><use xlink:href="#g6FC90B5DBBBD9B59457434959F101F1F" x="37.125" y="0" fill="#f5f5f4" fill-rule="nonzero"/><use xlink:href="#g6FC90B5DBBBD9B59457434959F101F1F" x="43.516" y="0" fill="#f5f5f4" fill-rule="nonzero"/></g><g transform="matrix(1 0 0 -1 38.070484252 174.094318898)"><use xlink:href="#gC3EE0A6F3DF532B00DE22A09A1CCFDA3" x="0" y="0" fill="oklab(70.664% -0.00024 0.00083)" fill-rule="nonzero"/><use xlink:href="#g15DA33CDDA977652EC4FAB62F28BD18E" x="5.53" y="0" fill="oklab(70.664% -0.00024 0.00083)" fill-rule="nonzero"/><use xlink:href="#g3AB780C36179048EC76D019079FF43A1" x="9.107" y="0" fill="oklab(70.664% -0.00024 0.00083)" fill-rule="nonzero"/><use xlink:href="#g837ABF615E89AD1298E5A795470413F1" x="12.649" y="0" fill="oklab(70.664% -0.00024 0.00083)" fill-rule="nonzero"/><use xlink:href="#g95109BF97F5D69311623DCB01E17B5" x="16.051" y="0" fill="oklab(70.664% -0.00024 0.00083)" fill-rule="nonzero"/><use xlink:href="#gF110F371CD849FA0EAB8C4CB22785684" x="17.948" y="0" fill="oklab(70.664% -0.00024 0.00083)" fill-rule="nonzero"/><use xlink:href="#g2A00D5AD23258A592B8B29234C197A30" x="21.742" y="0" fill="oklab(70.664% -0.00024 0.00083)" fill-rule="nonzero"/><use xlink:href="#gF03346E6A3FFD945A12950F24C79EA53" x="25.375" y="0" fill="oklab(70.664% -0.00024 0.00083)" fill-rule="nonzero"/><use xlink:href="#gABB9F1B4C6313DD44D3DD6524A14736D" x="29.092" y="0" fill="oklab(70.664% -0.00024 0.00083)" fill-rule="nonzero"/><use xlink:href="#gACEEC821E32B0AF4C95491008446F924" x="33.054" y="0" fill="oklab(70.664% -0.00024 0.00083)" fill-rule="nonzero"/><use xlink:href="#gC3EE0A6F3DF532B00DE22A09A1CCFDA3" x="36.554" y="0" fill="oklab(70.664% -0.00024 0.00083)" fill-rule="nonzero"/><use xlink:href="#g15DA33CDDA977652EC4FAB62F28BD18E" x="42.084" y="0" fill="oklab(70.664% -0.00024 0.00083)" fill-rule="nonzero"/><use xlink:href="#g3AB780C36179048EC76D019079FF43A1" x="45.661" y="0" fill="oklab(70.664% -0.00024 0.00083)" fill-rule="nonzero"/><use xlink:href="#g837ABF615E89AD1298E5A795470413F1" x="49.203" y="0" fill="oklab(70.664% -0.00024 0.00083)" fill-rule="nonzero"/><use xlink:href="#g7F53C732E919D004D6F103F0B6654A5" x="52.605" y="0" fill="oklab(70.664% -0.00024 0.00083)" fill-rule="nonzero"/><use xlink:href="#gF110F371CD849FA0EAB8C4CB22785684" x="55.804" y="0" fill="oklab(70.664% -0.00024 0.00083)" fill-rule="nonzero"/><use xlink:href="#g7F53C732E919D004D6F103F0B6654A5" x="59.598" y="0" fill="oklab(70.664% -0.00024 0.00083)" fill-rule="nonzero"/><use xlink:href="#g9D9F00457DD473BEA9AD32B9D633655D" x="62.797" y="0" fill="oklab(70.664% -0.00024 0.00083)" fill-rule="nonzero"/><use xlink:href="#gFCB1E9349BAA290E231F7FCF8330EA4A" x="64.645" y="0" fill="oklab(70.664% -0.00024 0.00083)" fill-rule="nonzero"/><use xlink:href="#gE526F6D2B84A63AE0DCACF8701BCF7C4" x="68.25" y="0" fill="oklab(70.664% -0.00024 0.00083)" fill-rule="nonzero"/><use xlink:href="#g95109BF97F5D69311623DCB01E17B5" x="70.98" y="0" fill="oklab(70.664% -0.00024 0.00083)" fill-rule="nonzero"/><use xlink:href="#gE526F6D2B84A63AE0DCACF8701BCF7C4" x="72.877" y="0" fill="oklab(70.664% -0.00024 0.00083)" fill-rule="nonzero"/><use xlink:href="#gACEEC821E32B0AF4C95491008446F924" x="77.357" y="0" fill="oklab(70.664% -0.00024 0.00083)" fill-rule="nonzero"/><use xlink:href="#gC3EE0A6F3DF532B00DE22A09A1CCFDA3" x="80.857" y="0" fill="oklab(70.664% -0.00024 0.00083)" fill-rule="nonzero"/><use xlink:href="#g15DA33CDDA977652EC4FAB62F28BD18E" x="86.387" y="0" fill="oklab(70.664% -0.00024 0.00083)" fill-rule="nonzero"/><use xlink:href="#g3AB780C36179048EC76D019079FF43A1" x="89.964" y="0" fill="oklab(70.664% -0.00024 0.00083)" fill-rule="nonzero"/><use xlink:href="#g837ABF615E89AD1298E5A795470413F1" x="93.506" y="0" fill="oklab(70.664% -0.00024 0.00083)" fill-rule="nonzero"/><use xlink:href="#gEED51DA56EC6F651CDEA9C1904670910" x="96.908" y="0" fill="oklab(70.664% -0.00024 0.00083)" fill-rule="nonzero"/><use xlink:href="#gA7BF18C335220D5E7117B3A9324A7487" x="99.456" y="0" fill="oklab(70.664% -0.00024 0.00083)" fill-rule="nonzero"/><use xlink:href="#g2A00D5AD23258A592B8B29234C197A30" x="102.585" y="0" fill="oklab(70.664% -0.00024 0.00083)" fill-rule="nonzero"/><use xlink:href="#g15DA33CDDA977652EC4FAB62F28BD18E" x="106.267" y="0" fill="oklab(70.664% -0.00024 0.00083)" fill-rule="nonzero"/><use xlink:href="#gEED51DA56EC6F651CDEA9C1904670910" x="109.795" y="0" fill="oklab(70.664% -0.00024 0.00083)" fill-rule="nonzero"/><use xlink:href="#gABB9F1B4C6313DD44D3DD6524A14736D" x="112.399" y="0" fill="oklab(70.664% -0.00024 0.00083)" fill-rule="nonzero"/></g><path fill="oklab(29.299% -0.00004 0.00013)" fill-rule="nonzero" transform="translate(195.251968504 132.094212598)" d="M 0 0m 0 2.75c 0 -1.518783062 1.231216938 -2.75 2.75 -2.75h 150.251968504c 1.518783062 0 2.75 1.231216938 2.75 2.75v 61.799212598c 0 1.518783062 -1.231216938 2.75 -2.75 2.75h -150.251968504c -1.518783062 0 -2.75 -1.231216938 -2.75 -2.75Z "/><path fill="none" stroke="oklab(36.82% -0.00007 0.00025)" stroke-width="0.5" stroke-linecap="butt" stroke-linejoin="miter" stroke-miterlimit="4" transform="translate(195.251968504 132.094212598)" d="M 0 0m 2.75 0h 150.251968504c 1.518783062 0 2.75 1.231216938 2.75 2.75v 61.799212598c 0 1.518783062 -1.231216938 2.75 -2.75 2.75h -150.251968504c -1.518783062 0 -2.75 -1.231216938 -2.75 -2.75v -61.799212598c 0 -1.518783062 1.231216938 -2.75 2.75 -2.75"/><g transform="matrix(1 0 0 -1 229.991452756 164.488318898)"><use xlink:href="#gAFB3C5EAF378765A23C47E208F605F7B" x="0" y="0" fill="#f5f5f4" fill-rule="nonzero"/><use xlink:href="#g702DD15580C814312A77DF50215F4E53" x="8.03" y="0" fill="#f5f5f4" fill-rule="nonzero"/><use xlink:href="#g805F4A875668C9F44726675C950B1BF5" x="14.608" y="0" fill="#f5f5f4" fill-rule="nonzero"/><use xlink:href="#g47C477A4B9B11053B4775F3BF201C465" x="20.174" y="0" fill="#f5f5f4" fill-rule="nonzero"/><use xlink:href="#g453A32922757F3F32A7A2644294359E5" x="24.882" y="0" fill="#f5f5f4" fill-rule="nonzero"/><use xlink:href="#g628D38FCFF0E42049F5AA83044B0F23B" x="28.82" y="0" fill="#f5f5f4" fill-rule="nonzero"/><use xlink:href="#gC14BE50F1468F5902AA9D472AD29244E" x="37.631" y="0" fill="#f5f5f4" fill-rule="nonzero"/><use xlink:href="#g31D79080895A54A2C03F3BFF9340AC07" x="42.933" y="0" fill="#f5f5f4" fill-rule="nonzero"/><use xlink:href="#g453A32922757F3F32A7A2644294359E5" x="49.104" y="0" fill="#f5f5f4" fill-rule="nonzero"/><use xlink:href="#gC14BE50F1468F5902AA9D472AD29244E" x="53.042" y="0" fill="#f5f5f4" fill-rule="nonzero"/><use xlink:href="#g1143AE89DED3DE0B703E6104D3FB935E" x="58.421" y="0" fill="#f5f5f4" fill-rule="nonzero"/><use xlink:href="#gD2AA3B4ACBC41440BCB2A32823E63FB0" x="65.197" y="0" fill="#f5f5f4" fill-rule="nonzero"/><use xlink:href="#g2D5B92E3E4024BC0BA8952CC9DC03EB3" x="69.894" y="0" fill="#f5f5f4" fill-rule="nonzero"/><use xlink:href="#g628D38FCFF0E42049F5AA83044B0F23B" x="73.436" y="0" fill="#f5f5f4" fill-rule="nonzero"/><use xlink:href="#g1143AE89DED3DE0B703E6104D3FB935E" x="79.497" y="0" fill="#f5f5f4" fill-rule="nonzero"/></g><g transform="matrix(1 0 0 -1 217.243452756 174.094318898)"><use xlink:href="#g7F53C732E919D004D6F103F0B6654A5" x="0" y="0" fill="oklab(70.664% -0.00024 0.00083)" fill-rule="nonzero"/><use xlink:href="#gFB891BE0A6F67F5DCF46E294A74CDFE3" x="3.199" y="0" fill="oklab(70.664% -0.00024 0.00083)" fill-rule="nonzero"/><use xlink:href="#gC3EE0A6F3DF532B00DE22A09A1CCFDA3" x="6.195" y="0" fill="oklab(70.664% -0.00024 0.00083)" fill-rule="nonzero"/><use xlink:href="#gA7BF18C335220D5E7117B3A9324A7487" x="11.725" y="0" fill="oklab(70.664% -0.00024 0.00083)" fill-rule="nonzero"/><use xlink:href="#g6AA6D8B4D8C57F47A3EF1021D9D774B2" x="14.854" y="0" fill="oklab(70.664% -0.00024 0.00083)" fill-rule="nonzero"/><use xlink:href="#g47BB5310464B59270B85DEDC04CF0BA7" x="17.22" y="0" fill="oklab(70.664% -0.00024 0.00083)" fill-rule="nonzero"/><use xlink:href="#gABB9F1B4C6313DD44D3DD6524A14736D" x="20.986" y="0" fill="oklab(70.664% -0.00024 0.00083)" fill-rule="nonzero"/><use xlink:href="#gC3EE0A6F3DF532B00DE22A09A1CCFDA3" x="23.198" y="0" fill="oklab(70.664% -0.00024 0.00083)" fill-rule="nonzero"/><use xlink:href="#g9D9F00457DD473BEA9AD32B9D633655D" x="28.728" y="0" fill="oklab(70.664% -0.00024 0.00083)" fill-rule="nonzero"/><use xlink:href="#gACEEC821E32B0AF4C95491008446F924" x="32.326" y="0" fill="oklab(70.664% -0.00024 0.00083)" fill-rule="nonzero"/><use xlink:href="#g7F53C732E919D004D6F103F0B6654A5" x="35.826" y="0" fill="oklab(70.664% -0.00024 0.00083)" fill-rule="nonzero"/><use xlink:href="#gFB891BE0A6F67F5DCF46E294A74CDFE3" x="39.025" y="0" fill="oklab(70.664% -0.00024 0.00083)" fill-rule="nonzero"/><use xlink:href="#gC3EE0A6F3DF532B00DE22A09A1CCFDA3" x="42.021" y="0" fill="oklab(70.664% -0.00024 0.00083)" fill-rule="nonzero"/><use xlink:href="#gA7BF18C335220D5E7117B3A9324A7487" x="47.551" y="0" fill="oklab(70.664% -0.00024 0.00083)" fill-rule="nonzero"/><use xlink:href="#g6AA6D8B4D8C57F47A3EF1021D9D774B2" x="50.68" y="0" fill="oklab(70.664% -0.00024 0.00083)" fill-rule="nonzero"/><use xlink:href="#gABB9F1B4C6313DD44D3DD6524A14736D" x="53.046" y="0" fill="oklab(70.664% -0.00024 0.00083)" fill-rule="nonzero"/><use xlink:href="#gFCB1E9349BAA290E231F7FCF8330EA4A" x="55.258" y="0" fill="oklab(70.664% -0.00024 0.00083)" fill-rule="nonzero"/><use xlink:href="#g2A00D5AD23258A592B8B29234C197A30" x="58.863" y="0" fill="oklab(70.664% -0.00024 0.00083)" fill-rule="nonzero"/><use xlink:href="#gE526F6D2B84A63AE0DCACF8701BCF7C4" x="62.496" y="0" fill="oklab(70.664% -0.00024 0.00083)" fill-rule="nonzero"/><use xlink:href="#gABB9F1B4C6313DD44D3DD6524A14736D" x="65.226" y="0" fill="oklab(70.664% -0.00024 0.00083)" fill-rule="nonzero"/><use xlink:href="#gACEEC821E32B0AF4C95491008446F924" x="69.188" y="0" fill="oklab(70.664% -0.00024 0.00083)" fill-rule="nonzero"/><use xlink:href="#g7F53C732E919D004D6F103F0B6654A5" x="72.688" y="0" fill="oklab(70.664% -0.00024 0.00083)" fill-rule="nonzero"/><use xlink:href="#gFB891BE0A6F67F5DCF46E294A74CDFE3" x="75.887" y="0" fill="oklab(70.664% -0.00024 0.00083)" fill-rule="nonzero"/><use xlink:href="#gC3EE0A6F3DF532B00DE22A09A1CCFDA3" x="78.883" y="0" fill="oklab(70.664% -0.00024 0.00083)" fill-rule="nonzero"/><use xlink:href="#gA7BF18C335220D5E7117B3A9324A7487" x="84.413" y="0" fill="oklab(70.664% -0.00024 0.00083)" fill-rule="nonzero"/><use xlink:href="#g6AA6D8B4D8C57F47A3EF1021D9D774B2" x="87.542" y="0" fill="oklab(70.664% -0.00024 0.00083)" fill-rule="nonzero"/><use xlink:href="#gEED51DA56EC6F651CDEA9C1904670910" x="89.908" y="0" fill="oklab(70.664% -0.00024 0.00083)" fill-rule="nonzero"/><use xlink:href="#gA7BF18C335220D5E7117B3A9324A7487" x="92.456" y="0" fill="oklab(70.664% -0.00024 0.00083)" fill-rule="nonzero"/><use xlink:href="#gA3CD6D12247FD6FFE6385EB7A756C355" x="95.536" y="0" fill="oklab(70.664% -0.00024 0.00083)" fill-rule="nonzero"/><use xlink:href="#gA7BF18C335220D5E7117B3A9324A7487" x="98.959" y="0" fill="oklab(70.664% -0.00024 0.00083)" fill-rule="nonzero"/><use xlink:href="#g7F53C732E919D004D6F103F0B6654A5" x="102.088" y="0" fill="oklab(70.664% -0.00024 0.00083)" fill-rule="nonzero"/><use xlink:href="#g9D9F00457DD473BEA9AD32B9D633655D" x="105.287" y="0" fill="oklab(70.664% -0.00024 0.00083)" fill-rule="nonzero"/><use xlink:href="#gF4F4BFD7DBEE0C9B799E1FA2BF07A520" x="107.135" y="0" fill="oklab(70.664% -0.00024 0.00083)" fill-rule="nonzero"/><use xlink:href="#gE526F6D2B84A63AE0DCACF8701BCF7C4" x="109.039" y="0" fill="oklab(70.664% -0.00024 0.00083)" fill-rule="nonzero"/></g><defs><symbol id="g805F4A875668C9F44726675C950B1BF5" overflow="visible"><path d="M 0 0m 3.245 0.539c 0.077 -0.451 0.374 -0.649 0.858 -0.649c 0.605 0 1.034 0.231 1.441 0.616c -0.022 0.132 -0.066 0.22 -0.198 0.308c -0.143 -0.11 -0.253 -0.154 -0.462 -0.154c -0.242 0 -0.308 0.198 -0.308 0.737l 0.022 1.584c 0 1.584 -0.979 1.903 -1.881 1.903c -0.803 0 -2.035 -0.462 -2.035 -1.188c 0 -0.308 0.132 -0.55 0.561 -0.55c 0.396 0 0.682 0.242 0.682 0.506c 0 0.055 -0.011 0.121 -0.022 0.187c -0.022 0.11 -0.044 0.22 -0.022 0.33c 0.011 0.121 0.099 0.253 0.462 0.253c 0.462 0 0.847 -0.198 0.847 -1.595l -0.737 -0.231c -1.155 -0.363 -1.969 -0.682 -1.969 -1.551c 0 -0.759 0.418 -1.155 1.375 -1.155c 0.319 0 0.957 0.352 1.32 0.638Z m -0.055 1.859v -1.452c -0.275 -0.22 -0.55 -0.396 -0.748 -0.396c -0.473 0 -0.638 0.319 -0.638 0.66c 0 0.407 0.033 0.748 0.814 1.001Z "/></symbol><symbol id="g91B01334F80632633C2B229D930B162" overflow="visible"><path d="M 0 0m 4.642 0.957c 0 0.132 -0.022 0.341 -0.143 0.341c -0.44 -0.407 -0.814 -0.616 -1.133 -0.616c -0.825 0 -1.474 0.594 -1.474 1.914c 0 1.221 0.275 1.826 0.858 1.826c 0.407 0 0.572 -0.429 0.605 -0.781c 0.033 -0.297 0.33 -0.517 0.682 -0.517c 0.352 0 0.605 0.275 0.605 0.616c 0 0.495 -0.594 1.144 -1.793 1.144c -1.298 0 -2.442 -1.045 -2.442 -2.673c 0 -0.715 0.253 -1.342 0.682 -1.749c 0.429 -0.407 0.935 -0.572 1.716 -0.572c 0.66 0 1.419 0.462 1.837 1.067Z "/></symbol><symbol id="gB1C98CEB2863E378D3B505B49CB5C4D2" overflow="visible"><path d="M 0 0m 2.508 1.342v 2.189c 0 0.055 0 0.11 0 0.165c 0.429 0.264 0.814 0.374 1.001 0.374c 0.44 0 0.77 -0.198 0.77 -0.825v -1.837c 0 -0.924 -0.176 -1.023 -0.627 -1.056c -0.066 -0.066 -0.066 -0.308 0 -0.374c 0.462 0.011 0.814 0.022 1.342 0.022c 0.528 0 0.869 -0.011 1.342 -0.022c 0.066 0.066 0.066 0.308 0 0.374c -0.44 0.033 -0.627 0.132 -0.627 1.056v 1.716c 0 0.275 -0.011 0.495 -0.044 0.605c 0.418 0.209 0.891 0.341 1.067 0.341c 0.44 0 0.748 -0.198 0.748 -0.825v -1.837c 0 -0.924 -0.176 -1.023 -0.627 -1.056c -0.066 -0.066 -0.066 -0.308 0 -0.374c 0.462 0.011 0.814 0.022 1.342 0.022c 0.605 0 1.089 -0.011 1.562 -0.022c 0.066 0.066 0.066 0.308 0 0.374c -0.671 0.033 -0.847 0.132 -0.847 1.056v 1.716c 0 1.21 -0.44 1.76 -1.386 1.76c -0.407 0 -1.331 -0.44 -1.969 -0.792c -0.165 0.473 -0.605 0.792 -1.254 0.792c -0.396 0 -1.188 -0.418 -1.815 -0.77c -0.033 0.33 -0.066 0.583 -0.066 0.583c -0.011 0.132 -0.099 0.187 -0.253 0.187c -0.407 -0.11 -1.067 -0.264 -1.826 -0.363c -0.022 -0.066 0 -0.286 0.022 -0.352c 0.605 -0.055 0.715 -0.143 0.715 -0.77v -2.057c 0 -0.913 -0.121 -0.935 -0.792 -0.99c -0.066 -0.066 -0.066 -0.308 0 -0.374c 0.462 0.011 0.924 0.022 1.507 0.022c 0.506 0 0.814 -0.011 1.287 -0.022c 0.066 0.066 0.066 0.308 0 0.374c -0.462 0.044 -0.572 0.077 -0.572 0.99Z "/></symbol><symbol id="gC14BE50F1468F5902AA9D472AD29244E" overflow="visible"><path d="M 0 0m 4.741 1.419c -0.451 -0.462 -1.045 -0.583 -1.463 -0.583c -0.858 0 -1.386 0.495 -1.386 1.573c 0 0.077 0.011 0.121 0.011 0.176h 2.64c 0.264 0 0.319 0.187 0.319 0.341c 0 0.935 -0.363 1.958 -1.98 1.958c -1.155 0 -2.475 -1.023 -2.475 -2.706c 0 -0.638 0.231 -1.309 0.704 -1.738c 0.418 -0.374 0.957 -0.55 1.738 -0.55c 0.759 0 1.507 0.385 2.057 1.188c 0 0.143 -0.055 0.341 -0.165 0.341Z m -2.794 1.606c 0.011 0.385 0.066 0.803 0.22 1.023c 0.176 0.264 0.473 0.374 0.594 0.374c 0.297 0 0.704 -0.286 0.704 -1.166c 0 -0.066 0 -0.209 -0.022 -0.231Z "/></symbol><symbol id="gBEC4FA6960B1D9FF0F7FEE7720207F05" overflow="visible"><path d="M 0 0m 0.539 0.638c 0 -0.418 0.352 -0.748 0.792 -0.748c 0.44 0 0.814 0.352 0.814 0.77c 0 0.429 -0.352 0.759 -0.792 0.759c -0.44 0 -0.814 -0.352 -0.814 -0.781Z "/></symbol><symbol id="g453A32922757F3F32A7A2644294359E5" overflow="visible"><path d="M 0 0m 0.693 4.774c -0.154 0 -0.319 -0.044 -0.462 -0.165v -0.319c 0 -0.055 0.011 -0.066 0.055 -0.066h 0.715c -0.022 -1.111 -0.033 -2.519 -0.033 -3.069c 0 -0.385 0.099 -0.759 0.33 -0.957c 0.253 -0.209 0.649 -0.308 0.913 -0.308c 0.605 0 1.276 0.308 1.496 0.616c 0 0.132 -0.066 0.198 -0.198 0.308c -0.143 -0.11 -0.418 -0.154 -0.627 -0.154c -0.242 0 -0.484 0.187 -0.484 0.737c 0 0.55 -0.011 1.727 -0.011 2.827h 1.111c 0.11 0 0.264 0.044 0.264 0.143v 0.341c 0 0.044 -0.033 0.066 -0.088 0.066h -1.287l 0.011 0.374c 0.022 0.737 0.055 1.243 0.055 1.243c 0 0.066 -0.033 0.099 -0.088 0.099c -0.077 0 -0.484 -0.121 -0.66 -0.198c -0.187 -0.077 -0.506 -0.143 -0.583 -0.242c -0.077 -0.099 -0.121 -0.396 -0.121 -1.276Z "/></symbol><symbol id="g628D38FCFF0E42049F5AA83044B0F23B" overflow="visible"><path d="M 0 0m 0.407 2.277c 0 -1.441 1.144 -2.387 2.618 -2.387c 0.781 0 1.43 0.22 1.881 0.627c 0.561 0.495 0.748 1.243 0.748 1.859c 0 1.441 -0.979 2.508 -2.618 2.508c -0.913 0 -1.595 -0.319 -2.024 -0.814c -0.418 -0.484 -0.605 -1.144 -0.605 -1.793Z m 2.453 2.145c 0.748 0 1.254 -0.891 1.254 -2.398c 0 -1.32 -0.517 -1.672 -0.913 -1.672c -0.902 0 -1.254 1.353 -1.254 2.167c 0 1.012 0.176 1.903 0.913 1.903Z "/></symbol><symbol id="gFDB9066647BF256CAB5F7E35AAB6AC33" overflow="visible"><path d="M 0 0m 1.1 1.397c 0 -0.913 -0.176 -1.012 -0.847 -1.045c -0.066 -0.066 -0.066 -0.308 0 -0.374c 0.462 0.011 0.957 0.022 1.562 0.022c 0.605 0 1.089 -0.011 1.562 -0.022c 0.066 0.066 0.066 0.308 0 0.374c -0.671 0.033 -0.847 0.132 -0.847 1.045v 5.016c 0 0.715 0.033 1.122 0.033 1.122c 0 0.099 -0.077 0.143 -0.176 0.143c -0.407 -0.132 -1.287 -0.253 -2.068 -0.286c -0.033 -0.132 -0.022 -0.253 0.033 -0.352c 0.693 -0.055 0.748 -0.066 0.748 -0.825Z "/></symbol><symbol id="g967D4E6F53FF9C93C5840D1ABE9ADADD" overflow="visible"><path d="M 0 0m 1.1 1.397c 0 -0.913 -0.176 -1.012 -0.847 -1.045c -0.066 -0.066 -0.066 -0.308 0 -0.374c 0.462 0.011 0.957 0.022 1.562 0.022c 0.484 0 0.968 -0.011 1.232 -0.022c 0.066 0.066 0.066 0.308 0 0.374c -0.33 0.044 -0.517 0.132 -0.517 1.045v 0.902c 0.308 0 0.649 -0.033 0.759 -0.209c 0.253 -0.374 0.561 -0.825 0.748 -1.232c 0.143 -0.308 0.176 -0.407 0.176 -0.572v -0.286l 0.022 -0.022c 0 0 0.495 0.022 0.88 0.022c 0.451 0 1.067 -0.011 1.474 -0.022c 0.066 0.066 0.066 0.308 0 0.374c -0.429 0.044 -0.671 0.011 -1.001 0.506l -1.276 1.881c -0.055 0.077 -0.077 0.165 -0.033 0.22l 0.55 0.605c 0.352 0.385 0.649 0.77 1.485 0.858c 0.066 0.066 0.066 0.308 0 0.374c -0.242 -0.011 -0.935 -0.022 -1.221 -0.022c -0.407 0 -0.924 0.011 -1.331 0.022c -0.066 -0.066 -0.066 -0.308 0 -0.374c 0.594 -0.044 0.77 -0.143 0.451 -0.583c -0.242 -0.33 -0.484 -0.594 -0.704 -0.792c -0.143 -0.121 -0.649 -0.308 -0.979 -0.308v 3.674c 0 0.715 0.033 1.122 0.033 1.122c 0 0.099 -0.077 0.143 -0.176 0.143c -0.407 -0.132 -1.287 -0.253 -2.068 -0.286c -0.033 -0.132 -0.022 -0.253 0.033 -0.352c 0.693 -0.055 0.748 -0.066 0.748 -0.825Z "/></symbol><symbol id="g2D5B92E3E4024BC0BA8952CC9DC03EB3" overflow="visible"><path d="M 0 0m 2.552 1.342v 2.189c 0 0.55 0.044 1.166 0.044 1.166c 0 0.121 -0.099 0.187 -0.253 0.187c -0.308 -0.121 -1.199 -0.209 -1.958 -0.308c -0.022 -0.066 0 -0.286 0.022 -0.352c 0.605 -0.055 0.715 -0.143 0.715 -0.77v -2.112c 0 -0.913 -0.121 -0.935 -0.792 -0.99c -0.066 -0.066 -0.066 -0.308 0 -0.374c 0.462 0.011 0.924 0.022 1.507 0.022c 0.583 0 1.034 -0.011 1.507 -0.022c 0.066 0.066 0.066 0.308 0 0.374c -0.671 0.044 -0.792 0.077 -0.792 0.99Z m -1.485 5.214c 0 -0.363 0.264 -0.726 0.704 -0.726c 0.495 0 0.781 0.396 0.781 0.682c 0 0.33 -0.253 0.726 -0.715 0.726c -0.517 0 -0.77 -0.352 -0.77 -0.682Z "/></symbol><symbol id="g3D3238DF620450543BAD24E1071B67BE" overflow="visible"><path d="M 0 0m 4.631 6.941c -0.605 0.088 -0.836 0.297 -1.859 0.297c -0.495 0 -1.144 -0.154 -1.606 -0.528c -0.407 -0.33 -0.715 -0.836 -0.715 -1.375c 0 -0.418 0.11 -0.946 0.363 -1.276c 0.506 -0.682 1.419 -1.056 1.892 -1.386c 0.506 -0.352 1.001 -0.792 1.001 -1.408c 0 -0.539 -0.473 -0.913 -1.144 -0.913c -0.737 0 -1.496 0.605 -1.716 1.606c -0.176 0.066 -0.352 0.022 -0.517 -0.022c -0.011 0 -0.022 -0.011 -0.033 -0.011c 0 -0.825 0.088 -1.408 0.209 -1.815c 0.627 0 0.66 -0.22 2.178 -0.22c 0.671 0 1.21 0.198 1.661 0.605c 0.396 0.341 0.748 0.847 0.748 1.529c 0 0.572 -0.242 0.957 -0.572 1.32c -0.429 0.473 -1.045 0.814 -1.474 1.034c -0.44 0.22 -1.221 0.792 -1.221 1.419c 0 0.616 0.374 0.99 0.935 0.99c 0.935 0 1.243 -0.847 1.441 -1.573c 0.154 -0.044 0.429 -0.044 0.55 0.055c 0 0.583 -0.044 1.034 -0.121 1.672Z "/></symbol><symbol id="g5436BD544ECE03432793975AD4760DBB" overflow="visible"><path d="M 0 0m 2.024 5.478h 2.145c -0.726 -1.496 -1.98 -3.894 -2.838 -5.478l 0.066 -0.132l 1.122 0.11c 0.737 1.881 1.331 3.531 2.75 6.523l -0.066 0.099h -3.685c -0.374 0 -0.396 0.11 -0.594 0.154c -0.033 0 -0.044 0 -0.044 -0.033c -0.011 -0.528 -0.132 -1.595 -0.22 -2.167c 0.143 -0.044 0.253 -0.055 0.385 -0.033c 0.242 0.88 0.616 0.957 0.979 0.957Z "/></symbol><symbol id="gE177666A084CE018A9AE7FDF45719721" overflow="visible"><path d="M 0 0m 0.814 1.397c 0 -0.913 -0.022 -1.045 -0.066 -1.463c 0.132 -0.044 0.253 -0.077 0.374 -0.077c 0.143 0.121 0.253 0.275 0.352 0.473c 0.429 -0.33 1.1 -0.44 1.606 -0.44c 1.221 0 2.508 1.21 2.508 2.783c 0 0.627 -0.242 1.243 -0.594 1.65c -0.396 0.451 -0.924 0.561 -1.507 0.561c -0.341 0 -0.924 -0.385 -1.243 -0.616v 2.145c 0 0.715 0.033 1.122 0.033 1.122c 0 0.099 -0.077 0.143 -0.176 0.143c -0.407 -0.132 -1.287 -0.253 -2.068 -0.286c -0.033 -0.132 -0.022 -0.253 0.033 -0.352c 0.693 -0.055 0.748 -0.066 0.748 -0.825Z m 1.43 2.431c 0.363 0.242 0.605 0.275 0.858 0.275c 0.539 0 0.946 -0.495 0.946 -1.573c 0 -0.902 -0.154 -2.178 -1.023 -2.178c -0.319 0 -0.572 0.132 -0.781 0.385Z "/></symbol><symbol id="gCFF0DA99E5CFE2CECE774A25DE75EE69" overflow="visible"><path d="M 0 0m 1.122 3.454v -2.618c 0 -0.627 0.077 -1.122 0.077 -1.848c 0 -0.363 -0.187 -0.792 -0.517 -0.792c -0.154 0 -0.209 0.077 -0.33 0.198c -0.176 0.176 -0.385 0.451 -0.759 0.451c -0.187 0 -0.55 -0.352 -0.55 -0.66c 0 -0.495 0.616 -0.737 0.946 -0.737c 0.858 0 1.265 0.275 1.672 0.616c 0.517 0.418 0.891 1.067 0.891 3.146v 2.321c 0 0.55 0.044 1.166 0.044 1.166c 0 0.121 -0.099 0.187 -0.253 0.187c -0.308 -0.121 -1.199 -0.209 -1.958 -0.308c -0.022 -0.066 0 -0.286 0.022 -0.352c 0.605 -0.055 0.715 -0.143 0.715 -0.77Z m -0.077 3.102c 0 -0.363 0.264 -0.726 0.704 -0.726c 0.495 0 0.781 0.396 0.781 0.682c 0 0.33 -0.253 0.726 -0.715 0.726c -0.517 0 -0.77 -0.352 -0.77 -0.682Z "/></symbol><symbol id="g6DC7C83518F7696205F98713009FDA0F" overflow="visible"><path d="M 0 0m 3.905 0.528c 0.022 -0.264 0.044 -0.451 0.044 -0.451c 0.011 -0.132 0.099 -0.187 0.253 -0.187c 0.407 0.11 1.067 0.264 1.826 0.363c 0.022 0.066 0 0.286 -0.022 0.352c -0.594 0.055 -0.715 0.231 -0.715 0.858v 4.95c 0 0.715 0.033 1.122 0.033 1.122c 0 0.099 -0.077 0.143 -0.176 0.143c -0.407 -0.132 -1.287 -0.253 -2.068 -0.286c -0.033 -0.132 -0.022 -0.275 0.033 -0.374c 0.693 -0.055 0.748 -0.066 0.748 -0.825v -1.43c -0.209 0.066 -0.473 0.121 -0.792 0.121c -1.419 0 -2.662 -1.243 -2.662 -2.706c 0 -0.649 0.231 -1.408 0.77 -1.826c 0.396 -0.308 0.671 -0.462 1.287 -0.462c 0.297 0 1.111 0.484 1.342 0.638Z m -0.033 0.517c -0.231 -0.187 -0.814 -0.429 -0.946 -0.429c -0.55 0 -0.979 0.616 -0.979 1.903c 0 0.583 0.066 1.089 0.275 1.43c 0.187 0.297 0.484 0.473 0.814 0.473c 0.286 0 0.561 -0.033 0.825 -0.396v -2.706c 0 -0.088 0 -0.187 0.011 -0.275Z "/></symbol><symbol id="g278CDBF56D01CEF52DD9E59412421D51" overflow="visible"><path d="M 0 0m 1.036 4.515c -0.252 0 -0.623 0.007 -0.903 0.014c -0.042 -0.042 -0.042 -0.189 0 -0.231c 0.49 -0.021 0.609 -0.056 0.609 -0.637v -2.807c 0 -0.581 -0.119 -0.616 -0.609 -0.637c -0.042 -0.042 -0.042 -0.189 0 -0.231c 0.273 0.007 0.644 0.014 0.91 0.014c 0.259 0 0.553 -0.014 1.274 -0.014c 0.987 0 2.289 0.448 2.289 2.17c 0 1.302 -1.071 2.373 -2.415 2.373c -0.497 0 -0.882 -0.014 -1.155 -0.014Z m 0.301 -3.927v 3.36c 0 0.245 0.245 0.343 0.588 0.343c 1.512 0 2.009 -1.225 2.009 -2.303c 0 -1.414 -0.847 -1.764 -1.834 -1.764c -0.686 0 -0.763 0.14 -0.763 0.364Z "/></symbol><symbol id="g7F53C732E919D004D6F103F0B6654A5" overflow="visible"><path d="M 0 0m 2.051 0.336c 0.042 -0.217 0.119 -0.406 0.469 -0.406c 0.266 0 0.518 0.119 0.665 0.259c -0.014 0.084 -0.042 0.147 -0.119 0.189c -0.049 -0.042 -0.168 -0.112 -0.259 -0.112c -0.203 0 -0.21 0.273 -0.21 0.595v 1.029c 0 0.994 -0.546 1.183 -1.057 1.183c -0.574 0 -1.155 -0.378 -1.155 -0.777c 0 -0.168 0.084 -0.252 0.245 -0.252c 0.203 0 0.329 0.147 0.329 0.238c 0 0.049 -0.007 0.098 -0.021 0.126c -0.007 0.021 -0.014 0.063 -0.014 0.14c 0 0.217 0.294 0.294 0.56 0.294c 0.238 0 0.567 -0.119 0.567 -0.91c 0 -0.049 -0.021 -0.077 -0.042 -0.084l -0.602 -0.147c -0.672 -0.168 -1.155 -0.539 -1.155 -1.015c 0 -0.574 0.392 -0.756 0.882 -0.756c 0.245 0 0.455 0.056 0.763 0.294l 0.14 0.112Z m 0 1.295v -0.924c 0 -0.091 -0.042 -0.14 -0.098 -0.182c -0.182 -0.147 -0.42 -0.308 -0.616 -0.308c -0.35 0 -0.504 0.28 -0.504 0.497c 0 0.315 0.147 0.637 0.665 0.77Z "/></symbol><symbol id="gABB9F1B4C6313DD44D3DD6524A14736D" overflow="visible"><path d="M 0 0m 0.301 3.003c -0.098 0 -0.126 -0.084 -0.126 -0.14v -0.091c 0 -0.035 0.007 -0.042 0.035 -0.042h 0.413v -2.107c 0 -0.497 0.217 -0.693 0.539 -0.693c 0.322 0 0.672 0.154 0.945 0.462c -0.014 0.07 -0.056 0.112 -0.126 0.119c -0.182 -0.14 -0.392 -0.196 -0.574 -0.196c -0.189 0 -0.231 0.21 -0.231 0.644v 1.771h 0.728c 0.07 0 0.168 0.028 0.168 0.091v 0.14c 0 0.028 -0.021 0.042 -0.056 0.042h -0.84v 0.273c 0 0.455 0.028 0.735 0.028 0.735c 0 0.042 -0.021 0.063 -0.056 0.063c -0.028 0 -0.091 -0.028 -0.154 -0.063c -0.077 -0.042 -0.147 -0.077 -0.238 -0.098c -0.084 -0.028 -0.154 -0.049 -0.154 -0.098c 0 -0.084 0.021 -0.035 0.021 -0.812Z "/></symbol><symbol id="gE526F6D2B84A63AE0DCACF8701BCF7C4" overflow="visible"><path d="M 0 0m 0.336 0.966c 0.028 -0.343 0.049 -0.672 0.049 -0.966c 0.07 0.014 0.14 0.021 0.175 0.021c 0.049 0 0.091 0 0.14 -0.014c 0.189 -0.049 0.378 -0.077 0.637 -0.077c 0.392 0 1.113 0.189 1.113 0.882c 0 0.476 -0.343 0.756 -0.819 0.931c -0.42 0.161 -0.7 0.266 -0.7 0.651c 0 0.287 0.252 0.448 0.49 0.448c 0.154 0 0.56 -0.056 0.651 -0.651c 0.042 -0.042 0.182 -0.035 0.224 0.007c 0.021 0.252 0.035 0.511 0.042 0.742c -0.217 0.035 -0.553 0.133 -0.917 0.133c -0.518 0 -0.987 -0.336 -0.987 -0.784c 0 -0.511 0.231 -0.728 0.77 -0.952c 0.581 -0.238 0.714 -0.385 0.714 -0.686c 0 -0.343 -0.336 -0.49 -0.595 -0.49c -0.273 0 -0.427 0.091 -0.497 0.168c -0.154 0.161 -0.231 0.469 -0.273 0.644c -0.042 0.042 -0.175 0.035 -0.217 -0.007Z "/></symbol><symbol id="gA7BF18C335220D5E7117B3A9324A7487" overflow="visible"><path d="M 0 0m 2.702 0.651c -0.259 -0.266 -0.462 -0.378 -0.868 -0.378c -0.252 0 -0.546 0.147 -0.763 0.504c -0.14 0.231 -0.224 0.553 -0.224 0.959l 1.862 -0.014c 0.084 0 0.133 0.042 0.133 0.119c 0 0.588 -0.21 1.218 -1.183 1.218c -0.609 0 -1.4 -0.581 -1.4 -1.645c 0 -0.392 0.098 -0.77 0.329 -1.036c 0.238 -0.28 0.567 -0.448 1.071 -0.448c 0.532 0 0.91 0.245 1.19 0.609c -0.021 0.07 -0.063 0.105 -0.147 0.112Z m -1.834 1.323c 0.133 0.791 0.623 0.854 0.791 0.854c 0.266 0 0.581 -0.147 0.581 -0.735c 0 -0.063 -0.028 -0.098 -0.105 -0.098Z "/></symbol><symbol id="gACEEC821E32B0AF4C95491008446F924" overflow="visible"><path d="M 0 0m 0.875 1.393c 0.196 0 0.378 0.182 0.378 0.378c 0 0.196 -0.182 0.378 -0.378 0.378c -0.196 0 -0.378 -0.182 -0.378 -0.378c 0 -0.196 0.182 -0.378 0.378 -0.378Z "/></symbol><symbol id="g33A69BF2376C3C48FD05BABB631680A7" overflow="visible"><path d="M 0 0m 1.085 0.553l 0.385 1.015c 0.035 0.091 0.077 0.119 0.245 0.119h 1.477l 0.406 -1.183c 0.084 -0.238 -0.182 -0.266 -0.518 -0.287c -0.042 -0.042 -0.042 -0.189 0 -0.231c 0.259 0.007 0.644 0.014 0.917 0.014c 0.287 0 0.553 -0.007 0.798 -0.014c 0.042 0.042 0.042 0.189 0 0.231c -0.273 0.028 -0.511 0.049 -0.63 0.385l -1.442 4.004c -0.105 -0.063 -0.294 -0.14 -0.385 -0.14l -1.589 -3.752c -0.182 -0.434 -0.392 -0.476 -0.7 -0.497c -0.042 -0.042 -0.042 -0.189 0 -0.231c 0.182 0.007 0.413 0.014 0.623 0.014c 0.287 0 0.637 -0.007 0.896 -0.014c 0.042 0.042 0.042 0.189 0 0.231c -0.266 0.021 -0.595 0.049 -0.483 0.336Z m 0.756 1.428c -0.154 0 -0.203 0.021 -0.175 0.091l 0.714 1.813h 0.042l 0.658 -1.904Z "/></symbol><symbol id="gF110F371CD849FA0EAB8C4CB22785684" overflow="visible"><path d="M 0 0m 1.288 2.506c -0.042 -0.049 -0.084 -0.063 -0.084 0c -0.007 0.189 -0.021 0.462 -0.056 0.532c -0.014 0.035 -0.028 0.056 -0.084 0.056c -0.196 -0.077 -0.378 -0.14 -0.861 -0.203c -0.014 -0.042 0 -0.154 0.014 -0.196c 0.378 -0.035 0.455 -0.07 0.455 -0.476v -1.365c 0 -0.574 -0.07 -0.602 -0.49 -0.637c -0.042 -0.042 -0.042 -0.189 0 -0.231c 0.21 0.007 0.49 0.014 0.77 0.014c 0.28 0 0.49 -0.007 0.7 -0.014c 0.042 0.042 0.042 0.189 0 0.231c -0.357 0.035 -0.427 0.063 -0.427 0.637v 1.148c 0 0.147 0.063 0.231 0.119 0.294c 0.266 0.259 0.581 0.413 0.854 0.413c 0.14 0 0.287 -0.091 0.371 -0.252c 0.07 -0.14 0.084 -0.329 0.084 -0.539v -1.064c 0 -0.574 -0.07 -0.602 -0.434 -0.637c -0.035 -0.042 -0.035 -0.189 0 -0.231c 0.21 0.007 0.434 0.014 0.714 0.014c 0.28 0 0.532 -0.007 0.742 -0.014c 0.035 0.042 0.035 0.189 0 0.231c -0.392 0.035 -0.469 0.063 -0.469 0.637v 1.043c 0 0.385 -0.028 0.721 -0.189 0.938c -0.119 0.154 -0.336 0.238 -0.581 0.238c -0.343 0 -0.735 -0.091 -1.148 -0.567Z "/></symbol><symbol id="g9D9F00457DD473BEA9AD32B9D633655D" overflow="visible"><path d="M 0 0m 0.665 0.854c 0 -0.581 -0.077 -0.616 -0.504 -0.637c -0.042 -0.042 -0.042 -0.189 0 -0.231c 0.245 0.007 0.504 0.014 0.784 0.014c 0.28 0 0.546 -0.007 0.777 -0.014c 0.042 0.042 0.042 0.189 0 0.231c -0.427 0.021 -0.504 0.056 -0.504 0.637v 3.227c 0 0.455 0.028 0.735 0.028 0.735c 0 0.049 -0.028 0.07 -0.091 0.07c -0.175 -0.07 -0.7 -0.168 -0.98 -0.189c -0.014 -0.056 0 -0.168 0.042 -0.21c 0.406 -0.028 0.448 -0.049 0.448 -0.574Z "/></symbol><symbol id="gFCB1E9349BAA290E231F7FCF8330EA4A" overflow="visible"><path d="M 0 0m 1.428 -1.12c 0.112 0.196 0.203 0.392 0.287 0.602c 0.56 1.351 0.875 2.072 1.239 2.856c 0.14 0.294 0.238 0.406 0.567 0.448c 0.042 0.042 0.042 0.189 0 0.231c -0.14 -0.007 -0.301 -0.014 -0.497 -0.014c -0.21 0 -0.427 0.007 -0.637 0.014c -0.042 -0.042 -0.042 -0.189 0 -0.231c 0.224 -0.021 0.448 -0.063 0.336 -0.315l -0.693 -1.603c -0.049 -0.112 -0.112 -0.133 -0.168 0.007l -0.623 1.456c -0.126 0.294 -0.161 0.427 0.231 0.455c 0.042 0.042 0.042 0.189 0 0.231c -0.259 -0.007 -0.539 -0.014 -0.791 -0.014c -0.238 0 -0.427 0.007 -0.567 0.014c -0.042 -0.042 -0.042 -0.189 0 -0.231c 0.28 -0.035 0.371 -0.098 0.553 -0.525l 0.791 -1.841c 0.063 -0.14 0.168 -0.462 0.098 -0.658c -0.084 -0.231 -0.168 -0.427 -0.273 -0.644c -0.077 -0.14 -0.175 -0.203 -0.35 -0.203c -0.098 0 -0.126 0.021 -0.203 0.021c -0.203 0 -0.308 -0.21 -0.308 -0.301c 0 -0.147 0.14 -0.259 0.329 -0.259c 0.147 0 0.427 0.056 0.679 0.504Z "/></symbol><symbol id="g95109BF97F5D69311623DCB01E17B5" overflow="visible"><path d="M 0 0m 1.267 0.854v 1.393c 0 0.35 0.028 0.798 0.028 0.798c 0 0.028 -0.035 0.049 -0.091 0.049c -0.196 -0.077 -0.476 -0.14 -0.959 -0.203c -0.014 -0.042 0 -0.154 0.014 -0.196c 0.385 -0.035 0.455 -0.077 0.455 -0.476v -1.365c 0 -0.581 -0.077 -0.602 -0.504 -0.637c -0.042 -0.042 -0.042 -0.189 0 -0.231c 0.231 0.007 0.504 0.014 0.784 0.014c 0.28 0 0.546 -0.007 0.777 -0.014c 0.042 0.042 0.042 0.189 0 0.231c -0.427 0.028 -0.504 0.056 -0.504 0.637Z m -0.637 3.339c 0 -0.182 0.168 -0.364 0.336 -0.364c 0.196 0 0.364 0.189 0.364 0.336c 0 0.168 -0.147 0.364 -0.336 0.364c -0.168 0 -0.364 -0.168 -0.364 -0.336Z "/></symbol><symbol id="g8D8738BE302236837EF68011C1FA0A28" overflow="visible"><path d="M 0 0m 1.323 0.854v 1.183c 0.588 0 0.721 -0.105 0.819 -0.266l 0.749 -1.218c 0.203 -0.329 0.504 -0.623 0.924 -0.623c 0.105 0 0.224 0.014 0.294 0.049c 0.028 0.049 0.021 0.112 -0.007 0.168c -0.315 0 -0.49 0.238 -0.672 0.539l -0.882 1.47c 0.301 0.098 0.931 0.462 0.931 1.197c 0 0.35 -0.119 0.637 -0.371 0.875c -0.336 0.315 -0.77 0.336 -1.211 0.336c -0.329 0 -0.623 -0.049 -0.875 -0.049c -0.245 0 -0.574 0.007 -0.903 0.014c -0.042 -0.042 -0.042 -0.189 0 -0.231c 0.49 -0.021 0.609 -0.056 0.609 -0.637v -2.807c 0 -0.581 -0.119 -0.616 -0.609 -0.637c -0.042 -0.042 -0.042 -0.189 0 -0.231c 0.315 0.007 0.644 0.014 0.91 0.014c 0.266 0 0.595 -0.007 0.903 -0.014c 0.042 0.042 0.042 0.189 0 0.231c -0.49 0.021 -0.609 0.056 -0.609 0.637Z m 0.581 3.472c 0.427 0 0.931 -0.154 0.931 -0.98c 0 -0.875 -0.497 -1.071 -1.176 -1.071h -0.336v 1.603c 0 0.203 0.084 0.448 0.581 0.448Z "/></symbol><symbol id="gF03346E6A3FFD945A12950F24C79EA53" overflow="visible"><path d="M 0 0m 1.519 -0.07c 0.273 0 0.602 0.14 0.945 0.42c 0.035 0.028 0.098 0.042 0.105 -0.007c 0.021 -0.175 0.077 -0.413 0.077 -0.413c 0.056 -0.021 0.091 -0.014 0.133 0c 0.154 0.126 0.399 0.231 0.826 0.28c 0.042 0.042 0.042 0.147 0 0.189c -0.448 0.035 -0.511 0.168 -0.511 0.511v 1.344c 0 0.21 0.028 0.721 0.028 0.721c 0 0.021 -0.021 0.042 -0.056 0.042c -0.035 -0.007 -0.14 -0.014 -0.245 -0.014c -0.224 0 -0.476 0.007 -0.714 0.014c -0.042 -0.042 -0.042 -0.189 0 -0.231c 0.343 -0.021 0.434 -0.105 0.434 -0.567v -1.351c 0 -0.133 -0.014 -0.189 -0.112 -0.273c -0.259 -0.224 -0.525 -0.336 -0.7 -0.336c -0.21 0 -0.56 0.098 -0.56 0.721v 1.274c 0 0.21 0.028 0.721 0.028 0.721c 0 0.021 -0.021 0.042 -0.056 0.042c -0.035 -0.007 -0.14 -0.014 -0.245 -0.014c -0.224 0 -0.476 0.007 -0.714 0.014c -0.042 -0.042 -0.042 -0.189 0 -0.231c 0.336 -0.028 0.434 -0.105 0.434 -0.56v -1.344c 0 -0.483 0.21 -0.952 0.903 -0.952Z "/></symbol><symbol id="g586F6F4EF3F12A17845F726CFBB79853" overflow="visible"><path d="M 0 0m 0.728 3.661v -2.807c 0 -0.581 -0.119 -0.616 -0.609 -0.637c -0.042 -0.042 -0.042 -0.189 0 -0.231c 0.315 0.007 0.658 0.014 0.91 0.014c 0.245 0 0.658 -0.007 1.008 -0.014c 0.042 0.042 0.042 0.189 0 0.231c -0.546 0.028 -0.714 0.056 -0.714 0.637v 1.19c 0.154 -0.049 0.322 -0.07 0.567 -0.07c 1.274 0 1.659 0.833 1.659 1.428c 0 0.413 -0.273 1.162 -1.568 1.162c -0.266 0 -0.679 -0.049 -0.959 -0.049c -0.259 0 -0.623 0.007 -0.903 0.014c -0.042 -0.042 -0.042 -0.189 0 -0.231c 0.49 -0.021 0.609 -0.056 0.609 -0.637Z m 0.595 0.217c 0 0.203 0.105 0.448 0.609 0.448c 0.483 0 0.966 -0.161 0.966 -1.05c 0 -0.756 -0.364 -1.064 -1.043 -1.064c -0.175 0 -0.455 0.014 -0.532 0.035Z "/></symbol><symbol id="gEED51DA56EC6F651CDEA9C1904670910" overflow="visible"><path d="M 0 0m 1.232 2.506c -0.014 0.28 -0.021 0.462 -0.056 0.532c -0.014 0.035 -0.028 0.056 -0.084 0.056c -0.196 -0.077 -0.378 -0.14 -0.861 -0.203c -0.014 -0.042 0 -0.154 0.014 -0.196c 0.378 -0.035 0.455 -0.07 0.455 -0.476v -1.365c 0 -0.581 -0.084 -0.609 -0.518 -0.637c -0.042 -0.042 -0.042 -0.189 0 -0.231c 0.245 0.007 0.518 0.014 0.798 0.014c 0.28 0 0.602 -0.007 0.847 -0.014c 0.042 0.042 0.042 0.189 0 0.231c -0.49 0.035 -0.574 0.056 -0.574 0.637v 0.973c 0 0.182 0.084 0.343 0.168 0.469c 0.077 0.112 0.238 0.343 0.322 0.343c 0.063 0 0.126 -0.014 0.182 -0.091c 0.049 -0.07 0.133 -0.161 0.252 -0.161c 0.168 0 0.329 0.175 0.329 0.35c 0 0.133 -0.126 0.336 -0.42 0.336c -0.329 0 -0.616 -0.308 -0.777 -0.581c -0.042 -0.077 -0.077 -0.021 -0.077 0.014Z "/></symbol><symbol id="g15DA33CDDA977652EC4FAB62F28BD18E" overflow="visible"><path d="M 0 0m 0.287 1.435c 0 -0.714 0.476 -1.505 1.47 -1.505c 0.448 0 0.791 0.161 1.029 0.392c 0.315 0.308 0.455 0.749 0.455 1.176c 0 0.728 -0.399 1.575 -1.47 1.575c -0.462 0 -0.84 -0.189 -1.099 -0.49c -0.252 -0.301 -0.385 -0.707 -0.385 -1.148Z m 1.379 1.393c 0.602 0 0.973 -0.546 0.973 -1.554c 0 -0.882 -0.455 -1.099 -0.784 -1.099c -0.728 0 -0.966 0.882 -0.966 1.421c 0 0.609 0.147 1.232 0.777 1.232Z "/></symbol><symbol id="gF4F4BFD7DBEE0C9B799E1FA2BF07A520" overflow="visible"><path d="M 0 0m 0.791 2.219v -1.687c 0 -0.924 -0.028 -1.785 -0.378 -1.785c -0.077 0 -0.168 0.028 -0.217 0.077c -0.07 0.07 -0.154 0.182 -0.308 0.182c -0.077 0 -0.224 -0.14 -0.224 -0.266c 0 -0.203 0.252 -0.301 0.385 -0.301c 0.147 0 0.511 0.021 0.77 0.238c 0.329 0.266 0.525 0.77 0.525 2.093v 1.477c 0 0.35 0.028 0.798 0.028 0.798c 0 0.028 -0.035 0.049 -0.091 0.049c -0.196 -0.077 -0.476 -0.14 -0.959 -0.203c -0.014 -0.042 0 -0.154 0.014 -0.196c 0.378 -0.035 0.455 -0.077 0.455 -0.476Z m -0.098 1.974c 0 -0.182 0.168 -0.364 0.336 -0.364c 0.196 0 0.364 0.189 0.364 0.336c 0 0.168 -0.147 0.364 -0.336 0.364c -0.168 0 -0.364 -0.168 -0.364 -0.336Z "/></symbol><symbol id="gFB891BE0A6F67F5DCF46E294A74CDFE3" overflow="visible"><path d="M 0 0m 2.786 0.637c -0.028 0.063 -0.084 0.091 -0.147 0.098c -0.238 -0.308 -0.539 -0.462 -0.84 -0.462c -0.511 0 -0.938 0.518 -0.938 1.337c 0 0.77 0.336 1.232 0.798 1.232c 0.413 0 0.469 -0.245 0.497 -0.49c 0.021 -0.189 0.119 -0.252 0.266 -0.252c 0.147 0 0.343 0.091 0.343 0.308c 0 0.385 -0.399 0.665 -1.071 0.665c -0.693 0 -1.435 -0.623 -1.435 -1.617c 0 -0.903 0.504 -1.526 1.386 -1.526c 0.42 0 0.791 0.133 1.141 0.707Z "/></symbol><symbol id="gABC9746C45A0EDC29020BEE77353565B" overflow="visible"><path d="M 0 0m 11.128 1.066c 1.118 1.261 2.171 1.989 2.808 2.21v 0.299c -1.404 0.572 -2.808 2.236 -2.808 2.249h -0.52c 0.507 -1.092 1.04 -1.69 1.469 -2.041h -11.31v -0.676h 11.31c -0.416 -0.403 -1.053 -1.105 -1.443 -2.041Z "/></symbol><symbol id="g47C477A4B9B11053B4775F3BF201C465" overflow="visible"><path d="M 0 0m 2.508 2.948c 0 0.396 0.121 0.561 0.264 0.726c 0.088 0.11 0.187 0.187 0.352 0.187c 0.099 0 0.22 -0.099 0.308 -0.209c 0.077 -0.088 0.264 -0.176 0.517 -0.176c 0.319 0 0.627 0.33 0.627 0.792c 0 0.286 -0.33 0.616 -0.726 0.616c -0.385 0 -0.803 -0.33 -1.309 -1.056h -0.044c -0.022 0.33 -0.077 0.869 -0.077 0.869c -0.011 0.099 -0.099 0.187 -0.253 0.187c -0.517 -0.132 -1.1 -0.286 -1.826 -0.363c -0.022 -0.066 0 -0.275 0.022 -0.341c 0.605 -0.055 0.715 -0.154 0.715 -0.781v -2.057c 0 -0.913 -0.121 -0.935 -0.792 -0.99c -0.066 -0.066 -0.066 -0.308 0 -0.374c 0.462 0.011 0.924 0.022 1.507 0.022c 0.583 0 1.034 -0.011 1.507 -0.022c 0.066 0.066 0.066 0.308 0 0.374c -0.671 0.044 -0.792 0.077 -0.792 0.99Z "/></symbol><symbol id="g3D10C80058B8A2499EDE8ED7FF46B553" overflow="visible"><path d="M 0 0m 5.137 4.334c 0.308 0 0.484 0.132 0.484 0.539c 0 0.209 -0.286 0.528 -0.704 0.528c -0.484 0 -1.122 -0.363 -1.441 -0.649c -0.198 0.11 -0.429 0.132 -0.924 0.132c -0.473 0 -0.935 -0.11 -1.298 -0.352c -0.451 -0.286 -0.748 -0.715 -0.748 -1.276c 0 -0.539 0.319 -1.122 0.847 -1.408c -0.341 -0.297 -0.869 -0.88 -0.869 -1.1c 0 -0.209 0.033 -0.341 0.143 -0.506c 0.099 -0.154 0.231 -0.242 0.451 -0.308c -0.473 -0.286 -0.957 -0.913 -0.957 -1.1c 0 -0.407 0.132 -0.88 0.429 -1.089c 0.429 -0.297 1.155 -0.363 1.683 -0.363c 1.529 0 3.278 0.803 3.278 2.013c 0 0.231 -0.11 0.704 -0.55 1.001c -0.429 0.286 -2.079 0.363 -2.893 0.363c -0.198 0 -0.495 0.022 -0.495 0.462c 0 0.176 0.11 0.33 0.165 0.462c 0.231 -0.11 0.462 -0.121 0.803 -0.121c 0.561 0 1.078 0.143 1.452 0.473c 0.319 0.286 0.539 0.671 0.539 1.166c 0 0.616 -0.308 1.023 -0.682 1.331c 0.088 0.11 0.451 0.308 0.561 0.308c 0.099 0 0.176 -0.066 0.209 -0.132c 0.044 -0.143 0.242 -0.374 0.517 -0.374Z m -3.212 -4.609c 0.847 0 2.475 -0.033 2.475 -0.616c 0 -0.396 -0.176 -0.847 -0.539 -1.045c -0.341 -0.198 -0.902 -0.22 -1.32 -0.22c -0.726 0 -1.221 0.539 -1.221 1.1c 0 0.374 0 0.627 0.121 0.847c 0.11 -0.044 0.253 -0.066 0.484 -0.066Z m 1.265 3.443c 0 -1.056 -0.308 -1.188 -0.594 -1.188c -0.682 0 -0.77 0.814 -0.77 1.375c 0 0.814 0.198 1.111 0.627 1.111c 0.517 0 0.737 -0.429 0.737 -1.298Z "/></symbol><symbol id="gD2AA3B4ACBC41440BCB2A32823E63FB0" overflow="visible"><path d="M 0 0m 0.528 1.606c 0.044 -0.539 0.099 -1.056 0.187 -1.474c 0.209 -0.066 0.913 -0.242 1.529 -0.242c 0.847 0 1.903 0.462 1.903 1.419c 0 0.374 -0.088 0.671 -0.341 0.946c -0.308 0.352 -0.77 0.627 -1.276 0.847c -0.44 0.187 -0.594 0.539 -0.594 0.858c 0 0.253 0.209 0.462 0.528 0.462c 0.385 0 0.759 -0.352 1.034 -1.023c 0.198 -0.033 0.319 -0.022 0.429 0.055c 0 0.396 -0.044 0.814 -0.143 1.166c -0.352 0.154 -0.627 0.264 -1.232 0.264c -0.583 0 -1.133 -0.22 -1.485 -0.572c -0.253 -0.253 -0.374 -0.561 -0.374 -0.858c 0 -0.33 0.132 -0.594 0.341 -0.825c 0.341 -0.374 0.946 -0.759 1.276 -0.913c 0.44 -0.198 0.561 -0.594 0.561 -0.858c 0 -0.352 -0.352 -0.539 -0.649 -0.539c -0.495 0 -1.023 0.506 -1.254 1.309c -0.176 0.033 -0.264 0.022 -0.44 -0.022Z "/></symbol><symbol id="g6FC90B5DBBBD9B59457434959F101F1F" overflow="visible"><path d="M 0 0m 1.045 3.399v -4.609c 0 -0.913 -0.121 -0.935 -0.792 -0.99c -0.066 -0.066 -0.066 -0.308 0 -0.374c 0.462 0.011 0.924 0.022 1.507 0.022c 0.583 0 1.034 -0.011 1.507 -0.022c 0.066 0.066 0.066 0.308 0 0.374c -0.671 0.044 -0.792 0.077 -0.792 0.99v 1.287c 0.242 -0.121 0.473 -0.187 0.737 -0.187c 1.672 0 2.761 1.1 2.761 2.717c 0 0.616 -0.231 1.298 -0.66 1.727c -0.385 0.385 -0.935 0.55 -1.507 0.55c -0.319 0 -0.913 -0.385 -1.298 -0.737h -0.066c -0.022 0.308 -0.055 0.55 -0.055 0.55c -0.011 0.132 -0.099 0.187 -0.253 0.187c -0.407 -0.11 -1.067 -0.264 -1.826 -0.363c -0.022 -0.066 0 -0.286 0.022 -0.352c 0.605 -0.055 0.715 -0.143 0.715 -0.77Z m 1.43 -2.684v 2.816c 0 0.066 0 0.121 0 0.187c 0.319 0.286 0.726 0.429 0.979 0.429c 0.451 0 0.979 -0.55 0.979 -1.837c 0 -0.924 -0.33 -1.958 -1.287 -1.958c -0.121 0 -0.396 0.066 -0.671 0.363Z "/></symbol><symbol id="g1143AE89DED3DE0B703E6104D3FB935E" overflow="visible"><path d="M 0 0m 2.508 1.342v 2.211c 0.44 0.297 0.88 0.517 1.078 0.517c 0.44 0 0.77 -0.198 0.77 -0.825v -1.837c 0 -0.924 -0.176 -1.023 -0.627 -1.056c -0.066 -0.066 -0.066 -0.308 0 -0.374c 0.462 0.011 0.814 0.022 1.342 0.022c 0.605 0 1.089 -0.011 1.562 -0.022c 0.066 0.066 0.066 0.308 0 0.374c -0.671 0.033 -0.847 0.132 -0.847 1.056v 1.716c 0 1.21 -0.517 1.76 -1.463 1.76c -0.44 0 -1.221 -0.484 -1.826 -0.902c -0.033 0.385 -0.077 0.715 -0.077 0.715c -0.011 0.132 -0.099 0.187 -0.253 0.187c -0.407 -0.11 -1.067 -0.264 -1.826 -0.363c -0.022 -0.066 0 -0.286 0.022 -0.352c 0.605 -0.055 0.715 -0.143 0.715 -0.77v -2.057c 0 -0.913 -0.121 -0.935 -0.792 -0.99c -0.066 -0.066 -0.066 -0.308 0 -0.374c 0.462 0.011 0.924 0.022 1.507 0.022c 0.506 0 0.814 -0.011 1.287 -0.022c 0.066 0.066 0.066 0.308 0 0.374c -0.462 0.044 -0.572 0.077 -0.572 0.99Z "/></symbol><symbol id="g9058E2A4AD22408D53EAD5B2801CF3F8" overflow="visible"><path d="M 0 0m 3.108 2.709c 0.133 0 0.259 0.126 0.259 0.266c 0 0.147 -0.133 0.259 -0.322 0.259c -0.182 0 -0.518 -0.119 -0.7 -0.357c -0.084 0.056 -0.315 0.196 -0.728 0.196c -0.623 0 -1.197 -0.42 -1.197 -1.064c 0 -0.378 0.168 -0.595 0.364 -0.784c -0.196 -0.168 -0.308 -0.469 -0.308 -0.707c 0 -0.252 0.14 -0.448 0.322 -0.539c -0.378 -0.224 -0.574 -0.546 -0.574 -0.847c 0 -0.609 0.574 -0.798 1.113 -0.798c 0.945 0 1.967 0.455 1.967 1.211c 0 0.224 -0.105 0.399 -0.308 0.567c -0.273 0.224 -0.763 0.231 -1.022 0.231c -0.126 0 -0.301 -0.014 -0.469 -0.035c -0.105 -0.007 -0.175 -0.014 -0.21 -0.014c -0.203 0 -0.448 0.098 -0.448 0.399c 0 0.14 0.042 0.287 0.126 0.406c 0.168 -0.098 0.364 -0.147 0.637 -0.147c 0.616 0 1.183 0.385 1.183 1.071c 0 0.329 -0.098 0.518 -0.301 0.728c 0.049 0.07 0.189 0.168 0.28 0.168c 0.049 0 0.098 -0.021 0.14 -0.084c 0.028 -0.056 0.119 -0.126 0.196 -0.126Z m -2.184 -2.779c 0.077 -0.021 0.189 -0.035 0.28 -0.035c 0.217 0 0.413 0.021 0.511 0.021c 0.35 0 0.644 -0.007 0.847 -0.119c 0.273 -0.154 0.357 -0.252 0.357 -0.434c 0 -0.504 -0.742 -0.77 -1.372 -0.77c -0.252 0 -0.84 0.203 -0.84 0.679c 0 0.238 0.014 0.413 0.217 0.658Z m 1.309 2.023c 0 -0.651 -0.329 -0.784 -0.588 -0.784c -0.588 0 -0.651 0.497 -0.651 0.945c 0 0.49 0.175 0.742 0.56 0.742c 0.441 0 0.679 -0.322 0.679 -0.903Z "/></symbol><symbol id="g2A00D5AD23258A592B8B29234C197A30" overflow="visible"><path d="M 0 0m 1.092 2.576c -0.007 0.21 -0.021 0.392 -0.056 0.462c -0.014 0.035 -0.028 0.056 -0.084 0.056c -0.196 -0.077 -0.378 -0.14 -0.861 -0.203c -0.014 -0.042 0 -0.154 0.014 -0.196c 0.378 -0.035 0.455 -0.07 0.455 -0.476v -2.989c 0 -0.581 -0.077 -0.616 -0.504 -0.637c -0.042 -0.042 -0.042 -0.189 0 -0.231c 0.245 0.007 0.504 0.014 0.784 0.014c 0.28 0 0.616 -0.007 0.847 -0.014c 0.042 0.042 0.042 0.189 0 0.231c -0.497 0.028 -0.574 0.056 -0.574 0.637v 0.756c 0 0.091 0.028 0.084 0.098 0.056c 0.175 -0.07 0.385 -0.112 0.609 -0.112c 0.392 0 0.742 0.119 1.029 0.392c 0.329 0.322 0.518 0.756 0.518 1.323c 0 0.742 -0.525 1.428 -1.239 1.428c -0.322 0 -0.679 -0.21 -0.959 -0.525c -0.042 -0.042 -0.07 -0.042 -0.077 0.028Z m 0.133 -0.259c 0.182 0.224 0.504 0.434 0.707 0.434c 0.448 0 0.833 -0.504 0.833 -1.295c 0 -0.574 -0.203 -1.288 -0.987 -1.288c -0.126 0 -0.371 0.035 -0.497 0.147c -0.14 0.126 -0.168 0.168 -0.168 0.42v 1.274c 0 0.147 0.028 0.21 0.112 0.308Z "/></symbol><symbol id="g10B7176955C36CE5FA5412723C35606F" overflow="visible"><path d="M 0 0m 0.637 -0.169c 1.261 -1.118 1.989 -2.171 2.21 -2.808h 0.299c 0.572 1.404 2.236 2.808 2.249 2.808v 0.52c -1.092 -0.507 -1.69 -1.04 -2.041 -1.469v 11.31h -0.676v -11.31c -0.403 0.416 -1.105 1.053 -2.041 1.443Z "/></symbol><symbol id="gFD77BB960CB6A16FDAE898A1A0D1F4F" overflow="visible"><path d="M 0 0m 5.808 1.408v 1.716c 0 1.21 -0.517 1.76 -1.463 1.76c -0.407 0 -1.188 -0.407 -1.815 -0.792v 2.321c 0 0.715 0.033 1.122 0.033 1.122c 0 0.099 -0.077 0.143 -0.176 0.143c -0.407 -0.132 -1.287 -0.253 -2.068 -0.286c -0.033 -0.132 -0.022 -0.253 0.033 -0.352c 0.693 -0.055 0.748 -0.066 0.748 -0.825v -4.818c 0 -0.913 -0.176 -1.012 -0.847 -1.045c -0.066 -0.066 -0.066 -0.308 0 -0.374c 0.462 0.011 0.957 0.022 1.562 0.022c 0.528 0 0.869 -0.011 1.342 -0.022c 0.066 0.066 0.066 0.308 0 0.374c -0.462 0.033 -0.627 0.132 -0.627 1.045v 2.255c 0.462 0.286 0.825 0.418 1.023 0.418c 0.44 0 0.825 -0.198 0.825 -0.825v -1.837c 0 -0.924 -0.176 -1.023 -0.627 -1.056c -0.066 -0.066 -0.066 -0.308 0 -0.374c 0.462 0.011 0.814 0.022 1.342 0.022c 0.605 0 1.089 -0.011 1.562 -0.022c 0.066 0.066 0.066 0.308 0 0.374c -0.671 0.033 -0.847 0.132 -0.847 1.056Z "/></symbol><symbol id="g634686C8EDE8BFEE70C07DDBDBAA86E3" overflow="visible"><path d="M 0 0m 2.662 -1.848c 0.176 0.308 0.341 0.704 0.473 1.034c 0.88 2.123 1.419 3.311 2.002 4.543c 0.154 0.319 0.484 0.66 0.891 0.693c 0.066 0.066 0.066 0.308 0 0.374c -0.275 -0.011 -0.473 -0.022 -0.781 -0.022c -0.385 0 -0.759 0.011 -1.166 0.022c -0.066 -0.066 -0.066 -0.308 0 -0.374c 0.352 -0.033 0.704 -0.088 0.528 -0.484l -1.133 -2.541c 0 -0.011 0 -0.011 -0.011 -0.022c 0 0.011 0 0.022 -0.011 0.044l -1.023 2.299c -0.011 0.011 -0.011 0.022 -0.011 0.033c -0.198 0.429 -0.275 0.616 0.374 0.671c 0.066 0.066 0.066 0.308 0 0.374c -0.407 -0.011 -1.067 -0.022 -1.463 -0.022c -0.374 0 -1.001 0.011 -1.221 0.022c -0.066 -0.066 -0.066 -0.308 0 -0.374c 0.484 -0.044 0.572 -0.121 0.869 -0.814l 1.419 -3.256c 0.033 -0.055 0.077 -0.099 0.11 -0.143c 0.143 -0.198 0.264 -0.363 0.198 -0.517l -0.264 -0.605c -0.143 -0.341 -0.275 -0.539 -0.583 -0.539c -0.198 0 -0.231 0.044 -0.385 0.044c -0.418 0 -0.66 -0.286 -0.66 -0.506c 0 -0.143 0.033 -0.319 0.132 -0.44c 0.099 -0.121 0.286 -0.198 0.429 -0.198c 0.143 0 0.473 0.044 0.627 0.11c 0.231 0.11 0.539 0.374 0.66 0.594Z "/></symbol><symbol id="gC3EE0A6F3DF532B00DE22A09A1CCFDA3" overflow="visible"><path d="M 0 0m 1.19 2.506c -0.007 0.21 -0.021 0.462 -0.056 0.532c -0.014 0.035 -0.028 0.056 -0.084 0.056c -0.196 -0.077 -0.378 -0.14 -0.861 -0.203c -0.014 -0.042 0 -0.154 0.014 -0.196c 0.378 -0.035 0.455 -0.07 0.455 -0.476v -1.365c 0 -0.574 -0.091 -0.609 -0.476 -0.637c -0.042 -0.042 -0.042 -0.189 0 -0.231c 0.21 0.007 0.476 0.014 0.756 0.014c 0.28 0 0.497 -0.007 0.707 -0.014c 0.042 0.042 0.042 0.189 0 0.231c -0.357 0.035 -0.434 0.063 -0.434 0.637v 1.148c 0 0.147 0.063 0.231 0.119 0.294c 0.28 0.273 0.539 0.413 0.756 0.413c 0.266 0 0.462 -0.168 0.462 -0.637v -1.218c 0 -0.574 -0.056 -0.609 -0.434 -0.637c -0.035 -0.042 -0.035 -0.189 0 -0.231c 0.175 0.007 0.434 0.014 0.714 0.014c 0.28 0 0.511 -0.007 0.686 -0.014c 0.035 0.042 0.035 0.189 0 0.231c -0.35 0.028 -0.413 0.063 -0.413 0.637v 1.113c 0 0.098 0 0.196 -0.007 0.28c 0.336 0.371 0.651 0.462 0.924 0.462c 0.266 0 0.42 -0.154 0.42 -0.623v -1.232c 0 -0.574 -0.07 -0.609 -0.434 -0.637c -0.035 -0.042 -0.035 -0.189 0 -0.231c 0.175 0.007 0.434 0.014 0.714 0.014c 0.28 0 0.525 -0.007 0.721 -0.014c 0.035 0.042 0.035 0.189 0 0.231c -0.385 0.028 -0.448 0.063 -0.448 0.637v 1.106c 0 0.623 -0.105 1.113 -0.721 1.113c -0.357 0 -0.791 -0.133 -1.155 -0.518c -0.021 -0.021 -0.063 -0.056 -0.077 0.007c -0.063 0.287 -0.336 0.511 -0.7 0.511c -0.406 0 -0.77 -0.238 -1.064 -0.567c -0.035 -0.035 -0.077 -0.084 -0.084 0Z "/></symbol><symbol id="g3AB780C36179048EC76D019079FF43A1" overflow="visible"><path d="M 0 0m 2.338 0.35c 0.035 0.028 0.098 0.042 0.105 -0.007c 0.021 -0.168 0.077 -0.413 0.077 -0.413c 0.056 -0.021 0.091 -0.014 0.133 0c 0.154 0.126 0.399 0.231 0.826 0.28c 0.042 0.042 0.042 0.147 0 0.189c -0.448 0.035 -0.511 0.168 -0.511 0.511v 3.171c 0 0.455 0.028 0.735 0.028 0.735c 0 0.049 -0.028 0.07 -0.091 0.07c -0.175 -0.07 -0.7 -0.168 -0.98 -0.189c -0.014 -0.056 0 -0.168 0.042 -0.21c 0.021 0 0.042 0 0.063 0c 0.308 -0.021 0.385 -0.021 0.385 -0.574v -0.896c 0 -0.049 -0.014 -0.063 -0.063 -0.063c -0.028 0 -0.315 0.119 -0.546 0.119c -0.462 0 -0.77 -0.154 -1.05 -0.42c -0.301 -0.301 -0.483 -0.714 -0.483 -1.232c 0 -0.861 0.434 -1.491 1.19 -1.491c 0.273 0 0.532 0.14 0.875 0.42Z m 0.077 0.518c 0 -0.133 -0.014 -0.189 -0.112 -0.273c -0.259 -0.224 -0.483 -0.336 -0.658 -0.336c -0.378 0 -0.77 0.413 -0.77 1.288c 0 0.504 0.098 0.784 0.203 0.931c 0.217 0.329 0.511 0.35 0.651 0.35c 0.252 0 0.427 -0.091 0.567 -0.252c 0.098 -0.112 0.119 -0.161 0.119 -0.378Z "/></symbol><symbol id="g837ABF615E89AD1298E5A795470413F1" overflow="visible"><path d="M 0 0m 3.332 -0.77h -3.262c -0.056 -0.056 -0.056 -0.252 0 -0.308h 3.262c 0.056 0.056 0.056 0.252 0 0.308Z "/></symbol><symbol id="gAFB3C5EAF378765A23C47E208F605F7B" overflow="visible"><path d="M 0 0m 3.553 -0.704l -0.033 0.033c 0.264 0.198 0.891 0.517 1.265 0.627c 0.781 0.143 1.43 0.506 1.903 1.023c 0.605 0.66 0.946 1.562 0.946 2.64c 0 2.189 -1.628 3.619 -3.641 3.619c -1.1 0 -2.057 -0.473 -2.695 -1.232c -0.572 -0.682 -0.891 -1.595 -0.891 -2.607c 0 -1.958 1.408 -3.234 3.047 -3.465c -0.638 -0.363 -1.276 -0.957 -1.716 -1.617c 0.143 -0.055 0.319 -0.209 0.44 -0.33c 0.176 0.275 0.451 0.605 0.616 0.715c 0.121 0.088 0.242 0.099 0.385 0.099c 0.374 0 1.958 -0.198 3.41 -0.726c 0.968 -0.352 2.035 -0.407 2.948 -0.407c 1.144 0 2.266 0.506 2.948 1.144l -0.187 0.264c -0.726 -0.407 -1.606 -0.682 -2.156 -0.682c -0.836 0 -1.958 0.253 -2.97 0.572c -1.1 0.352 -2.101 0.374 -3.278 0.374c -0.132 0 -0.253 -0.022 -0.341 -0.044Z m 0.308 7.48c 1.177 0 2.112 -1.155 2.112 -3.388c 0 -1.826 -0.638 -3.036 -1.749 -3.036c -1.21 0 -2.156 1.199 -2.156 3.267c 0 2.244 0.814 3.157 1.793 3.157Z "/></symbol><symbol id="g702DD15580C814312A77DF50215F4E53" overflow="visible"><path d="M 0 0m 5.61 1.463v 1.903c 0 0.924 0.022 0.792 0.022 1.056c 0 0.187 -0.044 0.308 -0.11 0.374c -0.198 -0.011 -0.418 -0.022 -0.627 -0.022c -0.308 0 -1.023 0.011 -1.452 0.022c -0.066 -0.066 -0.066 -0.308 0 -0.374c 0.561 -0.055 0.737 -0.132 0.737 -1.056v -2.035c 0 -0.11 0 -0.22 0.011 -0.33c -0.451 -0.275 -0.814 -0.297 -1.012 -0.297c -0.44 0 -0.77 0.055 -0.77 0.825v 1.837c 0 0.924 0.022 0.792 0.022 1.056c 0 0.187 -0.044 0.308 -0.11 0.374c -0.198 -0.011 -0.429 -0.022 -0.627 -0.022c -0.561 0 -0.979 0.011 -1.452 0.022c -0.066 -0.066 -0.066 -0.308 0 -0.374c 0.506 -0.022 0.737 -0.132 0.737 -1.056v -1.716c 0 -1.166 0.462 -1.76 1.408 -1.76c 0.396 0 1.199 0.319 1.837 0.671c 0.022 -0.275 0.044 -0.484 0.044 -0.484c 0.011 -0.132 0.099 -0.187 0.253 -0.187c 0.407 0.11 1.067 0.264 1.826 0.363c 0.022 0.066 0 0.286 -0.022 0.352c -0.594 0.055 -0.715 0.231 -0.715 0.858Z "/></symbol><symbol id="g31D79080895A54A2C03F3BFF9340AC07" overflow="visible"><path d="M 0 0m 2.013 0.803l 0.682 0.957c 0.044 0.055 0.077 0.088 0.11 0.033l 0.528 -1.001c 0.187 -0.352 0.077 -0.385 -0.308 -0.44c -0.066 -0.066 -0.066 -0.308 0 -0.374c 0.22 0.011 0.913 0.022 1.496 0.022c 0.572 0 1.254 -0.011 1.474 -0.022c 0.066 0.066 0.066 0.308 0 0.374c -0.407 0.066 -0.781 0.209 -1.133 0.737l -0.968 1.441c -0.055 0.088 -0.055 0.121 -0.022 0.165l 0.979 1.188c 0.308 0.374 0.704 0.506 1.045 0.539c 0.066 0.066 0.066 0.308 0 0.374c -0.22 -0.011 -0.561 -0.022 -0.924 -0.022c -0.429 0 -0.88 0.011 -1.1 0.022c -0.066 -0.066 -0.066 -0.308 0 -0.374c 0.396 -0.033 0.484 -0.154 0.264 -0.473l -0.594 -0.847c -0.033 -0.055 -0.088 -0.055 -0.132 0.022l -0.495 0.836c -0.231 0.396 -0.088 0.418 0.33 0.462c 0.066 0.066 0.066 0.308 0 0.374c -0.22 -0.011 -0.935 -0.022 -1.54 -0.022c -0.539 0 -1.166 0.011 -1.386 0.022c -0.066 -0.066 -0.066 -0.308 0 -0.374c 0.495 0 0.715 -0.297 1.023 -0.737l 0.979 -1.397c 0.033 -0.044 0.033 -0.088 -0.033 -0.165l -1.012 -1.254c -0.275 -0.352 -0.759 -0.473 -1.089 -0.517c -0.066 -0.066 -0.066 -0.308 0 -0.374c 0.22 0.011 0.561 0.022 0.913 0.022c 0.473 0 0.99 -0.011 1.21 -0.022c 0.066 0.066 0.066 0.308 0 0.374c -0.198 0.044 -0.539 0.11 -0.297 0.451Z "/></symbol><symbol id="g6AA6D8B4D8C57F47A3EF1021D9D774B2" overflow="visible"><path d="M 0 0m 1.897 1.561c 0.091 0 0.189 0.196 0.189 0.28c 0 0.07 -0.028 0.14 -0.098 0.14h -1.533c -0.084 0 -0.175 -0.161 -0.175 -0.287c 0 -0.07 0.042 -0.133 0.105 -0.133Z "/></symbol><symbol id="g47BB5310464B59270B85DEDC04CF0BA7" overflow="visible"><path d="M 0 0m 1.169 2.002c 0 0.147 0.063 0.231 0.119 0.294c 0.266 0.259 0.623 0.413 0.896 0.413c 0.14 0 0.287 -0.091 0.371 -0.252c 0.07 -0.14 0.084 -0.329 0.084 -0.539v -1.064c 0 -0.574 -0.07 -0.602 -0.434 -0.637c -0.035 -0.042 -0.035 -0.189 0 -0.231c 0.196 0.007 0.434 0.014 0.714 0.014c 0.28 0 0.511 -0.007 0.742 -0.014c 0.035 0.042 0.035 0.189 0 0.231c -0.392 0.035 -0.469 0.063 -0.469 0.637v 1.043c 0 0.385 -0.028 0.728 -0.189 0.938c -0.119 0.154 -0.336 0.238 -0.581 0.238c -0.343 0 -0.763 -0.091 -1.19 -0.567c 0 -0.007 -0.007 -0.007 -0.014 -0.014c -0.021 -0.028 -0.056 -0.07 -0.056 0.014l 0.007 1.575c 0 0.455 0.028 0.735 0.028 0.735c 0 0.049 -0.028 0.07 -0.091 0.07c -0.175 -0.07 -0.7 -0.168 -0.98 -0.189c -0.014 -0.056 0 -0.168 0.042 -0.21c 0.021 0 0.042 0 0.063 0c 0.308 -0.021 0.385 -0.021 0.385 -0.574v -3.059c 0 -0.581 -0.084 -0.609 -0.49 -0.637c -0.042 -0.042 -0.042 -0.189 0 -0.231c 0.231 0.007 0.49 0.014 0.77 0.014c 0.266 0 0.497 -0.007 0.693 -0.014c 0.042 0.042 0.042 0.189 0 0.231c -0.357 0.028 -0.42 0.056 -0.42 0.637Z "/></symbol><symbol id="gA3CD6D12247FD6FFE6385EB7A756C355" overflow="visible"><path d="M 0 0m 2.275 2.786c 0.378 -0.028 0.42 -0.112 0.273 -0.469l -0.567 -1.372c -0.112 -0.273 -0.147 -0.273 -0.259 0.021l -0.504 1.351c -0.126 0.336 -0.154 0.42 0.217 0.469c 0.042 0.042 0.042 0.189 0 0.231c -0.231 -0.007 -0.476 -0.014 -0.707 -0.014c -0.231 0 -0.441 0.007 -0.651 0.014c -0.042 -0.042 -0.042 -0.189 0 -0.231c 0.371 -0.042 0.42 -0.154 0.56 -0.511l 0.896 -2.212c 0.042 -0.105 0.084 -0.147 0.175 -0.147c 0.07 0 0.119 0.042 0.168 0.161l 0.931 2.191c 0.133 0.308 0.21 0.483 0.602 0.518c 0.042 0.042 0.042 0.189 0 0.231c -0.14 -0.007 -0.308 -0.014 -0.49 -0.014c -0.231 0 -0.469 0.007 -0.644 0.014c -0.042 -0.042 -0.042 -0.189 0 -0.231Z "/></symbol></defs></svg>