<svg viewBox="0 0 422.031 49.9309375" width="422.031pt" height="49.9309375pt" xmlns="http://www.w3.org/2000/svg" xmlns:xlink="http://www.w3.org/1999/xlink" xmlns:h5="http://www.w3.org/1999/xhtml"><path fill="#161616" fill-rule="nonzero" d="M 0 0v 49.9309375h 422.031v -49.9309375Z "/><g transform="translate(5.5 5.5)"><path fill="none" stroke="#447099" stroke-width="1.5" stroke-linecap="butt" stroke-linejoin="miter" stroke-miterlimit="4" d="M 0 0m 5.25 0h 66.817c 2.899494937 0 5.25 2.350505063 5.25 5.25v 28.4309375c 0 2.899494937 -2.350505063 5.25 -5.25 5.25h -66.817c -2.899494937 0 -5.25 -2.350505063 -5.25 -5.25v -28.4309375c 0 -2.899494937 2.350505063 -5.25 5.25 -5.25"/><g transform="matrix(1 0 0 -1 12 16.095)"><use xlink:href="#g628D38FCFF0E42049F5AA83044B0F23B" x="0" y="0" fill="#f5f5f4" fill-rule="nonzero"/><use xlink:href="#g1143AE89DED3DE0B703E6104D3FB935E" x="6.061" y="0" fill="#f5f5f4" fill-rule="nonzero"/><use xlink:href="#gC14BE50F1468F5902AA9D472AD29244E" x="12.837" y="0" fill="#f5f5f4" fill-rule="nonzero"/><use xlink:href="#gD2AA3B4ACBC41440BCB2A32823E63FB0" x="20.966" y="0" fill="#f5f5f4" fill-rule="nonzero"/><use xlink:href="#g628D38FCFF0E42049F5AA83044B0F23B" x="25.663" y="0" fill="#f5f5f4" fill-rule="nonzero"/><use xlink:href="#g702DD15580C814312A77DF50215F4E53" x="31.724" y="0" fill="#f5f5f4" fill-rule="nonzero"/><use xlink:href="#g47C477A4B9B11053B4775F3BF201C465" x="38.302" y="0" fill="#f5f5f4" fill-rule="nonzero"/><use xlink:href="#g91B01334F80632633C2B229D930B162" x="42.922" y="0" fill="#f5f5f4" fill-rule="nonzero"/><use xlink:href="#gC14BE50F1468F5902AA9D472AD29244E" x="47.938" y="0" fill="#f5f5f4" fill-rule="nonzero"/></g><g transform="matrix(1 0 0 -1 28.06240625 29.9309375)"><use xlink:href="#g26CF2B118843AE2B30EF7354E73F7180" x="0" y="0" fill="#f5f5f4" fill-rule="nonzero"/><use xlink:href="#g55A5E33116567964DCA4209366FC0502" x="5.298046875" y="0" fill="#f5f5f4" fill-rule="nonzero"/><use xlink:href="#g9086D2D10E1416CB687F1928B5711AC" x="10.59609375" y="0" fill="#f5f5f4" fill-rule="nonzero"/><use xlink:href="#gB6FB672C0A18CD8F584E8571EF5DF6CD" x="15.894140625" y="0" fill="#f5f5f4" fill-rule="nonzero"/></g></g><g transform="matrix(1 0 0 -1 98.817 31.54546875)"><use xlink:href="#gC21522F1A39D488DDFECC43825EDE0DD" x="0" y="0" fill="#447099" fill-rule="nonzero"/></g><g transform="translate(137.417 15.34646875)"><path fill="none" stroke="#f5f5f473" stroke-width="0.75" stroke-linecap="butt" stroke-linejoin="miter" stroke-miterlimit="4" d="M 0 0m 9.619 0h 30.803c 5.312427009 0 9.619 4.306572991 9.619 9.619c 0 5.312427009 -4.306572991 9.619 -9.619 9.619h -30.803c -5.312427009 0 -9.619 -4.306572991 -9.619 -9.619c 0 -5.312427009 4.306572991 -9.619 9.619 -9.619"/><g transform="matrix(1 0 0 -1 10 13.238)"><use xlink:href="#g924FA4C14A01FD00FF0ECA5EF99A5E1B" x="0" y="0" fill="#f5f5f4" fill-rule="nonzero"/><use xlink:href="#g6553513FE64203BDE37F7BF6C55D1886" x="8.437" y="0" fill="#f5f5f4" fill-rule="nonzero"/><use xlink:href="#g5A92E01899F34F07E07504597D398CD0" x="15.004" y="0" fill="#f5f5f4" fill-rule="nonzero"/><use xlink:href="#gDAEF01F2D8957876B63D52895EE853E4" x="24.233" y="0" fill="#f5f5f4" fill-rule="nonzero"/></g></g><g transform="translate(195.458 15.34646875)"><path fill="none" stroke="#f5f5f473" stroke-width="0.75" stroke-linecap="butt" stroke-linejoin="miter" stroke-miterlimit="4" d="M 0 0m 9.619 0h 19.759c 5.312427009 0 9.619 4.306572991 9.619 9.619c 0 5.312427009 -4.306572991 9.619 -9.619 9.619h -19.759c -5.312427009 0 -9.619 -4.306572991 -9.619 -9.619c 0 -5.312427009 4.306572991 -9.619 9.619 -9.619"/><g transform="matrix(1 0 0 -1 10 13.238)"><use xlink:href="#g5D279FAE8446F75B298AD3FAD5B8DC82" x="0" y="0" fill="#f5f5f4" fill-rule="nonzero"/><use xlink:href="#gF697F4206A782C3B42F4E05D5EA9B2A0" x="5.951" y="0" fill="#f5f5f4" fill-rule="nonzero"/><use xlink:href="#g3BC6300649CA32A3B6F5E66435D77781" x="13.662" y="0" fill="#f5f5f4" fill-rule="nonzero"/></g></g><g transform="translate(242.455 15.34646875)"><path fill="none" stroke="#f5f5f473" stroke-width="0.75" stroke-linecap="butt" stroke-linejoin="miter" stroke-miterlimit="4" d="M 0 0m 9.619 0h 39.988c 5.312427009 0 9.619 4.306572991 9.619 9.619c 0 5.312427009 -4.306572991 9.619 -9.619 9.619h -39.988c -5.312427009 0 -9.619 -4.306572991 -9.619 -9.619c 0 -5.312427009 4.306572991 -9.619 9.619 -9.619"/><g transform="matrix(1 0 0 -1 10 13.238)"><use xlink:href="#gB7A7981F9D6FEBAF4A3C34CF9A3FA37" x="0" y="0" fill="#f5f5f4" fill-rule="nonzero"/><use xlink:href="#gBFE09989B12480F1B7796D69E0D7287C" x="6.457" y="0" fill="#f5f5f4" fill-rule="nonzero"/><use xlink:href="#g1E471D2E98C4E85A3CE47F56E86025C4" x="11.297" y="0" fill="#f5f5f4" fill-rule="nonzero"/><use xlink:href="#gBFE09989B12480F1B7796D69E0D7287C" x="16.676" y="0" fill="#f5f5f4" fill-rule="nonzero"/><use xlink:href="#g9787446D80B11CDE2529516BF2D1ACCA" x="21.593" y="0" fill="#f5f5f4" fill-rule="nonzero"/><use xlink:href="#g36F90904A4043C6A677E73471A30013F" x="26.62" y="0" fill="#f5f5f4" fill-rule="nonzero"/><use xlink:href="#g4C1ED41FE02ABB1BA3896D4213CC7460" x="29.524" y="0" fill="#f5f5f4" fill-rule="nonzero"/><use xlink:href="#g448238CFC371702E1591C7F37BB1D13F" x="31.944" y="0" fill="#f5f5f4" fill-rule="nonzero"/><use xlink:href="#g4E5D026409004C23B788CF76C0C2AF69" x="34.936" y="0" fill="#f5f5f4" fill-rule="nonzero"/></g></g><g transform="translate(309.681 15.34646875)"><path fill="none" stroke="#f5f5f473" stroke-width="0.75" stroke-linecap="butt" stroke-linejoin="miter" stroke-miterlimit="4" d="M 0 0m 9.619 0h 36.347c 5.312427009 0 9.619 4.306572991 9.619 9.619c 0 5.312427009 -4.306572991 9.619 -9.619 9.619h -36.347c -5.312427009 0 -9.619 -4.306572991 -9.619 -9.619c 0 -5.312427009 4.306572991 -9.619 9.619 -9.619"/><g transform="matrix(1 0 0 -1 10 13.238)"><use xlink:href="#g3119527852ABF6F397DFE5CA87E4182A" x="0" y="0" fill="#f5f5f4" fill-rule="nonzero"/><use xlink:href="#gBFE09989B12480F1B7796D69E0D7287C" x="9.581" y="0" fill="#f5f5f4" fill-rule="nonzero"/><use xlink:href="#g2E78C0ACEE1FBDF39EC1D5F9B4AD747D" x="14.498" y="0" fill="#f5f5f4" fill-rule="nonzero"/><use xlink:href="#g4E5D026409004C23B788CF76C0C2AF69" x="19.921" y="0" fill="#f5f5f4" fill-rule="nonzero"/><use xlink:href="#gDD50B131DFBA2C7EA73123CA4C98C33" x="24.211" y="0" fill="#f5f5f4" fill-rule="nonzero"/><use xlink:href="#gB38329E71763B8BD4CF776D24C5AFFE1" x="27.192" y="0" fill="#f5f5f4" fill-rule="nonzero"/><use xlink:href="#gBFE09989B12480F1B7796D69E0D7287C" x="30.668" y="0" fill="#f5f5f4" fill-rule="nonzero"/></g></g><g transform="translate(373.266 15.34646875)"><path fill="none" stroke="#f5f5f473" stroke-width="0.75" stroke-linecap="butt" stroke-linejoin="miter" stroke-miterlimit="4" d="M 0 0m 9.619 0h 24.027c 5.312427009 0 9.619 4.306572991 9.619 9.619c 0 5.312427009 -4.306572991 9.619 -9.619 9.619h -24.027c -5.312427009 0 -9.619 -4.306572991 -9.619 -9.619c 0 -5.312427009 4.306572991 -9.619 9.619 -9.619"/><g transform="matrix(1 0 0 -1 10 13.238)"><use xlink:href="#gF110087D0967D51B93062FFC3887FC46" x="0" y="0" fill="#f5f5f4" fill-rule="nonzero"/><use xlink:href="#g5E76F8DBE7C3C7A9A461E8EC1D70F6FB" x="6.468" y="0" fill="#f5f5f4" fill-rule="nonzero"/><use xlink:href="#g5E76F8DBE7C3C7A9A461E8EC1D70F6FB" x="12.089" y="0" fill="#f5f5f4" fill-rule="nonzero"/><use xlink:href="#g767961B2EBA2E1AFD166EADCDBCFA26C" x="17.633" y="0" fill="#f5f5f4" fill-rule="nonzero"/></g></g><defs><symbol id="g628D38FCFF0E42049F5AA83044B0F23B" overflow="visible"><path d="M 0 0m 0.407 2.277c 0 -1.441 1.144 -2.387 2.618 -2.387c 0.781 0 1.43 0.22 1.881 0.627c 0.561 0.495 0.748 1.243 0.748 1.859c 0 1.441 -0.979 2.508 -2.618 2.508c -0.913 0 -1.595 -0.319 -2.024 -0.814c -0.418 -0.484 -0.605 -1.144 -0.605 -1.793Z m 2.453 2.145c 0.748 0 1.254 -0.891 1.254 -2.398c 0 -1.32 -0.517 -1.672 -0.913 -1.672c -0.902 0 -1.254 1.353 -1.254 2.167c 0 1.012 0.176 1.903 0.913 1.903Z "/></symbol><symbol id="g1143AE89DED3DE0B703E6104D3FB935E" overflow="visible"><path d="M 0 0m 2.508 1.342v 2.211c 0.44 0.297 0.88 0.517 1.078 0.517c 0.44 0 0.77 -0.198 0.77 -0.825v -1.837c 0 -0.924 -0.176 -1.023 -0.627 -1.056c -0.066 -0.066 -0.066 -0.308 0 -0.374c 0.462 0.011 0.814 0.022 1.342 0.022c 0.605 0 1.089 -0.011 1.562 -0.022c 0.066 0.066 0.066 0.308 0 0.374c -0.671 0.033 -0.847 0.132 -0.847 1.056v 1.716c 0 1.21 -0.517 1.76 -1.463 1.76c -0.44 0 -1.221 -0.484 -1.826 -0.902c -0.033 0.385 -0.077 0.715 -0.077 0.715c -0.011 0.132 -0.099 0.187 -0.253 0.187c -0.407 -0.11 -1.067 -0.264 -1.826 -0.363c -0.022 -0.066 0 -0.286 0.022 -0.352c 0.605 -0.055 0.715 -0.143 0.715 -0.77v -2.057c 0 -0.913 -0.121 -0.935 -0.792 -0.99c -0.066 -0.066 -0.066 -0.308 0 -0.374c 0.462 0.011 0.924 0.022 1.507 0.022c 0.506 0 0.814 -0.011 1.287 -0.022c 0.066 0.066 0.066 0.308 0 0.374c -0.462 0.044 -0.572 0.077 -0.572 0.99Z "/></symbol><symbol id="gC14BE50F1468F5902AA9D472AD29244E" overflow="visible"><path d="M 0 0m 4.741 1.419c -0.451 -0.462 -1.045 -0.583 -1.463 -0.583c -0.858 0 -1.386 0.495 -1.386 1.573c 0 0.077 0.011 0.121 0.011 0.176h 2.64c 0.264 0 0.319 0.187 0.319 0.341c 0 0.935 -0.363 1.958 -1.98 1.958c -1.155 0 -2.475 -1.023 -2.475 -2.706c 0 -0.638 0.231 -1.309 0.704 -1.738c 0.418 -0.374 0.957 -0.55 1.738 -0.55c 0.759 0 1.507 0.385 2.057 1.188c 0 0.143 -0.055 0.341 -0.165 0.341Z m -2.794 1.606c 0.011 0.385 0.066 0.803 0.22 1.023c 0.176 0.264 0.473 0.374 0.594 0.374c 0.297 0 0.704 -0.286 0.704 -1.166c 0 -0.066 0 -0.209 -0.022 -0.231Z "/></symbol><symbol id="gD2AA3B4ACBC41440BCB2A32823E63FB0" overflow="visible"><path d="M 0 0m 0.528 1.606c 0.044 -0.539 0.099 -1.056 0.187 -1.474c 0.209 -0.066 0.913 -0.242 1.529 -0.242c 0.847 0 1.903 0.462 1.903 1.419c 0 0.374 -0.088 0.671 -0.341 0.946c -0.308 0.352 -0.77 0.627 -1.276 0.847c -0.44 0.187 -0.594 0.539 -0.594 0.858c 0 0.253 0.209 0.462 0.528 0.462c 0.385 0 0.759 -0.352 1.034 -1.023c 0.198 -0.033 0.319 -0.022 0.429 0.055c 0 0.396 -0.044 0.814 -0.143 1.166c -0.352 0.154 -0.627 0.264 -1.232 0.264c -0.583 0 -1.133 -0.22 -1.485 -0.572c -0.253 -0.253 -0.374 -0.561 -0.374 -0.858c 0 -0.33 0.132 -0.594 0.341 -0.825c 0.341 -0.374 0.946 -0.759 1.276 -0.913c 0.44 -0.198 0.561 -0.594 0.561 -0.858c 0 -0.352 -0.352 -0.539 -0.649 -0.539c -0.495 0 -1.023 0.506 -1.254 1.309c -0.176 0.033 -0.264 0.022 -0.44 -0.022Z "/></symbol><symbol id="g702DD15580C814312A77DF50215F4E53" overflow="visible"><path d="M 0 0m 5.61 1.463v 1.903c 0 0.924 0.022 0.792 0.022 1.056c 0 0.187 -0.044 0.308 -0.11 0.374c -0.198 -0.011 -0.418 -0.022 -0.627 -0.022c -0.308 0 -1.023 0.011 -1.452 0.022c -0.066 -0.066 -0.066 -0.308 0 -0.374c 0.561 -0.055 0.737 -0.132 0.737 -1.056v -2.035c 0 -0.11 0 -0.22 0.011 -0.33c -0.451 -0.275 -0.814 -0.297 -1.012 -0.297c -0.44 0 -0.77 0.055 -0.77 0.825v 1.837c 0 0.924 0.022 0.792 0.022 1.056c 0 0.187 -0.044 0.308 -0.11 0.374c -0.198 -0.011 -0.429 -0.022 -0.627 -0.022c -0.561 0 -0.979 0.011 -1.452 0.022c -0.066 -0.066 -0.066 -0.308 0 -0.374c 0.506 -0.022 0.737 -0.132 0.737 -1.056v -1.716c 0 -1.166 0.462 -1.76 1.408 -1.76c 0.396 0 1.199 0.319 1.837 0.671c 0.022 -0.275 0.044 -0.484 0.044 -0.484c 0.011 -0.132 0.099 -0.187 0.253 -0.187c 0.407 0.11 1.067 0.264 1.826 0.363c 0.022 0.066 0 0.286 -0.022 0.352c -0.594 0.055 -0.715 0.231 -0.715 0.858Z "/></symbol><symbol id="g47C477A4B9B11053B4775F3BF201C465" overflow="visible"><path d="M 0 0m 2.508 2.948c 0 0.396 0.121 0.561 0.264 0.726c 0.088 0.11 0.187 0.187 0.352 0.187c 0.099 0 0.22 -0.099 0.308 -0.209c 0.077 -0.088 0.264 -0.176 0.517 -0.176c 0.319 0 0.627 0.33 0.627 0.792c 0 0.286 -0.33 0.616 -0.726 0.616c -0.385 0 -0.803 -0.33 -1.309 -1.056h -0.044c -0.022 0.33 -0.077 0.869 -0.077 0.869c -0.011 0.099 -0.099 0.187 -0.253 0.187c -0.517 -0.132 -1.1 -0.286 -1.826 -0.363c -0.022 -0.066 0 -0.275 0.022 -0.341c 0.605 -0.055 0.715 -0.154 0.715 -0.781v -2.057c 0 -0.913 -0.121 -0.935 -0.792 -0.99c -0.066 -0.066 -0.066 -0.308 0 -0.374c 0.462 0.011 0.924 0.022 1.507 0.022c 0.583 0 1.034 -0.011 1.507 -0.022c 0.066 0.066 0.066 0.308 0 0.374c -0.671 0.044 -0.792 0.077 -0.792 0.99Z "/></symbol><symbol id="g91B01334F80632633C2B229D930B162" overflow="visible"><path d="M 0 0m 4.642 0.957c 0 0.132 -0.022 0.341 -0.143 0.341c -0.44 -0.407 -0.814 -0.616 -1.133 -0.616c -0.825 0 -1.474 0.594 -1.474 1.914c 0 1.221 0.275 1.826 0.858 1.826c 0.407 0 0.572 -0.429 0.605 -0.781c 0.033 -0.297 0.33 -0.517 0.682 -0.517c 0.352 0 0.605 0.275 0.605 0.616c 0 0.495 -0.594 1.144 -1.793 1.144c -1.298 0 -2.442 -1.045 -2.442 -2.673c 0 -0.715 0.253 -1.342 0.682 -1.749c 0.429 -0.407 0.935 -0.572 1.716 -0.572c 0.66 0 1.419 0.462 1.837 1.067Z "/></symbol><symbol id="g26CF2B118843AE2B30EF7354E73F7180" overflow="visible"><path d="M 0 0m 2.101171875 1.310546875h 1.0828125v -1.310546875h -1.0828125v 1.310546875Z "/></symbol><symbol id="g55A5E33116567964DCA4209366FC0502" overflow="visible"><path d="M 0 0m 1.4265625 2.384765625q 0 -0.91953125 0.290039063 -1.387890625q 0.290039063 -0.468359375 0.861523438 -0.468359375q 0.571484375 0 0.865820313 0.470507813q 0.294335938 0.470507813 0.294335938 1.385742188q 0 0.915234375 -0.294335938 1.385742188q -0.294335938 0.470507813 -0.865820313 0.470507813q -0.571484375 0 -0.861523438 -0.468359375q -0.290039063 -0.468359375 -0.290039063 -1.387890625Z m 2.31171875 -1.7875q -0.193359375 -0.356640625 -0.522070313 -0.547851563q -0.328710938 -0.191210938 -0.762695313 -0.191210938q -0.863671875 0 -1.364257813 0.668164063q -0.500585938 0.668164063 -0.500585938 1.841210938q 0 1.19453125 0.4984375 1.869140625q 0.4984375 0.674609375 1.36640625 0.674609375q 0.4296875 0 0.758398438 -0.186914063q 0.328710938 -0.186914063 0.526367188 -0.543554688v 0.614453125h 0.794921875v -6.64296875h -0.794921875v 2.444921875Z "/></symbol><symbol id="g9086D2D10E1416CB687F1928B5711AC" overflow="visible"><path d="M 0 0m 2.9046875 4.32265625q 0.14609375 0.309375 0.371679688 0.457617188q 0.225585938 0.148242188 0.543554688 0.148242188q 0.580078125 0 0.818554688 -0.449023438q 0.238476563 -0.449023438 0.238476563 -1.690820313v -2.788671875h -0.721875v 2.754296875q 0 1.018359375 -0.113867188 1.265429688q -0.113867188 0.247070313 -0.414648438 0.247070313q -0.34375 0 -0.470507813 -0.264257813q -0.126757813 -0.264257813 -0.126757813 -1.248242188v -2.754296875h -0.721875v 2.754296875q 0 1.03125 -0.122460938 1.271875q -0.122460938 0.240625 -0.440429688 0.240625q -0.313671875 0 -0.436132813 -0.264257813q -0.122460938 -0.264257813 -0.122460938 -1.248242188v -2.754296875h -0.717578125v 4.8125h 0.717578125v -0.4125q 0.141796875 0.2578125 0.354492188 0.393164063q 0.212695313 0.135351563 0.483398438 0.135351563q 0.3265625 0 0.543554688 -0.150390625q 0.216992188 -0.150390625 0.337304688 -0.45546875Z "/></symbol><symbol id="gB6FB672C0A18CD8F584E8571EF5DF6CD" overflow="visible"><path d="M 0 0m 3.68671875 4.198046875v 2.487890625h 0.790625v -6.6859375h -0.790625v 0.605859375q -0.19765625 -0.356640625 -0.526367188 -0.543554688q -0.328710938 -0.186914063 -0.758398438 -0.186914063q -0.872265625 0 -1.372851563 0.676757813q -0.500585938 0.676757813 -0.500585938 1.866992188q 0 1.173046875 0.502734375 1.841210938q 0.502734375 0.668164063 1.370703125 0.668164063q 0.433984375 0 0.76484375 -0.186914063q 0.330859375 -0.186914063 0.519921875 -0.543554688Z m -2.324609375 -1.79609375q 0 -0.91953125 0.2921875 -1.387890625q 0.2921875 -0.468359375 0.863671875 -0.468359375q 0.571484375 0 0.870117188 0.47265625q 0.298632813 0.47265625 0.298632813 1.38359375q 0 0.915234375 -0.298632813 1.385742188q -0.298632813 0.470507813 -0.870117188 0.470507813q -0.571484375 0 -0.863671875 -0.468359375q -0.2921875 -0.468359375 -0.2921875 -1.387890625Z "/></symbol><symbol id="gC21522F1A39D488DDFECC43825EDE0DD" overflow="visible"><path d="M 0 0m 17.12 1.64c 1.72 1.94 3.34 3.06 4.32 3.4v 0.46c -2.16 0.88 -4.32 3.44 -4.32 3.46h -0.8c 0.78 -1.68 1.6 -2.6 2.26 -3.14h -17.4v -1.04h 17.4c -0.64 -0.62 -1.62 -1.7 -2.22 -3.14Z "/></symbol><symbol id="g924FA4C14A01FD00FF0ECA5EF99A5E1B" overflow="visible"><path d="M 0 0m 6.798 1.342v 4.411c 0 0.913 0.187 0.968 0.957 1.001c 0.066 0.066 0.066 0.297 0 0.363c -0.451 -0.011 -1.012 -0.022 -1.43 -0.022c -0.407 0 -0.935 0.011 -1.419 0.022c -0.066 -0.066 -0.066 -0.297 0 -0.363c 0.77 -0.033 0.957 -0.088 0.957 -1.001v -1.76h -3.762v 1.76c 0 0.913 0.187 0.968 0.957 1.001c 0.066 0.066 0.066 0.297 0 0.363c -0.418 -0.011 -0.869 -0.022 -1.43 -0.022c -0.55 0 -1.001 0.011 -1.419 0.022c -0.066 -0.066 -0.066 -0.297 0 -0.363c 0.77 -0.033 0.957 -0.088 0.957 -1.001v -4.411c 0 -0.913 -0.187 -0.968 -0.957 -1.001c -0.066 -0.066 -0.066 -0.297 0 -0.363c 0.484 0.011 1.012 0.022 1.43 0.022c 0.396 0 0.935 -0.011 1.419 -0.022c 0.066 0.066 0.066 0.297 0 0.363c -0.77 0.033 -0.957 0.088 -0.957 1.001v 2.189h 3.762v -2.189c 0 -0.913 -0.187 -0.968 -0.957 -1.001c -0.066 -0.066 -0.066 -0.297 0 -0.363c 0.495 0.011 1.023 0.022 1.43 0.022c 0.407 0 0.935 -0.011 1.419 -0.022c 0.066 0.066 0.066 0.297 0 0.363c -0.77 0.033 -0.957 0.088 -0.957 1.001Z "/></symbol><symbol id="g6553513FE64203BDE37F7BF6C55D1886" overflow="visible"><path d="M 0 0m 3.85 1.342v 4.202c 0 0.704 0.11 1.122 0.506 1.122h 0.242c 0.825 0 1.342 -0.286 1.529 -1.133c 0.121 0 0.275 0.011 0.374 0.055c -0.077 0.506 -0.132 1.067 -0.143 1.562c 0 0.011 -0.022 0.033 -0.033 0.033c -0.374 -0.033 -1.595 -0.088 -2.464 -0.088h -0.946c -0.847 0 -2.145 0.055 -2.563 0.088c -0.022 0 -0.044 -0.022 -0.044 -0.033c -0.044 -0.495 -0.154 -1.067 -0.275 -1.595c 0.11 -0.044 0.242 -0.055 0.374 -0.055c 0.22 0.88 0.726 1.166 1.452 1.166h 0.539c 0.407 0 0.517 -0.418 0.517 -1.089v -4.235c 0 -0.913 -0.187 -0.968 -1.067 -1.001c -0.066 -0.066 -0.066 -0.297 0 -0.363c 0.539 0.011 1.1 0.022 1.54 0.022c 0.418 0 0.979 -0.011 1.529 -0.022c 0.066 0.066 0.066 0.297 0 0.363c -0.88 0.033 -1.067 0.088 -1.067 1.001Z "/></symbol><symbol id="g5A92E01899F34F07E07504597D398CD0" overflow="visible"><path d="M 0 0m 7.293 1.276c 0.055 -0.891 0.011 -0.902 -0.704 -0.935c -0.066 -0.066 -0.066 -0.297 0 -0.363c 0.407 0.011 0.847 0.022 1.177 0.022c 0.33 0 0.836 -0.011 1.199 -0.022c 0.066 0.066 0.066 0.297 0 0.363c -0.748 0.033 -0.781 0.077 -0.847 0.99l -0.33 4.631c -0.044 0.594 0.011 0.748 0.759 0.792c 0.066 0.066 0.066 0.297 0 0.363l -1.441 -0.022l -2.332 -5.577c -0.044 -0.11 -0.077 -0.154 -0.099 -0.154c -0.022 0 -0.055 0.055 -0.088 0.143l -2.255 5.588l -1.595 0.022c -0.066 -0.066 -0.066 -0.297 0 -0.363c 0.759 -0.044 0.825 -0.066 0.748 -0.891l -0.44 -4.532c -0.066 -0.66 -0.198 -0.935 -0.825 -0.99c -0.066 -0.066 -0.066 -0.297 0 -0.363c 0.33 0.011 0.682 0.022 0.946 0.022c 0.264 0 0.704 -0.011 1.034 -0.022c 0.066 0.066 0.066 0.297 0 0.363c -0.726 0.055 -0.781 0.396 -0.726 1.012l 0.418 4.411h 0.022l 2.277 -5.709c 0.033 -0.077 0.099 -0.165 0.165 -0.165c 0.066 0 0.11 0.077 0.154 0.165l 2.475 5.819h 0.022Z "/></symbol><symbol id="gDAEF01F2D8957876B63D52895EE853E4" overflow="visible"><path d="M 0 0m 1.639 0h 2.343c 0.297 0 1.309 -0.022 1.309 -0.022c 0.11 0.55 0.22 1.265 0.286 1.837c -0.11 0.055 -0.231 0.077 -0.363 0.055c -0.22 -0.792 -0.627 -1.441 -1.793 -1.441h -0.693c -0.429 0 -0.627 0.209 -0.627 0.77v 4.554c 0 0.913 0.187 0.968 0.957 1.001c 0.066 0.066 0.066 0.297 0 0.363c -0.495 -0.011 -1.012 -0.022 -1.43 -0.022c -0.396 0 -0.913 0.011 -1.419 0.022c -0.066 -0.066 -0.066 -0.297 0 -0.363c 0.77 -0.033 0.957 -0.088 0.957 -1.001v -4.411c 0 -0.913 -0.187 -0.968 -0.957 -1.001c -0.066 -0.066 -0.066 -0.297 0 -0.363c 0.429 0.011 1.056 0.022 1.43 0.022Z "/></symbol><symbol id="g5D279FAE8446F75B298AD3FAD5B8DC82" overflow="visible"><path d="M 0 0m 1.144 5.753v -4.411c 0 -0.913 -0.187 -0.968 -0.957 -1.001c -0.066 -0.066 -0.066 -0.297 0 -0.363c 0.495 0.011 1.034 0.022 1.43 0.022c 0.385 0 1.034 -0.011 1.584 -0.022c 0.066 0.066 0.066 0.297 0 0.363c -0.858 0.044 -1.122 0.088 -1.122 1.001v 1.87c 0.242 -0.077 0.506 -0.11 0.891 -0.11c 2.002 0 2.607 1.309 2.607 2.244c 0 0.649 -0.429 1.826 -2.464 1.826c -0.418 0 -1.067 -0.077 -1.507 -0.077c -0.407 0 -0.979 0.011 -1.419 0.022c -0.066 -0.066 -0.066 -0.297 0 -0.363c 0.77 -0.033 0.957 -0.088 0.957 -1.001Z m 0.935 0.341c 0 0.319 0.165 0.704 0.957 0.704c 0.759 0 1.518 -0.253 1.518 -1.65c 0 -1.188 -0.572 -1.672 -1.639 -1.672c -0.275 0 -0.715 0.022 -0.836 0.055Z "/></symbol><symbol id="gF697F4206A782C3B42F4E05D5EA9B2A0" overflow="visible"><path d="M 0 0m 1.628 7.095c -0.396 0 -0.979 0.011 -1.419 0.022c -0.066 -0.066 -0.066 -0.297 0 -0.363c 0.77 -0.033 0.957 -0.088 0.957 -1.001v -4.411c 0 -0.913 -0.187 -0.968 -0.957 -1.001c -0.066 -0.066 -0.066 -0.297 0 -0.363c 0.429 0.011 1.012 0.022 1.43 0.022c 0.407 0 0.869 -0.022 2.002 -0.022c 1.551 0 3.597 0.704 3.597 3.41c 0 2.046 -1.683 3.729 -3.795 3.729c -0.781 0 -1.386 -0.022 -1.815 -0.022Z m 0.473 -6.171v 5.28c 0 0.385 0.385 0.539 0.924 0.539c 2.376 0 3.157 -1.925 3.157 -3.619c 0 -2.222 -1.331 -2.772 -2.882 -2.772c -1.078 0 -1.199 0.22 -1.199 0.572Z "/></symbol><symbol id="g3BC6300649CA32A3B6F5E66435D77781" overflow="visible"><path d="M 0 0m 3.113 3.553c 0.935 0 0.968 -0.253 1.001 -0.748c 0.066 -0.066 0.297 -0.066 0.363 0c -0.011 0.275 -0.022 0.594 -0.022 0.968c 0 0.374 0.011 0.66 0.022 0.946c -0.066 0.066 -0.297 0.066 -0.363 0c -0.033 -0.605 -0.066 -0.748 -1.001 -0.748h -1.023v 1.98c 0 0.594 0.132 0.704 0.616 0.704h 0.495c 1.166 0 1.441 -0.44 1.683 -1.199c 0.132 0 0.253 0.022 0.341 0.055c -0.055 0.451 -0.22 1.507 -0.242 1.595c 0 0.022 -0.011 0.033 -0.044 0.033c -0.187 -0.033 -0.242 -0.044 -0.517 -0.044h -2.805c -0.352 0 -0.979 0.011 -1.419 0.022c -0.066 -0.066 -0.066 -0.297 0 -0.363c 0.77 -0.033 0.957 -0.088 0.957 -1.001v -4.411c 0 -0.913 -0.187 -0.968 -0.957 -1.001c -0.066 -0.066 -0.066 -0.297 0 -0.363c 0.385 0.011 0.935 0.022 1.43 0.022c 0.495 0 1.034 -0.011 1.419 -0.022c 0.066 0.066 0.066 0.297 0 0.363c -0.77 0.033 -0.957 0.088 -0.957 1.001v 2.211Z "/></symbol><symbol id="gB7A7981F9D6FEBAF4A3C34CF9A3FA37" overflow="visible"><path d="M 0 0m 2.079 1.342v 1.859c 0.924 0 1.133 -0.165 1.287 -0.418l 1.177 -1.914c 0.319 -0.517 0.792 -0.979 1.452 -0.979c 0.165 0 0.352 0.022 0.462 0.077c 0.044 0.077 0.033 0.176 -0.011 0.264c -0.495 0 -0.77 0.374 -1.056 0.847l -1.386 2.31c 0.473 0.154 1.463 0.726 1.463 1.881c 0 0.55 -0.187 1.001 -0.583 1.375c -0.528 0.495 -1.21 0.528 -1.903 0.528c -0.517 0 -0.979 -0.077 -1.375 -0.077c -0.385 0 -0.902 0.011 -1.419 0.022c -0.066 -0.066 -0.066 -0.297 0 -0.363c 0.77 -0.033 0.957 -0.088 0.957 -1.001v -4.411c 0 -0.913 -0.187 -0.968 -0.957 -1.001c -0.066 -0.066 -0.066 -0.297 0 -0.363c 0.495 0.011 1.012 0.022 1.43 0.022c 0.418 0 0.935 -0.011 1.419 -0.022c 0.066 0.066 0.066 0.297 0 0.363c -0.77 0.033 -0.957 0.088 -0.957 1.001Z m 0.913 5.456c 0.671 0 1.463 -0.242 1.463 -1.54c 0 -1.375 -0.781 -1.683 -1.848 -1.683h -0.528v 2.519c 0 0.319 0.132 0.704 0.913 0.704Z "/></symbol><symbol id="gBFE09989B12480F1B7796D69E0D7287C" overflow="visible"><path d="M 0 0m 4.246 1.023c -0.407 -0.418 -0.726 -0.594 -1.364 -0.594c -0.396 0 -0.858 0.231 -1.199 0.792c -0.22 0.363 -0.352 0.869 -0.352 1.507l 2.926 -0.022c 0.132 0 0.209 0.066 0.209 0.187c 0 0.924 -0.33 1.914 -1.859 1.914c -0.957 0 -2.2 -0.913 -2.2 -2.585c 0 -0.616 0.154 -1.21 0.517 -1.628c 0.374 -0.44 0.891 -0.704 1.683 -0.704c 0.836 0 1.43 0.385 1.87 0.957c -0.033 0.11 -0.099 0.165 -0.231 0.176Z m -2.882 2.079c 0.209 1.243 0.979 1.342 1.243 1.342c 0.418 0 0.913 -0.231 0.913 -1.155c 0 -0.099 -0.044 -0.154 -0.165 -0.154Z "/></symbol><symbol id="g1E471D2E98C4E85A3CE47F56E86025C4" overflow="visible"><path d="M 0 0m 3.575 4.378c 0.594 -0.044 0.66 -0.176 0.429 -0.737l -0.891 -2.156c -0.176 -0.429 -0.231 -0.429 -0.407 0.033l -0.792 2.123c -0.198 0.528 -0.242 0.66 0.341 0.737c 0.066 0.066 0.066 0.297 0 0.363c -0.363 -0.011 -0.748 -0.022 -1.111 -0.022c -0.363 0 -0.693 0.011 -1.023 0.022c -0.066 -0.066 -0.066 -0.297 0 -0.363c 0.583 -0.066 0.66 -0.242 0.88 -0.803l 1.408 -3.476c 0.066 -0.165 0.132 -0.231 0.275 -0.231c 0.11 0 0.187 0.066 0.264 0.253l 1.463 3.443c 0.209 0.484 0.33 0.759 0.946 0.814c 0.066 0.066 0.066 0.297 0 0.363c -0.22 -0.011 -0.484 -0.022 -0.77 -0.022c -0.363 0 -0.737 0.011 -1.012 0.022c -0.066 -0.066 -0.066 -0.297 0 -0.363Z "/></symbol><symbol id="g9787446D80B11CDE2529516BF2D1ACCA" overflow="visible"><path d="M 0 0m 3.223 0.528c 0.066 -0.341 0.187 -0.638 0.737 -0.638c 0.418 0 0.814 0.187 1.045 0.407c -0.022 0.132 -0.066 0.231 -0.187 0.297c -0.077 -0.066 -0.264 -0.176 -0.407 -0.176c -0.319 0 -0.33 0.429 -0.33 0.935v 1.617c 0 1.562 -0.858 1.859 -1.661 1.859c -0.902 0 -1.815 -0.594 -1.815 -1.221c 0 -0.264 0.132 -0.396 0.385 -0.396c 0.319 0 0.517 0.231 0.517 0.374c 0 0.077 -0.011 0.154 -0.033 0.198c -0.011 0.033 -0.022 0.099 -0.022 0.22c 0 0.341 0.462 0.462 0.88 0.462c 0.374 0 0.891 -0.187 0.891 -1.43c 0 -0.077 -0.033 -0.121 -0.066 -0.132l -0.946 -0.231c -1.056 -0.264 -1.815 -0.847 -1.815 -1.595c 0 -0.902 0.616 -1.188 1.386 -1.188c 0.385 0 0.715 0.088 1.199 0.462l 0.22 0.176Z m 0 2.035v -1.452c 0 -0.143 -0.066 -0.22 -0.154 -0.286c -0.286 -0.231 -0.66 -0.484 -0.968 -0.484c -0.55 0 -0.792 0.44 -0.792 0.781c 0 0.495 0.231 1.001 1.045 1.21Z "/></symbol><symbol id="g36F90904A4043C6A677E73471A30013F" overflow="visible"><path d="M 0 0m 1.045 1.342c 0 -0.913 -0.121 -0.968 -0.792 -1.001c -0.066 -0.066 -0.066 -0.297 0 -0.363c 0.385 0.011 0.792 0.022 1.232 0.022c 0.44 0 0.858 -0.011 1.221 -0.022c 0.066 0.066 0.066 0.297 0 0.363c -0.671 0.033 -0.792 0.088 -0.792 1.001v 5.071c 0 0.715 0.044 1.155 0.044 1.155c 0 0.077 -0.044 0.11 -0.143 0.11c -0.275 -0.11 -1.1 -0.264 -1.54 -0.297c -0.022 -0.088 0 -0.264 0.066 -0.33c 0.638 -0.044 0.704 -0.077 0.704 -0.902Z "/></symbol><symbol id="g4C1ED41FE02ABB1BA3896D4213CC7460" overflow="visible"><path d="M 0 0m 0.627 0.473c 0 -0.319 0.264 -0.583 0.583 -0.583c 0.319 0 0.583 0.264 0.583 0.583c 0 0.319 -0.264 0.583 -0.583 0.583c -0.319 0 -0.583 -0.264 -0.583 -0.583Z "/></symbol><symbol id="g448238CFC371702E1591C7F37BB1D13F" overflow="visible"><path d="M 0 0m 1.243 3.487v -2.651c 0 -1.452 -0.044 -2.805 -0.594 -2.805c -0.121 0 -0.264 0.044 -0.341 0.121c -0.11 0.11 -0.242 0.286 -0.484 0.286c -0.121 0 -0.352 -0.22 -0.352 -0.418c 0 -0.319 0.396 -0.473 0.605 -0.473c 0.231 0 0.803 0.033 1.21 0.374c 0.517 0.418 0.825 1.21 0.825 3.289v 2.321c 0 0.55 0.044 1.254 0.044 1.254c 0 0.044 -0.055 0.077 -0.143 0.077c -0.308 -0.121 -0.748 -0.22 -1.507 -0.319c -0.022 -0.066 0 -0.242 0.022 -0.308c 0.594 -0.055 0.715 -0.121 0.715 -0.748Z m -0.154 3.102c 0 -0.286 0.264 -0.572 0.528 -0.572c 0.308 0 0.572 0.297 0.572 0.528c 0 0.264 -0.231 0.572 -0.528 0.572c -0.264 0 -0.572 -0.264 -0.572 -0.528Z "/></symbol><symbol id="g4E5D026409004C23B788CF76C0C2AF69" overflow="visible"><path d="M 0 0m 0.528 1.518c 0.044 -0.539 0.077 -1.056 0.077 -1.518c 0.11 0.022 0.22 0.033 0.275 0.033c 0.077 0 0.143 0 0.22 -0.022c 0.297 -0.077 0.594 -0.121 1.001 -0.121c 0.616 0 1.749 0.297 1.749 1.386c 0 0.748 -0.539 1.188 -1.287 1.463c -0.66 0.253 -1.1 0.418 -1.1 1.023c 0 0.451 0.396 0.704 0.77 0.704c 0.242 0 0.88 -0.088 1.023 -1.023c 0.066 -0.066 0.286 -0.055 0.352 0.011c 0.033 0.396 0.055 0.803 0.066 1.166c -0.341 0.055 -0.869 0.209 -1.441 0.209c -0.814 0 -1.551 -0.528 -1.551 -1.232c 0 -0.803 0.363 -1.144 1.21 -1.496c 0.913 -0.374 1.122 -0.605 1.122 -1.078c 0 -0.539 -0.528 -0.77 -0.935 -0.77c -0.429 0 -0.671 0.143 -0.781 0.264c -0.242 0.253 -0.363 0.737 -0.429 1.012c -0.066 0.066 -0.275 0.055 -0.341 -0.011Z "/></symbol><symbol id="g3119527852ABF6F397DFE5CA87E4182A" overflow="visible"><path d="M 0 0m 8.91 6.215l -1.716 -4.774l -0.033 0.011l -1.518 4.642c -0.187 0.594 0.198 0.627 0.572 0.66c 0.066 0.066 0.066 0.297 0 0.363c -0.451 -0.011 -0.935 -0.022 -1.375 -0.022c -0.363 0 -0.748 0.011 -1.1 0.022c -0.066 -0.066 -0.066 -0.297 0 -0.363c 0.583 -0.033 0.825 -0.374 0.924 -0.66l 0.253 -0.726c 0.044 -0.132 0.077 -0.242 0.077 -0.341c 0 -0.11 -0.011 -0.198 -0.099 -0.385l -1.419 -3.223l -0.055 0.011l -1.606 4.862c -0.132 0.385 0.165 0.44 0.55 0.462c 0.066 0.066 0.066 0.297 0 0.363c -0.363 -0.011 -0.847 -0.022 -1.276 -0.022c -0.385 0 -0.704 0.011 -1.023 0.022c -0.066 -0.066 -0.066 -0.297 0 -0.363c 0.495 -0.033 0.572 -0.044 0.781 -0.638l 2.068 -5.951c 0.055 -0.176 0.121 -0.297 0.242 -0.297c 0.143 0 0.209 0.11 0.286 0.297l 1.639 3.685c 0.099 0.22 0.132 0.275 0.187 0.275c 0.044 0 0.088 -0.121 0.154 -0.308l 1.265 -3.652c 0.066 -0.187 0.121 -0.297 0.253 -0.297c 0.121 0 0.198 0.121 0.253 0.286l 2.211 5.929c 0.143 0.385 0.341 0.638 0.946 0.671c 0.066 0.066 0.066 0.297 0 0.363c -0.319 -0.011 -0.671 -0.022 -0.957 -0.022c -0.286 0 -0.77 0.011 -1.21 0.022c -0.066 -0.066 -0.066 -0.297 0 -0.363c 0.451 -0.033 0.891 -0.066 0.726 -0.539Z "/></symbol><symbol id="g2E78C0ACEE1FBDF39EC1D5F9B4AD747D" overflow="visible"><path d="M 0 0m 1.837 4.334c -0.066 -0.066 -0.11 -0.044 -0.11 0.055v 2.024c 0 0.715 0.044 1.155 0.044 1.155c 0 0.077 -0.044 0.11 -0.143 0.11c -0.275 -0.11 -1.1 -0.264 -1.54 -0.297c -0.022 -0.088 0 -0.264 0.066 -0.33c 0.033 0 0.066 0 0.099 0c 0.484 -0.033 0.605 -0.033 0.605 -0.902v -5.368c 0 -0.429 -0.011 -0.627 -0.044 -0.781c 0.055 -0.088 0.11 -0.132 0.242 -0.132c 0.066 0.066 0.176 0.165 0.264 0.264c 0.11 0.132 0.176 0.132 0.297 0.033c 0.253 -0.209 0.583 -0.275 0.968 -0.275c 1.122 0 2.431 1.023 2.431 2.772c 0 1.342 -0.99 2.167 -1.947 2.167c -0.473 0 -0.891 -0.187 -1.232 -0.495Z m 0.077 -0.341c 0.286 0.253 0.616 0.352 0.935 0.352c 0.671 0 1.221 -0.814 1.221 -1.881c 0 -1.254 -0.506 -2.2 -1.551 -2.2c -0.341 0 -0.572 0.242 -0.792 0.517v 2.75c 0 0.231 0.044 0.341 0.187 0.462Z "/></symbol><symbol id="gDD50B131DFBA2C7EA73123CA4C98C33" overflow="visible"><path d="M 0 0m 1.991 1.342v 2.189c 0 0.55 0.044 1.254 0.044 1.254c 0 0.044 -0.055 0.077 -0.143 0.077c -0.308 -0.121 -0.748 -0.22 -1.507 -0.319c -0.022 -0.066 0 -0.242 0.022 -0.308c 0.605 -0.055 0.715 -0.121 0.715 -0.748v -2.145c 0 -0.913 -0.121 -0.946 -0.792 -1.001c -0.066 -0.066 -0.066 -0.297 0 -0.363c 0.363 0.011 0.792 0.022 1.232 0.022c 0.44 0 0.858 -0.011 1.221 -0.022c 0.066 0.066 0.066 0.297 0 0.363c -0.671 0.044 -0.792 0.088 -0.792 1.001Z m -1.001 5.247c 0 -0.286 0.264 -0.572 0.528 -0.572c 0.308 0 0.572 0.297 0.572 0.528c 0 0.264 -0.231 0.572 -0.528 0.572c -0.264 0 -0.572 -0.264 -0.572 -0.528Z "/></symbol><symbol id="gB38329E71763B8BD4CF776D24C5AFFE1" overflow="visible"><path d="M 0 0m 0.473 4.719c -0.154 0 -0.198 -0.132 -0.198 -0.22v -0.143c 0 -0.055 0.011 -0.066 0.055 -0.066h 0.649v -3.311c 0 -0.781 0.341 -1.089 0.847 -1.089c 0.506 0 1.056 0.242 1.485 0.726c -0.022 0.11 -0.088 0.176 -0.198 0.187c -0.286 -0.22 -0.616 -0.308 -0.902 -0.308c -0.297 0 -0.363 0.33 -0.363 1.012v 2.783h 1.144c 0.11 0 0.264 0.044 0.264 0.143v 0.22c 0 0.044 -0.033 0.066 -0.088 0.066h -1.32v 0.429c 0 0.715 0.044 1.155 0.044 1.155c 0 0.066 -0.033 0.099 -0.088 0.099c -0.044 0 -0.143 -0.044 -0.242 -0.099c -0.121 -0.066 -0.231 -0.121 -0.374 -0.154c -0.132 -0.044 -0.242 -0.077 -0.242 -0.154c 0 -0.132 0.033 -0.055 0.033 -1.276Z "/></symbol><symbol id="gF110087D0967D51B93062FFC3887FC46" overflow="visible"><path d="M 0 0m 1.628 7.095c -0.396 0 -0.99 0.011 -1.419 0.022c -0.066 -0.066 -0.066 -0.297 0 -0.363c 0.77 -0.033 0.957 -0.088 0.957 -1.001v -4.411c 0 -0.913 -0.187 -0.968 -0.957 -1.001c -0.066 -0.066 -0.066 -0.297 0 -0.363c 0.429 0.011 1.023 0.022 1.43 0.022c 0.396 0 0.682 -0.022 1.606 -0.022c 2.189 0 2.772 1.1 2.772 2.046c 0 1.056 -0.737 1.661 -1.694 1.936v 0.022c 0.55 0.275 1.045 0.847 1.045 1.441c 0 0.737 -0.319 1.694 -2.365 1.694c -0.385 0 -0.979 -0.022 -1.375 -0.022Z m 0.473 -3.443h 0.759c 1.507 0 2.134 -0.847 2.134 -1.837c 0 -0.803 -0.308 -1.474 -1.98 -1.474c -0.77 0 -0.913 0.286 -0.913 0.957Z m 0 2.398c 0 0.583 0 0.693 0.957 0.693c 0.616 0 1.419 -0.33 1.419 -1.452c 0 -0.935 -0.649 -1.265 -1.562 -1.265h -0.814Z "/></symbol><symbol id="g5E76F8DBE7C3C7A9A461E8EC1D70F6FB" overflow="visible"><path d="M 0 0m 0.451 2.255c 0 -1.122 0.748 -2.365 2.31 -2.365c 0.704 0 1.243 0.253 1.617 0.616c 0.495 0.484 0.715 1.177 0.715 1.848c 0 1.144 -0.627 2.475 -2.31 2.475c -0.726 0 -1.32 -0.297 -1.727 -0.77c -0.396 -0.473 -0.605 -1.111 -0.605 -1.804Z m 2.167 2.189c 0.946 0 1.529 -0.858 1.529 -2.442c 0 -1.386 -0.715 -1.727 -1.232 -1.727c -1.144 0 -1.518 1.386 -1.518 2.233c 0 0.957 0.231 1.936 1.221 1.936Z "/></symbol><symbol id="g767961B2EBA2E1AFD166EADCDBCFA26C" overflow="visible"><path d="M 0 0m 0.946 1.342c 0 -0.913 -0.121 -0.957 -0.737 -1.001c -0.066 -0.066 -0.066 -0.297 0 -0.363c 0.363 0.011 0.737 0.022 1.177 0.022c 0.385 0 0.748 -0.011 1.001 -0.022c 0.066 0.066 0.066 0.297 0 0.363c -0.451 0.044 -0.572 0.088 -0.572 1.001v 0.957c 0.209 -0.011 0.363 -0.022 0.473 -0.055c 0.121 -0.088 0.22 -0.187 0.352 -0.363l 0.803 -1.078c 0.319 -0.429 0.451 -0.638 0.462 -0.77c 0 -0.033 0.011 -0.055 0.044 -0.055c 0.22 0.011 0.462 0.022 0.682 0.022c 0.341 0 0.682 -0.011 0.902 -0.022c 0.066 0.066 0.066 0.297 0 0.363c -0.374 0.044 -0.649 0.088 -0.946 0.462l -1.452 1.826c -0.044 0.055 -0.077 0.099 -0.077 0.154c 0 0.044 0 0.066 0.044 0.11l 0.968 1.001c 0.33 0.352 0.715 0.44 1.155 0.484c 0.066 0.066 0.066 0.297 0 0.363c -0.253 -0.011 -0.561 -0.022 -0.957 -0.022c -0.418 0 -0.825 0.011 -1.078 0.022c -0.066 -0.066 -0.066 -0.297 0 -0.363c 0.616 -0.044 0.352 -0.429 0.253 -0.561c -0.253 -0.319 -0.594 -0.693 -0.88 -0.902c -0.242 -0.176 -0.539 -0.308 -0.748 -0.341v 3.839c 0 0.715 0.044 1.155 0.044 1.155c 0 0.077 -0.044 0.11 -0.143 0.11c -0.275 -0.11 -1.1 -0.264 -1.54 -0.297c -0.022 -0.088 0 -0.264 0.066 -0.33c 0.033 0 0.066 0 0.099 0c 0.484 -0.033 0.605 -0.033 0.605 -0.902Z "/></symbol></defs></svg>