<svg viewBox="0 0 453.543307087 226.771653543" width="453.543307087pt" height="226.771653543pt" xmlns="http://www.w3.org/2000/svg" xmlns:xlink="http://www.w3.org/1999/xlink" xmlns:h5="http://www.w3.org/1999/xhtml"><path fill="#161616" fill-rule="nonzero" d="M 0 0v 226.771653543h 453.543307087v -226.771653543Z "/><g transform="translate(5.5 5.5)"><path fill="#161616" fill-rule="nonzero" d="M 0 0v 215.771653543h 442.543307087v -215.771653543Z "/><g transform="translate(5 5)"><g><g transform="matrix(1 0 0 -1 0 7.74)"><use xlink:href="#g7081628C2A16E15BC4BEFE73CB35101" x="0" y="0" fill="#f5f5f4" fill-rule="nonzero"/><use xlink:href="#gE18113BE1243CA6EC5596891CC422939" x="9.804" y="0" fill="#f5f5f4" fill-rule="nonzero"/><use xlink:href="#g966BE685B7523A33FA7C5091B1A7882" x="15.672" y="0" fill="#f5f5f4" fill-rule="nonzero"/><use xlink:href="#g60E64311C0ACD550FD96BE9E58C78EBF" x="19.572" y="0" fill="#f5f5f4" fill-rule="nonzero"/><use xlink:href="#g1094D23D321B642DA133CC49B1BA1EB9" x="26.544" y="0" fill="#f5f5f4" fill-rule="nonzero"/><use xlink:href="#g3C2E9715FB9D690A986B8F0D57F3007C" x="30.408" y="0" fill="#f5f5f4" fill-rule="nonzero"/><use xlink:href="#g8D15A55F054D4F8515F5F3C5E6F83BE2" x="37.8" y="0" fill="#f5f5f4" fill-rule="nonzero"/><use xlink:href="#g9CC77C6CF89EC74059C0E076AB661803" x="47.052" y="0" fill="#f5f5f4" fill-rule="nonzero"/><use xlink:href="#gC76A03CC6B2F66C4058A56BA6A9EE20" x="55.812" y="0" fill="#f5f5f4" fill-rule="nonzero"/><use xlink:href="#g3E13159425B4C5FA6BE9D46173183F7B" x="62.988" y="0" fill="#f5f5f4" fill-rule="nonzero"/><use xlink:href="#g9CC77C6CF89EC74059C0E076AB661803" x="70.284" y="0" fill="#f5f5f4" fill-rule="nonzero"/><use xlink:href="#g3C2E9715FB9D690A986B8F0D57F3007C" x="79.044" y="0" fill="#f5f5f4" fill-rule="nonzero"/></g><g transform="matrix(1 0 0 -1 89.436 7.74)"><use xlink:href="#gE8400F2E9FCB584693F6CCD94C295FE7" x="0" y="0" fill="#f5f5f4" fill-rule="nonzero"/><use xlink:href="#g4E5A13CA7F840038E35DCEA648391BF" x="5.7796875" y="0" fill="#f5f5f4" fill-rule="nonzero"/><use xlink:href="#g4C22F8D63DF84A1078C6B96DD0B3E27" x="11.559375" y="0" fill="#f5f5f4" fill-rule="nonzero"/><use xlink:href="#gB9A4462DA8AF1155C8BE53F75927267" x="17.3390625" y="0" fill="#f5f5f4" fill-rule="nonzero"/><use xlink:href="#gAFF81092971B4F9B2F48871D59216F0A" x="23.11875" y="0" fill="#f5f5f4" fill-rule="nonzero"/><use xlink:href="#g4C301BD3341CC1D94A25131CBB2BFC09" x="28.8984375" y="0" fill="#f5f5f4" fill-rule="nonzero"/><use xlink:href="#g10B6F7BA62AFB50139F3CE488B770249" x="34.678125" y="0" fill="#f5f5f4" fill-rule="nonzero"/><use xlink:href="#gACD18770F939F3C37E88949A68DA5582" x="40.4578125" y="0" fill="#f5f5f4" fill-rule="nonzero"/><use xlink:href="#gBF856CAC7528D307D2C098F3234EF1B" x="46.2375" y="0" fill="#f5f5f4" fill-rule="nonzero"/><use xlink:href="#g122FEDB52FEA42B919876D57DF4993A" x="52.0171875" y="0" fill="#f5f5f4" fill-rule="nonzero"/><use xlink:href="#g2F3C0C0E11732865D6C50E1B0B602D8" x="57.796875" y="0" fill="#f5f5f4" fill-rule="nonzero"/><use xlink:href="#gE8400F2E9FCB584693F6CCD94C295FE7" x="63.5765625" y="0" fill="#f5f5f4" fill-rule="nonzero"/><use xlink:href="#g4E5A13CA7F840038E35DCEA648391BF" x="69.35625" y="0" fill="#f5f5f4" fill-rule="nonzero"/><use xlink:href="#g4C22F8D63DF84A1078C6B96DD0B3E27" x="75.1359375" y="0" fill="#f5f5f4" fill-rule="nonzero"/><use xlink:href="#gB9A4462DA8AF1155C8BE53F75927267" x="80.915625" y="0" fill="#f5f5f4" fill-rule="nonzero"/><use xlink:href="#gAFF81092971B4F9B2F48871D59216F0A" x="86.6953125" y="0" fill="#f5f5f4" fill-rule="nonzero"/><use xlink:href="#g4C301BD3341CC1D94A25131CBB2BFC09" x="92.475" y="0" fill="#f5f5f4" fill-rule="nonzero"/><use xlink:href="#g10B6F7BA62AFB50139F3CE488B770249" x="98.2546875" y="0" fill="#f5f5f4" fill-rule="nonzero"/><use xlink:href="#g2420748DFD644DC337F2DBA385449750" x="104.034375" y="0" fill="#f5f5f4" fill-rule="nonzero"/><use xlink:href="#gB77196DC51126A4C932B3D3E992AF322" x="109.8140625" y="0" fill="#f5f5f4" fill-rule="nonzero"/><use xlink:href="#g3A9A18FAEB95961371B978D4EA8496F3" x="115.59375" y="0" fill="#f5f5f4" fill-rule="nonzero"/></g></g><g transform="translate(0 14.94)"><g transform="matrix(1 0 0 -1 0 5.922)"><use xlink:href="#gFD3CB615735852E180B6E7B0A5E3E1F2" x="0" y="0" fill="#f5f5f4" fill-rule="nonzero"/><use xlink:href="#gECB1CD146348D219847309C79C322A37" x="6.147" y="0" fill="#f5f5f4" fill-rule="nonzero"/><use xlink:href="#g5277906DC426125FD25A938CB480528C" x="9.999" y="0" fill="#f5f5f4" fill-rule="nonzero"/><use xlink:href="#gEDE113971A7C9D129D6A2104959F55B2" x="12.843" y="0" fill="#f5f5f4" fill-rule="nonzero"/><use xlink:href="#g83108E758E0F46864100B4063ECF2561" x="15.282" y="0" fill="#f5f5f4" fill-rule="nonzero"/><use xlink:href="#gEDE113971A7C9D129D6A2104959F55B2" x="19.755" y="0" fill="#f5f5f4" fill-rule="nonzero"/><use xlink:href="#g5277906DC426125FD25A938CB480528C" x="22.194" y="0" fill="#f5f5f4" fill-rule="nonzero"/><use xlink:href="#gB7ADC05C7CC292D7AE42D71EE1DDDCEC" x="25.038" y="0" fill="#f5f5f4" fill-rule="nonzero"/><use xlink:href="#gA1FEA12DCE93D0EA0BBFC1201B9D8E1C" x="31.923" y="0" fill="#f5f5f4" fill-rule="nonzero"/><use xlink:href="#g4F94A37786D24AC11F1E2C6578232409" x="35.433" y="0" fill="#f5f5f4" fill-rule="nonzero"/><use xlink:href="#g1E3DE6493D0CDAC5230F4F7A69963EA0" x="40.104" y="0" fill="#f5f5f4" fill-rule="nonzero"/><use xlink:href="#gEDE113971A7C9D129D6A2104959F55B2" x="42.48" y="0" fill="#f5f5f4" fill-rule="nonzero"/><use xlink:href="#g5277906DC426125FD25A938CB480528C" x="44.919" y="0" fill="#f5f5f4" fill-rule="nonzero"/><use xlink:href="#gCD526F970F75B32D8B517499D55C4978" x="50.013" y="0" fill="#f5f5f4" fill-rule="nonzero"/><use xlink:href="#gECB1CD146348D219847309C79C322A37" x="54.126" y="0" fill="#f5f5f4" fill-rule="nonzero"/><use xlink:href="#gB56A4169EDF414CCDA3A7A5C17A02142" x="57.978" y="0" fill="#f5f5f4" fill-rule="nonzero"/><use xlink:href="#gF71CD90141C058754731CB923424AFF5" x="61.254" y="0" fill="#f5f5f4" fill-rule="nonzero"/><use xlink:href="#gA1FEA12DCE93D0EA0BBFC1201B9D8E1C" x="65.79" y="0" fill="#f5f5f4" fill-rule="nonzero"/><use xlink:href="#gA1FEA12DCE93D0EA0BBFC1201B9D8E1C" x="69.3" y="0" fill="#f5f5f4" fill-rule="nonzero"/></g><g transform="matrix(1 0 0 -1 75.06 5.922)"><use xlink:href="#g54DB3EB67FAE9AE0814F8422BF98AB8D" x="0" y="0" fill="#0072b2" fill-rule="nonzero"/><use xlink:href="#g5D166F0F7E5A44368BF2E983F6EE9FD5" x="6.606" y="0" fill="#0072b2" fill-rule="nonzero"/><use xlink:href="#g5CCD08CEE029BB1E1252C86C73083DDC" x="9.504" y="0" fill="#0072b2" fill-rule="nonzero"/><use xlink:href="#g1B4BB274E0645BBC7FEACF3996C1781A" x="13.347" y="0" fill="#0072b2" fill-rule="nonzero"/><use xlink:href="#g3AABD6367CE61353955D2F6F568F5DF" x="17.451" y="0" fill="#0072b2" fill-rule="nonzero"/><use xlink:href="#g5CCD08CEE029BB1E1252C86C73083DDC" x="22.833" y="0" fill="#0072b2" fill-rule="nonzero"/><use xlink:href="#g5CCD08CEE029BB1E1252C86C73083DDC" x="26.676" y="0" fill="#0072b2" fill-rule="nonzero"/><use xlink:href="#g5D166F0F7E5A44368BF2E983F6EE9FD5" x="30.519" y="0" fill="#0072b2" fill-rule="nonzero"/><use xlink:href="#gB44AD3C00DF2BD7A3B0995B729B2F89E" x="33.417" y="0" fill="#0072b2" fill-rule="nonzero"/><use xlink:href="#g77DFF579C4297C58BB534BE65B39B6CA" x="38.376" y="0" fill="#0072b2" fill-rule="nonzero"/><use xlink:href="#g5CCD08CEE029BB1E1252C86C73083DDC" x="43.92" y="0" fill="#0072b2" fill-rule="nonzero"/><use xlink:href="#g377F3635C22222BC3D8999B473E29903" x="50.013" y="0" fill="#0072b2" fill-rule="nonzero"/><use xlink:href="#gB44AD3C00DF2BD7A3B0995B729B2F89E" x="56.367" y="0" fill="#0072b2" fill-rule="nonzero"/><use xlink:href="#g695758CB2C6BE00D50F851A154409E48" x="61.326" y="0" fill="#0072b2" fill-rule="nonzero"/><use xlink:href="#g695758CB2C6BE00D50F851A154409E48" x="69.471" y="0" fill="#0072b2" fill-rule="nonzero"/><use xlink:href="#g136C905B50E42975079434436E4DAEF4" x="77.616" y="0" fill="#0072b2" fill-rule="nonzero"/><use xlink:href="#g77DFF579C4297C58BB534BE65B39B6CA" x="82.017" y="0" fill="#0072b2" fill-rule="nonzero"/><use xlink:href="#gDCA7AD9848E83F426C822AF345B8AA35" x="87.561" y="0" fill="#0072b2" fill-rule="nonzero"/><use xlink:href="#g5CCD08CEE029BB1E1252C86C73083DDC" x="90.783" y="0" fill="#0072b2" fill-rule="nonzero"/></g><g transform="matrix(1 0 0 -1 169.686 5.922)"><use xlink:href="#gCCF28E29FF8CFE46410F5A526209CFA4" x="0" y="0" fill="#f5f5f4" fill-rule="nonzero"/></g><g transform="matrix(1 0 0 -1 173.916 5.922)"><use xlink:href="#gCDDC6E40F48E7598936EA49DC3DBB5C8" x="0" y="0" fill="#d55e00" fill-rule="nonzero"/><use xlink:href="#g5CCD08CEE029BB1E1252C86C73083DDC" x="3.303" y="0" fill="#d55e00" fill-rule="nonzero"/><use xlink:href="#g5CCD08CEE029BB1E1252C86C73083DDC" x="7.146" y="0" fill="#d55e00" fill-rule="nonzero"/><use xlink:href="#g3AABD6367CE61353955D2F6F568F5DF" x="10.989" y="0" fill="#d55e00" fill-rule="nonzero"/><use xlink:href="#g136C905B50E42975079434436E4DAEF4" x="16.371" y="0" fill="#d55e00" fill-rule="nonzero"/><use xlink:href="#g5CCD08CEE029BB1E1252C86C73083DDC" x="20.772" y="0" fill="#d55e00" fill-rule="nonzero"/><use xlink:href="#g377F3635C22222BC3D8999B473E29903" x="26.865" y="0" fill="#d55e00" fill-rule="nonzero"/><use xlink:href="#gB44AD3C00DF2BD7A3B0995B729B2F89E" x="33.219" y="0" fill="#d55e00" fill-rule="nonzero"/><use xlink:href="#g695758CB2C6BE00D50F851A154409E48" x="38.178" y="0" fill="#d55e00" fill-rule="nonzero"/><use xlink:href="#g695758CB2C6BE00D50F851A154409E48" x="46.323" y="0" fill="#d55e00" fill-rule="nonzero"/><use xlink:href="#g136C905B50E42975079434436E4DAEF4" x="54.468" y="0" fill="#d55e00" fill-rule="nonzero"/><use xlink:href="#g77DFF579C4297C58BB534BE65B39B6CA" x="58.869" y="0" fill="#d55e00" fill-rule="nonzero"/><use xlink:href="#gDCA7AD9848E83F426C822AF345B8AA35" x="64.413" y="0" fill="#d55e00" fill-rule="nonzero"/><use xlink:href="#g5CCD08CEE029BB1E1252C86C73083DDC" x="67.635" y="0" fill="#d55e00" fill-rule="nonzero"/></g><g transform="matrix(1 0 0 -1 245.394 5.922)"><use xlink:href="#gCCF28E29FF8CFE46410F5A526209CFA4" x="0" y="0" fill="#f5f5f4" fill-rule="nonzero"/></g><g transform="matrix(1 0 0 -1 249.624 5.922)"><use xlink:href="#g9778062236A9E14C8CAD8B46F24698D8" x="0" y="0" fill="#009e73" fill-rule="nonzero"/><use xlink:href="#g2C85CCCEC1F311ABE33B97F0BADF4CE3" x="5.526" y="0" fill="#009e73" fill-rule="nonzero"/><use xlink:href="#g5CCD08CEE029BB1E1252C86C73083DDC" x="11.97" y="0" fill="#009e73" fill-rule="nonzero"/><use xlink:href="#g377F3635C22222BC3D8999B473E29903" x="18.063" y="0" fill="#009e73" fill-rule="nonzero"/><use xlink:href="#gB44AD3C00DF2BD7A3B0995B729B2F89E" x="24.417" y="0" fill="#009e73" fill-rule="nonzero"/><use xlink:href="#g695758CB2C6BE00D50F851A154409E48" x="29.376" y="0" fill="#009e73" fill-rule="nonzero"/><use xlink:href="#g695758CB2C6BE00D50F851A154409E48" x="37.521" y="0" fill="#009e73" fill-rule="nonzero"/><use xlink:href="#g136C905B50E42975079434436E4DAEF4" x="45.666" y="0" fill="#009e73" fill-rule="nonzero"/><use xlink:href="#g77DFF579C4297C58BB534BE65B39B6CA" x="50.067" y="0" fill="#009e73" fill-rule="nonzero"/><use xlink:href="#gDCA7AD9848E83F426C822AF345B8AA35" x="55.611" y="0" fill="#009e73" fill-rule="nonzero"/><use xlink:href="#g5CCD08CEE029BB1E1252C86C73083DDC" x="58.833" y="0" fill="#009e73" fill-rule="nonzero"/></g><g transform="matrix(1 0 0 -1 312.3 5.922)"><use xlink:href="#gC4F711AA31032A8916F03AB95F75CE23" x="0" y="0" fill="#f5f5f4" fill-rule="nonzero"/></g></g><g transform="translate(0 26.262)"><path fill="none" stroke="#595959" stroke-width="0.4" stroke-linecap="butt" stroke-linejoin="miter" stroke-miterlimit="4" transform="translate(106.432119556)" d="M 0 0m 0 169.993685039v -169.993685039"/><path fill="none" transform="translate(98.992119556 172.828330709)" d="M 0 0h 14.88v 5.344h -14.88v -5.344Z "/><g transform="translate(98.992119462 172.82833063)"><g transform="matrix(1 0 0 -1 0 5.264)"><use xlink:href="#gAD9C87F854BDA42EDABFFB35EC1FA84E" x="0" y="0" fill="#f5f5f4" fill-rule="nonzero"/><use xlink:href="#g97663EC9AEA74EADA07472643E1BE1B4" x="3.72" y="0" fill="#f5f5f4" fill-rule="nonzero"/><use xlink:href="#gAD9C87F854BDA42EDABFFB35EC1FA84E" x="7.44" y="0" fill="#f5f5f4" fill-rule="nonzero"/><use xlink:href="#g4DADFF8D06AE4DC17FB93571E5AFF437" x="11.16" y="0" fill="#f5f5f4" fill-rule="nonzero"/></g></g><path fill="none" stroke="#595959" stroke-width="0.4" stroke-linecap="butt" stroke-linejoin="miter" stroke-miterlimit="4" transform="translate(196.497349714)" d="M 0 0m 0 169.993685039v -169.993685039"/><path fill="none" transform="translate(189.057349714 172.828330709)" d="M 0 0h 14.88v 5.344h -14.88v -5.344Z "/><g transform="translate(189.05734962 172.82833063)"><g transform="matrix(1 0 0 -1 0 5.264)"><use xlink:href="#gAD9C87F854BDA42EDABFFB35EC1FA84E" x="0" y="0" fill="#f5f5f4" fill-rule="nonzero"/><use xlink:href="#g97663EC9AEA74EADA07472643E1BE1B4" x="3.72" y="0" fill="#f5f5f4" fill-rule="nonzero"/><use xlink:href="#gAD9C87F854BDA42EDABFFB35EC1FA84E" x="7.44" y="0" fill="#f5f5f4" fill-rule="nonzero"/><use xlink:href="#gF821431C61A4D7F3ECEFEC074E9C0EFC" x="11.16" y="0" fill="#f5f5f4" fill-rule="nonzero"/></g></g><path fill="none" stroke="#595959" stroke-width="0.4" stroke-linecap="butt" stroke-linejoin="miter" stroke-miterlimit="4" transform="translate(286.562579872)" d="M 0 0m 0 169.993685039v -169.993685039"/><path fill="none" transform="translate(279.122579872 172.828330709)" d="M 0 0h 14.88v 5.352h -14.88v -5.352Z "/><g transform="translate(279.122579778 172.828330661)"><g transform="matrix(1 0 0 -1 0 5.264)"><use xlink:href="#gAD9C87F854BDA42EDABFFB35EC1FA84E" x="0" y="0" fill="#f5f5f4" fill-rule="nonzero"/><use xlink:href="#g97663EC9AEA74EADA07472643E1BE1B4" x="3.72" y="0" fill="#f5f5f4" fill-rule="nonzero"/><use xlink:href="#gAD9C87F854BDA42EDABFFB35EC1FA84E" x="7.44" y="0" fill="#f5f5f4" fill-rule="nonzero"/><use xlink:href="#gD00C9D162D1CBC09F2F7551D594DBB72" x="11.16" y="0" fill="#f5f5f4" fill-rule="nonzero"/></g></g><path fill="none" stroke="#595959" stroke-width="0.4" stroke-linecap="butt" stroke-linejoin="miter" stroke-miterlimit="4" transform="translate(376.62781003)" d="M 0 0m 0 169.993685039v -169.993685039"/><path fill="none" transform="translate(369.18781003 172.828330709)" d="M 0 0h 14.88v 5.352h -14.88v -5.352Z "/><g transform="translate(369.187809936 172.828330661)"><g transform="matrix(1 0 0 -1 0 5.264)"><use xlink:href="#gAD9C87F854BDA42EDABFFB35EC1FA84E" x="0" y="0" fill="#f5f5f4" fill-rule="nonzero"/><use xlink:href="#g97663EC9AEA74EADA07472643E1BE1B4" x="3.72" y="0" fill="#f5f5f4" fill-rule="nonzero"/><use xlink:href="#gAD9C87F854BDA42EDABFFB35EC1FA84E" x="7.44" y="0" fill="#f5f5f4" fill-rule="nonzero"/><use xlink:href="#gAFC6ADE0F4BA5C584B85DD0E8532505B" x="11.16" y="0" fill="#f5f5f4" fill-rule="nonzero"/></g></g><path fill="none" stroke="#595959" stroke-width="0.4" stroke-linecap="butt" stroke-linejoin="miter" stroke-miterlimit="4" transform="translate(28.000314961 169.993685039)" d="M 0 0h 404.542992126"/><path fill="none" transform="translate(21.445669291 167.321685039)" d="M 0 0h 3.72v 5.344h -3.72v -5.344Z "/><g transform="translate(21.445669197 167.321684961)"><g transform="matrix(1 0 0 -1 0 5.264)"><use xlink:href="#g97663EC9AEA74EADA07472643E1BE1B4" x="0" y="0" fill="#f5f5f4" fill-rule="nonzero"/></g></g><path fill="none" stroke="#595959" stroke-width="0.4" stroke-linecap="butt" stroke-linejoin="miter" stroke-miterlimit="4" transform="translate(28.000314961 137.613935508)" d="M 0 0h 404.542992126"/><path fill="none" transform="translate(14.005669291 134.941935508)" d="M 0 0h 11.16v 5.344h -11.16v -5.344Z "/><g transform="translate(14.005669291 134.941935429)"><g transform="matrix(1 0 0 -1 0 5.264)"><use xlink:href="#g8C50DFC0B8272CD73341C65811BD0E92" x="0" y="0" fill="#f5f5f4" fill-rule="nonzero"/><use xlink:href="#g97663EC9AEA74EADA07472643E1BE1B4" x="3.72" y="0" fill="#f5f5f4" fill-rule="nonzero"/><use xlink:href="#g97663EC9AEA74EADA07472643E1BE1B4" x="7.44" y="0" fill="#f5f5f4" fill-rule="nonzero"/></g></g><path fill="none" stroke="#595959" stroke-width="0.4" stroke-linecap="butt" stroke-linejoin="miter" stroke-miterlimit="4" transform="translate(28.000314961 105.234185977)" d="M 0 0h 404.542992126"/><path fill="none" transform="translate(14.005669291 102.562185977)" d="M 0 0h 11.16v 5.344h -11.16v -5.344Z "/><g transform="translate(14.005669291 102.562185898)"><g transform="matrix(1 0 0 -1 0 5.264)"><use xlink:href="#gAD9C87F854BDA42EDABFFB35EC1FA84E" x="0" y="0" fill="#f5f5f4" fill-rule="nonzero"/><use xlink:href="#g97663EC9AEA74EADA07472643E1BE1B4" x="3.72" y="0" fill="#f5f5f4" fill-rule="nonzero"/><use xlink:href="#g97663EC9AEA74EADA07472643E1BE1B4" x="7.44" y="0" fill="#f5f5f4" fill-rule="nonzero"/></g></g><path fill="none" stroke="#595959" stroke-width="0.4" stroke-linecap="butt" stroke-linejoin="miter" stroke-miterlimit="4" transform="translate(28.000314961 72.854436445)" d="M 0 0h 404.542992126"/><path fill="none" transform="translate(14.005669291 70.182436445)" d="M 0 0h 11.16v 5.344h -11.16v -5.344Z "/><g transform="translate(14.005669291 70.182436367)"><g transform="matrix(1 0 0 -1 0 5.264)"><use xlink:href="#g4DADFF8D06AE4DC17FB93571E5AFF437" x="0" y="0" fill="#f5f5f4" fill-rule="nonzero"/><use xlink:href="#g97663EC9AEA74EADA07472643E1BE1B4" x="3.72" y="0" fill="#f5f5f4" fill-rule="nonzero"/><use xlink:href="#g97663EC9AEA74EADA07472643E1BE1B4" x="7.44" y="0" fill="#f5f5f4" fill-rule="nonzero"/></g></g><path fill="none" stroke="#595959" stroke-width="0.4" stroke-linecap="butt" stroke-linejoin="miter" stroke-miterlimit="4" transform="translate(28.000314961 40.474686914)" d="M 0 0h 404.542992126"/><path fill="none" transform="translate(14.005669291 37.802686914)" d="M 0 0h 11.16v 5.344h -11.16v -5.344Z "/><g transform="translate(14.005669291 37.802686835)"><g transform="matrix(1 0 0 -1 0 5.264)"><use xlink:href="#gF821431C61A4D7F3ECEFEC074E9C0EFC" x="0" y="0" fill="#f5f5f4" fill-rule="nonzero"/><use xlink:href="#g97663EC9AEA74EADA07472643E1BE1B4" x="3.72" y="0" fill="#f5f5f4" fill-rule="nonzero"/><use xlink:href="#g97663EC9AEA74EADA07472643E1BE1B4" x="7.44" y="0" fill="#f5f5f4" fill-rule="nonzero"/></g></g><path fill="none" stroke="#595959" stroke-width="0.4" stroke-linecap="butt" stroke-linejoin="miter" stroke-miterlimit="4" transform="translate(28.000314961 8.094937383)" d="M 0 0h 404.542992126"/><path fill="none" transform="translate(14.005669291 5.418937383)" d="M 0 0h 11.16v 5.352h -11.16v -5.352Z "/><g transform="translate(14.005669291 5.418937336)"><g transform="matrix(1 0 0 -1 0 5.264)"><use xlink:href="#gD00C9D162D1CBC09F2F7551D594DBB72" x="0" y="0" fill="#f5f5f4" fill-rule="nonzero"/><use xlink:href="#g97663EC9AEA74EADA07472643E1BE1B4" x="3.72" y="0" fill="#f5f5f4" fill-rule="nonzero"/><use xlink:href="#g97663EC9AEA74EADA07472643E1BE1B4" x="7.44" y="0" fill="#f5f5f4" fill-rule="nonzero"/></g></g><path fill="none" transform="translate(28.000314961)" d="M 0 0h 404.542992126v 169.993685039h -404.542992126v -169.993685039Z "/><g transform="translate(28.000314929 -7.9e-8)"><g clip-path="url(#c81948EC56E78C3EAC8A23DEFEB23AC41)"><g><path fill="#0072b2e6" fill-rule="nonzero" transform="translate(18.388317824 8.094937383)" d="M 0 0m 0 154.77520276l 7.505435847 1.942784972l 7.505435846 -26.551394616l 7.505435846 -23.637217158l 7.505435847 15.21848228l 7.505435846 -15.542279775l 7.505435846 5.828354916l 7.505435847 18.780254728l 7.505435846 -4.209367439l 7.505435846 -7.123544897l 7.505435847 8.094937383l 7.505435846 -8.418734878l 7.505435846 -105.557983472l 7.505435847 7.771139888l 7.505435846 -21.370634691l 7.505435846 49.217219288l 7.505435847 -8.742532373l 7.505435846 29.789369569l 7.505435846 -43.388864372l 7.505435847 69.940258988l 7.505435846 -88.720513716l 7.505435846 25.903799625l 7.505435847 19.104052223l 7.505435846 -31.08455955l 7.505435846 53.102789231l 7.505435847 -55.369371699l 7.505435846 49.864814278l 7.505435846 -0.971392486l 7.505435847 -6.799747402l 7.505435846 -18.780254728l 7.505435846 13.923292298l 7.505435847 22.665824672l 7.505435846 -45.331649344l 7.505435846 9.066329869l 7.505435847 -1.942784972l 7.505435846 22.342027177l 7.505435846 23.961014653l 7.505435847 -9.066329869l 7.505435846 -1.942784972l 7.505435846 14.247089794l 7.505435847 19.104052223l 7.505435846 -17.485064747l 7.505435846 17.485064747l 7.505435847 9.066329869l 7.505435846 -24.932407139l 7.505435846 9.066329869l 7.505435847 3.561772448l 7.505435846 -13.599494803l 7.505435846 31.08455955l 7.505435847 24.932407139v 12.628102317h -7.505435847h -7.505435846h -7.505435846h -7.505435847h -7.505435846h -7.505435846h -7.505435847h -7.505435846h -7.505435846h -7.505435847h -7.505435846h -7.505435846h -7.505435847h -7.505435846h -7.505435846h -7.505435847h -7.505435846h -7.505435846h -7.505435847h -7.505435846h -7.505435846h -7.505435847h -7.505435846h -7.505435846h -7.505435847h -7.505435846h -7.505435846h -7.505435847h -7.505435846h -7.505435846h -7.505435847h -7.505435846h -7.505435846h -7.505435847h -7.505435846h -7.505435846h -7.505435847h -7.505435846h -7.505435846h -7.505435847h -7.505435846h -7.505435846h -7.505435847h -7.505435846h -7.505435846h -7.505435847h -7.505435846h -7.505435846h -7.505435847v -7.123544897Z "/><path fill="#d55e00e6" fill-rule="nonzero" transform="translate(18.388317824 103.938995996)" d="M 0 0m 0 63.140511586h 7.505435847l 7.505435846 -7.123544897l 7.505435846 3.237974953l 7.505435847 2.914177458h 7.505435846l 7.505435846 0.323797495l 7.505435847 2.266582467l 7.505435846 -5.180759925l 7.505435846 1.295189981l 7.505435847 1.618987477l 7.505435846 -0.323797495l 7.505435846 -62.1691191l 7.505435847 11.656709831l 7.505435846 3.237974953l 7.505435846 11.332912336l 7.505435847 -10.36151985l 7.505435846 15.21848228l 7.505435846 -14.570887289l 7.505435847 27.522787102l 7.505435846 -27.846584597l 7.505435846 3.237974953l 7.505435847 6.799747402l 7.505435846 -20.399242205l 7.505435846 29.789369569l 7.505435847 -32.055952036l 7.505435846 23.961014653l 7.505435846 -3.561772448l 7.505435847 3.237974953l 7.505435846 -3.561772448l 7.505435846 15.542279775l 7.505435847 3.885569944l 7.505435846 -31.732154541l 7.505435846 11.332912336l 7.505435847 -4.85696243l 7.505435846 12.951899813l 7.505435846 14.570887289l 7.505435847 -11.332912336l 7.505435846 -6.799747402l 7.505435846 11.980507327l 7.505435847 -0.971392486l 7.505435846 0.971392486l 7.505435846 9.066329869l 7.505435847 -2.266582467l 7.505435846 -21.046837195l 7.505435846 7.771139888l 7.505435847 3.885569944l 7.505435846 -12.304304822l 7.505435846 27.846584597l 7.505435847 8.742532373v 5.180759925h -7.505435847h -7.505435846h -7.505435846h -7.505435847h -7.505435846h -7.505435846h -7.505435847h -7.505435846h -7.505435846h -7.505435847h -7.505435846h -7.505435846h -7.505435847h -7.505435846h -7.505435846h -7.505435847h -7.505435846h -7.505435846h -7.505435847h -7.505435846h -7.505435846h -7.505435847h -7.505435846h -7.505435846h -7.505435847h -7.505435846h -7.505435846h -7.505435847h -7.505435846h -7.505435846h -7.505435847h -7.505435846h -7.505435846h -7.505435847h -7.505435846h -7.505435846h -7.505435847h -7.505435846h -7.505435846h -7.505435847h -7.505435846h -7.505435846h -7.505435847h -7.505435846h -7.505435846h -7.505435847h -7.505435846h -7.505435846h -7.505435847v -2.914177458Z "/><path fill="#009e73e6" fill-rule="nonzero" transform="translate(33.399189517 153.803810274)" d="M 0 0m 0 15.86607727l 45.032615079 -0.323797495l 30.021743386 -1.618987477l 7.505435847 -3.561772448l 7.505435846 2.266582467l 15.010871693 -0.323797495l 7.505435846 3.561772448l 7.505435846 -1.295189981l 15.010871693 -1.295189981l 7.505435846 2.266582467l 15.010871693 -0.971392486h 7.505435846l 7.505435847 -4.85696243l 7.505435846 4.85696243l 7.505435846 0.323797495l 15.010871693 0.323797495l 7.505435846 0.647594991l 7.505435847 -2.590379963l 7.505435846 -6.152152411l 7.505435846 8.094937383l 7.505435847 -1.942784972l 7.505435846 1.618987477l 7.505435846 -0.323797495l 7.505435847 1.295189981l 7.505435846 -2.266582467l 7.505435846 0.647594991l 7.505435847 -0.647594991l 7.505435846 0.971392486l 15.010871693 -4.209367439l 7.505435846 -10.36151985l 7.505435846 9.390127364l 7.505435847 5.828354916l 7.505435846 0.323797495l 7.505435846 -0.323797495v 0.971392486h -7.505435846h -7.505435846h -7.505435847h -7.505435846h -7.505435846h -15.010871693h -7.505435846h -7.505435847h -7.505435846h -7.505435846h -7.505435847h -7.505435846h -7.505435846h -7.505435847h -7.505435846h -7.505435846h -7.505435847h -7.505435846h -15.010871693h -7.505435846h -7.505435846h -7.505435847h -7.505435846h -15.010871693h -7.505435846h -15.010871693h -7.505435846h -7.505435846h -15.010871693h -7.505435846h -7.505435847h -30.021743386h -45.032615079v -0.323797495Z "/></g></g></g><path fill="none" transform="translate(0.488834646 46.49934252)" d="M 0 0m 0 76.995l 0 -76.995h 8.028l 0 76.995h -8.028Z "/><g transform="matrix(0 -1 1 0 0.488834646 123.494342661)"><g transform="matrix(1 0 0 -1 0 5.922)"><use xlink:href="#gC375F277B20C2526627B56EF0039913" x="0" y="0" fill="#f5f5f4" fill-rule="nonzero"/><use xlink:href="#gF71CD90141C058754731CB923424AFF5" x="5.814" y="0" fill="#f5f5f4" fill-rule="nonzero"/><use xlink:href="#g66B9A992694013ABABB01E28AE9743C7" x="10.35" y="0" fill="#f5f5f4" fill-rule="nonzero"/><use xlink:href="#g66B9A992694013ABABB01E28AE9743C7" x="17.46" y="0" fill="#f5f5f4" fill-rule="nonzero"/><use xlink:href="#g15283247E004048E8F39F157505A0F31" x="24.57" y="0" fill="#f5f5f4" fill-rule="nonzero"/><use xlink:href="#g75829AE9E8B7E42D7FCDFD5712A16351" x="28.593" y="0" fill="#f5f5f4" fill-rule="nonzero"/><use xlink:href="#g5277906DC426125FD25A938CB480528C" x="33.471" y="0" fill="#f5f5f4" fill-rule="nonzero"/><use xlink:href="#gA1FEA12DCE93D0EA0BBFC1201B9D8E1C" x="36.315" y="0" fill="#f5f5f4" fill-rule="nonzero"/><use xlink:href="#gD7C5B89B29D1A7AF5E301B7DA2A12EF7" x="42.075" y="0" fill="#f5f5f4" fill-rule="nonzero"/><use xlink:href="#g1A88500060BC21DC44508038C8E5E161" x="50.67" y="0" fill="#f5f5f4" fill-rule="nonzero"/><use xlink:href="#g15283247E004048E8F39F157505A0F31" x="55.953" y="0" fill="#f5f5f4" fill-rule="nonzero"/><use xlink:href="#g4F94A37786D24AC11F1E2C6578232409" x="59.976" y="0" fill="#f5f5f4" fill-rule="nonzero"/><use xlink:href="#g1E3DE6493D0CDAC5230F4F7A69963EA0" x="64.647" y="0" fill="#f5f5f4" fill-rule="nonzero"/><use xlink:href="#gEDE113971A7C9D129D6A2104959F55B2" x="67.023" y="0" fill="#f5f5f4" fill-rule="nonzero"/><use xlink:href="#g15283247E004048E8F39F157505A0F31" x="69.462" y="0" fill="#f5f5f4" fill-rule="nonzero"/><use xlink:href="#gA1FEA12DCE93D0EA0BBFC1201B9D8E1C" x="73.485" y="0" fill="#f5f5f4" fill-rule="nonzero"/></g></g></g></g></g><defs><symbol id="g7081628C2A16E15BC4BEFE73CB35101" overflow="visible"><path d="M 0 0m 6.768 6.276v -1.872h -3.72v 1.872c 0 0.996 0.336 1.044 0.996 1.08c 0.12 0.072 0.12 0.336 0 0.408c -0.48 -0.012 -1.344 -0.024 -1.824 -0.024c -0.48 0 -1.368 0.012 -1.848 0.024c -0.12 -0.072 -0.12 -0.336 0 -0.408c 0.66 -0.036 0.996 -0.084 0.996 -1.08v -4.812c 0 -0.996 -0.336 -1.044 -0.996 -1.08c -0.12 -0.072 -0.12 -0.336 0 -0.408c 0.48 0.012 1.368 0.024 1.848 0.024c 0.48 0 1.344 -0.012 1.824 -0.024c 0.12 0.072 0.12 0.336 0 0.408c -0.66 0.036 -0.996 0.084 -0.996 1.08v 2.364h 3.72v -2.364c 0 -0.996 -0.336 -1.044 -0.996 -1.08c -0.12 -0.072 -0.12 -0.336 0 -0.408c 0.48 0.012 1.368 0.024 1.848 0.024c 0.48 0 1.344 -0.012 1.824 -0.024c 0.12 0.072 0.12 0.336 0 0.408c -0.66 0.036 -0.996 0.084 -0.996 1.08v 4.812c 0 0.996 0.336 1.044 0.996 1.08c 0.12 0.072 0.12 0.336 0 0.408c -0.48 -0.012 -1.344 -0.024 -1.824 -0.024c -0.48 0 -1.368 0.012 -1.848 0.024c -0.12 -0.072 -0.12 -0.336 0 -0.408c 0.66 -0.036 0.996 -0.084 0.996 -1.08Z "/></symbol><symbol id="gE18113BE1243CA6EC5596891CC422939" overflow="visible"><path d="M 0 0m 5.172 1.548c -0.492 -0.504 -1.14 -0.636 -1.596 -0.636c -0.936 0 -1.512 0.54 -1.512 1.716c 0 0.084 0.012 0.132 0.012 0.192h 2.88c 0.288 0 0.348 0.204 0.348 0.372c 0 1.02 -0.396 2.136 -2.16 2.136c -1.26 0 -2.7 -1.116 -2.7 -2.952c 0 -0.696 0.252 -1.428 0.768 -1.896c 0.456 -0.408 1.044 -0.6 1.896 -0.6c 0.828 0 1.644 0.42 2.244 1.296c 0 0.156 -0.06 0.372 -0.18 0.372Z m -3.048 1.752c 0.012 0.42 0.072 0.876 0.24 1.116c 0.192 0.288 0.516 0.408 0.648 0.408c 0.324 0 0.768 -0.312 0.768 -1.272c 0 -0.072 0 -0.228 -0.024 -0.252Z "/></symbol><symbol id="g966BE685B7523A33FA7C5091B1A7882" overflow="visible"><path d="M 0 0m 1.2 1.524c 0 -0.996 -0.192 -1.104 -0.924 -1.14c -0.072 -0.072 -0.072 -0.336 0 -0.408c 0.504 0.012 1.044 0.024 1.704 0.024c 0.66 0 1.188 -0.012 1.704 -0.024c 0.072 0.072 0.072 0.336 0 0.408c -0.732 0.036 -0.924 0.144 -0.924 1.14v 5.472c 0 0.78 0.036 1.224 0.036 1.224c 0 0.108 -0.084 0.156 -0.192 0.156c -0.444 -0.144 -1.404 -0.276 -2.256 -0.312c -0.036 -0.144 -0.024 -0.276 0.036 -0.384c 0.756 -0.06 0.816 -0.072 0.816 -0.9Z "/></symbol><symbol id="g60E64311C0ACD550FD96BE9E58C78EBF" overflow="visible"><path d="M 0 0m 1.14 3.708v -5.028c 0 -0.996 -0.132 -1.02 -0.864 -1.08c -0.072 -0.072 -0.072 -0.336 0 -0.408c 0.504 0.012 1.008 0.024 1.644 0.024c 0.636 0 1.128 -0.012 1.644 -0.024c 0.072 0.072 0.072 0.336 0 0.408c -0.732 0.048 -0.864 0.084 -0.864 1.08v 1.404c 0.264 -0.132 0.516 -0.204 0.804 -0.204c 1.824 0 3.012 1.2 3.012 2.964c 0 0.672 -0.252 1.416 -0.72 1.884c -0.42 0.42 -1.02 0.6 -1.644 0.6c -0.348 0 -0.996 -0.42 -1.416 -0.804h -0.072c -0.024 0.336 -0.06 0.6 -0.06 0.6c -0.012 0.144 -0.108 0.204 -0.276 0.204c -0.444 -0.12 -1.164 -0.288 -1.992 -0.396c -0.024 -0.072 0 -0.312 0.024 -0.384c 0.66 -0.06 0.78 -0.156 0.78 -0.84Z m 1.56 -2.928v 3.072c 0 0.072 0 0.132 0 0.204c 0.348 0.312 0.792 0.468 1.068 0.468c 0.492 0 1.068 -0.6 1.068 -2.004c 0 -1.008 -0.36 -2.136 -1.404 -2.136c -0.132 0 -0.432 0.072 -0.732 0.396Z "/></symbol><symbol id="g1094D23D321B642DA133CC49B1BA1EB9" overflow="visible"><path d="M 0 0m 2.784 1.464v 2.388c 0 0.6 0.048 1.272 0.048 1.272c 0 0.132 -0.108 0.204 -0.276 0.204c -0.336 -0.132 -1.308 -0.228 -2.136 -0.336c -0.024 -0.072 0 -0.312 0.024 -0.384c 0.66 -0.06 0.78 -0.156 0.78 -0.84v -2.304c 0 -0.996 -0.132 -1.02 -0.864 -1.08c -0.072 -0.072 -0.072 -0.336 0 -0.408c 0.504 0.012 1.008 0.024 1.644 0.024c 0.636 0 1.128 -0.012 1.644 -0.024c 0.072 0.072 0.072 0.336 0 0.408c -0.732 0.048 -0.864 0.084 -0.864 1.08Z m -1.62 5.688c 0 -0.396 0.288 -0.792 0.768 -0.792c 0.54 0 0.852 0.432 0.852 0.744c 0 0.36 -0.276 0.792 -0.78 0.792c -0.564 0 -0.84 -0.384 -0.84 -0.744Z "/></symbol><symbol id="g3C2E9715FB9D690A986B8F0D57F3007C" overflow="visible"><path d="M 0 0m 2.736 1.464v 2.412c 0.48 0.324 0.96 0.564 1.176 0.564c 0.48 0 0.84 -0.216 0.84 -0.9v -2.004c 0 -1.008 -0.192 -1.116 -0.684 -1.152c -0.072 -0.072 -0.072 -0.336 0 -0.408c 0.504 0.012 0.888 0.024 1.464 0.024c 0.66 0 1.188 -0.012 1.704 -0.024c 0.072 0.072 0.072 0.336 0 0.408c -0.732 0.036 -0.924 0.144 -0.924 1.152v 1.872c 0 1.32 -0.564 1.92 -1.596 1.92c -0.48 0 -1.332 -0.528 -1.992 -0.984c -0.036 0.42 -0.084 0.78 -0.084 0.78c -0.012 0.144 -0.108 0.204 -0.276 0.204c -0.444 -0.12 -1.164 -0.288 -1.992 -0.396c -0.024 -0.072 0 -0.312 0.024 -0.384c 0.66 -0.06 0.78 -0.156 0.78 -0.84v -2.244c 0 -0.996 -0.132 -1.02 -0.864 -1.08c -0.072 -0.072 -0.072 -0.336 0 -0.408c 0.504 0.012 1.008 0.024 1.644 0.024c 0.552 0 0.888 -0.012 1.404 -0.024c 0.072 0.072 0.072 0.336 0 0.408c -0.504 0.048 -0.624 0.084 -0.624 1.08Z "/></symbol><symbol id="g8D15A55F054D4F8515F5F3C5E6F83BE2" overflow="visible"><path d="M 0 0m 5.604 4.728c 0.336 0 0.528 0.144 0.528 0.588c 0 0.228 -0.312 0.576 -0.768 0.576c -0.528 0 -1.224 -0.396 -1.572 -0.708c -0.216 0.12 -0.468 0.144 -1.008 0.144c -0.516 0 -1.02 -0.12 -1.416 -0.384c -0.492 -0.312 -0.816 -0.78 -0.816 -1.392c 0 -0.588 0.348 -1.224 0.924 -1.536c -0.372 -0.324 -0.948 -0.96 -0.948 -1.2c 0 -0.228 0.036 -0.372 0.156 -0.552c 0.108 -0.168 0.252 -0.264 0.492 -0.336c -0.516 -0.312 -1.044 -0.996 -1.044 -1.2c 0 -0.444 0.144 -0.96 0.468 -1.188c 0.468 -0.324 1.26 -0.396 1.836 -0.396c 1.668 0 3.576 0.876 3.576 2.196c 0 0.252 -0.12 0.768 -0.6 1.092c -0.468 0.312 -2.268 0.396 -3.156 0.396c -0.216 0 -0.54 0.024 -0.54 0.504c 0 0.192 0.12 0.36 0.18 0.504c 0.252 -0.12 0.504 -0.132 0.876 -0.132c 0.612 0 1.176 0.156 1.584 0.516c 0.348 0.312 0.588 0.732 0.588 1.272c 0 0.672 -0.336 1.116 -0.744 1.452c 0.096 0.12 0.492 0.336 0.612 0.336c 0.108 0 0.192 -0.072 0.228 -0.144c 0.048 -0.156 0.264 -0.408 0.564 -0.408Z m -3.504 -5.028c 0.924 0 2.7 -0.036 2.7 -0.672c 0 -0.432 -0.192 -0.924 -0.588 -1.14c -0.372 -0.216 -0.984 -0.24 -1.44 -0.24c -0.792 0 -1.332 0.588 -1.332 1.2c 0 0.408 0 0.684 0.132 0.924c 0.12 -0.048 0.276 -0.072 0.528 -0.072Z m 1.38 3.756c 0 -1.152 -0.336 -1.296 -0.648 -1.296c -0.744 0 -0.84 0.888 -0.84 1.5c 0 0.888 0.216 1.212 0.684 1.212c 0.564 0 0.804 -0.468 0.804 -1.416Z "/></symbol><symbol id="g9CC77C6CF89EC74059C0E076AB661803" overflow="visible"><path d="M 0 0m 8.328 3.948c 0 2.388 -1.776 3.948 -3.972 3.948c -1.2 0 -2.244 -0.516 -2.94 -1.344c -0.624 -0.744 -0.972 -1.74 -0.972 -2.844c 0 -2.376 1.884 -3.828 3.924 -3.828c 1.236 0 2.244 0.444 2.928 1.188c 0.66 0.72 1.032 1.704 1.032 2.88Z m -4.116 3.444c 1.284 0 2.304 -1.26 2.304 -3.696c 0 -1.992 -0.696 -3.312 -1.908 -3.312c -1.32 0 -2.352 1.308 -2.352 3.564c 0 2.448 0.888 3.444 1.956 3.444Z "/></symbol><symbol id="gC76A03CC6B2F66C4058A56BA6A9EE20" overflow="visible"><path d="M 0 0m 6.12 1.596v 2.076c 0 1.008 0.024 0.864 0.024 1.152c 0 0.204 -0.048 0.336 -0.12 0.408c -0.216 -0.012 -0.456 -0.024 -0.684 -0.024c -0.336 0 -1.116 0.012 -1.584 0.024c -0.072 -0.072 -0.072 -0.336 0 -0.408c 0.612 -0.06 0.804 -0.144 0.804 -1.152v -2.22c 0 -0.12 0 -0.24 0.012 -0.36c -0.492 -0.3 -0.888 -0.324 -1.104 -0.324c -0.48 0 -0.84 0.06 -0.84 0.9v 2.004c 0 1.008 0.024 0.864 0.024 1.152c 0 0.204 -0.048 0.336 -0.12 0.408c -0.216 -0.012 -0.468 -0.024 -0.684 -0.024c -0.612 0 -1.068 0.012 -1.584 0.024c -0.072 -0.072 -0.072 -0.336 0 -0.408c 0.552 -0.024 0.804 -0.144 0.804 -1.152v -1.872c 0 -1.272 0.504 -1.92 1.536 -1.92c 0.432 0 1.308 0.348 2.004 0.732c 0.024 -0.3 0.048 -0.528 0.048 -0.528c 0.012 -0.144 0.108 -0.204 0.276 -0.204c 0.444 0.12 1.164 0.288 1.992 0.396c 0.024 0.072 0 0.312 -0.024 0.384c -0.648 0.06 -0.78 0.252 -0.78 0.936Z "/></symbol><symbol id="g3E13159425B4C5FA6BE9D46173183F7B" overflow="visible"><path d="M 0 0m 0.756 5.208c -0.168 0 -0.348 -0.048 -0.504 -0.18v -0.348c 0 -0.06 0.012 -0.072 0.06 -0.072h 0.78c -0.024 -1.212 -0.036 -2.748 -0.036 -3.348c 0 -0.42 0.108 -0.828 0.36 -1.044c 0.276 -0.228 0.708 -0.336 0.996 -0.336c 0.66 0 1.392 0.336 1.632 0.672c 0 0.144 -0.072 0.216 -0.216 0.336c -0.156 -0.12 -0.456 -0.168 -0.684 -0.168c -0.264 0 -0.528 0.204 -0.528 0.804c 0 0.6 -0.012 1.884 -0.012 3.084h 1.212c 0.12 0 0.288 0.048 0.288 0.156v 0.372c 0 0.048 -0.036 0.072 -0.096 0.072h -1.404l 0.012 0.408c 0.024 0.804 0.06 1.356 0.06 1.356c 0 0.072 -0.036 0.108 -0.096 0.108c -0.084 0 -0.528 -0.132 -0.72 -0.216c -0.204 -0.084 -0.552 -0.156 -0.636 -0.264c -0.084 -0.108 -0.132 -0.432 -0.132 -1.392Z "/></symbol><symbol id="gE8400F2E9FCB584693F6CCD94C295FE7" overflow="visible"><path d="M 0 0m 1.7953125 2.6296875q 0 -0.759375 0.253125 -1.190625q 0.253125 -0.43125 0.6984375 -0.43125q 0.4453125 0 0.703125 0.43125q 0.2578125 0.43125 0.2578125 1.190625q 0 0.759375 -0.2578125 1.190625q -0.2578125 0.43125 -0.703125 0.43125q -0.4453125 0 -0.6984375 -0.43125q -0.253125 -0.43125 -0.253125 -1.190625Z m 1.9125 -1.8890625q -0.253125 -0.440625 -0.58828125 -0.65859375q -0.33515625 -0.21796875 -0.75703125 -0.21796875q -0.9328125 0 -1.43671875 0.7125q -0.50390625 0.7125 -0.50390625 2.04375q 0 1.3125 0.496875 2.034375q 0.496875 0.721875 1.396875 0.721875q 0.4734375 0 0.82265625 -0.2296875q 0.34921875 -0.2296875 0.56953125 -0.684375v 0.7875h 1.36875v -7.246875h -1.36875v 2.7375Z "/></symbol><symbol id="g4E5A13CA7F840038E35DCEA648391BF" overflow="visible"><path d="M 0 0m 0.75 1.8328125v 3.4171875h 1.3734375v -3.20625q 0 -0.5671875 0.159375 -0.8109375q 0.159375 -0.24375 0.5296875 -0.24375q 0.3703125 0 0.57890625 0.328125q 0.20859375 0.328125 0.20859375 0.91875v 3.0140625h 1.3734375v -5.25h -1.3734375v 0.778125q -0.1453125 -0.4359375 -0.49453125 -0.675q -0.34921875 -0.2390625 -0.84140625 -0.2390625q -0.75 0 -1.13203125 0.496875q -0.38203125 0.496875 -0.38203125 1.471875Z "/></symbol><symbol id="g4C22F8D63DF84A1078C6B96DD0B3E27" overflow="visible"><path d="M 0 0m 3.28125 2.465625q -0.76875 0 -1.0734375 -0.196875q -0.3046875 -0.196875 -0.3046875 -0.675q 0 -0.35625 0.2109375 -0.5671875q 0.2109375 -0.2109375 0.571875 -0.2109375q 0.54375 0 0.84375 0.41015625q 0.3 0.41015625 0.3 1.14609375v 0.09375h -0.5484375Z m 1.9125 0.5296875v -2.9953125h -1.3640625v 0.5859375q -0.2484375 -0.346875 -0.6375 -0.534375q -0.3890625 -0.1875 -0.8578125 -0.1875q -0.8953125 0 -1.39453125 0.4734375q -0.49921875 0.4734375 -0.49921875 1.321875q 0 0.91875 0.5953125 1.35703125q 0.5953125 0.43828125 1.8421875 0.43828125h 0.9515625v 0.2296875q 0 0.3328125 -0.24140625 0.50390625q -0.24140625 0.17109375 -0.71015625 0.17109375q -0.4921875 0 -0.95390625 -0.12421875q -0.46171875 -0.12421875 -0.96328125 -0.39609375v 1.171875q 0.4546875 0.1875 0.9234375 0.2765625q 0.46875 0.0890625 0.99375 0.0890625q 1.2796875 0 1.79765625 -0.5203125q 0.51796875 -0.5203125 0.51796875 -1.8609375Z "/></symbol><symbol id="gB9A4462DA8AF1155C8BE53F75927267" overflow="visible"><path d="M 0 0m 5.3953125 3.8015625q -0.225 0.20625 -0.52734375 0.309375q -0.30234375 0.103125 -0.66328125 0.103125q -0.4359375 0 -0.76171875 -0.15234375q -0.32578125 -0.15234375 -0.50390625 -0.44296875q -0.1125 -0.178125 -0.15703125 -0.43125q -0.04453125 -0.253125 -0.04453125 -0.76875v -2.41875h -1.3734375v 5.25h 1.3734375v -0.815625q 0.2015625 0.45 0.61875 0.69609375q 0.4171875 0.24609375 0.975 0.24609375q 0.28125 0 0.55078125 -0.06796875q 0.26953125 -0.06796875 0.51328125 -0.19921875v -1.3078125Z "/></symbol><symbol id="gAFF81092971B4F9B2F48871D59216F0A" overflow="visible"><path d="M 0 0m 3.234375 6.740625v -1.490625h 1.7953125v -1.0546875h -1.7953125v -2.484375q 0 -0.3515625 0.17109375 -0.50390625q 0.17109375 -0.15234375 0.56953125 -0.15234375h 1.0546875v -1.0546875h -1.153125q -1.18125 0 -1.5984375 0.37734375q -0.4171875 0.37734375 -0.4171875 1.39921875v 2.41875h -1.340625v 1.0546875h 1.340625v 1.490625h 1.3734375Z "/></symbol><symbol id="g4C301BD3341CC1D94A25131CBB2BFC09" overflow="visible"><path d="M 0 0m 2.8875 4.2609375q -0.4921875 0 -0.7734375 -0.43359375q -0.28125 -0.43359375 -0.28125 -1.20703125q 0 -0.7734375 0.28125 -1.20703125q 0.28125 -0.43359375 0.7734375 -0.43359375q 0.496875 0 0.778125 0.43359375q 0.28125 0.43359375 0.28125 1.20703125q 0 0.7734375 -0.28125 1.20703125q -0.28125 0.43359375 -0.778125 0.43359375Z m -2.428125 -1.640625q 0 1.2703125 0.65859375 2.01328125q 0.65859375 0.74296875 1.76953125 0.74296875q 1.115625 0 1.77421875 -0.74296875q 0.65859375 -0.74296875 0.65859375 -2.01328125q 0 -1.2703125 -0.65859375 -2.01328125q -0.65859375 -0.74296875 -1.77421875 -0.74296875q -1.1109375 0 -1.76953125 0.74296875q -0.65859375 0.74296875 -0.65859375 2.01328125Z "/></symbol><symbol id="g10B6F7BA62AFB50139F3CE488B770249" overflow="visible"><path d="M 0 0m 1.4109375 3.4453125h 2.9578125v -1.3640625h -2.9578125v 1.3640625Z "/></symbol><symbol id="gACD18770F939F3C37E88949A68DA5582" overflow="visible"><path d="M 0 0m 3.7078125 4.5046875v 2.7890625h 1.36875v -7.29375h -1.36875v 0.778125q -0.2203125 -0.4546875 -0.56953125 -0.684375q -0.34921875 -0.2296875 -0.82265625 -0.2296875q -0.9 0 -1.396875 0.721875q -0.496875 0.721875 -0.496875 2.034375q 0 1.33125 0.50390625 2.04375q 0.50390625 0.7125 1.43671875 0.7125q 0.421875 0 0.75703125 -0.21796875q 0.33515625 -0.21796875 0.58828125 -0.65390625Z m -1.9125 -1.89375q 0 -0.759375 0.253125 -1.190625q 0.253125 -0.43125 0.6984375 -0.43125q 0.4453125 0 0.703125 0.43125q 0.2578125 0.43125 0.2578125 1.190625q 0 0.759375 -0.2578125 1.190625q -0.2578125 0.43125 -0.703125 0.43125q -0.4453125 0 -0.6984375 -0.43125q -0.253125 -0.43125 -0.253125 -1.190625Z "/></symbol><symbol id="gBF856CAC7528D307D2C098F3234EF1B" overflow="visible"><path d="M 0 0m 5.165625 0.2578125q -0.478125 -0.196875 -0.975 -0.2953125q -0.496875 -0.0984375 -1.05 -0.0984375q -1.3171875 0 -2.01328125 0.70546875q -0.69609375 0.70546875 -0.69609375 2.03203125q 0 1.284375 0.6703125 2.0296875q 0.6703125 0.7453125 1.828125 0.7453125q 1.1671875 0 1.81171875 -0.69140625q 0.64453125 -0.69140625 0.64453125 -1.94765625v -0.5578125h -3.5578125q 0.0046875 -0.61875 0.365625 -0.9234375q 0.3609375 -0.3046875 1.078125 -0.3046875q 0.4734375 0 0.9328125 0.1359375q 0.459375 0.1359375 0.9609375 0.43125v -1.2609375Z m -1.1625 2.953125q -0.009375 0.54375 -0.27890625 0.82265625q -0.26953125 0.27890625 -0.79453125 0.27890625q -0.4734375 0 -0.7546875 -0.28828125q -0.28125 -0.28828125 -0.3328125 -0.81796875l 2.1609375 0.0046875Z "/></symbol><symbol id="g122FEDB52FEA42B919876D57DF4993A" overflow="visible"><path d="M 0 0m 5.4046875 5.25l -1.66875 -5.25h -1.6921875l -1.66875 5.25h 1.3921875l 1.1203125 -4.096875l 1.125 4.096875h 1.3921875Z "/></symbol><symbol id="g2F3C0C0E11732865D6C50E1B0B602D8" overflow="visible"><path d="M 0 0m 4.2140625 6.9984375h 1.0359375l -3.684375 -7.8890625h -1.0359375l 3.684375 7.8890625Z "/></symbol><symbol id="g2420748DFD644DC337F2DBA385449750" overflow="visible"><path d="M 0 0m 4.9734375 0.2671875q -0.346875 -0.2015625 -0.7453125 -0.30234375q -0.3984375 -0.10078125 -0.8578125 -0.10078125q -1.2140625 0 -1.8984375 0.73125q -0.684375 0.73125 -0.684375 2.025q 0 1.2984375 0.6890625 2.03203125q 0.6890625 0.73359375 1.903125 0.73359375q 0.421875 0 0.81328125 -0.0984375q 0.39140625 -0.0984375 0.78046875 -0.3046875v -1.25625q -0.3 0.2578125 -0.65859375 0.39609375q -0.35859375 0.13828125 -0.74296875 0.13828125q -0.6703125 0 -1.03125 -0.4265625q -0.3609375 -0.4265625 -0.3609375 -1.2140625q 0 -0.7875 0.3609375 -1.209375q 0.3609375 -0.421875 1.03125 -0.421875q 0.3984375 0 0.7453125 0.13359375q 0.346875 0.13359375 0.65625 0.40546875v -1.2609375Z "/></symbol><symbol id="gB77196DC51126A4C932B3D3E992AF322" overflow="visible"><path d="M 0 0m 1.8140625 2.1890625v 4.05h -1.3921875v 1.0546875h 2.765625v -5.1046875q 0 -0.61875 0.1921875 -0.8765625q 0.1921875 -0.2578125 0.6515625 -0.2578125h 1.096875v -1.0546875h -1.48125q -0.9796875 0 -1.40625 0.50625q -0.4265625 0.50625 -0.4265625 1.6828125Z "/></symbol><symbol id="g3A9A18FAEB95961371B978D4EA8496F3" overflow="visible"><path d="M 0 0m 1.0359375 5.25h 2.71875v -4.1953125h 1.70625v -1.0546875h -4.790625v 1.0546875h 1.7109375v 3.140625h -1.3453125v 1.0546875Z m 1.3453125 2.5546875h 1.3734375v -1.603125h -1.3734375v 1.603125Z "/></symbol><symbol id="gFD3CB615735852E180B6E7B0A5E3E1F2" overflow="visible"><path d="M 0 0m 1.395 0.711l 0.495 1.305c 0.045 0.117 0.099 0.153 0.315 0.153h 1.899l 0.522 -1.521c 0.108 -0.306 -0.234 -0.342 -0.666 -0.369c -0.054 -0.054 -0.054 -0.243 0 -0.297c 0.333 0.009 0.828 0.018 1.179 0.018c 0.369 0 0.711 -0.009 1.026 -0.018c 0.054 0.054 0.054 0.243 0 0.297c -0.351 0.036 -0.657 0.063 -0.81 0.495l -1.854 5.148c -0.135 -0.081 -0.378 -0.18 -0.495 -0.18l -2.043 -4.824c -0.234 -0.558 -0.504 -0.612 -0.9 -0.639c -0.054 -0.054 -0.054 -0.243 0 -0.297c 0.234 0.009 0.531 0.018 0.801 0.018c 0.369 0 0.819 -0.009 1.152 -0.018c 0.054 0.054 0.054 0.243 0 0.297c -0.342 0.027 -0.765 0.063 -0.621 0.432Z m 0.972 1.836c -0.198 0 -0.261 0.027 -0.225 0.117l 0.918 2.331h 0.054l 0.846 -2.448Z "/></symbol><symbol id="gECB1CD146348D219847309C79C322A37" overflow="visible"><path d="M 0 0m 3.582 0.819c -0.036 0.081 -0.108 0.117 -0.189 0.126c -0.306 -0.396 -0.693 -0.594 -1.08 -0.594c -0.657 0 -1.206 0.666 -1.206 1.719c 0 0.99 0.432 1.584 1.026 1.584c 0.531 0 0.603 -0.315 0.639 -0.63c 0.027 -0.243 0.153 -0.324 0.342 -0.324c 0.189 0 0.441 0.117 0.441 0.396c 0 0.495 -0.513 0.855 -1.377 0.855c -0.891 0 -1.845 -0.801 -1.845 -2.079c 0 -1.161 0.648 -1.962 1.782 -1.962c 0.54 0 1.017 0.171 1.467 0.909Z "/></symbol><symbol id="g5277906DC426125FD25A938CB480528C" overflow="visible"><path d="M 0 0m 0.387 3.861c -0.126 0 -0.162 -0.108 -0.162 -0.18v -0.117c 0 -0.045 0.009 -0.054 0.045 -0.054h 0.531v -2.709c 0 -0.639 0.279 -0.891 0.693 -0.891c 0.414 0 0.864 0.198 1.215 0.594c -0.018 0.09 -0.072 0.144 -0.162 0.153c -0.234 -0.18 -0.504 -0.252 -0.738 -0.252c -0.243 0 -0.297 0.27 -0.297 0.828v 2.277h 0.936c 0.09 0 0.216 0.036 0.216 0.117v 0.18c 0 0.036 -0.027 0.054 -0.072 0.054h -1.08v 0.351c 0 0.585 0.036 0.945 0.036 0.945c 0 0.054 -0.027 0.081 -0.072 0.081c -0.036 0 -0.117 -0.036 -0.198 -0.081c -0.099 -0.054 -0.189 -0.099 -0.306 -0.126c -0.108 -0.036 -0.198 -0.063 -0.198 -0.126c 0 -0.108 0.027 -0.045 0.027 -1.044Z "/></symbol><symbol id="gEDE113971A7C9D129D6A2104959F55B2" overflow="visible"><path d="M 0 0m 1.629 1.098v 1.791c 0 0.45 0.036 1.026 0.036 1.026c 0 0.036 -0.045 0.063 -0.117 0.063c -0.252 -0.099 -0.612 -0.18 -1.233 -0.261c -0.018 -0.054 0 -0.198 0.018 -0.252c 0.495 -0.045 0.585 -0.099 0.585 -0.612v -1.755c 0 -0.747 -0.099 -0.774 -0.648 -0.819c -0.054 -0.054 -0.054 -0.243 0 -0.297c 0.297 0.009 0.648 0.018 1.008 0.018c 0.36 0 0.702 -0.009 0.999 -0.018c 0.054 0.054 0.054 0.243 0 0.297c -0.549 0.036 -0.648 0.072 -0.648 0.819Z m -0.819 4.293c 0 -0.234 0.216 -0.468 0.432 -0.468c 0.252 0 0.468 0.243 0.468 0.432c 0 0.216 -0.189 0.468 -0.432 0.468c -0.216 0 -0.468 -0.216 -0.468 -0.432Z "/></symbol><symbol id="g83108E758E0F46864100B4063ECF2561" overflow="visible"><path d="M 0 0m 2.925 3.582c 0.486 -0.036 0.54 -0.144 0.351 -0.603l -0.729 -1.764c -0.144 -0.351 -0.189 -0.351 -0.333 0.027l -0.648 1.737c -0.162 0.432 -0.198 0.54 0.279 0.603c 0.054 0.054 0.054 0.243 0 0.297c -0.297 -0.009 -0.612 -0.018 -0.909 -0.018c -0.297 0 -0.567 0.009 -0.837 0.018c -0.054 -0.054 -0.054 -0.243 0 -0.297c 0.477 -0.054 0.54 -0.198 0.72 -0.657l 1.152 -2.844c 0.054 -0.135 0.108 -0.189 0.225 -0.189c 0.09 0 0.153 0.054 0.216 0.207l 1.197 2.817c 0.171 0.396 0.27 0.621 0.774 0.666c 0.054 0.054 0.054 0.243 0 0.297c -0.18 -0.009 -0.396 -0.018 -0.63 -0.018c -0.297 0 -0.603 0.009 -0.828 0.018c -0.054 -0.054 -0.054 -0.243 0 -0.297Z "/></symbol><symbol id="gB7ADC05C7CC292D7AE42D71EE1DDDCEC" overflow="visible"><path d="M 0 0m 1.836 -1.44c 0.144 0.252 0.261 0.504 0.369 0.774c 0.72 1.737 1.125 2.664 1.593 3.672c 0.18 0.378 0.306 0.522 0.729 0.576c 0.054 0.054 0.054 0.243 0 0.297c -0.18 -0.009 -0.387 -0.018 -0.639 -0.018c -0.27 0 -0.549 0.009 -0.819 0.018c -0.054 -0.054 -0.054 -0.243 0 -0.297c 0.288 -0.027 0.576 -0.081 0.432 -0.405l -0.891 -2.061c -0.063 -0.144 -0.144 -0.171 -0.216 0.009l -0.801 1.872c -0.162 0.378 -0.207 0.549 0.297 0.585c 0.054 0.054 0.054 0.243 0 0.297c -0.333 -0.009 -0.693 -0.018 -1.017 -0.018c -0.306 0 -0.549 0.009 -0.729 0.018c -0.054 -0.054 -0.054 -0.243 0 -0.297c 0.36 -0.045 0.477 -0.126 0.711 -0.675l 1.017 -2.367c 0.081 -0.18 0.216 -0.594 0.126 -0.846c -0.108 -0.297 -0.216 -0.549 -0.351 -0.828c -0.099 -0.18 -0.225 -0.261 -0.45 -0.261c -0.126 0 -0.162 0.027 -0.261 0.027c -0.261 0 -0.396 -0.27 -0.396 -0.387c 0 -0.189 0.18 -0.333 0.423 -0.333c 0.189 0 0.549 0.072 0.873 0.648Z "/></symbol><symbol id="gA1FEA12DCE93D0EA0BBFC1201B9D8E1C" overflow="visible"><path d="M 0 0m 0.432 1.242c 0.036 -0.441 0.063 -0.864 0.063 -1.242c 0.09 0.018 0.18 0.027 0.225 0.027c 0.063 0 0.117 0 0.18 -0.018c 0.243 -0.063 0.486 -0.099 0.819 -0.099c 0.504 0 1.431 0.243 1.431 1.134c 0 0.612 -0.441 0.972 -1.053 1.197c -0.54 0.207 -0.9 0.342 -0.9 0.837c 0 0.369 0.324 0.576 0.63 0.576c 0.198 0 0.72 -0.072 0.837 -0.837c 0.054 -0.054 0.234 -0.045 0.288 0.009c 0.027 0.324 0.045 0.657 0.054 0.954c -0.279 0.045 -0.711 0.171 -1.179 0.171c -0.666 0 -1.269 -0.432 -1.269 -1.008c 0 -0.657 0.297 -0.936 0.99 -1.224c 0.747 -0.306 0.918 -0.495 0.918 -0.882c 0 -0.441 -0.432 -0.63 -0.765 -0.63c -0.351 0 -0.549 0.117 -0.639 0.216c -0.198 0.207 -0.297 0.603 -0.351 0.828c -0.054 0.054 -0.225 0.045 -0.279 -0.009Z "/></symbol><symbol id="g4F94A37786D24AC11F1E2C6578232409" overflow="visible"><path d="M 0 0m 1.404 3.312c -0.009 0.27 -0.027 0.504 -0.072 0.594c -0.018 0.045 -0.036 0.072 -0.108 0.072c -0.252 -0.099 -0.486 -0.18 -1.107 -0.261c -0.018 -0.054 0 -0.198 0.018 -0.252c 0.486 -0.045 0.585 -0.09 0.585 -0.612v -3.843c 0 -0.747 -0.099 -0.792 -0.648 -0.819c -0.054 -0.054 -0.054 -0.243 0 -0.297c 0.315 0.009 0.648 0.018 1.008 0.018c 0.36 0 0.792 -0.009 1.089 -0.018c 0.054 0.054 0.054 0.243 0 0.297c -0.639 0.036 -0.738 0.072 -0.738 0.819v 0.972c 0 0.117 0.036 0.108 0.126 0.072c 0.225 -0.09 0.495 -0.144 0.783 -0.144c 0.504 0 0.954 0.153 1.323 0.504c 0.423 0.414 0.666 0.972 0.666 1.701c 0 0.954 -0.675 1.836 -1.593 1.836c -0.414 0 -0.873 -0.27 -1.233 -0.675c -0.054 -0.054 -0.09 -0.054 -0.099 0.036Z m 0.171 -0.333c 0.234 0.288 0.648 0.558 0.909 0.558c 0.576 0 1.071 -0.648 1.071 -1.665c 0 -0.738 -0.261 -1.656 -1.269 -1.656c -0.162 0 -0.477 0.045 -0.639 0.189c -0.18 0.162 -0.216 0.216 -0.216 0.54v 1.638c 0 0.189 0.036 0.27 0.144 0.396Z "/></symbol><symbol id="g1E3DE6493D0CDAC5230F4F7A69963EA0" overflow="visible"><path d="M 0 0m 0.855 1.098c 0 -0.747 -0.099 -0.792 -0.648 -0.819c -0.054 -0.054 -0.054 -0.243 0 -0.297c 0.315 0.009 0.648 0.018 1.008 0.018c 0.36 0 0.702 -0.009 0.999 -0.018c 0.054 0.054 0.054 0.243 0 0.297c -0.549 0.027 -0.648 0.072 -0.648 0.819v 4.149c 0 0.585 0.036 0.945 0.036 0.945c 0 0.063 -0.036 0.09 -0.117 0.09c -0.225 -0.09 -0.9 -0.216 -1.26 -0.243c -0.018 -0.072 0 -0.216 0.054 -0.27c 0.522 -0.036 0.576 -0.063 0.576 -0.738Z "/></symbol><symbol id="gCD526F970F75B32D8B517499D55C4978" overflow="visible"><path d="M 0 0m 2.637 0.432c 0.054 -0.279 0.153 -0.522 0.603 -0.522c 0.342 0 0.666 0.153 0.855 0.333c -0.018 0.108 -0.054 0.189 -0.153 0.243c -0.063 -0.054 -0.216 -0.144 -0.333 -0.144c -0.261 0 -0.27 0.351 -0.27 0.765v 1.323c 0 1.278 -0.702 1.521 -1.359 1.521c -0.738 0 -1.485 -0.486 -1.485 -0.999c 0 -0.216 0.108 -0.324 0.315 -0.324c 0.261 0 0.423 0.189 0.423 0.306c 0 0.063 -0.009 0.126 -0.027 0.162c -0.009 0.027 -0.018 0.081 -0.018 0.18c 0 0.279 0.378 0.378 0.72 0.378c 0.306 0 0.729 -0.153 0.729 -1.17c 0 -0.063 -0.027 -0.099 -0.054 -0.108l -0.774 -0.189c -0.864 -0.216 -1.485 -0.693 -1.485 -1.305c 0 -0.738 0.504 -0.972 1.134 -0.972c 0.315 0 0.585 0.072 0.981 0.378l 0.18 0.144Z m 0 1.665v -1.188c 0 -0.117 -0.054 -0.18 -0.126 -0.234c -0.234 -0.189 -0.54 -0.396 -0.792 -0.396c -0.45 0 -0.648 0.36 -0.648 0.639c 0 0.405 0.189 0.819 0.855 0.99Z "/></symbol><symbol id="gB56A4169EDF414CCDA3A7A5C17A02142" overflow="visible"><path d="M 0 0m 1.584 3.222c -0.018 0.36 -0.027 0.594 -0.072 0.684c -0.018 0.045 -0.036 0.072 -0.108 0.072c -0.252 -0.099 -0.486 -0.18 -1.107 -0.261c -0.018 -0.054 0 -0.198 0.018 -0.252c 0.486 -0.045 0.585 -0.09 0.585 -0.612v -1.755c 0 -0.747 -0.108 -0.783 -0.666 -0.819c -0.054 -0.054 -0.054 -0.243 0 -0.297c 0.315 0.009 0.666 0.018 1.026 0.018c 0.36 0 0.774 -0.009 1.089 -0.018c 0.054 0.054 0.054 0.243 0 0.297c -0.63 0.045 -0.738 0.072 -0.738 0.819v 1.251c 0 0.234 0.108 0.441 0.216 0.603c 0.099 0.144 0.306 0.441 0.414 0.441c 0.081 0 0.162 -0.018 0.234 -0.117c 0.063 -0.09 0.171 -0.207 0.324 -0.207c 0.216 0 0.423 0.225 0.423 0.45c 0 0.171 -0.162 0.432 -0.54 0.432c -0.423 0 -0.792 -0.396 -0.999 -0.747c -0.054 -0.099 -0.099 -0.027 -0.099 0.018Z "/></symbol><symbol id="gF71CD90141C058754731CB923424AFF5" overflow="visible"><path d="M 0 0m 0.369 1.845c 0 -0.918 0.612 -1.935 1.89 -1.935c 0.576 0 1.017 0.207 1.323 0.504c 0.405 0.396 0.585 0.963 0.585 1.512c 0 0.936 -0.513 2.025 -1.89 2.025c -0.594 0 -1.08 -0.243 -1.413 -0.63c -0.324 -0.387 -0.495 -0.909 -0.495 -1.476Z m 1.773 1.791c 0.774 0 1.251 -0.702 1.251 -1.998c 0 -1.134 -0.585 -1.413 -1.008 -1.413c -0.936 0 -1.242 1.134 -1.242 1.827c 0 0.783 0.189 1.584 0.999 1.584Z "/></symbol><symbol id="g54DB3EB67FAE9AE0814F8422BF98AB8D" overflow="visible"><path d="M 0 0m 1.665 0c 0.36 0 1.098 -0.018 1.458 -0.018c 0.792 0 1.683 0.198 2.322 0.756c 0.432 0.378 0.729 1.125 0.729 2.043c 0 1.665 -1.08 3.033 -3.294 3.033c -0.477 0 -0.855 -0.009 -1.215 -0.009c -0.36 0 -1.386 0.018 -1.386 0.018c -0.09 -0.054 -0.09 -0.252 0 -0.306c 0.495 -0.027 0.747 -0.063 0.747 -0.81v -3.609c 0 -0.747 -0.252 -0.783 -0.747 -0.81c -0.09 -0.054 -0.09 -0.252 0 -0.306c 0 0 1.026 0.018 1.386 0.018Z m 0.621 1.071v 3.69c 0 0.495 0.234 0.675 0.558 0.675c 1.773 0 1.971 -1.521 1.971 -2.88c 0 -1.638 -0.981 -2.196 -1.665 -2.196c -0.63 0 -0.864 0.108 -0.864 0.711Z "/></symbol><symbol id="g5D166F0F7E5A44368BF2E983F6EE9FD5" overflow="visible"><path d="M 0 0m 2.088 1.098v 1.791c 0 0.45 0.036 0.954 0.036 0.954c 0 0.099 -0.081 0.153 -0.207 0.153c -0.252 -0.099 -0.981 -0.171 -1.602 -0.252c -0.018 -0.054 0 -0.234 0.018 -0.288c 0.495 -0.045 0.585 -0.117 0.585 -0.63v -1.728c 0 -0.747 -0.099 -0.765 -0.648 -0.81c -0.054 -0.054 -0.054 -0.252 0 -0.306c 0.378 0.009 0.756 0.018 1.233 0.018c 0.477 0 0.846 -0.009 1.233 -0.018c 0.054 0.054 0.054 0.252 0 0.306c -0.549 0.036 -0.648 0.063 -0.648 0.81Z m -1.215 4.266c 0 -0.297 0.216 -0.594 0.576 -0.594c 0.405 0 0.639 0.324 0.639 0.558c 0 0.27 -0.207 0.594 -0.585 0.594c -0.423 0 -0.63 -0.288 -0.63 -0.558Z "/></symbol><symbol id="g5CCD08CEE029BB1E1252C86C73083DDC" overflow="visible"><path d="M 0 0m 0.432 1.314c 0.036 -0.441 0.081 -0.864 0.153 -1.206c 0.171 -0.054 0.747 -0.198 1.251 -0.198c 0.693 0 1.557 0.378 1.557 1.161c 0 0.306 -0.072 0.549 -0.279 0.774c -0.252 0.288 -0.63 0.513 -1.044 0.693c -0.36 0.153 -0.486 0.441 -0.486 0.702c 0 0.207 0.171 0.378 0.432 0.378c 0.315 0 0.621 -0.288 0.846 -0.837c 0.162 -0.027 0.261 -0.018 0.351 0.045c 0 0.324 -0.036 0.666 -0.117 0.954c -0.288 0.126 -0.513 0.216 -1.008 0.216c -0.477 0 -0.927 -0.18 -1.215 -0.468c -0.207 -0.207 -0.306 -0.459 -0.306 -0.702c 0 -0.27 0.108 -0.486 0.279 -0.675c 0.279 -0.306 0.774 -0.621 1.044 -0.747c 0.36 -0.162 0.459 -0.486 0.459 -0.702c 0 -0.288 -0.288 -0.441 -0.531 -0.441c -0.405 0 -0.837 0.414 -1.026 1.071c -0.144 0.027 -0.216 0.018 -0.36 -0.018Z "/></symbol><symbol id="g1B4BB274E0645BBC7FEACF3996C1781A" overflow="visible"><path d="M 0 0m 3.798 0.783c 0 0.108 -0.018 0.279 -0.117 0.279c -0.36 -0.333 -0.666 -0.504 -0.927 -0.504c -0.675 0 -1.206 0.486 -1.206 1.566c 0 0.999 0.225 1.494 0.702 1.494c 0.333 0 0.468 -0.351 0.495 -0.639c 0.027 -0.243 0.27 -0.423 0.558 -0.423c 0.288 0 0.495 0.225 0.495 0.504c 0 0.405 -0.486 0.936 -1.467 0.936c -1.062 0 -1.998 -0.855 -1.998 -2.187c 0 -0.585 0.207 -1.098 0.558 -1.431c 0.351 -0.333 0.765 -0.468 1.404 -0.468c 0.54 0 1.161 0.378 1.503 0.873Z "/></symbol><symbol id="g3AABD6367CE61353955D2F6F568F5DF" overflow="visible"><path d="M 0 0m 4.59 1.197v 1.557c 0 0.756 0.018 0.648 0.018 0.864c 0 0.153 -0.036 0.252 -0.09 0.306c -0.162 -0.009 -0.342 -0.018 -0.513 -0.018c -0.252 0 -0.837 0.009 -1.188 0.018c -0.054 -0.054 -0.054 -0.252 0 -0.306c 0.459 -0.045 0.603 -0.108 0.603 -0.864v -1.665c 0 -0.09 0 -0.18 0.009 -0.27c -0.369 -0.225 -0.666 -0.243 -0.828 -0.243c -0.36 0 -0.63 0.045 -0.63 0.675v 1.503c 0 0.756 0.018 0.648 0.018 0.864c 0 0.153 -0.036 0.252 -0.09 0.306c -0.162 -0.009 -0.351 -0.018 -0.513 -0.018c -0.459 0 -0.801 0.009 -1.188 0.018c -0.054 -0.054 -0.054 -0.252 0 -0.306c 0.414 -0.018 0.603 -0.108 0.603 -0.864v -1.404c 0 -0.954 0.378 -1.44 1.152 -1.44c 0.324 0 0.981 0.261 1.503 0.549c 0.018 -0.225 0.036 -0.396 0.036 -0.396c 0.009 -0.108 0.081 -0.153 0.207 -0.153c 0.333 0.09 0.873 0.216 1.494 0.297c 0.018 0.054 0 0.234 -0.018 0.288c -0.486 0.045 -0.585 0.189 -0.585 0.702Z "/></symbol><symbol id="gB44AD3C00DF2BD7A3B0995B729B2F89E" overflow="visible"><path d="M 0 0m 0.333 1.863c 0 -1.179 0.936 -1.953 2.142 -1.953c 0.639 0 1.17 0.18 1.539 0.513c 0.459 0.405 0.612 1.017 0.612 1.521c 0 1.179 -0.801 2.052 -2.142 2.052c -0.747 0 -1.305 -0.261 -1.656 -0.666c -0.342 -0.396 -0.495 -0.936 -0.495 -1.467Z m 2.007 1.755c 0.612 0 1.026 -0.729 1.026 -1.962c 0 -1.08 -0.423 -1.368 -0.747 -1.368c -0.738 0 -1.026 1.107 -1.026 1.773c 0 0.828 0.144 1.557 0.747 1.557Z "/></symbol><symbol id="g77DFF579C4297C58BB534BE65B39B6CA" overflow="visible"><path d="M 0 0m 2.052 1.098v 1.809c 0.36 0.243 0.72 0.423 0.882 0.423c 0.36 0 0.63 -0.162 0.63 -0.675v -1.503c 0 -0.756 -0.144 -0.837 -0.513 -0.864c -0.054 -0.054 -0.054 -0.252 0 -0.306c 0.378 0.009 0.666 0.018 1.098 0.018c 0.495 0 0.891 -0.009 1.278 -0.018c 0.054 0.054 0.054 0.252 0 0.306c -0.549 0.027 -0.693 0.108 -0.693 0.864v 1.404c 0 0.99 -0.423 1.44 -1.197 1.44c -0.36 0 -0.999 -0.396 -1.494 -0.738c -0.027 0.315 -0.063 0.585 -0.063 0.585c -0.009 0.108 -0.081 0.153 -0.207 0.153c -0.333 -0.09 -0.873 -0.216 -1.494 -0.297c -0.018 -0.054 0 -0.234 0.018 -0.288c 0.495 -0.045 0.585 -0.117 0.585 -0.63v -1.683c 0 -0.747 -0.099 -0.765 -0.648 -0.81c -0.054 -0.054 -0.054 -0.252 0 -0.306c 0.378 0.009 0.756 0.018 1.233 0.018c 0.414 0 0.666 -0.009 1.053 -0.018c 0.054 0.054 0.054 0.252 0 0.306c -0.378 0.036 -0.468 0.063 -0.468 0.81Z "/></symbol><symbol id="g377F3635C22222BC3D8999B473E29903" overflow="visible"><path d="M 0 0m 3.573 -0.09c 0.873 0 1.674 0.414 2.286 1.215c -0.045 0.081 -0.198 0.189 -0.297 0.189c -0.639 -0.702 -1.368 -0.936 -1.998 -0.936c -1.044 0 -1.872 1.224 -1.872 2.628c 0 1.395 0.72 2.547 1.791 2.547c 1.242 0 1.647 -0.702 1.881 -1.476c 0.108 -0.036 0.288 -0.009 0.387 0.045c -0.045 0.468 -0.117 0.9 -0.198 1.395c -0.459 0.045 -0.864 0.405 -1.971 0.405c -1.764 0 -3.249 -1.107 -3.249 -3.087c 0 -0.846 0.369 -1.836 1.089 -2.358c 0.576 -0.414 1.278 -0.567 2.151 -0.567Z "/></symbol><symbol id="g695758CB2C6BE00D50F851A154409E48" overflow="visible"><path d="M 0 0m 2.052 1.098v 1.791c 0 0.045 0 0.09 0 0.135c 0.351 0.216 0.666 0.306 0.819 0.306c 0.36 0 0.63 -0.162 0.63 -0.675v -1.503c 0 -0.756 -0.144 -0.837 -0.513 -0.864c -0.054 -0.054 -0.054 -0.252 0 -0.306c 0.378 0.009 0.666 0.018 1.098 0.018c 0.432 0 0.711 -0.009 1.098 -0.018c 0.054 0.054 0.054 0.252 0 0.306c -0.36 0.027 -0.513 0.108 -0.513 0.864v 1.404c 0 0.225 -0.009 0.405 -0.036 0.495c 0.342 0.171 0.729 0.279 0.873 0.279c 0.36 0 0.612 -0.162 0.612 -0.675v -1.503c 0 -0.756 -0.144 -0.837 -0.513 -0.864c -0.054 -0.054 -0.054 -0.252 0 -0.306c 0.378 0.009 0.666 0.018 1.098 0.018c 0.495 0 0.891 -0.009 1.278 -0.018c 0.054 0.054 0.054 0.252 0 0.306c -0.549 0.027 -0.693 0.108 -0.693 0.864v 1.404c 0 0.99 -0.36 1.44 -1.134 1.44c -0.333 0 -1.089 -0.36 -1.611 -0.648c -0.135 0.387 -0.495 0.648 -1.026 0.648c -0.324 0 -0.972 -0.342 -1.485 -0.63c -0.027 0.27 -0.054 0.477 -0.054 0.477c -0.009 0.108 -0.081 0.153 -0.207 0.153c -0.333 -0.09 -0.873 -0.216 -1.494 -0.297c -0.018 -0.054 0 -0.234 0.018 -0.288c 0.495 -0.045 0.585 -0.117 0.585 -0.63v -1.683c 0 -0.747 -0.099 -0.765 -0.648 -0.81c -0.054 -0.054 -0.054 -0.252 0 -0.306c 0.378 0.009 0.756 0.018 1.233 0.018c 0.414 0 0.666 -0.009 1.053 -0.018c 0.054 0.054 0.054 0.252 0 0.306c -0.378 0.036 -0.468 0.063 -0.468 0.81Z "/></symbol><symbol id="g136C905B50E42975079434436E4DAEF4" overflow="visible"><path d="M 0 0m 3.879 1.161c -0.369 -0.378 -0.855 -0.477 -1.197 -0.477c -0.702 0 -1.134 0.405 -1.134 1.287c 0 0.063 0.009 0.099 0.009 0.144h 2.16c 0.216 0 0.261 0.153 0.261 0.279c 0 0.765 -0.297 1.602 -1.62 1.602c -0.945 0 -2.025 -0.837 -2.025 -2.214c 0 -0.522 0.189 -1.071 0.576 -1.422c 0.342 -0.306 0.783 -0.45 1.422 -0.45c 0.621 0 1.233 0.315 1.683 0.972c 0 0.117 -0.045 0.279 -0.135 0.279Z m -2.286 1.314c 0.009 0.315 0.054 0.657 0.18 0.837c 0.144 0.216 0.387 0.306 0.486 0.306c 0.243 0 0.576 -0.234 0.576 -0.954c 0 -0.054 0 -0.171 -0.018 -0.189Z "/></symbol><symbol id="gDCA7AD9848E83F426C822AF345B8AA35" overflow="visible"><path d="M 0 0m 0.567 3.906c -0.126 0 -0.261 -0.036 -0.378 -0.135v -0.261c 0 -0.045 0.009 -0.054 0.045 -0.054h 0.585c -0.018 -0.909 -0.027 -2.061 -0.027 -2.511c 0 -0.315 0.081 -0.621 0.27 -0.783c 0.207 -0.171 0.531 -0.252 0.747 -0.252c 0.495 0 1.044 0.252 1.224 0.504c 0 0.108 -0.054 0.162 -0.162 0.252c -0.117 -0.09 -0.342 -0.126 -0.513 -0.126c -0.198 0 -0.396 0.153 -0.396 0.603c 0 0.45 -0.009 1.413 -0.009 2.313h 0.909c 0.09 0 0.216 0.036 0.216 0.117v 0.279c 0 0.036 -0.027 0.054 -0.072 0.054h -1.053l 0.009 0.306c 0.018 0.603 0.045 1.017 0.045 1.017c 0 0.054 -0.027 0.081 -0.072 0.081c -0.063 0 -0.396 -0.099 -0.54 -0.162c -0.153 -0.063 -0.414 -0.117 -0.477 -0.198c -0.063 -0.081 -0.099 -0.324 -0.099 -1.044Z "/></symbol><symbol id="gCCF28E29FF8CFE46410F5A526209CFA4" overflow="visible"><path d="M 0 0m 0.936 0.855c -0.279 0 -0.477 -0.189 -0.477 -0.441c 0 -0.279 0.234 -0.369 0.396 -0.396c 0.171 -0.018 0.324 -0.072 0.324 -0.279c 0 -0.189 -0.324 -0.603 -0.792 -0.72c 0 -0.09 0.018 -0.153 0.081 -0.216c 0.54 0.099 1.062 0.531 1.062 1.161c 0 0.54 -0.234 0.891 -0.594 0.891Z "/></symbol><symbol id="gCDDC6E40F48E7598936EA49DC3DBB5C8" overflow="visible"><path d="M 0 0m 1.026 4.707v -3.609c 0 -0.747 -0.252 -0.783 -0.747 -0.81c -0.09 -0.054 -0.09 -0.252 0 -0.306c 0.36 0.009 1.026 0.018 1.386 0.018c 0.36 0 1.008 -0.009 1.368 -0.018c 0.09 0.054 0.09 0.252 0 0.306c -0.495 0.027 -0.747 0.063 -0.747 0.81v 3.609c 0 0.747 0.252 0.783 0.747 0.81c 0.09 0.054 0.09 0.252 0 0.306c -0.36 -0.009 -1.008 -0.018 -1.368 -0.018c -0.36 0 -1.026 0.009 -1.386 0.018c -0.09 -0.054 -0.09 -0.252 0 -0.306c 0.495 -0.027 0.747 -0.063 0.747 -0.81Z "/></symbol><symbol id="g9778062236A9E14C8CAD8B46F24698D8" overflow="visible"><path d="M 0 0m 3.114 5.886c -0.36 0 -2.475 -0.063 -2.835 -0.063c -0.09 -0.054 -0.09 -0.252 0 -0.306c 0.495 -0.027 0.747 -0.063 0.747 -0.81v -3.609c 0 -0.747 -0.252 -0.783 -0.747 -0.81c -0.09 -0.054 -0.09 -0.252 0 -0.306c 0.36 0.009 1.026 0.018 1.386 0.018c 0.36 0 1.008 -0.009 1.368 -0.018c 0.09 0.054 0.09 0.252 0 0.306c -0.495 0.027 -0.747 0.063 -0.747 0.81v 3.618c 0 0.612 0.063 0.801 0.54 0.801c 0.522 0 1.125 -0.216 1.125 -1.314c 0 -0.936 -0.261 -1.332 -0.999 -1.332c -0.135 0 -0.324 0.009 -0.45 0.027c 0 -0.171 0.054 -0.297 0.18 -0.378c 0.126 -0.018 0.099 -0.027 0.315 -0.027c 0.792 0 1.35 0.135 1.71 0.432c 0.45 0.369 0.603 0.954 0.603 1.431c 0 0.36 -0.135 0.9 -0.693 1.233c -0.333 0.198 -0.828 0.297 -1.503 0.297Z "/></symbol><symbol id="g2C85CCCEC1F311ABE33B97F0BADF4CE3" overflow="visible"><path d="M 0 0m 3.258 5.886c -0.36 0 -2.619 -0.063 -2.979 -0.063c -0.09 -0.054 -0.09 -0.252 0 -0.306c 0.495 -0.027 0.747 -0.063 0.747 -0.81v -3.609c 0 -0.747 -0.252 -0.783 -0.747 -0.81c -0.09 -0.054 -0.09 -0.252 0 -0.306c 0.36 0.009 1.026 0.018 1.386 0.018c 0.36 0 1.008 -0.009 1.368 -0.018c 0.09 0.054 0.09 0.252 0 0.306c -0.495 0.027 -0.747 0.063 -0.747 0.81v 1.449c 0.711 0 0.792 -0.063 0.918 -0.27l 1.053 -1.566c 0.279 -0.405 0.648 -0.801 1.188 -0.801c 0.36 0 0.828 0.027 0.918 0.072c 0.036 0.063 0.027 0.234 -0.009 0.306c -0.405 0 -0.612 0.216 -0.864 0.594l -1.224 1.89c 0.486 0.198 1.188 0.666 1.188 1.584c 0 0.36 -0.135 0.9 -0.693 1.233c -0.333 0.198 -0.828 0.297 -1.503 0.297Z m 0.837 -1.683c 0 -1.107 -0.666 -1.278 -1.422 -1.278h -0.387v 1.791c 0 0.612 0.207 0.801 0.684 0.801c 0.522 0 1.125 -0.216 1.125 -1.314Z "/></symbol><symbol id="gC4F711AA31032A8916F03AB95F75CE23" overflow="visible"><path d="M 0 0m 0.513 0.387c 0 -0.261 0.216 -0.477 0.477 -0.477c 0.261 0 0.477 0.216 0.477 0.477c 0 0.261 -0.216 0.477 -0.477 0.477c -0.261 0 -0.477 -0.216 -0.477 -0.477Z "/></symbol><symbol id="gAD9C87F854BDA42EDABFFB35EC1FA84E" overflow="visible"><path d="M 0 0m 0.488 3.744c 0 -0.168 0.152 -0.312 0.32 -0.312c 0.136 0 0.376 0.144 0.376 0.32c 0 0.064 -0.016 0.112 -0.032 0.168c -0.016 0.056 -0.064 0.128 -0.064 0.192c 0 0.2 0.208 0.488 0.792 0.488c 0.288 0 0.696 -0.2 0.696 -0.968c 0 -0.512 -0.184 -0.928 -0.656 -1.408l -0.592 -0.584c -0.784 -0.8 -0.912 -1.184 -0.912 -1.656c 0 0 0.408 0.016 0.664 0.016h 1.4c 0.256 0 0.624 -0.016 0.624 -0.016c 0.104 0.424 0.184 1.024 0.192 1.264c -0.048 0.04 -0.152 0.056 -0.232 0.04c -0.136 -0.568 -0.272 -0.768 -0.56 -0.768h -1.424c 0 0.384 0.552 0.928 0.592 0.968l 0.808 0.776c 0.456 0.44 0.8 0.792 0.8 1.4c 0 0.864 -0.704 1.216 -1.352 1.216c -0.888 0 -1.44 -0.656 -1.44 -1.136Z "/></symbol><symbol id="g97663EC9AEA74EADA07472643E1BE1B4" overflow="visible"><path d="M 0 0m 1.824 -0.08c 0.616 0 1.552 0.624 1.552 2.504c 0 0.792 -0.192 1.472 -0.544 1.936c -0.208 0.28 -0.544 0.52 -0.976 0.52c -0.792 0 -1.544 -0.944 -1.544 -2.528c 0 -0.856 0.264 -1.656 0.704 -2.096c 0.224 -0.224 0.496 -0.336 0.808 -0.336Z m 0.032 4.68c 0.136 0 0.264 -0.048 0.36 -0.136c 0.248 -0.208 0.464 -0.816 0.464 -1.888c 0 -0.736 -0.024 -1.24 -0.136 -1.648c -0.176 -0.656 -0.568 -0.728 -0.712 -0.728c -0.744 0 -0.824 1.368 -0.824 2.064c 0 1.968 0.488 2.336 0.848 2.336Z "/></symbol><symbol id="g4DADFF8D06AE4DC17FB93571E5AFF437" overflow="visible"><path d="M 0 0m 1.72 4.6c 0.344 0 0.664 -0.208 0.664 -0.72c 0 -0.4 -0.464 -1.016 -1.256 -1.128l 0.04 -0.256c 0.136 0.016 0.28 0.016 0.384 0.016c 0.456 0 1.048 -0.128 1.048 -1.032c 0 -1.064 -0.712 -1.28 -0.992 -1.28c -0.408 0 -0.48 0.184 -0.576 0.328c -0.08 0.112 -0.184 0.208 -0.344 0.208c -0.168 0 -0.336 -0.152 -0.336 -0.28c 0 -0.32 0.672 -0.536 1.152 -0.536c 0.952 0 1.8 0.616 1.8 1.672c 0 0.872 -0.656 1.184 -1.128 1.264l -0.008 0.016c 0.656 0.312 0.84 0.64 0.84 1.064c 0 0.24 -0.056 0.432 -0.248 0.632c -0.176 0.176 -0.456 0.312 -0.872 0.312c -1.176 0 -1.512 -0.768 -1.512 -1.032c 0 -0.112 0.08 -0.272 0.272 -0.272c 0.28 0 0.312 0.264 0.312 0.416c 0 0.512 0.552 0.608 0.76 0.608Z "/></symbol><symbol id="gF821431C61A4D7F3ECEFEC074E9C0EFC" overflow="visible"><path d="M 0 0m 3.44 1.752h -0.664v 2.336c 0 0.4 0 0.712 0.016 0.776l -0.016 0.016h -0.256c -0.056 0 -0.096 -0.048 -0.128 -0.088c -0.504 -0.616 -1.432 -1.936 -2.168 -3.08c 0.024 -0.12 0.072 -0.336 0.312 -0.336h 1.632v -0.736c 0 -0.368 -0.304 -0.368 -0.648 -0.392c -0.048 -0.048 -0.048 -0.216 0 -0.264c 0.256 0.008 0.576 0.016 0.944 0.016c 0.312 0 0.616 -0.008 0.872 -0.016c 0.048 0.048 0.048 0.216 0 0.264c -0.392 0.032 -0.56 0.016 -0.56 0.392v 0.736h 0.552c 0.112 0 0.232 0.152 0.232 0.248c 0 0.08 -0.032 0.128 -0.12 0.128Z m -1.272 2.304v -2.304h -1.528c 0.408 0.656 0.976 1.552 1.528 2.304Z "/></symbol><symbol id="gD00C9D162D1CBC09F2F7551D594DBB72" overflow="visible"><path d="M 0 0m 2.552 1.512c 0 -0.76 -0.4 -1.32 -0.88 -1.32c -0.304 0 -0.408 0.2 -0.528 0.36c -0.104 0.136 -0.24 0.256 -0.408 0.256c -0.152 0 -0.304 -0.136 -0.304 -0.296c 0 -0.328 0.68 -0.6 1.136 -0.6c 0.992 0 1.696 0.736 1.696 1.744c 0 0.776 -0.536 1.472 -1.432 1.472c -0.344 0 -0.64 -0.072 -0.784 -0.128l 0.16 1.336c 0.296 -0.032 0.552 -0.072 0.936 -0.072c 0.24 0 0.512 0.016 0.84 0.048l 0.128 0.544l -0.056 0.032c -0.456 -0.048 -0.888 -0.088 -1.312 -0.088c -0.296 0 -0.584 0.016 -0.864 0.04l -0.272 -2.304c 0.424 0.16 0.728 0.192 1.016 0.192c 0.52 0 0.928 -0.344 0.928 -1.216Z "/></symbol><symbol id="gAFC6ADE0F4BA5C584B85DD0E8532505B" overflow="visible"><path d="M 0 0m 1.152 2.744c 0.216 0.728 0.728 1.536 1.792 1.936c 0 0.096 -0.032 0.168 -0.096 0.208c -0.808 -0.24 -1.304 -0.576 -1.752 -1.096c -0.496 -0.576 -0.744 -1.304 -0.744 -1.936c 0 -1.624 0.92 -1.944 1.536 -1.944c 1.048 0 1.48 1.016 1.48 1.704c 0 0.688 -0.368 1.304 -1.456 1.304c -0.208 0 -0.52 -0.064 -0.76 -0.176Z m -0.072 -0.288c 0.264 0.176 0.528 0.184 0.664 0.184c 0.784 0 0.96 -0.768 0.96 -1.168c 0 -0.88 -0.336 -1.28 -0.728 -1.28c -0.504 0 -0.96 0.272 -0.96 1.64c 0 0.184 0.016 0.392 0.064 0.624Z "/></symbol><symbol id="g8C50DFC0B8272CD73341C65811BD0E92" overflow="visible"><path d="M 0 0m 2.304 0.976v 2.776c 0 0.48 0.008 0.968 0.024 1.072c 0 0.04 -0.016 0.04 -0.048 0.04c -0.44 -0.272 -0.864 -0.472 -1.568 -0.8c 0.016 -0.088 0.048 -0.168 0.12 -0.216c 0.368 0.152 0.544 0.2 0.696 0.2c 0.136 0 0.16 -0.192 0.16 -0.464v -2.608c 0 -0.664 -0.216 -0.704 -0.776 -0.728c -0.048 -0.048 -0.048 -0.216 0 -0.264c 0.392 0.008 0.68 0.016 1.112 0.016c 0.384 0 0.576 -0.008 0.976 -0.016c 0.048 0.048 0.048 0.216 0 0.264c -0.56 0.024 -0.696 0.064 -0.696 0.728Z "/></symbol><symbol id="gC375F277B20C2526627B56EF0039913" overflow="visible"><path d="M 0 0m 3.213 -0.09c 0.873 0 1.674 0.414 2.286 1.215c -0.045 0.081 -0.108 0.135 -0.207 0.135c -0.639 -0.702 -1.251 -0.981 -2.088 -0.981c -1.215 0 -2.052 1.368 -2.052 2.682c 0 0.774 0.207 1.422 0.531 1.827c 0.45 0.549 0.972 0.801 1.44 0.801c 1.242 0 1.737 -0.738 1.971 -1.512c 0.108 -0.036 0.198 -0.009 0.297 0.045c -0.045 0.468 -0.108 0.9 -0.198 1.395c -0.459 0.045 -0.864 0.405 -1.971 0.405c -0.765 0 -1.404 -0.279 -1.935 -0.765c -0.594 -0.549 -0.954 -1.431 -0.954 -2.367c 0 -1.566 0.945 -2.88 2.88 -2.88Z "/></symbol><symbol id="g66B9A992694013ABABB01E28AE9743C7" overflow="visible"><path d="M 0 0m 1.53 3.222c -0.009 0.27 -0.027 0.594 -0.072 0.684c -0.018 0.045 -0.036 0.072 -0.108 0.072c -0.252 -0.099 -0.486 -0.18 -1.107 -0.261c -0.018 -0.054 0 -0.198 0.018 -0.252c 0.486 -0.045 0.585 -0.09 0.585 -0.612v -1.755c 0 -0.738 -0.117 -0.783 -0.612 -0.819c -0.054 -0.054 -0.054 -0.243 0 -0.297c 0.27 0.009 0.612 0.018 0.972 0.018c 0.36 0 0.639 -0.009 0.909 -0.018c 0.054 0.054 0.054 0.243 0 0.297c -0.459 0.045 -0.558 0.081 -0.558 0.819v 1.476c 0 0.189 0.081 0.297 0.153 0.378c 0.36 0.351 0.693 0.531 0.972 0.531c 0.342 0 0.594 -0.216 0.594 -0.819v -1.566c 0 -0.738 -0.072 -0.783 -0.558 -0.819c -0.045 -0.054 -0.045 -0.243 0 -0.297c 0.225 0.009 0.558 0.018 0.918 0.018c 0.36 0 0.657 -0.009 0.882 -0.018c 0.045 0.054 0.045 0.243 0 0.297c -0.45 0.036 -0.531 0.081 -0.531 0.819v 1.431c 0 0.126 0 0.252 -0.009 0.36c 0.432 0.477 0.837 0.594 1.188 0.594c 0.342 0 0.54 -0.198 0.54 -0.801v -1.584c 0 -0.738 -0.09 -0.783 -0.558 -0.819c -0.045 -0.054 -0.045 -0.243 0 -0.297c 0.225 0.009 0.558 0.018 0.918 0.018c 0.36 0 0.675 -0.009 0.927 -0.018c 0.045 0.054 0.045 0.243 0 0.297c -0.495 0.036 -0.576 0.081 -0.576 0.819v 1.422c 0 0.801 -0.135 1.431 -0.927 1.431c -0.459 0 -1.017 -0.171 -1.485 -0.666c -0.027 -0.027 -0.081 -0.072 -0.099 0.009c -0.081 0.369 -0.432 0.657 -0.9 0.657c -0.522 0 -0.99 -0.306 -1.368 -0.729c -0.045 -0.045 -0.099 -0.108 -0.108 0Z "/></symbol><symbol id="g15283247E004048E8F39F157505A0F31" overflow="visible"><path d="M 0 0m 3.474 0.837c -0.333 -0.342 -0.594 -0.486 -1.116 -0.486c -0.324 0 -0.702 0.189 -0.981 0.648c -0.18 0.297 -0.288 0.711 -0.288 1.233l 2.394 -0.018c 0.108 0 0.171 0.054 0.171 0.153c 0 0.756 -0.27 1.566 -1.521 1.566c -0.783 0 -1.8 -0.747 -1.8 -2.115c 0 -0.504 0.126 -0.99 0.423 -1.332c 0.306 -0.36 0.729 -0.576 1.377 -0.576c 0.684 0 1.17 0.315 1.53 0.783c -0.027 0.09 -0.081 0.135 -0.189 0.144Z m -2.358 1.701c 0.171 1.017 0.801 1.098 1.017 1.098c 0.342 0 0.747 -0.189 0.747 -0.945c 0 -0.081 -0.036 -0.126 -0.135 -0.126Z "/></symbol><symbol id="g75829AE9E8B7E42D7FCDFD5712A16351" overflow="visible"><path d="M 0 0m 1.656 3.222c -0.054 -0.063 -0.108 -0.081 -0.108 0c -0.009 0.243 -0.027 0.594 -0.072 0.684c -0.018 0.045 -0.036 0.072 -0.108 0.072c -0.252 -0.099 -0.486 -0.18 -1.107 -0.261c -0.018 -0.054 0 -0.198 0.018 -0.252c 0.486 -0.045 0.585 -0.09 0.585 -0.612v -1.755c 0 -0.738 -0.09 -0.774 -0.63 -0.819c -0.054 -0.054 -0.054 -0.243 0 -0.297c 0.27 0.009 0.63 0.018 0.99 0.018c 0.36 0 0.63 -0.009 0.9 -0.018c 0.054 0.054 0.054 0.243 0 0.297c -0.459 0.045 -0.549 0.081 -0.549 0.819v 1.476c 0 0.189 0.081 0.297 0.153 0.378c 0.342 0.333 0.747 0.531 1.098 0.531c 0.18 0 0.369 -0.117 0.477 -0.324c 0.09 -0.18 0.108 -0.423 0.108 -0.693v -1.368c 0 -0.738 -0.09 -0.774 -0.558 -0.819c -0.045 -0.054 -0.045 -0.243 0 -0.297c 0.27 0.009 0.558 0.018 0.918 0.018c 0.36 0 0.684 -0.009 0.954 -0.018c 0.045 0.054 0.045 0.243 0 0.297c -0.504 0.045 -0.603 0.081 -0.603 0.819v 1.341c 0 0.495 -0.036 0.927 -0.243 1.206c -0.153 0.198 -0.432 0.306 -0.747 0.306c -0.441 0 -0.945 -0.117 -1.476 -0.729Z "/></symbol><symbol id="gD7C5B89B29D1A7AF5E301B7DA2A12EF7" overflow="visible"><path d="M 0 0m 3.789 0.846l 0.261 -0.333c 0.423 -0.585 0.756 -0.603 1.035 -0.603c 0.315 0 0.72 0.252 0.927 0.882c -0.045 0.045 -0.09 0.09 -0.189 0.09c -0.18 -0.351 -0.387 -0.486 -0.684 -0.486c -0.144 0 -0.414 0.18 -0.693 0.567l -0.324 0.45c 0.36 0.513 0.558 0.873 0.801 1.305c 0.414 0.738 0.477 0.783 1.026 0.819c 0.054 0.054 0.054 0.243 0 0.297c -0.18 -0.009 -0.45 -0.018 -0.756 -0.018c -0.306 0 -0.675 0.009 -0.855 0.018c -0.054 -0.054 -0.054 -0.243 0 -0.297c 0.486 -0.027 0.621 -0.072 0.279 -0.702c -0.153 -0.288 -0.369 -0.675 -0.693 -1.152c -0.414 0.558 -0.936 1.305 -1.098 1.584l -0.036 0.072c 0.747 0.432 1.341 1.017 1.341 1.512c 0 0.567 -0.522 0.972 -1.152 0.972c -0.9 0 -1.386 -0.639 -1.386 -1.17c 0 -0.342 0.126 -0.693 0.459 -1.269c -1.188 -0.666 -1.665 -1.269 -1.665 -1.98c 0 -1.098 0.765 -1.494 1.728 -1.494c 0.765 0 1.26 0.369 1.674 0.936Z m -1.539 2.196c 0.099 -0.189 0.819 -1.233 1.332 -1.908c -0.441 -0.603 -0.765 -0.927 -1.404 -0.927c -0.567 0 -1.053 0.315 -1.053 1.197c 0 0.639 0.198 1.125 1.125 1.638Z m 0.351 0.639c -0.234 0.441 -0.342 0.783 -0.342 0.99c 0 0.594 0.441 0.855 0.675 0.855c 0.369 0 0.576 -0.27 0.576 -0.675c 0 -0.324 -0.333 -0.792 -0.909 -1.17Z "/></symbol><symbol id="g1A88500060BC21DC44508038C8E5E161" overflow="visible"><path d="M 0 0m 1.701 1.098v 1.521c 0.756 0 0.927 -0.135 1.053 -0.342l 0.963 -1.566c 0.261 -0.423 0.648 -0.801 1.188 -0.801c 0.135 0 0.288 0.018 0.378 0.063c 0.036 0.063 0.027 0.144 -0.009 0.216c -0.405 0 -0.63 0.306 -0.864 0.693l -1.134 1.89c 0.387 0.126 1.197 0.594 1.197 1.539c 0 0.45 -0.153 0.819 -0.477 1.125c -0.432 0.405 -0.99 0.432 -1.557 0.432c -0.423 0 -0.801 -0.063 -1.125 -0.063c -0.315 0 -0.738 0.009 -1.161 0.018c -0.054 -0.054 -0.054 -0.243 0 -0.297c 0.63 -0.027 0.783 -0.072 0.783 -0.819v -3.609c 0 -0.747 -0.153 -0.792 -0.783 -0.819c -0.054 -0.054 -0.054 -0.243 0 -0.297c 0.405 0.009 0.828 0.018 1.17 0.018c 0.342 0 0.765 -0.009 1.161 -0.018c 0.054 0.054 0.054 0.243 0 0.297c -0.63 0.027 -0.783 0.072 -0.783 0.819Z m 0.747 4.464c 0.549 0 1.197 -0.198 1.197 -1.26c 0 -1.125 -0.639 -1.377 -1.512 -1.377h -0.432v 2.061c 0 0.261 0.108 0.576 0.747 0.576Z "/></symbol></defs><defs><clipPath id="c81948EC56E78C3EAC8A23DEFEB23AC41"><path d="M 0 0h 404.542992126v 169.993685039h -404.542992126Z "/></clipPath></defs></svg>