<?xml version="1.0" encoding="UTF-8" standalone="no"?>
<svg
   xmlns:dc="http://purl.org/dc/elements/1.1/"
   xmlns:cc="http://creativecommons.org/ns#"
   xmlns:rdf="http://www.w3.org/1999/02/22-rdf-syntax-ns#"
   xmlns:svg="http://www.w3.org/2000/svg"
   xmlns="http://www.w3.org/2000/svg"
   xmlns:sodipodi="http://sodipodi.sourceforge.net/DTD/sodipodi-0.dtd"
   xmlns:inkscape="http://www.inkscape.org/namespaces/inkscape"
   class="svglite"
   width="4.3899999cm"
   height="5.0799999cm"
   viewBox="0 0 124.44095 144"
   version="1.1"
   id="svg48"
   sodipodi:docname="featured.svg"
   inkscape:version="0.92.4 (5da689c313, 2019-01-14)"
   inkscape:export-filename="D:\Profils\mcanouil\PROJECTS\mc-mickael.canouil.fr\content\project\ggpacman\featured.png"
   inkscape:export-xdpi="96"
   inkscape:export-ydpi="96">
  <metadata
     id="metadata52">
    <rdf:RDF>
      <cc:Work
         rdf:about="">
        <dc:format>image/svg+xml</dc:format>
        <dc:type
           rdf:resource="http://purl.org/dc/dcmitype/StillImage" />
        <dc:title></dc:title>
      </cc:Work>
    </rdf:RDF>
  </metadata>
  <sodipodi:namedview
     pagecolor="#ffffff"
     bordercolor="#666666"
     borderopacity="1"
     objecttolerance="10"
     gridtolerance="10"
     guidetolerance="10"
     inkscape:pageopacity="0"
     inkscape:pageshadow="2"
     inkscape:window-width="1920"
     inkscape:window-height="1001"
     id="namedview50"
     showgrid="false"
     units="cm"
     inkscape:zoom="1.9356955"
     inkscape:cx="156.41795"
     inkscape:cy="16.054189"
     inkscape:window-x="-9"
     inkscape:window-y="-9"
     inkscape:window-maximized="1"
     inkscape:current-layer="svg48" />
  <defs
     id="defs4">
    <style
       type="text/css"
       id="style2"><![CDATA[
    .svglite line, .svglite polyline, .svglite polygon, .svglite path, .svglite rect, .svglite circle {
      fill: none;
      stroke: #000000;
      stroke-linecap: round;
      stroke-linejoin: round;
      stroke-miterlimit: 10.00;
    }
  ]]></style>
  </defs>
  <defs
     id="defs11">
    <clipPath
       id="cpMC4wMHwzMTYuMDh8MC4wMHwzNjUuNzY=">
      <rect
         x="0"
         y="0"
         width="316.07999"
         height="365.76001"
         id="rect8"
         style="fill:none;stroke:#000000;stroke-linecap:round;stroke-linejoin:round;stroke-miterlimit:10" />
    </clipPath>
  </defs>
  <g
     clip-path="url(#cpMC4wMHwzMTYuMDh8MC4wMHwzNjUuNzY=)"
     id="g13"
     transform="translate(-394.14315,-192.85934)" />
  <defs
     id="defs18">
    <clipPath
       id="cpMC4wMHwzMTYuMDh8MC4zOXwzNjUuMzc=">
      <rect
         x="0"
         y="0.38999999"
         width="316.07999"
         height="364.98001"
         id="rect15"
         style="fill:none;stroke:#000000;stroke-linecap:round;stroke-linejoin:round;stroke-miterlimit:10" />
    </clipPath>
  </defs>
  <g
     clip-path="url(#cpMC4wMHwzMTYuMDh8MC4wMHwzNjUuNzY=)"
     id="g24"
     transform="translate(-394.14315,-192.85934)" />
  <g
     clip-path="url(#cpMC4wMHwzMTYuMDh8MC4wMHwzNjUuNzY=)"
     id="g46"
     transform="translate(-394.14315,-192.85934)" />
  <g
     id="g4601"
     transform="matrix(0.19094333,0,0,0.19143951,-75.258728,-5.5330177)">
    <g
       transform="matrix(2.0549071,0,0,2.0549071,395.24253,29.198595)"
       id="g22"
       clip-path="url(#cpMC4wMHwzMTYuMDh8MC4zOXwzNjUuMzc=)">
      <rect
         id="rect20"
         style="fill:none;stroke:none;stroke-width:0.75;stroke-linecap:round;stroke-linejoin:round;stroke-miterlimit:10"
         height="364.98001"
         width="316.07999"
         y="0.38999999"
         x="0" />
    </g>
    <rect
       x="395.24252"
       y="30.00001"
       width="649.51501"
       height="750"
       style="fill:none;stroke:none;stroke-width:1.54118037;stroke-linecap:round;stroke-linejoin:round;stroke-miterlimit:10"
       id="rect26" />
    <polygon
       transform="matrix(2.0549071,0,0,2.0549071,395.24253,29.198595)"
       points="2e-14,91.64 158.04,0.39 316.08,91.64 316.08,274.12 158.04,365.37 0,274.12 "
       style="fill:#1874cd;stroke:#1874cd;stroke-width:1.07000005;stroke-linecap:round;stroke-linejoin:round;stroke-miterlimit:10"
       id="polygon28" />
    <g
       id="g4586">
      <polygon
         id="polygon30"
         style="fill:#000000;stroke:#000000;stroke-width:1.07000005;stroke-linecap:round;stroke-linejoin:round;stroke-miterlimit:10"
         points="12.64,98.94 158.04,14.99 303.44,98.94 303.44,266.82 158.04,350.77 12.64,266.82 "
         transform="matrix(2.0549071,0,0,2.0549071,395.24253,29.198595)" />
      <polygon
         id="polygon32"
         style="fill:#ff0000;stroke:#ff0000;stroke-width:1.07000005;stroke-linecap:round;stroke-linejoin:round;stroke-miterlimit:10"
         points="76.47,110.09 77.13,108.63 77.83,107.19 78.54,105.75 79.29,104.34 80.06,102.93 80.85,101.54 81.67,100.16 82.51,98.8 83.37,97.45 84.26,96.12 85.17,94.8 86.1,93.5 87.06,92.22 88.04,90.95 89.04,89.7 90.07,88.47 91.11,87.26 92.18,86.06 93.26,84.89 94.37,83.73 95.5,82.59 96.65,81.47 97.81,80.38 99,79.3 100.2,78.24 101.43,77.21 102.67,76.2 103.92,75.21 105.2,74.24 106.49,73.29 107.8,72.37 109.12,71.47 110.47,70.59 111.82,69.74 113.19,68.91 114.58,68.11 115.97,67.33 117.39,66.57 118.81,65.84 120.25,65.13 121.7,64.45 123.16,63.8 124.63,63.17 126.12,62.57 127.61,61.99 129.11,61.44 130.63,60.92 132.15,60.42 133.68,59.95 135.22,59.5 136.76,59.09 138.32,58.7 139.88,58.34 141.44,58 143.01,57.69 144.59,57.41 146.17,57.16 147.76,56.94 149.35,56.74 150.94,56.57 152.54,56.43 154.13,56.32 155.73,56.24 157.33,56.18 158.93,56.15 160.54,56.15 162.14,56.18 163.74,56.24 165.34,56.32 166.93,56.43 168.53,56.57 170.12,56.74 171.71,56.94 173.3,57.16 174.88,57.41 176.45,57.69 178.03,58 179.59,58.34 181.15,58.7 182.71,59.09 184.25,59.5 185.79,59.95 187.32,60.42 188.84,60.92 190.36,61.44 191.86,61.99 193.35,62.57 194.84,63.17 196.31,63.8 197.77,64.45 199.22,65.13 200.66,65.84 202.08,66.57 203.5,67.33 204.89,68.11 206.28,68.91 207.65,69.74 209,70.59 210.34,71.47 211.67,72.37 212.98,73.29 214.27,74.24 215.54,75.21 216.8,76.2 218.04,77.21 219.27,78.24 220.47,79.3 221.66,80.38 222.82,81.47 223.97,82.59 225.1,83.73 226.2,84.89 227.29,86.06 228.36,87.26 229.4,88.47 230.43,89.7 231.43,90.95 232.41,92.22 233.36,93.5 234.3,94.8 235.21,96.12 236.1,97.45 236.96,98.8 237.8,100.16 238.62,101.54 239.41,102.93 240.18,104.34 240.92,105.75 241.64,107.19 242.34,108.63 243,110.09 243.65,111.55 244.26,113.03 244.85,114.52 245.42,116.02 245.95,117.53 246.46,119.04 246.95,120.57 247.4,122.11 247.84,123.65 248.24,125.2 248.61,126.75 248.96,128.32 249.28,129.89 249.58,131.46 249.84,133.04 250.08,134.62 250.29,136.21 250.47,137.8 250.63,139.4 250.75,140.99 250.85,142.59 250.92,144.19 250.96,145.79 250.98,147.39 159.73,147.39 250.98,147.39 250.98,208.22 98.9,208.22 98.9,208.76 98.89,209.3 98.86,209.83 98.83,210.37 98.79,210.9 98.73,211.44 98.67,211.97 98.6,212.5 98.52,213.03 98.43,213.56 98.33,214.09 98.23,214.62 98.11,215.14 97.98,215.66 97.85,216.18 97.7,216.7 97.55,217.21 97.38,217.72 97.21,218.23 97.03,218.74 96.84,219.24 96.64,219.74 96.43,220.23 96.22,220.72 95.99,221.21 95.76,221.69 95.52,222.17 95.27,222.65 95.01,223.12 94.74,223.58 94.46,224.05 94.18,224.5 93.89,224.95 93.59,225.4 93.28,225.84 92.97,226.27 92.65,226.7 92.32,227.13 91.98,227.54 91.64,227.95 91.28,228.36 90.92,228.76 90.56,229.15 90.19,229.54 89.81,229.92 89.42,230.29 89.03,230.66 88.63,231.02 88.22,231.37 87.81,231.71 87.39,232.05 86.97,232.38 86.54,232.7 86.11,233.02 85.67,233.32 85.22,233.62 84.77,233.91 84.31,234.2 83.85,234.47 83.39,234.74 82.92,235 82.44,235.25 81.96,235.49 81.48,235.72 80.99,235.95 80.5,236.17 80.01,236.37 79.51,236.57 79,236.76 78.5,236.94 77.99,237.12 77.48,237.28 76.97,237.43 76.45,237.58 75.93,237.71 75.41,237.84 74.88,237.96 74.36,238.07 73.83,238.16 73.3,238.25 72.77,238.33 72.24,238.41 71.7,238.47 71.17,238.52 70.64,238.56 70.1,238.59 69.56,238.62 69.03,238.63 68.49,238.64 68.49,208.22 159.73,208.22 159.73,208.76 159.72,209.29 159.69,209.82 159.66,210.36 159.62,210.89 159.57,211.42 159.51,211.95 159.44,212.48 159.36,213.01 159.27,213.53 159.17,214.06 159.06,214.58 158.95,215.1 158.82,215.62 158.69,216.14 158.54,216.65 158.39,217.16 158.23,217.67 158.06,218.18 157.88,218.68 157.69,219.18 157.5,219.68 157.29,220.17 157.08,220.66 156.85,221.14 156.62,221.62 156.38,222.1 156.14,222.57 155.88,223.04 155.62,223.51 155.34,223.97 155.06,224.42 154.77,224.87 154.48,225.31 154.17,225.75 153.86,226.19 153.54,226.61 153.22,227.04 152.88,227.45 152.54,227.86 152.19,228.27 151.84,228.67 151.48,229.06 151.11,229.44 150.73,229.82 150.35,230.2 149.96,230.56 149.57,230.92 149.16,231.27 148.76,231.62 148.34,231.95 147.92,232.28 147.5,232.61 147.07,232.92 146.63,233.23 146.19,233.53 145.74,233.82 145.29,234.11 144.83,234.38 144.37,234.65 143.91,234.91 143.44,235.16 142.96,235.41 142.48,235.64 142,235.87 141.51,236.09 141.02,236.3 140.53,236.5 140.03,236.69 139.53,236.87 139.02,237.05 138.51,237.21 138,237.37 137.49,237.52 136.98,237.66 136.46,237.79 135.94,237.91 135.42,238.02 134.89,238.12 134.37,238.22 133.84,238.3 133.31,238.37 132.78,238.44 132.25,238.5 131.72,238.54 131.19,238.58 130.65,238.61 130.12,238.63 129.59,238.64 129.05,238.64 128.52,238.63 127.99,238.61 127.45,238.58 126.92,238.54 126.39,238.5 125.86,238.44 125.33,238.37 124.8,238.3 124.27,238.22 123.75,238.12 123.22,238.02 122.7,237.91 122.18,237.79 121.66,237.66 121.15,237.52 120.63,237.37 120.12,237.21 119.62,237.05 119.11,236.87 118.61,236.69 118.11,236.5 117.62,236.3 117.13,236.09 116.64,235.87 116.16,235.64 115.68,235.41 115.2,235.16 114.73,234.91 114.27,234.65 113.81,234.38 113.35,234.11 112.9,233.82 112.45,233.53 112.01,233.23 111.57,232.92 111.14,232.61 110.72,232.28 110.3,231.95 109.88,231.62 109.48,231.27 109.07,230.92 108.68,230.56 108.29,230.2 107.91,229.82 107.53,229.44 107.16,229.06 106.8,228.67 106.45,228.27 106.1,227.86 105.76,227.45 105.42,227.04 105.1,226.61 104.78,226.19 104.46,225.75 104.16,225.31 103.87,224.87 103.58,224.42 103.3,223.97 103.02,223.51 102.76,223.04 102.5,222.57 102.26,222.1 102.02,221.62 101.79,221.14 101.56,220.66 101.35,220.17 101.14,219.68 100.95,219.18 100.76,218.68 100.58,218.18 100.41,217.67 100.25,217.16 100.1,216.65 99.95,216.14 99.82,215.62 99.69,215.1 99.58,214.58 99.47,214.06 99.37,213.53 99.28,213.01 99.2,212.48 99.13,211.95 99.07,211.42 99.02,210.89 98.98,210.36 98.95,209.82 98.92,209.29 98.91,208.76 98.9,208.22 129.32,208.22 220.56,208.22 220.56,208.76 220.55,209.29 220.52,209.82 220.49,210.36 220.45,210.89 220.4,211.42 220.33,211.95 220.26,212.48 220.19,213.01 220.1,213.53 220,214.06 219.89,214.58 219.78,215.1 219.65,215.62 219.52,216.14 219.37,216.65 219.22,217.16 219.06,217.67 218.89,218.18 218.71,218.68 218.52,219.18 218.32,219.68 218.12,220.17 217.91,220.66 217.68,221.14 217.45,221.62 217.21,222.1 216.96,222.57 216.71,223.04 216.44,223.51 216.17,223.97 215.89,224.42 215.6,224.87 215.31,225.31 215,225.75 214.69,226.19 214.37,226.61 214.05,227.04 213.71,227.45 213.37,227.86 213.02,228.27 212.67,228.67 212.31,229.06 211.94,229.44 211.56,229.82 211.18,230.2 210.79,230.56 210.39,230.92 209.99,231.27 209.59,231.62 209.17,231.95 208.75,232.28 208.33,232.61 207.9,232.92 207.46,233.23 207.02,233.53 206.57,233.82 206.12,234.11 205.66,234.38 205.2,234.65 204.74,234.91 204.27,235.16 203.79,235.41 203.31,235.64 202.83,235.87 202.34,236.09 201.85,236.3 201.36,236.5 200.86,236.69 200.36,236.87 199.85,237.05 199.34,237.21 198.83,237.37 198.32,237.52 197.81,237.66 197.29,237.79 196.77,237.91 196.25,238.02 195.72,238.12 195.2,238.22 194.67,238.3 194.14,238.37 193.61,238.44 193.08,238.5 192.55,238.54 192.02,238.58 191.48,238.61 190.95,238.63 190.42,238.64 189.88,238.64 189.35,238.63 188.82,238.61 188.28,238.58 187.75,238.54 187.22,238.5 186.69,238.44 186.16,238.37 185.63,238.3 185.1,238.22 184.58,238.12 184.05,238.02 183.53,237.91 183.01,237.79 182.49,237.66 181.98,237.52 181.46,237.37 180.95,237.21 180.45,237.05 179.94,236.87 179.44,236.69 178.94,236.5 178.45,236.3 177.96,236.09 177.47,235.87 176.99,235.64 176.51,235.41 176.03,235.16 175.56,234.91 175.1,234.65 174.63,234.38 174.18,234.11 173.73,233.82 173.28,233.53 172.84,233.23 172.4,232.92 171.97,232.61 171.55,232.28 171.13,231.95 170.71,231.62 170.31,231.27 169.9,230.92 169.51,230.56 169.12,230.2 168.74,229.82 168.36,229.44 167.99,229.06 167.63,228.67 167.27,228.27 166.93,227.86 166.59,227.45 166.25,227.04 165.93,226.61 165.61,226.19 165.29,225.75 164.99,225.31 164.69,224.87 164.41,224.42 164.13,223.97 163.85,223.51 163.59,223.04 163.33,222.57 163.09,222.1 162.85,221.62 162.62,221.14 162.39,220.66 162.18,220.17 161.97,219.68 161.78,219.18 161.59,218.68 161.41,218.18 161.24,217.67 161.08,217.16 160.93,216.65 160.78,216.14 160.65,215.62 160.52,215.1 160.41,214.58 160.3,214.06 160.2,213.53 160.11,213.01 160.03,212.48 159.96,211.95 159.9,211.42 159.85,210.89 159.81,210.36 159.78,209.82 159.75,209.29 159.74,208.76 159.73,208.22 190.15,208.22 220.56,208.22 220.57,208.76 220.58,209.3 220.61,209.83 220.64,210.37 220.68,210.9 220.73,211.44 220.8,211.97 220.87,212.5 220.95,213.03 221.04,213.56 221.14,214.09 221.24,214.62 221.36,215.14 221.49,215.66 221.62,216.18 221.77,216.7 221.92,217.21 222.09,217.72 222.26,218.23 222.44,218.74 222.63,219.24 222.83,219.74 223.04,220.23 223.25,220.72 223.48,221.21 223.71,221.69 223.95,222.17 224.2,222.65 224.46,223.12 224.73,223.58 225,224.05 225.29,224.5 225.58,224.95 225.88,225.4 226.18,225.84 226.5,226.27 226.82,226.7 227.15,227.13 227.49,227.54 227.83,227.95 228.19,228.36 228.54,228.76 228.91,229.15 229.28,229.54 229.66,229.92 230.05,230.29 230.44,230.66 230.84,231.02 231.25,231.37 231.66,231.71 232.08,232.05 232.5,232.38 232.93,232.7 233.36,233.02 233.8,233.32 234.25,233.62 234.7,233.91 235.16,234.2 235.62,234.47 236.08,234.74 236.55,235 237.03,235.25 237.51,235.49 237.99,235.72 238.48,235.95 238.97,236.17 239.46,236.37 239.96,236.57 240.46,236.76 240.97,236.94 241.48,237.12 241.99,237.28 242.5,237.43 243.02,237.58 243.54,237.71 244.06,237.84 244.59,237.96 245.11,238.07 245.64,238.16 246.17,238.25 246.7,238.33 247.23,238.41 247.76,238.47 248.3,238.52 248.83,238.56 249.37,238.59 249.91,238.62 250.44,238.63 250.98,238.64 250.98,208.22 68.49,208.22 68.49,147.39 68.5,145.79 68.55,144.19 68.62,142.59 68.71,140.99 68.84,139.4 69,137.8 69.18,136.21 69.39,134.62 69.63,133.04 69.89,131.46 70.19,129.89 70.51,128.32 70.85,126.75 71.23,125.2 71.63,123.65 72.06,122.11 72.52,120.57 73.01,119.04 73.52,117.53 74.05,116.02 74.62,114.52 75.21,113.03 75.82,111.55 "
         transform="matrix(2.0549071,0,0,2.0549071,395.24253,29.198595)" />
      <polygon
         id="polygon34"
         style="fill:#ffffff;stroke:#ffffff;stroke-width:1.07000005;stroke-linecap:round;stroke-linejoin:round;stroke-miterlimit:10"
         points="205.51,103.74 205.87,103.91 206.23,104.08 206.59,104.26 206.94,104.44 207.29,104.63 207.64,104.83 207.98,105.03 208.32,105.24 208.66,105.45 208.99,105.67 209.32,105.9 209.64,106.13 209.96,106.36 210.28,106.61 210.59,106.85 210.89,107.11 211.2,107.37 211.5,107.63 211.79,107.9 212.08,108.17 212.36,108.45 212.64,108.74 212.92,109.02 213.18,109.32 213.45,109.62 213.71,109.92 213.96,110.23 214.21,110.54 214.45,110.85 214.69,111.17 214.92,111.5 215.14,111.83 215.36,112.16 215.58,112.49 215.79,112.83 215.99,113.18 216.18,113.52 216.37,113.87 216.56,114.23 216.73,114.58 216.91,114.94 217.07,115.3 217.23,115.67 217.38,116.04 217.53,116.41 217.67,116.78 217.8,117.16 217.93,117.53 218.05,117.91 218.16,118.29 218.27,118.68 218.37,119.06 218.46,119.45 218.54,119.84 218.62,120.23 218.7,120.62 218.76,121.01 218.82,121.41 218.87,121.8 218.92,122.2 218.96,122.59 218.99,122.99 219.01,123.39 219.03,123.79 219.04,124.18 219.04,124.58 219.04,124.98 219.03,125.38 219.01,125.78 218.99,126.17 218.96,126.57 218.92,126.97 218.87,127.36 218.82,127.76 218.76,128.15 218.7,128.54 218.62,128.93 218.54,129.32 218.46,129.71 218.37,130.1 218.27,130.49 218.16,130.87 218.05,131.25 217.93,131.63 217.8,132.01 217.67,132.38 217.53,132.76 217.38,133.13 217.23,133.49 217.07,133.86 216.91,134.22 216.73,134.58 216.56,134.94 216.37,135.29 216.18,135.64 215.99,135.99 215.79,136.33 215.58,136.67 215.36,137.01 215.14,137.34 214.92,137.67 214.69,137.99 214.45,138.31 214.21,138.63 213.96,138.94 213.71,139.24 213.45,139.55 213.18,139.85 212.92,140.14 212.64,140.43 212.36,140.71 212.08,140.99 211.79,141.26 211.5,141.53 211.2,141.8 210.89,142.06 210.59,142.31 210.28,142.56 209.96,142.8 209.64,143.04 209.32,143.27 208.99,143.49 208.66,143.71 208.32,143.93 207.98,144.13 207.64,144.34 207.29,144.53 206.94,144.72 206.59,144.91 206.23,145.08 205.87,145.26 205.51,145.42 205.15,145.58 204.78,145.73 204.41,145.88 204.03,146.02 203.66,146.15 203.28,146.28 202.9,146.4 202.52,146.51 202.14,146.62 201.75,146.72 201.36,146.81 200.97,146.89 200.58,146.97 200.19,147.05 199.8,147.11 199.41,147.17 199.01,147.22 198.62,147.27 198.22,147.31 197.82,147.34 197.43,147.36 197.03,147.38 196.63,147.39 196.23,147.39 195.83,147.39 195.44,147.38 195.04,147.36 194.64,147.34 194.24,147.31 193.85,147.27 193.45,147.22 193.06,147.17 192.66,147.11 192.27,147.05 191.88,146.97 191.49,146.89 191.1,146.81 190.71,146.72 190.33,146.62 189.94,146.51 189.56,146.4 189.18,146.28 188.81,146.15 188.43,146.02 188.06,145.88 187.69,145.73 187.32,145.58 186.95,145.42 186.59,145.26 186.23,145.08 185.88,144.91 185.52,144.72 185.17,144.53 184.83,144.34 184.48,144.13 184.14,143.93 183.81,143.71 183.48,143.49 183.15,143.27 182.82,143.04 182.5,142.8 182.19,142.56 181.88,142.31 181.57,142.06 181.27,141.8 180.97,141.53 180.68,141.26 180.39,140.99 180.1,140.71 179.82,140.43 179.55,140.14 179.28,139.85 179.02,139.55 178.76,139.24 178.5,138.94 178.26,138.63 178.01,138.31 177.78,137.99 177.55,137.67 177.32,137.34 177.1,137.01 176.89,136.67 176.68,136.33 176.48,135.99 176.28,135.64 176.09,135.29 175.91,134.94 175.73,134.58 175.56,134.22 175.39,133.86 175.23,133.49 175.08,133.13 174.94,132.76 174.8,132.38 174.66,132.01 174.54,131.63 174.42,131.25 174.3,130.87 174.2,130.49 174.1,130.1 174.01,129.71 173.92,129.32 173.84,128.93 173.77,128.54 173.7,128.15 173.64,127.76 173.59,127.36 173.55,126.97 173.51,126.57 173.48,126.17 173.45,125.78 173.43,125.38 173.42,124.98 173.42,124.58 173.42,124.18 173.43,123.79 173.45,123.39 173.48,122.99 173.51,122.59 173.55,122.2 173.59,121.8 173.64,121.41 173.7,121.01 173.77,120.62 173.84,120.23 173.92,119.84 174.01,119.45 174.1,119.06 174.2,118.68 174.3,118.29 174.42,117.91 174.54,117.53 174.66,117.16 174.8,116.78 174.94,116.41 175.08,116.04 175.23,115.67 175.39,115.3 175.56,114.94 175.73,114.58 175.91,114.23 176.09,113.87 176.28,113.52 176.48,113.18 176.68,112.83 176.89,112.49 177.1,112.16 177.32,111.83 177.55,111.5 177.78,111.17 178.01,110.85 178.26,110.54 178.5,110.23 178.76,109.92 179.02,109.62 179.28,109.32 179.55,109.02 179.82,108.74 180.1,108.45 180.39,108.17 180.68,107.9 180.97,107.63 181.27,107.37 181.57,107.11 181.88,106.85 182.19,106.61 182.5,106.36 182.82,106.13 183.15,105.9 183.48,105.67 183.81,105.45 184.14,105.24 184.48,105.03 184.83,104.83 185.17,104.63 185.52,104.44 185.88,104.26 186.23,104.08 186.59,103.91 186.95,103.74 187.32,103.58 187.69,103.43 188.06,103.29 188.43,103.15 188.81,103.01 189.18,102.89 189.56,102.77 189.94,102.65 190.33,102.55 190.71,102.45 191.1,102.36 191.49,102.27 191.88,102.19 192.27,102.12 192.66,102.05 193.06,101.99 193.45,101.94 193.85,101.9 194.24,101.86 194.64,101.83 195.04,101.8 195.44,101.78 195.83,101.77 196.23,101.77 196.63,101.77 197.03,101.78 197.43,101.8 197.82,101.83 198.22,101.86 198.62,101.9 199.01,101.94 199.41,101.99 199.8,102.05 200.19,102.12 200.58,102.19 200.97,102.27 201.36,102.36 201.75,102.45 202.14,102.55 202.52,102.65 202.9,102.77 203.28,102.89 203.66,103.01 204.03,103.15 204.41,103.29 204.78,103.43 205.15,103.58 "
         transform="matrix(2.0549071,0,0,2.0549071,395.24253,29.198595)" />
      <polygon
         id="polygon36"
         style="fill:#ffffff;stroke:#ffffff;stroke-width:1.07000005;stroke-linecap:round;stroke-linejoin:round;stroke-miterlimit:10"
         points="132.51,103.74 132.88,103.91 133.24,104.08 133.59,104.26 133.95,104.44 134.3,104.63 134.64,104.83 134.99,105.03 135.32,105.24 135.66,105.45 135.99,105.67 136.32,105.9 136.64,106.13 136.96,106.36 137.28,106.61 137.59,106.85 137.9,107.11 138.2,107.37 138.5,107.63 138.79,107.9 139.08,108.17 139.37,108.45 139.65,108.74 139.92,109.02 140.19,109.32 140.45,109.62 140.71,109.92 140.96,110.23 141.21,110.54 141.45,110.85 141.69,111.17 141.92,111.5 142.15,111.83 142.37,112.16 142.58,112.49 142.79,112.83 142.99,113.18 143.19,113.52 143.38,113.87 143.56,114.23 143.74,114.58 143.91,114.94 144.08,115.3 144.23,115.67 144.39,116.04 144.53,116.41 144.67,116.78 144.8,117.16 144.93,117.53 145.05,117.91 145.16,118.29 145.27,118.68 145.37,119.06 145.46,119.45 145.55,119.84 145.63,120.23 145.7,120.62 145.77,121.01 145.83,121.41 145.88,121.8 145.92,122.2 145.96,122.59 145.99,122.99 146.02,123.39 146.03,123.79 146.04,124.18 146.05,124.58 146.04,124.98 146.03,125.38 146.02,125.78 145.99,126.17 145.96,126.57 145.92,126.97 145.88,127.36 145.83,127.76 145.77,128.15 145.7,128.54 145.63,128.93 145.55,129.32 145.46,129.71 145.37,130.1 145.27,130.49 145.16,130.87 145.05,131.25 144.93,131.63 144.8,132.01 144.67,132.38 144.53,132.76 144.39,133.13 144.23,133.49 144.08,133.86 143.91,134.22 143.74,134.58 143.56,134.94 143.38,135.29 143.19,135.64 142.99,135.99 142.79,136.33 142.58,136.67 142.37,137.01 142.15,137.34 141.92,137.67 141.69,137.99 141.45,138.31 141.21,138.63 140.96,138.94 140.71,139.24 140.45,139.55 140.19,139.85 139.92,140.14 139.65,140.43 139.37,140.71 139.08,140.99 138.79,141.26 138.5,141.53 138.2,141.8 137.9,142.06 137.59,142.31 137.28,142.56 136.96,142.8 136.64,143.04 136.32,143.27 135.99,143.49 135.66,143.71 135.32,143.93 134.99,144.13 134.64,144.34 134.3,144.53 133.95,144.72 133.59,144.91 133.24,145.08 132.88,145.26 132.51,145.42 132.15,145.58 131.78,145.73 131.41,145.88 131.04,146.02 130.66,146.15 130.29,146.28 129.91,146.4 129.52,146.51 129.14,146.62 128.76,146.72 128.37,146.81 127.98,146.89 127.59,146.97 127.2,147.05 126.81,147.11 126.41,147.17 126.02,147.22 125.62,147.27 125.22,147.31 124.83,147.34 124.43,147.36 124.03,147.38 123.63,147.39 123.24,147.39 122.84,147.39 122.44,147.38 122.04,147.36 121.65,147.34 121.25,147.31 120.85,147.27 120.46,147.22 120.06,147.17 119.67,147.11 119.28,147.05 118.88,146.97 118.49,146.89 118.11,146.81 117.72,146.72 117.33,146.62 116.95,146.51 116.57,146.4 116.19,146.28 115.81,146.15 115.43,146.02 115.06,145.88 114.69,145.73 114.32,145.58 113.96,145.42 113.6,145.26 113.24,145.08 112.88,144.91 112.53,144.72 112.18,144.53 111.83,144.34 111.49,144.13 111.15,143.93 110.81,143.71 110.48,143.49 110.15,143.27 109.83,143.04 109.51,142.8 109.19,142.56 108.88,142.31 108.57,142.06 108.27,141.8 107.97,141.53 107.68,141.26 107.39,140.99 107.11,140.71 106.83,140.43 106.55,140.14 106.28,139.85 106.02,139.55 105.76,139.24 105.51,138.94 105.26,138.63 105.02,138.31 104.78,137.99 104.55,137.67 104.33,137.34 104.11,137.01 103.89,136.67 103.68,136.33 103.48,135.99 103.29,135.64 103.1,135.29 102.91,134.94 102.73,134.58 102.56,134.22 102.4,133.86 102.24,133.49 102.09,133.13 101.94,132.76 101.8,132.38 101.67,132.01 101.54,131.63 101.42,131.25 101.31,130.87 101.2,130.49 101.1,130.1 101.01,129.71 100.92,129.32 100.84,128.93 100.77,128.54 100.71,128.15 100.65,127.76 100.6,127.36 100.55,126.97 100.51,126.57 100.48,126.17 100.46,125.78 100.44,125.38 100.43,124.98 100.43,124.58 100.43,124.18 100.44,123.79 100.46,123.39 100.48,122.99 100.51,122.59 100.55,122.2 100.6,121.8 100.65,121.41 100.71,121.01 100.77,120.62 100.84,120.23 100.92,119.84 101.01,119.45 101.1,119.06 101.2,118.68 101.31,118.29 101.42,117.91 101.54,117.53 101.67,117.16 101.8,116.78 101.94,116.41 102.09,116.04 102.24,115.67 102.4,115.3 102.56,114.94 102.73,114.58 102.91,114.23 103.1,113.87 103.29,113.52 103.48,113.18 103.68,112.83 103.89,112.49 104.11,112.16 104.33,111.83 104.55,111.5 104.78,111.17 105.02,110.85 105.26,110.54 105.51,110.23 105.76,109.92 106.02,109.62 106.28,109.32 106.55,109.02 106.83,108.74 107.11,108.45 107.39,108.17 107.68,107.9 107.97,107.63 108.27,107.37 108.57,107.11 108.88,106.85 109.19,106.61 109.51,106.36 109.83,106.13 110.15,105.9 110.48,105.67 110.81,105.45 111.15,105.24 111.49,105.03 111.83,104.83 112.18,104.63 112.53,104.44 112.88,104.26 113.24,104.08 113.6,103.91 113.96,103.74 114.32,103.58 114.69,103.43 115.06,103.29 115.43,103.15 115.81,103.01 116.19,102.89 116.57,102.77 116.95,102.65 117.33,102.55 117.72,102.45 118.11,102.36 118.49,102.27 118.88,102.19 119.28,102.12 119.67,102.05 120.06,101.99 120.46,101.94 120.85,101.9 121.25,101.86 121.65,101.83 122.04,101.8 122.44,101.78 122.84,101.77 123.24,101.77 123.63,101.77 124.03,101.78 124.43,101.8 124.83,101.83 125.22,101.86 125.62,101.9 126.02,101.94 126.41,101.99 126.81,102.05 127.2,102.12 127.59,102.19 127.98,102.27 128.37,102.36 128.76,102.45 129.14,102.55 129.52,102.65 129.91,102.77 130.29,102.89 130.66,103.01 131.04,103.15 131.41,103.29 131.78,103.43 132.15,103.58 "
         transform="matrix(2.0549071,0,0,2.0549071,395.24253,29.198595)" />
      <polygon
         id="polygon38"
         style="fill:#000000;stroke:#000000;stroke-width:1.07000005;stroke-linecap:round;stroke-linejoin:round;stroke-miterlimit:10"
         points="136.07,116.25 136.22,116.31 136.36,116.38 136.5,116.45 136.64,116.53 136.78,116.6 136.92,116.68 137.06,116.76 137.2,116.84 137.33,116.93 137.46,117.02 137.59,117.11 137.72,117.2 137.85,117.29 137.98,117.39 138.1,117.49 138.23,117.59 138.35,117.7 138.47,117.8 138.58,117.91 138.7,118.02 138.81,118.13 138.92,118.24 139.03,118.36 139.14,118.48 139.25,118.6 139.35,118.72 139.45,118.84 139.55,118.96 139.65,119.09 139.74,119.22 139.84,119.35 139.93,119.48 140.01,119.61 140.1,119.75 140.18,119.88 140.26,120.02 140.34,120.16 140.42,120.3 140.49,120.44 140.56,120.58 140.63,120.73 140.7,120.87 140.76,121.02 140.82,121.16 140.88,121.31 140.94,121.46 140.99,121.61 141.04,121.76 141.09,121.91 141.13,122.07 141.17,122.22 141.21,122.37 141.25,122.53 141.29,122.68 141.32,122.84 141.35,123 141.37,123.15 141.4,123.31 141.42,123.47 141.44,123.63 141.45,123.79 141.46,123.95 141.47,124.1 141.48,124.26 141.48,124.42 141.49,124.58 141.48,124.74 141.48,124.9 141.47,125.06 141.46,125.22 141.45,125.38 141.44,125.54 141.42,125.69 141.4,125.85 141.37,126.01 141.35,126.17 141.32,126.32 141.29,126.48 141.25,126.63 141.21,126.79 141.17,126.94 141.13,127.1 141.09,127.25 141.04,127.4 140.99,127.55 140.94,127.7 140.88,127.85 140.82,128 140.76,128.15 140.7,128.29 140.63,128.44 140.56,128.58 140.49,128.72 140.42,128.87 140.34,129.01 140.26,129.14 140.18,129.28 140.1,129.42 140.01,129.55 139.93,129.68 139.84,129.82 139.74,129.94 139.65,130.07 139.55,130.2 139.45,130.32 139.35,130.45 139.25,130.57 139.14,130.69 139.03,130.8 138.92,130.92 138.81,131.03 138.7,131.15 138.58,131.25 138.47,131.36 138.35,131.47 138.23,131.57 138.1,131.67 137.98,131.77 137.85,131.87 137.72,131.96 137.59,132.06 137.46,132.15 137.33,132.23 137.2,132.32 137.06,132.4 136.92,132.48 136.78,132.56 136.64,132.64 136.5,132.71 136.36,132.78 136.22,132.85 136.07,132.92 135.93,132.98 135.78,133.04 135.63,133.1 135.48,133.16 135.33,133.21 135.18,133.26 135.03,133.31 134.88,133.35 134.72,133.4 134.57,133.44 134.41,133.47 134.26,133.51 134.1,133.54 133.95,133.57 133.79,133.59 133.63,133.62 133.47,133.64 133.31,133.66 133.16,133.67 133,133.68 132.84,133.69 132.68,133.7 132.52,133.7 132.36,133.71 132.2,133.7 132.04,133.7 131.88,133.69 131.72,133.68 131.57,133.67 131.41,133.66 131.25,133.64 131.09,133.62 130.93,133.59 130.78,133.57 130.62,133.54 130.46,133.51 130.31,133.47 130.15,133.44 130,133.4 129.85,133.35 129.69,133.31 129.54,133.26 129.39,133.21 129.24,133.16 129.09,133.1 128.94,133.04 128.8,132.98 128.65,132.92 128.5,132.85 128.36,132.78 128.22,132.71 128.08,132.64 127.94,132.56 127.8,132.48 127.66,132.4 127.53,132.32 127.39,132.23 127.26,132.15 127.13,132.06 127,131.96 126.87,131.87 126.74,131.77 126.62,131.67 126.5,131.57 126.37,131.47 126.26,131.36 126.14,131.25 126.02,131.15 125.91,131.03 125.8,130.92 125.69,130.8 125.58,130.69 125.47,130.57 125.37,130.45 125.27,130.32 125.17,130.2 125.07,130.07 124.98,129.94 124.89,129.82 124.8,129.68 124.71,129.55 124.62,129.42 124.54,129.28 124.46,129.14 124.38,129.01 124.3,128.87 124.23,128.72 124.16,128.58 124.09,128.44 124.03,128.29 123.96,128.15 123.9,128 123.84,127.85 123.79,127.7 123.73,127.55 123.68,127.4 123.64,127.25 123.59,127.1 123.55,126.94 123.51,126.79 123.47,126.63 123.44,126.48 123.4,126.32 123.38,126.17 123.35,126.01 123.33,125.85 123.3,125.69 123.29,125.54 123.27,125.38 123.26,125.22 123.25,125.06 123.24,124.9 123.24,124.74 123.24,124.58 123.24,124.42 123.24,124.26 123.25,124.1 123.26,123.95 123.27,123.79 123.29,123.63 123.3,123.47 123.33,123.31 123.35,123.15 123.38,123 123.4,122.84 123.44,122.68 123.47,122.53 123.51,122.37 123.55,122.22 123.59,122.07 123.64,121.91 123.68,121.76 123.73,121.61 123.79,121.46 123.84,121.31 123.9,121.16 123.96,121.02 124.03,120.87 124.09,120.73 124.16,120.58 124.23,120.44 124.3,120.3 124.38,120.16 124.46,120.02 124.54,119.88 124.62,119.75 124.71,119.61 124.8,119.48 124.89,119.35 124.98,119.22 125.07,119.09 125.17,118.96 125.27,118.84 125.37,118.72 125.47,118.6 125.58,118.48 125.69,118.36 125.8,118.24 125.91,118.13 126.02,118.02 126.14,117.91 126.26,117.8 126.37,117.7 126.5,117.59 126.62,117.49 126.74,117.39 126.87,117.29 127,117.2 127.13,117.11 127.26,117.02 127.39,116.93 127.53,116.84 127.66,116.76 127.8,116.68 127.94,116.6 128.08,116.53 128.22,116.45 128.36,116.38 128.5,116.31 128.65,116.25 128.8,116.18 128.94,116.12 129.09,116.06 129.24,116.01 129.39,115.95 129.54,115.9 129.69,115.86 129.85,115.81 130,115.77 130.15,115.73 130.31,115.69 130.46,115.66 130.62,115.62 130.78,115.6 130.93,115.57 131.09,115.55 131.25,115.53 131.41,115.51 131.57,115.49 131.72,115.48 131.88,115.47 132.04,115.46 132.2,115.46 132.36,115.46 132.52,115.46 132.68,115.46 132.84,115.47 133,115.48 133.16,115.49 133.31,115.51 133.47,115.53 133.63,115.55 133.79,115.57 133.95,115.6 134.1,115.62 134.26,115.66 134.41,115.69 134.57,115.73 134.72,115.77 134.88,115.81 135.03,115.86 135.18,115.9 135.33,115.95 135.48,116.01 135.63,116.06 135.78,116.12 135.93,116.18 "
         transform="matrix(2.0549071,0,0,2.0549071,395.24253,29.198595)" />
      <polygon
         id="polygon40"
         style="fill:#000000;stroke:#000000;stroke-width:1.07000005;stroke-linecap:round;stroke-linejoin:round;stroke-miterlimit:10"
         points="209.07,116.25 209.21,116.31 209.36,116.38 209.5,116.45 209.64,116.53 209.78,116.6 209.92,116.68 210.06,116.76 210.19,116.84 210.33,116.93 210.46,117.02 210.59,117.11 210.72,117.2 210.85,117.29 210.97,117.39 211.1,117.49 211.22,117.59 211.34,117.7 211.46,117.8 211.58,117.91 211.7,118.02 211.81,118.13 211.92,118.24 212.03,118.36 212.14,118.48 212.24,118.6 212.35,118.72 212.45,118.84 212.55,118.96 212.64,119.09 212.74,119.22 212.83,119.35 212.92,119.48 213.01,119.61 213.09,119.75 213.18,119.88 213.26,120.02 213.34,120.16 213.41,120.3 213.49,120.44 213.56,120.58 213.63,120.73 213.69,120.87 213.76,121.02 213.82,121.16 213.88,121.31 213.93,121.46 213.98,121.61 214.03,121.76 214.08,121.91 214.13,122.07 214.17,122.22 214.21,122.37 214.25,122.53 214.28,122.68 214.31,122.84 214.34,123 214.37,123.15 214.39,123.31 214.41,123.47 214.43,123.63 214.45,123.79 214.46,123.95 214.47,124.1 214.48,124.26 214.48,124.42 214.48,124.58 214.48,124.74 214.48,124.9 214.47,125.06 214.46,125.22 214.45,125.38 214.43,125.54 214.41,125.69 214.39,125.85 214.37,126.01 214.34,126.17 214.31,126.32 214.28,126.48 214.25,126.63 214.21,126.79 214.17,126.94 214.13,127.1 214.08,127.25 214.03,127.4 213.98,127.55 213.93,127.7 213.88,127.85 213.82,128 213.76,128.15 213.69,128.29 213.63,128.44 213.56,128.58 213.49,128.72 213.41,128.87 213.34,129.01 213.26,129.14 213.18,129.28 213.09,129.42 213.01,129.55 212.92,129.68 212.83,129.82 212.74,129.94 212.64,130.07 212.55,130.2 212.45,130.32 212.35,130.45 212.24,130.57 212.14,130.69 212.03,130.8 211.92,130.92 211.81,131.03 211.7,131.15 211.58,131.25 211.46,131.36 211.34,131.47 211.22,131.57 211.1,131.67 210.97,131.77 210.85,131.87 210.72,131.96 210.59,132.06 210.46,132.15 210.33,132.23 210.19,132.32 210.06,132.4 209.92,132.48 209.78,132.56 209.64,132.64 209.5,132.71 209.36,132.78 209.21,132.85 209.07,132.92 208.92,132.98 208.77,133.04 208.63,133.1 208.48,133.16 208.33,133.21 208.18,133.26 208.02,133.31 207.87,133.35 207.72,133.4 207.56,133.44 207.41,133.47 207.25,133.51 207.1,133.54 206.94,133.57 206.78,133.59 206.63,133.62 206.47,133.64 206.31,133.66 206.15,133.67 205.99,133.68 205.83,133.69 205.68,133.7 205.52,133.7 205.36,133.71 205.2,133.7 205.04,133.7 204.88,133.69 204.72,133.68 204.56,133.67 204.4,133.66 204.24,133.64 204.09,133.62 203.93,133.59 203.77,133.57 203.62,133.54 203.46,133.51 203.3,133.47 203.15,133.44 203,133.4 202.84,133.35 202.69,133.31 202.54,133.26 202.39,133.21 202.24,133.16 202.09,133.1 201.94,133.04 201.79,132.98 201.65,132.92 201.5,132.85 201.36,132.78 201.21,132.71 201.07,132.64 200.93,132.56 200.79,132.48 200.66,132.4 200.52,132.32 200.39,132.23 200.25,132.15 200.12,132.06 199.99,131.96 199.87,131.87 199.74,131.77 199.61,131.67 199.49,131.57 199.37,131.47 199.25,131.36 199.13,131.25 199.02,131.15 198.9,131.03 198.79,130.92 198.68,130.8 198.58,130.69 198.47,130.57 198.37,130.45 198.27,130.32 198.17,130.2 198.07,130.07 197.97,129.94 197.88,129.82 197.79,129.68 197.7,129.55 197.62,129.42 197.54,129.28 197.45,129.14 197.38,129.01 197.3,128.87 197.23,128.72 197.16,128.58 197.09,128.44 197.02,128.29 196.96,128.15 196.9,128 196.84,127.85 196.78,127.7 196.73,127.55 196.68,127.4 196.63,127.25 196.59,127.1 196.54,126.94 196.5,126.79 196.47,126.63 196.43,126.48 196.4,126.32 196.37,126.17 196.34,126.01 196.32,125.85 196.3,125.69 196.28,125.54 196.27,125.38 196.25,125.22 196.24,125.06 196.24,124.9 196.23,124.74 196.23,124.58 196.23,124.42 196.24,124.26 196.24,124.1 196.25,123.95 196.27,123.79 196.28,123.63 196.3,123.47 196.32,123.31 196.34,123.15 196.37,123 196.4,122.84 196.43,122.68 196.47,122.53 196.5,122.37 196.54,122.22 196.59,122.07 196.63,121.91 196.68,121.76 196.73,121.61 196.78,121.46 196.84,121.31 196.9,121.16 196.96,121.02 197.02,120.87 197.09,120.73 197.16,120.58 197.23,120.44 197.3,120.3 197.38,120.16 197.45,120.02 197.54,119.88 197.62,119.75 197.7,119.61 197.79,119.48 197.88,119.35 197.97,119.22 198.07,119.09 198.17,118.96 198.27,118.84 198.37,118.72 198.47,118.6 198.58,118.48 198.68,118.36 198.79,118.24 198.9,118.13 199.02,118.02 199.13,117.91 199.25,117.8 199.37,117.7 199.49,117.59 199.61,117.49 199.74,117.39 199.87,117.29 199.99,117.2 200.12,117.11 200.25,117.02 200.39,116.93 200.52,116.84 200.66,116.76 200.79,116.68 200.93,116.6 201.07,116.53 201.21,116.45 201.36,116.38 201.5,116.31 201.65,116.25 201.79,116.18 201.94,116.12 202.09,116.06 202.24,116.01 202.39,115.95 202.54,115.9 202.69,115.86 202.84,115.81 203,115.77 203.15,115.73 203.3,115.69 203.46,115.66 203.62,115.62 203.77,115.6 203.93,115.57 204.09,115.55 204.24,115.53 204.4,115.51 204.56,115.49 204.72,115.48 204.88,115.47 205.04,115.46 205.2,115.46 205.36,115.46 205.52,115.46 205.68,115.46 205.83,115.47 205.99,115.48 206.15,115.49 206.31,115.51 206.47,115.53 206.63,115.55 206.78,115.57 206.94,115.6 207.1,115.62 207.25,115.66 207.41,115.69 207.56,115.73 207.72,115.77 207.87,115.81 208.02,115.86 208.18,115.9 208.33,115.95 208.48,116.01 208.63,116.06 208.77,116.12 208.92,116.18 "
         transform="matrix(2.0549071,0,0,2.0549071,395.24253,29.198595)" />
      <text
         xml:space="preserve"
         style="font-style:normal;font-weight:normal;font-size:64px;line-height:1.25;font-family:sans-serif;letter-spacing:0px;word-spacing:0px;fill:#ffc125;fill-opacity:1;stroke:#ffc125;stroke-width:3.75000024;stroke-linecap:round;stroke-linejoin:round;stroke-miterlimit:10;stroke-dasharray:none;stroke-opacity:1;paint-order:normal"
         x="574.49243"
         y="578.59937"
         id="text4576"><tspan
           sodipodi:role="line"
           id="tspan4574"
           x="574.49243"
           y="578.59937"
           style="font-style:normal;font-variant:normal;font-weight:normal;font-stretch:normal;font-size:64px;font-family:'Bradley Hand ITC';-inkscape-font-specification:'Bradley Hand ITC';fill:#ffc125;fill-opacity:1;stroke:#ffc125;stroke-width:3.75000024;stroke-linecap:round;stroke-linejoin:round;stroke-miterlimit:10;stroke-dasharray:none;stroke-opacity:1;paint-order:normal">ggpacman</tspan></text>
    </g>
  </g>
</svg>
