<svg viewBox="0 0 351.157480315 209.42519685" width="351.157480315pt" height="209.42519685pt" xmlns="http://www.w3.org/2000/svg" xmlns:xlink="http://www.w3.org/1999/xlink" xmlns:h5="http://www.w3.org/1999/xhtml"><path fill="#161616" fill-rule="nonzero" d="M 0 0v 209.42519685h 351.157480315v -209.42519685Z "/><g transform="translate(5.5 5.5)"><path fill="#161616" fill-rule="nonzero" d="M 0 0v 198.42519685h 340.157480315v -198.42519685Z "/><g transform="translate(5 5)"><g><g transform="matrix(1 0 0 -1 0 7.74)"><use xlink:href="#g3759E51EE41A8E4391E48F80499682E6" x="0" y="0" fill="#f5f5f4" fill-rule="nonzero"/><use xlink:href="#gDC05A2A7E4AEFCF99C6614634AF8B2F0" x="8.808" y="0" fill="#f5f5f4" fill-rule="nonzero"/><use xlink:href="#g3E13159425B4C5FA6BE9D46173183F7B" x="14.88" y="0" fill="#f5f5f4" fill-rule="nonzero"/><use xlink:href="#gE18113BE1243CA6EC5596891CC422939" x="19.176" y="0" fill="#f5f5f4" fill-rule="nonzero"/><use xlink:href="#g93ED4154508DB3ADD21415419B103611" x="25.044" y="0" fill="#f5f5f4" fill-rule="nonzero"/><use xlink:href="#gA421F3DD5F2809E5ED8290B7EF6AAC43" x="33.168" y="0" fill="#f5f5f4" fill-rule="nonzero"/><use xlink:href="#g3E13159425B4C5FA6BE9D46173183F7B" x="39.216" y="0" fill="#f5f5f4" fill-rule="nonzero"/><use xlink:href="#g56D9AC69DF1E60AEC4FA898FA388366B" x="43.512" y="0" fill="#f5f5f4" fill-rule="nonzero"/><use xlink:href="#gDC05A2A7E4AEFCF99C6614634AF8B2F0" x="48.648" y="0" fill="#f5f5f4" fill-rule="nonzero"/><use xlink:href="#g1094D23D321B642DA133CC49B1BA1EB9" x="54.72" y="0" fill="#f5f5f4" fill-rule="nonzero"/><use xlink:href="#g8D15A55F054D4F8515F5F3C5E6F83BE2" x="58.584" y="0" fill="#f5f5f4" fill-rule="nonzero"/><use xlink:href="#g5C8521CD324BD598695A36491E4CE69D" x="64.836" y="0" fill="#f5f5f4" fill-rule="nonzero"/><use xlink:href="#g3E13159425B4C5FA6BE9D46173183F7B" x="72.264" y="0" fill="#f5f5f4" fill-rule="nonzero"/><use xlink:href="#gA986FFFF7E2447BE115115C44EBF560B" x="79.56" y="0" fill="#f5f5f4" fill-rule="nonzero"/><use xlink:href="#g56D9AC69DF1E60AEC4FA898FA388366B" x="86.1" y="0" fill="#f5f5f4" fill-rule="nonzero"/><use xlink:href="#g482B6484D8169192ED302BC1FABC0EB8" x="91.14" y="0" fill="#f5f5f4" fill-rule="nonzero"/><use xlink:href="#gFEC70EFDBA18BA4C4D3D82E0B33EA29E" x="97.752" y="0" fill="#f5f5f4" fill-rule="nonzero"/><use xlink:href="#gA421F3DD5F2809E5ED8290B7EF6AAC43" x="111.612" y="0" fill="#f5f5f4" fill-rule="nonzero"/><use xlink:href="#g3E13159425B4C5FA6BE9D46173183F7B" x="117.66" y="0" fill="#f5f5f4" fill-rule="nonzero"/><use xlink:href="#g56D9AC69DF1E60AEC4FA898FA388366B" x="121.956" y="0" fill="#f5f5f4" fill-rule="nonzero"/><use xlink:href="#g1094D23D321B642DA133CC49B1BA1EB9" x="127.092" y="0" fill="#f5f5f4" fill-rule="nonzero"/><use xlink:href="#g3C2E9715FB9D690A986B8F0D57F3007C" x="130.956" y="0" fill="#f5f5f4" fill-rule="nonzero"/><use xlink:href="#g8D15A55F054D4F8515F5F3C5E6F83BE2" x="138.348" y="0" fill="#f5f5f4" fill-rule="nonzero"/><use xlink:href="#g93ED4154508DB3ADD21415419B103611" x="144.6" y="0" fill="#f5f5f4" fill-rule="nonzero"/></g></g><g transform="translate(0 14.94)"><path fill="none" stroke="#595959" stroke-width="0.2" stroke-linecap="butt" stroke-linejoin="miter" stroke-miterlimit="4" transform="translate(86.073681699)" d="M 0 0m 0 149.963559055v -149.963559055"/><path fill="none" stroke="#595959" stroke-width="0.2" stroke-linecap="butt" stroke-linejoin="miter" stroke-miterlimit="4" transform="translate(177.218897638)" d="M 0 0m 0 149.963559055v -149.963559055"/><path fill="none" stroke="#595959" stroke-width="0.2" stroke-linecap="butt" stroke-linejoin="miter" stroke-miterlimit="4" transform="translate(268.364113577)" d="M 0 0m 0 149.963559055v -149.963559055"/><path fill="none" stroke="#595959" stroke-width="0.4" stroke-linecap="butt" stroke-linejoin="miter" stroke-miterlimit="4" transform="translate(38.183822477)" d="M 0 0m 0 149.963559055v -149.963559055"/><path fill="none" transform="translate(32.899822477 152.798204724)" d="M 0 0h 10.568v 6.64h -10.568v -6.64Z "/><g transform="translate(32.899822414 152.798204646)"><g transform="matrix(1 0 0 -1 0 5.264)"><use xlink:href="#g3427DB79E013EF0644448109D29171F6" x="0" y="0" fill="#f5f5f4" fill-rule="nonzero"/><use xlink:href="#g7CADDE05683A2F282E92796EAE7002E6" x="2.576" y="0" fill="#f5f5f4" fill-rule="nonzero"/><use xlink:href="#g737E31D6A5E93E22E9ED4AD10D42FE71" x="6.232" y="0" fill="#f5f5f4" fill-rule="nonzero"/></g></g><path fill="none" stroke="#595959" stroke-width="0.4" stroke-linecap="butt" stroke-linejoin="miter" stroke-miterlimit="4" transform="translate(133.963540921)" d="M 0 0m 0 149.963559055v -149.963559055"/><path fill="none" transform="translate(128.263540921 152.798204724)" d="M 0 0h 11.4v 5.36h -11.4v -5.36Z "/><g transform="translate(128.263540874 152.798204709)"><g transform="matrix(1 0 0 -1 0 5.264)"><use xlink:href="#gD3542CDD53EC7DB6760F49E936FF777C" x="0" y="0" fill="#f5f5f4" fill-rule="nonzero"/><use xlink:href="#g20EDBE1E989F56AA9FBFD4A2EF5BDC35" x="3.88" y="0" fill="#f5f5f4" fill-rule="nonzero"/><use xlink:href="#gD4D4B150EC498A90F8C7732D61AFCDA6" x="7.456" y="0" fill="#f5f5f4" fill-rule="nonzero"/></g></g><path fill="none" stroke="#595959" stroke-width="0.4" stroke-linecap="butt" stroke-linejoin="miter" stroke-miterlimit="4" transform="translate(220.474254355)" d="M 0 0m 0 149.963559055v -149.963559055"/><path fill="none" transform="translate(213.802254355 152.798204724)" d="M 0 0h 13.344v 5.344h -13.344v -5.344Z "/><g transform="translate(213.802254307 152.798204646)"><g transform="matrix(1 0 0 -1 0 5.264)"><use xlink:href="#g45D7A3F5F901624E78CA6C200A9161A7" x="0" y="0" fill="#f5f5f4" fill-rule="nonzero"/><use xlink:href="#g7CADDE05683A2F282E92796EAE7002E6" x="6.712" y="0" fill="#f5f5f4" fill-rule="nonzero"/><use xlink:href="#gF14903D79C881A9B6AC2EE7D8BED6F03" x="10.368" y="0" fill="#f5f5f4" fill-rule="nonzero"/></g></g><path fill="none" stroke="#595959" stroke-width="0.4" stroke-linecap="butt" stroke-linejoin="miter" stroke-miterlimit="4" transform="translate(316.253972799)" d="M 0 0m 0 149.963559055v -149.963559055"/><path fill="none" transform="translate(309.909972799 152.798204724)" d="M 0 0h 12.688v 7.136h -12.688v -7.136Z "/><g transform="translate(309.90997272 152.798204614)"><g transform="matrix(1 0 0 -1 0 5.264)"><use xlink:href="#g8D1B85E3ABA097AFFEFA8B147B26839C" x="0" y="0" fill="#f5f5f4" fill-rule="nonzero"/><use xlink:href="#gE3B745958568E02614BCAB4547DCA2F1" x="5.56" y="0" fill="#f5f5f4" fill-rule="nonzero"/><use xlink:href="#gF14903D79C881A9B6AC2EE7D8BED6F03" x="9.712" y="0" fill="#f5f5f4" fill-rule="nonzero"/></g></g><path fill="none" stroke="#595959" stroke-width="0.2" stroke-linecap="butt" stroke-linejoin="miter" stroke-miterlimit="4" transform="translate(24.280314961 135.281812015)" d="M 0 0h 305.877165354"/><path fill="none" stroke="#595959" stroke-width="0.2" stroke-linecap="butt" stroke-linejoin="miter" stroke-miterlimit="4" transform="translate(24.280314961 109.064406586)" d="M 0 0h 305.877165354"/><path fill="none" stroke="#595959" stroke-width="0.2" stroke-linecap="butt" stroke-linejoin="miter" stroke-miterlimit="4" transform="translate(24.280314961 82.847001156)" d="M 0 0h 305.877165354"/><path fill="none" stroke="#595959" stroke-width="0.2" stroke-linecap="butt" stroke-linejoin="miter" stroke-miterlimit="4" transform="translate(24.280314961 56.629595727)" d="M 0 0h 305.877165354"/><path fill="none" stroke="#595959" stroke-width="0.2" stroke-linecap="butt" stroke-linejoin="miter" stroke-miterlimit="4" transform="translate(24.280314961 30.412190298)" d="M 0 0h 305.877165354"/><path fill="none" stroke="#595959" stroke-width="0.2" stroke-linecap="butt" stroke-linejoin="miter" stroke-miterlimit="4" transform="translate(24.280314961 4.194784869)" d="M 0 0h 305.877165354"/><path fill="none" stroke="#595959" stroke-width="0.4" stroke-linecap="butt" stroke-linejoin="miter" stroke-miterlimit="4" transform="translate(24.280314961 148.390514729)" d="M 0 0h 305.877165354"/><path fill="none" transform="translate(14.005669291 145.718514729)" d="M 0 0h 7.44v 5.344h -7.44v -5.344Z "/><g transform="translate(14.005669244 145.718514651)"><g transform="matrix(1 0 0 -1 0 5.264)"><use xlink:href="#g8C50DFC0B8272CD73341C65811BD0E92" x="0" y="0" fill="#f5f5f4" fill-rule="nonzero"/><use xlink:href="#g97663EC9AEA74EADA07472643E1BE1B4" x="3.72" y="0" fill="#f5f5f4" fill-rule="nonzero"/></g></g><path fill="none" stroke="#595959" stroke-width="0.4" stroke-linecap="butt" stroke-linejoin="miter" stroke-miterlimit="4" transform="translate(24.280314961 122.1731093)" d="M 0 0h 305.877165354"/><path fill="none" transform="translate(14.005669291 119.5011093)" d="M 0 0h 7.44v 5.344h -7.44v -5.344Z "/><g transform="translate(14.005669244 119.501109221)"><g transform="matrix(1 0 0 -1 0 5.264)"><use xlink:href="#gAD9C87F854BDA42EDABFFB35EC1FA84E" x="0" y="0" fill="#f5f5f4" fill-rule="nonzero"/><use xlink:href="#g97663EC9AEA74EADA07472643E1BE1B4" x="3.72" y="0" fill="#f5f5f4" fill-rule="nonzero"/></g></g><path fill="none" stroke="#595959" stroke-width="0.4" stroke-linecap="butt" stroke-linejoin="miter" stroke-miterlimit="4" transform="translate(24.280314961 95.955703871)" d="M 0 0h 305.877165354"/><path fill="none" transform="translate(14.005669291 93.283703871)" d="M 0 0h 7.44v 5.344h -7.44v -5.344Z "/><g transform="translate(14.005669244 93.283703792)"><g transform="matrix(1 0 0 -1 0 5.264)"><use xlink:href="#g4DADFF8D06AE4DC17FB93571E5AFF437" x="0" y="0" fill="#f5f5f4" fill-rule="nonzero"/><use xlink:href="#g97663EC9AEA74EADA07472643E1BE1B4" x="3.72" y="0" fill="#f5f5f4" fill-rule="nonzero"/></g></g><path fill="none" stroke="#595959" stroke-width="0.4" stroke-linecap="butt" stroke-linejoin="miter" stroke-miterlimit="4" transform="translate(24.280314961 69.738298442)" d="M 0 0h 305.877165354"/><path fill="none" transform="translate(14.005669291 67.066298442)" d="M 0 0h 7.44v 5.344h -7.44v -5.344Z "/><g transform="translate(14.005669244 67.066298363)"><g transform="matrix(1 0 0 -1 0 5.264)"><use xlink:href="#gF821431C61A4D7F3ECEFEC074E9C0EFC" x="0" y="0" fill="#f5f5f4" fill-rule="nonzero"/><use xlink:href="#g97663EC9AEA74EADA07472643E1BE1B4" x="3.72" y="0" fill="#f5f5f4" fill-rule="nonzero"/></g></g><path fill="none" stroke="#595959" stroke-width="0.4" stroke-linecap="butt" stroke-linejoin="miter" stroke-miterlimit="4" transform="translate(24.280314961 43.520893012)" d="M 0 0h 305.877165354"/><path fill="none" transform="translate(14.005669291 40.844893012)" d="M 0 0h 7.44v 5.352h -7.44v -5.352Z "/><g transform="translate(14.005669244 40.844892965)"><g transform="matrix(1 0 0 -1 0 5.264)"><use xlink:href="#gD00C9D162D1CBC09F2F7551D594DBB72" x="0" y="0" fill="#f5f5f4" fill-rule="nonzero"/><use xlink:href="#g97663EC9AEA74EADA07472643E1BE1B4" x="3.72" y="0" fill="#f5f5f4" fill-rule="nonzero"/></g></g><path fill="none" stroke="#595959" stroke-width="0.4" stroke-linecap="butt" stroke-linejoin="miter" stroke-miterlimit="4" transform="translate(24.280314961 17.303487583)" d="M 0 0h 305.877165354"/><path fill="none" transform="translate(14.005669291 14.627487583)" d="M 0 0h 7.44v 5.352h -7.44v -5.352Z "/><g transform="translate(14.005669244 14.627487536)"><g transform="matrix(1 0 0 -1 0 5.264)"><use xlink:href="#gAFC6ADE0F4BA5C584B85DD0E8532505B" x="0" y="0" fill="#f5f5f4" fill-rule="nonzero"/><use xlink:href="#g97663EC9AEA74EADA07472643E1BE1B4" x="3.72" y="0" fill="#f5f5f4" fill-rule="nonzero"/></g></g><path fill="none" transform="translate(24.280314961 0)" d="M 0 0h 305.877165354v 149.963559055h -305.877165354v -149.963559055Z "/><g transform="translate(24.280314913 -1.26e-7)"><g clip-path="url(#c35241B9CFE2A3A8F530425C39F150AC0)"><g><path fill="none" stroke="#f5f5f4" stroke-width="0.8" stroke-linecap="butt" stroke-linejoin="miter" stroke-miterlimit="4" stroke-dashoffset="0" stroke-dasharray="" transform="translate(26.262180864 6.816525412)" d="M 0 0m 0 136.330508232l 46.345025054 -18.3521838l 58.703698401 -20.973924343l 52.524361728 -36.704367601l 40.16568838 -44.56958923l 55.614030064 -15.730443258"/><path fill="#161616" fill-rule="nonzero" stroke="#f5f5f4" stroke-width="0.5" stroke-linecap="butt" stroke-linejoin="miter" stroke-miterlimit="4" transform="translate(24.262180864 141.147033644)" d="M 0 0m 2 0c -1.103568 0 -2 0.896432 -2 2c 0 1.103568 0.896432 2 2 2c 1.103568 0 2 -0.896432 2 -2c 0 -1.103568 -0.896432 -2 -2 -2Z "/><path fill="#161616" fill-rule="nonzero" stroke="#f5f5f4" stroke-width="0.5" stroke-linecap="butt" stroke-linejoin="miter" stroke-miterlimit="4" transform="translate(70.607205917 122.794849843)" d="M 0 0m 2 0c -1.103568 0 -2 0.896432 -2 2c 0 1.103568 0.896432 2 2 2c 1.103568 0 2 -0.896432 2 -2c 0 -1.103568 -0.896432 -2 -2 -2Z "/><path fill="#161616" fill-rule="nonzero" stroke="#f5f5f4" stroke-width="0.5" stroke-linecap="butt" stroke-linejoin="miter" stroke-miterlimit="4" transform="translate(129.310904319 101.8209255)" d="M 0 0m 2 0c -1.103568 0 -2 0.896432 -2 2c 0 1.103568 0.896432 2 2 2c 1.103568 0 2 -0.896432 2 -2c 0 -1.103568 -0.896432 -2 -2 -2Z "/><path fill="#161616" fill-rule="nonzero" stroke="#f5f5f4" stroke-width="0.5" stroke-linecap="butt" stroke-linejoin="miter" stroke-miterlimit="4" transform="translate(181.835266046 65.116557899)" d="M 0 0m 2 0c -1.103568 0 -2 0.896432 -2 2c 0 1.103568 0.896432 2 2 2c 1.103568 0 2 -0.896432 2 -2c 0 -1.103568 -0.896432 -2 -2 -2Z "/><path fill="#161616" fill-rule="nonzero" stroke="#f5f5f4" stroke-width="0.5" stroke-linecap="butt" stroke-linejoin="miter" stroke-miterlimit="4" transform="translate(222.000954426 20.546968669)" d="M 0 0m 2 0c -1.103568 0 -2 0.896432 -2 2c 0 1.103568 0.896432 2 2 2c 1.103568 0 2 -0.896432 2 -2c 0 -1.103568 -0.896432 -2 -2 -2Z "/><path fill="#161616" fill-rule="nonzero" stroke="#f5f5f4" stroke-width="0.5" stroke-linecap="butt" stroke-linejoin="miter" stroke-miterlimit="4" transform="translate(277.614984491 4.816525412)" d="M 0 0m 2 0c -1.103568 0 -2 0.896432 -2 2c 0 1.103568 0.896432 2 2 2c 1.103568 0 2 -0.896432 2 -2c 0 -1.103568 -0.896432 -2 -2 -2Z "/><path fill="none" stroke="#d55e00" stroke-width="0.6" stroke-linecap="butt" stroke-linejoin="miter" stroke-miterlimit="4" stroke-dashoffset="0" stroke-dasharray="3 3" transform="translate(149.84891434)" d="M 0 0m 0 149.963559055v -149.963559055"/></g></g></g><path fill="none" transform="translate(164.893397638 166.055874016)" d="M 0 0h 24.651v 6.012h -24.651v -6.012Z "/><g transform="translate(164.893397496 166.055874016)"><g transform="matrix(1 0 0 -1 0 5.922)"><use xlink:href="#g7919E138A6B7887FFC9F09D86374A4A9" x="0" y="0" fill="#f5f5f4" fill-rule="nonzero"/><use xlink:href="#gF71CD90141C058754731CB923424AFF5" x="7.551" y="0" fill="#f5f5f4" fill-rule="nonzero"/><use xlink:href="#g75829AE9E8B7E42D7FCDFD5712A16351" x="12.087" y="0" fill="#f5f5f4" fill-rule="nonzero"/><use xlink:href="#g5277906DC426125FD25A938CB480528C" x="16.965" y="0" fill="#f5f5f4" fill-rule="nonzero"/><use xlink:href="#g6547456983017125BAABA1DD3FE7B939" x="19.809" y="0" fill="#f5f5f4" fill-rule="nonzero"/></g></g><path fill="none" transform="translate(1.487834646 64.676779528)" d="M 0 0m 0 20.61l 0 -20.61h 6.03l 0 20.61h -6.03Z "/><g transform="matrix(0 -1 1 0 1.487834504 85.286779528)"><g transform="matrix(1 0 0 -1 0 5.922)"><use xlink:href="#gA25977750DF0B39512646F59A0F0B8CA" x="0" y="0" fill="#f5f5f4" fill-rule="nonzero"/><use xlink:href="#gEDE113971A7C9D129D6A2104959F55B2" x="5.868" y="0" fill="#f5f5f4" fill-rule="nonzero"/><use xlink:href="#gA1FEA12DCE93D0EA0BBFC1201B9D8E1C" x="8.307" y="0" fill="#f5f5f4" fill-rule="nonzero"/><use xlink:href="#gEDE113971A7C9D129D6A2104959F55B2" x="11.817" y="0" fill="#f5f5f4" fill-rule="nonzero"/><use xlink:href="#g5277906DC426125FD25A938CB480528C" x="14.256" y="0" fill="#f5f5f4" fill-rule="nonzero"/><use xlink:href="#gA1FEA12DCE93D0EA0BBFC1201B9D8E1C" x="17.1" y="0" fill="#f5f5f4" fill-rule="nonzero"/></g></g></g></g></g><defs><symbol id="g3759E51EE41A8E4391E48F80499682E6" overflow="visible"><path d="M 0 0m 2.22 0c 0.48 0 1.464 -0.024 1.944 -0.024c 1.056 0 2.244 0.264 3.096 1.008c 0.576 0.504 0.972 1.5 0.972 2.724c 0 2.22 -1.44 4.044 -4.392 4.044c -0.636 0 -1.14 -0.012 -1.62 -0.012c -0.48 0 -1.848 0.024 -1.848 0.024c -0.12 -0.072 -0.12 -0.336 0 -0.408c 0.66 -0.036 0.996 -0.084 0.996 -1.08v -4.812c 0 -0.996 -0.336 -1.044 -0.996 -1.08c -0.12 -0.072 -0.12 -0.336 0 -0.408c 0 0 1.368 0.024 1.848 0.024Z m 0.828 1.428v 4.92c 0 0.66 0.312 0.9 0.744 0.9c 2.364 0 2.628 -2.028 2.628 -3.84c 0 -2.184 -1.308 -2.928 -2.22 -2.928c -0.84 0 -1.152 0.144 -1.152 0.948Z "/></symbol><symbol id="gDC05A2A7E4AEFCF99C6614634AF8B2F0" overflow="visible"><path d="M 0 0m 3.54 0.588c 0.084 -0.492 0.408 -0.708 0.936 -0.708c 0.66 0 1.128 0.252 1.572 0.672c -0.024 0.144 -0.072 0.24 -0.216 0.336c -0.156 -0.12 -0.276 -0.168 -0.504 -0.168c -0.264 0 -0.336 0.216 -0.336 0.804l 0.024 1.728c 0 1.728 -1.068 2.076 -2.052 2.076c -0.876 0 -2.22 -0.504 -2.22 -1.296c 0 -0.336 0.144 -0.6 0.612 -0.6c 0.432 0 0.744 0.264 0.744 0.552c 0 0.06 -0.012 0.132 -0.024 0.204c -0.024 0.12 -0.048 0.24 -0.024 0.36c 0.012 0.132 0.108 0.276 0.504 0.276c 0.504 0 0.924 -0.216 0.924 -1.74l -0.804 -0.252c -1.26 -0.396 -2.148 -0.744 -2.148 -1.692c 0 -0.828 0.456 -1.26 1.5 -1.26c 0.348 0 1.044 0.384 1.44 0.696Z m -0.06 2.028v -1.584c -0.3 -0.24 -0.6 -0.432 -0.816 -0.432c -0.516 0 -0.696 0.348 -0.696 0.72c 0 0.444 0.036 0.816 0.888 1.092Z "/></symbol><symbol id="g3E13159425B4C5FA6BE9D46173183F7B" overflow="visible"><path d="M 0 0m 0.756 5.208c -0.168 0 -0.348 -0.048 -0.504 -0.18v -0.348c 0 -0.06 0.012 -0.072 0.06 -0.072h 0.78c -0.024 -1.212 -0.036 -2.748 -0.036 -3.348c 0 -0.42 0.108 -0.828 0.36 -1.044c 0.276 -0.228 0.708 -0.336 0.996 -0.336c 0.66 0 1.392 0.336 1.632 0.672c 0 0.144 -0.072 0.216 -0.216 0.336c -0.156 -0.12 -0.456 -0.168 -0.684 -0.168c -0.264 0 -0.528 0.204 -0.528 0.804c 0 0.6 -0.012 1.884 -0.012 3.084h 1.212c 0.12 0 0.288 0.048 0.288 0.156v 0.372c 0 0.048 -0.036 0.072 -0.096 0.072h -1.404l 0.012 0.408c 0.024 0.804 0.06 1.356 0.06 1.356c 0 0.072 -0.036 0.108 -0.096 0.108c -0.084 0 -0.528 -0.132 -0.72 -0.216c -0.204 -0.084 -0.552 -0.156 -0.636 -0.264c -0.084 -0.108 -0.132 -0.432 -0.132 -1.392Z "/></symbol><symbol id="gE18113BE1243CA6EC5596891CC422939" overflow="visible"><path d="M 0 0m 5.172 1.548c -0.492 -0.504 -1.14 -0.636 -1.596 -0.636c -0.936 0 -1.512 0.54 -1.512 1.716c 0 0.084 0.012 0.132 0.012 0.192h 2.88c 0.288 0 0.348 0.204 0.348 0.372c 0 1.02 -0.396 2.136 -2.16 2.136c -1.26 0 -2.7 -1.116 -2.7 -2.952c 0 -0.696 0.252 -1.428 0.768 -1.896c 0.456 -0.408 1.044 -0.6 1.896 -0.6c 0.828 0 1.644 0.42 2.244 1.296c 0 0.156 -0.06 0.372 -0.18 0.372Z m -3.048 1.752c 0.012 0.42 0.072 0.876 0.24 1.116c 0.192 0.288 0.516 0.408 0.648 0.408c 0.324 0 0.768 -0.312 0.768 -1.272c 0 -0.072 0 -0.228 -0.024 -0.252Z "/></symbol><symbol id="g93ED4154508DB3ADD21415419B103611" overflow="visible"><path d="M 0 0m 0.576 1.752c 0.048 -0.588 0.108 -1.152 0.204 -1.608c 0.228 -0.072 0.996 -0.264 1.668 -0.264c 0.924 0 2.076 0.504 2.076 1.548c 0 0.408 -0.096 0.732 -0.372 1.032c -0.336 0.384 -0.84 0.684 -1.392 0.924c -0.48 0.204 -0.648 0.588 -0.648 0.936c 0 0.276 0.228 0.504 0.576 0.504c 0.42 0 0.828 -0.384 1.128 -1.116c 0.216 -0.036 0.348 -0.024 0.468 0.06c 0 0.432 -0.048 0.888 -0.156 1.272c -0.384 0.168 -0.684 0.288 -1.344 0.288c -0.636 0 -1.236 -0.24 -1.62 -0.624c -0.276 -0.276 -0.408 -0.612 -0.408 -0.936c 0 -0.36 0.144 -0.648 0.372 -0.9c 0.372 -0.408 1.032 -0.828 1.392 -0.996c 0.48 -0.216 0.612 -0.648 0.612 -0.936c 0 -0.384 -0.384 -0.588 -0.708 -0.588c -0.54 0 -1.116 0.552 -1.368 1.428c -0.192 0.036 -0.288 0.024 -0.48 -0.024Z "/></symbol><symbol id="gA421F3DD5F2809E5ED8290B7EF6AAC43" overflow="visible"><path d="M 0 0m 5.052 7.572c -0.66 0.096 -0.912 0.324 -2.028 0.324c -0.54 0 -1.248 -0.168 -1.752 -0.576c -0.444 -0.36 -0.78 -0.912 -0.78 -1.5c 0 -0.456 0.12 -1.032 0.396 -1.392c 0.552 -0.744 1.548 -1.152 2.064 -1.512c 0.552 -0.384 1.092 -0.864 1.092 -1.536c 0 -0.588 -0.516 -0.996 -1.248 -0.996c -0.804 0 -1.632 0.66 -1.872 1.752c -0.192 0.072 -0.384 0.024 -0.564 -0.024c -0.012 0 -0.024 -0.012 -0.036 -0.012c 0 -0.9 0.096 -1.536 0.228 -1.98c 0.684 0 0.72 -0.24 2.376 -0.24c 0.732 0 1.32 0.216 1.812 0.66c 0.432 0.372 0.816 0.924 0.816 1.668c 0 0.624 -0.264 1.044 -0.624 1.44c -0.468 0.516 -1.14 0.888 -1.608 1.128c -0.48 0.24 -1.332 0.864 -1.332 1.548c 0 0.672 0.408 1.08 1.02 1.08c 1.02 0 1.356 -0.924 1.572 -1.716c 0.168 -0.048 0.468 -0.048 0.6 0.06c 0 0.636 -0.048 1.128 -0.132 1.824Z "/></symbol><symbol id="g56D9AC69DF1E60AEC4FA898FA388366B" overflow="visible"><path d="M 0 0m 2.736 3.216c 0 0.432 0.132 0.612 0.288 0.792c 0.096 0.12 0.204 0.204 0.384 0.204c 0.108 0 0.24 -0.108 0.336 -0.228c 0.084 -0.096 0.288 -0.192 0.564 -0.192c 0.348 0 0.684 0.36 0.684 0.864c 0 0.312 -0.36 0.672 -0.792 0.672c -0.42 0 -0.876 -0.36 -1.428 -1.152h -0.048c -0.024 0.36 -0.084 0.948 -0.084 0.948c -0.012 0.108 -0.108 0.204 -0.276 0.204c -0.564 -0.144 -1.2 -0.312 -1.992 -0.396c -0.024 -0.072 0 -0.3 0.024 -0.372c 0.66 -0.06 0.78 -0.168 0.78 -0.852v -2.244c 0 -0.996 -0.132 -1.02 -0.864 -1.08c -0.072 -0.072 -0.072 -0.336 0 -0.408c 0.504 0.012 1.008 0.024 1.644 0.024c 0.636 0 1.128 -0.012 1.644 -0.024c 0.072 0.072 0.072 0.336 0 0.408c -0.732 0.048 -0.864 0.084 -0.864 1.08Z "/></symbol><symbol id="g1094D23D321B642DA133CC49B1BA1EB9" overflow="visible"><path d="M 0 0m 2.784 1.464v 2.388c 0 0.6 0.048 1.272 0.048 1.272c 0 0.132 -0.108 0.204 -0.276 0.204c -0.336 -0.132 -1.308 -0.228 -2.136 -0.336c -0.024 -0.072 0 -0.312 0.024 -0.384c 0.66 -0.06 0.78 -0.156 0.78 -0.84v -2.304c 0 -0.996 -0.132 -1.02 -0.864 -1.08c -0.072 -0.072 -0.072 -0.336 0 -0.408c 0.504 0.012 1.008 0.024 1.644 0.024c 0.636 0 1.128 -0.012 1.644 -0.024c 0.072 0.072 0.072 0.336 0 0.408c -0.732 0.048 -0.864 0.084 -0.864 1.08Z m -1.62 5.688c 0 -0.396 0.288 -0.792 0.768 -0.792c 0.54 0 0.852 0.432 0.852 0.744c 0 0.36 -0.276 0.792 -0.78 0.792c -0.564 0 -0.84 -0.384 -0.84 -0.744Z "/></symbol><symbol id="g8D15A55F054D4F8515F5F3C5E6F83BE2" overflow="visible"><path d="M 0 0m 5.604 4.728c 0.336 0 0.528 0.144 0.528 0.588c 0 0.228 -0.312 0.576 -0.768 0.576c -0.528 0 -1.224 -0.396 -1.572 -0.708c -0.216 0.12 -0.468 0.144 -1.008 0.144c -0.516 0 -1.02 -0.12 -1.416 -0.384c -0.492 -0.312 -0.816 -0.78 -0.816 -1.392c 0 -0.588 0.348 -1.224 0.924 -1.536c -0.372 -0.324 -0.948 -0.96 -0.948 -1.2c 0 -0.228 0.036 -0.372 0.156 -0.552c 0.108 -0.168 0.252 -0.264 0.492 -0.336c -0.516 -0.312 -1.044 -0.996 -1.044 -1.2c 0 -0.444 0.144 -0.96 0.468 -1.188c 0.468 -0.324 1.26 -0.396 1.836 -0.396c 1.668 0 3.576 0.876 3.576 2.196c 0 0.252 -0.12 0.768 -0.6 1.092c -0.468 0.312 -2.268 0.396 -3.156 0.396c -0.216 0 -0.54 0.024 -0.54 0.504c 0 0.192 0.12 0.36 0.18 0.504c 0.252 -0.12 0.504 -0.132 0.876 -0.132c 0.612 0 1.176 0.156 1.584 0.516c 0.348 0.312 0.588 0.732 0.588 1.272c 0 0.672 -0.336 1.116 -0.744 1.452c 0.096 0.12 0.492 0.336 0.612 0.336c 0.108 0 0.192 -0.072 0.228 -0.144c 0.048 -0.156 0.264 -0.408 0.564 -0.408Z m -3.504 -5.028c 0.924 0 2.7 -0.036 2.7 -0.672c 0 -0.432 -0.192 -0.924 -0.588 -1.14c -0.372 -0.216 -0.984 -0.24 -1.44 -0.24c -0.792 0 -1.332 0.588 -1.332 1.2c 0 0.408 0 0.684 0.132 0.924c 0.12 -0.048 0.276 -0.072 0.528 -0.072Z m 1.38 3.756c 0 -1.152 -0.336 -1.296 -0.648 -1.296c -0.744 0 -0.84 0.888 -0.84 1.5c 0 0.888 0.216 1.212 0.684 1.212c 0.564 0 0.804 -0.468 0.804 -1.416Z "/></symbol><symbol id="g5C8521CD324BD598695A36491E4CE69D" overflow="visible"><path d="M 0 0m 6.336 1.536v 1.872c 0 1.32 -0.564 1.92 -1.596 1.92c -0.444 0 -1.296 -0.444 -1.98 -0.864v 2.532c 0 0.78 0.036 1.224 0.036 1.224c 0 0.108 -0.084 0.156 -0.192 0.156c -0.444 -0.144 -1.404 -0.276 -2.256 -0.312c -0.036 -0.144 -0.024 -0.276 0.036 -0.384c 0.756 -0.06 0.816 -0.072 0.816 -0.9v -5.256c 0 -0.996 -0.192 -1.104 -0.924 -1.14c -0.072 -0.072 -0.072 -0.336 0 -0.408c 0.504 0.012 1.044 0.024 1.704 0.024c 0.576 0 0.948 -0.012 1.464 -0.024c 0.072 0.072 0.072 0.336 0 0.408c -0.504 0.036 -0.684 0.144 -0.684 1.14v 2.46c 0.504 0.312 0.9 0.456 1.116 0.456c 0.48 0 0.9 -0.216 0.9 -0.9v -2.004c 0 -1.008 -0.192 -1.116 -0.684 -1.152c -0.072 -0.072 -0.072 -0.336 0 -0.408c 0.504 0.012 0.888 0.024 1.464 0.024c 0.66 0 1.188 -0.012 1.704 -0.024c 0.072 0.072 0.072 0.336 0 0.408c -0.732 0.036 -0.924 0.144 -0.924 1.152Z "/></symbol><symbol id="gA986FFFF7E2447BE115115C44EBF560B" overflow="visible"><path d="M 0 0m 2.904 1.464v 2.124h 0.972c 0.828 0 1.056 -0.228 1.092 -0.768c 0.072 -0.072 0.444 -0.072 0.516 0c -0.024 0.42 -0.024 0.78 -0.024 1.056c 0 0.276 0.012 0.684 0.024 1.032c -0.072 0.072 -0.444 0.072 -0.516 0c -0.036 -0.66 -0.288 -0.768 -1.092 -0.768h -0.972v 2.508c 0 0.288 0.204 0.588 0.492 0.588h 1.08c 0.9 0 1.212 -0.516 1.476 -1.344c 0.144 -0.024 0.3 0 0.42 0.06c -0.036 0.528 -0.132 1.704 -0.144 1.8c 0 0.024 -0.012 0.036 -0.048 0.036c -0.204 -0.036 -0.3 -0.048 -0.588 -0.048h -3.564c 0 0 -1.248 0.012 -1.848 0.024c -0.072 -0.072 -0.072 -0.336 0 -0.408c 0.84 -0.036 1.044 -0.096 1.044 -1.092v -4.8c 0 -0.996 -0.336 -1.044 -0.996 -1.08c -0.12 -0.072 -0.12 -0.336 0 -0.408c 0.48 0.012 1.368 0.024 1.848 0.024c 0.48 0 1.464 -0.012 1.944 -0.024c 0.12 0.072 0.12 0.336 0 0.408c -0.66 0.036 -1.116 0.084 -1.116 1.08Z "/></symbol><symbol id="g482B6484D8169192ED302BC1FABC0EB8" overflow="visible"><path d="M 0 0m 0.444 2.484c 0 -1.572 1.248 -2.604 2.856 -2.604c 0.852 0 1.56 0.24 2.052 0.684c 0.612 0.54 0.816 1.356 0.816 2.028c 0 1.572 -1.068 2.736 -2.856 2.736c -0.996 0 -1.74 -0.348 -2.208 -0.888c -0.456 -0.528 -0.66 -1.248 -0.66 -1.956Z m 2.676 2.34c 0.816 0 1.368 -0.972 1.368 -2.616c 0 -1.44 -0.564 -1.824 -0.996 -1.824c -0.984 0 -1.368 1.476 -1.368 2.364c 0 1.104 0.192 2.076 0.996 2.076Z "/></symbol><symbol id="gFEC70EFDBA18BA4C4D3D82E0B33EA29E" overflow="visible"><path d="M 0 0m 2.736 1.464v 2.388c 0 0.06 0 0.12 0 0.18c 0.468 0.288 0.888 0.408 1.092 0.408c 0.48 0 0.84 -0.216 0.84 -0.9v -2.004c 0 -1.008 -0.192 -1.116 -0.684 -1.152c -0.072 -0.072 -0.072 -0.336 0 -0.408c 0.504 0.012 0.888 0.024 1.464 0.024c 0.576 0 0.948 -0.012 1.464 -0.024c 0.072 0.072 0.072 0.336 0 0.408c -0.48 0.036 -0.684 0.144 -0.684 1.152v 1.872c 0 0.3 -0.012 0.54 -0.048 0.66c 0.456 0.228 0.972 0.372 1.164 0.372c 0.48 0 0.816 -0.216 0.816 -0.9v -2.004c 0 -1.008 -0.192 -1.116 -0.684 -1.152c -0.072 -0.072 -0.072 -0.336 0 -0.408c 0.504 0.012 0.888 0.024 1.464 0.024c 0.66 0 1.188 -0.012 1.704 -0.024c 0.072 0.072 0.072 0.336 0 0.408c -0.732 0.036 -0.924 0.144 -0.924 1.152v 1.872c 0 1.32 -0.48 1.92 -1.512 1.92c -0.444 0 -1.452 -0.48 -2.148 -0.864c -0.18 0.516 -0.66 0.864 -1.368 0.864c -0.432 0 -1.296 -0.456 -1.98 -0.84c -0.036 0.36 -0.072 0.636 -0.072 0.636c -0.012 0.144 -0.108 0.204 -0.276 0.204c -0.444 -0.12 -1.164 -0.288 -1.992 -0.396c -0.024 -0.072 0 -0.312 0.024 -0.384c 0.66 -0.06 0.78 -0.156 0.78 -0.84v -2.244c 0 -0.996 -0.132 -1.02 -0.864 -1.08c -0.072 -0.072 -0.072 -0.336 0 -0.408c 0.504 0.012 1.008 0.024 1.644 0.024c 0.552 0 0.888 -0.012 1.404 -0.024c 0.072 0.072 0.072 0.336 0 0.408c -0.504 0.048 -0.624 0.084 -0.624 1.08Z "/></symbol><symbol id="g3C2E9715FB9D690A986B8F0D57F3007C" overflow="visible"><path d="M 0 0m 2.736 1.464v 2.412c 0.48 0.324 0.96 0.564 1.176 0.564c 0.48 0 0.84 -0.216 0.84 -0.9v -2.004c 0 -1.008 -0.192 -1.116 -0.684 -1.152c -0.072 -0.072 -0.072 -0.336 0 -0.408c 0.504 0.012 0.888 0.024 1.464 0.024c 0.66 0 1.188 -0.012 1.704 -0.024c 0.072 0.072 0.072 0.336 0 0.408c -0.732 0.036 -0.924 0.144 -0.924 1.152v 1.872c 0 1.32 -0.564 1.92 -1.596 1.92c -0.48 0 -1.332 -0.528 -1.992 -0.984c -0.036 0.42 -0.084 0.78 -0.084 0.78c -0.012 0.144 -0.108 0.204 -0.276 0.204c -0.444 -0.12 -1.164 -0.288 -1.992 -0.396c -0.024 -0.072 0 -0.312 0.024 -0.384c 0.66 -0.06 0.78 -0.156 0.78 -0.84v -2.244c 0 -0.996 -0.132 -1.02 -0.864 -1.08c -0.072 -0.072 -0.072 -0.336 0 -0.408c 0.504 0.012 1.008 0.024 1.644 0.024c 0.552 0 0.888 -0.012 1.404 -0.024c 0.072 0.072 0.072 0.336 0 0.408c -0.504 0.048 -0.624 0.084 -0.624 1.08Z "/></symbol><symbol id="g3427DB79E013EF0644448109D29171F6" overflow="visible"><path d="M 0 0m 1.808 4.184c 0 0.664 0.136 0.704 0.616 0.728c 0.048 0.048 0.048 0.216 0 0.264c -0.304 -0.008 -0.648 -0.016 -0.96 -0.016c -0.288 0 -0.712 0.008 -1.112 0.016c -0.048 -0.048 -0.048 -0.216 0 -0.264c 0.64 -0.024 0.776 -0.064 0.776 -0.728v -3.536c 0 -1.44 -0.416 -1.664 -0.68 -1.664c -0.152 0 -0.264 0.096 -0.32 0.216c -0.048 0.096 -0.12 0.2 -0.32 0.2c -0.112 0 -0.352 -0.168 -0.352 -0.344c 0 -0.288 0.424 -0.432 0.6 -0.432c 0.36 0 0.608 0.064 0.936 0.344c 0.352 0.296 0.816 0.712 0.816 1.856Z "/></symbol><symbol id="g7CADDE05683A2F282E92796EAE7002E6" overflow="visible"><path d="M 0 0m 2.344 0.384c 0.048 -0.248 0.136 -0.464 0.536 -0.464c 0.304 0 0.592 0.136 0.76 0.296c -0.016 0.096 -0.048 0.168 -0.136 0.216c -0.056 -0.048 -0.192 -0.128 -0.296 -0.128c -0.232 0 -0.24 0.312 -0.24 0.68v 1.176c 0 1.136 -0.624 1.352 -1.208 1.352c -0.656 0 -1.32 -0.432 -1.32 -0.888c 0 -0.192 0.096 -0.288 0.28 -0.288c 0.232 0 0.376 0.168 0.376 0.272c 0 0.056 -0.008 0.112 -0.024 0.144c -0.008 0.024 -0.016 0.072 -0.016 0.16c 0 0.248 0.336 0.336 0.64 0.336c 0.272 0 0.648 -0.136 0.648 -1.04c 0 -0.056 -0.024 -0.088 -0.048 -0.096l -0.688 -0.168c -0.768 -0.192 -1.32 -0.616 -1.32 -1.16c 0 -0.656 0.448 -0.864 1.008 -0.864c 0.28 0 0.52 0.064 0.872 0.336l 0.16 0.128Z m 0 1.48v -1.056c 0 -0.104 -0.048 -0.16 -0.112 -0.208c -0.208 -0.168 -0.48 -0.352 -0.704 -0.352c -0.4 0 -0.576 0.32 -0.576 0.568c 0 0.36 0.168 0.728 0.76 0.88Z "/></symbol><symbol id="g737E31D6A5E93E22E9ED4AD10D42FE71" overflow="visible"><path d="M 0 0m 1.472 2.864c -0.048 -0.056 -0.096 -0.072 -0.096 0c -0.008 0.216 -0.024 0.528 -0.064 0.608c -0.016 0.04 -0.032 0.064 -0.096 0.064c -0.224 -0.088 -0.432 -0.16 -0.984 -0.232c -0.016 -0.048 0 -0.176 0.016 -0.224c 0.432 -0.04 0.52 -0.08 0.52 -0.544v -1.56c 0 -0.656 -0.08 -0.688 -0.56 -0.728c -0.048 -0.048 -0.048 -0.216 0 -0.264c 0.24 0.008 0.56 0.016 0.88 0.016c 0.32 0 0.56 -0.008 0.8 -0.016c 0.048 0.048 0.048 0.216 0 0.264c -0.408 0.04 -0.488 0.072 -0.488 0.728v 1.312c 0 0.168 0.072 0.264 0.136 0.336c 0.304 0.296 0.664 0.472 0.976 0.472c 0.16 0 0.328 -0.104 0.424 -0.288c 0.08 -0.16 0.096 -0.376 0.096 -0.616v -1.216c 0 -0.656 -0.08 -0.688 -0.496 -0.728c -0.04 -0.048 -0.04 -0.216 0 -0.264c 0.24 0.008 0.496 0.016 0.816 0.016c 0.32 0 0.608 -0.008 0.848 -0.016c 0.04 0.048 0.04 0.216 0 0.264c -0.448 0.04 -0.536 0.072 -0.536 0.728v 1.192c 0 0.44 -0.032 0.824 -0.216 1.072c -0.136 0.176 -0.384 0.272 -0.664 0.272c -0.392 0 -0.84 -0.104 -1.312 -0.648Z "/></symbol><symbol id="gD3542CDD53EC7DB6760F49E936FF777C" overflow="visible"><path d="M 0 0m 2.264 2.584c 0.68 0 0.704 -0.184 0.728 -0.544c 0.048 -0.048 0.216 -0.048 0.264 0c -0.008 0.2 -0.016 0.432 -0.016 0.704c 0 0.272 0.008 0.48 0.016 0.688c -0.048 0.048 -0.216 0.048 -0.264 0c -0.024 -0.44 -0.048 -0.544 -0.728 -0.544h -0.744v 1.44c 0 0.432 0.096 0.512 0.448 0.512h 0.36c 0.848 0 1.048 -0.32 1.224 -0.872c 0.096 0 0.184 0.016 0.248 0.04c -0.04 0.328 -0.16 1.096 -0.176 1.16c 0 0.016 -0.008 0.024 -0.032 0.024c -0.136 -0.024 -0.176 -0.032 -0.376 -0.032h -2.04c -0.256 0 -0.712 0.008 -1.032 0.016c -0.048 -0.048 -0.048 -0.216 0 -0.264c 0.56 -0.024 0.696 -0.064 0.696 -0.728v -3.208c 0 -0.664 -0.136 -0.704 -0.696 -0.728c -0.048 -0.048 -0.048 -0.216 0 -0.264c 0.28 0.008 0.68 0.016 1.04 0.016c 0.36 0 0.752 -0.008 1.032 -0.016c 0.048 0.048 0.048 0.216 0 0.264c -0.56 0.024 -0.696 0.064 -0.696 0.728v 1.608Z "/></symbol><symbol id="g20EDBE1E989F56AA9FBFD4A2EF5BDC35" overflow="visible"><path d="M 0 0m 3.088 0.744c -0.296 -0.304 -0.528 -0.432 -0.992 -0.432c -0.288 0 -0.624 0.168 -0.872 0.576c -0.16 0.264 -0.256 0.632 -0.256 1.096l 2.128 -0.016c 0.096 0 0.152 0.048 0.152 0.136c 0 0.672 -0.24 1.392 -1.352 1.392c -0.696 0 -1.6 -0.664 -1.6 -1.88c 0 -0.448 0.112 -0.88 0.376 -1.184c 0.272 -0.32 0.648 -0.512 1.224 -0.512c 0.608 0 1.04 0.28 1.36 0.696c -0.024 0.08 -0.072 0.12 -0.168 0.128Z m -2.096 1.512c 0.152 0.904 0.712 0.976 0.904 0.976c 0.304 0 0.664 -0.168 0.664 -0.84c 0 -0.072 -0.032 -0.112 -0.12 -0.112Z "/></symbol><symbol id="gD4D4B150EC498A90F8C7732D61AFCDA6" overflow="visible"><path d="M 0 0m 1.336 3.152c -0.048 -0.048 -0.08 -0.032 -0.08 0.04v 1.472c 0 0.52 0.032 0.84 0.032 0.84c 0 0.056 -0.032 0.08 -0.104 0.08c -0.2 -0.08 -0.8 -0.192 -1.12 -0.216c -0.016 -0.064 0 -0.192 0.048 -0.24c 0.024 0 0.048 0 0.072 0c 0.352 -0.024 0.44 -0.024 0.44 -0.656v -3.904c 0 -0.312 -0.008 -0.456 -0.032 -0.568c 0.04 -0.064 0.08 -0.096 0.176 -0.096c 0.048 0.048 0.128 0.12 0.192 0.192c 0.08 0.096 0.128 0.096 0.216 0.024c 0.184 -0.152 0.424 -0.2 0.704 -0.2c 0.816 0 1.768 0.744 1.768 2.016c 0 0.976 -0.72 1.576 -1.416 1.576c -0.344 0 -0.648 -0.136 -0.896 -0.36Z m 0.056 -0.248c 0.208 0.184 0.448 0.256 0.68 0.256c 0.488 0 0.888 -0.592 0.888 -1.368c 0 -0.912 -0.368 -1.6 -1.128 -1.6c -0.248 0 -0.416 0.176 -0.576 0.376v 2c 0 0.168 0.032 0.248 0.136 0.336Z "/></symbol><symbol id="g45D7A3F5F901624E78CA6C200A9161A7" overflow="visible"><path d="M 0 0m 5.304 0.928c 0.04 -0.648 0.008 -0.656 -0.512 -0.68c -0.048 -0.048 -0.048 -0.216 0 -0.264c 0.296 0.008 0.616 0.016 0.856 0.016c 0.24 0 0.608 -0.008 0.872 -0.016c 0.048 0.048 0.048 0.216 0 0.264c -0.544 0.024 -0.568 0.056 -0.616 0.72l -0.24 3.368c -0.032 0.432 0.008 0.544 0.552 0.576c 0.048 0.048 0.048 0.216 0 0.264l -1.048 -0.016l -1.696 -4.056c -0.032 -0.08 -0.056 -0.112 -0.072 -0.112c -0.016 0 -0.04 0.04 -0.064 0.104l -1.64 4.064l -1.16 0.016c -0.048 -0.048 -0.048 -0.216 0 -0.264c 0.552 -0.032 0.6 -0.048 0.544 -0.648l -0.32 -3.296c -0.048 -0.48 -0.144 -0.68 -0.6 -0.72c -0.048 -0.048 -0.048 -0.216 0 -0.264c 0.24 0.008 0.496 0.016 0.688 0.016c 0.192 0 0.512 -0.008 0.752 -0.016c 0.048 0.048 0.048 0.216 0 0.264c -0.528 0.04 -0.568 0.288 -0.528 0.736l 0.304 3.208h 0.016l 1.656 -4.152c 0.024 -0.056 0.072 -0.12 0.12 -0.12c 0.048 0 0.08 0.056 0.112 0.12l 1.8 4.232h 0.016Z "/></symbol><symbol id="gF14903D79C881A9B6AC2EE7D8BED6F03" overflow="visible"><path d="M 0 0m 1.408 2.864c -0.016 0.32 -0.024 0.528 -0.064 0.608c -0.016 0.04 -0.032 0.064 -0.096 0.064c -0.224 -0.088 -0.432 -0.16 -0.984 -0.232c -0.016 -0.048 0 -0.176 0.016 -0.224c 0.432 -0.04 0.52 -0.08 0.52 -0.544v -1.56c 0 -0.664 -0.096 -0.696 -0.592 -0.728c -0.048 -0.048 -0.048 -0.216 0 -0.264c 0.28 0.008 0.592 0.016 0.912 0.016c 0.32 0 0.688 -0.008 0.968 -0.016c 0.048 0.048 0.048 0.216 0 0.264c -0.56 0.04 -0.656 0.064 -0.656 0.728v 1.112c 0 0.208 0.096 0.392 0.192 0.536c 0.088 0.128 0.272 0.392 0.368 0.392c 0.072 0 0.144 -0.016 0.208 -0.104c 0.056 -0.08 0.152 -0.184 0.288 -0.184c 0.192 0 0.376 0.2 0.376 0.4c 0 0.152 -0.144 0.384 -0.48 0.384c -0.376 0 -0.704 -0.352 -0.888 -0.664c -0.048 -0.088 -0.088 -0.024 -0.088 0.016Z "/></symbol><symbol id="g8D1B85E3ABA097AFFEFA8B147B26839C" overflow="visible"><path d="M 0 0m 1.24 0.632l 0.44 1.16c 0.04 0.104 0.088 0.136 0.28 0.136h 1.688l 0.464 -1.352c 0.096 -0.272 -0.208 -0.304 -0.592 -0.328c -0.048 -0.048 -0.048 -0.216 0 -0.264c 0.296 0.008 0.736 0.016 1.048 0.016c 0.328 0 0.632 -0.008 0.912 -0.016c 0.048 0.048 0.048 0.216 0 0.264c -0.312 0.032 -0.584 0.056 -0.72 0.44l -1.648 4.576c -0.12 -0.072 -0.336 -0.16 -0.44 -0.16l -1.816 -4.288c -0.208 -0.496 -0.448 -0.544 -0.8 -0.568c -0.048 -0.048 -0.048 -0.216 0 -0.264c 0.208 0.008 0.472 0.016 0.712 0.016c 0.328 0 0.728 -0.008 1.024 -0.016c 0.048 0.048 0.048 0.216 0 0.264c -0.304 0.024 -0.68 0.056 -0.552 0.384Z m 0.864 1.632c -0.176 0 -0.232 0.024 -0.2 0.104l 0.816 2.072h 0.048l 0.752 -2.176Z "/></symbol><symbol id="gE3B745958568E02614BCAB4547DCA2F1" overflow="visible"><path d="M 0 0m 1.248 2.944c -0.008 0.24 -0.024 0.448 -0.064 0.528c -0.016 0.04 -0.032 0.064 -0.096 0.064c -0.224 -0.088 -0.432 -0.16 -0.984 -0.232c -0.016 -0.048 0 -0.176 0.016 -0.224c 0.432 -0.04 0.52 -0.08 0.52 -0.544v -3.416c 0 -0.664 -0.088 -0.704 -0.576 -0.728c -0.048 -0.048 -0.048 -0.216 0 -0.264c 0.28 0.008 0.576 0.016 0.896 0.016c 0.32 0 0.704 -0.008 0.968 -0.016c 0.048 0.048 0.048 0.216 0 0.264c -0.568 0.032 -0.656 0.064 -0.656 0.728v 0.864c 0 0.104 0.032 0.096 0.112 0.064c 0.2 -0.08 0.44 -0.128 0.696 -0.128c 0.448 0 0.848 0.136 1.176 0.448c 0.376 0.368 0.592 0.864 0.592 1.512c 0 0.848 -0.6 1.632 -1.416 1.632c -0.368 0 -0.776 -0.24 -1.096 -0.6c -0.048 -0.048 -0.08 -0.048 -0.088 0.032Z m 0.152 -0.296c 0.208 0.256 0.576 0.496 0.808 0.496c 0.512 0 0.952 -0.576 0.952 -1.48c 0 -0.656 -0.232 -1.472 -1.128 -1.472c -0.144 0 -0.424 0.04 -0.568 0.168c -0.16 0.144 -0.192 0.192 -0.192 0.48v 1.456c 0 0.168 0.032 0.24 0.128 0.352Z "/></symbol><symbol id="g8C50DFC0B8272CD73341C65811BD0E92" overflow="visible"><path d="M 0 0m 2.304 0.976v 2.776c 0 0.48 0.008 0.968 0.024 1.072c 0 0.04 -0.016 0.04 -0.048 0.04c -0.44 -0.272 -0.864 -0.472 -1.568 -0.8c 0.016 -0.088 0.048 -0.168 0.12 -0.216c 0.368 0.152 0.544 0.2 0.696 0.2c 0.136 0 0.16 -0.192 0.16 -0.464v -2.608c 0 -0.664 -0.216 -0.704 -0.776 -0.728c -0.048 -0.048 -0.048 -0.216 0 -0.264c 0.392 0.008 0.68 0.016 1.112 0.016c 0.384 0 0.576 -0.008 0.976 -0.016c 0.048 0.048 0.048 0.216 0 0.264c -0.56 0.024 -0.696 0.064 -0.696 0.728Z "/></symbol><symbol id="g97663EC9AEA74EADA07472643E1BE1B4" overflow="visible"><path d="M 0 0m 1.824 -0.08c 0.616 0 1.552 0.624 1.552 2.504c 0 0.792 -0.192 1.472 -0.544 1.936c -0.208 0.28 -0.544 0.52 -0.976 0.52c -0.792 0 -1.544 -0.944 -1.544 -2.528c 0 -0.856 0.264 -1.656 0.704 -2.096c 0.224 -0.224 0.496 -0.336 0.808 -0.336Z m 0.032 4.68c 0.136 0 0.264 -0.048 0.36 -0.136c 0.248 -0.208 0.464 -0.816 0.464 -1.888c 0 -0.736 -0.024 -1.24 -0.136 -1.648c -0.176 -0.656 -0.568 -0.728 -0.712 -0.728c -0.744 0 -0.824 1.368 -0.824 2.064c 0 1.968 0.488 2.336 0.848 2.336Z "/></symbol><symbol id="gAD9C87F854BDA42EDABFFB35EC1FA84E" overflow="visible"><path d="M 0 0m 0.488 3.744c 0 -0.168 0.152 -0.312 0.32 -0.312c 0.136 0 0.376 0.144 0.376 0.32c 0 0.064 -0.016 0.112 -0.032 0.168c -0.016 0.056 -0.064 0.128 -0.064 0.192c 0 0.2 0.208 0.488 0.792 0.488c 0.288 0 0.696 -0.2 0.696 -0.968c 0 -0.512 -0.184 -0.928 -0.656 -1.408l -0.592 -0.584c -0.784 -0.8 -0.912 -1.184 -0.912 -1.656c 0 0 0.408 0.016 0.664 0.016h 1.4c 0.256 0 0.624 -0.016 0.624 -0.016c 0.104 0.424 0.184 1.024 0.192 1.264c -0.048 0.04 -0.152 0.056 -0.232 0.04c -0.136 -0.568 -0.272 -0.768 -0.56 -0.768h -1.424c 0 0.384 0.552 0.928 0.592 0.968l 0.808 0.776c 0.456 0.44 0.8 0.792 0.8 1.4c 0 0.864 -0.704 1.216 -1.352 1.216c -0.888 0 -1.44 -0.656 -1.44 -1.136Z "/></symbol><symbol id="g4DADFF8D06AE4DC17FB93571E5AFF437" overflow="visible"><path d="M 0 0m 1.72 4.6c 0.344 0 0.664 -0.208 0.664 -0.72c 0 -0.4 -0.464 -1.016 -1.256 -1.128l 0.04 -0.256c 0.136 0.016 0.28 0.016 0.384 0.016c 0.456 0 1.048 -0.128 1.048 -1.032c 0 -1.064 -0.712 -1.28 -0.992 -1.28c -0.408 0 -0.48 0.184 -0.576 0.328c -0.08 0.112 -0.184 0.208 -0.344 0.208c -0.168 0 -0.336 -0.152 -0.336 -0.28c 0 -0.32 0.672 -0.536 1.152 -0.536c 0.952 0 1.8 0.616 1.8 1.672c 0 0.872 -0.656 1.184 -1.128 1.264l -0.008 0.016c 0.656 0.312 0.84 0.64 0.84 1.064c 0 0.24 -0.056 0.432 -0.248 0.632c -0.176 0.176 -0.456 0.312 -0.872 0.312c -1.176 0 -1.512 -0.768 -1.512 -1.032c 0 -0.112 0.08 -0.272 0.272 -0.272c 0.28 0 0.312 0.264 0.312 0.416c 0 0.512 0.552 0.608 0.76 0.608Z "/></symbol><symbol id="gF821431C61A4D7F3ECEFEC074E9C0EFC" overflow="visible"><path d="M 0 0m 3.44 1.752h -0.664v 2.336c 0 0.4 0 0.712 0.016 0.776l -0.016 0.016h -0.256c -0.056 0 -0.096 -0.048 -0.128 -0.088c -0.504 -0.616 -1.432 -1.936 -2.168 -3.08c 0.024 -0.12 0.072 -0.336 0.312 -0.336h 1.632v -0.736c 0 -0.368 -0.304 -0.368 -0.648 -0.392c -0.048 -0.048 -0.048 -0.216 0 -0.264c 0.256 0.008 0.576 0.016 0.944 0.016c 0.312 0 0.616 -0.008 0.872 -0.016c 0.048 0.048 0.048 0.216 0 0.264c -0.392 0.032 -0.56 0.016 -0.56 0.392v 0.736h 0.552c 0.112 0 0.232 0.152 0.232 0.248c 0 0.08 -0.032 0.128 -0.12 0.128Z m -1.272 2.304v -2.304h -1.528c 0.408 0.656 0.976 1.552 1.528 2.304Z "/></symbol><symbol id="gD00C9D162D1CBC09F2F7551D594DBB72" overflow="visible"><path d="M 0 0m 2.552 1.512c 0 -0.76 -0.4 -1.32 -0.88 -1.32c -0.304 0 -0.408 0.2 -0.528 0.36c -0.104 0.136 -0.24 0.256 -0.408 0.256c -0.152 0 -0.304 -0.136 -0.304 -0.296c 0 -0.328 0.68 -0.6 1.136 -0.6c 0.992 0 1.696 0.736 1.696 1.744c 0 0.776 -0.536 1.472 -1.432 1.472c -0.344 0 -0.64 -0.072 -0.784 -0.128l 0.16 1.336c 0.296 -0.032 0.552 -0.072 0.936 -0.072c 0.24 0 0.512 0.016 0.84 0.048l 0.128 0.544l -0.056 0.032c -0.456 -0.048 -0.888 -0.088 -1.312 -0.088c -0.296 0 -0.584 0.016 -0.864 0.04l -0.272 -2.304c 0.424 0.16 0.728 0.192 1.016 0.192c 0.52 0 0.928 -0.344 0.928 -1.216Z "/></symbol><symbol id="gAFC6ADE0F4BA5C584B85DD0E8532505B" overflow="visible"><path d="M 0 0m 1.152 2.744c 0.216 0.728 0.728 1.536 1.792 1.936c 0 0.096 -0.032 0.168 -0.096 0.208c -0.808 -0.24 -1.304 -0.576 -1.752 -1.096c -0.496 -0.576 -0.744 -1.304 -0.744 -1.936c 0 -1.624 0.92 -1.944 1.536 -1.944c 1.048 0 1.48 1.016 1.48 1.704c 0 0.688 -0.368 1.304 -1.456 1.304c -0.208 0 -0.52 -0.064 -0.76 -0.176Z m -0.072 -0.288c 0.264 0.176 0.528 0.184 0.664 0.184c 0.784 0 0.96 -0.768 0.96 -1.168c 0 -0.88 -0.336 -1.28 -0.728 -1.28c -0.504 0 -0.96 0.272 -0.96 1.64c 0 0.184 0.016 0.392 0.064 0.624Z "/></symbol><symbol id="g7919E138A6B7887FFC9F09D86374A4A9" overflow="visible"><path d="M 0 0m 5.967 1.044c 0.045 -0.729 0.009 -0.738 -0.576 -0.765c -0.054 -0.054 -0.054 -0.243 0 -0.297c 0.333 0.009 0.693 0.018 0.963 0.018c 0.27 0 0.684 -0.009 0.981 -0.018c 0.054 0.054 0.054 0.243 0 0.297c -0.612 0.027 -0.639 0.063 -0.693 0.81l -0.27 3.789c -0.036 0.486 0.009 0.612 0.621 0.648c 0.054 0.054 0.054 0.243 0 0.297l -1.179 -0.018l -1.908 -4.563c -0.036 -0.09 -0.063 -0.126 -0.081 -0.126c -0.018 0 -0.045 0.045 -0.072 0.117l -1.845 4.572l -1.305 0.018c -0.054 -0.054 -0.054 -0.243 0 -0.297c 0.621 -0.036 0.675 -0.054 0.612 -0.729l -0.36 -3.708c -0.054 -0.54 -0.162 -0.765 -0.675 -0.81c -0.054 -0.054 -0.054 -0.243 0 -0.297c 0.27 0.009 0.558 0.018 0.774 0.018c 0.216 0 0.576 -0.009 0.846 -0.018c 0.054 0.054 0.054 0.243 0 0.297c -0.594 0.045 -0.639 0.324 -0.594 0.828l 0.342 3.609h 0.018l 1.863 -4.671c 0.027 -0.063 0.081 -0.135 0.135 -0.135c 0.054 0 0.09 0.063 0.126 0.135l 2.025 4.761h 0.018Z "/></symbol><symbol id="gF71CD90141C058754731CB923424AFF5" overflow="visible"><path d="M 0 0m 0.369 1.845c 0 -0.918 0.612 -1.935 1.89 -1.935c 0.576 0 1.017 0.207 1.323 0.504c 0.405 0.396 0.585 0.963 0.585 1.512c 0 0.936 -0.513 2.025 -1.89 2.025c -0.594 0 -1.08 -0.243 -1.413 -0.63c -0.324 -0.387 -0.495 -0.909 -0.495 -1.476Z m 1.773 1.791c 0.774 0 1.251 -0.702 1.251 -1.998c 0 -1.134 -0.585 -1.413 -1.008 -1.413c -0.936 0 -1.242 1.134 -1.242 1.827c 0 0.783 0.189 1.584 0.999 1.584Z "/></symbol><symbol id="g75829AE9E8B7E42D7FCDFD5712A16351" overflow="visible"><path d="M 0 0m 1.656 3.222c -0.054 -0.063 -0.108 -0.081 -0.108 0c -0.009 0.243 -0.027 0.594 -0.072 0.684c -0.018 0.045 -0.036 0.072 -0.108 0.072c -0.252 -0.099 -0.486 -0.18 -1.107 -0.261c -0.018 -0.054 0 -0.198 0.018 -0.252c 0.486 -0.045 0.585 -0.09 0.585 -0.612v -1.755c 0 -0.738 -0.09 -0.774 -0.63 -0.819c -0.054 -0.054 -0.054 -0.243 0 -0.297c 0.27 0.009 0.63 0.018 0.99 0.018c 0.36 0 0.63 -0.009 0.9 -0.018c 0.054 0.054 0.054 0.243 0 0.297c -0.459 0.045 -0.549 0.081 -0.549 0.819v 1.476c 0 0.189 0.081 0.297 0.153 0.378c 0.342 0.333 0.747 0.531 1.098 0.531c 0.18 0 0.369 -0.117 0.477 -0.324c 0.09 -0.18 0.108 -0.423 0.108 -0.693v -1.368c 0 -0.738 -0.09 -0.774 -0.558 -0.819c -0.045 -0.054 -0.045 -0.243 0 -0.297c 0.27 0.009 0.558 0.018 0.918 0.018c 0.36 0 0.684 -0.009 0.954 -0.018c 0.045 0.054 0.045 0.243 0 0.297c -0.504 0.045 -0.603 0.081 -0.603 0.819v 1.341c 0 0.495 -0.036 0.927 -0.243 1.206c -0.153 0.198 -0.432 0.306 -0.747 0.306c -0.441 0 -0.945 -0.117 -1.476 -0.729Z "/></symbol><symbol id="g5277906DC426125FD25A938CB480528C" overflow="visible"><path d="M 0 0m 0.387 3.861c -0.126 0 -0.162 -0.108 -0.162 -0.18v -0.117c 0 -0.045 0.009 -0.054 0.045 -0.054h 0.531v -2.709c 0 -0.639 0.279 -0.891 0.693 -0.891c 0.414 0 0.864 0.198 1.215 0.594c -0.018 0.09 -0.072 0.144 -0.162 0.153c -0.234 -0.18 -0.504 -0.252 -0.738 -0.252c -0.243 0 -0.297 0.27 -0.297 0.828v 2.277h 0.936c 0.09 0 0.216 0.036 0.216 0.117v 0.18c 0 0.036 -0.027 0.054 -0.072 0.054h -1.08v 0.351c 0 0.585 0.036 0.945 0.036 0.945c 0 0.054 -0.027 0.081 -0.072 0.081c -0.036 0 -0.117 -0.036 -0.198 -0.081c -0.099 -0.054 -0.189 -0.099 -0.306 -0.126c -0.108 -0.036 -0.198 -0.063 -0.198 -0.126c 0 -0.108 0.027 -0.045 0.027 -1.044Z "/></symbol><symbol id="g6547456983017125BAABA1DD3FE7B939" overflow="visible"><path d="M 0 0m 1.503 2.574c 0 0.189 0.081 0.297 0.153 0.378c 0.342 0.333 0.801 0.531 1.152 0.531c 0.18 0 0.369 -0.117 0.477 -0.324c 0.09 -0.18 0.108 -0.423 0.108 -0.693v -1.368c 0 -0.738 -0.09 -0.774 -0.558 -0.819c -0.045 -0.054 -0.045 -0.243 0 -0.297c 0.252 0.009 0.558 0.018 0.918 0.018c 0.36 0 0.657 -0.009 0.954 -0.018c 0.045 0.054 0.045 0.243 0 0.297c -0.504 0.045 -0.603 0.081 -0.603 0.819v 1.341c 0 0.495 -0.036 0.936 -0.243 1.206c -0.153 0.198 -0.432 0.306 -0.747 0.306c -0.441 0 -0.981 -0.117 -1.53 -0.729c 0 -0.009 -0.009 -0.009 -0.018 -0.018c -0.027 -0.036 -0.072 -0.09 -0.072 0.018l 0.009 2.025c 0 0.585 0.036 0.945 0.036 0.945c 0 0.063 -0.036 0.09 -0.117 0.09c -0.225 -0.09 -0.9 -0.216 -1.26 -0.243c -0.018 -0.072 0 -0.216 0.054 -0.27c 0.027 0 0.054 0 0.081 0c 0.396 -0.027 0.495 -0.027 0.495 -0.738v -3.933c 0 -0.747 -0.108 -0.783 -0.63 -0.819c -0.054 -0.054 -0.054 -0.243 0 -0.297c 0.297 0.009 0.63 0.018 0.99 0.018c 0.342 0 0.639 -0.009 0.891 -0.018c 0.054 0.054 0.054 0.243 0 0.297c -0.459 0.036 -0.54 0.072 -0.54 0.819Z "/></symbol><symbol id="gA25977750DF0B39512646F59A0F0B8CA" overflow="visible"><path d="M 0 0m 4.032 5.526c 0.666 -0.045 0.666 -0.288 0.477 -0.774l -1.422 -3.609h -0.036l -1.44 3.663c -0.207 0.54 -0.153 0.657 0.459 0.72c 0.054 0.054 0.054 0.243 0 0.297c -0.36 -0.009 -0.765 -0.018 -1.089 -0.018c -0.324 0 -0.639 0.009 -0.936 0.018c -0.054 -0.054 -0.045 -0.243 0.009 -0.297c 0.495 -0.045 0.567 -0.198 0.81 -0.819l 1.773 -4.608c 0.054 -0.144 0.117 -0.207 0.207 -0.207c 0.099 0 0.162 0.081 0.216 0.207l 1.863 4.59c 0.171 0.423 0.315 0.774 0.882 0.837c 0.054 0.054 0.054 0.243 0 0.297c -0.27 -0.009 -0.585 -0.018 -0.792 -0.018c -0.207 0 -0.612 0.009 -0.981 0.018c -0.054 -0.054 -0.054 -0.243 0 -0.297Z "/></symbol><symbol id="gEDE113971A7C9D129D6A2104959F55B2" overflow="visible"><path d="M 0 0m 1.629 1.098v 1.791c 0 0.45 0.036 1.026 0.036 1.026c 0 0.036 -0.045 0.063 -0.117 0.063c -0.252 -0.099 -0.612 -0.18 -1.233 -0.261c -0.018 -0.054 0 -0.198 0.018 -0.252c 0.495 -0.045 0.585 -0.099 0.585 -0.612v -1.755c 0 -0.747 -0.099 -0.774 -0.648 -0.819c -0.054 -0.054 -0.054 -0.243 0 -0.297c 0.297 0.009 0.648 0.018 1.008 0.018c 0.36 0 0.702 -0.009 0.999 -0.018c 0.054 0.054 0.054 0.243 0 0.297c -0.549 0.036 -0.648 0.072 -0.648 0.819Z m -0.819 4.293c 0 -0.234 0.216 -0.468 0.432 -0.468c 0.252 0 0.468 0.243 0.468 0.432c 0 0.216 -0.189 0.468 -0.432 0.468c -0.216 0 -0.468 -0.216 -0.468 -0.432Z "/></symbol><symbol id="gA1FEA12DCE93D0EA0BBFC1201B9D8E1C" overflow="visible"><path d="M 0 0m 0.432 1.242c 0.036 -0.441 0.063 -0.864 0.063 -1.242c 0.09 0.018 0.18 0.027 0.225 0.027c 0.063 0 0.117 0 0.18 -0.018c 0.243 -0.063 0.486 -0.099 0.819 -0.099c 0.504 0 1.431 0.243 1.431 1.134c 0 0.612 -0.441 0.972 -1.053 1.197c -0.54 0.207 -0.9 0.342 -0.9 0.837c 0 0.369 0.324 0.576 0.63 0.576c 0.198 0 0.72 -0.072 0.837 -0.837c 0.054 -0.054 0.234 -0.045 0.288 0.009c 0.027 0.324 0.045 0.657 0.054 0.954c -0.279 0.045 -0.711 0.171 -1.179 0.171c -0.666 0 -1.269 -0.432 -1.269 -1.008c 0 -0.657 0.297 -0.936 0.99 -1.224c 0.747 -0.306 0.918 -0.495 0.918 -0.882c 0 -0.441 -0.432 -0.63 -0.765 -0.63c -0.351 0 -0.549 0.117 -0.639 0.216c -0.198 0.207 -0.297 0.603 -0.351 0.828c -0.054 0.054 -0.225 0.045 -0.279 -0.009Z "/></symbol></defs><defs><clipPath id="c35241B9CFE2A3A8F530425C39F150AC0"><path d="M 0 0h 305.877165354v 149.963559055h -305.877165354Z "/></clipPath></defs></svg>