<svg viewBox="0 0 351.157480315 209.42519685" width="351.157480315pt" height="209.42519685pt" xmlns="http://www.w3.org/2000/svg" xmlns:xlink="http://www.w3.org/1999/xlink" xmlns:h5="http://www.w3.org/1999/xhtml"><path fill="#fafafa" fill-rule="nonzero" d="M 0 0v 209.42519685h 351.157480315v -209.42519685Z "/><g transform="translate(5.5 5.5)"><path fill="#fafafa" fill-rule="nonzero" d="M 0 0v 198.42519685h 340.157480315v -198.42519685Z "/><g transform="translate(5 5)"><g><g transform="matrix(1 0 0 -1 0 7.74)"><use xlink:href="#g7C8B8CE2FA3271B2DB9D5C00ED33FFB8" x="0" y="0" fill="#111827" fill-rule="nonzero"/><use xlink:href="#gA421F3DD5F2809E5ED8290B7EF6AAC43" x="11.88" y="0" fill="#111827" fill-rule="nonzero"/><use xlink:href="#g3E13159425B4C5FA6BE9D46173183F7B" x="17.928" y="0" fill="#111827" fill-rule="nonzero"/><use xlink:href="#gE18113BE1243CA6EC5596891CC422939" x="22.224" y="0" fill="#111827" fill-rule="nonzero"/><use xlink:href="#g60E64311C0ACD550FD96BE9E58C78EBF" x="28.092" y="0" fill="#111827" fill-rule="nonzero"/><use xlink:href="#g60E64311C0ACD550FD96BE9E58C78EBF" x="35.064" y="0" fill="#111827" fill-rule="nonzero"/><use xlink:href="#gE18113BE1243CA6EC5596891CC422939" x="42.12" y="0" fill="#111827" fill-rule="nonzero"/><use xlink:href="#g6318351890DB0E292B53BA9E457E848C" x="48.072" y="0" fill="#111827" fill-rule="nonzero"/><use xlink:href="#g7C8B8CE2FA3271B2DB9D5C00ED33FFB8" x="57.804" y="0" fill="#111827" fill-rule="nonzero"/><use xlink:href="#g56D9AC69DF1E60AEC4FA898FA388366B" x="66.684" y="0" fill="#111827" fill-rule="nonzero"/><use xlink:href="#gE18113BE1243CA6EC5596891CC422939" x="71.724" y="0" fill="#111827" fill-rule="nonzero"/><use xlink:href="#gDC05A2A7E4AEFCF99C6614634AF8B2F0" x="77.592" y="0" fill="#111827" fill-rule="nonzero"/></g></g><g transform="translate(0 14.94)"><path fill="none" stroke="#b4b6bb" stroke-width="0.2" stroke-linecap="butt" stroke-linejoin="miter" stroke-miterlimit="4" transform="translate(70.02507709)" d="M 0 0m 0 149.963559055v -149.963559055"/><path fill="none" stroke="#b4b6bb" stroke-width="0.2" stroke-linecap="butt" stroke-linejoin="miter" stroke-miterlimit="4" transform="translate(140.247624122)" d="M 0 0m 0 149.963559055v -149.963559055"/><path fill="none" stroke="#b4b6bb" stroke-width="0.2" stroke-linecap="butt" stroke-linejoin="miter" stroke-miterlimit="4" transform="translate(210.470171154)" d="M 0 0m 0 149.963559055v -149.963559055"/><path fill="none" stroke="#b4b6bb" stroke-width="0.2" stroke-linecap="butt" stroke-linejoin="miter" stroke-miterlimit="4" transform="translate(280.692718186)" d="M 0 0m 0 149.963559055v -149.963559055"/><path fill="none" stroke="#b4b6bb" stroke-width="0.4" stroke-linecap="butt" stroke-linejoin="miter" stroke-miterlimit="4" transform="translate(34.913803574)" d="M 0 0m 0 149.963559055v -149.963559055"/><path fill="none" transform="translate(33.053803574 152.798204724)" d="M 0 0h 3.72v 5.344h -3.72v -5.344Z "/><g transform="translate(33.053803479 152.798204646)"><g transform="matrix(1 0 0 -1 0 5.264)"><use xlink:href="#g97663EC9AEA74EADA07472643E1BE1B4" x="0" y="0" fill="#111827" fill-rule="nonzero"/></g></g><path fill="none" stroke="#b4b6bb" stroke-width="0.4" stroke-linecap="butt" stroke-linejoin="miter" stroke-miterlimit="4" transform="translate(105.136350606)" d="M 0 0m 0 149.963559055v -149.963559055"/><path fill="none" transform="translate(103.276350606 152.798204724)" d="M 0 0h 3.72v 5.28h -3.72v -5.28Z "/><g transform="translate(103.276350511 152.798204677)"><g transform="matrix(1 0 0 -1 0 5.264)"><use xlink:href="#g8C50DFC0B8272CD73341C65811BD0E92" x="0" y="0" fill="#111827" fill-rule="nonzero"/></g></g><path fill="none" stroke="#b4b6bb" stroke-width="0.4" stroke-linecap="butt" stroke-linejoin="miter" stroke-miterlimit="4" transform="translate(175.358897638)" d="M 0 0m 0 149.963559055v -149.963559055"/><path fill="none" transform="translate(173.498897638 152.798204724)" d="M 0 0h 3.72v 5.28h -3.72v -5.28Z "/><g transform="translate(173.498897543 152.798204677)"><g transform="matrix(1 0 0 -1 0 5.264)"><use xlink:href="#gAD9C87F854BDA42EDABFFB35EC1FA84E" x="0" y="0" fill="#111827" fill-rule="nonzero"/></g></g><path fill="none" stroke="#b4b6bb" stroke-width="0.4" stroke-linecap="butt" stroke-linejoin="miter" stroke-miterlimit="4" transform="translate(245.58144467)" d="M 0 0m 0 149.963559055v -149.963559055"/><path fill="none" transform="translate(243.72144467 152.798204724)" d="M 0 0h 3.72v 5.344h -3.72v -5.344Z "/><g transform="translate(243.721444575 152.798204646)"><g transform="matrix(1 0 0 -1 0 5.264)"><use xlink:href="#g4DADFF8D06AE4DC17FB93571E5AFF437" x="0" y="0" fill="#111827" fill-rule="nonzero"/></g></g><path fill="none" stroke="#b4b6bb" stroke-width="0.4" stroke-linecap="butt" stroke-linejoin="miter" stroke-miterlimit="4" transform="translate(315.803991702)" d="M 0 0m 0 149.963559055v -149.963559055"/><path fill="none" transform="translate(313.943991702 152.798204724)" d="M 0 0h 3.72v 5.28h -3.72v -5.28Z "/><g transform="translate(313.943991607 152.798204677)"><g transform="matrix(1 0 0 -1 0 5.264)"><use xlink:href="#gF821431C61A4D7F3ECEFEC074E9C0EFC" x="0" y="0" fill="#111827" fill-rule="nonzero"/></g></g><path fill="none" stroke="#b4b6bb" stroke-width="0.2" stroke-linecap="butt" stroke-linejoin="miter" stroke-miterlimit="4" transform="translate(20.560314961 138.061689289)" d="M 0 0h 309.597165354"/><path fill="none" stroke="#b4b6bb" stroke-width="0.2" stroke-linecap="butt" stroke-linejoin="miter" stroke-miterlimit="4" transform="translate(20.560314961 114.257949756)" d="M 0 0h 309.597165354"/><path fill="none" stroke="#b4b6bb" stroke-width="0.2" stroke-linecap="butt" stroke-linejoin="miter" stroke-miterlimit="4" transform="translate(20.560314961 90.454210224)" d="M 0 0h 309.597165354"/><path fill="none" stroke="#b4b6bb" stroke-width="0.2" stroke-linecap="butt" stroke-linejoin="miter" stroke-miterlimit="4" transform="translate(20.560314961 66.650470691)" d="M 0 0h 309.597165354"/><path fill="none" stroke="#b4b6bb" stroke-width="0.2" stroke-linecap="butt" stroke-linejoin="miter" stroke-miterlimit="4" transform="translate(20.560314961 42.846731159)" d="M 0 0h 309.597165354"/><path fill="none" stroke="#b4b6bb" stroke-width="0.2" stroke-linecap="butt" stroke-linejoin="miter" stroke-miterlimit="4" transform="translate(20.560314961 19.042991626)" d="M 0 0h 309.597165354"/><path fill="none" stroke="#b4b6bb" stroke-width="0.4" stroke-linecap="butt" stroke-linejoin="miter" stroke-miterlimit="4" transform="translate(20.560314961 149.963559055)" d="M 0 0h 309.597165354"/><path fill="none" transform="translate(14.005669291 147.291559055)" d="M 0 0h 3.72v 5.344h -3.72v -5.344Z "/><g transform="translate(14.005669197 147.291558976)"><g transform="matrix(1 0 0 -1 0 5.264)"><use xlink:href="#g97663EC9AEA74EADA07472643E1BE1B4" x="0" y="0" fill="#111827" fill-rule="nonzero"/></g></g><path fill="none" stroke="#b4b6bb" stroke-width="0.4" stroke-linecap="butt" stroke-linejoin="miter" stroke-miterlimit="4" transform="translate(20.560314961 126.159819523)" d="M 0 0h 309.597165354"/><path fill="none" transform="translate(14.005669291 123.519819523)" d="M 0 0h 3.72v 5.28h -3.72v -5.28Z "/><g transform="translate(14.005669197 123.519819475)"><g transform="matrix(1 0 0 -1 0 5.264)"><use xlink:href="#g8C50DFC0B8272CD73341C65811BD0E92" x="0" y="0" fill="#111827" fill-rule="nonzero"/></g></g><path fill="none" stroke="#b4b6bb" stroke-width="0.4" stroke-linecap="butt" stroke-linejoin="miter" stroke-miterlimit="4" transform="translate(20.560314961 102.35607999)" d="M 0 0h 309.597165354"/><path fill="none" transform="translate(14.005669291 99.71607999)" d="M 0 0h 3.72v 5.28h -3.72v -5.28Z "/><g transform="translate(14.005669197 99.716079943)"><g transform="matrix(1 0 0 -1 0 5.264)"><use xlink:href="#gAD9C87F854BDA42EDABFFB35EC1FA84E" x="0" y="0" fill="#111827" fill-rule="nonzero"/></g></g><path fill="none" stroke="#b4b6bb" stroke-width="0.4" stroke-linecap="butt" stroke-linejoin="miter" stroke-miterlimit="4" transform="translate(20.560314961 78.552340457)" d="M 0 0h 309.597165354"/><path fill="none" transform="translate(14.005669291 75.880340457)" d="M 0 0h 3.72v 5.344h -3.72v -5.344Z "/><g transform="translate(14.005669197 75.880340379)"><g transform="matrix(1 0 0 -1 0 5.264)"><use xlink:href="#g4DADFF8D06AE4DC17FB93571E5AFF437" x="0" y="0" fill="#111827" fill-rule="nonzero"/></g></g><path fill="none" stroke="#b4b6bb" stroke-width="0.4" stroke-linecap="butt" stroke-linejoin="miter" stroke-miterlimit="4" transform="translate(20.560314961 54.748600925)" d="M 0 0h 309.597165354"/><path fill="none" transform="translate(14.005669291 52.108600925)" d="M 0 0h 3.72v 5.28h -3.72v -5.28Z "/><g transform="translate(14.005669197 52.108600878)"><g transform="matrix(1 0 0 -1 0 5.264)"><use xlink:href="#gF821431C61A4D7F3ECEFEC074E9C0EFC" x="0" y="0" fill="#111827" fill-rule="nonzero"/></g></g><path fill="none" stroke="#b4b6bb" stroke-width="0.4" stroke-linecap="butt" stroke-linejoin="miter" stroke-miterlimit="4" transform="translate(20.560314961 30.944861392)" d="M 0 0h 309.597165354"/><path fill="none" transform="translate(14.005669291 28.268861392)" d="M 0 0h 3.72v 5.352h -3.72v -5.352Z "/><g transform="translate(14.005669197 28.268861345)"><g transform="matrix(1 0 0 -1 0 5.264)"><use xlink:href="#gD00C9D162D1CBC09F2F7551D594DBB72" x="0" y="0" fill="#111827" fill-rule="nonzero"/></g></g><path fill="none" stroke="#b4b6bb" stroke-width="0.4" stroke-linecap="butt" stroke-linejoin="miter" stroke-miterlimit="4" transform="translate(20.560314961 7.14112186)" d="M 0 0h 309.597165354"/><path fill="none" transform="translate(14.005669291 4.46512186)" d="M 0 0h 3.72v 5.352h -3.72v -5.352Z "/><g transform="translate(14.005669197 4.465121813)"><g transform="matrix(1 0 0 -1 0 5.264)"><use xlink:href="#gAFC6ADE0F4BA5C584B85DD0E8532505B" x="0" y="0" fill="#111827" fill-rule="nonzero"/></g></g><path fill="none" transform="translate(20.560314961 0)" d="M 0 0h 309.597165354v 149.963559055h -309.597165354v -149.963559055Z "/><g transform="translate(20.560314961 -1.26e-7)"><g clip-path="url(#cEF2FD4F247C7C75097FEB7EC3EDCDA63)"><g><path fill="#63677180" fill-rule="nonzero" transform="translate(14.072598425 7.14112186)" d="M 0 0m 0 142.822437195h 0.280890188v -47.607479065h 0.280890188v -0.285644874h 69.660766656v -70.839928849h 0.280890188v -0.285644874h 0.280890188v 0.190429916h 69.660766656v 47.226619233h 0.280890188v 0.190429916h 0.280890188v -0.285644874h 69.660766656v -70.839928849h 0.280890188v -0.285644874h 0.280890188v 0.190429916h 69.660766656v 47.226619233h 0.280890188v 0.190429916h 0.280890188v 95.21495813h -0.280890188h -0.280890188h -69.660766656h -0.280890188h -0.280890188h -69.660766656h -0.280890188h -0.280890188h -69.660766656h -0.280890188h -0.280890188h -69.660766656h -0.280890188h -0.280890188Z "/></g></g></g><path fill="none" transform="translate(173.153897638 166.127874016)" d="M 0 0h 4.41v 5.94h -4.41v -5.94Z "/><g transform="translate(173.153897638 166.127874016)"><g transform="matrix(1 0 0 -1 0 5.922)"><use xlink:href="#g5753A6CBD42AFBCBE5DCDB8271F3FBDD" x="0" y="0" fill="#111827" fill-rule="nonzero"/></g></g><path fill="none" transform="translate(0.497834646 72.664279528)" d="M 0 0m 0 4.635v -4.635h 8.01v 4.635h -8.01Z "/><g transform="matrix(0 -1 1 0 0.497834504 77.299279528)"><g transform="matrix(1 0 0 -1 0 5.922)"><use xlink:href="#gB7ADC05C7CC292D7AE42D71EE1DDDCEC" x="0" y="0" fill="#111827" fill-rule="nonzero"/></g></g></g></g></g><defs><symbol id="g7C8B8CE2FA3271B2DB9D5C00ED33FFB8" overflow="visible"><path d="M 0 0m 1.98 0.948l 0.636 1.668c 0.06 0.156 0.132 0.204 0.42 0.204h 2.28l 0.672 -1.956c 0.144 -0.432 -0.204 -0.444 -0.66 -0.468c -0.072 0 -0.156 -0.012 -0.228 -0.012c -0.072 -0.072 -0.072 -0.336 0 -0.408c 0.444 0.012 1.584 0.024 2.052 0.024c 0.492 0 1.164 -0.012 1.608 -0.024c 0.072 0.072 0.072 0.336 0 0.408c -0.468 0.048 -0.864 0.036 -1.08 0.648l -2.472 6.864c -0.18 -0.108 -0.9 -0.528 -1.32 -0.528l -2.604 -6.144c -0.312 -0.744 -0.672 -0.804 -1.2 -0.84c -0.072 -0.072 -0.072 -0.336 0 -0.408c 0.444 0.012 0.66 0.024 1.128 0.024c 0.492 0 1.152 -0.012 1.596 -0.024c 0.072 0.072 0.072 0.336 0 0.408c -0.456 0.036 -1.02 0.072 -0.828 0.564Z m 1.296 2.448c -0.264 0 -0.348 0.036 -0.3 0.156l 1.056 2.688h 0.084l 0.984 -2.844Z "/></symbol><symbol id="gA421F3DD5F2809E5ED8290B7EF6AAC43" overflow="visible"><path d="M 0 0m 5.052 7.572c -0.66 0.096 -0.912 0.324 -2.028 0.324c -0.54 0 -1.248 -0.168 -1.752 -0.576c -0.444 -0.36 -0.78 -0.912 -0.78 -1.5c 0 -0.456 0.12 -1.032 0.396 -1.392c 0.552 -0.744 1.548 -1.152 2.064 -1.512c 0.552 -0.384 1.092 -0.864 1.092 -1.536c 0 -0.588 -0.516 -0.996 -1.248 -0.996c -0.804 0 -1.632 0.66 -1.872 1.752c -0.192 0.072 -0.384 0.024 -0.564 -0.024c -0.012 0 -0.024 -0.012 -0.036 -0.012c 0 -0.9 0.096 -1.536 0.228 -1.98c 0.684 0 0.72 -0.24 2.376 -0.24c 0.732 0 1.32 0.216 1.812 0.66c 0.432 0.372 0.816 0.924 0.816 1.668c 0 0.624 -0.264 1.044 -0.624 1.44c -0.468 0.516 -1.14 0.888 -1.608 1.128c -0.48 0.24 -1.332 0.864 -1.332 1.548c 0 0.672 0.408 1.08 1.02 1.08c 1.02 0 1.356 -0.924 1.572 -1.716c 0.168 -0.048 0.468 -0.048 0.6 0.06c 0 0.636 -0.048 1.128 -0.132 1.824Z "/></symbol><symbol id="g3E13159425B4C5FA6BE9D46173183F7B" overflow="visible"><path d="M 0 0m 0.756 5.208c -0.168 0 -0.348 -0.048 -0.504 -0.18v -0.348c 0 -0.06 0.012 -0.072 0.06 -0.072h 0.78c -0.024 -1.212 -0.036 -2.748 -0.036 -3.348c 0 -0.42 0.108 -0.828 0.36 -1.044c 0.276 -0.228 0.708 -0.336 0.996 -0.336c 0.66 0 1.392 0.336 1.632 0.672c 0 0.144 -0.072 0.216 -0.216 0.336c -0.156 -0.12 -0.456 -0.168 -0.684 -0.168c -0.264 0 -0.528 0.204 -0.528 0.804c 0 0.6 -0.012 1.884 -0.012 3.084h 1.212c 0.12 0 0.288 0.048 0.288 0.156v 0.372c 0 0.048 -0.036 0.072 -0.096 0.072h -1.404l 0.012 0.408c 0.024 0.804 0.06 1.356 0.06 1.356c 0 0.072 -0.036 0.108 -0.096 0.108c -0.084 0 -0.528 -0.132 -0.72 -0.216c -0.204 -0.084 -0.552 -0.156 -0.636 -0.264c -0.084 -0.108 -0.132 -0.432 -0.132 -1.392Z "/></symbol><symbol id="gE18113BE1243CA6EC5596891CC422939" overflow="visible"><path d="M 0 0m 5.172 1.548c -0.492 -0.504 -1.14 -0.636 -1.596 -0.636c -0.936 0 -1.512 0.54 -1.512 1.716c 0 0.084 0.012 0.132 0.012 0.192h 2.88c 0.288 0 0.348 0.204 0.348 0.372c 0 1.02 -0.396 2.136 -2.16 2.136c -1.26 0 -2.7 -1.116 -2.7 -2.952c 0 -0.696 0.252 -1.428 0.768 -1.896c 0.456 -0.408 1.044 -0.6 1.896 -0.6c 0.828 0 1.644 0.42 2.244 1.296c 0 0.156 -0.06 0.372 -0.18 0.372Z m -3.048 1.752c 0.012 0.42 0.072 0.876 0.24 1.116c 0.192 0.288 0.516 0.408 0.648 0.408c 0.324 0 0.768 -0.312 0.768 -1.272c 0 -0.072 0 -0.228 -0.024 -0.252Z "/></symbol><symbol id="g60E64311C0ACD550FD96BE9E58C78EBF" overflow="visible"><path d="M 0 0m 1.14 3.708v -5.028c 0 -0.996 -0.132 -1.02 -0.864 -1.08c -0.072 -0.072 -0.072 -0.336 0 -0.408c 0.504 0.012 1.008 0.024 1.644 0.024c 0.636 0 1.128 -0.012 1.644 -0.024c 0.072 0.072 0.072 0.336 0 0.408c -0.732 0.048 -0.864 0.084 -0.864 1.08v 1.404c 0.264 -0.132 0.516 -0.204 0.804 -0.204c 1.824 0 3.012 1.2 3.012 2.964c 0 0.672 -0.252 1.416 -0.72 1.884c -0.42 0.42 -1.02 0.6 -1.644 0.6c -0.348 0 -0.996 -0.42 -1.416 -0.804h -0.072c -0.024 0.336 -0.06 0.6 -0.06 0.6c -0.012 0.144 -0.108 0.204 -0.276 0.204c -0.444 -0.12 -1.164 -0.288 -1.992 -0.396c -0.024 -0.072 0 -0.312 0.024 -0.384c 0.66 -0.06 0.78 -0.156 0.78 -0.84Z m 1.56 -2.928v 3.072c 0 0.072 0 0.132 0 0.204c 0.348 0.312 0.792 0.468 1.068 0.468c 0.492 0 1.068 -0.6 1.068 -2.004c 0 -1.008 -0.36 -2.136 -1.404 -2.136c -0.132 0 -0.432 0.072 -0.732 0.396Z "/></symbol><symbol id="g6318351890DB0E292B53BA9E457E848C" overflow="visible"><path d="M 0 0m 4.26 0.576c 0.024 -0.288 0.048 -0.492 0.048 -0.492c 0.012 -0.144 0.108 -0.204 0.276 -0.204c 0.444 0.12 1.164 0.288 1.992 0.396c 0.024 0.072 0 0.312 -0.024 0.384c -0.648 0.06 -0.78 0.252 -0.78 0.936v 5.4c 0 0.78 0.036 1.224 0.036 1.224c 0 0.108 -0.084 0.156 -0.192 0.156c -0.444 -0.144 -1.404 -0.276 -2.256 -0.312c -0.036 -0.144 -0.024 -0.3 0.036 -0.408c 0.756 -0.06 0.816 -0.072 0.816 -0.9v -1.56c -0.228 0.072 -0.516 0.132 -0.864 0.132c -1.548 0 -2.904 -1.356 -2.904 -2.952c 0 -0.708 0.252 -1.536 0.84 -1.992c 0.432 -0.336 0.732 -0.504 1.404 -0.504c 0.324 0 1.212 0.528 1.464 0.696Z m -0.036 0.564c -0.252 -0.204 -0.888 -0.468 -1.032 -0.468c -0.6 0 -1.068 0.672 -1.068 2.076c 0 0.636 0.072 1.188 0.3 1.56c 0.204 0.324 0.528 0.516 0.888 0.516c 0.312 0 0.612 -0.036 0.9 -0.432v -2.952c 0 -0.096 0 -0.204 0.012 -0.3Z "/></symbol><symbol id="g56D9AC69DF1E60AEC4FA898FA388366B" overflow="visible"><path d="M 0 0m 2.736 3.216c 0 0.432 0.132 0.612 0.288 0.792c 0.096 0.12 0.204 0.204 0.384 0.204c 0.108 0 0.24 -0.108 0.336 -0.228c 0.084 -0.096 0.288 -0.192 0.564 -0.192c 0.348 0 0.684 0.36 0.684 0.864c 0 0.312 -0.36 0.672 -0.792 0.672c -0.42 0 -0.876 -0.36 -1.428 -1.152h -0.048c -0.024 0.36 -0.084 0.948 -0.084 0.948c -0.012 0.108 -0.108 0.204 -0.276 0.204c -0.564 -0.144 -1.2 -0.312 -1.992 -0.396c -0.024 -0.072 0 -0.3 0.024 -0.372c 0.66 -0.06 0.78 -0.168 0.78 -0.852v -2.244c 0 -0.996 -0.132 -1.02 -0.864 -1.08c -0.072 -0.072 -0.072 -0.336 0 -0.408c 0.504 0.012 1.008 0.024 1.644 0.024c 0.636 0 1.128 -0.012 1.644 -0.024c 0.072 0.072 0.072 0.336 0 0.408c -0.732 0.048 -0.864 0.084 -0.864 1.08Z "/></symbol><symbol id="gDC05A2A7E4AEFCF99C6614634AF8B2F0" overflow="visible"><path d="M 0 0m 3.54 0.588c 0.084 -0.492 0.408 -0.708 0.936 -0.708c 0.66 0 1.128 0.252 1.572 0.672c -0.024 0.144 -0.072 0.24 -0.216 0.336c -0.156 -0.12 -0.276 -0.168 -0.504 -0.168c -0.264 0 -0.336 0.216 -0.336 0.804l 0.024 1.728c 0 1.728 -1.068 2.076 -2.052 2.076c -0.876 0 -2.22 -0.504 -2.22 -1.296c 0 -0.336 0.144 -0.6 0.612 -0.6c 0.432 0 0.744 0.264 0.744 0.552c 0 0.06 -0.012 0.132 -0.024 0.204c -0.024 0.12 -0.048 0.24 -0.024 0.36c 0.012 0.132 0.108 0.276 0.504 0.276c 0.504 0 0.924 -0.216 0.924 -1.74l -0.804 -0.252c -1.26 -0.396 -2.148 -0.744 -2.148 -1.692c 0 -0.828 0.456 -1.26 1.5 -1.26c 0.348 0 1.044 0.384 1.44 0.696Z m -0.06 2.028v -1.584c -0.3 -0.24 -0.6 -0.432 -0.816 -0.432c -0.516 0 -0.696 0.348 -0.696 0.72c 0 0.444 0.036 0.816 0.888 1.092Z "/></symbol><symbol id="g97663EC9AEA74EADA07472643E1BE1B4" overflow="visible"><path d="M 0 0m 1.824 -0.08c 0.616 0 1.552 0.624 1.552 2.504c 0 0.792 -0.192 1.472 -0.544 1.936c -0.208 0.28 -0.544 0.52 -0.976 0.52c -0.792 0 -1.544 -0.944 -1.544 -2.528c 0 -0.856 0.264 -1.656 0.704 -2.096c 0.224 -0.224 0.496 -0.336 0.808 -0.336Z m 0.032 4.68c 0.136 0 0.264 -0.048 0.36 -0.136c 0.248 -0.208 0.464 -0.816 0.464 -1.888c 0 -0.736 -0.024 -1.24 -0.136 -1.648c -0.176 -0.656 -0.568 -0.728 -0.712 -0.728c -0.744 0 -0.824 1.368 -0.824 2.064c 0 1.968 0.488 2.336 0.848 2.336Z "/></symbol><symbol id="g8C50DFC0B8272CD73341C65811BD0E92" overflow="visible"><path d="M 0 0m 2.304 0.976v 2.776c 0 0.48 0.008 0.968 0.024 1.072c 0 0.04 -0.016 0.04 -0.048 0.04c -0.44 -0.272 -0.864 -0.472 -1.568 -0.8c 0.016 -0.088 0.048 -0.168 0.12 -0.216c 0.368 0.152 0.544 0.2 0.696 0.2c 0.136 0 0.16 -0.192 0.16 -0.464v -2.608c 0 -0.664 -0.216 -0.704 -0.776 -0.728c -0.048 -0.048 -0.048 -0.216 0 -0.264c 0.392 0.008 0.68 0.016 1.112 0.016c 0.384 0 0.576 -0.008 0.976 -0.016c 0.048 0.048 0.048 0.216 0 0.264c -0.56 0.024 -0.696 0.064 -0.696 0.728Z "/></symbol><symbol id="gAD9C87F854BDA42EDABFFB35EC1FA84E" overflow="visible"><path d="M 0 0m 0.488 3.744c 0 -0.168 0.152 -0.312 0.32 -0.312c 0.136 0 0.376 0.144 0.376 0.32c 0 0.064 -0.016 0.112 -0.032 0.168c -0.016 0.056 -0.064 0.128 -0.064 0.192c 0 0.2 0.208 0.488 0.792 0.488c 0.288 0 0.696 -0.2 0.696 -0.968c 0 -0.512 -0.184 -0.928 -0.656 -1.408l -0.592 -0.584c -0.784 -0.8 -0.912 -1.184 -0.912 -1.656c 0 0 0.408 0.016 0.664 0.016h 1.4c 0.256 0 0.624 -0.016 0.624 -0.016c 0.104 0.424 0.184 1.024 0.192 1.264c -0.048 0.04 -0.152 0.056 -0.232 0.04c -0.136 -0.568 -0.272 -0.768 -0.56 -0.768h -1.424c 0 0.384 0.552 0.928 0.592 0.968l 0.808 0.776c 0.456 0.44 0.8 0.792 0.8 1.4c 0 0.864 -0.704 1.216 -1.352 1.216c -0.888 0 -1.44 -0.656 -1.44 -1.136Z "/></symbol><symbol id="g4DADFF8D06AE4DC17FB93571E5AFF437" overflow="visible"><path d="M 0 0m 1.72 4.6c 0.344 0 0.664 -0.208 0.664 -0.72c 0 -0.4 -0.464 -1.016 -1.256 -1.128l 0.04 -0.256c 0.136 0.016 0.28 0.016 0.384 0.016c 0.456 0 1.048 -0.128 1.048 -1.032c 0 -1.064 -0.712 -1.28 -0.992 -1.28c -0.408 0 -0.48 0.184 -0.576 0.328c -0.08 0.112 -0.184 0.208 -0.344 0.208c -0.168 0 -0.336 -0.152 -0.336 -0.28c 0 -0.32 0.672 -0.536 1.152 -0.536c 0.952 0 1.8 0.616 1.8 1.672c 0 0.872 -0.656 1.184 -1.128 1.264l -0.008 0.016c 0.656 0.312 0.84 0.64 0.84 1.064c 0 0.24 -0.056 0.432 -0.248 0.632c -0.176 0.176 -0.456 0.312 -0.872 0.312c -1.176 0 -1.512 -0.768 -1.512 -1.032c 0 -0.112 0.08 -0.272 0.272 -0.272c 0.28 0 0.312 0.264 0.312 0.416c 0 0.512 0.552 0.608 0.76 0.608Z "/></symbol><symbol id="gF821431C61A4D7F3ECEFEC074E9C0EFC" overflow="visible"><path d="M 0 0m 3.44 1.752h -0.664v 2.336c 0 0.4 0 0.712 0.016 0.776l -0.016 0.016h -0.256c -0.056 0 -0.096 -0.048 -0.128 -0.088c -0.504 -0.616 -1.432 -1.936 -2.168 -3.08c 0.024 -0.12 0.072 -0.336 0.312 -0.336h 1.632v -0.736c 0 -0.368 -0.304 -0.368 -0.648 -0.392c -0.048 -0.048 -0.048 -0.216 0 -0.264c 0.256 0.008 0.576 0.016 0.944 0.016c 0.312 0 0.616 -0.008 0.872 -0.016c 0.048 0.048 0.048 0.216 0 0.264c -0.392 0.032 -0.56 0.016 -0.56 0.392v 0.736h 0.552c 0.112 0 0.232 0.152 0.232 0.248c 0 0.08 -0.032 0.128 -0.12 0.128Z m -1.272 2.304v -2.304h -1.528c 0.408 0.656 0.976 1.552 1.528 2.304Z "/></symbol><symbol id="gD00C9D162D1CBC09F2F7551D594DBB72" overflow="visible"><path d="M 0 0m 2.552 1.512c 0 -0.76 -0.4 -1.32 -0.88 -1.32c -0.304 0 -0.408 0.2 -0.528 0.36c -0.104 0.136 -0.24 0.256 -0.408 0.256c -0.152 0 -0.304 -0.136 -0.304 -0.296c 0 -0.328 0.68 -0.6 1.136 -0.6c 0.992 0 1.696 0.736 1.696 1.744c 0 0.776 -0.536 1.472 -1.432 1.472c -0.344 0 -0.64 -0.072 -0.784 -0.128l 0.16 1.336c 0.296 -0.032 0.552 -0.072 0.936 -0.072c 0.24 0 0.512 0.016 0.84 0.048l 0.128 0.544l -0.056 0.032c -0.456 -0.048 -0.888 -0.088 -1.312 -0.088c -0.296 0 -0.584 0.016 -0.864 0.04l -0.272 -2.304c 0.424 0.16 0.728 0.192 1.016 0.192c 0.52 0 0.928 -0.344 0.928 -1.216Z "/></symbol><symbol id="gAFC6ADE0F4BA5C584B85DD0E8532505B" overflow="visible"><path d="M 0 0m 1.152 2.744c 0.216 0.728 0.728 1.536 1.792 1.936c 0 0.096 -0.032 0.168 -0.096 0.208c -0.808 -0.24 -1.304 -0.576 -1.752 -1.096c -0.496 -0.576 -0.744 -1.304 -0.744 -1.936c 0 -1.624 0.92 -1.944 1.536 -1.944c 1.048 0 1.48 1.016 1.48 1.704c 0 0.688 -0.368 1.304 -1.456 1.304c -0.208 0 -0.52 -0.064 -0.76 -0.176Z m -0.072 -0.288c 0.264 0.176 0.528 0.184 0.664 0.184c 0.784 0 0.96 -0.768 0.96 -1.168c 0 -0.88 -0.336 -1.28 -0.728 -1.28c -0.504 0 -0.96 0.272 -0.96 1.64c 0 0.184 0.016 0.392 0.064 0.624Z "/></symbol><symbol id="g5753A6CBD42AFBCBE5DCDB8271F3FBDD" overflow="visible"><path d="M 0 0m 1.638 3.222c -0.207 0.306 -0.144 0.315 0.261 0.36c 0.054 0.054 0.054 0.243 0 0.297c -0.243 -0.009 -0.639 -0.018 -0.909 -0.018c -0.27 0 -0.54 0.009 -0.774 0.018c -0.054 -0.054 -0.054 -0.243 0 -0.297c 0.306 -0.027 0.558 -0.18 0.81 -0.549l 0.783 -1.143c 0.045 -0.063 0.045 -0.09 0.009 -0.135l -0.756 -0.972c -0.36 -0.459 -0.558 -0.486 -0.873 -0.504c -0.054 -0.054 -0.054 -0.243 0 -0.297c 0.18 0.009 0.378 0.018 0.648 0.018c 0.27 0 0.522 -0.009 0.756 -0.018c 0.054 0.054 0.054 0.243 0 0.297c -0.324 0.036 -0.396 0.072 -0.198 0.36l 0.567 0.819c 0.072 0.108 0.108 0.099 0.162 0.018l 0.522 -0.72c 0.315 -0.432 0.171 -0.45 -0.117 -0.477c -0.054 -0.054 -0.054 -0.243 0 -0.297c 0.27 0.009 0.567 0.018 0.891 0.018c 0.342 0 0.585 -0.009 0.801 -0.018c 0.054 0.054 0.054 0.243 0 0.297c -0.405 0.027 -0.54 0.054 -0.9 0.567l -0.81 1.143c -0.036 0.054 -0.045 0.081 0 0.135l 0.756 0.963c 0.333 0.423 0.549 0.468 0.873 0.495c 0.054 0.054 0.054 0.243 0 0.297c -0.18 -0.009 -0.387 -0.018 -0.657 -0.018c -0.27 0 -0.522 0.009 -0.756 0.018c -0.054 -0.054 -0.054 -0.243 0 -0.297c 0.333 -0.036 0.432 -0.063 0.216 -0.369l -0.585 -0.819c -0.063 -0.09 -0.099 -0.081 -0.171 0.018Z "/></symbol><symbol id="gB7ADC05C7CC292D7AE42D71EE1DDDCEC" overflow="visible"><path d="M 0 0m 1.836 -1.44c 0.144 0.252 0.261 0.504 0.369 0.774c 0.72 1.737 1.125 2.664 1.593 3.672c 0.18 0.378 0.306 0.522 0.729 0.576c 0.054 0.054 0.054 0.243 0 0.297c -0.18 -0.009 -0.387 -0.018 -0.639 -0.018c -0.27 0 -0.549 0.009 -0.819 0.018c -0.054 -0.054 -0.054 -0.243 0 -0.297c 0.288 -0.027 0.576 -0.081 0.432 -0.405l -0.891 -2.061c -0.063 -0.144 -0.144 -0.171 -0.216 0.009l -0.801 1.872c -0.162 0.378 -0.207 0.549 0.297 0.585c 0.054 0.054 0.054 0.243 0 0.297c -0.333 -0.009 -0.693 -0.018 -1.017 -0.018c -0.306 0 -0.549 0.009 -0.729 0.018c -0.054 -0.054 -0.054 -0.243 0 -0.297c 0.36 -0.045 0.477 -0.126 0.711 -0.675l 1.017 -2.367c 0.081 -0.18 0.216 -0.594 0.126 -0.846c -0.108 -0.297 -0.216 -0.549 -0.351 -0.828c -0.099 -0.18 -0.225 -0.261 -0.45 -0.261c -0.126 0 -0.162 0.027 -0.261 0.027c -0.261 0 -0.396 -0.27 -0.396 -0.387c 0 -0.189 0.18 -0.333 0.423 -0.333c 0.189 0 0.549 0.072 0.873 0.648Z "/></symbol></defs><defs><clipPath id="cEF2FD4F247C7C75097FEB7EC3EDCDA63"><path d="M 0 0h 309.597165354v 149.963559055h -309.597165354Z "/></clipPath></defs></svg>