<svg class="typst-doc" viewBox="0 0 351.15748031496065 209.42519685039372" width="351.15748031496065pt" height="209.42519685039372pt" xmlns="http://www.w3.org/2000/svg" xmlns:xlink="http://www.w3.org/1999/xlink" xmlns:h5="http://www.w3.org/1999/xhtml">
    <path class="typst-shape" fill="#fafafa" fill-rule="nonzero" d="M 0 0v 209.4252 h 351.15747 v -209.4252 Z "/>
    <g>
        <g class="typst-group" transform="matrix(1 0 0 1 5.5 5.5)">
            <g>
                <path class="typst-shape" fill="#fafafa" fill-rule="nonzero" d="M 0 0v 198.4252 h 340.15747 v -198.4252 Z "/>
                <g class="typst-group" transform="matrix(1 0 0 1 5 5)">
                    <g>
                        <g class="typst-group">
                            <g>
                                <g class="typst-group">
                                    <g>
                                        <g class="typst-text" transform="matrix(1 0 0 -1 0 7.74)">
                                            <use xlink:href="#g9E3C05302A8D12EB240EF7F247BB6E71" x="0" y="0" fill="#111827" fill-rule="nonzero"/>
                                            <use xlink:href="#g8675D3E29FDAD64021FFF1B4938AB04E" x="11.88" y="0" fill="#111827" fill-rule="nonzero"/>
                                            <use xlink:href="#g1C841D7431DEF1CF54E1FA6B7D451CE3" x="17.928" y="0" fill="#111827" fill-rule="nonzero"/>
                                            <use xlink:href="#gE18A31EE7F4C0507CDB4CF71BD10D20C" x="22.224" y="0" fill="#111827" fill-rule="nonzero"/>
                                            <use xlink:href="#g678C24B00FB16F22DCA1DFE5BF7709B6" x="28.092" y="0" fill="#111827" fill-rule="nonzero"/>
                                            <use xlink:href="#g678C24B00FB16F22DCA1DFE5BF7709B6" x="35.064" y="0" fill="#111827" fill-rule="nonzero"/>
                                            <use xlink:href="#gE18A31EE7F4C0507CDB4CF71BD10D20C" x="42.12" y="0" fill="#111827" fill-rule="nonzero"/>
                                            <use xlink:href="#g56ADBDA6CCEF262A635F0EB3A46D766B" x="48.071999999999996" y="0" fill="#111827" fill-rule="nonzero"/>
                                            <use xlink:href="#g9E3C05302A8D12EB240EF7F247BB6E71" x="57.803999999999995" y="0" fill="#111827" fill-rule="nonzero"/>
                                            <use xlink:href="#g9AF74FBC572B8628892E52E532F3364D" x="66.684" y="0" fill="#111827" fill-rule="nonzero"/>
                                            <use xlink:href="#gE18A31EE7F4C0507CDB4CF71BD10D20C" x="71.72399999999999" y="0" fill="#111827" fill-rule="nonzero"/>
                                            <use xlink:href="#g1C6A4AA9B7AC8C4DB8E9EB1C0AB0D435" x="77.59199999999998" y="0" fill="#111827" fill-rule="nonzero"/>
                                        </g>
                                    </g>
                                </g>
                                <g class="typst-group" transform="matrix(1 0 0 1 0 14.940000000000001)">
                                    <g>
                                        <path class="typst-shape" fill="none" stroke="#b4b6bb" stroke-width="0.2" stroke-linecap="butt" stroke-linejoin="miter" stroke-miterlimit="4" transform="matrix(1 0 0 1 70.02507708991466 0)" d="M 0 0m 0 149.96356 v -149.96356 "/>
                                        <path class="typst-shape" fill="none" stroke="#b4b6bb" stroke-width="0.2" stroke-linecap="butt" stroke-linejoin="miter" stroke-miterlimit="4" transform="matrix(1 0 0 1 140.2476241218351 0)" d="M 0 0m 0 149.96356 v -149.96356 "/>
                                        <path class="typst-shape" fill="none" stroke="#b4b6bb" stroke-width="0.2" stroke-linecap="butt" stroke-linejoin="miter" stroke-miterlimit="4" transform="matrix(1 0 0 1 210.47017115375556 0)" d="M 0 0m 0 149.96356 v -149.96356 "/>
                                        <path class="typst-shape" fill="none" stroke="#b4b6bb" stroke-width="0.2" stroke-linecap="butt" stroke-linejoin="miter" stroke-miterlimit="4" transform="matrix(1 0 0 1 280.6927181856759 0)" d="M 0 0m 0 149.96356 v -149.96356 "/>
                                        <path class="typst-shape" fill="none" stroke="#b4b6bb" stroke-width="0.4" stroke-linecap="butt" stroke-linejoin="miter" stroke-miterlimit="4" transform="matrix(1 0 0 1 34.91380357395446 0)" d="M 0 0m 0 149.96356 v -149.96356 "/>
                                        <path class="typst-shape" fill="none" transform="matrix(1 0 0 1 33.05380357395446 152.79820472440946)" d="M 0 0h 3.72 v 5.344 h -3.72 v -5.344 Z "/>
                                        <g class="typst-group">
                                            <g>
                                                <g class="typst-group" transform="matrix(1 0 0 1 33.053803479466275 152.79820464566933)">
                                                    <g>
                                                        <g class="typst-text" transform="matrix(1 0 0 -1 0 5.264)">
                                                            <use xlink:href="#gD19907EFE37A88D91A1842A7B6777F5E" x="0" y="0" fill="#111827" fill-rule="nonzero"/>
                                                        </g>
                                                    </g>
                                                </g>
                                            </g>
                                        </g>
                                        <path class="typst-shape" fill="none" stroke="#b4b6bb" stroke-width="0.4" stroke-linecap="butt" stroke-linejoin="miter" stroke-miterlimit="4" transform="matrix(1 0 0 1 105.13635060587488 0)" d="M 0 0m 0 149.96356 v -149.96356 "/>
                                        <path class="typst-shape" fill="none" transform="matrix(1 0 0 1 103.27635060587487 152.79820472440946)" d="M 0 0h 3.72 v 5.28 h -3.72 v -5.28 Z "/>
                                        <g class="typst-group">
                                            <g>
                                                <g class="typst-group" transform="matrix(1 0 0 1 103.2763505113867 152.79820467716536)">
                                                    <g>
                                                        <g class="typst-text" transform="matrix(1 0 0 -1 0 5.264)">
                                                            <use xlink:href="#g432531CD5C98677D6510903614E4467A" x="0" y="0" fill="#111827" fill-rule="nonzero"/>
                                                        </g>
                                                    </g>
                                                </g>
                                            </g>
                                        </g>
                                        <path class="typst-shape" fill="none" stroke="#b4b6bb" stroke-width="0.4" stroke-linecap="butt" stroke-linejoin="miter" stroke-miterlimit="4" transform="matrix(1 0 0 1 175.3588976377953 0)" d="M 0 0m 0 149.96356 v -149.96356 "/>
                                        <path class="typst-shape" fill="none" transform="matrix(1 0 0 1 173.4988976377953 152.79820472440946)" d="M 0 0h 3.72 v 5.28 h -3.72 v -5.28 Z "/>
                                        <g class="typst-group">
                                            <g>
                                                <g class="typst-group" transform="matrix(1 0 0 1 173.49889754330712 152.79820467716536)">
                                                    <g>
                                                        <g class="typst-text" transform="matrix(1 0 0 -1 0 5.264)">
                                                            <use xlink:href="#gC1C81677E5DD09F667720744317FAC66" x="0" y="0" fill="#111827" fill-rule="nonzero"/>
                                                        </g>
                                                    </g>
                                                </g>
                                            </g>
                                        </g>
                                        <path class="typst-shape" fill="none" stroke="#b4b6bb" stroke-width="0.4" stroke-linecap="butt" stroke-linejoin="miter" stroke-miterlimit="4" transform="matrix(1 0 0 1 245.58144466971575 0)" d="M 0 0m 0 149.96356 v -149.96356 "/>
                                        <path class="typst-shape" fill="none" transform="matrix(1 0 0 1 243.72144466971574 152.79820472440946)" d="M 0 0h 3.72 v 5.344 h -3.72 v -5.344 Z "/>
                                        <g class="typst-group">
                                            <g>
                                                <g class="typst-group" transform="matrix(1 0 0 1 243.72144457522757 152.79820464566933)">
                                                    <g>
                                                        <g class="typst-text" transform="matrix(1 0 0 -1 0 5.264)">
                                                            <use xlink:href="#g70B21B995F64312A6D5FFF507AD25A58" x="0" y="0" fill="#111827" fill-rule="nonzero"/>
                                                        </g>
                                                    </g>
                                                </g>
                                            </g>
                                        </g>
                                        <path class="typst-shape" fill="none" stroke="#b4b6bb" stroke-width="0.4" stroke-linecap="butt" stroke-linejoin="miter" stroke-miterlimit="4" transform="matrix(1 0 0 1 315.80399170163616 0)" d="M 0 0m 0 149.96356 v -149.96356 "/>
                                        <path class="typst-shape" fill="none" transform="matrix(1 0 0 1 313.9439917016361 152.79820472440946)" d="M 0 0h 3.72 v 5.28 h -3.72 v -5.28 Z "/>
                                        <g class="typst-group">
                                            <g>
                                                <g class="typst-group" transform="matrix(1 0 0 1 313.943991607148 152.79820467716536)">
                                                    <g>
                                                        <g class="typst-text" transform="matrix(1 0 0 -1 0 5.264)">
                                                            <use xlink:href="#gD00E24DA30413591BFEF6B5262DCA198" x="0" y="0" fill="#111827" fill-rule="nonzero"/>
                                                        </g>
                                                    </g>
                                                </g>
                                            </g>
                                        </g>
                                        <path class="typst-shape" fill="none" stroke="#b4b6bb" stroke-width="0.2" stroke-linecap="butt" stroke-linejoin="miter" stroke-miterlimit="4" transform="matrix(1 0 0 1 20.56031496062992 138.06168928883892)" d="M 0 0h 309.59717 "/>
                                        <path class="typst-shape" fill="none" stroke="#b4b6bb" stroke-width="0.2" stroke-linecap="butt" stroke-linejoin="miter" stroke-miterlimit="4" transform="matrix(1 0 0 1 20.56031496062992 114.2579497562805)" d="M 0 0h 309.59717 "/>
                                        <path class="typst-shape" fill="none" stroke="#b4b6bb" stroke-width="0.2" stroke-linecap="butt" stroke-linejoin="miter" stroke-miterlimit="4" transform="matrix(1 0 0 1 20.56031496062992 90.45421022372206)" d="M 0 0h 309.59717 "/>
                                        <path class="typst-shape" fill="none" stroke="#b4b6bb" stroke-width="0.2" stroke-linecap="butt" stroke-linejoin="miter" stroke-miterlimit="4" transform="matrix(1 0 0 1 20.56031496062992 66.65047069116362)" d="M 0 0h 309.59717 "/>
                                        <path class="typst-shape" fill="none" stroke="#b4b6bb" stroke-width="0.2" stroke-linecap="butt" stroke-linejoin="miter" stroke-miterlimit="4" transform="matrix(1 0 0 1 20.56031496062992 42.8467311586052)" d="M 0 0h 309.59717 "/>
                                        <path class="typst-shape" fill="none" stroke="#b4b6bb" stroke-width="0.2" stroke-linecap="butt" stroke-linejoin="miter" stroke-miterlimit="4" transform="matrix(1 0 0 1 20.56031496062992 19.042991626046767)" d="M 0 0h 309.59717 "/>
                                        <path class="typst-shape" fill="none" stroke="#b4b6bb" stroke-width="0.4" stroke-linecap="butt" stroke-linejoin="miter" stroke-miterlimit="4" transform="matrix(1 0 0 1 20.56031496062992 149.9635590551181)" d="M 0 0h 309.59717 "/>
                                        <path class="typst-shape" fill="none" transform="matrix(1 0 0 1 14.005669291338583 147.2915590551181)" d="M 0 0h 3.72 v 5.344 h -3.72 v -5.344 Z "/>
                                        <g class="typst-group">
                                            <g>
                                                <g class="typst-group" transform="matrix(1 0 0 1 14.005669196850395 147.29155897637796)">
                                                    <g>
                                                        <g class="typst-text" transform="matrix(1 0 0 -1 0 5.264)">
                                                            <use xlink:href="#gD19907EFE37A88D91A1842A7B6777F5E" x="0" y="0" fill="#111827" fill-rule="nonzero"/>
                                                        </g>
                                                    </g>
                                                </g>
                                            </g>
                                        </g>
                                        <path class="typst-shape" fill="none" stroke="#b4b6bb" stroke-width="0.4" stroke-linecap="butt" stroke-linejoin="miter" stroke-miterlimit="4" transform="matrix(1 0 0 1 20.56031496062992 126.15981952255969)" d="M 0 0h 309.59717 "/>
                                        <path class="typst-shape" fill="none" transform="matrix(1 0 0 1 14.005669291338583 123.51981952255971)" d="M 0 0h 3.72 v 5.28 h -3.72 v -5.28 Z "/>
                                        <g class="typst-group">
                                            <g>
                                                <g class="typst-group" transform="matrix(1 0 0 1 14.005669196850395 123.51981947531559)">
                                                    <g>
                                                        <g class="typst-text" transform="matrix(1 0 0 -1 0 5.264)">
                                                            <use xlink:href="#g432531CD5C98677D6510903614E4467A" x="0" y="0" fill="#111827" fill-rule="nonzero"/>
                                                        </g>
                                                    </g>
                                                </g>
                                            </g>
                                        </g>
                                        <path class="typst-shape" fill="none" stroke="#b4b6bb" stroke-width="0.4" stroke-linecap="butt" stroke-linejoin="miter" stroke-miterlimit="4" transform="matrix(1 0 0 1 20.56031496062992 102.35607999000128)" d="M 0 0h 309.59717 "/>
                                        <path class="typst-shape" fill="none" transform="matrix(1 0 0 1 14.005669291338583 99.71607999000128)" d="M 0 0h 3.72 v 5.28 h -3.72 v -5.28 Z "/>
                                        <g class="typst-group">
                                            <g>
                                                <g class="typst-group" transform="matrix(1 0 0 1 14.005669196850395 99.71607994275718)">
                                                    <g>
                                                        <g class="typst-text" transform="matrix(1 0 0 -1 0 5.264)">
                                                            <use xlink:href="#gC1C81677E5DD09F667720744317FAC66" x="0" y="0" fill="#111827" fill-rule="nonzero"/>
                                                        </g>
                                                    </g>
                                                </g>
                                            </g>
                                        </g>
                                        <path class="typst-shape" fill="none" stroke="#b4b6bb" stroke-width="0.4" stroke-linecap="butt" stroke-linejoin="miter" stroke-miterlimit="4" transform="matrix(1 0 0 1 20.56031496062992 78.55234045744284)" d="M 0 0h 309.59717 "/>
                                        <path class="typst-shape" fill="none" transform="matrix(1 0 0 1 14.005669291338583 75.88034045744284)" d="M 0 0h 3.72 v 5.344 h -3.72 v -5.344 Z "/>
                                        <g class="typst-group">
                                            <g>
                                                <g class="typst-group" transform="matrix(1 0 0 1 14.005669196850395 75.88034037870267)">
                                                    <g>
                                                        <g class="typst-text" transform="matrix(1 0 0 -1 0 5.264)">
                                                            <use xlink:href="#g70B21B995F64312A6D5FFF507AD25A58" x="0" y="0" fill="#111827" fill-rule="nonzero"/>
                                                        </g>
                                                    </g>
                                                </g>
                                            </g>
                                        </g>
                                        <path class="typst-shape" fill="none" stroke="#b4b6bb" stroke-width="0.4" stroke-linecap="butt" stroke-linejoin="miter" stroke-miterlimit="4" transform="matrix(1 0 0 1 20.56031496062992 54.748600924884414)" d="M 0 0h 309.59717 "/>
                                        <path class="typst-shape" fill="none" transform="matrix(1 0 0 1 14.005669291338583 52.10860092488442)" d="M 0 0h 3.72 v 5.28 h -3.72 v -5.28 Z "/>
                                        <g class="typst-group">
                                            <g>
                                                <g class="typst-group" transform="matrix(1 0 0 1 14.005669196850395 52.10860087764032)">
                                                    <g>
                                                        <g class="typst-text" transform="matrix(1 0 0 -1 0 5.264)">
                                                            <use xlink:href="#gD00E24DA30413591BFEF6B5262DCA198" x="0" y="0" fill="#111827" fill-rule="nonzero"/>
                                                        </g>
                                                    </g>
                                                </g>
                                            </g>
                                        </g>
                                        <path class="typst-shape" fill="none" stroke="#b4b6bb" stroke-width="0.4" stroke-linecap="butt" stroke-linejoin="miter" stroke-miterlimit="4" transform="matrix(1 0 0 1 20.56031496062992 30.944861392325958)" d="M 0 0h 309.59717 "/>
                                        <path class="typst-shape" fill="none" transform="matrix(1 0 0 1 14.005669291338583 28.268861392325963)" d="M 0 0h 3.72 v 5.352 h -3.72 v -5.352 Z "/>
                                        <g class="typst-group">
                                            <g>
                                                <g class="typst-group" transform="matrix(1 0 0 1 14.005669196850395 28.268861345081863)">
                                                    <g>
                                                        <g class="typst-text" transform="matrix(1 0 0 -1 0 5.264)">
                                                            <use xlink:href="#g9DDC940C7F7DBBD50FFAAC1DE927AE74" x="0" y="0" fill="#111827" fill-rule="nonzero"/>
                                                        </g>
                                                    </g>
                                                </g>
                                            </g>
                                        </g>
                                        <path class="typst-shape" fill="none" stroke="#b4b6bb" stroke-width="0.4" stroke-linecap="butt" stroke-linejoin="miter" stroke-miterlimit="4" transform="matrix(1 0 0 1 20.56031496062992 7.141121859767525)" d="M 0 0h 309.59717 "/>
                                        <path class="typst-shape" fill="none" transform="matrix(1 0 0 1 14.005669291338583 4.46512185976753)" d="M 0 0h 3.72 v 5.352 h -3.72 v -5.352 Z "/>
                                        <g class="typst-group">
                                            <g>
                                                <g class="typst-group" transform="matrix(1 0 0 1 14.005669196850395 4.46512181252343)">
                                                    <g>
                                                        <g class="typst-text" transform="matrix(1 0 0 -1 0 5.264)">
                                                            <use xlink:href="#gA969FD5A3A1009CB71FFC789F9A002CE" x="0" y="0" fill="#111827" fill-rule="nonzero"/>
                                                        </g>
                                                    </g>
                                                </g>
                                            </g>
                                        </g>
                                        <path class="typst-shape" fill="none" transform="matrix(1 0 0 1 20.56031496062992 0.0000000000000503534222192197)" d="M 0 0h 309.59717 v 149.96356 h -309.59717 v -149.96356 Z "/>
                                        <g class="typst-group">
                                            <g>
                                                <g class="typst-group" transform="matrix(1 0 0 1 20.56031496062992 -0.00000012598422300492186)">
                                                    <g>
                                                        <g class="typst-group" clip-path="url(#cEF2FD4F247C7C75097FEB7EC3EDCDA63)">
                                                            <g>
                                                                <g class="typst-group">
                                                                    <g>
                                                                        <path class="typst-shape" fill="#63677180" fill-rule="nonzero" transform="matrix(1 0 0 1 14.072598425196853 7.141121859767525)" d="M 0 0m 0 142.82243 h 0.2808902 v -47.607475 h 0.2808902 v -0.28564453 h 69.66077 v -70.83993 h 0.28089142 v -0.28564453 h 0.2808838 v 0.19042969 h 69.660774 v 47.226616 h 0.2808838 v 0.19042969 h 0.28089905 v -0.28564453 h 69.66077 v -70.83993 h 0.2808838 v -0.2856449 h 0.2808838 v 0.19042991 h 69.66078 v 47.22662 h 0.2808838 v 0.19042969 h 0.2808838 v 95.21495 h -0.2808838 h -0.2808838 h -69.66078 h -0.2808838 h -0.2808838 h -69.66077 h -0.28089905 h -0.2808838 h -69.660774 h -0.2808838 h -0.28089142 h -69.66077 h -0.2808902 h -0.2808902 Z "/>
                                                                    </g>
                                                                </g>
                                                            </g>
                                                        </g>
                                                    </g>
                                                </g>
                                            </g>
                                        </g>
                                        <path class="typst-shape" fill="none" transform="matrix(1 0 0 1 173.15389763779527 166.12787401574803)" d="M 0 0h 4.41 v 5.94 h -4.41 v -5.94 Z "/>
                                        <g class="typst-group">
                                            <g>
                                                <g class="typst-group" transform="matrix(1 0 0 1 173.15389763779527 166.12787401574806)">
                                                    <g>
                                                        <g class="typst-text" transform="matrix(1 0 0 -1 0 5.922000000000001)">
                                                            <use xlink:href="#g1280295DE9E07371B35BA7F36C6CAF29" x="0" y="0" fill="#111827" fill-rule="nonzero"/>
                                                        </g>
                                                    </g>
                                                </g>
                                            </g>
                                        </g>
                                        <path class="typst-shape" fill="none" transform="matrix(1 0 0 1 0.4978346456692892 72.66427952755905)" d="M 0 0m 0 4.635 v -4.635 h 8.01 v 4.635 h -8.01 Z "/>
                                        <g class="typst-group">
                                            <g>
                                                <g class="typst-group" transform="matrix(0.00000000000000006123233995736766 -1 1 0.00000000000000006123233995736766 0.4978345039370066 77.29927952755904)">
                                                    <g>
                                                        <g class="typst-text" transform="matrix(1 0 0 -1 0 5.922000000000001)">
                                                            <use xlink:href="#g358B715444CBF52B91467032A4F4A305" x="0" y="0" fill="#111827" fill-rule="nonzero"/>
                                                        </g>
                                                    </g>
                                                </g>
                                            </g>
                                        </g>
                                    </g>
                                </g>
                            </g>
                        </g>
                    </g>
                </g>
            </g>
        </g>
    </g>
    <defs id="glyph">
        <symbol id="g9E3C05302A8D12EB240EF7F247BB6E71" overflow="visible">
            <path d="M 0 0m 1.98 0.948 l 0.6359999 1.668 c 0.06000018 0.15600014 0.13199997 0.204 0.42000008 0.204 h 2.28 l 0.67199993 -1.9559999 c 0.14400005 -0.432 -0.204 -0.444 -0.65999985 -0.46800002 c -0.07200003 0 -0.15600014 -0.0119999945 -0.22800016 -0.0119999945 c -0.07200003 -0.072 -0.07200003 -0.336 0 -0.408 c 0.44400024 0.012 1.5840001 0.024 2.052 0.024 c 0.4920001 0 1.164 -0.012 1.6080003 -0.024 c 0.07199955 0.072 0.07199955 0.336 0 0.408 c -0.4680004 0.048000008 -0.8640003 0.036000013 -1.0799999 0.64800006 l -2.4720001 6.864 c -0.1800003 -0.1079998 -0.9000001 -0.5279999 -1.3200002 -0.5279999 l -2.604 -6.144 c -0.31200004 -0.74399996 -0.67200005 -0.80399996 -1.2 -0.84 c -0.072 -0.072 -0.072 -0.336 0 -0.408 c 0.444 0.012 0.66 0.024 1.128 0.024 c 0.49199998 0 1.1520001 -0.012 1.5960001 -0.024 c 0.07200003 0.072 0.07200003 0.336 0 0.408 c -0.4560001 0.036000013 -1.0200001 0.072 -0.82800007 0.564 Z m 1.296 2.4480002 c -0.26399994 0 -0.34800005 0.035999775 -0.29999995 0.1559999 l 1.056 2.6880002 h 0.08400011 l 0.9839997 -2.844 Z "/>
        </symbol>
        <symbol id="g8675D3E29FDAD64021FFF1B4938AB04E" overflow="visible">
            <path d="M 0 0m 5.052 7.572 c -0.65999985 0.096000195 -0.9120002 0.32399988 -2.028 0.32399988 c -0.53999996 0 -1.2479999 -0.16799974 -1.752 -0.57599974 c -0.44399995 -0.36000013 -0.78 -0.9120002 -0.78 -1.5 c 0 -0.45600033 0.119999975 -1.0320001 0.396 -1.3920002 c 0.55200005 -0.74399996 1.5480001 -1.152 2.0640001 -1.5119998 c 0.5519998 -0.38400006 1.092 -0.8640001 1.092 -1.5360001 c 0 -0.588 -0.51600003 -0.996 -1.2480001 -0.996 c -0.804 0 -1.632 0.66 -1.872 1.7519999 c -0.19200003 0.07200003 -0.384 0.024000168 -0.564 -0.02399993 c -0.012000024 0 -0.024000019 -0.012000084 -0.036000013 -0.012000084 c 0 -0.89999986 0.096000016 -1.5359999 0.22799999 -1.9799999 c 0.6840001 0 0.71999997 -0.24000001 2.376 -0.24000001 c 0.7320001 0 1.3200002 0.216 1.8120003 0.66 c 0.43199968 0.37199998 0.816 0.92399997 0.816 1.668 c 0 0.6240001 -0.26400042 1.0440001 -0.6240001 1.44 c -0.46799994 0.51600003 -1.1400001 0.88800025 -1.608 1.128 c -0.48000002 0.24000025 -1.3320001 0.86399984 -1.3320001 1.5479999 c 0 0.6720004 0.4080001 1.0800004 1.0200001 1.0800004 c 1.02 0 1.356 -0.92400026 1.572 -1.7160001 c 0.16799974 -0.048000336 0.46799994 -0.048000336 0.5999999 0.059999943 c 0 0.6359997 -0.04799986 1.1279998 -0.13199997 1.8239999 Z "/>
        </symbol>
        <symbol id="g1C841D7431DEF1CF54E1FA6B7D451CE3" overflow="visible">
            <path d="M 0 0m 0.756 5.208 c -0.16799998 0 -0.348 -0.048000336 -0.50399995 -0.1800003 v -0.34800005 c 0 -0.059999943 0.0119999945 -0.07200003 0.060000002 -0.07200003 h 0.78 c -0.024000049 -1.2119997 -0.036000013 -2.7479997 -0.036000013 -3.3479998 c 0 -0.41999996 0.10800004 -0.82799995 0.36 -1.044 c 0.27600002 -0.228 0.70800006 -0.33600003 0.99599993 -0.33600003 c 0.6600001 0 1.3920002 0.33600003 1.6320002 0.672 c 0 0.144 -0.07200003 0.21600002 -0.21600008 0.33600003 c -0.15600014 -0.120000005 -0.4560001 -0.16799998 -0.684 -0.16799998 c -0.26399994 0 -0.5280001 0.204 -0.5280001 0.804 c 0 0.6 -0.0119998455 1.884 -0.0119998455 3.0839996 h 1.2119999 c 0.120000124 0 0.2880001 0.048000336 0.2880001 0.15600014 v 0.37200022 c 0 0.04799986 -0.03600025 0.07200003 -0.096000195 0.07200003 h -1.4039998 l 0.0119998455 0.408 c 0.024000168 0.8039999 0.06000018 1.356 0.06000018 1.356 c 0 0.07200003 -0.036000013 0.1079998 -0.096000195 0.1079998 c -0.08399987 0 -0.5279999 -0.13199997 -0.7199999 -0.21600008 c -0.204 -0.083999634 -0.55200005 -0.15599966 -0.63600004 -0.26399994 c -0.08399999 -0.1079998 -0.13199997 -0.43199968 -0.13199997 -1.3919997 Z "/>
        </symbol>
        <symbol id="gE18A31EE7F4C0507CDB4CF71BD10D20C" overflow="visible">
            <path d="M 0 0m 5.172 1.548 c -0.4920001 -0.50399995 -1.1399999 -0.636 -1.596 -0.636 c -0.9359999 0 -1.5119998 0.54 -1.5119998 1.7160001 c 0 0.08400011 0.0119998455 0.13199997 0.0119998455 0.19199991 h 2.8799999 c 0.2880001 0 0.34800005 0.204 0.34800005 0.37199998 c 0 1.02 -0.3959999 2.1360002 -2.1599998 2.1360002 c -1.26 0 -2.7 -1.1160002 -2.7 -2.9520001 c 0 -0.69599986 0.25199997 -1.428 0.768 -1.8959999 c 0.45599997 -0.40800002 1.044 -0.6 1.896 -0.6 c 0.82800007 0 1.6439998 0.42000002 2.2440002 1.296 c 0 0.15600002 -0.06000042 0.37199998 -0.1800003 0.37199998 Z m -3.0479999 1.752 c 0.0119998455 0.42000008 0.07200003 0.87600017 0.24000001 1.1159999 c 0.19199991 0.2880001 0.51600003 0.408 0.648 0.408 c 0.32399988 0 0.7679999 -0.3119998 0.7679999 -1.2719998 c 0 -0.07200003 0 -0.22799993 -0.02399993 -0.2520001 Z "/>
        </symbol>
        <symbol id="g678C24B00FB16F22DCA1DFE5BF7709B6" overflow="visible">
            <path d="M 0 0m 1.14 3.708 v -5.028 c 0 -0.99599993 -0.13199997 -1.0199999 -0.86399996 -1.08 c -0.072 -0.07200003 -0.072 -0.33599997 0 -0.408 c 0.50400007 0.012000084 1.008 0.024000168 1.644 0.024000168 c 0.6359999 0 1.128 -0.012000084 1.644 -0.024000168 c 0.07199979 0.07200003 0.07199979 0.33599997 0 0.408 c -0.7320001 0.048000097 -0.8640001 0.08400011 -0.8640001 1.08 v 1.404 c 0.26399994 -0.132 0.51600003 -0.204 0.8039999 -0.204 c 1.8240001 0 3.0120003 1.2 3.0120003 2.9640002 c 0 0.67199993 -0.25200033 1.4160001 -0.72000027 1.8840001 c -0.42000008 0.42000008 -1.02 0.5999999 -1.644 0.5999999 c -0.3479998 0 -0.9959998 -0.42000008 -1.4159999 -0.8039999 h -0.07200003 c -0.02399993 0.33599997 -0.059999943 0.5999999 -0.059999943 0.5999999 c -0.012000084 0.14400005 -0.10800004 0.204 -0.27600002 0.204 c -0.444 -0.119999886 -1.164 -0.2880001 -1.9920001 -0.3959999 c -0.023999989 -0.07200003 0 -0.31200027 0.024000019 -0.3840003 c 0.65999997 -0.059999943 0.78 -0.15599966 0.78 -0.8399999 Z m 1.5600001 -2.928 v 3.072 c 0 0.07200003 0 0.13199997 0 0.20400023 c 0.34800005 0.3119998 0.79200006 0.46799994 1.0680001 0.46799994 c 0.4920001 0 1.0679998 -0.60000014 1.0679998 -2.0040002 c 0 -1.008 -0.36000013 -2.136 -1.404 -2.136 c -0.13199997 0 -0.43199992 0.072 -0.7319999 0.39600003 Z "/>
        </symbol>
        <symbol id="g56ADBDA6CCEF262A635F0EB3A46D766B" overflow="visible">
            <path d="M 0 0m 4.26 0.576 c 0.023999691 -0.288 0.04799986 -0.49199998 0.04799986 -0.49199998 c 0.012000084 -0.144 0.1079998 -0.204 0.27600002 -0.204 c 0.44399977 0.120000005 1.164 0.288 1.9920001 0.396 c 0.023999691 0.072 0 0.312 -0.024000168 0.38400003 c -0.64799976 0.060000002 -0.7800002 0.25199997 -0.7800002 0.93599993 v 5.4000006 c 0 0.77999973 0.03600025 1.224 0.03600025 1.224 c 0 0.1079998 -0.08400011 0.15600014 -0.19199991 0.15600014 c -0.44400024 -0.14400005 -1.4040003 -0.27600002 -2.256 -0.31200027 c -0.036000013 -0.14400005 -0.024000168 -0.3000002 0.036000013 -0.408 c 0.7559998 -0.059999943 0.81599975 -0.07200003 0.81599975 -0.9000001 v -1.56 c -0.22799993 0.07200003 -0.5159998 0.13199997 -0.86399984 0.13199997 c -1.548 0 -2.904 -1.356 -2.904 -2.9520001 c 0 -0.70799994 0.25199997 -1.5359999 0.84000003 -1.9919999 c 0.43199992 -0.336 0.732 -0.504 1.4039999 -0.504 c 0.32400012 0 1.2120001 0.528 1.464 0.696 Z m -0.03600025 0.564 c -0.25199986 -0.204 -0.888 -0.468 -1.0320001 -0.468 c -0.5999999 0 -1.0679998 0.672 -1.0679998 2.076 c 0 0.63600016 0.07200003 1.1880002 0.29999995 1.5600002 c 0.204 0.32399988 0.5280001 0.5159998 0.888 0.5159998 c 0.31200004 0 0.612 -0.035999775 0.89999986 -0.43199968 v -2.9520001 c 0 -0.096000075 0 -0.204 0.012000084 -0.30000007 Z "/>
        </symbol>
        <symbol id="g9AF74FBC572B8628892E52E532F3364D" overflow="visible">
            <path d="M 0 0m 2.736 3.216 c 0 0.43199992 0.13199997 0.612 0.28799987 0.7919998 c 0.096000195 0.12000036 0.204 0.204 0.38400006 0.204 c 0.10800004 0 0.24000001 -0.1079998 0.33599997 -0.22799993 c 0.08400011 -0.095999956 0.2880001 -0.19199991 0.5640001 -0.19199991 c 0.34800005 0 0.684 0.3599999 0.684 0.8640001 c 0 0.3119998 -0.36000013 0.67199993 -0.7920003 0.67199993 c -0.41999984 0 -0.8759997 -0.36000013 -1.4279997 -1.152 h -0.048000097 c -0.02399993 0.36000013 -0.08399987 0.94799995 -0.08399987 0.94799995 c -0.012000084 0.1079998 -0.10800004 0.204 -0.27600002 0.204 c -0.564 -0.14400005 -1.2 -0.3119998 -1.9920001 -0.3959999 c -0.024000019 -0.07200003 0 -0.3000002 0.023999989 -0.37200022 c 0.65999997 -0.059999943 0.78 -0.16799974 0.78 -0.852 v -2.244 c 0 -0.996 -0.13199997 -1.02 -0.86399996 -1.0799999 c -0.072 -0.072 -0.072 -0.336 0 -0.408 c 0.50399995 0.012 1.008 0.024 1.6439999 0.024 c 0.63600004 0 1.1280001 -0.012 1.6440002 -0.024 c 0.07199979 0.072 0.07199979 0.336 0 0.408 c -0.7320001 0.048000008 -0.8640001 0.08399999 -0.8640001 1.0799999 Z "/>
        </symbol>
        <symbol id="g1C6A4AA9B7AC8C4DB8E9EB1C0AB0D435" overflow="visible">
            <path d="M 0 0m 3.54 0.588 c 0.08400011 -0.49199998 0.408 -0.708 0.9359999 -0.708 c 0.6600003 0 1.1280003 0.252 1.572 0.672 c -0.023999691 0.144 -0.07200003 0.24000001 -0.2159996 0.33600003 c -0.15600014 -0.120000005 -0.27600002 -0.16799998 -0.5040002 -0.16799998 c -0.26399994 0 -0.33599997 0.21599996 -0.33599997 0.804 l 0.024000168 1.728 c 0 1.7279999 -1.0680003 2.076 -2.0520003 2.076 c -0.8759999 0 -2.22 -0.5040002 -2.22 -1.296 c 0 -0.33599997 0.144 -0.60000014 0.61200005 -0.60000014 c 0.43199992 0 0.74399984 0.26400018 0.74399984 0.55200005 c 0 0.06000018 -0.0119998455 0.13200021 -0.02399993 0.20400023 c -0.02399993 0.119999886 -0.04799986 0.23999977 -0.02399993 0.35999966 c 0.012000084 0.13199997 0.10800004 0.27600002 0.50399995 0.27600002 c 0.50399995 0 0.924 -0.21600008 0.924 -1.7399998 l -0.8039999 -0.2520001 c -1.2600001 -0.3959999 -2.1480002 -0.74399996 -2.1480002 -1.692 c 0 -0.82799995 0.45600003 -1.26 1.5000001 -1.26 c 0.3479998 0 1.0439999 0.384 1.4399998 0.696 Z m -0.059999943 2.0279999 v -1.5839999 c -0.29999995 -0.24000007 -0.5999999 -0.43200004 -0.816 -0.43200004 c -0.51600003 0 -0.696 0.348 -0.696 0.72 c 0 0.444 0.035999894 0.81599987 0.8879999 1.0919999 Z "/>
        </symbol>
        <symbol id="gD19907EFE37A88D91A1842A7B6777F5E" overflow="visible">
            <path d="M 0 0m 1.8240001 -0.080000006 c 0.61599994 0 1.552 0.624 1.552 2.504 c 0 0.79200006 -0.19199991 1.4720001 -0.54400015 1.9360001 c -0.20799994 0.2800002 -0.5439999 0.52 -0.97599995 0.52 c -0.79200006 0 -1.544 -0.944 -1.544 -2.528 c 0 -0.85599995 0.26400003 -1.6559999 0.704 -2.096 c 0.22399998 -0.224 0.49600005 -0.33600003 0.8080001 -0.33600003 Z m 0.031999946 4.6800003 c 0.13600004 0 0.26400006 -0.048000336 0.36 -0.13600016 c 0.24800014 -0.20800018 0.464 -0.816 0.464 -1.888 c 0 -0.7360002 -0.02399993 -1.2400001 -0.13599992 -1.6480002 c -0.17600012 -0.656 -0.5680001 -0.72800004 -0.712 -0.72800004 c -0.7440001 0 -0.8240001 1.368 -0.8240001 2.0640001 c 0 1.9680002 0.48800004 2.3360002 0.84800005 2.3360002 Z "/>
        </symbol>
        <symbol id="g432531CD5C98677D6510903614E4467A" overflow="visible">
            <path d="M 0 0m 2.3040001 0.9760001 v 2.776 c 0 0.48000026 0.007999897 0.9680002 0.02399993 1.0720003 c 0 0.03999996 -0.016000032 0.03999996 -0.04799986 0.03999996 c -0.44000018 -0.2720003 -0.8640002 -0.47200012 -1.5680002 -0.8000002 c 0.016000032 -0.08800006 0.048000038 -0.16799998 0.120000005 -0.21599984 c 0.36800003 0.15199971 0.544 0.20000005 0.6960001 0.20000005 c 0.13599992 0 0.15999997 -0.19200015 0.15999997 -0.46400023 v -2.608 c 0 -0.66400003 -0.21599996 -0.70400006 -0.776 -0.72800004 c -0.048000038 -0.048000008 -0.048000038 -0.216 0 -0.264 c 0.39199996 0.008 0.68000007 0.016 1.1120001 0.016 c 0.38400006 0 0.576 -0.008 0.9760001 -0.016 c 0.04799986 0.048 0.04799986 0.216 0 0.264 c -0.5600002 0.024000004 -0.6960001 0.063999996 -0.6960001 0.72800004 Z "/>
        </symbol>
        <symbol id="gC1C81677E5DD09F667720744317FAC66" overflow="visible">
            <path d="M 0 0m 0.48800004 3.7440002 c 0 -0.16799998 0.15200001 -0.31200004 0.32 -0.31200004 c 0.13600004 0 0.376 0.14400005 0.376 0.31999993 c 0 0.06400013 -0.015999913 0.11199999 -0.031999946 0.16799998 c -0.016000032 0.055999994 -0.06400001 0.12800026 -0.06400001 0.19199991 c 0 0.20000029 0.20799994 0.4880004 0.79200006 0.4880004 c 0.2880001 0 0.6960001 -0.20000029 0.6960001 -0.9680002 c 0 -0.5120001 -0.18400002 -0.928 -0.65600014 -1.408 l -0.592 -0.5840001 c -0.78400004 -0.8000001 -0.91200006 -1.184 -0.91200006 -1.6560001 c 0 0 0.40800005 0.016 0.66400003 0.016 h 1.4 c 0.25600004 0 0.6240001 -0.016 0.6240001 -0.016 c 0.10400009 0.42400002 0.18400002 1.024 0.19200015 1.264 c -0.048000097 0.04000008 -0.15200019 0.055999994 -0.23200011 0.04000008 c -0.13599992 -0.5680001 -0.27200007 -0.76800007 -0.55999994 -0.76800007 h -1.4240001 c 0 0.384 0.55200005 0.92800003 0.592 0.968 l 0.80799997 0.77600014 c 0.4560001 0.44000006 0.8000002 0.79200006 0.8000002 1.4000001 c 0 0.8640001 -0.704 1.2159998 -1.3520001 1.2159998 c -0.888 0 -1.44 -0.65600014 -1.44 -1.1359999 Z "/>
        </symbol>
        <symbol id="g70B21B995F64312A6D5FFF507AD25A58" overflow="visible">
            <path d="M 0 0m 1.72 4.6000004 c 0.3440001 0 0.66400003 -0.20800018 0.66400003 -0.72000027 c 0 -0.39999986 -0.464 -1.016 -1.256 -1.128 l 0.04000008 -0.25600004 c 0.13599992 0.016000032 0.27999997 0.016000032 0.38399994 0.016000032 c 0.4560001 0 1.0480001 -0.12800002 1.0480001 -1.0320001 c 0 -1.064 -0.712 -1.28 -0.9920001 -1.28 c -0.408 0 -0.48000002 0.184 -0.576 0.328 c -0.08000004 0.11200005 -0.18400002 0.20800006 -0.34400004 0.20800006 c -0.16799998 0 -0.336 -0.15200001 -0.336 -0.28000003 c 0 -0.32000002 0.67200005 -0.536 1.1520001 -0.536 c 0.952 0 1.8000001 0.616 1.8000001 1.6720002 c 0 0.8720001 -0.6559999 1.1839999 -1.128 1.264 l -0.007999897 0.016000032 c 0.6559999 0.31200004 0.8399999 0.63999987 0.8399999 1.0639999 c 0 0.24000001 -0.055999994 0.43199992 -0.2479999 0.6320002 c -0.17600012 0.17600012 -0.4560001 0.3119998 -0.8720001 0.3119998 c -1.1760001 0 -1.5120001 -0.7680001 -1.5120001 -1.0319998 c 0 -0.11200023 0.08000001 -0.27200007 0.27199998 -0.27200007 c 0.28000003 0 0.31200004 0.26399994 0.31200004 0.4159999 c 0 0.5120001 0.55200005 0.6080003 0.76 0.6080003 Z "/>
        </symbol>
        <symbol id="gD00E24DA30413591BFEF6B5262DCA198" overflow="visible">
            <path d="M 0 0m 3.44 1.7520001 h -0.66400003 v 2.3360002 c 0 0.4000001 0 0.7119999 0.016000032 0.776 l -0.016000032 0.015999794 h -0.2559998 c -0.055999994 0 -0.096000195 -0.04799986 -0.12800002 -0.08799982 c -0.50400007 -0.6160002 -1.4320002 -1.9360001 -2.1680002 -3.0800002 c 0.024000004 -0.120000005 0.072 -0.33600008 0.312 -0.33600008 h 1.6320002 v -0.736 c 0 -0.36800003 -0.30400014 -0.36800003 -0.6480001 -0.39200002 c -0.047999978 -0.048000008 -0.047999978 -0.216 0 -0.264 c 0.25600004 0.008 0.5760001 0.016 0.9440001 0.016 c 0.3119998 0 0.61599994 -0.008 0.872 -0.016 c 0.04799986 0.048 0.04799986 0.216 0 0.264 c -0.39199996 0.03199999 -0.5600002 0.015999988 -0.5600002 0.39200002 v 0.736 h 0.55200005 c 0.11199999 0 0.23200011 0.15200007 0.23200011 0.24800003 c 0 0.08000004 -0.032000065 0.12800002 -0.120000124 0.12800002 Z m -1.2719998 2.3040001 v -2.3040001 h -1.5280001 c 0.40800005 0.65600014 0.976 1.552 1.5280001 2.3040001 Z "/>
        </symbol>
        <symbol id="g9DDC940C7F7DBBD50FFAAC1DE927AE74" overflow="visible">
            <path d="M 0 0m 2.552 1.5120001 c 0 -0.76000005 -0.39999986 -1.32 -0.88 -1.32 c -0.30400002 0 -0.408 0.20000002 -0.528 0.36000004 c -0.10399997 0.13599998 -0.24000001 0.25599998 -0.408 0.25599998 c -0.15200001 0 -0.30400005 -0.13599998 -0.30400005 -0.296 c 0 -0.328 0.68000007 -0.6 1.136 -0.6 c 0.9920001 0 1.6960001 0.736 1.6960001 1.7440002 c 0 0.776 -0.536 1.4720001 -1.432 1.4720001 c -0.3440001 0 -0.6400001 -0.07200003 -0.78400004 -0.12800002 l 0.15999997 1.3360002 c 0.296 -0.032000065 0.55200005 -0.07200003 0.936 -0.07200003 c 0.24000001 0 0.5120001 0.015999794 0.84000015 0.04799986 l 0.12800002 0.54400015 l -0.055999994 0.031999588 c -0.4560001 -0.04799986 -0.888 -0.08799982 -1.3120002 -0.08799982 c -0.296 0 -0.584 0.01600027 -0.864 0.03999996 l -0.272 -2.3040001 c 0.42400002 0.16000009 0.72800004 0.19200015 1.016 0.19200015 c 0.52 0 0.928 -0.3440001 0.928 -1.2160001 Z "/>
        </symbol>
        <symbol id="gA969FD5A3A1009CB71FFC789F9A002CE" overflow="visible">
            <path d="M 0 0m 1.1520001 2.7440002 c 0.21599996 0.7279999 0.72800004 1.536 1.7920002 1.9360001 c 0 0.09599972 -0.032000065 0.16799974 -0.096000195 0.2079997 c -0.80799985 -0.23999977 -1.304 -0.57599974 -1.752 -1.0959997 c -0.49600005 -0.5760002 -0.7440001 -1.3040001 -0.7440001 -1.9360002 c 0 -1.6240001 0.9200001 -1.9440001 1.5360001 -1.9440001 c 1.048 0 1.4800001 1.016 1.4800001 1.7040001 c 0 0.6880001 -0.36800003 1.304 -1.4560002 1.304 c -0.20799994 0 -0.52 -0.06399989 -0.76 -0.17599988 Z m -0.07200003 -0.2880001 c 0.26400006 0.17600012 0.528 0.18400002 0.66400003 0.18400002 c 0.78400004 0 0.96000016 -0.768 0.96000016 -1.168 c 0 -0.8800001 -0.3360002 -1.2800001 -0.72800016 -1.2800001 c -0.50399995 0 -0.96000004 0.272 -0.96000004 1.6400001 c 0 0.1839999 0.016000032 0.39200008 0.06400001 0.62399995 Z "/>
        </symbol>
        <symbol id="g1280295DE9E07371B35BA7F36C6CAF29" overflow="visible">
            <path d="M 0 0m 1.6379999 3.222 c -0.2069999 0.306 -0.14399993 0.31500006 0.26100004 0.3599999 c 0.05400002 0.05400014 0.05400002 0.24300003 0 0.29700017 c -0.24300003 -0.009000063 -0.63899994 -0.018000126 -0.909 -0.018000126 c -0.26999998 0 -0.53999996 0.009000063 -0.7739999 0.018000126 c -0.05399999 -0.05400014 -0.05399999 -0.24300003 0 -0.29700017 c 0.30599996 -0.02699995 0.55799997 -0.17999983 0.80999994 -0.549 l 0.783 -1.1429999 c 0.045000076 -0.062999964 0.045000076 -0.089999914 0.009000063 -0.13499999 l -0.75600004 -0.9719999 c -0.35999995 -0.459 -0.55799997 -0.486 -0.8729999 -0.504 c -0.054000005 -0.05399999 -0.054000005 -0.24299999 0 -0.297 c 0.17999999 0.009 0.37799996 0.018 0.64799994 0.018 c 0.27000004 0 0.522 -0.009 0.756 -0.018 c 0.05400002 0.053999998 0.05400002 0.243 0 0.297 c -0.324 0.036000013 -0.39600003 0.072 -0.19799995 0.36 l 0.5669999 0.81899995 c 0.07200003 0.10800004 0.10800004 0.09899998 0.16199994 0.018000007 l 0.5220001 -0.71999997 c 0.31500006 -0.43199998 0.171 -0.45 -0.1170001 -0.477 c -0.0539999 -0.05399999 -0.0539999 -0.24299999 0 -0.297 c 0.26999998 0.009 0.56700015 0.018 0.89100003 0.018 c 0.342 0 0.5849998 -0.009 0.8009999 -0.018 c 0.0539999 0.053999998 0.0539999 0.243 0 0.297 c -0.40499997 0.02700001 -0.53999996 0.05399999 -0.89999986 0.567 l -0.80999994 1.143 c -0.036000013 0.05400002 -0.045000076 0.08099997 0 0.13499987 l 0.75600004 0.96300006 c 0.33299994 0.42299986 0.5489998 0.46799994 0.8729999 0.4949999 c 0.0539999 0.05400014 0.0539999 0.24300003 0 0.29700017 c -0.18000007 -0.009000063 -0.38700008 -0.018000126 -0.65700006 -0.018000126 c -0.26999998 0 -0.52199984 0.009000063 -0.7559998 0.018000126 c -0.05400014 -0.05400014 -0.05400014 -0.24300003 0 -0.29700017 c 0.33299994 -0.036000013 0.43199992 -0.062999964 0.21599984 -0.36899996 l -0.58500004 -0.819 c -0.062999964 -0.089999914 -0.09899998 -0.08099985 -0.171 0.018000126 Z "/>
        </symbol>
        <symbol id="g358B715444CBF52B91467032A4F4A305" overflow="visible">
            <path d="M 0 0m 1.836 -1.4399999 c 0.14399993 0.25199997 0.26099992 0.50399995 0.36899996 0.774 c 0.72 1.737 1.125 2.6639998 1.5929999 3.6719997 c 0.18000007 0.37800002 0.30599976 0.5220001 0.7290001 0.576 c 0.0539999 0.05400014 0.0539999 0.24300003 0 0.29700017 c -0.1800003 -0.009000063 -0.38700008 -0.018000126 -0.6390002 -0.018000126 c -0.26999998 0 -0.549 0.009000063 -0.819 0.018000126 c -0.0539999 -0.05400014 -0.0539999 -0.24300003 0 -0.29700017 c 0.2880001 -0.02699995 0.576 -0.08099985 0.43200016 -0.40499997 l -0.89100003 -2.0609999 c -0.062999964 -0.144 -0.14400005 -0.171 -0.21600008 0.009000063 l -0.8009999 1.872 c -0.16199994 0.37799978 -0.20700002 0.5489998 0.29699993 0.5849998 c 0.05400002 0.05400014 0.05400002 0.24300003 0 0.29700017 c -0.33299994 -0.009000063 -0.69299996 -0.018000126 -1.017 -0.018000126 c -0.306 0 -0.54899997 0.009000063 -0.729 0.018000126 c -0.053999998 -0.05400014 -0.053999998 -0.24300003 0 -0.29700017 c 0.35999995 -0.044999838 0.477 -0.12599993 0.71099997 -0.67499995 l 1.017 -2.3669999 c 0.08099997 -0.17999998 0.21599984 -0.594 0.12599993 -0.84599996 c -0.10800004 -0.297 -0.21599996 -0.54899997 -0.35099995 -0.82799995 c -0.09899998 -0.17999995 -0.22500002 -0.26100004 -0.45000005 -0.26100004 c -0.12599993 0 -0.16199994 0.02700007 -0.26099992 0.02700007 c -0.26100004 0 -0.39600003 -0.26999998 -0.39600003 -0.38699996 c 0 -0.18900001 0.18 -0.33299994 0.42299998 -0.33299994 c 0.18900001 0 0.549 0.07200003 0.873 0.6479999 Z "/>
        </symbol>
    </defs>
    <defs id="clip-path">
        <clipPath id="cEF2FD4F247C7C75097FEB7EC3EDCDA63">
            <path d="M 0 0h 309.59717 v 149.96356 h -309.59717 Z "/>
        </clipPath>
    </defs>
</svg>
