<svg class="typst-doc" viewBox="0 0 254.7795275590551 227.08240957185038" width="254.7795275590551pt" height="227.08240957185038pt" xmlns="http://www.w3.org/2000/svg" xmlns:xlink="http://www.w3.org/1999/xlink" xmlns:h5="http://www.w3.org/1999/xhtml">
    <path class="typst-shape" fill="#161616" fill-rule="nonzero" d="M 0 0v 227.08241 h 254.77953 v -227.08241 Z "/>
    <g>
        <g class="typst-group" transform="matrix(1 0 0 1 5.5 5.5)">
            <g>
                <path class="typst-shape" fill="#3366ff14" fill-rule="nonzero" stroke="#3366ff" stroke-width="0.8" stroke-linecap="butt" stroke-linejoin="miter" stroke-miterlimit="4" transform="matrix(1 0 0 1 0 28.346456692913385)" d="M 0 0m 0 187.73595 h 226.77165 l 17.007874 -202.67715 h -226.77165 l -17.007874 202.67715 Z "/>
                <path class="typst-shape" fill="none" transform="matrix(1 0 0 1 117.38940391240155 -180.767984128937)" d="M 0 0m 0 180.76799 h 26.008595 v 6.9679565 h -26.008595 v -6.9679565 Z "/>
                <g class="typst-group">
                    <g>
                        <g class="typst-group" transform="matrix(1 0 0 1 117.38940377952756 -0.00000009744094564294347)">
                            <g>
                                <g class="typst-text" transform="matrix(1 0 0 -1 0.00000013287401418169542 5.4703125)">
                                    <use xlink:href="#g9543066C6D8669D9C09A56B9E1DD7752" x="0" y="0" fill="#3366ff" fill-rule="nonzero"/>
                                    <use xlink:href="#gF4C5937E02D4A5629913AE0BFFC350E4" x="4.334765625000001" y="0" fill="#3366ff" fill-rule="nonzero"/>
                                    <use xlink:href="#g31E2C2C9A618D3B3B22C329BD5E2B285" x="8.669531250000002" y="0" fill="#3366ff" fill-rule="nonzero"/>
                                    <use xlink:href="#g7E8DD8922B33614D0B3BCE27FAA0C95E" x="13.004296875000003" y="0" fill="#3366ff" fill-rule="nonzero"/>
                                    <use xlink:href="#g14C0D73F576701A72D64F3E4DB82C8C7" x="17.339062500000004" y="0" fill="#3366ff" fill-rule="nonzero"/>
                                    <use xlink:href="#gEB0792E3994DE3E01164F7A09A90650C" x="21.673828125000007" y="0" fill="#3366ff" fill-rule="nonzero"/>
                                </g>
                            </g>
                        </g>
                    </g>
                </g>
                <path class="typst-shape" fill="#e69f0033" fill-rule="nonzero" stroke="#e69f00" stroke-width="0.8" stroke-linecap="butt" stroke-linejoin="miter" stroke-miterlimit="4" transform="matrix(1 0 0 1 14.173228346456693 14.173228346456693)" d="M 0 0m 0 187.73595 h 198.4252 l 17.007874 -25.51181 h -198.4252 l -17.007874 25.51181 Z "/>
                <path class="typst-shape" fill="none" transform="matrix(1 0 0 1 98.51584971702754 4.85293220964567)" d="M 0 0m 0 180.86473 h 46.74783 v 6.871216 h -46.74783 v -6.871216 Z "/>
                <g class="typst-group">
                    <g>
                        <g class="typst-group" transform="matrix(1 0 0 1 98.51584960629921 185.71766631200788)">
                            <g>
                                <g class="typst-text" transform="matrix(1 0 0 -1 0.00000011072834097394375 5.922000000000001)">
                                    <use xlink:href="#g99796C31F6FCCA870284063E7E41F33D" x="0" y="0" fill="#f5f5f4" fill-rule="nonzero"/>
                                    <use xlink:href="#g14FFCF11D22CC8B3F2FFFB78F3C50CA3" x="4.554" y="0" fill="#f5f5f4" fill-rule="nonzero"/>
                                    <use xlink:href="#gFBD4E344D96ED3A9A07E1657F03CD509" x="8.667000000000002" y="0" fill="#f5f5f4" fill-rule="nonzero"/>
                                    <use xlink:href="#g14FFCF11D22CC8B3F2FFFB78F3C50CA3" x="11.511000000000001" y="0" fill="#f5f5f4" fill-rule="nonzero"/>
                                    <use xlink:href="#g699673A7AE79185ADFE9B9D7CECE02EA" x="17.874000000000002" y="0" fill="#f5f5f4" fill-rule="nonzero"/>
                                </g>
                                <g class="typst-text" transform="matrix(1 0 0 -1 25.074000110728342 5.922000000000001)">
                                    <use xlink:href="#g4A1B7C45AC0CEF9184D120F4EB65F34C" x="0" y="0" fill="#f5f5f4" fill-rule="nonzero"/>
                                    <use xlink:href="#gA90F0CCE043324E79C03F259D29A41C7" x="4.334765625000001" y="0" fill="#f5f5f4" fill-rule="nonzero"/>
                                    <use xlink:href="#gC3A0DE23B9C6DA6F2B84C7F5B941229F" x="8.669531250000002" y="0" fill="#f5f5f4" fill-rule="nonzero"/>
                                    <use xlink:href="#g2734FD600742A2DE42DFF98FF64F494E" x="13.004296875000003" y="0" fill="#f5f5f4" fill-rule="nonzero"/>
                                    <use xlink:href="#g633B4A445F2A0EA95FF9EE6F81B08956" x="17.339062500000004" y="0" fill="#f5f5f4" fill-rule="nonzero"/>
                                </g>
                            </g>
                        </g>
                    </g>
                </g>
                <path class="typst-shape" fill="#009e7333" fill-rule="nonzero" stroke="#009e73" stroke-width="0.8" stroke-linecap="butt" stroke-linejoin="miter" stroke-miterlimit="4" transform="matrix(1 0 0 1 14.173228346456693 -15.590551181102365)" d="M 0 0m 0 187.73595 h 198.4252 l 17.007874 -25.51181 h -198.4252 l -17.007874 25.51181 Z "/>
                <path class="typst-shape" fill="none" transform="matrix(1 0 0 1 85.38351377952755 -18.948956692913384)" d="M 0 0m 0 168.94095 h 73.0125 v 18.794998 h -73.0125 v -18.794998 Z "/>
                <g class="typst-group">
                    <g>
                        <g class="typst-group" transform="matrix(1 0 0 1 85.38351377952755 149.99199609153544)">
                            <g>
                                <g class="typst-text" transform="matrix(1 0 0 -1 27.29475 5.922000000000001)">
                                    <use xlink:href="#gCEDD292E0F8B064B55A824CE3C769BDD" x="0" y="0" fill="#f5f5f4" fill-rule="nonzero"/>
                                    <use xlink:href="#g14FFCF11D22CC8B3F2FFFB78F3C50CA3" x="2.376" y="0" fill="#f5f5f4" fill-rule="nonzero"/>
                                    <use xlink:href="#g358B715444CBF52B91467032A4F4A305" x="6.489000000000001" y="0" fill="#f5f5f4" fill-rule="nonzero"/>
                                    <use xlink:href="#g91DD68307EF125FFC7E6E96B43192FBA" x="11.052" y="0" fill="#f5f5f4" fill-rule="nonzero"/>
                                    <use xlink:href="#g50021A3696CAE42BA59744531116F1DC" x="15.075" y="0" fill="#f5f5f4" fill-rule="nonzero"/>
                                </g>
                                <g class="typst-text" transform="matrix(1 0 0 -1 0.000000000000007161375604511246 16.707)">
                                    <use xlink:href="#g29A207B28128DAF45A03EEEF360E1622" x="0" y="0" fill="#f5f5f4" fill-rule="nonzero"/>
                                    <use xlink:href="#g440B6A17549F1332B54C60B0A1671C33" x="2.1449999999999996" y="0" fill="#f5f5f4" fill-rule="nonzero"/>
                                    <use xlink:href="#g219B132C7B3F811A3395E02B3390D3F1" x="5.895" y="0" fill="#f5f5f4" fill-rule="nonzero"/>
                                    <use xlink:href="#gE6FA71B64240DE9A4F06D16F042082EF" x="9.299999999999999" y="0" fill="#f5f5f4" fill-rule="nonzero"/>
                                    <use xlink:href="#gCA899D25AF223DBD046583A2ACFB9465" x="13.079999999999998" y="0" fill="#f5f5f4" fill-rule="nonzero"/>
                                    <use xlink:href="#g854670B5541A41158BAA91FAE841B77F" x="20.88" y="0" fill="#f5f5f4" fill-rule="nonzero"/>
                                    <use xlink:href="#gA28C9894B642AF6C8F2B3C1C9EC4CC5D" x="26.88" y="0" fill="#f5f5f4" fill-rule="nonzero"/>
                                    <use xlink:href="#gAA50B0CBE5AE21DAD34C6F7A91F3F99C" x="29.805" y="0" fill="#f5f5f4" fill-rule="nonzero"/>
                                    <use xlink:href="#g556F757811C41E68E6D31F1414A1A212" x="32.175" y="0" fill="#f5f5f4" fill-rule="nonzero"/>
                                    <use xlink:href="#gAA50B0CBE5AE21DAD34C6F7A91F3F99C" x="35.6025" y="0" fill="#f5f5f4" fill-rule="nonzero"/>
                                    <use xlink:href="#g854670B5541A41158BAA91FAE841B77F" x="39.8475" y="0" fill="#f5f5f4" fill-rule="nonzero"/>
                                    <use xlink:href="#g888E6EA354705C58939E6364ED1F59F8" x="45.8475" y="0" fill="#f5f5f4" fill-rule="nonzero"/>
                                    <use xlink:href="#gE6FA71B64240DE9A4F06D16F042082EF" x="49.7925" y="0" fill="#f5f5f4" fill-rule="nonzero"/>
                                    <use xlink:href="#gA28C9894B642AF6C8F2B3C1C9EC4CC5D" x="53.5725" y="0" fill="#f5f5f4" fill-rule="nonzero"/>
                                    <use xlink:href="#g8D5384C37DD896F0CA420DBA0B3E7206" x="56.497499999999995" y="0" fill="#f5f5f4" fill-rule="nonzero"/>
                                    <use xlink:href="#gAA50B0CBE5AE21DAD34C6F7A91F3F99C" x="58.529999999999994" y="0" fill="#f5f5f4" fill-rule="nonzero"/>
                                    <use xlink:href="#g8D5384C37DD896F0CA420DBA0B3E7206" x="60.89999999999999" y="0" fill="#f5f5f4" fill-rule="nonzero"/>
                                    <use xlink:href="#gE6FA71B64240DE9A4F06D16F042082EF" x="62.93249999999999" y="0" fill="#f5f5f4" fill-rule="nonzero"/>
                                    <use xlink:href="#g5307CFE60FC8CBD80F7D9D47F4F22214" x="66.71249999999999" y="0" fill="#f5f5f4" fill-rule="nonzero"/>
                                    <use xlink:href="#g7EFA5A1A160F05DD513DBD2496E26F4F" x="70.77749999999999" y="0" fill="#f5f5f4" fill-rule="nonzero"/>
                                </g>
                            </g>
                        </g>
                    </g>
                </g>
                <path class="typst-shape" fill="#56b4e933" fill-rule="nonzero" stroke="#56b4e9" stroke-width="0.8" stroke-linecap="butt" stroke-linejoin="miter" stroke-miterlimit="4" transform="matrix(1 0 0 1 14.173228346456693 -45.354330708661415)" d="M 0 0m 0 187.73595 h 198.4252 l 17.007874 -25.51181 h -198.4252 l -17.007874 25.51181 Z "/>
                <path class="typst-shape" fill="none" transform="matrix(1 0 0 1 106.71808409202755 -55.32410340797245)" d="M 0 0m 0 182.16368 h 30.343359 v 5.5722656 h -30.343359 v -5.5722656 Z "/>
                <g class="typst-group">
                    <g>
                        <g class="typst-group" transform="matrix(1 0 0 1 106.71808407874016 126.83958382381887)">
                            <g>
                                <g class="typst-text" transform="matrix(1 0 0 -1 0.00000001328739891168808 5.4703125)">
                                    <use xlink:href="#gC3A0DE23B9C6DA6F2B84C7F5B941229F" x="0" y="0" fill="#f5f5f4" fill-rule="nonzero"/>
                                    <use xlink:href="#gC8A8AE406CC663D031E74C1A0FAFDF69" x="4.334765625000001" y="0" fill="#f5f5f4" fill-rule="nonzero"/>
                                    <use xlink:href="#g4A1B7C45AC0CEF9184D120F4EB65F34C" x="8.669531250000002" y="0" fill="#f5f5f4" fill-rule="nonzero"/>
                                    <use xlink:href="#gC79D3938216D2AC8D150761F795B5C5B" x="13.004296875000003" y="0" fill="#f5f5f4" fill-rule="nonzero"/>
                                    <use xlink:href="#gA90F0CCE043324E79C03F259D29A41C7" x="17.339062500000004" y="0" fill="#f5f5f4" fill-rule="nonzero"/>
                                    <use xlink:href="#gE75D960F44FFEA54094D9B6B5BD1A02F" x="21.673828125000007" y="0" fill="#f5f5f4" fill-rule="nonzero"/>
                                    <use xlink:href="#gB277784B51B542DB86A548F243F8ED8F" x="26.00859375000001" y="0" fill="#f5f5f4" fill-rule="nonzero"/>
                                </g>
                            </g>
                        </g>
                    </g>
                </g>
                <path class="typst-shape" fill="#d55e0033" fill-rule="nonzero" stroke="#d55e00" stroke-width="0.8" stroke-linecap="butt" stroke-linejoin="miter" stroke-miterlimit="4" transform="matrix(1 0 0 1 14.173228346456693 -75.11811023622049)" d="M 0 0m 0 187.73595 h 198.4252 l 17.007874 -25.51181 h -198.4252 l -17.007874 25.51181 Z "/>
                <path class="typst-shape" fill="none" transform="matrix(1 0 0 1 106.71808409202755 -85.08788293553151)" d="M 0 0m 0 182.16368 h 30.343359 v 5.5722656 h -30.343359 v -5.5722656 Z "/>
                <g class="typst-group">
                    <g>
                        <g class="typst-group" transform="matrix(1 0 0 1 106.71808407874016 97.07580429625983)">
                            <g>
                                <g class="typst-text" transform="matrix(1 0 0 -1 0.00000001328739891168808 5.4703125)">
                                    <use xlink:href="#gC8A8AE406CC663D031E74C1A0FAFDF69" x="0" y="0" fill="#f5f5f4" fill-rule="nonzero"/>
                                    <use xlink:href="#g3248603D5962339EABFD815DAD11A65D" x="4.334765625000001" y="0" fill="#f5f5f4" fill-rule="nonzero"/>
                                    <use xlink:href="#g3248603D5962339EABFD815DAD11A65D" x="8.669531250000002" y="0" fill="#f5f5f4" fill-rule="nonzero"/>
                                    <use xlink:href="#gD24466E75209067CD342E144A8E1A92D" x="13.004296875000003" y="0" fill="#f5f5f4" fill-rule="nonzero"/>
                                    <use xlink:href="#g475F4CB7270CD272CFBFE01AA9BC985E" x="17.339062500000004" y="0" fill="#f5f5f4" fill-rule="nonzero"/>
                                    <use xlink:href="#gE75D960F44FFEA54094D9B6B5BD1A02F" x="21.673828125000007" y="0" fill="#f5f5f4" fill-rule="nonzero"/>
                                    <use xlink:href="#gB277784B51B542DB86A548F243F8ED8F" x="26.00859375000001" y="0" fill="#f5f5f4" fill-rule="nonzero"/>
                                </g>
                            </g>
                        </g>
                    </g>
                </g>
                <path class="typst-shape" fill="#0072b233" fill-rule="nonzero" stroke="#0072b2" stroke-width="0.8" stroke-linecap="butt" stroke-linejoin="miter" stroke-miterlimit="4" transform="matrix(1 0 0 1 14.173228346456693 -104.88188976377953)" d="M 0 0m 0 187.73595 h 198.4252 l 17.007874 -25.51181 h -198.4252 l -17.007874 25.51181 Z "/>
                <path class="typst-shape" fill="none" transform="matrix(1 0 0 1 106.71808409202755 -114.85166246309056)" d="M 0 0m 0 182.16368 h 30.343359 v 5.5722656 h -30.343359 v -5.5722656 Z "/>
                <g class="typst-group">
                    <g>
                        <g class="typst-group" transform="matrix(1 0 0 1 106.71808407874016 67.31202476870078)">
                            <g>
                                <g class="typst-text" transform="matrix(1 0 0 -1 0.00000001328739891168808 5.4703125)">
                                    <use xlink:href="#g2535F1549CCF4F12B0DF897A611920DA" x="0" y="0" fill="#f5f5f4" fill-rule="nonzero"/>
                                    <use xlink:href="#g4A1B7C45AC0CEF9184D120F4EB65F34C" x="4.334765625000001" y="0" fill="#f5f5f4" fill-rule="nonzero"/>
                                    <use xlink:href="#gC8A8AE406CC663D031E74C1A0FAFDF69" x="8.669531250000002" y="0" fill="#f5f5f4" fill-rule="nonzero"/>
                                    <use xlink:href="#gA90F0CCE043324E79C03F259D29A41C7" x="13.004296875000003" y="0" fill="#f5f5f4" fill-rule="nonzero"/>
                                    <use xlink:href="#g2E14D1BF79E27CE68E98D0BDA16240F" x="17.339062500000004" y="0" fill="#f5f5f4" fill-rule="nonzero"/>
                                    <use xlink:href="#gE75D960F44FFEA54094D9B6B5BD1A02F" x="21.673828125000007" y="0" fill="#f5f5f4" fill-rule="nonzero"/>
                                    <use xlink:href="#gB277784B51B542DB86A548F243F8ED8F" x="26.00859375000001" y="0" fill="#f5f5f4" fill-rule="nonzero"/>
                                </g>
                            </g>
                        </g>
                    </g>
                </g>
                <path class="typst-shape" fill="#f4b74033" fill-rule="nonzero" stroke="#f4b740" stroke-width="0.8" stroke-linecap="butt" stroke-linejoin="miter" stroke-miterlimit="4" transform="matrix(1 0 0 1 14.173228346456693 -134.64566929133858)" d="M 0 0m 0 187.73595 h 198.4252 l 17.007874 -25.51181 h -198.4252 l -17.007874 25.51181 Z "/>
                <path class="typst-shape" fill="none" transform="matrix(1 0 0 1 98.52576377952755 -144.3865748031496)" d="M 0 0m 0 181.70595 h 46.728 v 6.029999 h -46.728 v -6.029999 Z "/>
                <g class="typst-group">
                    <g>
                        <g class="typst-group" transform="matrix(1 0 0 1 98.52576377952757 37.31937793405511)">
                            <g>
                                <g class="typst-text" transform="matrix(1 0 0 -1 0 5.922000000000001)">
                                    <use xlink:href="#gFBD4E344D96ED3A9A07E1657F03CD509" x="0" y="0" fill="#f5f5f4" fill-rule="nonzero"/>
                                    <use xlink:href="#gBFC892813FD2F4ED1D34C75E3814D6EF" x="2.844" y="0" fill="#f5f5f4" fill-rule="nonzero"/>
                                    <use xlink:href="#g91DD68307EF125FFC7E6E96B43192FBA" x="7.686" y="0" fill="#f5f5f4" fill-rule="nonzero"/>
                                    <use xlink:href="#g8D3E8288F9CD117D1B7BF6E61F176ACB" x="11.709" y="0" fill="#f5f5f4" fill-rule="nonzero"/>
                                    <use xlink:href="#g91DD68307EF125FFC7E6E96B43192FBA" x="18.819" y="0" fill="#f5f5f4" fill-rule="nonzero"/>
                                    <use xlink:href="#g699673A7AE79185ADFE9B9D7CECE02EA" x="25.092" y="0" fill="#f5f5f4" fill-rule="nonzero"/>
                                    <use xlink:href="#gCEDD292E0F8B064B55A824CE3C769BDD" x="32.292" y="0" fill="#f5f5f4" fill-rule="nonzero"/>
                                    <use xlink:href="#g14FFCF11D22CC8B3F2FFFB78F3C50CA3" x="34.668" y="0" fill="#f5f5f4" fill-rule="nonzero"/>
                                    <use xlink:href="#g9F8B55EBD7896C59C161B3EB774E2FDF" x="38.781" y="0" fill="#f5f5f4" fill-rule="nonzero"/>
                                    <use xlink:href="#g3B669BA75EFD9138C33F8936E214EDB6" x="43.217999999999996" y="0" fill="#f5f5f4" fill-rule="nonzero"/>
                                </g>
                            </g>
                        </g>
                    </g>
                </g>
            </g>
        </g>
    </g>
    <defs id="glyph">
        <symbol id="g9543066C6D8669D9C09A56B9E1DD7752" overflow="visible">
            <path d="M 0 0m 1.5539062 0.55546874 v -2.053125 h -1.0265625 v 5.4351563 h 1.0265625 v -0.59062505 q 0.16171873 0.34101558 0.4253906 0.5132811 q 0.263672 0.17226553 0.61875 0.17226553 q 0.67499995 0 1.0476563 -0.54140615 q 0.3726561 -0.54140615 0.3726561 -1.5257812 q 0 -0.9984374 -0.3779297 -1.5328124 q -0.3779297 -0.53437495 -1.077539 -0.53437495 q -0.31640625 0 -0.56777334 0.16347656 q -0.2513672 0.16347656 -0.441211 0.4939453 Z m 1.434375 1.4167969 q 0 0.5695313 -0.1898439 0.8929688 q -0.18984365 0.32343745 -0.523828 0.32343745 q -0.33398438 0 -0.52734375 -0.32343745 q -0.19335938 -0.32343745 -0.19335938 -0.8929688 q 0 -0.5695313 0.19335938 -0.8929688 q 0.19335938 -0.32343745 0.52734375 -0.32343745 q 0.33398438 0 0.523828 0.32343745 q 0.1898439 0.32343745 0.1898439 0.8929688 Z "/>
        </symbol>
        <symbol id="gF4C5937E02D4A5629913AE0BFFC350E4" overflow="visible">
            <path d="M 0 0m 1.3605468 1.6417968 v 3.0375001 h -1.0441406 v 0.79101515 h 2.0742188 v -3.8285153 q 0 -0.46406245 0.14414048 -0.6574218 q 0.14414072 -0.19335938 0.48867202 -0.19335938 h 0.82265615 v -0.7910156 h -1.1109376 q -0.7347655 0 -1.0546874 0.3796875 q -0.31992185 0.3796875 -0.31992185 1.2621093 Z "/>
        </symbol>
        <symbol id="g31E2C2C9A618D3B3B22C329BD5E2B285" overflow="visible">
            <path d="M 0 0m 2.1656249 3.195703 q -0.3691405 0 -0.580078 -0.3251953 q -0.2109375 -0.3251953 -0.2109375 -0.90527344 q 0 -0.5800781 0.2109375 -0.9052733 q 0.2109375 -0.32519537 0.580078 -0.32519537 q 0.37265635 0 0.58359385 0.32519537 q 0.2109375 0.3251952 0.2109375 0.9052733 q 0 0.5800781 -0.2109375 0.90527344 q -0.2109375 0.3251953 -0.58359385 0.3251953 Z m -1.8210936 -1.2304688 q 0 0.9527345 0.4939453 1.5099609 q 0.49394536 0.5572264 1.3271483 0.5572264 q 0.8367188 0 1.3306642 -0.5572264 q 0.49394536 -0.5572264 0.49394536 -1.5099609 q 0 -0.95273435 -0.49394536 -1.5099609 q -0.49394536 -0.55722654 -1.3306642 -0.55722654 q -0.83320296 0 -1.3271483 0.55722654 q -0.4939453 0.55722654 -0.4939453 1.5099609 Z "/>
        </symbol>
        <symbol id="g7E8DD8922B33614D0B3BCE27FAA0C95E" overflow="visible">
            <path d="M 0 0m 2.4257813 5.0554686 v -1.1179686 h 1.3464842 v -0.7910156 h -1.3464842 v -1.8632813 q 0 -0.26367188 0.12832022 -0.3779297 q 0.12832046 -0.11425781 0.42714834 -0.11425781 h 0.7910156 v -0.7910156 h -0.8648436 q -0.88593745 0 -1.1988281 0.2830078 q -0.31289065 0.2830078 -0.31289065 1.0494142 v 1.8140625 h -1.0054687 v 0.7910156 h 1.0054687 v 1.1179686 h 1.0300782 Z "/>
        </symbol>
        <symbol id="g14C0D73F576701A72D64F3E4DB82C8C7" overflow="visible">
            <path d="M 0 0m 3.2484374 5.463281 q -0.46406245 -0.8402343 -0.68906236 -1.6277344 q -0.22500014 -0.7874999 -0.22500014 -1.5749998 q 0 -0.7804688 0.22500014 -1.5732422 q 0.2249999 -0.7927734 0.68906236 -1.6365235 h -0.80156255 q -0.5589843 0.81210935 -0.82968736 1.6013672 q -0.2707032 0.7892578 -0.2707032 1.6083984 q 0 0.81562495 0.27246094 1.6083982 q 0.27246094 0.7927737 0.8279296 1.594336 h 0.80156255 Z "/>
        </symbol>
        <symbol id="gEB0792E3994DE3E01164F7A09A90650C" overflow="visible">
            <path d="M 0 0m 1.0863281 5.463281 h 0.8015624 q 0.5554688 -0.8015623 0.82792974 -1.594336 q 0.27246094 -0.79277325 0.27246094 -1.6083982 q 0 -0.8191407 -0.27070332 -1.6083984 q -0.27070308 -0.78925776 -0.82968736 -1.6013672 h -0.8015624 q 0.46406245 0.84375 0.6890625 1.6365235 q 0.2249999 0.7927734 0.2249999 1.5732422 q 0 0.7874999 -0.2249999 1.5749998 q -0.22500002 0.78750014 -0.6890625 1.6277344 Z "/>
        </symbol>
        <symbol id="g99796C31F6FCCA870284063E7E41F33D" overflow="visible">
            <path d="M 0 0m 3.0059998 0.45 c 0.045000076 0.035999984 0.12600017 0.05399996 0.13499999 -0.009000003 c 0.02699995 -0.21599999 0.09899998 -0.53099996 0.09899998 -0.53099996 c 0.07200003 -0.027000003 0.1170001 -0.018 0.171 0 c 0.19799995 0.162 0.513 0.297 1.0619998 0.35999998 c 0.054000378 0.05400002 0.054000378 0.18900001 0 0.24299997 c -0.57599974 0.045000017 -0.6569998 0.21600002 -0.6569998 0.657 v 4.0769997 c 0 0.58500004 0.036000013 0.9450002 0.036000013 0.9450002 c 0 0.062999725 -0.036000013 0.089999676 -0.116999865 0.089999676 c -0.22500014 -0.089999676 -0.9000001 -0.21600008 -1.26 -0.24300003 c -0.018000126 -0.07200003 0 -0.2159996 0.0539999 -0.26999998 c 0.027000189 0 0.05400014 0 0.08100009 0 c 0.3959999 -0.02699995 0.4949999 -0.02699995 0.4949999 -0.7379999 v -1.1519997 c 0 -0.0630002 -0.017999887 -0.08100009 -0.08099985 -0.08100009 c -0.036000013 0 -0.40499997 0.15299988 -0.70200014 0.15299988 c -0.59399986 0 -0.9899999 -0.19799995 -1.3499999 -0.53999996 c -0.38699996 -0.38699985 -0.62099993 -0.918 -0.62099993 -1.5839999 c 0 -1.1069999 0.55799997 -1.9169999 1.53 -1.9169999 c 0.35099995 0 0.6839999 0.17999999 1.1249999 0.53999996 Z m 0.09899998 0.66599995 c 0 -0.171 -0.017999887 -0.24299997 -0.14399981 -0.35099995 c -0.33300018 -0.28800002 -0.62100005 -0.432 -0.84599996 -0.432 c -0.48600006 0 -0.99 0.531 -0.99 1.656 c 0 0.6479999 0.12599993 1.008 0.26099992 1.1969999 c 0.27900004 0.42299986 0.65700006 0.45000005 0.8369999 0.45000005 c 0.32400012 0 0.549 -0.1170001 0.7290001 -0.32400012 c 0.12599993 -0.14400005 0.15299988 -0.20700002 0.15299988 -0.48599982 Z "/>
        </symbol>
        <symbol id="g14FFCF11D22CC8B3F2FFFB78F3C50CA3" overflow="visible">
            <path d="M 0 0m 2.6369998 0.43199998 c 0.05400014 -0.27899998 0.15300012 -0.52199996 0.6029999 -0.52199996 c 0.342 0 0.6660001 0.153 0.855 0.33299997 c -0.018000126 0.107999995 -0.0539999 0.189 -0.15299988 0.24299999 c -0.062999964 -0.05399999 -0.21600008 -0.144 -0.33300018 -0.144 c -0.26099992 0 -0.26999998 0.35099998 -0.26999998 0.765 v 1.3229998 c 0 1.2780001 -0.7019999 1.5209999 -1.3589998 1.5209999 c -0.7379999 0 -1.4849999 -0.48599982 -1.4849999 -0.99899983 c 0 -0.21600008 0.10800001 -0.32400012 0.31499997 -0.32400012 c 0.26100004 0 0.42299998 0.18900013 0.42299998 0.306 c 0 0.0630002 -0.008999944 0.12600017 -0.02699995 0.16200018 c -0.009000063 0.02699995 -0.018000007 0.08099985 -0.018000007 0.17999983 c 0 0.27900004 0.37800002 0.37800002 0.7199999 0.37800002 c 0.3060001 0 0.729 -0.15299988 0.729 -1.1699998 c 0 -0.062999964 -0.02699995 -0.09899998 -0.0539999 -0.10800004 l -0.77400005 -0.18900013 c -0.86399996 -0.21599984 -1.4849999 -0.69299984 -1.4849999 -1.3049998 c 0 -0.738 0.50399995 -0.97199994 1.134 -0.97199994 c 0.31499994 0 0.58500004 0.072 0.98099995 0.378 l 0.18000007 0.144 Z m 0 1.665 v -1.188 c 0 -0.11700004 -0.0539999 -0.18 -0.12599993 -0.23400003 c -0.23399997 -0.18899998 -0.53999996 -0.39599997 -0.79199994 -0.39599997 c -0.45000005 0 -0.648 0.36 -0.648 0.639 c 0 0.40499997 0.18900001 0.8189999 0.8549999 0.9899999 Z "/>
        </symbol>
        <symbol id="gFBD4E344D96ED3A9A07E1657F03CD509" overflow="visible">
            <path d="M 0 0m 0.387 3.8609998 c -0.12600002 0 -0.162 -0.10800004 -0.162 -0.18000007 v -0.116999865 c 0 -0.045000076 0.009000003 -0.05400014 0.044999987 -0.05400014 h 0.53099996 v -2.7089999 c 0 -0.63899994 0.27899998 -0.8909999 0.693 -0.8909999 c 0.41399992 0 0.86399984 0.19799998 1.2149999 0.5939999 c -0.017999887 0.09000003 -0.07200003 0.14400005 -0.16199994 0.153 c -0.23399997 -0.17999998 -0.50399995 -0.25199997 -0.73800004 -0.25199997 c -0.24299991 0 -0.29699993 0.26999998 -0.29699993 0.82799995 v 2.277 h 0.936 c 0.089999914 0 0.21599984 0.036000013 0.21599984 0.1170001 v 0.18000007 c 0 0.036000013 -0.02699995 0.0539999 -0.07199979 0.0539999 h -1.08 v 0.35100007 c 0 0.58500004 0.036000013 0.9449997 0.036000013 0.9449997 c 0 0.054000378 -0.02700007 0.08100033 -0.07200003 0.08100033 c -0.036000013 0 -0.116999984 -0.03600025 -0.19799995 -0.08100033 c -0.0990001 -0.0539999 -0.18900001 -0.09899998 -0.30600005 -0.12599993 c -0.10799998 -0.035999775 -0.19799995 -0.062999725 -0.19799995 -0.12599993 c 0 -0.1079998 0.02699995 -0.045000076 0.02699995 -1.0439999 Z "/>
        </symbol>
        <symbol id="g699673A7AE79185ADFE9B9D7CECE02EA" overflow="visible">
            <path d="M 0 0m 2.25 3.9149997 v -1.4309998 h -1.485 c -0.10800004 0 -0.22500002 -0.171 -0.22500002 -0.306 c 0 -0.07200003 0.05400002 -0.14400005 0.13499999 -0.14400005 h 1.575 v -1.53 c 0 -0.08099997 0.07199979 -0.13499996 0.14399981 -0.13499996 c 0.13499999 0 0.306 0.116999984 0.306 0.225 v 1.4399999 h 1.467 c 0.1170001 0 0.24300003 0.20700002 0.24300003 0.29699993 c 0 0.07200003 -0.03600025 0.15300012 -0.12599993 0.15300012 h -1.5840001 v 1.5479996 c 0 0.09000015 -0.08099985 0.1260004 -0.15299988 0.1260004 c -0.09000015 0 -0.29699993 -0.1260004 -0.29699993 -0.24300027 Z "/>
        </symbol>
        <symbol id="g4A1B7C45AC0CEF9184D120F4EB65F34C" overflow="visible">
            <path d="M 0 0m 2.4679687 1.9792968 h -0.21445322 q -0.5660155 0 -0.85253894 -0.19863284 q -0.28652346 -0.19863272 -0.28652346 -0.5923828 q 0 -0.3550781 0.2144531 -0.5519531 q 0.2144531 -0.19687498 0.59414065 -0.19687498 q 0.53437495 0 0.8402343 0.37089843 q 0.30585933 0.37089843 0.30937505 1.0248046 v 0.1441406 h -0.60468745 Z m 1.2550781 0.26718748 v -2.2464843 h -0.6503906 v 0.5835937 q -0.20742178 -0.3515625 -0.52207017 -0.5185547 q -0.31464863 -0.16699219 -0.76464856 -0.16699219 q -0.60117185 0 -0.95976555 0.3392578 q -0.35859376 0.33925778 -0.35859376 0.90878904 q 0 0.6574218 0.44121093 0.9984375 q 0.44121087 0.34101558 1.2955078 0.34101558 h 0.8683593 v 0.10195303 q -0.0035157204 0.4710939 -0.23906255 0.683789 q -0.23554683 0.21269536 -0.75234365 0.21269536 q -0.33046877 0 -0.66796875 -0.09492183 q -0.33749998 -0.09492183 -0.6574218 -0.27773428 v 0.6468749 q 0.3585937 0.13710928 0.6873046 0.20566416 q 0.3287109 0.0685544 0.63808596 0.0685544 q 0.48867178 0 0.83496094 -0.14414048 q 0.34628892 -0.14414048 0.56074214 -0.43242192 q 0.1335938 -0.17578125 0.18984365 -0.43417954 q 0.056250095 -0.25839853 0.056250095 -0.77519536 Z "/>
        </symbol>
        <symbol id="gA90F0CCE043324E79C03F259D29A41C7" overflow="visible">
            <path d="M 0 0m 3.909375 2.1304686 v -0.31640613 h -2.801953 v -0.021093726 q 0 -0.6433594 0.33574212 -0.9949219 q 0.33574224 -0.35156247 0.947461 -0.35156247 q 0.3093748 0 0.6468749 0.09843752 q 0.3375001 0.09843749 0.7207031 0.29882813 v -0.64335936 q -0.36914063 -0.15117188 -0.71191406 -0.22675781 q -0.34277344 -0.07558593 -0.66269517 -0.07558593 q -0.9175782 0 -1.434375 0.55019534 q -0.5167969 0.5501953 -0.5167969 1.5169921 q 0 0.94218755 0.50624996 1.5046875 q 0.50625 0.56249976 1.3499999 0.56249976 q 0.7523439 0 1.1865234 -0.5097654 q 0.43417978 -0.5097656 0.43417978 -1.3921876 Z m -0.64687514 0.1898439 q -0.014062405 0.5695312 -0.26894522 0.86660147 q -0.2548828 0.29707026 -0.73300767 0.29707026 q -0.46757817 0 -0.769922 -0.30937505 q -0.30234373 -0.3093748 -0.3585937 -0.8578124 l 2.1304686 0.0035157204 Z "/>
        </symbol>
        <symbol id="gC3A0DE23B9C6DA6F2B84C7F5B941229F" overflow="visible">
            <path d="M 0 0m 3.420703 3.8003905 v -0.6328125 q -0.27773428 0.16171885 -0.5589843 0.24257827 q -0.28125 0.080859184 -0.5730469 0.080859184 q -0.439453 0 -0.65566397 -0.14238262 q -0.21621096 -0.14238286 -0.21621096 -0.43417978 q 0 -0.26367188 0.16171873 -0.39374995 q 0.16171885 -0.13007808 0.80507827 -0.25312495 l 0.26015615 -0.049218893 q 0.48164058 -0.09140611 0.7294922 -0.3656249 q 0.24785161 -0.2742188 0.24785161 -0.7136718 q 0 -0.5835938 -0.4148438 -0.9123047 q -0.4148438 -0.3287109 -1.153125 -0.3287109 q -0.2917968 0 -0.61171865 0.061523434 q -0.31992185 0.061523434 -0.69257814 0.1845703 v 0.66796875 q 0.36210936 -0.18632811 0.69257814 -0.2794922 q 0.33046865 -0.09316403 0.6257813 -0.09316403 q 0.4289062 0 0.664453 0.17402345 q 0.23554683 0.17402339 0.23554683 0.48691398 q 0 0.45000005 -0.8613281 0.6222657 l -0.028125048 0.0070312023 l -0.24257803 0.049218774 q -0.5589844 0.10898435 -0.81562495 0.36738288 q -0.25664067 0.2583983 -0.25664067 0.7048826 q 0 0.5660157 0.38320315 0.8736329 q 0.38320315 0.30761695 1.0933594 0.30761695 q 0.31640625 0 0.6082032 -0.058007717 q 0.29179668 -0.058007717 0.5730467 -0.17402339 Z "/>
        </symbol>
        <symbol id="g2734FD600742A2DE42DFF98FF64F494E" overflow="visible">
            <path d="M 0 0m 3.1113281 5.463281 q -0.46757817 -0.8015623 -0.69785166 -1.5978515 q -0.23027349 -0.7962892 -0.23027349 -1.6048827 q 0 -0.80507827 0.23027349 -1.6031251 q 0.23027349 -0.7980469 0.69785166 -1.6066406 h -0.5625 q -0.5308595 0.83671874 -0.7910156 1.6294922 q -0.26015627 0.79277337 -0.26015627 1.5802735 q 0 0.7839842 0.26015627 1.5785155 q 0.26015615 0.7945311 0.7910156 1.6242187 h 0.5625 Z "/>
        </symbol>
        <symbol id="g633B4A445F2A0EA95FF9EE6F81B08956" overflow="visible">
            <path d="M 0 0m 1.2234374 5.463281 h 0.5625 q 0.53085935 -0.8296876 0.79101574 -1.6242187 q 0.26015615 -0.79453135 0.26015615 -1.5785155 q 0 -0.79101574 -0.26015615 -1.585547 q -0.2601564 -0.7945312 -0.79101574 -1.6242187 h -0.5625 q 0.46757817 0.815625 0.69785154 1.6136718 q 0.23027349 0.7980469 0.23027349 1.5960939 q 0 0.8015623 -0.23027349 1.5996091 q -0.23027337 0.79804707 -0.69785154 1.6031251 Z "/>
        </symbol>
        <symbol id="gCEDD292E0F8B064B55A824CE3C769BDD" overflow="visible">
            <path d="M 0 0m 0.85499996 1.0979999 c 0 -0.747 -0.09899998 -0.79199994 -0.648 -0.81899995 c -0.05399999 -0.05399999 -0.05399999 -0.24299999 0 -0.297 c 0.31499997 0.009 0.648 0.018 1.0079999 0.018 c 0.36 0 0.702 -0.009 0.9990001 -0.018 c 0.0539999 0.053999998 0.0539999 0.243 0 0.297 c -0.549 0.02700001 -0.648 0.072 -0.648 0.81899995 v 4.1489997 c 0 0.58500004 0.035999894 0.9450002 0.035999894 0.9450002 c 0 0.062999725 -0.035999894 0.089999676 -0.116999984 0.089999676 c -0.2249999 -0.089999676 -0.8999999 -0.21600008 -1.2599999 -0.24300003 c -0.018000007 -0.07200003 0 -0.2159996 0.05399999 -0.26999998 c 0.52199996 -0.035999775 0.576 -0.062999725 0.576 -0.7379999 Z "/>
        </symbol>
        <symbol id="g358B715444CBF52B91467032A4F4A305" overflow="visible">
            <path d="M 0 0m 1.836 -1.4399999 c 0.14399993 0.25199997 0.26099992 0.50399995 0.36899996 0.774 c 0.72 1.737 1.125 2.6639998 1.5929999 3.6719997 c 0.18000007 0.37800002 0.30599976 0.5220001 0.7290001 0.576 c 0.0539999 0.05400014 0.0539999 0.24300003 0 0.29700017 c -0.1800003 -0.009000063 -0.38700008 -0.018000126 -0.6390002 -0.018000126 c -0.26999998 0 -0.549 0.009000063 -0.819 0.018000126 c -0.0539999 -0.05400014 -0.0539999 -0.24300003 0 -0.29700017 c 0.2880001 -0.02699995 0.576 -0.08099985 0.43200016 -0.40499997 l -0.89100003 -2.0609999 c -0.062999964 -0.144 -0.14400005 -0.171 -0.21600008 0.009000063 l -0.8009999 1.872 c -0.16199994 0.37799978 -0.20700002 0.5489998 0.29699993 0.5849998 c 0.05400002 0.05400014 0.05400002 0.24300003 0 0.29700017 c -0.33299994 -0.009000063 -0.69299996 -0.018000126 -1.017 -0.018000126 c -0.306 0 -0.54899997 0.009000063 -0.729 0.018000126 c -0.053999998 -0.05400014 -0.053999998 -0.24300003 0 -0.29700017 c 0.35999995 -0.044999838 0.477 -0.12599993 0.71099997 -0.67499995 l 1.017 -2.3669999 c 0.08099997 -0.17999998 0.21599984 -0.594 0.12599993 -0.84599996 c -0.10800004 -0.297 -0.21599996 -0.54899997 -0.35099995 -0.82799995 c -0.09899998 -0.17999995 -0.22500002 -0.26100004 -0.45000005 -0.26100004 c -0.12599993 0 -0.16199994 0.02700007 -0.26099992 0.02700007 c -0.26100004 0 -0.39600003 -0.26999998 -0.39600003 -0.38699996 c 0 -0.18900001 0.18 -0.33299994 0.42299998 -0.33299994 c 0.18900001 0 0.549 0.07200003 0.873 0.6479999 Z "/>
        </symbol>
        <symbol id="g91DD68307EF125FFC7E6E96B43192FBA" overflow="visible">
            <path d="M 0 0m 3.4739997 0.83699995 c -0.33299994 -0.34199998 -0.59399986 -0.48599997 -1.1159999 -0.48599997 c -0.32399988 0 -0.7019999 0.18899998 -0.9809998 0.648 c -0.18000007 0.29700005 -0.288 0.71099997 -0.288 1.2329999 l 2.3939998 -0.017999887 c 0.10800004 0 0.171 0.0539999 0.171 0.15299988 c 0 0.75600004 -0.26999998 1.566 -1.5209999 1.566 c -0.783 0 -1.8 -0.747 -1.8 -2.1149998 c 0 -0.50400007 0.12600002 -0.99 0.423 -1.332 c 0.30599993 -0.35999998 0.7289999 -0.576 1.3769999 -0.576 c 0.684 0 1.1700001 0.315 1.53 0.78299993 c -0.02699995 0.09000003 -0.08100009 0.13499999 -0.18900013 0.144 Z m -2.3579998 1.701 c 0.171 1.017 0.801 1.098 1.017 1.098 c 0.342 0 0.747 -0.18900013 0.747 -0.94499993 c 0 -0.08100009 -0.036000013 -0.12600017 -0.13499999 -0.12600017 Z "/>
        </symbol>
        <symbol id="g50021A3696CAE42BA59744531116F1DC" overflow="visible">
            <path d="M 0 0m 1.5839999 3.222 c -0.017999887 0.3599999 -0.02699995 0.59399986 -0.07199991 0.684 c -0.018000007 0.044999838 -0.036000013 0.07200003 -0.10800004 0.07200003 c -0.25199997 -0.09899998 -0.48599994 -0.18000007 -1.1069999 -0.26100016 c -0.018000007 -0.0539999 0 -0.19799995 0.018000007 -0.25199986 c 0.48599994 -0.045000076 0.585 -0.09000015 0.585 -0.612 v -1.755 c 0 -0.747 -0.10800004 -0.78299993 -0.666 -0.81899995 c -0.054000005 -0.05399999 -0.054000005 -0.24299999 0 -0.297 c 0.31499997 0.009 0.666 0.018 1.026 0.018 c 0.3599999 0 0.7739999 -0.009 1.089 -0.018 c 0.0539999 0.053999998 0.0539999 0.243 0 0.297 c -0.63 0.045000017 -0.73800004 0.072 -0.73800004 0.81899995 v 1.251 c 0 0.23399997 0.10800004 0.44099998 0.21599996 0.6029999 c 0.09899998 0.14400005 0.306 0.44099998 0.41400003 0.44099998 c 0.08099985 0 0.16199994 -0.018000126 0.23399997 -0.1170001 c 0.062999964 -0.089999914 0.171 -0.20700002 0.32399988 -0.20700002 c 0.21600008 0 0.4230001 0.22500014 0.4230001 0.45000005 c 0 0.171 -0.16199994 0.43199992 -0.53999996 0.43199992 c -0.4230001 0 -0.79200006 -0.3959999 -0.99899995 -0.747 c -0.05400002 -0.09899998 -0.0990001 -0.02699995 -0.0990001 0.018000126 Z "/>
        </symbol>
        <symbol id="g29A207B28128DAF45A03EEEF360E1622" overflow="visible">
            <path d="M 0 0m 0.32999998 1.89 c 0 -0.33749998 0.030000001 -2.07 1.5899999 -3.42 c 0.07500005 0.014999986 0.13500011 0.067499995 0.15749991 0.12750006 c -0.24749994 0.28499997 -1.1249999 1.3199999 -1.1249999 3.2925 c 0 1.9725 0.885 3.0075002 1.1249999 3.2775002 c -0.0224998 0.07499981 -0.07499981 0.12750006 -0.15749991 0.13499975 c -0.8924999 -0.76499987 -1.5899999 -2.0175 -1.5899999 -3.4125 Z "/>
        </symbol>
        <symbol id="g440B6A17549F1332B54C60B0A1671C33" overflow="visible">
            <path d="M 0 0m 3.33 2.9025 c 0.14249992 0 0.2774999 0.13499999 0.2774999 0.2850001 c 0 0.15750003 -0.14249992 0.2774999 -0.34500003 0.2774999 c -0.19499993 0 -0.5549998 -0.12750006 -0.74999976 -0.38249993 c -0.09000015 0.059999943 -0.3375001 0.21000004 -0.7800001 0.21000004 c -0.6675 0 -1.2825 -0.45000005 -1.2825 -1.1400001 c 0 -0.40499997 0.18 -0.6374999 0.39 -0.8399999 c -0.20999998 -0.18000007 -0.32999998 -0.5025 -0.32999998 -0.7575 c 0 -0.27 0.14999998 -0.48000002 0.34499997 -0.5775 c -0.40499997 -0.24 -0.61499995 -0.585 -0.61499995 -0.9075 c 0 -0.6525 0.61499995 -0.85499996 1.1925 -0.85499996 c 1.0124999 0 2.1075 0.48749995 2.1075 1.2975 c 0 0.24 -0.11249995 0.42749998 -0.32999992 0.60749996 c -0.29250002 0.23999998 -0.8175001 0.24749997 -1.095 0.24749997 c -0.13500011 0 -0.3225 -0.014999986 -0.50250006 -0.037499994 c -0.11249995 -0.007499993 -0.1875 -0.014999986 -0.22500002 -0.014999986 c -0.21749997 0 -0.47999996 0.10499999 -0.47999996 0.4275 c 0 0.14999998 0.045000017 0.30749995 0.13500005 0.435 c 0.17999995 -0.10500002 0.39 -0.15750003 0.6824999 -0.15750003 c 0.6600001 0 1.2674999 0.41250002 1.2674999 1.1475 c 0 0.35249996 -0.10499978 0.5549998 -0.3225 0.78 c 0.05250001 0.07500005 0.2025001 0.17999983 0.3000002 0.17999983 c 0.05250001 0 0.10500002 -0.0224998 0.14999986 -0.089999914 c 0.029999971 -0.059999943 0.12750006 -0.13499999 0.21000004 -0.13499999 Z m -2.34 -2.9775 c 0.08250004 -0.0225 0.20250005 -0.0375 0.3 -0.0375 c 0.23249996 0 0.4425 0.0225 0.5475 0.0225 c 0.37499988 0 0.68999994 -0.0075000003 0.9074999 -0.1275 c 0.29250002 -0.16499999 0.38249993 -0.26999998 0.38249993 -0.465 c 0 -0.53999996 -0.79499984 -0.8249999 -1.4699999 -0.8249999 c -0.26999998 0 -0.8999999 0.21749997 -0.8999999 0.72749996 c 0 0.255 0.014999986 0.44249997 0.23249996 0.705 Z m 1.4024999 2.1675 c 0 -0.6975 -0.35249996 -0.84000003 -0.63 -0.84000003 c -0.63 0 -0.6975 0.5325 -0.6975 1.0124999 c 0 0.5250001 0.1875 0.7950001 0.6 0.7950001 c 0.4725001 0 0.72749996 -0.34500003 0.72749996 -0.9675 Z "/>
        </symbol>
        <symbol id="g219B132C7B3F811A3395E02B3390D3F1" overflow="visible">
            <path d="M 0 0m 2.895 0.6975 c -0.27750015 -0.285 -0.49500012 -0.405 -0.93000007 -0.405 c -0.26999998 0 -0.5849999 0.1575 -0.8175 0.53999996 c -0.14999992 0.24749994 -0.23999995 0.5925 -0.23999995 1.0275 l 1.9949999 -0.015000105 c 0.089999914 0 0.14249992 0.045000076 0.14249992 0.12750006 c 0 0.63 -0.2249999 1.305 -1.2674999 1.305 c -0.6524999 0 -1.4999999 -0.62249994 -1.4999999 -1.7624999 c 0 -0.41999996 0.10499999 -0.825 0.3525 -1.11 c 0.255 -0.3 0.60749996 -0.48 1.1474999 -0.48 c 0.56999993 0 0.97500014 0.2625 1.2750001 0.6525 c -0.022500038 0.07499999 -0.067500114 0.11250001 -0.15750003 0.120000005 Z m -1.9649999 1.4175 c 0.14249998 0.84749985 0.66749996 0.91499996 0.8474999 0.91499996 c 0.2850001 0 0.62249994 -0.15750003 0.62249994 -0.7874999 c 0 -0.067500114 -0.029999971 -0.10500002 -0.11249995 -0.10500002 Z "/>
        </symbol>
        <symbol id="gE6FA71B64240DE9A4F06D16F042082EF" overflow="visible">
            <path d="M 0 0m 0.3075 1.5375 c 0 -0.76500005 0.51 -1.6125001 1.5749999 -1.6125001 c 0.48000002 0 0.8475001 0.17249998 1.1025 0.42 c 0.3375001 0.33 0.48749995 0.8024999 0.48749995 1.26 c 0 0.78 -0.4275 1.6875 -1.5749999 1.6875 c -0.495 0 -0.8999999 -0.2025001 -1.1775 -0.5250001 c -0.26999998 -0.3225 -0.41249996 -0.75749993 -0.41249996 -1.2299999 Z m 1.4775 1.4925 c 0.64499986 0 1.0424999 -0.58500004 1.0424999 -1.665 c 0 -0.94500005 -0.48749995 -1.1775 -0.8399999 -1.1775 c -0.78 0 -1.035 0.94499993 -1.035 1.5224999 c 0 0.65250003 0.15750003 1.32 0.8325 1.32 Z "/>
        </symbol>
        <symbol id="gCA899D25AF223DBD046583A2ACFB9465" overflow="visible">
            <path d="M 0 0m 1.275 2.685 c -0.0075000525 0.2249999 -0.022500038 0.4949999 -0.060000062 0.56999993 c -0.014999986 0.037500143 -0.029999971 0.059999943 -0.089999914 0.059999943 c -0.21000004 -0.08249998 -0.40500003 -0.14999986 -0.9225 -0.21749997 c -0.015000001 -0.044999838 0 -0.16499996 0.015000001 -0.2099998 c 0.405 -0.037500143 0.48749998 -0.07500005 0.48749998 -0.51 v -1.4625001 c 0 -0.615 -0.097500026 -0.6525 -0.51 -0.68249995 c -0.045 -0.045 -0.045 -0.2025 0 -0.2475 c 0.225 0.0075 0.51 0.015 0.81 0.015 c 0.29999995 0 0.5325 -0.0075 0.75749993 -0.015 c 0.045000076 0.044999998 0.045000076 0.2025 0 0.2475 c -0.38249993 0.03749998 -0.4649999 0.06749998 -0.4649999 0.68249995 v 1.23 c 0 0.15750003 0.067499995 0.24749994 0.12749994 0.31500006 c 0.29999995 0.29250002 0.5775001 0.44249988 0.80999994 0.44249988 c 0.2850001 0 0.49500012 -0.18000007 0.49500012 -0.6824999 v -1.3050001 c 0 -0.615 -0.06000018 -0.6525 -0.46500015 -0.68249995 c -0.037499905 -0.045 -0.037499905 -0.2025 0 -0.2475 c 0.1875 0.0075 0.46500015 0.015 0.7650001 0.015 c 0.29999995 0 0.5474999 -0.0075 0.7349999 -0.015 c 0.037500143 0.044999998 0.037500143 0.2025 0 0.2475 c -0.375 0.029999986 -0.44249988 0.06749998 -0.44249988 0.68249995 v 1.1924999 c 0 0.10500002 0 0.21000004 -0.0075001717 0.3000002 c 0.36000013 0.3974998 0.6975 0.4949999 0.99 0.4949999 c 0.28499985 0 0.4500003 -0.16499996 0.4500003 -0.6675 v -1.3199999 c 0 -0.615 -0.075000286 -0.6525 -0.46500015 -0.68249995 c -0.037499905 -0.045 -0.037499905 -0.2025 0 -0.2475 c 0.1875 0.0075 0.46500015 0.015 0.76499987 0.015 c 0.3000002 0 0.5625 -0.0075 0.77250004 -0.015 c 0.037499905 0.044999998 0.037499905 0.2025 0 0.2475 c -0.4124999 0.029999986 -0.48000002 0.06749998 -0.48000002 0.68249995 v 1.185 c 0 0.6675 -0.11250019 1.1925001 -0.77250004 1.1925001 c -0.3824997 0 -0.84749985 -0.14250016 -1.2375 -0.55500007 c -0.022500038 -0.022500038 -0.067499876 -0.059999943 -0.08249998 0.0074999332 c -0.067499876 0.30750012 -0.3599999 0.54750013 -0.75 0.54750013 c -0.43499994 0 -0.8249999 -0.2550001 -1.1399999 -0.6075001 c -0.037500024 -0.037499905 -0.08249998 -0.089999914 -0.09000003 0 Z "/>
        </symbol>
        <symbol id="g854670B5541A41158BAA91FAE841B77F" overflow="visible">
            <path d="M 0 0m 1.875 3.2624998 v -1.1924999 h -1.2375 c -0.089999974 0 -0.1875 -0.14249992 -0.1875 -0.255 c 0 -0.059999943 0.044999987 -0.120000005 0.11250001 -0.120000005 h 1.3125 v -1.275 c 0 -0.067499995 0.059999943 -0.11249998 0.120000005 -0.11249998 c 0.11249983 0 0.255 0.0975 0.255 0.18749997 v 1.1999999 h 1.2224998 c 0.097500086 0 0.2025001 0.17250001 0.2025001 0.24750006 c 0 0.060000062 -0.029999971 0.12749994 -0.10500002 0.12749994 h -1.3199999 v 1.29 c 0 0.07500005 -0.067500114 0.10500002 -0.12750006 0.10500002 c -0.07500005 0 -0.24749994 -0.10500002 -0.24749994 -0.2025001 Z "/>
        </symbol>
        <symbol id="gA28C9894B642AF6C8F2B3C1C9EC4CC5D" overflow="visible">
            <path d="M 0 0m 0.35999998 1.035 c 0.030000001 -0.3675 0.05250001 -0.71999997 0.05250001 -1.035 c 0.07499999 0.015 0.15 0.022499999 0.18749997 0.022499999 c 0.05250001 0 0.097500026 0 0.15000004 -0.014999999 c 0.20249999 -0.0525 0.40499997 -0.082499996 0.6825 -0.082499996 c 0.41999996 0 1.1925 0.20249999 1.1925 0.945 c 0 0.51 -0.36750007 0.80999994 -0.87750006 0.99749994 c -0.44999993 0.17250001 -0.74999994 0.28499997 -0.74999994 0.6975001 c 0 0.3074999 0.26999992 0.47999978 0.5249999 0.47999978 c 0.16500008 0 0.6 -0.059999943 0.6975001 -0.6975 c 0.044999838 -0.044999838 0.19499993 -0.037499905 0.24000001 0.0075001717 c 0.0224998 0.26999998 0.037499905 0.5474999 0.044999838 0.79499984 c -0.23249984 0.037500143 -0.5925 0.14250016 -0.98249996 0.14250016 c -0.55499995 0 -1.0574999 -0.36000013 -1.0574999 -0.84000015 c 0 -0.5474999 0.24749997 -0.77999985 0.8249999 -1.0199999 c 0.62249994 -0.255 0.7650001 -0.41250002 0.7650001 -0.735 c 0 -0.3675 -0.36000013 -0.525 -0.63750005 -0.525 c -0.29250002 0 -0.45750004 0.09749998 -0.5325 0.17999999 c -0.16500002 0.17249998 -0.2475 0.50249994 -0.29250002 0.69000006 c -0.044999957 0.044999957 -0.18749997 0.037499905 -0.23249999 -0.0075000525 Z "/>
        </symbol>
        <symbol id="gAA50B0CBE5AE21DAD34C6F7A91F3F99C" overflow="visible">
            <path d="M 0 0m 0.3225 3.2175 c -0.10499999 0 -0.13499999 -0.09000015 -0.13499999 -0.1500001 v -0.09749985 c 0 -0.037500143 0.007499993 -0.045000076 0.037499994 -0.045000076 h 0.44249997 v -2.2575 c 0 -0.53249997 0.23250002 -0.74249995 0.57750005 -0.74249995 c 0.3449999 0 0.7199999 0.16499999 1.0124999 0.49499997 c -0.0149998665 0.07499999 -0.059999943 0.119999975 -0.13499999 0.12750003 c -0.19499993 -0.15000004 -0.41999996 -0.21000001 -0.615 -0.21000001 c -0.20249999 0 -0.24749994 0.225 -0.24749994 0.69000006 v 1.8974999 h 0.78 c 0.07500005 0 0.18000007 0.029999971 0.18000007 0.097500086 v 0.14999986 c 0 0.029999971 -0.022500038 0.045000076 -0.06000018 0.045000076 h -0.89999986 v 0.29250002 c 0 0.48749995 0.029999971 0.78750014 0.029999971 0.78750014 c 0 0.0449996 -0.022500038 0.06749964 -0.059999943 0.06749964 c -0.03000009 0 -0.097500086 -0.029999733 -0.16500008 -0.06749964 c -0.08249998 -0.045000076 -0.15749997 -0.08250046 -0.25499994 -0.10500002 c -0.09000003 -0.03000021 -0.16500002 -0.052500248 -0.16500002 -0.10500002 c 0 -0.09000015 0.022499979 -0.03750038 0.022499979 -0.8700001 Z "/>
        </symbol>
        <symbol id="g556F757811C41E68E6D31F1414A1A212" overflow="visible">
            <path d="M 0 0m 2.1975 0.35999998 c 0.045000076 -0.23249999 0.12750006 -0.43499997 0.50250006 -0.43499997 c 0.28499985 0 0.5549998 0.1275 0.71249986 0.2775 c -0.0149998665 0.08999999 -0.045000076 0.15749998 -0.12750006 0.2025 c -0.05250001 -0.045000017 -0.17999983 -0.120000005 -0.2774999 -0.120000005 c -0.21749997 0 -0.2249999 0.2925 -0.2249999 0.6374999 v 1.1025 c 0 1.065 -0.58500004 1.2675002 -1.1325 1.2675002 c -0.615 0 -1.2375 -0.40499997 -1.2375 -0.8325 c 0 -0.18000007 0.09 -0.26999998 0.26250002 -0.26999998 c 0.21749997 0 0.35250002 0.15749979 0.35250002 0.25499988 c 0 0.05250001 -0.0075000525 0.10500002 -0.022500038 0.13499999 c -0.007499993 0.022500038 -0.015000045 0.067500114 -0.015000045 0.1500001 c 0 0.23249984 0.315 0.31499982 0.59999996 0.31499982 c 0.255 0 0.6075001 -0.12749982 0.6075001 -0.9749999 c 0 -0.05250001 -0.022500038 -0.08249998 -0.045000076 -0.09000003 l -0.645 -0.15749991 c -0.71999997 -0.18000007 -1.2375 -0.5775 -1.2375 -1.0875001 c 0 -0.61499995 0.42000002 -0.80999994 0.94499993 -0.80999994 c 0.26250005 0 0.48750007 0.059999995 0.8175001 0.315 l 0.14999986 0.11999999 Z m 0 1.3874999 v -0.98999995 c 0 -0.097500026 -0.045000076 -0.15000004 -0.10500002 -0.195 c -0.19500005 -0.1575 -0.45000005 -0.32999998 -0.65999997 -0.32999998 c -0.375 0 -0.54 0.29999995 -0.54 0.53249997 c 0 0.33749998 0.15749997 0.6825 0.71250004 0.8249999 Z "/>
        </symbol>
        <symbol id="g888E6EA354705C58939E6364ED1F59F8" overflow="visible">
            <path d="M 0 0m 1.17 2.76 c -0.0074999332 0.2249999 -0.022500038 0.41999984 -0.059999943 0.4949999 c -0.014999986 0.037500143 -0.03000009 0.059999943 -0.09000003 0.059999943 c -0.20999998 -0.08249998 -0.40499997 -0.14999986 -0.9225 -0.21749997 c -0.015000001 -0.044999838 0 -0.16499996 0.015000001 -0.2099998 c 0.40499997 -0.037500143 0.48749995 -0.07500005 0.48749995 -0.51 v -3.2025 c 0 -0.6225 -0.08249998 -0.66 -0.53999996 -0.68249995 c -0.044999998 -0.045000076 -0.044999998 -0.20249999 0 -0.24750006 c 0.2625 0.0075000525 0.53999996 0.014999986 0.84 0.014999986 c 0.29999995 0 0.65999997 -0.0074999332 0.9075 -0.014999986 c 0.044999957 0.045000076 0.044999957 0.20249999 0 0.24750006 c -0.5325 0.029999971 -0.615 0.059999943 -0.615 0.68249995 v 0.81 c 0 0.0975 0.029999971 0.089999996 0.10500002 0.06 c 0.1875 -0.074999996 0.4124999 -0.11999999 0.6524999 -0.11999999 c 0.41999996 0 0.79499996 0.1275 1.1025001 0.42 c 0.35249996 0.345 0.5549998 0.80999994 0.5549998 1.4174999 c 0 0.79499996 -0.5625 1.5300001 -1.3274999 1.5300001 c -0.34500003 0 -0.72749996 -0.22500014 -1.0275 -0.5625 c -0.044999957 -0.045000076 -0.07499993 -0.045000076 -0.08249998 0.029999971 Z m 0.14250004 -0.27750015 c 0.19499993 0.24000001 0.53999996 0.46500015 0.75749993 0.46500015 c 0.48000002 0 0.8924999 -0.53999996 0.8924999 -1.3875 c 0 -0.61499995 -0.21749997 -1.38 -1.0574999 -1.38 c -0.13499999 0 -0.39750004 0.03750001 -0.5325 0.15750001 c -0.14999998 0.13499999 -0.17999995 0.17999998 -0.17999995 0.44999996 v 1.365 c 0 0.15750003 0.029999971 0.22500014 0.120000005 0.32999992 Z "/>
        </symbol>
        <symbol id="g8D5384C37DD896F0CA420DBA0B3E7206" overflow="visible">
            <path d="M 0 0m 1.3575 0.91499996 v 1.4925001 c 0 0.375 0.029999971 0.8549998 0.029999971 0.8549998 c 0 0.03000021 -0.037499905 0.05250001 -0.09749997 0.05250001 c -0.21000004 -0.08249998 -0.51 -0.14999986 -1.0274999 -0.21749997 c -0.015000001 -0.044999838 0 -0.16499996 0.0150000155 -0.2099998 c 0.4125 -0.037500143 0.48749998 -0.08250022 0.48749998 -0.51 v -1.4625001 c 0 -0.62249994 -0.08249998 -0.645 -0.53999996 -0.68249995 c -0.045 -0.045 -0.045 -0.2025 0 -0.2475 c 0.2475 0.0075 0.53999996 0.015 0.8399999 0.015 c 0.30000007 0 0.58500004 -0.0075 0.8325 -0.015 c 0.045000076 0.044999998 0.045000076 0.2025 0 0.2475 c -0.45749998 0.029999986 -0.53999996 0.059999987 -0.53999996 0.68249995 Z m -0.68249995 3.5774999 c 0 -0.1949997 0.17999995 -0.38999987 0.35999995 -0.38999987 c 0.21000004 0 0.39 0.20249987 0.39 0.36000013 c 0 0.17999983 -0.15750003 0.38999987 -0.36 0.38999987 c -0.17999995 0 -0.38999993 -0.17999983 -0.38999993 -0.36000013 Z "/>
        </symbol>
        <symbol id="g5307CFE60FC8CBD80F7D9D47F4F22214" overflow="visible">
            <path d="M 0 0m 1.38 2.685 c -0.045000076 -0.05250001 -0.09000003 -0.067500114 -0.09000003 0 c -0.0074999332 0.2025001 -0.022500038 0.4949999 -0.059999943 0.56999993 c -0.015000105 0.037500143 -0.03000009 0.059999943 -0.09000003 0.059999943 c -0.20999998 -0.08249998 -0.40500003 -0.14999986 -0.9225 -0.21749997 c -0.015000001 -0.044999838 0 -0.16499996 0.015000001 -0.2099998 c 0.40499997 -0.037500143 0.48749995 -0.07500005 0.48749995 -0.51 v -1.4625001 c 0 -0.615 -0.07499999 -0.645 -0.525 -0.68249995 c -0.045 -0.045 -0.045 -0.2025 0 -0.2475 c 0.225 0.0075 0.525 0.015 0.825 0.015 c 0.29999995 0 0.525 -0.0075 0.75 -0.015 c 0.044999957 0.044999998 0.044999957 0.2025 0 0.2475 c -0.38250005 0.03749998 -0.45749998 0.06749998 -0.45749998 0.68249995 v 1.23 c 0 0.15750003 0.067499995 0.24749994 0.12749994 0.31500006 c 0.28499997 0.2774999 0.62250006 0.44249988 0.9150001 0.44249988 c 0.14999986 0 0.3074999 -0.097500086 0.39750004 -0.26999998 c 0.07499981 -0.1500001 0.089999914 -0.35249996 0.089999914 -0.57749987 v -1.1400001 c 0 -0.615 -0.07500005 -0.645 -0.4649999 -0.68249995 c -0.037500143 -0.045 -0.037500143 -0.2025 0 -0.2475 c 0.2249999 0.0075 0.4649999 0.015 0.76499987 0.015 c 0.29999995 0 0.56999993 -0.0075 0.7950001 -0.015 c 0.037499905 0.044999998 0.037499905 0.2025 0 0.2475 c -0.42000008 0.03749998 -0.50250006 0.06749998 -0.50250006 0.68249995 v 1.1175001 c 0 0.4124999 -0.029999971 0.7724998 -0.2025001 1.0049999 c -0.12749982 0.16499996 -0.3599999 0.2550001 -0.62249994 0.2550001 c -0.36749983 0 -0.7874999 -0.097500086 -1.2299999 -0.6075001 Z "/>
        </symbol>
        <symbol id="g7EFA5A1A160F05DD513DBD2496E26F4F" overflow="visible">
            <path d="M 0 0m 1.905 1.89 c 0 0.33749998 -0.029999971 2.0699997 -1.5899999 3.42 c -0.075 -0.0149998665 -0.135 -0.067500114 -0.1575 -0.12750006 c 0.2475 -0.28499985 1.125 -1.3199999 1.125 -3.2925 c 0 -1.9725 -0.88500005 -3.0075 -1.125 -3.2775 c 0.022499993 -0.07500005 0.075 -0.12750006 0.1575 -0.13499999 c 0.8925 0.7649999 1.5899999 2.0175 1.5899999 3.4125 Z "/>
        </symbol>
        <symbol id="gC8A8AE406CC663D031E74C1A0FAFDF69" overflow="visible">
            <path d="M 0 0m 3.730078 0.20039062 q -0.26015615 -0.15117188 -0.5361328 -0.22675781 q -0.27597642 -0.07558593 -0.5642576 -0.07558593 q -0.9140626 0 -1.4291016 0.5484375 q -0.5150391 0.5484375 -0.5150391 1.51875 q 0 0.9703126 0.5150391 1.51875 q 0.51503897 0.54843736 1.4291016 0.54843736 q 0.28476548 0 0.55546856 -0.07382798 q 0.27070308 -0.07382798 0.5449219 -0.22851563 v -0.6785157 q -0.25664067 0.22851563 -0.51503897 0.3304689 q -0.25839853 0.10195303 -0.58535147 0.10195303 q -0.6082032 0 -0.93515635 -0.39374995 q -0.32695317 -0.39374995 -0.32695317 -1.125 q 0 -0.7277343 0.32871103 -1.1232421 q 0.3287108 -0.39550778 0.9333985 -0.39550778 q 0.33749986 0 0.60468745 0.10371092 q 0.26718736 0.10371095 0.49570298 0.3216797 v -0.67148435 Z "/>
        </symbol>
        <symbol id="gC79D3938216D2AC8D150761F795B5C5B" overflow="visible">
            <path d="M 0 0m 2.2464843 1.4273437 q 0 -0.43593752 0.15996099 -0.6574219 q 0.15996099 -0.22148436 0.4728515 -0.22148436 h 0.7558594 v -0.5484375 h -0.8191407 q -0.5800781 0 -0.8982421 0.37265623 q -0.318164 0.37265623 -0.318164 1.0546875 v 3.5753903 h -1.0371094 v 0.5062499 h 1.6839843 v -4.0816402 Z "/>
        </symbol>
        <symbol id="gE75D960F44FFEA54094D9B6B5BD1A02F" overflow="visible">
            <path d="M 0 0m 1.2515625 2.260547 h 1.8316406 v -0.57656264 h -1.8316406 v 0.57656264 Z "/>
        </symbol>
        <symbol id="gB277784B51B542DB86A548F243F8ED8F" overflow="visible">
            <path d="M 0 0m 3.7511718 4.383984 l -1.2585938 -0.68203115 l 1.2585938 -0.6855469 l -0.20039058 -0.34453106 l -1.1812501 0.7136717 v -1.3253906 h -0.40429688 v 1.3253906 l -1.1812499 -0.7136717 l -0.20039064 0.34453106 l 1.2585937 0.6855469 l -1.2585937 0.68203115 l 0.20039064 0.34804726 l 1.1812499 -0.71367216 v 1.3253908 h 0.40429688 v -1.3253908 l 1.1812501 0.71367216 l 0.20039058 -0.34804726 Z "/>
        </symbol>
        <symbol id="g3248603D5962339EABFD815DAD11A65D" overflow="visible">
            <path d="M 0 0m 2.1656249 3.4839842 q -0.49218738 0 -0.74531245 -0.38320303 q -0.25312495 -0.38320327 -0.25312495 -1.1355469 q 0 -0.74882805 0.25312495 -1.1337891 q 0.25312507 -0.38496092 0.74531245 -0.38496092 q 0.49570322 0 0.7488282 0.38496092 q 0.25312495 0.38496095 0.25312495 1.1337891 q 0 0.75234365 -0.25312495 1.1355469 q -0.25312495 0.38320303 -0.7488282 0.38320303 Z m 0 0.54843736 q 0.8191407 0 1.2533205 -0.53085923 q 0.43417954 -0.53085923 0.43417954 -1.5363281 q 0 -1.0089843 -0.43242192 -1.5380858 q -0.43242168 -0.52910155 -1.2550781 -0.52910155 q -0.81914055 0 -1.2515624 0.52910155 q -0.4324219 0.5291015 -0.4324219 1.5380858 q 0 1.0054688 0.4324219 1.5363281 q 0.4324218 0.53085923 1.2515624 0.53085923 Z "/>
        </symbol>
        <symbol id="gD24466E75209067CD342E144A8E1A92D" overflow="visible">
            <path d="M 0 0m 4.060547 3.1253905 q -0.20742202 0.16171885 -0.421875 0.23554683 q -0.21445322 0.07382822 -0.4710939 0.07382822 q -0.60468745 0 -0.9246092 -0.37968755 q -0.31992197 -0.37968755 -0.31992197 -1.096875 v -1.9582031 h -0.6503906 v 3.9375 h 0.6503906 v -0.769922 q 0.16171885 0.41835952 0.49746084 0.64160156 q 0.33574224 0.22324204 0.7962892 0.22324204 q 0.23906231 0 0.44648433 -0.05976534 q 0.20742178 -0.059765816 0.39726567 -0.18632817 v -0.66093755 Z "/>
        </symbol>
        <symbol id="g475F4CB7270CD272CFBFE01AA9BC985E" overflow="visible">
            <path d="M 0 0m 3.016406 3.4347656 v 2.0355465 h 0.64687514 v -5.470312 h -0.64687514 v 0.4957031 q -0.1617186 -0.29179686 -0.43066382 -0.44472653 q -0.26894546 -0.15292968 -0.62050796 -0.15292968 q -0.7136718 0 -1.1232421 0.55371094 q -0.40957028 0.55371094 -0.40957028 1.527539 q 0 0.95976555 0.41132814 1.5064453 q 0.41132808 0.5466795 1.1214843 0.5466795 q 0.35507822 0 0.6257813 -0.15292954 q 0.27070308 -0.15292954 0.42539048 -0.44472647 Z m -1.901953 -1.4695313 q 0 -0.75234365 0.23906255 -1.1355468 q 0.23906243 -0.38320312 0.7066405 -0.38320312 q 0.46757817 0 0.71191406 0.38671872 q 0.24433589 0.38671875 0.24433589 1.1320312 q 0 0.7488282 -0.24433589 1.1337891 q -0.24433589 0.3849609 -0.71191406 0.3849609 q -0.46757805 0 -0.7066405 -0.38320303 q -0.23906255 -0.38320327 -0.23906255 -1.1355469 Z "/>
        </symbol>
        <symbol id="g2535F1549CCF4F12B0DF897A611920DA" overflow="visible">
            <path d="M 0 0m 3.7371092 5.470312 v -0.53789043 h -0.7347655 q -0.34804678 0 -0.48339844 -0.14238262 q -0.13535142 -0.1423831 -0.13535142 -0.5044923 v -0.34804678 h 1.3535154 v -0.5027344 h -1.3535154 v -3.4347656 h -0.64687514 v 3.4347656 h -1.0511718 v 0.5027344 h 1.0511718 v 0.27421856 q 0 0.6468749 0.29707026 0.9527345 q 0.2970705 0.3058591 0.9263673 0.3058591 h 0.776953 Z "/>
        </symbol>
        <symbol id="g2E14D1BF79E27CE68E98D0BDA16240F" overflow="visible">
            <path d="M 0 0m 2.1585937 5.0554686 v -1.1179686 h 1.4695313 v -0.5027344 h -1.4695313 v -2.1374998 q 0 -0.43593752 0.16523433 -0.6082032 q 0.16523457 -0.17226559 0.57656264 -0.17226559 h 0.7277343 v -0.5167969 h -0.7910156 q -0.7277343 0 -1.0265625 0.29179686 q -0.29882813 0.29179686 -0.29882813 1.0054688 v 2.1374998 h -1.0511719 v 0.5027344 h 1.0511719 v 1.1179686 h 0.6468749 Z "/>
        </symbol>
        <symbol id="gBFC892813FD2F4ED1D34C75E3814D6EF" overflow="visible">
            <path d="M 0 0m 1.5029999 2.574 c 0 0.18899989 0.08099997 0.29699993 0.153 0.37800002 c 0.342 0.33299994 0.8009999 0.5309999 1.152 0.5309999 c 0.18000007 0 0.36899996 -0.116999865 0.477 -0.32399988 c 0.089999914 -0.18000007 0.10800004 -0.4230001 0.10800004 -0.6930001 v -1.3679999 c 0 -0.7379999 -0.089999914 -0.7739999 -0.5580001 -0.81899995 c -0.044999838 -0.05399999 -0.044999838 -0.24299999 0 -0.297 c 0.2520001 0.009 0.5580001 0.018 0.918 0.018 c 0.36000013 0 0.65700006 -0.009 0.954 -0.018 c 0.045000076 0.053999998 0.045000076 0.243 0 0.297 c -0.5040002 0.045000017 -0.60300016 0.081 -0.60300016 0.81899995 v 1.341 c 0 0.4949999 -0.035999775 0.9359999 -0.24299979 1.2059999 c -0.15299988 0.1980002 -0.43199992 0.306 -0.747 0.306 c -0.44099998 0 -0.98099995 -0.116999865 -1.53 -0.72899985 c 0 -0.009000063 -0.008999944 -0.009000063 -0.017999887 -0.018000126 c -0.02700007 -0.036000013 -0.07200003 -0.089999914 -0.07200003 0.018000126 l 0.008999944 2.0249999 c 0 0.58500004 0.036000013 0.9450002 0.036000013 0.9450002 c 0 0.062999725 -0.036000013 0.089999676 -0.116999984 0.089999676 c -0.22500002 -0.089999676 -0.9 -0.21600008 -1.26 -0.24300003 c -0.018000007 -0.07200003 0 -0.2159996 0.05399999 -0.26999998 c 0.026999995 0 0.05399999 0 0.081 0 c 0.39599997 -0.02699995 0.49499995 -0.02699995 0.49499995 -0.7379999 v -3.9329996 c 0 -0.747 -0.10799998 -0.78299993 -0.62999994 -0.81899995 c -0.054000005 -0.05399999 -0.054000005 -0.24299999 0 -0.297 c 0.297 0.009 0.62999994 0.018 0.98999995 0.018 c 0.342 0 0.63899994 -0.009 0.89100003 -0.018 c 0.0539999 0.053999998 0.0539999 0.243 0 0.297 c -0.4590001 0.036000013 -0.5400001 0.072 -0.5400001 0.81899995 Z "/>
        </symbol>
        <symbol id="g8D3E8288F9CD117D1B7BF6E61F176ACB" overflow="visible">
            <path d="M 0 0m 1.53 3.222 c -0.009000063 0.26999998 -0.02700007 0.59399986 -0.07200003 0.684 c -0.018000007 0.044999838 -0.036000013 0.07200003 -0.10800004 0.07200003 c -0.25199997 -0.09899998 -0.48599994 -0.18000007 -1.1069999 -0.26100016 c -0.017999992 -0.0539999 0 -0.19799995 0.017999992 -0.25199986 c 0.486 -0.045000076 0.585 -0.09000015 0.585 -0.612 v -1.755 c 0 -0.7379999 -0.116999984 -0.78299993 -0.612 -0.81899995 c -0.054000005 -0.05399999 -0.054000005 -0.24299999 0 -0.297 c 0.26999995 0.009 0.612 0.018 0.972 0.018 c 0.36 0 0.63899994 -0.009 0.90900004 -0.018 c 0.0539999 0.053999998 0.0539999 0.243 0 0.297 c -0.4590001 0.045000017 -0.5580001 0.081 -0.5580001 0.81899995 v 1.476 c 0 0.18899989 0.08099997 0.29699993 0.153 0.37800002 c 0.36 0.35100007 0.69299996 0.5309999 0.972 0.5309999 c 0.342 0 0.59399986 -0.21599984 0.59399986 -0.819 v -1.5659999 c 0 -0.7379999 -0.07200003 -0.78299993 -0.55799985 -0.81899995 c -0.045000076 -0.05399999 -0.045000076 -0.24299999 0 -0.297 c 0.2249999 0.009 0.55799985 0.018 0.918 0.018 c 0.3599999 0 0.6569998 -0.009 0.88199973 -0.018 c 0.045000076 0.053999998 0.045000076 0.243 0 0.297 c -0.4499998 0.036000013 -0.5309999 0.081 -0.5309999 0.81899995 v 1.4309999 c 0 0.12600017 0 0.2520001 -0.0089998245 0.36000013 c 0.43199992 0.477 0.83699965 0.59399986 1.188 0.59399986 c 0.342 0 0.53999996 -0.19799995 0.53999996 -0.8009999 v -1.584 c 0 -0.7379999 -0.09000015 -0.78299993 -0.5580001 -0.81899995 c -0.045000076 -0.05399999 -0.045000076 -0.24299999 0 -0.297 c 0.2249999 0.009 0.5580001 0.018 0.91799974 0.018 c 0.36000013 0 0.6750002 -0.009 0.92700005 -0.018 c 0.045000076 0.053999998 0.045000076 0.243 0 0.297 c -0.4949999 0.036000013 -0.57599974 0.081 -0.57599974 0.81899995 v 1.422 c 0 0.8009999 -0.13500023 1.4309998 -0.92700005 1.4309998 c -0.4590001 0 -1.0170002 -0.171 -1.4850001 -0.6659999 c -0.026999712 -0.02699995 -0.08099985 -0.07200003 -0.09899974 0.009000063 c -0.08100009 0.36899996 -0.43200016 0.6569998 -0.9000001 0.6569998 c -0.52199984 0 -0.99 -0.306 -1.3679999 -0.72899985 c -0.044999957 -0.045000076 -0.09899998 -0.10800004 -0.10799992 0 Z "/>
        </symbol>
        <symbol id="g9F8B55EBD7896C59C161B3EB774E2FDF" overflow="visible">
            <path d="M 0 0m 1.5029999 3.5459998 c -0.05400002 -0.0539999 -0.089999914 -0.036000013 -0.089999914 0.045000076 v 1.6559999 c 0 0.58500004 0.035999894 0.9450002 0.035999894 0.9450002 c 0 0.062999725 -0.035999894 0.089999676 -0.116999984 0.089999676 c -0.2249999 -0.089999676 -0.8999999 -0.21600008 -1.2599999 -0.24300003 c -0.018 -0.07200003 0 -0.2159996 0.05399999 -0.26999998 c 0.02700001 0 0.054000005 0 0.081 0 c 0.396 -0.02699995 0.49499997 -0.02699995 0.49499997 -0.7379999 v -4.3919997 c 0 -0.351 -0.009000003 -0.513 -0.036000013 -0.639 c 0.045000017 -0.072 0.09000003 -0.107999995 0.19800001 -0.107999995 c 0.05400002 0.053999998 0.14399993 0.13499999 0.21599996 0.21599999 c 0.09000003 0.107999995 0.14400005 0.107999995 0.24300003 0.026999995 c 0.20700002 -0.17099999 0.477 -0.225 0.79200006 -0.225 c 0.91799974 0 1.9889996 0.83699995 1.9889996 2.268 c 0 1.0979998 -0.8099997 1.7729998 -1.5929997 1.7729998 c -0.38700008 0 -0.729 -0.15299988 -1.008 -0.40499997 Z m 0.06300008 -0.2789998 c 0.23399997 0.20699978 0.50399995 0.28799987 0.76499987 0.28799987 c 0.549 0 0.9990001 -0.6659999 0.9990001 -1.539 c 0 -1.0259998 -0.41400003 -1.7999998 -1.269 -1.7999998 c -0.27899992 0 -0.46799994 0.19799998 -0.6479999 0.423 v 2.25 c 0 0.18899989 0.035999894 0.2789998 0.153 0.37800002 Z "/>
        </symbol>
        <symbol id="g3B669BA75EFD9138C33F8936E214EDB6" overflow="visible">
            <path d="M 0 0m 0.43199998 1.242 c 0.036000013 -0.44100004 0.06299999 -0.86399996 0.06299999 -1.242 c 0.09 0.018 0.17999998 0.026999999 0.225 0.026999999 c 0.06300002 0 0.116999984 0 0.18 -0.018 c 0.24300003 -0.06299999 0.48599994 -0.09899999 0.819 -0.09899999 c 0.5039998 0 1.4309999 0.243 1.4309999 1.134 c 0 0.612 -0.44099998 0.9719999 -1.053 1.197 c -0.53999996 0.20700002 -0.9 0.342 -0.9 0.8369999 c 0 0.36899996 0.324 0.576 0.63 0.576 c 0.19799995 0 0.72 -0.07200003 0.8369999 -0.8369999 c 0.05400014 -0.05400014 0.23399997 -0.045000076 0.2880001 0.009000063 c 0.02699995 0.32399988 0.045000076 0.6569998 0.0539999 0.95399976 c -0.2789998 0.045000076 -0.71099997 0.171 -1.1789999 0.171 c -0.666 0 -1.2689999 -0.43199992 -1.2689999 -1.0079999 c 0 -0.6569998 0.297 -0.9359999 0.99 -1.2239999 c 0.74699986 -0.306 0.91799986 -0.495 0.91799986 -0.882 c 0 -0.44099998 -0.43199992 -0.63 -0.76499987 -0.63 c -0.35100007 0 -0.549 0.11700001 -0.63900006 0.21599999 c -0.19799995 0.20700002 -0.29699993 0.6029999 -0.35099995 0.82799995 c -0.05400002 0.05400002 -0.225 0.045000076 -0.27899998 -0.008999944 Z "/>
        </symbol>
    </defs>
</svg>
