<svg viewBox="0 0 254.779527559 227.082409572" width="254.779527559pt" height="227.082409572pt" xmlns="http://www.w3.org/2000/svg" xmlns:xlink="http://www.w3.org/1999/xlink" xmlns:h5="http://www.w3.org/1999/xhtml"><path fill="#fafafa" fill-rule="nonzero" d="M 0 0v 227.082409572h 254.779527559v -227.082409572Z "/><g transform="translate(5.5 5.5)"><path fill="#3366ff14" fill-rule="nonzero" stroke="#3366ff" stroke-width="0.8" stroke-linecap="butt" stroke-linejoin="miter" stroke-miterlimit="4" transform="translate(0 28.346456693)" d="M 0 0m 0 187.735952879h 226.771653543l 17.007874016 -202.677165354h -226.771653543l -17.007874016 202.677165354Z "/><path fill="none" transform="translate(117.389403912 -180.767984129)" d="M 0 0m 0 180.767984129h 26.00859375v 6.96796875h -26.00859375v -6.96796875Z "/><g transform="translate(117.38940378 -9.7e-8)"><g transform="matrix(1 0 0 -1 1.33e-7 5.4703125)"><use xlink:href="#gAAFA960E12BD6960299803E253DDD3B7" x="0" y="0" fill="#3366ff" fill-rule="nonzero"/><use xlink:href="#gBA5DEB3FD0EC7527E94AAACD1270EEBF" x="4.334765625" y="0" fill="#3366ff" fill-rule="nonzero"/><use xlink:href="#gEA687859F13D41EB42D6678A0C17D693" x="8.66953125" y="0" fill="#3366ff" fill-rule="nonzero"/><use xlink:href="#gED1780AC76E6F6C35B0AE06C42066C2" x="13.004296875" y="0" fill="#3366ff" fill-rule="nonzero"/><use xlink:href="#g82791AD9CA8AC1E58D6F7081E8078D1C" x="17.3390625" y="0" fill="#3366ff" fill-rule="nonzero"/><use xlink:href="#gED4E67FDB487B0EDF234FCB488DEBCFD" x="21.673828125" y="0" fill="#3366ff" fill-rule="nonzero"/></g></g><path fill="#e69f0033" fill-rule="nonzero" stroke="#e69f00" stroke-width="0.8" stroke-linecap="butt" stroke-linejoin="miter" stroke-miterlimit="4" transform="translate(14.173228346 14.173228346)" d="M 0 0m 0 187.735952879h 198.42519685l 17.007874016 -25.511811024h -198.42519685l -17.007874016 25.511811024Z "/><path fill="none" transform="translate(98.515849717 4.85293221)" d="M 0 0m 0 180.864734129h 46.747828125v 6.87121875h -46.747828125v -6.87121875Z "/><g transform="translate(98.515849606 185.717666312)"><g transform="matrix(1 0 0 -1 1.11e-7 5.922)"><use xlink:href="#gAB89768063FECB7A3B2DCA9C98B07790" x="0" y="0" fill="#111827" fill-rule="nonzero"/><use xlink:href="#gCD526F970F75B32D8B517499D55C4978" x="4.554" y="0" fill="#111827" fill-rule="nonzero"/><use xlink:href="#g5277906DC426125FD25A938CB480528C" x="8.667" y="0" fill="#111827" fill-rule="nonzero"/><use xlink:href="#gCD526F970F75B32D8B517499D55C4978" x="11.511" y="0" fill="#111827" fill-rule="nonzero"/><use xlink:href="#g7FF892C37D0F4D42B07456CB13EB0EFE" x="17.874" y="0" fill="#111827" fill-rule="nonzero"/></g><g transform="matrix(1 0 0 -1 25.074000111 5.922)"><use xlink:href="#g46BB9FA250F76DD45670705288FF6BC3" x="0" y="0" fill="#111827" fill-rule="nonzero"/><use xlink:href="#gACA02731C0F4BCDEA8180CD1DFDE50A7" x="4.334765625" y="0" fill="#111827" fill-rule="nonzero"/><use xlink:href="#g2DCF807320835BE6E3C3F3ED3DD6CCDB" x="8.66953125" y="0" fill="#111827" fill-rule="nonzero"/><use xlink:href="#gDC6E478CE4F60E66289C821C4EE3CBCC" x="13.004296875" y="0" fill="#111827" fill-rule="nonzero"/><use xlink:href="#g4A3A12DB5555BF8644E46349EEA86C4C" x="17.3390625" y="0" fill="#111827" fill-rule="nonzero"/></g></g><path fill="#009e7333" fill-rule="nonzero" stroke="#009e73" stroke-width="0.8" stroke-linecap="butt" stroke-linejoin="miter" stroke-miterlimit="4" transform="translate(14.173228346 -15.590551181)" d="M 0 0m 0 187.735952879h 198.42519685l 17.007874016 -25.511811024h -198.42519685l -17.007874016 25.511811024Z "/><path fill="none" transform="translate(85.38351378 -18.948956693)" d="M 0 0m 0 168.940952879h 73.0125v 18.795h -73.0125v -18.795Z "/><g transform="translate(85.38351378 149.991996092)"><g transform="matrix(1 0 0 -1 27.29475 5.922)"><use xlink:href="#g1E3DE6493D0CDAC5230F4F7A69963EA0" x="0" y="0" fill="#111827" fill-rule="nonzero"/><use xlink:href="#gCD526F970F75B32D8B517499D55C4978" x="2.376" y="0" fill="#111827" fill-rule="nonzero"/><use xlink:href="#gB7ADC05C7CC292D7AE42D71EE1DDDCEC" x="6.489" y="0" fill="#111827" fill-rule="nonzero"/><use xlink:href="#g15283247E004048E8F39F157505A0F31" x="11.052" y="0" fill="#111827" fill-rule="nonzero"/><use xlink:href="#gB56A4169EDF414CCDA3A7A5C17A02142" x="15.075" y="0" fill="#111827" fill-rule="nonzero"/></g><g transform="matrix(1 0 0 -1 0 16.707)"><use xlink:href="#gFE3CBD9930FACEB9365A285123090D72" x="0" y="0" fill="#111827" fill-rule="nonzero"/><use xlink:href="#g3BDB60AE18B25FC1BC8C2880421B1D95" x="2.145" y="0" fill="#111827" fill-rule="nonzero"/><use xlink:href="#g30AE4A1D796F63BD16E785E2C988B639" x="5.895" y="0" fill="#111827" fill-rule="nonzero"/><use xlink:href="#g674461AE8248FB46CC670596B88BFFEB" x="9.3" y="0" fill="#111827" fill-rule="nonzero"/><use xlink:href="#gD9110FAE292EE967BD720E7D66369FA" x="13.08" y="0" fill="#111827" fill-rule="nonzero"/><use xlink:href="#g4A697E17D127CCDD52970CD7117BB69B" x="20.88" y="0" fill="#111827" fill-rule="nonzero"/><use xlink:href="#gD637C45EB79BE0E5936D5E1749B803EE" x="26.88" y="0" fill="#111827" fill-rule="nonzero"/><use xlink:href="#gEEED58CD1D9D21083C39A0553571B59" x="29.805" y="0" fill="#111827" fill-rule="nonzero"/><use xlink:href="#gA8EFB52C99353113683E6C49F4679BE2" x="32.175" y="0" fill="#111827" fill-rule="nonzero"/><use xlink:href="#gEEED58CD1D9D21083C39A0553571B59" x="35.6025" y="0" fill="#111827" fill-rule="nonzero"/><use xlink:href="#g4A697E17D127CCDD52970CD7117BB69B" x="39.8475" y="0" fill="#111827" fill-rule="nonzero"/><use xlink:href="#gFB4C0FB2F65D2AE0279DDC09E7C5CB96" x="45.8475" y="0" fill="#111827" fill-rule="nonzero"/><use xlink:href="#g674461AE8248FB46CC670596B88BFFEB" x="49.7925" y="0" fill="#111827" fill-rule="nonzero"/><use xlink:href="#gD637C45EB79BE0E5936D5E1749B803EE" x="53.5725" y="0" fill="#111827" fill-rule="nonzero"/><use xlink:href="#gA8BB7EB28693E4099FDFBB943B41403B" x="56.4975" y="0" fill="#111827" fill-rule="nonzero"/><use xlink:href="#gEEED58CD1D9D21083C39A0553571B59" x="58.53" y="0" fill="#111827" fill-rule="nonzero"/><use xlink:href="#gA8BB7EB28693E4099FDFBB943B41403B" x="60.9" y="0" fill="#111827" fill-rule="nonzero"/><use xlink:href="#g674461AE8248FB46CC670596B88BFFEB" x="62.9325" y="0" fill="#111827" fill-rule="nonzero"/><use xlink:href="#g4007C2E8465FC9A65E964B0E2B48E8FB" x="66.7125" y="0" fill="#111827" fill-rule="nonzero"/><use xlink:href="#g78D5B1C9AD3E752CB3FFE5813E9DE9B" x="70.7775" y="0" fill="#111827" fill-rule="nonzero"/></g></g><path fill="#56b4e933" fill-rule="nonzero" stroke="#56b4e9" stroke-width="0.8" stroke-linecap="butt" stroke-linejoin="miter" stroke-miterlimit="4" transform="translate(14.173228346 -45.354330709)" d="M 0 0m 0 187.735952879h 198.42519685l 17.007874016 -25.511811024h -198.42519685l -17.007874016 25.511811024Z "/><path fill="none" transform="translate(106.718084092 -55.324103408)" d="M 0 0m 0 182.163687254h 30.343359375v 5.572265625h -30.343359375v -5.572265625Z "/><g transform="translate(106.718084079 126.839583824)"><g transform="matrix(1 0 0 -1 1.3e-8 5.4703125)"><use xlink:href="#g2DCF807320835BE6E3C3F3ED3DD6CCDB" x="0" y="0" fill="#111827" fill-rule="nonzero"/><use xlink:href="#g2AC10369B86C95DF83351FC51A738A41" x="4.334765625" y="0" fill="#111827" fill-rule="nonzero"/><use xlink:href="#g46BB9FA250F76DD45670705288FF6BC3" x="8.66953125" y="0" fill="#111827" fill-rule="nonzero"/><use xlink:href="#g710C7FE6582EA4B38D4B53FDBC20B09D" x="13.004296875" y="0" fill="#111827" fill-rule="nonzero"/><use xlink:href="#gACA02731C0F4BCDEA8180CD1DFDE50A7" x="17.3390625" y="0" fill="#111827" fill-rule="nonzero"/><use xlink:href="#gD7A99953CBF2D45D05D2C80FE659C376" x="21.673828125" y="0" fill="#111827" fill-rule="nonzero"/><use xlink:href="#gE2F22555ADB7AC1A23AE70E2479B63CB" x="26.00859375" y="0" fill="#111827" fill-rule="nonzero"/></g></g><path fill="#d55e0033" fill-rule="nonzero" stroke="#d55e00" stroke-width="0.8" stroke-linecap="butt" stroke-linejoin="miter" stroke-miterlimit="4" transform="translate(14.173228346 -75.118110236)" d="M 0 0m 0 187.735952879h 198.42519685l 17.007874016 -25.511811024h -198.42519685l -17.007874016 25.511811024Z "/><path fill="none" transform="translate(106.718084092 -85.087882936)" d="M 0 0m 0 182.163687254h 30.343359375v 5.572265625h -30.343359375v -5.572265625Z "/><g transform="translate(106.718084079 97.075804296)"><g transform="matrix(1 0 0 -1 1.3e-8 5.4703125)"><use xlink:href="#g2AC10369B86C95DF83351FC51A738A41" x="0" y="0" fill="#111827" fill-rule="nonzero"/><use xlink:href="#gEDC3CEBCCC060C466E7556806EC55A12" x="4.334765625" y="0" fill="#111827" fill-rule="nonzero"/><use xlink:href="#gEDC3CEBCCC060C466E7556806EC55A12" x="8.66953125" y="0" fill="#111827" fill-rule="nonzero"/><use xlink:href="#g8420CB3EDC5AC48DCE6F1B66A0738D9D" x="13.004296875" y="0" fill="#111827" fill-rule="nonzero"/><use xlink:href="#gA40D749396C6C1DD7F25370FF2DB6EE8" x="17.3390625" y="0" fill="#111827" fill-rule="nonzero"/><use xlink:href="#gD7A99953CBF2D45D05D2C80FE659C376" x="21.673828125" y="0" fill="#111827" fill-rule="nonzero"/><use xlink:href="#gE2F22555ADB7AC1A23AE70E2479B63CB" x="26.00859375" y="0" fill="#111827" fill-rule="nonzero"/></g></g><path fill="#0072b233" fill-rule="nonzero" stroke="#0072b2" stroke-width="0.8" stroke-linecap="butt" stroke-linejoin="miter" stroke-miterlimit="4" transform="translate(14.173228346 -104.881889764)" d="M 0 0m 0 187.735952879h 198.42519685l 17.007874016 -25.511811024h -198.42519685l -17.007874016 25.511811024Z "/><path fill="none" transform="translate(106.718084092 -114.851662463)" d="M 0 0m 0 182.163687254h 30.343359375v 5.572265625h -30.343359375v -5.572265625Z "/><g transform="translate(106.718084079 67.312024769)"><g transform="matrix(1 0 0 -1 1.3e-8 5.4703125)"><use xlink:href="#gA72EC8D98D773FBD42B7DAFFD9854E99" x="0" y="0" fill="#111827" fill-rule="nonzero"/><use xlink:href="#g46BB9FA250F76DD45670705288FF6BC3" x="4.334765625" y="0" fill="#111827" fill-rule="nonzero"/><use xlink:href="#g2AC10369B86C95DF83351FC51A738A41" x="8.66953125" y="0" fill="#111827" fill-rule="nonzero"/><use xlink:href="#gACA02731C0F4BCDEA8180CD1DFDE50A7" x="13.004296875" y="0" fill="#111827" fill-rule="nonzero"/><use xlink:href="#g9F3DA9728EA17759E02FA8550159BD9A" x="17.3390625" y="0" fill="#111827" fill-rule="nonzero"/><use xlink:href="#gD7A99953CBF2D45D05D2C80FE659C376" x="21.673828125" y="0" fill="#111827" fill-rule="nonzero"/><use xlink:href="#gE2F22555ADB7AC1A23AE70E2479B63CB" x="26.00859375" y="0" fill="#111827" fill-rule="nonzero"/></g></g><path fill="#f4b74033" fill-rule="nonzero" stroke="#f4b740" stroke-width="0.8" stroke-linecap="butt" stroke-linejoin="miter" stroke-miterlimit="4" transform="translate(14.173228346 -134.645669291)" d="M 0 0m 0 187.735952879h 198.42519685l 17.007874016 -25.511811024h -198.42519685l -17.007874016 25.511811024Z "/><path fill="none" transform="translate(98.52576378 -144.386574803)" d="M 0 0m 0 181.705952879h 46.728v 6.03h -46.728v -6.03Z "/><g transform="translate(98.52576378 37.319377934)"><g transform="matrix(1 0 0 -1 0 5.922)"><use xlink:href="#g5277906DC426125FD25A938CB480528C" x="0" y="0" fill="#111827" fill-rule="nonzero"/><use xlink:href="#g6547456983017125BAABA1DD3FE7B939" x="2.844" y="0" fill="#111827" fill-rule="nonzero"/><use xlink:href="#g15283247E004048E8F39F157505A0F31" x="7.686" y="0" fill="#111827" fill-rule="nonzero"/><use xlink:href="#g66B9A992694013ABABB01E28AE9743C7" x="11.709" y="0" fill="#111827" fill-rule="nonzero"/><use xlink:href="#g15283247E004048E8F39F157505A0F31" x="18.819" y="0" fill="#111827" fill-rule="nonzero"/><use xlink:href="#g7FF892C37D0F4D42B07456CB13EB0EFE" x="25.092" y="0" fill="#111827" fill-rule="nonzero"/><use xlink:href="#g1E3DE6493D0CDAC5230F4F7A69963EA0" x="32.292" y="0" fill="#111827" fill-rule="nonzero"/><use xlink:href="#gCD526F970F75B32D8B517499D55C4978" x="34.668" y="0" fill="#111827" fill-rule="nonzero"/><use xlink:href="#g1DC7A540DDF098EB5805486D9C3B9575" x="38.781" y="0" fill="#111827" fill-rule="nonzero"/><use xlink:href="#gA1FEA12DCE93D0EA0BBFC1201B9D8E1C" x="43.218" y="0" fill="#111827" fill-rule="nonzero"/></g></g></g><defs><symbol id="gAAFA960E12BD6960299803E253DDD3B7" overflow="visible"><path d="M 0 0m 1.55390625 0.55546875v -2.053125h -1.0265625v 5.43515625h 1.0265625v -0.590625q 0.16171875 0.341015625 0.425390625 0.51328125q 0.263671875 0.172265625 0.61875 0.172265625q 0.675 0 1.04765625 -0.54140625q 0.37265625 -0.54140625 0.37265625 -1.52578125q 0 -0.9984375 -0.377929688 -1.5328125q -0.377929688 -0.534375 -1.077539063 -0.534375q -0.31640625 0 -0.567773438 0.163476563q -0.251367188 0.163476563 -0.441210938 0.493945313Z m 1.434375 1.416796875q 0 0.56953125 -0.18984375 0.89296875q -0.18984375 0.3234375 -0.523828125 0.3234375q -0.333984375 0 -0.52734375 -0.3234375q -0.193359375 -0.3234375 -0.193359375 -0.89296875q 0 -0.56953125 0.193359375 -0.89296875q 0.193359375 -0.3234375 0.52734375 -0.3234375q 0.333984375 0 0.523828125 0.3234375q 0.18984375 0.3234375 0.18984375 0.89296875Z "/></symbol><symbol id="gBA5DEB3FD0EC7527E94AAACD1270EEBF" overflow="visible"><path d="M 0 0m 1.360546875 1.641796875v 3.0375h -1.044140625v 0.791015625h 2.07421875v -3.828515625q 0 -0.4640625 0.144140625 -0.657421875q 0.144140625 -0.193359375 0.488671875 -0.193359375h 0.82265625v -0.791015625h -1.1109375q -0.734765625 0 -1.0546875 0.3796875q -0.319921875 0.3796875 -0.319921875 1.262109375Z "/></symbol><symbol id="gEA687859F13D41EB42D6678A0C17D693" overflow="visible"><path d="M 0 0m 2.165625 3.195703125q -0.369140625 0 -0.580078125 -0.325195313q -0.2109375 -0.325195313 -0.2109375 -0.905273438q 0 -0.580078125 0.2109375 -0.905273438q 0.2109375 -0.325195313 0.580078125 -0.325195313q 0.37265625 0 0.58359375 0.325195313q 0.2109375 0.325195313 0.2109375 0.905273438q 0 0.580078125 -0.2109375 0.905273438q -0.2109375 0.325195313 -0.58359375 0.325195313Z m -1.82109375 -1.23046875q 0 0.952734375 0.493945313 1.509960938q 0.493945313 0.557226563 1.327148438 0.557226563q 0.83671875 0 1.330664063 -0.557226563q 0.493945313 -0.557226563 0.493945313 -1.509960938q 0 -0.952734375 -0.493945313 -1.509960938q -0.493945313 -0.557226563 -1.330664063 -0.557226563q -0.833203125 0 -1.327148438 0.557226563q -0.493945313 0.557226563 -0.493945313 1.509960938Z "/></symbol><symbol id="gED1780AC76E6F6C35B0AE06C42066C2" overflow="visible"><path d="M 0 0m 2.42578125 5.05546875v -1.11796875h 1.346484375v -0.791015625h -1.346484375v -1.86328125q 0 -0.263671875 0.128320313 -0.377929688q 0.128320313 -0.114257813 0.427148438 -0.114257813h 0.791015625v -0.791015625h -0.86484375q -0.8859375 0 -1.198828125 0.283007813q -0.312890625 0.283007813 -0.312890625 1.049414063v 1.8140625h -1.00546875v 0.791015625h 1.00546875v 1.11796875h 1.030078125Z "/></symbol><symbol id="g82791AD9CA8AC1E58D6F7081E8078D1C" overflow="visible"><path d="M 0 0m 3.2484375 5.46328125q -0.4640625 -0.840234375 -0.6890625 -1.627734375q -0.225 -0.7875 -0.225 -1.575q 0 -0.78046875 0.225 -1.573242188q 0.225 -0.792773438 0.6890625 -1.636523438h -0.8015625q -0.558984375 0.812109375 -0.8296875 1.601367188q -0.270703125 0.789257813 -0.270703125 1.608398438q 0 0.815625 0.272460938 1.608398438q 0.272460938 0.792773438 0.827929688 1.594335938h 0.8015625Z "/></symbol><symbol id="gED4E67FDB487B0EDF234FCB488DEBCFD" overflow="visible"><path d="M 0 0m 1.086328125 5.46328125h 0.8015625q 0.55546875 -0.8015625 0.827929688 -1.594335938q 0.272460938 -0.792773438 0.272460938 -1.608398438q 0 -0.819140625 -0.270703125 -1.608398438q -0.270703125 -0.789257813 -0.8296875 -1.601367188h -0.8015625q 0.4640625 0.84375 0.6890625 1.636523438q 0.225 0.792773438 0.225 1.573242188q 0 0.7875 -0.225 1.575q -0.225 0.7875 -0.6890625 1.627734375Z "/></symbol><symbol id="gAB89768063FECB7A3B2DCA9C98B07790" overflow="visible"><path d="M 0 0m 3.006 0.45c 0.045 0.036 0.126 0.054 0.135 -0.009c 0.027 -0.216 0.099 -0.531 0.099 -0.531c 0.072 -0.027 0.117 -0.018 0.171 0c 0.198 0.162 0.513 0.297 1.062 0.36c 0.054 0.054 0.054 0.189 0 0.243c -0.576 0.045 -0.657 0.216 -0.657 0.657v 4.077c 0 0.585 0.036 0.945 0.036 0.945c 0 0.063 -0.036 0.09 -0.117 0.09c -0.225 -0.09 -0.9 -0.216 -1.26 -0.243c -0.018 -0.072 0 -0.216 0.054 -0.27c 0.027 0 0.054 0 0.081 0c 0.396 -0.027 0.495 -0.027 0.495 -0.738v -1.152c 0 -0.063 -0.018 -0.081 -0.081 -0.081c -0.036 0 -0.405 0.153 -0.702 0.153c -0.594 0 -0.99 -0.198 -1.35 -0.54c -0.387 -0.387 -0.621 -0.918 -0.621 -1.584c 0 -1.107 0.558 -1.917 1.53 -1.917c 0.351 0 0.684 0.18 1.125 0.54Z m 0.099 0.666c 0 -0.171 -0.018 -0.243 -0.144 -0.351c -0.333 -0.288 -0.621 -0.432 -0.846 -0.432c -0.486 0 -0.99 0.531 -0.99 1.656c 0 0.648 0.126 1.008 0.261 1.197c 0.279 0.423 0.657 0.45 0.837 0.45c 0.324 0 0.549 -0.117 0.729 -0.324c 0.126 -0.144 0.153 -0.207 0.153 -0.486Z "/></symbol><symbol id="gCD526F970F75B32D8B517499D55C4978" overflow="visible"><path d="M 0 0m 2.637 0.432c 0.054 -0.279 0.153 -0.522 0.603 -0.522c 0.342 0 0.666 0.153 0.855 0.333c -0.018 0.108 -0.054 0.189 -0.153 0.243c -0.063 -0.054 -0.216 -0.144 -0.333 -0.144c -0.261 0 -0.27 0.351 -0.27 0.765v 1.323c 0 1.278 -0.702 1.521 -1.359 1.521c -0.738 0 -1.485 -0.486 -1.485 -0.999c 0 -0.216 0.108 -0.324 0.315 -0.324c 0.261 0 0.423 0.189 0.423 0.306c 0 0.063 -0.009 0.126 -0.027 0.162c -0.009 0.027 -0.018 0.081 -0.018 0.18c 0 0.279 0.378 0.378 0.72 0.378c 0.306 0 0.729 -0.153 0.729 -1.17c 0 -0.063 -0.027 -0.099 -0.054 -0.108l -0.774 -0.189c -0.864 -0.216 -1.485 -0.693 -1.485 -1.305c 0 -0.738 0.504 -0.972 1.134 -0.972c 0.315 0 0.585 0.072 0.981 0.378l 0.18 0.144Z m 0 1.665v -1.188c 0 -0.117 -0.054 -0.18 -0.126 -0.234c -0.234 -0.189 -0.54 -0.396 -0.792 -0.396c -0.45 0 -0.648 0.36 -0.648 0.639c 0 0.405 0.189 0.819 0.855 0.99Z "/></symbol><symbol id="g5277906DC426125FD25A938CB480528C" overflow="visible"><path d="M 0 0m 0.387 3.861c -0.126 0 -0.162 -0.108 -0.162 -0.18v -0.117c 0 -0.045 0.009 -0.054 0.045 -0.054h 0.531v -2.709c 0 -0.639 0.279 -0.891 0.693 -0.891c 0.414 0 0.864 0.198 1.215 0.594c -0.018 0.09 -0.072 0.144 -0.162 0.153c -0.234 -0.18 -0.504 -0.252 -0.738 -0.252c -0.243 0 -0.297 0.27 -0.297 0.828v 2.277h 0.936c 0.09 0 0.216 0.036 0.216 0.117v 0.18c 0 0.036 -0.027 0.054 -0.072 0.054h -1.08v 0.351c 0 0.585 0.036 0.945 0.036 0.945c 0 0.054 -0.027 0.081 -0.072 0.081c -0.036 0 -0.117 -0.036 -0.198 -0.081c -0.099 -0.054 -0.189 -0.099 -0.306 -0.126c -0.108 -0.036 -0.198 -0.063 -0.198 -0.126c 0 -0.108 0.027 -0.045 0.027 -1.044Z "/></symbol><symbol id="g7FF892C37D0F4D42B07456CB13EB0EFE" overflow="visible"><path d="M 0 0m 2.25 3.915v -1.431h -1.485c -0.108 0 -0.225 -0.171 -0.225 -0.306c 0 -0.072 0.054 -0.144 0.135 -0.144h 1.575v -1.53c 0 -0.081 0.072 -0.135 0.144 -0.135c 0.135 0 0.306 0.117 0.306 0.225v 1.44h 1.467c 0.117 0 0.243 0.207 0.243 0.297c 0 0.072 -0.036 0.153 -0.126 0.153h -1.584v 1.548c 0 0.09 -0.081 0.126 -0.153 0.126c -0.09 0 -0.297 -0.126 -0.297 -0.243Z "/></symbol><symbol id="g46BB9FA250F76DD45670705288FF6BC3" overflow="visible"><path d="M 0 0m 2.46796875 1.979296875h -0.214453125q -0.566015625 0 -0.852539063 -0.198632813q -0.286523438 -0.198632813 -0.286523438 -0.592382813q 0 -0.355078125 0.214453125 -0.551953125q 0.214453125 -0.196875 0.594140625 -0.196875q 0.534375 0 0.840234375 0.370898438q 0.305859375 0.370898438 0.309375 1.024804688v 0.144140625h -0.6046875Z m 1.255078125 0.2671875v -2.246484375h -0.650390625v 0.58359375q -0.207421875 -0.3515625 -0.522070313 -0.518554688q -0.314648438 -0.166992188 -0.764648438 -0.166992188q -0.601171875 0 -0.959765625 0.339257813q -0.35859375 0.339257813 -0.35859375 0.908789063q 0 0.657421875 0.441210938 0.9984375q 0.441210938 0.341015625 1.295507813 0.341015625h 0.868359375v 0.101953125q -0.003515625 0.47109375 -0.2390625 0.683789063q -0.235546875 0.212695313 -0.75234375 0.212695313q -0.33046875 0 -0.66796875 -0.094921875q -0.3375 -0.094921875 -0.657421875 -0.277734375v 0.646875q 0.35859375 0.137109375 0.687304688 0.205664063q 0.328710938 0.068554688 0.638085938 0.068554688q 0.488671875 0 0.834960938 -0.144140625q 0.346289063 -0.144140625 0.560742188 -0.432421875q 0.13359375 -0.17578125 0.18984375 -0.434179688q 0.05625 -0.258398438 0.05625 -0.775195313Z "/></symbol><symbol id="gACA02731C0F4BCDEA8180CD1DFDE50A7" overflow="visible"><path d="M 0 0m 3.909375 2.13046875v -0.31640625h -2.801953125v -0.02109375q 0 -0.643359375 0.335742188 -0.994921875q 0.335742188 -0.3515625 0.947460938 -0.3515625q 0.309375 0 0.646875 0.0984375q 0.3375 0.0984375 0.720703125 0.298828125v -0.643359375q -0.369140625 -0.151171875 -0.711914063 -0.226757813q -0.342773438 -0.075585938 -0.662695313 -0.075585938q -0.917578125 0 -1.434375 0.550195313q -0.516796875 0.550195313 -0.516796875 1.516992188q 0 0.9421875 0.50625 1.5046875q 0.50625 0.5625 1.35 0.5625q 0.75234375 0 1.186523438 -0.509765625q 0.434179688 -0.509765625 0.434179688 -1.3921875Z m -0.646875 0.18984375q -0.0140625 0.56953125 -0.268945313 0.866601563q -0.254882813 0.297070313 -0.733007813 0.297070313q -0.467578125 0 -0.769921875 -0.309375q -0.30234375 -0.309375 -0.35859375 -0.8578125l 2.13046875 0.003515625Z "/></symbol><symbol id="g2DCF807320835BE6E3C3F3ED3DD6CCDB" overflow="visible"><path d="M 0 0m 3.420703125 3.800390625v -0.6328125q -0.277734375 0.16171875 -0.558984375 0.242578125q -0.28125 0.080859375 -0.573046875 0.080859375q -0.439453125 0 -0.655664063 -0.142382813q -0.216210938 -0.142382813 -0.216210938 -0.434179688q 0 -0.263671875 0.16171875 -0.39375q 0.16171875 -0.130078125 0.805078125 -0.253125l 0.26015625 -0.04921875q 0.481640625 -0.09140625 0.729492188 -0.365625q 0.247851563 -0.27421875 0.247851563 -0.713671875q 0 -0.58359375 -0.41484375 -0.912304688q -0.41484375 -0.328710938 -1.153125 -0.328710938q -0.291796875 0 -0.61171875 0.061523438q -0.319921875 0.061523438 -0.692578125 0.184570313v 0.66796875q 0.362109375 -0.186328125 0.692578125 -0.279492188q 0.33046875 -0.093164063 0.62578125 -0.093164063q 0.42890625 0 0.664453125 0.174023438q 0.235546875 0.174023438 0.235546875 0.486914063q 0 0.45 -0.861328125 0.622265625l -0.028125 0.00703125l -0.242578125 0.04921875q -0.558984375 0.108984375 -0.815625 0.367382813q -0.256640625 0.258398438 -0.256640625 0.704882813q 0 0.566015625 0.383203125 0.873632813q 0.383203125 0.307617188 1.093359375 0.307617188q 0.31640625 0 0.608203125 -0.058007813q 0.291796875 -0.058007813 0.573046875 -0.174023438Z "/></symbol><symbol id="gDC6E478CE4F60E66289C821C4EE3CBCC" overflow="visible"><path d="M 0 0m 3.111328125 5.46328125q -0.467578125 -0.8015625 -0.697851563 -1.597851563q -0.230273438 -0.796289063 -0.230273438 -1.604882813q 0 -0.805078125 0.230273438 -1.603125q 0.230273438 -0.798046875 0.697851563 -1.606640625h -0.5625q -0.530859375 0.83671875 -0.791015625 1.629492188q -0.26015625 0.792773438 -0.26015625 1.580273438q 0 0.783984375 0.26015625 1.578515625q 0.26015625 0.79453125 0.791015625 1.62421875h 0.5625Z "/></symbol><symbol id="g4A3A12DB5555BF8644E46349EEA86C4C" overflow="visible"><path d="M 0 0m 1.2234375 5.46328125h 0.5625q 0.530859375 -0.8296875 0.791015625 -1.62421875q 0.26015625 -0.79453125 0.26015625 -1.578515625q 0 -0.791015625 -0.26015625 -1.585546875q -0.26015625 -0.79453125 -0.791015625 -1.62421875h -0.5625q 0.467578125 0.815625 0.697851563 1.613671875q 0.230273438 0.798046875 0.230273438 1.59609375q 0 0.8015625 -0.230273438 1.599609375q -0.230273438 0.798046875 -0.697851563 1.603125Z "/></symbol><symbol id="g1E3DE6493D0CDAC5230F4F7A69963EA0" overflow="visible"><path d="M 0 0m 0.855 1.098c 0 -0.747 -0.099 -0.792 -0.648 -0.819c -0.054 -0.054 -0.054 -0.243 0 -0.297c 0.315 0.009 0.648 0.018 1.008 0.018c 0.36 0 0.702 -0.009 0.999 -0.018c 0.054 0.054 0.054 0.243 0 0.297c -0.549 0.027 -0.648 0.072 -0.648 0.819v 4.149c 0 0.585 0.036 0.945 0.036 0.945c 0 0.063 -0.036 0.09 -0.117 0.09c -0.225 -0.09 -0.9 -0.216 -1.26 -0.243c -0.018 -0.072 0 -0.216 0.054 -0.27c 0.522 -0.036 0.576 -0.063 0.576 -0.738Z "/></symbol><symbol id="gB7ADC05C7CC292D7AE42D71EE1DDDCEC" overflow="visible"><path d="M 0 0m 1.836 -1.44c 0.144 0.252 0.261 0.504 0.369 0.774c 0.72 1.737 1.125 2.664 1.593 3.672c 0.18 0.378 0.306 0.522 0.729 0.576c 0.054 0.054 0.054 0.243 0 0.297c -0.18 -0.009 -0.387 -0.018 -0.639 -0.018c -0.27 0 -0.549 0.009 -0.819 0.018c -0.054 -0.054 -0.054 -0.243 0 -0.297c 0.288 -0.027 0.576 -0.081 0.432 -0.405l -0.891 -2.061c -0.063 -0.144 -0.144 -0.171 -0.216 0.009l -0.801 1.872c -0.162 0.378 -0.207 0.549 0.297 0.585c 0.054 0.054 0.054 0.243 0 0.297c -0.333 -0.009 -0.693 -0.018 -1.017 -0.018c -0.306 0 -0.549 0.009 -0.729 0.018c -0.054 -0.054 -0.054 -0.243 0 -0.297c 0.36 -0.045 0.477 -0.126 0.711 -0.675l 1.017 -2.367c 0.081 -0.18 0.216 -0.594 0.126 -0.846c -0.108 -0.297 -0.216 -0.549 -0.351 -0.828c -0.099 -0.18 -0.225 -0.261 -0.45 -0.261c -0.126 0 -0.162 0.027 -0.261 0.027c -0.261 0 -0.396 -0.27 -0.396 -0.387c 0 -0.189 0.18 -0.333 0.423 -0.333c 0.189 0 0.549 0.072 0.873 0.648Z "/></symbol><symbol id="g15283247E004048E8F39F157505A0F31" overflow="visible"><path d="M 0 0m 3.474 0.837c -0.333 -0.342 -0.594 -0.486 -1.116 -0.486c -0.324 0 -0.702 0.189 -0.981 0.648c -0.18 0.297 -0.288 0.711 -0.288 1.233l 2.394 -0.018c 0.108 0 0.171 0.054 0.171 0.153c 0 0.756 -0.27 1.566 -1.521 1.566c -0.783 0 -1.8 -0.747 -1.8 -2.115c 0 -0.504 0.126 -0.99 0.423 -1.332c 0.306 -0.36 0.729 -0.576 1.377 -0.576c 0.684 0 1.17 0.315 1.53 0.783c -0.027 0.09 -0.081 0.135 -0.189 0.144Z m -2.358 1.701c 0.171 1.017 0.801 1.098 1.017 1.098c 0.342 0 0.747 -0.189 0.747 -0.945c 0 -0.081 -0.036 -0.126 -0.135 -0.126Z "/></symbol><symbol id="gB56A4169EDF414CCDA3A7A5C17A02142" overflow="visible"><path d="M 0 0m 1.584 3.222c -0.018 0.36 -0.027 0.594 -0.072 0.684c -0.018 0.045 -0.036 0.072 -0.108 0.072c -0.252 -0.099 -0.486 -0.18 -1.107 -0.261c -0.018 -0.054 0 -0.198 0.018 -0.252c 0.486 -0.045 0.585 -0.09 0.585 -0.612v -1.755c 0 -0.747 -0.108 -0.783 -0.666 -0.819c -0.054 -0.054 -0.054 -0.243 0 -0.297c 0.315 0.009 0.666 0.018 1.026 0.018c 0.36 0 0.774 -0.009 1.089 -0.018c 0.054 0.054 0.054 0.243 0 0.297c -0.63 0.045 -0.738 0.072 -0.738 0.819v 1.251c 0 0.234 0.108 0.441 0.216 0.603c 0.099 0.144 0.306 0.441 0.414 0.441c 0.081 0 0.162 -0.018 0.234 -0.117c 0.063 -0.09 0.171 -0.207 0.324 -0.207c 0.216 0 0.423 0.225 0.423 0.45c 0 0.171 -0.162 0.432 -0.54 0.432c -0.423 0 -0.792 -0.396 -0.999 -0.747c -0.054 -0.099 -0.099 -0.027 -0.099 0.018Z "/></symbol><symbol id="gFE3CBD9930FACEB9365A285123090D72" overflow="visible"><path d="M 0 0m 0.33 1.89c 0 -0.3375 0.03 -2.07 1.59 -3.42c 0.075 0.015 0.135 0.0675 0.1575 0.1275c -0.2475 0.285 -1.125 1.32 -1.125 3.2925c 0 1.9725 0.885 3.0075 1.125 3.2775c -0.0225 0.075 -0.075 0.1275 -0.1575 0.135c -0.8925 -0.765 -1.59 -2.0175 -1.59 -3.4125Z "/></symbol><symbol id="g3BDB60AE18B25FC1BC8C2880421B1D95" overflow="visible"><path d="M 0 0m 3.33 2.9025c 0.1425 0 0.2775 0.135 0.2775 0.285c 0 0.1575 -0.1425 0.2775 -0.345 0.2775c -0.195 0 -0.555 -0.1275 -0.75 -0.3825c -0.09 0.06 -0.3375 0.21 -0.78 0.21c -0.6675 0 -1.2825 -0.45 -1.2825 -1.14c 0 -0.405 0.18 -0.6375 0.39 -0.84c -0.21 -0.18 -0.33 -0.5025 -0.33 -0.7575c 0 -0.27 0.15 -0.48 0.345 -0.5775c -0.405 -0.24 -0.615 -0.585 -0.615 -0.9075c 0 -0.6525 0.615 -0.855 1.1925 -0.855c 1.0125 0 2.1075 0.4875 2.1075 1.2975c 0 0.24 -0.1125 0.4275 -0.33 0.6075c -0.2925 0.24 -0.8175 0.2475 -1.095 0.2475c -0.135 0 -0.3225 -0.015 -0.5025 -0.0375c -0.1125 -0.0075 -0.1875 -0.015 -0.225 -0.015c -0.2175 0 -0.48 0.105 -0.48 0.4275c 0 0.15 0.045 0.3075 0.135 0.435c 0.18 -0.105 0.39 -0.1575 0.6825 -0.1575c 0.66 0 1.2675 0.4125 1.2675 1.1475c 0 0.3525 -0.105 0.555 -0.3225 0.78c 0.0525 0.075 0.2025 0.18 0.3 0.18c 0.0525 0 0.105 -0.0225 0.15 -0.09c 0.03 -0.06 0.1275 -0.135 0.21 -0.135Z m -2.34 -2.9775c 0.0825 -0.0225 0.2025 -0.0375 0.3 -0.0375c 0.2325 0 0.4425 0.0225 0.5475 0.0225c 0.375 0 0.69 -0.0075 0.9075 -0.1275c 0.2925 -0.165 0.3825 -0.27 0.3825 -0.465c 0 -0.54 -0.795 -0.825 -1.47 -0.825c -0.27 0 -0.9 0.2175 -0.9 0.7275c 0 0.255 0.015 0.4425 0.2325 0.705Z m 1.4025 2.1675c 0 -0.6975 -0.3525 -0.84 -0.63 -0.84c -0.63 0 -0.6975 0.5325 -0.6975 1.0125c 0 0.525 0.1875 0.795 0.6 0.795c 0.4725 0 0.7275 -0.345 0.7275 -0.9675Z "/></symbol><symbol id="g30AE4A1D796F63BD16E785E2C988B639" overflow="visible"><path d="M 0 0m 2.895 0.6975c -0.2775 -0.285 -0.495 -0.405 -0.93 -0.405c -0.27 0 -0.585 0.1575 -0.8175 0.54c -0.15 0.2475 -0.24 0.5925 -0.24 1.0275l 1.995 -0.015c 0.09 0 0.1425 0.045 0.1425 0.1275c 0 0.63 -0.225 1.305 -1.2675 1.305c -0.6525 0 -1.5 -0.6225 -1.5 -1.7625c 0 -0.42 0.105 -0.825 0.3525 -1.11c 0.255 -0.3 0.6075 -0.48 1.1475 -0.48c 0.57 0 0.975 0.2625 1.275 0.6525c -0.0225 0.075 -0.0675 0.1125 -0.1575 0.12Z m -1.965 1.4175c 0.1425 0.8475 0.6675 0.915 0.8475 0.915c 0.285 0 0.6225 -0.1575 0.6225 -0.7875c 0 -0.0675 -0.03 -0.105 -0.1125 -0.105Z "/></symbol><symbol id="g674461AE8248FB46CC670596B88BFFEB" overflow="visible"><path d="M 0 0m 0.3075 1.5375c 0 -0.765 0.51 -1.6125 1.575 -1.6125c 0.48 0 0.8475 0.1725 1.1025 0.42c 0.3375 0.33 0.4875 0.8025 0.4875 1.26c 0 0.78 -0.4275 1.6875 -1.575 1.6875c -0.495 0 -0.9 -0.2025 -1.1775 -0.525c -0.27 -0.3225 -0.4125 -0.7575 -0.4125 -1.23Z m 1.4775 1.4925c 0.645 0 1.0425 -0.585 1.0425 -1.665c 0 -0.945 -0.4875 -1.1775 -0.84 -1.1775c -0.78 0 -1.035 0.945 -1.035 1.5225c 0 0.6525 0.1575 1.32 0.8325 1.32Z "/></symbol><symbol id="gD9110FAE292EE967BD720E7D66369FA" overflow="visible"><path d="M 0 0m 1.275 2.685c -0.0075 0.225 -0.0225 0.495 -0.06 0.57c -0.015 0.0375 -0.03 0.06 -0.09 0.06c -0.21 -0.0825 -0.405 -0.15 -0.9225 -0.2175c -0.015 -0.045 0 -0.165 0.015 -0.21c 0.405 -0.0375 0.4875 -0.075 0.4875 -0.51v -1.4625c 0 -0.615 -0.0975 -0.6525 -0.51 -0.6825c -0.045 -0.045 -0.045 -0.2025 0 -0.2475c 0.225 0.0075 0.51 0.015 0.81 0.015c 0.3 0 0.5325 -0.0075 0.7575 -0.015c 0.045 0.045 0.045 0.2025 0 0.2475c -0.3825 0.0375 -0.465 0.0675 -0.465 0.6825v 1.23c 0 0.1575 0.0675 0.2475 0.1275 0.315c 0.3 0.2925 0.5775 0.4425 0.81 0.4425c 0.285 0 0.495 -0.18 0.495 -0.6825v -1.305c 0 -0.615 -0.06 -0.6525 -0.465 -0.6825c -0.0375 -0.045 -0.0375 -0.2025 0 -0.2475c 0.1875 0.0075 0.465 0.015 0.765 0.015c 0.3 0 0.5475 -0.0075 0.735 -0.015c 0.0375 0.045 0.0375 0.2025 0 0.2475c -0.375 0.03 -0.4425 0.0675 -0.4425 0.6825v 1.1925c 0 0.105 0 0.21 -0.0075 0.3c 0.36 0.3975 0.6975 0.495 0.99 0.495c 0.285 0 0.45 -0.165 0.45 -0.6675v -1.32c 0 -0.615 -0.075 -0.6525 -0.465 -0.6825c -0.0375 -0.045 -0.0375 -0.2025 0 -0.2475c 0.1875 0.0075 0.465 0.015 0.765 0.015c 0.3 0 0.5625 -0.0075 0.7725 -0.015c 0.0375 0.045 0.0375 0.2025 0 0.2475c -0.4125 0.03 -0.48 0.0675 -0.48 0.6825v 1.185c 0 0.6675 -0.1125 1.1925 -0.7725 1.1925c -0.3825 0 -0.8475 -0.1425 -1.2375 -0.555c -0.0225 -0.0225 -0.0675 -0.06 -0.0825 0.0075c -0.0675 0.3075 -0.36 0.5475 -0.75 0.5475c -0.435 0 -0.825 -0.255 -1.14 -0.6075c -0.0375 -0.0375 -0.0825 -0.09 -0.09 0Z "/></symbol><symbol id="g4A697E17D127CCDD52970CD7117BB69B" overflow="visible"><path d="M 0 0m 1.875 3.2625v -1.1925h -1.2375c -0.09 0 -0.1875 -0.1425 -0.1875 -0.255c 0 -0.06 0.045 -0.12 0.1125 -0.12h 1.3125v -1.275c 0 -0.0675 0.06 -0.1125 0.12 -0.1125c 0.1125 0 0.255 0.0975 0.255 0.1875v 1.2h 1.2225c 0.0975 0 0.2025 0.1725 0.2025 0.2475c 0 0.06 -0.03 0.1275 -0.105 0.1275h -1.32v 1.29c 0 0.075 -0.0675 0.105 -0.1275 0.105c -0.075 0 -0.2475 -0.105 -0.2475 -0.2025Z "/></symbol><symbol id="gD637C45EB79BE0E5936D5E1749B803EE" overflow="visible"><path d="M 0 0m 0.36 1.035c 0.03 -0.3675 0.0525 -0.72 0.0525 -1.035c 0.075 0.015 0.15 0.0225 0.1875 0.0225c 0.0525 0 0.0975 0 0.15 -0.015c 0.2025 -0.0525 0.405 -0.0825 0.6825 -0.0825c 0.42 0 1.1925 0.2025 1.1925 0.945c 0 0.51 -0.3675 0.81 -0.8775 0.9975c -0.45 0.1725 -0.75 0.285 -0.75 0.6975c 0 0.3075 0.27 0.48 0.525 0.48c 0.165 0 0.6 -0.06 0.6975 -0.6975c 0.045 -0.045 0.195 -0.0375 0.24 0.0075c 0.0225 0.27 0.0375 0.5475 0.045 0.795c -0.2325 0.0375 -0.5925 0.1425 -0.9825 0.1425c -0.555 0 -1.0575 -0.36 -1.0575 -0.84c 0 -0.5475 0.2475 -0.78 0.825 -1.02c 0.6225 -0.255 0.765 -0.4125 0.765 -0.735c 0 -0.3675 -0.36 -0.525 -0.6375 -0.525c -0.2925 0 -0.4575 0.0975 -0.5325 0.18c -0.165 0.1725 -0.2475 0.5025 -0.2925 0.69c -0.045 0.045 -0.1875 0.0375 -0.2325 -0.0075Z "/></symbol><symbol id="gEEED58CD1D9D21083C39A0553571B59" overflow="visible"><path d="M 0 0m 0.3225 3.2175c -0.105 0 -0.135 -0.09 -0.135 -0.15v -0.0975c 0 -0.0375 0.0075 -0.045 0.0375 -0.045h 0.4425v -2.2575c 0 -0.5325 0.2325 -0.7425 0.5775 -0.7425c 0.345 0 0.72 0.165 1.0125 0.495c -0.015 0.075 -0.06 0.12 -0.135 0.1275c -0.195 -0.15 -0.42 -0.21 -0.615 -0.21c -0.2025 0 -0.2475 0.225 -0.2475 0.69v 1.8975h 0.78c 0.075 0 0.18 0.03 0.18 0.0975v 0.15c 0 0.03 -0.0225 0.045 -0.06 0.045h -0.9v 0.2925c 0 0.4875 0.03 0.7875 0.03 0.7875c 0 0.045 -0.0225 0.0675 -0.06 0.0675c -0.03 0 -0.0975 -0.03 -0.165 -0.0675c -0.0825 -0.045 -0.1575 -0.0825 -0.255 -0.105c -0.09 -0.03 -0.165 -0.0525 -0.165 -0.105c 0 -0.09 0.0225 -0.0375 0.0225 -0.87Z "/></symbol><symbol id="gA8EFB52C99353113683E6C49F4679BE2" overflow="visible"><path d="M 0 0m 2.1975 0.36c 0.045 -0.2325 0.1275 -0.435 0.5025 -0.435c 0.285 0 0.555 0.1275 0.7125 0.2775c -0.015 0.09 -0.045 0.1575 -0.1275 0.2025c -0.0525 -0.045 -0.18 -0.12 -0.2775 -0.12c -0.2175 0 -0.225 0.2925 -0.225 0.6375v 1.1025c 0 1.065 -0.585 1.2675 -1.1325 1.2675c -0.615 0 -1.2375 -0.405 -1.2375 -0.8325c 0 -0.18 0.09 -0.27 0.2625 -0.27c 0.2175 0 0.3525 0.1575 0.3525 0.255c 0 0.0525 -0.0075 0.105 -0.0225 0.135c -0.0075 0.0225 -0.015 0.0675 -0.015 0.15c 0 0.2325 0.315 0.315 0.6 0.315c 0.255 0 0.6075 -0.1275 0.6075 -0.975c 0 -0.0525 -0.0225 -0.0825 -0.045 -0.09l -0.645 -0.1575c -0.72 -0.18 -1.2375 -0.5775 -1.2375 -1.0875c 0 -0.615 0.42 -0.81 0.945 -0.81c 0.2625 0 0.4875 0.06 0.8175 0.315l 0.15 0.12Z m 0 1.3875v -0.99c 0 -0.0975 -0.045 -0.15 -0.105 -0.195c -0.195 -0.1575 -0.45 -0.33 -0.66 -0.33c -0.375 0 -0.54 0.3 -0.54 0.5325c 0 0.3375 0.1575 0.6825 0.7125 0.825Z "/></symbol><symbol id="gFB4C0FB2F65D2AE0279DDC09E7C5CB96" overflow="visible"><path d="M 0 0m 1.17 2.76c -0.0075 0.225 -0.0225 0.42 -0.06 0.495c -0.015 0.0375 -0.03 0.06 -0.09 0.06c -0.21 -0.0825 -0.405 -0.15 -0.9225 -0.2175c -0.015 -0.045 0 -0.165 0.015 -0.21c 0.405 -0.0375 0.4875 -0.075 0.4875 -0.51v -3.2025c 0 -0.6225 -0.0825 -0.66 -0.54 -0.6825c -0.045 -0.045 -0.045 -0.2025 0 -0.2475c 0.2625 0.0075 0.54 0.015 0.84 0.015c 0.3 0 0.66 -0.0075 0.9075 -0.015c 0.045 0.045 0.045 0.2025 0 0.2475c -0.5325 0.03 -0.615 0.06 -0.615 0.6825v 0.81c 0 0.0975 0.03 0.09 0.105 0.06c 0.1875 -0.075 0.4125 -0.12 0.6525 -0.12c 0.42 0 0.795 0.1275 1.1025 0.42c 0.3525 0.345 0.555 0.81 0.555 1.4175c 0 0.795 -0.5625 1.53 -1.3275 1.53c -0.345 0 -0.7275 -0.225 -1.0275 -0.5625c -0.045 -0.045 -0.075 -0.045 -0.0825 0.03Z m 0.1425 -0.2775c 0.195 0.24 0.54 0.465 0.7575 0.465c 0.48 0 0.8925 -0.54 0.8925 -1.3875c 0 -0.615 -0.2175 -1.38 -1.0575 -1.38c -0.135 0 -0.3975 0.0375 -0.5325 0.1575c -0.15 0.135 -0.18 0.18 -0.18 0.45v 1.365c 0 0.1575 0.03 0.225 0.12 0.33Z "/></symbol><symbol id="gA8BB7EB28693E4099FDFBB943B41403B" overflow="visible"><path d="M 0 0m 1.3575 0.915v 1.4925c 0 0.375 0.03 0.855 0.03 0.855c 0 0.03 -0.0375 0.0525 -0.0975 0.0525c -0.21 -0.0825 -0.51 -0.15 -1.0275 -0.2175c -0.015 -0.045 0 -0.165 0.015 -0.21c 0.4125 -0.0375 0.4875 -0.0825 0.4875 -0.51v -1.4625c 0 -0.6225 -0.0825 -0.645 -0.54 -0.6825c -0.045 -0.045 -0.045 -0.2025 0 -0.2475c 0.2475 0.0075 0.54 0.015 0.84 0.015c 0.3 0 0.585 -0.0075 0.8325 -0.015c 0.045 0.045 0.045 0.2025 0 0.2475c -0.4575 0.03 -0.54 0.06 -0.54 0.6825Z m -0.6825 3.5775c 0 -0.195 0.18 -0.39 0.36 -0.39c 0.21 0 0.39 0.2025 0.39 0.36c 0 0.18 -0.1575 0.39 -0.36 0.39c -0.18 0 -0.39 -0.18 -0.39 -0.36Z "/></symbol><symbol id="g4007C2E8465FC9A65E964B0E2B48E8FB" overflow="visible"><path d="M 0 0m 1.38 2.685c -0.045 -0.0525 -0.09 -0.0675 -0.09 0c -0.0075 0.2025 -0.0225 0.495 -0.06 0.57c -0.015 0.0375 -0.03 0.06 -0.09 0.06c -0.21 -0.0825 -0.405 -0.15 -0.9225 -0.2175c -0.015 -0.045 0 -0.165 0.015 -0.21c 0.405 -0.0375 0.4875 -0.075 0.4875 -0.51v -1.4625c 0 -0.615 -0.075 -0.645 -0.525 -0.6825c -0.045 -0.045 -0.045 -0.2025 0 -0.2475c 0.225 0.0075 0.525 0.015 0.825 0.015c 0.3 0 0.525 -0.0075 0.75 -0.015c 0.045 0.045 0.045 0.2025 0 0.2475c -0.3825 0.0375 -0.4575 0.0675 -0.4575 0.6825v 1.23c 0 0.1575 0.0675 0.2475 0.1275 0.315c 0.285 0.2775 0.6225 0.4425 0.915 0.4425c 0.15 0 0.3075 -0.0975 0.3975 -0.27c 0.075 -0.15 0.09 -0.3525 0.09 -0.5775v -1.14c 0 -0.615 -0.075 -0.645 -0.465 -0.6825c -0.0375 -0.045 -0.0375 -0.2025 0 -0.2475c 0.225 0.0075 0.465 0.015 0.765 0.015c 0.3 0 0.57 -0.0075 0.795 -0.015c 0.0375 0.045 0.0375 0.2025 0 0.2475c -0.42 0.0375 -0.5025 0.0675 -0.5025 0.6825v 1.1175c 0 0.4125 -0.03 0.7725 -0.2025 1.005c -0.1275 0.165 -0.36 0.255 -0.6225 0.255c -0.3675 0 -0.7875 -0.0975 -1.23 -0.6075Z "/></symbol><symbol id="g78D5B1C9AD3E752CB3FFE5813E9DE9B" overflow="visible"><path d="M 0 0m 1.905 1.89c 0 0.3375 -0.03 2.07 -1.59 3.42c -0.075 -0.015 -0.135 -0.0675 -0.1575 -0.1275c 0.2475 -0.285 1.125 -1.32 1.125 -3.2925c 0 -1.9725 -0.885 -3.0075 -1.125 -3.2775c 0.0225 -0.075 0.075 -0.1275 0.1575 -0.135c 0.8925 0.765 1.59 2.0175 1.59 3.4125Z "/></symbol><symbol id="g2AC10369B86C95DF83351FC51A738A41" overflow="visible"><path d="M 0 0m 3.730078125 0.200390625q -0.26015625 -0.151171875 -0.536132813 -0.226757813q -0.275976563 -0.075585938 -0.564257813 -0.075585938q -0.9140625 0 -1.429101563 0.5484375q -0.515039063 0.5484375 -0.515039063 1.51875q 0 0.9703125 0.515039063 1.51875q 0.515039063 0.5484375 1.429101563 0.5484375q 0.284765625 0 0.55546875 -0.073828125q 0.270703125 -0.073828125 0.544921875 -0.228515625v -0.678515625q -0.256640625 0.228515625 -0.515039063 0.33046875q -0.258398438 0.101953125 -0.585351563 0.101953125q -0.608203125 0 -0.93515625 -0.39375q -0.326953125 -0.39375 -0.326953125 -1.125q 0 -0.727734375 0.328710938 -1.123242188q 0.328710938 -0.395507813 0.933398438 -0.395507813q 0.3375 0 0.6046875 0.103710938q 0.2671875 0.103710938 0.495703125 0.321679688v -0.671484375Z "/></symbol><symbol id="g710C7FE6582EA4B38D4B53FDBC20B09D" overflow="visible"><path d="M 0 0m 2.246484375 1.42734375q 0 -0.4359375 0.159960938 -0.657421875q 0.159960938 -0.221484375 0.472851563 -0.221484375h 0.755859375v -0.5484375h -0.819140625q -0.580078125 0 -0.898242188 0.37265625q -0.318164063 0.37265625 -0.318164063 1.0546875v 3.575390625h -1.037109375v 0.50625h 1.683984375v -4.081640625Z "/></symbol><symbol id="gD7A99953CBF2D45D05D2C80FE659C376" overflow="visible"><path d="M 0 0m 1.2515625 2.260546875h 1.831640625v -0.5765625h -1.831640625v 0.5765625Z "/></symbol><symbol id="gE2F22555ADB7AC1A23AE70E2479B63CB" overflow="visible"><path d="M 0 0m 3.751171875 4.383984375l -1.25859375 -0.68203125l 1.25859375 -0.685546875l -0.200390625 -0.34453125l -1.18125 0.713671875v -1.325390625h -0.404296875v 1.325390625l -1.18125 -0.713671875l -0.200390625 0.34453125l 1.25859375 0.685546875l -1.25859375 0.68203125l 0.200390625 0.348046875l 1.18125 -0.713671875v 1.325390625h 0.404296875v -1.325390625l 1.18125 0.713671875l 0.200390625 -0.348046875Z "/></symbol><symbol id="gEDC3CEBCCC060C466E7556806EC55A12" overflow="visible"><path d="M 0 0m 2.165625 3.483984375q -0.4921875 0 -0.7453125 -0.383203125q -0.253125 -0.383203125 -0.253125 -1.135546875q 0 -0.748828125 0.253125 -1.133789063q 0.253125 -0.384960938 0.7453125 -0.384960938q 0.495703125 0 0.748828125 0.384960938q 0.253125 0.384960938 0.253125 1.133789063q 0 0.75234375 -0.253125 1.135546875q -0.253125 0.383203125 -0.748828125 0.383203125Z m 0 0.5484375q 0.819140625 0 1.253320313 -0.530859375q 0.434179688 -0.530859375 0.434179688 -1.536328125q 0 -1.008984375 -0.432421875 -1.538085938q -0.432421875 -0.529101563 -1.255078125 -0.529101563q -0.819140625 0 -1.2515625 0.529101563q -0.432421875 0.529101563 -0.432421875 1.538085938q 0 1.00546875 0.432421875 1.536328125q 0.432421875 0.530859375 1.2515625 0.530859375Z "/></symbol><symbol id="g8420CB3EDC5AC48DCE6F1B66A0738D9D" overflow="visible"><path d="M 0 0m 4.060546875 3.125390625q -0.207421875 0.16171875 -0.421875 0.235546875q -0.214453125 0.073828125 -0.47109375 0.073828125q -0.6046875 0 -0.924609375 -0.3796875q -0.319921875 -0.3796875 -0.319921875 -1.096875v -1.958203125h -0.650390625v 3.9375h 0.650390625v -0.769921875q 0.16171875 0.418359375 0.497460938 0.641601563q 0.335742188 0.223242188 0.796289063 0.223242188q 0.2390625 0 0.446484375 -0.059765625q 0.207421875 -0.059765625 0.397265625 -0.186328125v -0.6609375Z "/></symbol><symbol id="gA40D749396C6C1DD7F25370FF2DB6EE8" overflow="visible"><path d="M 0 0m 3.01640625 3.434765625v 2.035546875h 0.646875v -5.4703125h -0.646875v 0.495703125q -0.16171875 -0.291796875 -0.430664063 -0.444726563q -0.268945313 -0.152929688 -0.620507813 -0.152929688q -0.713671875 0 -1.123242188 0.553710938q -0.409570313 0.553710938 -0.409570313 1.527539063q 0 0.959765625 0.411328125 1.506445313q 0.411328125 0.546679688 1.121484375 0.546679688q 0.355078125 0 0.62578125 -0.152929688q 0.270703125 -0.152929688 0.425390625 -0.444726563Z m -1.901953125 -1.46953125q 0 -0.75234375 0.2390625 -1.135546875q 0.2390625 -0.383203125 0.706640625 -0.383203125q 0.467578125 0 0.711914063 0.38671875q 0.244335938 0.38671875 0.244335938 1.13203125q 0 0.748828125 -0.244335938 1.133789063q -0.244335938 0.384960938 -0.711914063 0.384960938q -0.467578125 0 -0.706640625 -0.383203125q -0.2390625 -0.383203125 -0.2390625 -1.135546875Z "/></symbol><symbol id="gA72EC8D98D773FBD42B7DAFFD9854E99" overflow="visible"><path d="M 0 0m 3.737109375 5.4703125v -0.537890625h -0.734765625q -0.348046875 0 -0.483398438 -0.142382813q -0.135351563 -0.142382813 -0.135351563 -0.504492188v -0.348046875h 1.353515625v -0.502734375h -1.353515625v -3.434765625h -0.646875v 3.434765625h -1.051171875v 0.502734375h 1.051171875v 0.27421875q 0 0.646875 0.297070313 0.952734375q 0.297070313 0.305859375 0.926367188 0.305859375h 0.776953125Z "/></symbol><symbol id="g9F3DA9728EA17759E02FA8550159BD9A" overflow="visible"><path d="M 0 0m 2.15859375 5.05546875v -1.11796875h 1.46953125v -0.502734375h -1.46953125v -2.1375q 0 -0.4359375 0.165234375 -0.608203125q 0.165234375 -0.172265625 0.5765625 -0.172265625h 0.727734375v -0.516796875h -0.791015625q -0.727734375 0 -1.0265625 0.291796875q -0.298828125 0.291796875 -0.298828125 1.00546875v 2.1375h -1.051171875v 0.502734375h 1.051171875v 1.11796875h 0.646875Z "/></symbol><symbol id="g6547456983017125BAABA1DD3FE7B939" overflow="visible"><path d="M 0 0m 1.503 2.574c 0 0.189 0.081 0.297 0.153 0.378c 0.342 0.333 0.801 0.531 1.152 0.531c 0.18 0 0.369 -0.117 0.477 -0.324c 0.09 -0.18 0.108 -0.423 0.108 -0.693v -1.368c 0 -0.738 -0.09 -0.774 -0.558 -0.819c -0.045 -0.054 -0.045 -0.243 0 -0.297c 0.252 0.009 0.558 0.018 0.918 0.018c 0.36 0 0.657 -0.009 0.954 -0.018c 0.045 0.054 0.045 0.243 0 0.297c -0.504 0.045 -0.603 0.081 -0.603 0.819v 1.341c 0 0.495 -0.036 0.936 -0.243 1.206c -0.153 0.198 -0.432 0.306 -0.747 0.306c -0.441 0 -0.981 -0.117 -1.53 -0.729c 0 -0.009 -0.009 -0.009 -0.018 -0.018c -0.027 -0.036 -0.072 -0.09 -0.072 0.018l 0.009 2.025c 0 0.585 0.036 0.945 0.036 0.945c 0 0.063 -0.036 0.09 -0.117 0.09c -0.225 -0.09 -0.9 -0.216 -1.26 -0.243c -0.018 -0.072 0 -0.216 0.054 -0.27c 0.027 0 0.054 0 0.081 0c 0.396 -0.027 0.495 -0.027 0.495 -0.738v -3.933c 0 -0.747 -0.108 -0.783 -0.63 -0.819c -0.054 -0.054 -0.054 -0.243 0 -0.297c 0.297 0.009 0.63 0.018 0.99 0.018c 0.342 0 0.639 -0.009 0.891 -0.018c 0.054 0.054 0.054 0.243 0 0.297c -0.459 0.036 -0.54 0.072 -0.54 0.819Z "/></symbol><symbol id="g66B9A992694013ABABB01E28AE9743C7" overflow="visible"><path d="M 0 0m 1.53 3.222c -0.009 0.27 -0.027 0.594 -0.072 0.684c -0.018 0.045 -0.036 0.072 -0.108 0.072c -0.252 -0.099 -0.486 -0.18 -1.107 -0.261c -0.018 -0.054 0 -0.198 0.018 -0.252c 0.486 -0.045 0.585 -0.09 0.585 -0.612v -1.755c 0 -0.738 -0.117 -0.783 -0.612 -0.819c -0.054 -0.054 -0.054 -0.243 0 -0.297c 0.27 0.009 0.612 0.018 0.972 0.018c 0.36 0 0.639 -0.009 0.909 -0.018c 0.054 0.054 0.054 0.243 0 0.297c -0.459 0.045 -0.558 0.081 -0.558 0.819v 1.476c 0 0.189 0.081 0.297 0.153 0.378c 0.36 0.351 0.693 0.531 0.972 0.531c 0.342 0 0.594 -0.216 0.594 -0.819v -1.566c 0 -0.738 -0.072 -0.783 -0.558 -0.819c -0.045 -0.054 -0.045 -0.243 0 -0.297c 0.225 0.009 0.558 0.018 0.918 0.018c 0.36 0 0.657 -0.009 0.882 -0.018c 0.045 0.054 0.045 0.243 0 0.297c -0.45 0.036 -0.531 0.081 -0.531 0.819v 1.431c 0 0.126 0 0.252 -0.009 0.36c 0.432 0.477 0.837 0.594 1.188 0.594c 0.342 0 0.54 -0.198 0.54 -0.801v -1.584c 0 -0.738 -0.09 -0.783 -0.558 -0.819c -0.045 -0.054 -0.045 -0.243 0 -0.297c 0.225 0.009 0.558 0.018 0.918 0.018c 0.36 0 0.675 -0.009 0.927 -0.018c 0.045 0.054 0.045 0.243 0 0.297c -0.495 0.036 -0.576 0.081 -0.576 0.819v 1.422c 0 0.801 -0.135 1.431 -0.927 1.431c -0.459 0 -1.017 -0.171 -1.485 -0.666c -0.027 -0.027 -0.081 -0.072 -0.099 0.009c -0.081 0.369 -0.432 0.657 -0.9 0.657c -0.522 0 -0.99 -0.306 -1.368 -0.729c -0.045 -0.045 -0.099 -0.108 -0.108 0Z "/></symbol><symbol id="g1DC7A540DDF098EB5805486D9C3B9575" overflow="visible"><path d="M 0 0m 1.503 3.546c -0.054 -0.054 -0.09 -0.036 -0.09 0.045v 1.656c 0 0.585 0.036 0.945 0.036 0.945c 0 0.063 -0.036 0.09 -0.117 0.09c -0.225 -0.09 -0.9 -0.216 -1.26 -0.243c -0.018 -0.072 0 -0.216 0.054 -0.27c 0.027 0 0.054 0 0.081 0c 0.396 -0.027 0.495 -0.027 0.495 -0.738v -4.392c 0 -0.351 -0.009 -0.513 -0.036 -0.639c 0.045 -0.072 0.09 -0.108 0.198 -0.108c 0.054 0.054 0.144 0.135 0.216 0.216c 0.09 0.108 0.144 0.108 0.243 0.027c 0.207 -0.171 0.477 -0.225 0.792 -0.225c 0.918 0 1.989 0.837 1.989 2.268c 0 1.098 -0.81 1.773 -1.593 1.773c -0.387 0 -0.729 -0.153 -1.008 -0.405Z m 0.063 -0.279c 0.234 0.207 0.504 0.288 0.765 0.288c 0.549 0 0.999 -0.666 0.999 -1.539c 0 -1.026 -0.414 -1.8 -1.269 -1.8c -0.279 0 -0.468 0.198 -0.648 0.423v 2.25c 0 0.189 0.036 0.279 0.153 0.378Z "/></symbol><symbol id="gA1FEA12DCE93D0EA0BBFC1201B9D8E1C" overflow="visible"><path d="M 0 0m 0.432 1.242c 0.036 -0.441 0.063 -0.864 0.063 -1.242c 0.09 0.018 0.18 0.027 0.225 0.027c 0.063 0 0.117 0 0.18 -0.018c 0.243 -0.063 0.486 -0.099 0.819 -0.099c 0.504 0 1.431 0.243 1.431 1.134c 0 0.612 -0.441 0.972 -1.053 1.197c -0.54 0.207 -0.9 0.342 -0.9 0.837c 0 0.369 0.324 0.576 0.63 0.576c 0.198 0 0.72 -0.072 0.837 -0.837c 0.054 -0.054 0.234 -0.045 0.288 0.009c 0.027 0.324 0.045 0.657 0.054 0.954c -0.279 0.045 -0.711 0.171 -1.179 0.171c -0.666 0 -1.269 -0.432 -1.269 -1.008c 0 -0.657 0.297 -0.936 0.99 -1.224c 0.747 -0.306 0.918 -0.495 0.918 -0.882c 0 -0.441 -0.432 -0.63 -0.765 -0.63c -0.351 0 -0.549 0.117 -0.639 0.216c -0.198 0.207 -0.297 0.603 -0.351 0.828c -0.054 0.054 -0.225 0.045 -0.279 -0.009Z "/></symbol></defs></svg>