<?xml version="1.0" encoding="UTF-8"?>
<svg width="592px" height="249px" viewBox="0 0 592 249" version="1.1" xmlns="http://www.w3.org/2000/svg" xmlns:xlink="http://www.w3.org/1999/xlink">
    <title>logo-dark</title>
    <g id="Page-1" stroke="none" stroke-width="1" fill="none" fill-rule="evenodd">
        <path d="M495.5,18 C540.787349,18 577.5,54.7126505 577.5,100 L577.5,151 C577.5,196.287349 540.787349,233 495.5,233 L305,233 L305,18 L495.5,18 Z M484.127907,71.75 L361,71.75 L361,179.25 L484.127907,179.25 C501.801019,179.25 516.127907,164.923112 516.127907,147.25 L516.127907,147.25 L516.127907,103.75 C516.127907,86.076888 501.801019,71.75 484.127907,71.75 L484.127907,71.75 Z" id="Combined-Shape-Copy-3" fill="#C0DCFF"></path>
        <path d="M107.686047,74.75 L107.156868,74.7542871 C89.9021198,75.0340465 75.9672209,88.9706776 75.6902484,106.226103 L75.6860465,106.75 L75.6860465,147.75 L75.6903336,148.279179 C75.970093,165.533927 89.9067241,179.468826 107.16215,179.745798 L107.686047,179.75 L230.813953,179.75 L230.813953,153.133721 L141.5,153.133721 L141.5,98.6113612 L288,98.6113612 L288,233 L97.5,233 C52.2126505,233 15.5,196.287349 15.5,151 L15.5,100 C15.5,54.7126505 52.2126505,18 97.5,18 L288,18 L288,74.75 L107.686047,74.75 Z" id="Combined-Shape-Copy-2" fill="#C0DCFF"></path>
    </g>
</svg>