<svg viewBox="0 0 351.157480315 209.42519685" width="351.157480315pt" height="209.42519685pt" xmlns="http://www.w3.org/2000/svg" xmlns:xlink="http://www.w3.org/1999/xlink" xmlns:h5="http://www.w3.org/1999/xhtml"><path fill="#161616" fill-rule="nonzero" d="M 0 0v 209.42519685h 351.157480315v -209.42519685Z "/><g transform="translate(5.5 5.5)"><path fill="#161616" fill-rule="nonzero" d="M 0 0v 198.42519685h 340.157480315v -198.42519685Z "/><g transform="translate(5 5)"><g><g transform="matrix(1 0 0 -1 0 7.74)"><use xlink:href="#g7C8B8CE2FA3271B2DB9D5C00ED33FFB8" x="0" y="0" fill="#f5f5f4" fill-rule="nonzero"/><use xlink:href="#g94CA49381870409795489232C8E0F99F" x="11.88" y="0" fill="#f5f5f4" fill-rule="nonzero"/><use xlink:href="#gC76A03CC6B2F66C4058A56BA6A9EE20" x="19.728" y="0" fill="#f5f5f4" fill-rule="nonzero"/><use xlink:href="#gFEC70EFDBA18BA4C4D3D82E0B33EA29E" x="26.904" y="0" fill="#f5f5f4" fill-rule="nonzero"/><use xlink:href="#g60E64311C0ACD550FD96BE9E58C78EBF" x="37.764" y="0" fill="#f5f5f4" fill-rule="nonzero"/><use xlink:href="#gC2725F9DC1D542B814F24406C37F92E1" x="47.736" y="0" fill="#f5f5f4" fill-rule="nonzero"/><use xlink:href="#g5C8521CD324BD598695A36491E4CE69D" x="56.208" y="0" fill="#f5f5f4" fill-rule="nonzero"/><use xlink:href="#gDC05A2A7E4AEFCF99C6614634AF8B2F0" x="63.636" y="0" fill="#f5f5f4" fill-rule="nonzero"/><use xlink:href="#g56D9AC69DF1E60AEC4FA898FA388366B" x="69.708" y="0" fill="#f5f5f4" fill-rule="nonzero"/><use xlink:href="#g3E13159425B4C5FA6BE9D46173183F7B" x="74.844" y="0" fill="#f5f5f4" fill-rule="nonzero"/></g></g><g transform="translate(0 14.94)"><path fill="none" stroke="#595959" stroke-width="0.2" stroke-linecap="butt" stroke-linejoin="miter" stroke-miterlimit="4" transform="translate(75.272342639)" d="M 0 0m 0 149.963559055v -149.963559055"/><path fill="none" stroke="#595959" stroke-width="0.2" stroke-linecap="butt" stroke-linejoin="miter" stroke-miterlimit="4" transform="translate(159.444692913)" d="M 0 0m 0 149.963559055v -149.963559055"/><path fill="none" stroke="#595959" stroke-width="0.2" stroke-linecap="butt" stroke-linejoin="miter" stroke-miterlimit="4" transform="translate(243.617043188)" d="M 0 0m 0 149.963559055v -149.963559055"/><path fill="none" stroke="#595959" stroke-width="0.4" stroke-linecap="butt" stroke-linejoin="miter" stroke-miterlimit="4" transform="translate(33.186167502)" d="M 0 0m 0 149.963559055v -149.963559055"/><path fill="none" transform="translate(31.326167502 152.798204724)" d="M 0 0h 3.72v 5.28h -3.72v -5.28Z "/><g transform="translate(31.326167407 152.798204677)"><g transform="matrix(1 0 0 -1 0 5.264)"><use xlink:href="#g8C50DFC0B8272CD73341C65811BD0E92" x="0" y="0" fill="#f5f5f4" fill-rule="nonzero"/></g></g><path fill="none" stroke="#595959" stroke-width="0.4" stroke-linecap="butt" stroke-linejoin="miter" stroke-miterlimit="4" transform="translate(117.358517776)" d="M 0 0m 0 149.963559055v -149.963559055"/><path fill="none" transform="translate(115.498517776 152.798204724)" d="M 0 0h 3.72v 5.28h -3.72v -5.28Z "/><g transform="translate(115.498517682 152.798204677)"><g transform="matrix(1 0 0 -1 0 5.264)"><use xlink:href="#gAD9C87F854BDA42EDABFFB35EC1FA84E" x="0" y="0" fill="#f5f5f4" fill-rule="nonzero"/></g></g><path fill="none" stroke="#595959" stroke-width="0.4" stroke-linecap="butt" stroke-linejoin="miter" stroke-miterlimit="4" transform="translate(201.530868051)" d="M 0 0m 0 149.963559055v -149.963559055"/><path fill="none" transform="translate(199.670868051 152.798204724)" d="M 0 0h 3.72v 5.344h -3.72v -5.344Z "/><g transform="translate(199.670867956 152.798204646)"><g transform="matrix(1 0 0 -1 0 5.264)"><use xlink:href="#g4DADFF8D06AE4DC17FB93571E5AFF437" x="0" y="0" fill="#f5f5f4" fill-rule="nonzero"/></g></g><path fill="none" stroke="#595959" stroke-width="0.4" stroke-linecap="butt" stroke-linejoin="miter" stroke-miterlimit="4" transform="translate(285.703218325)" d="M 0 0m 0 149.963559055v -149.963559055"/><path fill="none" transform="translate(283.843218325 152.798204724)" d="M 0 0h 3.72v 5.28h -3.72v -5.28Z "/><g transform="translate(283.84321823 152.798204677)"><g transform="matrix(1 0 0 -1 0 5.264)"><use xlink:href="#gF821431C61A4D7F3ECEFEC074E9C0EFC" x="0" y="0" fill="#f5f5f4" fill-rule="nonzero"/></g></g><path fill="none" stroke="#595959" stroke-width="0.2" stroke-linecap="butt" stroke-linejoin="miter" stroke-miterlimit="4" transform="translate(20.560314961 29.538276784)" d="M 0 0h 277.768755906"/><path fill="none" stroke="#595959" stroke-width="0.2" stroke-linecap="butt" stroke-linejoin="miter" stroke-miterlimit="4" transform="translate(20.560314961 74.981779528)" d="M 0 0h 277.768755906"/><path fill="none" stroke="#595959" stroke-width="0.2" stroke-linecap="butt" stroke-linejoin="miter" stroke-miterlimit="4" transform="translate(20.560314961 120.425282272)" d="M 0 0h 277.768755906"/><path fill="none" stroke="#595959" stroke-width="0.4" stroke-linecap="butt" stroke-linejoin="miter" stroke-miterlimit="4" transform="translate(20.560314961 6.816525412)" d="M 0 0h 277.768755906"/><path fill="none" transform="translate(14.005669291 4.176525412)" d="M 0 0h 3.72v 5.28h -3.72v -5.28Z "/><g transform="translate(14.005669197 4.176525364)"><g transform="matrix(1 0 0 -1 0 5.264)"><use xlink:href="#g8C50DFC0B8272CD73341C65811BD0E92" x="0" y="0" fill="#f5f5f4" fill-rule="nonzero"/></g></g><path fill="none" stroke="#595959" stroke-width="0.4" stroke-linecap="butt" stroke-linejoin="miter" stroke-miterlimit="4" transform="translate(20.560314961 52.260028156)" d="M 0 0h 277.768755906"/><path fill="none" transform="translate(14.005669291 49.620028156)" d="M 0 0h 3.72v 5.28h -3.72v -5.28Z "/><g transform="translate(14.005669197 49.620028108)"><g transform="matrix(1 0 0 -1 0 5.264)"><use xlink:href="#gAD9C87F854BDA42EDABFFB35EC1FA84E" x="0" y="0" fill="#f5f5f4" fill-rule="nonzero"/></g></g><path fill="none" stroke="#595959" stroke-width="0.4" stroke-linecap="butt" stroke-linejoin="miter" stroke-miterlimit="4" transform="translate(20.560314961 97.7035309)" d="M 0 0h 277.768755906"/><path fill="none" transform="translate(14.005669291 95.0315309)" d="M 0 0h 3.72v 5.344h -3.72v -5.344Z "/><g transform="translate(14.005669197 95.031530821)"><g transform="matrix(1 0 0 -1 0 5.264)"><use xlink:href="#g4DADFF8D06AE4DC17FB93571E5AFF437" x="0" y="0" fill="#f5f5f4" fill-rule="nonzero"/></g></g><path fill="none" stroke="#595959" stroke-width="0.4" stroke-linecap="butt" stroke-linejoin="miter" stroke-miterlimit="4" transform="translate(20.560314961 143.147033644)" d="M 0 0h 277.768755906"/><path fill="none" transform="translate(14.005669291 140.507033644)" d="M 0 0h 3.72v 5.28h -3.72v -5.28Z "/><g transform="translate(14.005669197 140.507033596)"><g transform="matrix(1 0 0 -1 0 5.264)"><use xlink:href="#gF821431C61A4D7F3ECEFEC074E9C0EFC" x="0" y="0" fill="#f5f5f4" fill-rule="nonzero"/></g></g><path fill="none" transform="translate(20.560314961 0)" d="M 0 0h 277.768755906v 149.963559055h -277.768755906v -149.963559055Z "/><g transform="translate(20.560314882 -1.26e-7)"><g clip-path="url(#c5D6044EB64A18F07BDE87163C445DD66)"><g><path fill="none" stroke="#0072b2" stroke-width="1.5" stroke-linecap="butt" stroke-linejoin="miter" stroke-miterlimit="4" stroke-dashoffset="0" stroke-dasharray="" transform="translate(12.625852541 6.816525412)" d="M 0 0m 0 0l 4.008207156 0.034816088l 4.008207156 0.07449867l 4.008207156 0.159192058l 4.008207156 0.339173886l 4.008207156 0.718154791l 4.008207156 1.500739433l 4.008207156 3.051741923l 4.008207156 5.875359337l 4.008207156 10.206703724l 4.008207156 14.924662326l 4.008207156 17.116921013l 4.008207156 14.924662326l 4.008207156 10.206703724l 4.008207156 5.875359337l 4.008207156 3.051741923l 4.008207156 1.500739433l 4.008207156 0.718154791l 4.008207156 0.339173886l 4.008207156 0.159192058l 4.008207156 0.07449867l 4.008207156 0.034816088l 4.008207156 -0.017408044l 4.008207156 -0.037249335l 4.008207156 -0.079596029l 4.008207156 -0.169586943l 4.008207156 -0.359077396l 4.008207156 -0.750369717l 4.008207156 -1.525870961l 4.008207156 -2.937679669l 4.008207156 -5.103351862l 4.008207156 -7.462331163l 4.008207156 -8.558460506l 4.008207156 -7.462331163l 4.008207156 -5.103351862l 4.008207156 -2.937679669l 4.008207156 -1.525870961l 4.008207156 -0.750369717l 4.008207156 -0.359077396l 4.008207156 -0.169586943l 4.008207156 -0.079596029l 4.008207156 -0.037249335l 4.008207156 -0.017408044l 4.008207156 -0.017408044l 4.008207156 -0.037249335l 4.008207156 -0.079596029l 4.008207156 -0.169586943l 4.008207156 -0.359077396l 4.008207156 -0.750369717l 4.008207156 -1.525870961l 4.008207156 -2.937679669l 4.008207156 -5.103351862l 4.008207156 -7.462331163l 4.008207156 -8.558460506l 4.008207156 -7.462331163l 4.008207156 -5.103351862l 4.008207156 -2.937679669l 4.008207156 -1.525870961l 4.008207156 -0.750369717l 4.008207156 -0.359077396l 4.008207156 -0.169586943l 4.008207156 -0.079596029l 4.008207156 -0.037249335l 4.008207156 -0.017408044"/><path fill="none" stroke="#d55e00" stroke-width="1.5" stroke-linecap="butt" stroke-linejoin="miter" stroke-miterlimit="4" stroke-dashoffset="0" stroke-dasharray="" transform="translate(12.625852541 6.816525412)" d="M 0 0m 0 45.443502744l 4.008207156 -0.017408044l 4.008207156 -0.037249335l 4.008207156 -0.079596029l 4.008207156 -0.169586943l 4.008207156 -0.359077396l 4.008207156 -0.750369717l 4.008207156 -1.525870961l 4.008207156 -2.937679669l 4.008207156 -5.103351862l 4.008207156 -7.462331163l 4.008207156 -8.558460506l 4.008207156 -7.462331163l 4.008207156 -5.103351862l 4.008207156 -2.937679669l 4.008207156 -1.525870961l 4.008207156 -0.750369717l 4.008207156 -0.359077396l 4.008207156 -0.169586943l 4.008207156 -0.079596029l 4.008207156 -0.037249335l 4.008207156 -0.017408044h 4.008207156h 4.008207156h 4.008207156h 4.008207156h 4.008207156h 4.008207156h 4.008207156h 4.008207156h 4.008207156h 4.008207156h 4.008207156h 4.008207156h 4.008207156h 4.008207156h 4.008207156h 4.008207156h 4.008207156h 4.008207156h 4.008207156h 4.008207156h 4.008207156l 4.008207156 0.017408044l 4.008207156 0.037249335l 4.008207156 0.079596029l 4.008207156 0.169586943l 4.008207156 0.359077396l 4.008207156 0.750369717l 4.008207156 1.525870961l 4.008207156 2.937679669l 4.008207156 5.103351862l 4.008207156 7.462331163l 4.008207156 8.558460506l 4.008207156 7.462331163l 4.008207156 5.103351862l 4.008207156 2.937679669l 4.008207156 1.525870961l 4.008207156 0.750369717l 4.008207156 0.359077396l 4.008207156 0.169586943l 4.008207156 0.079596029l 4.008207156 0.037249335l 4.008207156 0.017408044"/><path fill="none" stroke="#009e73" stroke-width="1.5" stroke-linecap="butt" stroke-linejoin="miter" stroke-miterlimit="4" stroke-dashoffset="0" stroke-dasharray="" transform="translate(12.625852541 52.260028156)" d="M 0 0m 0 45.443502744l 4.008207156 -0.017408044l 4.008207156 -0.037249335l 4.008207156 -0.079596029l 4.008207156 -0.169586943l 4.008207156 -0.359077396l 4.008207156 -0.750369717l 4.008207156 -1.525870961l 4.008207156 -2.937679669l 4.008207156 -5.103351862l 4.008207156 -7.462331163l 4.008207156 -8.558460506l 4.008207156 -7.462331163l 4.008207156 -5.103351862l 4.008207156 -2.937679669l 4.008207156 -1.525870961l 4.008207156 -0.750369717l 4.008207156 -0.359077396l 4.008207156 -0.169586943l 4.008207156 -0.079596029l 4.008207156 -0.037249335l 4.008207156 -0.017408044l 4.008207156 0.034816088l 4.008207156 0.07449867l 4.008207156 0.159192058l 4.008207156 0.339173886l 4.008207156 0.718154791l 4.008207156 1.500739433l 4.008207156 3.051741923l 4.008207156 5.875359337l 4.008207156 10.206703724l 4.008207156 14.924662326l 4.008207156 17.116921013l 4.008207156 14.924662326l 4.008207156 10.206703724l 4.008207156 5.875359337l 4.008207156 3.051741923l 4.008207156 1.500739433l 4.008207156 0.718154791l 4.008207156 0.339173886l 4.008207156 0.159192058l 4.008207156 0.07449867l 4.008207156 0.034816088l 4.008207156 -0.017408044l 4.008207156 -0.037249335l 4.008207156 -0.079596029l 4.008207156 -0.169586943l 4.008207156 -0.359077396l 4.008207156 -0.750369717l 4.008207156 -1.525870961l 4.008207156 -2.937679669l 4.008207156 -5.103351862l 4.008207156 -7.462331163l 4.008207156 -8.558460506l 4.008207156 -7.462331163l 4.008207156 -5.103351862l 4.008207156 -2.937679669l 4.008207156 -1.525870961l 4.008207156 -0.750369717l 4.008207156 -0.359077396l 4.008207156 -0.169586943l 4.008207156 -0.079596029l 4.008207156 -0.037249335l 4.008207156 -0.017408044"/><path fill="none" stroke="#e69f00" stroke-width="1.5" stroke-linecap="butt" stroke-linejoin="miter" stroke-miterlimit="4" stroke-dashoffset="0" stroke-dasharray="" transform="translate(12.625852541 97.7035309)" d="M 0 0m 0 45.443502744h 4.008207156h 4.008207156h 4.008207156h 4.008207156h 4.008207156h 4.008207156h 4.008207156h 4.008207156h 4.008207156h 4.008207156h 4.008207156h 4.008207156h 4.008207156h 4.008207156h 4.008207156h 4.008207156h 4.008207156h 4.008207156h 4.008207156h 4.008207156h 4.008207156l 4.008207156 -0.017408044l 4.008207156 -0.037249335l 4.008207156 -0.079596029l 4.008207156 -0.169586943l 4.008207156 -0.359077396l 4.008207156 -0.750369717l 4.008207156 -1.525870961l 4.008207156 -2.937679669l 4.008207156 -5.103351862l 4.008207156 -7.462331163l 4.008207156 -8.558460506l 4.008207156 -7.462331163l 4.008207156 -5.103351862l 4.008207156 -2.937679669l 4.008207156 -1.525870961l 4.008207156 -0.750369717l 4.008207156 -0.359077396l 4.008207156 -0.169586943l 4.008207156 -0.079596029l 4.008207156 -0.037249335l 4.008207156 -0.017408044l 4.008207156 0.017408044l 4.008207156 0.037249335l 4.008207156 0.079596029l 4.008207156 0.169586943l 4.008207156 0.359077396l 4.008207156 0.750369717l 4.008207156 1.525870961l 4.008207156 2.937679669l 4.008207156 5.103351862l 4.008207156 7.462331163l 4.008207156 8.558460506l 4.008207156 7.462331163l 4.008207156 5.103351862l 4.008207156 2.937679669l 4.008207156 1.525870961l 4.008207156 0.750369717l 4.008207156 0.359077396l 4.008207156 0.169586943l 4.008207156 0.079596029l 4.008207156 0.037249335l 4.008207156 0.017408044"/><path fill="#0072b2" fill-rule="nonzero" transform="translate(7.625852541 1.816525412)" d="M 0 0m 5 0c -2.75892 0 -5 2.24108 -5 5c 0 2.75892 2.24108 5 5 5c 2.75892 0 5 -2.24108 5 -5c 0 -2.75892 -2.24108 -5 -5 -5Z "/><path fill="#0072b2" fill-rule="nonzero" transform="translate(91.798202816 92.7035309)" d="M 0 0m 5 0c -2.75892 0 -5 2.24108 -5 5c 0 2.75892 2.24108 5 5 5c 2.75892 0 5 -2.24108 5 -5c 0 -2.75892 -2.24108 -5 -5 -5Z "/><path fill="#0072b2" fill-rule="nonzero" transform="translate(175.97055309 47.260028156)" d="M 0 0m 5 0c -2.75892 0 -5 2.24108 -5 5c 0 2.75892 2.24108 5 5 5c 2.75892 0 5 -2.24108 5 -5c 0 -2.75892 -2.24108 -5 -5 -5Z "/><path fill="#0072b2" fill-rule="nonzero" transform="translate(260.142903364 1.816525412)" d="M 0 0m 5 0c -2.75892 0 -5 2.24108 -5 5c 0 2.75892 2.24108 5 5 5c 2.75892 0 5 -2.24108 5 -5c 0 -2.75892 -2.24108 -5 -5 -5Z "/><path fill="#d55e00" fill-rule="nonzero" transform="translate(7.625852541 47.260028156)" d="M 0 0m 5 0c -2.75892 0 -5 2.24108 -5 5c 0 2.75892 2.24108 5 5 5c 2.75892 0 5 -2.24108 5 -5c 0 -2.75892 -2.24108 -5 -5 -5Z "/><path fill="#d55e00" fill-rule="nonzero" transform="translate(91.798202816 1.816525412)" d="M 0 0m 5 0c -2.75892 0 -5 2.24108 -5 5c 0 2.75892 2.24108 5 5 5c 2.75892 0 5 -2.24108 5 -5c 0 -2.75892 -2.24108 -5 -5 -5Z "/><path fill="#d55e00" fill-rule="nonzero" transform="translate(175.97055309 1.816525412)" d="M 0 0m 5 0c -2.75892 0 -5 2.24108 -5 5c 0 2.75892 2.24108 5 5 5c 2.75892 0 5 -2.24108 5 -5c 0 -2.75892 -2.24108 -5 -5 -5Z "/><path fill="#d55e00" fill-rule="nonzero" transform="translate(260.142903364 47.260028156)" d="M 0 0m 5 0c -2.75892 0 -5 2.24108 -5 5c 0 2.75892 2.24108 5 5 5c 2.75892 0 5 -2.24108 5 -5c 0 -2.75892 -2.24108 -5 -5 -5Z "/><path fill="#009e73" fill-rule="nonzero" transform="translate(7.625852541 92.7035309)" d="M 0 0m 5 0c -2.75892 0 -5 2.24108 -5 5c 0 2.75892 2.24108 5 5 5c 2.75892 0 5 -2.24108 5 -5c 0 -2.75892 -2.24108 -5 -5 -5Z "/><path fill="#009e73" fill-rule="nonzero" transform="translate(91.798202816 47.260028156)" d="M 0 0m 5 0c -2.75892 0 -5 2.24108 -5 5c 0 2.75892 2.24108 5 5 5c 2.75892 0 5 -2.24108 5 -5c 0 -2.75892 -2.24108 -5 -5 -5Z "/><path fill="#009e73" fill-rule="nonzero" transform="translate(175.97055309 138.147033644)" d="M 0 0m 5 0c -2.75892 0 -5 2.24108 -5 5c 0 2.75892 2.24108 5 5 5c 2.75892 0 5 -2.24108 5 -5c 0 -2.75892 -2.24108 -5 -5 -5Z "/><path fill="#009e73" fill-rule="nonzero" transform="translate(260.142903364 92.7035309)" d="M 0 0m 5 0c -2.75892 0 -5 2.24108 -5 5c 0 2.75892 2.24108 5 5 5c 2.75892 0 5 -2.24108 5 -5c 0 -2.75892 -2.24108 -5 -5 -5Z "/><path fill="#e69f00" fill-rule="nonzero" transform="translate(7.625852541 138.147033644)" d="M 0 0m 5 0c -2.75892 0 -5 2.24108 -5 5c 0 2.75892 2.24108 5 5 5c 2.75892 0 5 -2.24108 5 -5c 0 -2.75892 -2.24108 -5 -5 -5Z "/><path fill="#e69f00" fill-rule="nonzero" transform="translate(91.798202816 138.147033644)" d="M 0 0m 5 0c -2.75892 0 -5 2.24108 -5 5c 0 2.75892 2.24108 5 5 5c 2.75892 0 5 -2.24108 5 -5c 0 -2.75892 -2.24108 -5 -5 -5Z "/><path fill="#e69f00" fill-rule="nonzero" transform="translate(175.97055309 92.7035309)" d="M 0 0m 5 0c -2.75892 0 -5 2.24108 -5 5c 0 2.75892 2.24108 5 5 5c 2.75892 0 5 -2.24108 5 -5c 0 -2.75892 -2.24108 -5 -5 -5Z "/><path fill="#e69f00" fill-rule="nonzero" transform="translate(260.142903364 138.147033644)" d="M 0 0m 5 0c -2.75892 0 -5 2.24108 -5 5c 0 2.75892 2.24108 5 5 5c 2.75892 0 5 -2.24108 5 -5c 0 -2.75892 -2.24108 -5 -5 -5Z "/></g></g></g><path fill="none" transform="translate(147.429692913 166.028874016)" d="M 0 0h 24.03v 6.039h -24.03v -6.039Z "/><g transform="translate(147.429692913 166.028873874)"><g transform="matrix(1 0 0 -1 0 5.922)"><use xlink:href="#g1A88500060BC21DC44508038C8E5E161" x="0" y="0" fill="#f5f5f4" fill-rule="nonzero"/><use xlink:href="#gF71CD90141C058754731CB923424AFF5" x="5.283" y="0" fill="#f5f5f4" fill-rule="nonzero"/><use xlink:href="#gB47AF1E8EB8505E9D708624CF420FCE1" x="9.819" y="0" fill="#f5f5f4" fill-rule="nonzero"/><use xlink:href="#g75829AE9E8B7E42D7FCDFD5712A16351" x="14.598" y="0" fill="#f5f5f4" fill-rule="nonzero"/><use xlink:href="#gAB89768063FECB7A3B2DCA9C98B07790" x="19.476" y="0" fill="#f5f5f4" fill-rule="nonzero"/></g></g><path fill="none" transform="translate(1.496834646 65.540779528)" d="M 0 0m 0 18.882l 0 -18.882h 6.012v 18.882h -6.012Z "/><g transform="matrix(0 -1 1 0 1.496834646 84.422779528)"><g transform="matrix(1 0 0 -1 0 5.922)"><use xlink:href="#g1A88500060BC21DC44508038C8E5E161" x="0" y="0" fill="#f5f5f4" fill-rule="nonzero"/><use xlink:href="#gCD526F970F75B32D8B517499D55C4978" x="5.283" y="0" fill="#f5f5f4" fill-rule="nonzero"/><use xlink:href="#g75829AE9E8B7E42D7FCDFD5712A16351" x="9.396" y="0" fill="#f5f5f4" fill-rule="nonzero"/><use xlink:href="#g3F4E81852703ED4D13C26AD861BB81DD" x="14.274" y="0" fill="#f5f5f4" fill-rule="nonzero"/></g></g><path fill="none" transform="translate(311.129070866 47.56911811)" d="M 0 0h 17.824v 5.344h -17.824v -5.344Z "/><g transform="translate(311.12907074 47.569118031)"><g transform="matrix(1 0 0 -1 0 5.264)"><use xlink:href="#g257321D448ABEEFA4C949A97C9AEA63C" x="0" y="0" fill="#f5f5f4" fill-rule="nonzero"/><use xlink:href="#g20EDBE1E989F56AA9FBFD4A2EF5BDC35" x="4.272" y="0" fill="#f5f5f4" fill-rule="nonzero"/><use xlink:href="#g7CADDE05683A2F282E92796EAE7002E6" x="7.848" y="0" fill="#f5f5f4" fill-rule="nonzero"/><use xlink:href="#g58427B726775E01C628C261B90DBAC4F" x="11.504" y="0" fill="#f5f5f4" fill-rule="nonzero"/></g></g><path fill="none" stroke="#0072b2" stroke-width="1" stroke-linecap="butt" stroke-linejoin="miter" stroke-miterlimit="4" transform="translate(311.129070866 60.36911811)" d="M 0 0m 3.401574803 0c -1.876934551 0 -3.401574803 1.524640252 -3.401574803 3.401574803c 0 1.876934551 1.524640252 3.401574803 3.401574803 3.401574803c 1.876934551 0 3.401574803 -1.524640252 3.401574803 -3.401574803c 0 -1.876934551 -1.524640252 -3.401574803 -3.401574803 -3.401574803Z "/><path fill="none" transform="translate(322.184188976 61.130692913)" d="M 0 0h 5.56v 5.28h -5.56v -5.28Z "/><g transform="translate(322.184188898 61.130692866)"><g transform="matrix(1 0 0 -1 0 5.264)"><use xlink:href="#g8D1B85E3ABA097AFFEFA8B147B26839C" x="0" y="0" fill="#f5f5f4" fill-rule="nonzero"/></g></g><path fill="none" stroke="#d55e00" stroke-width="1" stroke-linecap="butt" stroke-linejoin="miter" stroke-miterlimit="4" transform="translate(311.129070866 71.576173228)" d="M 0 0m 3.401574803 0c -1.876934551 0 -3.401574803 1.524640252 -3.401574803 3.401574803c 0 1.876934551 1.524640252 3.401574803 3.401574803 3.401574803c 1.876934551 0 3.401574803 -1.524640252 3.401574803 -3.401574803c 0 -1.876934551 -1.524640252 -3.401574803 -3.401574803 -3.401574803Z "/><path fill="none" transform="translate(322.184188976 72.337748031)" d="M 0 0h 4.704v 5.28h -4.704v -5.28Z "/><g transform="translate(322.184188929 72.337747984)"><g transform="matrix(1 0 0 -1 0 5.264)"><use xlink:href="#gB2C2A6E3883310E6A7667C09A3228786" x="0" y="0" fill="#f5f5f4" fill-rule="nonzero"/></g></g><path fill="none" stroke="#009e73" stroke-width="1" stroke-linecap="butt" stroke-linejoin="miter" stroke-miterlimit="4" transform="translate(311.129070866 82.783228346)" d="M 0 0m 3.401574803 0c -1.876934551 0 -3.401574803 1.524640252 -3.401574803 3.401574803c 0 1.876934551 1.524640252 3.401574803 3.401574803 3.401574803c 1.876934551 0 3.401574803 -1.524640252 3.401574803 -3.401574803c 0 -1.876934551 -1.524640252 -3.401574803 -3.401574803 -3.401574803Z "/><path fill="none" transform="translate(322.184188976 83.51280315)" d="M 0 0h 5.168v 5.344h -5.168v -5.344Z "/><g transform="translate(322.184188913 83.512803071)"><g transform="matrix(1 0 0 -1 0 5.264)"><use xlink:href="#g8C602F113ED136B9EC97C2B861CC969C" x="0" y="0" fill="#f5f5f4" fill-rule="nonzero"/></g></g><path fill="none" stroke="#e69f00" stroke-width="1" stroke-linecap="butt" stroke-linejoin="miter" stroke-miterlimit="4" transform="translate(311.129070866 93.990283465)" d="M 0 0m 3.401574803 0c -1.876934551 0 -3.401574803 1.524640252 -3.401574803 3.401574803c 0 1.876934551 1.524640252 3.401574803 3.401574803 3.401574803c 1.876934551 0 3.401574803 -1.524640252 3.401574803 -3.401574803c 0 -1.876934551 -1.524640252 -3.401574803 -3.401574803 -3.401574803Z "/><path fill="none" transform="translate(322.184188976 94.751858268)" d="M 0 0h 5.608v 5.28h -5.608v -5.28Z "/><g transform="translate(322.184188945 94.75185822)"><g transform="matrix(1 0 0 -1 0 5.264)"><use xlink:href="#gFE6E2B5509146F875FD8B916E3486C01" x="0" y="0" fill="#f5f5f4" fill-rule="nonzero"/></g></g></g></g></g><defs><symbol id="g7C8B8CE2FA3271B2DB9D5C00ED33FFB8" overflow="visible"><path d="M 0 0m 1.98 0.948l 0.636 1.668c 0.06 0.156 0.132 0.204 0.42 0.204h 2.28l 0.672 -1.956c 0.144 -0.432 -0.204 -0.444 -0.66 -0.468c -0.072 0 -0.156 -0.012 -0.228 -0.012c -0.072 -0.072 -0.072 -0.336 0 -0.408c 0.444 0.012 1.584 0.024 2.052 0.024c 0.492 0 1.164 -0.012 1.608 -0.024c 0.072 0.072 0.072 0.336 0 0.408c -0.468 0.048 -0.864 0.036 -1.08 0.648l -2.472 6.864c -0.18 -0.108 -0.9 -0.528 -1.32 -0.528l -2.604 -6.144c -0.312 -0.744 -0.672 -0.804 -1.2 -0.84c -0.072 -0.072 -0.072 -0.336 0 -0.408c 0.444 0.012 0.66 0.024 1.128 0.024c 0.492 0 1.152 -0.012 1.596 -0.024c 0.072 0.072 0.072 0.336 0 0.408c -0.456 0.036 -1.02 0.072 -0.828 0.564Z m 1.296 2.448c -0.264 0 -0.348 0.036 -0.3 0.156l 1.056 2.688h 0.084l 0.984 -2.844Z "/></symbol><symbol id="g94CA49381870409795489232C8E0F99F" overflow="visible"><path d="M 0 0m 2.076 7.74c -0.48 0 -1.848 0.024 -1.848 0.024c -0.12 -0.072 -0.12 -0.336 0 -0.408c 0.66 -0.036 0.996 -0.084 0.996 -1.08v -4.812c 0 -0.996 -0.336 -1.044 -0.996 -1.08c -0.12 -0.072 -0.12 -0.336 0 -0.408c 0 0 1.368 0.024 1.848 0.024c 0.48 0 1.248 -0.024 1.968 -0.024c 2.46 0 3.252 1.032 3.252 2.256c 0 1.056 -0.528 1.74 -1.8 2.076v 0.024c 0.648 0.288 1.152 0.948 1.152 1.56c 0 0.828 -0.444 1.872 -2.868 1.872c -0.6 0 -1.32 -0.024 -1.704 -0.024Z m 0.828 -3.732h 0.852c 1.236 0 1.776 -0.732 1.776 -1.764c 0 -0.72 -0.252 -1.764 -1.836 -1.764c -0.72 0 -0.792 0.18 -0.792 0.528Z m 0 2.736c 0 0.348 0.06 0.516 0.84 0.516c 0.552 0 1.224 -0.216 1.224 -1.392c 0 -0.96 -0.54 -1.356 -1.392 -1.356h -0.672Z "/></symbol><symbol id="gC76A03CC6B2F66C4058A56BA6A9EE20" overflow="visible"><path d="M 0 0m 6.12 1.596v 2.076c 0 1.008 0.024 0.864 0.024 1.152c 0 0.204 -0.048 0.336 -0.12 0.408c -0.216 -0.012 -0.456 -0.024 -0.684 -0.024c -0.336 0 -1.116 0.012 -1.584 0.024c -0.072 -0.072 -0.072 -0.336 0 -0.408c 0.612 -0.06 0.804 -0.144 0.804 -1.152v -2.22c 0 -0.12 0 -0.24 0.012 -0.36c -0.492 -0.3 -0.888 -0.324 -1.104 -0.324c -0.48 0 -0.84 0.06 -0.84 0.9v 2.004c 0 1.008 0.024 0.864 0.024 1.152c 0 0.204 -0.048 0.336 -0.12 0.408c -0.216 -0.012 -0.468 -0.024 -0.684 -0.024c -0.612 0 -1.068 0.012 -1.584 0.024c -0.072 -0.072 -0.072 -0.336 0 -0.408c 0.552 -0.024 0.804 -0.144 0.804 -1.152v -1.872c 0 -1.272 0.504 -1.92 1.536 -1.92c 0.432 0 1.308 0.348 2.004 0.732c 0.024 -0.3 0.048 -0.528 0.048 -0.528c 0.012 -0.144 0.108 -0.204 0.276 -0.204c 0.444 0.12 1.164 0.288 1.992 0.396c 0.024 0.072 0 0.312 -0.024 0.384c -0.648 0.06 -0.78 0.252 -0.78 0.936Z "/></symbol><symbol id="gFEC70EFDBA18BA4C4D3D82E0B33EA29E" overflow="visible"><path d="M 0 0m 2.736 1.464v 2.388c 0 0.06 0 0.12 0 0.18c 0.468 0.288 0.888 0.408 1.092 0.408c 0.48 0 0.84 -0.216 0.84 -0.9v -2.004c 0 -1.008 -0.192 -1.116 -0.684 -1.152c -0.072 -0.072 -0.072 -0.336 0 -0.408c 0.504 0.012 0.888 0.024 1.464 0.024c 0.576 0 0.948 -0.012 1.464 -0.024c 0.072 0.072 0.072 0.336 0 0.408c -0.48 0.036 -0.684 0.144 -0.684 1.152v 1.872c 0 0.3 -0.012 0.54 -0.048 0.66c 0.456 0.228 0.972 0.372 1.164 0.372c 0.48 0 0.816 -0.216 0.816 -0.9v -2.004c 0 -1.008 -0.192 -1.116 -0.684 -1.152c -0.072 -0.072 -0.072 -0.336 0 -0.408c 0.504 0.012 0.888 0.024 1.464 0.024c 0.66 0 1.188 -0.012 1.704 -0.024c 0.072 0.072 0.072 0.336 0 0.408c -0.732 0.036 -0.924 0.144 -0.924 1.152v 1.872c 0 1.32 -0.48 1.92 -1.512 1.92c -0.444 0 -1.452 -0.48 -2.148 -0.864c -0.18 0.516 -0.66 0.864 -1.368 0.864c -0.432 0 -1.296 -0.456 -1.98 -0.84c -0.036 0.36 -0.072 0.636 -0.072 0.636c -0.012 0.144 -0.108 0.204 -0.276 0.204c -0.444 -0.12 -1.164 -0.288 -1.992 -0.396c -0.024 -0.072 0 -0.312 0.024 -0.384c 0.66 -0.06 0.78 -0.156 0.78 -0.84v -2.244c 0 -0.996 -0.132 -1.02 -0.864 -1.08c -0.072 -0.072 -0.072 -0.336 0 -0.408c 0.504 0.012 1.008 0.024 1.644 0.024c 0.552 0 0.888 -0.012 1.404 -0.024c 0.072 0.072 0.072 0.336 0 0.408c -0.504 0.048 -0.624 0.084 -0.624 1.08Z "/></symbol><symbol id="g60E64311C0ACD550FD96BE9E58C78EBF" overflow="visible"><path d="M 0 0m 1.14 3.708v -5.028c 0 -0.996 -0.132 -1.02 -0.864 -1.08c -0.072 -0.072 -0.072 -0.336 0 -0.408c 0.504 0.012 1.008 0.024 1.644 0.024c 0.636 0 1.128 -0.012 1.644 -0.024c 0.072 0.072 0.072 0.336 0 0.408c -0.732 0.048 -0.864 0.084 -0.864 1.08v 1.404c 0.264 -0.132 0.516 -0.204 0.804 -0.204c 1.824 0 3.012 1.2 3.012 2.964c 0 0.672 -0.252 1.416 -0.72 1.884c -0.42 0.42 -1.02 0.6 -1.644 0.6c -0.348 0 -0.996 -0.42 -1.416 -0.804h -0.072c -0.024 0.336 -0.06 0.6 -0.06 0.6c -0.012 0.144 -0.108 0.204 -0.276 0.204c -0.444 -0.12 -1.164 -0.288 -1.992 -0.396c -0.024 -0.072 0 -0.312 0.024 -0.384c 0.66 -0.06 0.78 -0.156 0.78 -0.84Z m 1.56 -2.928v 3.072c 0 0.072 0 0.132 0 0.204c 0.348 0.312 0.792 0.468 1.068 0.468c 0.492 0 1.068 -0.6 1.068 -2.004c 0 -1.008 -0.36 -2.136 -1.404 -2.136c -0.132 0 -0.432 0.072 -0.732 0.396Z "/></symbol><symbol id="gC2725F9DC1D542B814F24406C37F92E1" overflow="visible"><path d="M 0 0m 4.764 -0.12c 1.164 0 2.232 0.552 3.048 1.62c -0.06 0.108 -0.264 0.252 -0.396 0.252c -0.852 -0.936 -1.824 -1.248 -2.664 -1.248c -1.392 0 -2.496 1.632 -2.496 3.504c 0 1.86 0.96 3.396 2.388 3.396c 1.656 0 2.196 -0.936 2.508 -1.968c 0.144 -0.048 0.384 -0.012 0.516 0.06c -0.06 0.624 -0.156 1.2 -0.264 1.86c -0.612 0.06 -1.152 0.54 -2.628 0.54c -2.352 0 -4.332 -1.476 -4.332 -4.116c 0 -1.128 0.492 -2.448 1.452 -3.144c 0.768 -0.552 1.704 -0.756 2.868 -0.756Z "/></symbol><symbol id="g5C8521CD324BD598695A36491E4CE69D" overflow="visible"><path d="M 0 0m 6.336 1.536v 1.872c 0 1.32 -0.564 1.92 -1.596 1.92c -0.444 0 -1.296 -0.444 -1.98 -0.864v 2.532c 0 0.78 0.036 1.224 0.036 1.224c 0 0.108 -0.084 0.156 -0.192 0.156c -0.444 -0.144 -1.404 -0.276 -2.256 -0.312c -0.036 -0.144 -0.024 -0.276 0.036 -0.384c 0.756 -0.06 0.816 -0.072 0.816 -0.9v -5.256c 0 -0.996 -0.192 -1.104 -0.924 -1.14c -0.072 -0.072 -0.072 -0.336 0 -0.408c 0.504 0.012 1.044 0.024 1.704 0.024c 0.576 0 0.948 -0.012 1.464 -0.024c 0.072 0.072 0.072 0.336 0 0.408c -0.504 0.036 -0.684 0.144 -0.684 1.14v 2.46c 0.504 0.312 0.9 0.456 1.116 0.456c 0.48 0 0.9 -0.216 0.9 -0.9v -2.004c 0 -1.008 -0.192 -1.116 -0.684 -1.152c -0.072 -0.072 -0.072 -0.336 0 -0.408c 0.504 0.012 0.888 0.024 1.464 0.024c 0.66 0 1.188 -0.012 1.704 -0.024c 0.072 0.072 0.072 0.336 0 0.408c -0.732 0.036 -0.924 0.144 -0.924 1.152Z "/></symbol><symbol id="gDC05A2A7E4AEFCF99C6614634AF8B2F0" overflow="visible"><path d="M 0 0m 3.54 0.588c 0.084 -0.492 0.408 -0.708 0.936 -0.708c 0.66 0 1.128 0.252 1.572 0.672c -0.024 0.144 -0.072 0.24 -0.216 0.336c -0.156 -0.12 -0.276 -0.168 -0.504 -0.168c -0.264 0 -0.336 0.216 -0.336 0.804l 0.024 1.728c 0 1.728 -1.068 2.076 -2.052 2.076c -0.876 0 -2.22 -0.504 -2.22 -1.296c 0 -0.336 0.144 -0.6 0.612 -0.6c 0.432 0 0.744 0.264 0.744 0.552c 0 0.06 -0.012 0.132 -0.024 0.204c -0.024 0.12 -0.048 0.24 -0.024 0.36c 0.012 0.132 0.108 0.276 0.504 0.276c 0.504 0 0.924 -0.216 0.924 -1.74l -0.804 -0.252c -1.26 -0.396 -2.148 -0.744 -2.148 -1.692c 0 -0.828 0.456 -1.26 1.5 -1.26c 0.348 0 1.044 0.384 1.44 0.696Z m -0.06 2.028v -1.584c -0.3 -0.24 -0.6 -0.432 -0.816 -0.432c -0.516 0 -0.696 0.348 -0.696 0.72c 0 0.444 0.036 0.816 0.888 1.092Z "/></symbol><symbol id="g56D9AC69DF1E60AEC4FA898FA388366B" overflow="visible"><path d="M 0 0m 2.736 3.216c 0 0.432 0.132 0.612 0.288 0.792c 0.096 0.12 0.204 0.204 0.384 0.204c 0.108 0 0.24 -0.108 0.336 -0.228c 0.084 -0.096 0.288 -0.192 0.564 -0.192c 0.348 0 0.684 0.36 0.684 0.864c 0 0.312 -0.36 0.672 -0.792 0.672c -0.42 0 -0.876 -0.36 -1.428 -1.152h -0.048c -0.024 0.36 -0.084 0.948 -0.084 0.948c -0.012 0.108 -0.108 0.204 -0.276 0.204c -0.564 -0.144 -1.2 -0.312 -1.992 -0.396c -0.024 -0.072 0 -0.3 0.024 -0.372c 0.66 -0.06 0.78 -0.168 0.78 -0.852v -2.244c 0 -0.996 -0.132 -1.02 -0.864 -1.08c -0.072 -0.072 -0.072 -0.336 0 -0.408c 0.504 0.012 1.008 0.024 1.644 0.024c 0.636 0 1.128 -0.012 1.644 -0.024c 0.072 0.072 0.072 0.336 0 0.408c -0.732 0.048 -0.864 0.084 -0.864 1.08Z "/></symbol><symbol id="g3E13159425B4C5FA6BE9D46173183F7B" overflow="visible"><path d="M 0 0m 0.756 5.208c -0.168 0 -0.348 -0.048 -0.504 -0.18v -0.348c 0 -0.06 0.012 -0.072 0.06 -0.072h 0.78c -0.024 -1.212 -0.036 -2.748 -0.036 -3.348c 0 -0.42 0.108 -0.828 0.36 -1.044c 0.276 -0.228 0.708 -0.336 0.996 -0.336c 0.66 0 1.392 0.336 1.632 0.672c 0 0.144 -0.072 0.216 -0.216 0.336c -0.156 -0.12 -0.456 -0.168 -0.684 -0.168c -0.264 0 -0.528 0.204 -0.528 0.804c 0 0.6 -0.012 1.884 -0.012 3.084h 1.212c 0.12 0 0.288 0.048 0.288 0.156v 0.372c 0 0.048 -0.036 0.072 -0.096 0.072h -1.404l 0.012 0.408c 0.024 0.804 0.06 1.356 0.06 1.356c 0 0.072 -0.036 0.108 -0.096 0.108c -0.084 0 -0.528 -0.132 -0.72 -0.216c -0.204 -0.084 -0.552 -0.156 -0.636 -0.264c -0.084 -0.108 -0.132 -0.432 -0.132 -1.392Z "/></symbol><symbol id="g8C50DFC0B8272CD73341C65811BD0E92" overflow="visible"><path d="M 0 0m 2.304 0.976v 2.776c 0 0.48 0.008 0.968 0.024 1.072c 0 0.04 -0.016 0.04 -0.048 0.04c -0.44 -0.272 -0.864 -0.472 -1.568 -0.8c 0.016 -0.088 0.048 -0.168 0.12 -0.216c 0.368 0.152 0.544 0.2 0.696 0.2c 0.136 0 0.16 -0.192 0.16 -0.464v -2.608c 0 -0.664 -0.216 -0.704 -0.776 -0.728c -0.048 -0.048 -0.048 -0.216 0 -0.264c 0.392 0.008 0.68 0.016 1.112 0.016c 0.384 0 0.576 -0.008 0.976 -0.016c 0.048 0.048 0.048 0.216 0 0.264c -0.56 0.024 -0.696 0.064 -0.696 0.728Z "/></symbol><symbol id="gAD9C87F854BDA42EDABFFB35EC1FA84E" overflow="visible"><path d="M 0 0m 0.488 3.744c 0 -0.168 0.152 -0.312 0.32 -0.312c 0.136 0 0.376 0.144 0.376 0.32c 0 0.064 -0.016 0.112 -0.032 0.168c -0.016 0.056 -0.064 0.128 -0.064 0.192c 0 0.2 0.208 0.488 0.792 0.488c 0.288 0 0.696 -0.2 0.696 -0.968c 0 -0.512 -0.184 -0.928 -0.656 -1.408l -0.592 -0.584c -0.784 -0.8 -0.912 -1.184 -0.912 -1.656c 0 0 0.408 0.016 0.664 0.016h 1.4c 0.256 0 0.624 -0.016 0.624 -0.016c 0.104 0.424 0.184 1.024 0.192 1.264c -0.048 0.04 -0.152 0.056 -0.232 0.04c -0.136 -0.568 -0.272 -0.768 -0.56 -0.768h -1.424c 0 0.384 0.552 0.928 0.592 0.968l 0.808 0.776c 0.456 0.44 0.8 0.792 0.8 1.4c 0 0.864 -0.704 1.216 -1.352 1.216c -0.888 0 -1.44 -0.656 -1.44 -1.136Z "/></symbol><symbol id="g4DADFF8D06AE4DC17FB93571E5AFF437" overflow="visible"><path d="M 0 0m 1.72 4.6c 0.344 0 0.664 -0.208 0.664 -0.72c 0 -0.4 -0.464 -1.016 -1.256 -1.128l 0.04 -0.256c 0.136 0.016 0.28 0.016 0.384 0.016c 0.456 0 1.048 -0.128 1.048 -1.032c 0 -1.064 -0.712 -1.28 -0.992 -1.28c -0.408 0 -0.48 0.184 -0.576 0.328c -0.08 0.112 -0.184 0.208 -0.344 0.208c -0.168 0 -0.336 -0.152 -0.336 -0.28c 0 -0.32 0.672 -0.536 1.152 -0.536c 0.952 0 1.8 0.616 1.8 1.672c 0 0.872 -0.656 1.184 -1.128 1.264l -0.008 0.016c 0.656 0.312 0.84 0.64 0.84 1.064c 0 0.24 -0.056 0.432 -0.248 0.632c -0.176 0.176 -0.456 0.312 -0.872 0.312c -1.176 0 -1.512 -0.768 -1.512 -1.032c 0 -0.112 0.08 -0.272 0.272 -0.272c 0.28 0 0.312 0.264 0.312 0.416c 0 0.512 0.552 0.608 0.76 0.608Z "/></symbol><symbol id="gF821431C61A4D7F3ECEFEC074E9C0EFC" overflow="visible"><path d="M 0 0m 3.44 1.752h -0.664v 2.336c 0 0.4 0 0.712 0.016 0.776l -0.016 0.016h -0.256c -0.056 0 -0.096 -0.048 -0.128 -0.088c -0.504 -0.616 -1.432 -1.936 -2.168 -3.08c 0.024 -0.12 0.072 -0.336 0.312 -0.336h 1.632v -0.736c 0 -0.368 -0.304 -0.368 -0.648 -0.392c -0.048 -0.048 -0.048 -0.216 0 -0.264c 0.256 0.008 0.576 0.016 0.944 0.016c 0.312 0 0.616 -0.008 0.872 -0.016c 0.048 0.048 0.048 0.216 0 0.264c -0.392 0.032 -0.56 0.016 -0.56 0.392v 0.736h 0.552c 0.112 0 0.232 0.152 0.232 0.248c 0 0.08 -0.032 0.128 -0.12 0.128Z m -1.272 2.304v -2.304h -1.528c 0.408 0.656 0.976 1.552 1.528 2.304Z "/></symbol><symbol id="g1A88500060BC21DC44508038C8E5E161" overflow="visible"><path d="M 0 0m 1.701 1.098v 1.521c 0.756 0 0.927 -0.135 1.053 -0.342l 0.963 -1.566c 0.261 -0.423 0.648 -0.801 1.188 -0.801c 0.135 0 0.288 0.018 0.378 0.063c 0.036 0.063 0.027 0.144 -0.009 0.216c -0.405 0 -0.63 0.306 -0.864 0.693l -1.134 1.89c 0.387 0.126 1.197 0.594 1.197 1.539c 0 0.45 -0.153 0.819 -0.477 1.125c -0.432 0.405 -0.99 0.432 -1.557 0.432c -0.423 0 -0.801 -0.063 -1.125 -0.063c -0.315 0 -0.738 0.009 -1.161 0.018c -0.054 -0.054 -0.054 -0.243 0 -0.297c 0.63 -0.027 0.783 -0.072 0.783 -0.819v -3.609c 0 -0.747 -0.153 -0.792 -0.783 -0.819c -0.054 -0.054 -0.054 -0.243 0 -0.297c 0.405 0.009 0.828 0.018 1.17 0.018c 0.342 0 0.765 -0.009 1.161 -0.018c 0.054 0.054 0.054 0.243 0 0.297c -0.63 0.027 -0.783 0.072 -0.783 0.819Z m 0.747 4.464c 0.549 0 1.197 -0.198 1.197 -1.26c 0 -1.125 -0.639 -1.377 -1.512 -1.377h -0.432v 2.061c 0 0.261 0.108 0.576 0.747 0.576Z "/></symbol><symbol id="gF71CD90141C058754731CB923424AFF5" overflow="visible"><path d="M 0 0m 0.369 1.845c 0 -0.918 0.612 -1.935 1.89 -1.935c 0.576 0 1.017 0.207 1.323 0.504c 0.405 0.396 0.585 0.963 0.585 1.512c 0 0.936 -0.513 2.025 -1.89 2.025c -0.594 0 -1.08 -0.243 -1.413 -0.63c -0.324 -0.387 -0.495 -0.909 -0.495 -1.476Z m 1.773 1.791c 0.774 0 1.251 -0.702 1.251 -1.998c 0 -1.134 -0.585 -1.413 -1.008 -1.413c -0.936 0 -1.242 1.134 -1.242 1.827c 0 0.783 0.189 1.584 0.999 1.584Z "/></symbol><symbol id="gB47AF1E8EB8505E9D708624CF420FCE1" overflow="visible"><path d="M 0 0m 1.953 -0.09c 0.351 0 0.774 0.18 1.215 0.54c 0.045 0.036 0.126 0.054 0.135 -0.009c 0.027 -0.225 0.099 -0.531 0.099 -0.531c 0.072 -0.027 0.117 -0.018 0.171 0c 0.198 0.162 0.513 0.297 1.062 0.36c 0.054 0.054 0.054 0.189 0 0.243c -0.576 0.045 -0.657 0.216 -0.657 0.657v 1.728c 0 0.27 0.036 0.927 0.036 0.927c 0 0.027 -0.027 0.054 -0.072 0.054c -0.045 -0.009 -0.18 -0.018 -0.315 -0.018c -0.288 0 -0.612 0.009 -0.918 0.018c -0.054 -0.054 -0.054 -0.243 0 -0.297c 0.441 -0.027 0.558 -0.135 0.558 -0.729v -1.737c 0 -0.171 -0.018 -0.243 -0.144 -0.351c -0.333 -0.288 -0.675 -0.432 -0.9 -0.432c -0.27 0 -0.72 0.126 -0.72 0.927v 1.638c 0 0.27 0.036 0.927 0.036 0.927c 0 0.027 -0.027 0.054 -0.072 0.054c -0.045 -0.009 -0.18 -0.018 -0.315 -0.018c -0.288 0 -0.612 0.009 -0.918 0.018c -0.054 -0.054 -0.054 -0.243 0 -0.297c 0.432 -0.036 0.558 -0.135 0.558 -0.72v -1.728c 0 -0.621 0.27 -1.224 1.161 -1.224Z "/></symbol><symbol id="g75829AE9E8B7E42D7FCDFD5712A16351" overflow="visible"><path d="M 0 0m 1.656 3.222c -0.054 -0.063 -0.108 -0.081 -0.108 0c -0.009 0.243 -0.027 0.594 -0.072 0.684c -0.018 0.045 -0.036 0.072 -0.108 0.072c -0.252 -0.099 -0.486 -0.18 -1.107 -0.261c -0.018 -0.054 0 -0.198 0.018 -0.252c 0.486 -0.045 0.585 -0.09 0.585 -0.612v -1.755c 0 -0.738 -0.09 -0.774 -0.63 -0.819c -0.054 -0.054 -0.054 -0.243 0 -0.297c 0.27 0.009 0.63 0.018 0.99 0.018c 0.36 0 0.63 -0.009 0.9 -0.018c 0.054 0.054 0.054 0.243 0 0.297c -0.459 0.045 -0.549 0.081 -0.549 0.819v 1.476c 0 0.189 0.081 0.297 0.153 0.378c 0.342 0.333 0.747 0.531 1.098 0.531c 0.18 0 0.369 -0.117 0.477 -0.324c 0.09 -0.18 0.108 -0.423 0.108 -0.693v -1.368c 0 -0.738 -0.09 -0.774 -0.558 -0.819c -0.045 -0.054 -0.045 -0.243 0 -0.297c 0.27 0.009 0.558 0.018 0.918 0.018c 0.36 0 0.684 -0.009 0.954 -0.018c 0.045 0.054 0.045 0.243 0 0.297c -0.504 0.045 -0.603 0.081 -0.603 0.819v 1.341c 0 0.495 -0.036 0.927 -0.243 1.206c -0.153 0.198 -0.432 0.306 -0.747 0.306c -0.441 0 -0.945 -0.117 -1.476 -0.729Z "/></symbol><symbol id="gAB89768063FECB7A3B2DCA9C98B07790" overflow="visible"><path d="M 0 0m 3.006 0.45c 0.045 0.036 0.126 0.054 0.135 -0.009c 0.027 -0.216 0.099 -0.531 0.099 -0.531c 0.072 -0.027 0.117 -0.018 0.171 0c 0.198 0.162 0.513 0.297 1.062 0.36c 0.054 0.054 0.054 0.189 0 0.243c -0.576 0.045 -0.657 0.216 -0.657 0.657v 4.077c 0 0.585 0.036 0.945 0.036 0.945c 0 0.063 -0.036 0.09 -0.117 0.09c -0.225 -0.09 -0.9 -0.216 -1.26 -0.243c -0.018 -0.072 0 -0.216 0.054 -0.27c 0.027 0 0.054 0 0.081 0c 0.396 -0.027 0.495 -0.027 0.495 -0.738v -1.152c 0 -0.063 -0.018 -0.081 -0.081 -0.081c -0.036 0 -0.405 0.153 -0.702 0.153c -0.594 0 -0.99 -0.198 -1.35 -0.54c -0.387 -0.387 -0.621 -0.918 -0.621 -1.584c 0 -1.107 0.558 -1.917 1.53 -1.917c 0.351 0 0.684 0.18 1.125 0.54Z m 0.099 0.666c 0 -0.171 -0.018 -0.243 -0.144 -0.351c -0.333 -0.288 -0.621 -0.432 -0.846 -0.432c -0.486 0 -0.99 0.531 -0.99 1.656c 0 0.648 0.126 1.008 0.261 1.197c 0.279 0.423 0.657 0.45 0.837 0.45c 0.324 0 0.549 -0.117 0.729 -0.324c 0.126 -0.144 0.153 -0.207 0.153 -0.486Z "/></symbol><symbol id="gCD526F970F75B32D8B517499D55C4978" overflow="visible"><path d="M 0 0m 2.637 0.432c 0.054 -0.279 0.153 -0.522 0.603 -0.522c 0.342 0 0.666 0.153 0.855 0.333c -0.018 0.108 -0.054 0.189 -0.153 0.243c -0.063 -0.054 -0.216 -0.144 -0.333 -0.144c -0.261 0 -0.27 0.351 -0.27 0.765v 1.323c 0 1.278 -0.702 1.521 -1.359 1.521c -0.738 0 -1.485 -0.486 -1.485 -0.999c 0 -0.216 0.108 -0.324 0.315 -0.324c 0.261 0 0.423 0.189 0.423 0.306c 0 0.063 -0.009 0.126 -0.027 0.162c -0.009 0.027 -0.018 0.081 -0.018 0.18c 0 0.279 0.378 0.378 0.72 0.378c 0.306 0 0.729 -0.153 0.729 -1.17c 0 -0.063 -0.027 -0.099 -0.054 -0.108l -0.774 -0.189c -0.864 -0.216 -1.485 -0.693 -1.485 -1.305c 0 -0.738 0.504 -0.972 1.134 -0.972c 0.315 0 0.585 0.072 0.981 0.378l 0.18 0.144Z m 0 1.665v -1.188c 0 -0.117 -0.054 -0.18 -0.126 -0.234c -0.234 -0.189 -0.54 -0.396 -0.792 -0.396c -0.45 0 -0.648 0.36 -0.648 0.639c 0 0.405 0.189 0.819 0.855 0.99Z "/></symbol><symbol id="g3F4E81852703ED4D13C26AD861BB81DD" overflow="visible"><path d="M 0 0m 0.774 1.098c 0 -0.747 -0.099 -0.783 -0.603 -0.819c -0.054 -0.054 -0.054 -0.243 0 -0.297c 0.297 0.009 0.603 0.018 0.963 0.018c 0.315 0 0.612 -0.009 0.819 -0.018c 0.054 0.054 0.054 0.243 0 0.297c -0.369 0.036 -0.468 0.072 -0.468 0.819v 0.783c 0.171 -0.009 0.297 -0.018 0.387 -0.045c 0.099 -0.072 0.18 -0.153 0.288 -0.297l 0.657 -0.882c 0.261 -0.351 0.369 -0.522 0.378 -0.63c 0 -0.027 0.009 -0.045 0.036 -0.045c 0.18 0.009 0.378 0.018 0.558 0.018c 0.279 0 0.558 -0.009 0.738 -0.018c 0.054 0.054 0.054 0.243 0 0.297c -0.306 0.036 -0.531 0.072 -0.774 0.378l -1.188 1.494c -0.036 0.045 -0.063 0.081 -0.063 0.126c 0 0.036 0 0.054 0.036 0.09l 0.792 0.819c 0.27 0.288 0.585 0.36 0.945 0.396c 0.054 0.054 0.054 0.243 0 0.297c -0.207 -0.009 -0.459 -0.018 -0.783 -0.018c -0.342 0 -0.675 0.009 -0.882 0.018c -0.054 -0.054 -0.054 -0.243 0 -0.297c 0.504 -0.036 0.288 -0.351 0.207 -0.459c -0.207 -0.261 -0.486 -0.567 -0.72 -0.738c -0.198 -0.144 -0.441 -0.252 -0.612 -0.279v 3.141c 0 0.585 0.036 0.945 0.036 0.945c 0 0.063 -0.036 0.09 -0.117 0.09c -0.225 -0.09 -0.9 -0.216 -1.26 -0.243c -0.018 -0.072 0 -0.216 0.054 -0.27c 0.027 0 0.054 0 0.081 0c 0.396 -0.027 0.495 -0.027 0.495 -0.738Z "/></symbol><symbol id="g257321D448ABEEFA4C949A97C9AEA63C" overflow="visible"><path d="M 0 0m 2.8 0.976v 3.056c 0 0.512 0.08 0.816 0.368 0.816h 0.176c 0.6 0 0.976 -0.208 1.112 -0.824c 0.088 0 0.2 0.008 0.272 0.04c -0.056 0.368 -0.096 0.776 -0.104 1.136c 0 0.008 -0.016 0.024 -0.024 0.024c -0.272 -0.024 -1.16 -0.064 -1.792 -0.064h -0.688c -0.616 0 -1.56 0.04 -1.864 0.064c -0.016 0 -0.032 -0.016 -0.032 -0.024c -0.032 -0.36 -0.112 -0.776 -0.2 -1.16c 0.08 -0.032 0.176 -0.04 0.272 -0.04c 0.16 0.64 0.528 0.848 1.056 0.848h 0.392c 0.296 0 0.376 -0.304 0.376 -0.792v -3.08c 0 -0.664 -0.136 -0.704 -0.776 -0.728c -0.048 -0.048 -0.048 -0.216 0 -0.264c 0.392 0.008 0.8 0.016 1.12 0.016c 0.304 0 0.712 -0.008 1.112 -0.016c 0.048 0.048 0.048 0.216 0 0.264c -0.64 0.024 -0.776 0.064 -0.776 0.728Z "/></symbol><symbol id="g20EDBE1E989F56AA9FBFD4A2EF5BDC35" overflow="visible"><path d="M 0 0m 3.088 0.744c -0.296 -0.304 -0.528 -0.432 -0.992 -0.432c -0.288 0 -0.624 0.168 -0.872 0.576c -0.16 0.264 -0.256 0.632 -0.256 1.096l 2.128 -0.016c 0.096 0 0.152 0.048 0.152 0.136c 0 0.672 -0.24 1.392 -1.352 1.392c -0.696 0 -1.6 -0.664 -1.6 -1.88c 0 -0.448 0.112 -0.88 0.376 -1.184c 0.272 -0.32 0.648 -0.512 1.224 -0.512c 0.608 0 1.04 0.28 1.36 0.696c -0.024 0.08 -0.072 0.12 -0.168 0.128Z m -2.096 1.512c 0.152 0.904 0.712 0.976 0.904 0.976c 0.304 0 0.664 -0.168 0.664 -0.84c 0 -0.072 -0.032 -0.112 -0.12 -0.112Z "/></symbol><symbol id="g7CADDE05683A2F282E92796EAE7002E6" overflow="visible"><path d="M 0 0m 2.344 0.384c 0.048 -0.248 0.136 -0.464 0.536 -0.464c 0.304 0 0.592 0.136 0.76 0.296c -0.016 0.096 -0.048 0.168 -0.136 0.216c -0.056 -0.048 -0.192 -0.128 -0.296 -0.128c -0.232 0 -0.24 0.312 -0.24 0.68v 1.176c 0 1.136 -0.624 1.352 -1.208 1.352c -0.656 0 -1.32 -0.432 -1.32 -0.888c 0 -0.192 0.096 -0.288 0.28 -0.288c 0.232 0 0.376 0.168 0.376 0.272c 0 0.056 -0.008 0.112 -0.024 0.144c -0.008 0.024 -0.016 0.072 -0.016 0.16c 0 0.248 0.336 0.336 0.64 0.336c 0.272 0 0.648 -0.136 0.648 -1.04c 0 -0.056 -0.024 -0.088 -0.048 -0.096l -0.688 -0.168c -0.768 -0.192 -1.32 -0.616 -1.32 -1.16c 0 -0.656 0.448 -0.864 1.008 -0.864c 0.28 0 0.52 0.064 0.872 0.336l 0.16 0.128Z m 0 1.48v -1.056c 0 -0.104 -0.048 -0.16 -0.112 -0.208c -0.208 -0.168 -0.48 -0.352 -0.704 -0.352c -0.4 0 -0.576 0.32 -0.576 0.568c 0 0.36 0.168 0.728 0.76 0.88Z "/></symbol><symbol id="g58427B726775E01C628C261B90DBAC4F" overflow="visible"><path d="M 0 0m 1.36 2.864c -0.008 0.24 -0.024 0.528 -0.064 0.608c -0.016 0.04 -0.032 0.064 -0.096 0.064c -0.224 -0.088 -0.432 -0.16 -0.984 -0.232c -0.016 -0.048 0 -0.176 0.016 -0.224c 0.432 -0.04 0.52 -0.08 0.52 -0.544v -1.56c 0 -0.656 -0.104 -0.696 -0.544 -0.728c -0.048 -0.048 -0.048 -0.216 0 -0.264c 0.24 0.008 0.544 0.016 0.864 0.016c 0.32 0 0.568 -0.008 0.808 -0.016c 0.048 0.048 0.048 0.216 0 0.264c -0.408 0.04 -0.496 0.072 -0.496 0.728v 1.312c 0 0.168 0.072 0.264 0.136 0.336c 0.32 0.312 0.616 0.472 0.864 0.472c 0.304 0 0.528 -0.192 0.528 -0.728v -1.392c 0 -0.656 -0.064 -0.696 -0.496 -0.728c -0.04 -0.048 -0.04 -0.216 0 -0.264c 0.2 0.008 0.496 0.016 0.816 0.016c 0.32 0 0.584 -0.008 0.784 -0.016c 0.04 0.048 0.04 0.216 0 0.264c -0.4 0.032 -0.472 0.072 -0.472 0.728v 1.272c 0 0.112 0 0.224 -0.008 0.32c 0.384 0.424 0.744 0.528 1.056 0.528c 0.304 0 0.48 -0.176 0.48 -0.712v -1.408c 0 -0.656 -0.08 -0.696 -0.496 -0.728c -0.04 -0.048 -0.04 -0.216 0 -0.264c 0.2 0.008 0.496 0.016 0.816 0.016c 0.32 0 0.6 -0.008 0.824 -0.016c 0.04 0.048 0.04 0.216 0 0.264c -0.44 0.032 -0.512 0.072 -0.512 0.728v 1.264c 0 0.712 -0.12 1.272 -0.824 1.272c -0.408 0 -0.904 -0.152 -1.32 -0.592c -0.024 -0.024 -0.072 -0.064 -0.088 0.008c -0.072 0.328 -0.384 0.584 -0.8 0.584c -0.464 0 -0.88 -0.272 -1.216 -0.648c -0.04 -0.04 -0.088 -0.096 -0.096 0Z "/></symbol><symbol id="g8D1B85E3ABA097AFFEFA8B147B26839C" overflow="visible"><path d="M 0 0m 1.24 0.632l 0.44 1.16c 0.04 0.104 0.088 0.136 0.28 0.136h 1.688l 0.464 -1.352c 0.096 -0.272 -0.208 -0.304 -0.592 -0.328c -0.048 -0.048 -0.048 -0.216 0 -0.264c 0.296 0.008 0.736 0.016 1.048 0.016c 0.328 0 0.632 -0.008 0.912 -0.016c 0.048 0.048 0.048 0.216 0 0.264c -0.312 0.032 -0.584 0.056 -0.72 0.44l -1.648 4.576c -0.12 -0.072 -0.336 -0.16 -0.44 -0.16l -1.816 -4.288c -0.208 -0.496 -0.448 -0.544 -0.8 -0.568c -0.048 -0.048 -0.048 -0.216 0 -0.264c 0.208 0.008 0.472 0.016 0.712 0.016c 0.328 0 0.728 -0.008 1.024 -0.016c 0.048 0.048 0.048 0.216 0 0.264c -0.304 0.024 -0.68 0.056 -0.552 0.384Z m 0.864 1.632c -0.176 0 -0.232 0.024 -0.2 0.104l 0.816 2.072h 0.048l 0.752 -2.176Z "/></symbol><symbol id="gB2C2A6E3883310E6A7667C09A3228786" overflow="visible"><path d="M 0 0m 1.184 5.16c -0.288 0 -0.72 0.008 -1.032 0.016c -0.048 -0.048 -0.048 -0.216 0 -0.264c 0.56 -0.024 0.696 -0.064 0.696 -0.728v -3.208c 0 -0.664 -0.136 -0.704 -0.696 -0.728c -0.048 -0.048 -0.048 -0.216 0 -0.264c 0.312 0.008 0.744 0.016 1.04 0.016c 0.288 0 0.496 -0.016 1.168 -0.016c 1.592 0 2.016 0.8 2.016 1.488c 0 0.768 -0.536 1.208 -1.232 1.408v 0.016c 0.4 0.2 0.76 0.616 0.76 1.048c 0 0.536 -0.232 1.232 -1.72 1.232c -0.28 0 -0.712 -0.016 -1 -0.016Z m 0.344 -2.504h 0.552c 1.096 0 1.552 -0.616 1.552 -1.336c 0 -0.584 -0.224 -1.072 -1.44 -1.072c -0.56 0 -0.664 0.208 -0.664 0.696Z m 0 1.744c 0 0.424 0 0.504 0.696 0.504c 0.448 0 1.032 -0.24 1.032 -1.056c 0 -0.68 -0.472 -0.92 -1.136 -0.92h -0.592Z "/></symbol><symbol id="g8C602F113ED136B9EC97C2B861CC969C" overflow="visible"><path d="M 0 0m 2.856 -0.08c 0.776 0 1.488 0.368 2.032 1.08c -0.04 0.072 -0.096 0.12 -0.184 0.12c -0.568 -0.624 -1.112 -0.872 -1.856 -0.872c -1.08 0 -1.824 1.216 -1.824 2.384c 0 0.688 0.184 1.264 0.472 1.624c 0.4 0.488 0.864 0.712 1.28 0.712c 1.104 0 1.544 -0.656 1.752 -1.344c 0.096 -0.032 0.176 -0.008 0.264 0.04c -0.04 0.416 -0.096 0.8 -0.176 1.24c -0.408 0.04 -0.768 0.36 -1.752 0.36c -0.68 0 -1.248 -0.248 -1.72 -0.68c -0.528 -0.488 -0.848 -1.272 -0.848 -2.104c 0 -1.392 0.84 -2.56 2.56 -2.56Z "/></symbol><symbol id="gFE6E2B5509146F875FD8B916E3486C01" overflow="visible"><path d="M 0 0m 1.184 5.16c -0.288 0 -0.712 0.008 -1.032 0.016c -0.048 -0.048 -0.048 -0.216 0 -0.264c 0.56 -0.024 0.696 -0.064 0.696 -0.728v -3.208c 0 -0.664 -0.136 -0.704 -0.696 -0.728c -0.048 -0.048 -0.048 -0.216 0 -0.264c 0.312 0.008 0.736 0.016 1.04 0.016c 0.296 0 0.632 -0.016 1.456 -0.016c 1.128 0 2.616 0.512 2.616 2.48c 0 1.488 -1.224 2.712 -2.76 2.712c -0.568 0 -1.008 -0.016 -1.32 -0.016Z m 0.344 -4.488v 3.84c 0 0.28 0.28 0.392 0.672 0.392c 1.728 0 2.296 -1.4 2.296 -2.632c 0 -1.616 -0.968 -2.016 -2.096 -2.016c -0.784 0 -0.872 0.16 -0.872 0.416Z "/></symbol></defs><defs><clipPath id="c5D6044EB64A18F07BDE87163C445DD66"><path d="M 0 0h 277.768755906v 149.963559055h -277.768755906Z "/></clipPath></defs></svg>