<svg viewBox="0 0 351.157480315 209.42519685" width="351.157480315pt" height="209.42519685pt" xmlns="http://www.w3.org/2000/svg" xmlns:xlink="http://www.w3.org/1999/xlink" xmlns:h5="http://www.w3.org/1999/xhtml"><path fill="#fafafa" fill-rule="nonzero" d="M 0 0v 209.42519685h 351.157480315v -209.42519685Z "/><g transform="translate(5.5 5.5)"><path fill="#fafafa" fill-rule="nonzero" d="M 0 0v 198.42519685h 340.157480315v -198.42519685Z "/><g transform="translate(5 5)"><g><g transform="matrix(1 0 0 -1 0 7.74)"><use xlink:href="#gE93A2019BA0D939175E5768E582AF8BF" x="0" y="0" fill="#111827" fill-rule="nonzero"/><use xlink:href="#g5C8521CD324BD598695A36491E4CE69D" x="12.336" y="0" fill="#111827" fill-rule="nonzero"/><use xlink:href="#g1094D23D321B642DA133CC49B1BA1EB9" x="19.764" y="0" fill="#111827" fill-rule="nonzero"/><use xlink:href="#gEF03CC905B39DF2CE13E9EED9CECE9CC" x="23.628" y="0" fill="#111827" fill-rule="nonzero"/><use xlink:href="#g5C8521CD324BD598695A36491E4CE69D" x="29.1" y="0" fill="#111827" fill-rule="nonzero"/><use xlink:href="#gA421F3DD5F2809E5ED8290B7EF6AAC43" x="39.528" y="0" fill="#111827" fill-rule="nonzero"/><use xlink:href="#gE18113BE1243CA6EC5596891CC422939" x="45.576" y="0" fill="#111827" fill-rule="nonzero"/><use xlink:href="#g56D9AC69DF1E60AEC4FA898FA388366B" x="51.444" y="0" fill="#111827" fill-rule="nonzero"/><use xlink:href="#g1094D23D321B642DA133CC49B1BA1EB9" x="56.58" y="0" fill="#111827" fill-rule="nonzero"/><use xlink:href="#gE18113BE1243CA6EC5596891CC422939" x="60.444" y="0" fill="#111827" fill-rule="nonzero"/><use xlink:href="#g93ED4154508DB3ADD21415419B103611" x="66.312" y="0" fill="#111827" fill-rule="nonzero"/><use xlink:href="#g1124DC8CD4892BDFF9084EBC0B7A41F1" x="74.436" y="0" fill="#111827" fill-rule="nonzero"/><use xlink:href="#g93ED4154508DB3ADD21415419B103611" x="78.84" y="0" fill="#111827" fill-rule="nonzero"/><use xlink:href="#g482B6484D8169192ED302BC1FABC0EB8" x="86.964" y="0" fill="#111827" fill-rule="nonzero"/><use xlink:href="#g3C2E9715FB9D690A986B8F0D57F3007C" x="93.576" y="0" fill="#111827" fill-rule="nonzero"/><use xlink:href="#gE42B9079FD0460A9D9640B30B0684BC4" x="103.968" y="0" fill="#111827" fill-rule="nonzero"/><use xlink:href="#g482B6484D8169192ED302BC1FABC0EB8" x="111.036" y="0" fill="#111827" fill-rule="nonzero"/><use xlink:href="#g60E64311C0ACD550FD96BE9E58C78EBF" x="117.648" y="0" fill="#111827" fill-rule="nonzero"/></g></g><g transform="translate(0 14.94)"><path fill="none" stroke="#b4b6bb" stroke-width="0.2" stroke-linecap="butt" stroke-linejoin="miter" stroke-miterlimit="4" transform="translate(54.58756001)" d="M 0 0m 0 149.963559055v -149.963559055"/><path fill="none" stroke="#b4b6bb" stroke-width="0.2" stroke-linecap="butt" stroke-linejoin="miter" stroke-miterlimit="4" transform="translate(92.471616321)" d="M 0 0m 0 149.963559055v -149.963559055"/><path fill="none" stroke="#b4b6bb" stroke-width="0.2" stroke-linecap="butt" stroke-linejoin="miter" stroke-miterlimit="4" transform="translate(130.355672632)" d="M 0 0m 0 149.963559055v -149.963559055"/><path fill="none" stroke="#b4b6bb" stroke-width="0.2" stroke-linecap="butt" stroke-linejoin="miter" stroke-miterlimit="4" transform="translate(168.239728943)" d="M 0 0m 0 149.963559055v -149.963559055"/><path fill="none" stroke="#b4b6bb" stroke-width="0.2" stroke-linecap="butt" stroke-linejoin="miter" stroke-miterlimit="4" transform="translate(206.123785254)" d="M 0 0m 0 149.963559055v -149.963559055"/><path fill="none" stroke="#b4b6bb" stroke-width="0.2" stroke-linecap="butt" stroke-linejoin="miter" stroke-miterlimit="4" transform="translate(244.007841565)" d="M 0 0m 0 149.963559055v -149.963559055"/><path fill="none" stroke="#b4b6bb" stroke-width="0.4" stroke-linecap="butt" stroke-linejoin="miter" stroke-miterlimit="4" transform="translate(35.645531854)" d="M 0 0m 0 149.963559055v -149.963559055"/><path fill="none" transform="translate(33.785531854 152.798204724)" d="M 0 0h 3.72v 5.344h -3.72v -5.344Z "/><g transform="translate(33.785531759 152.798204646)"><g transform="matrix(1 0 0 -1 0 5.264)"><use xlink:href="#g97663EC9AEA74EADA07472643E1BE1B4" x="0" y="0" fill="#111827" fill-rule="nonzero"/></g></g><path fill="none" stroke="#b4b6bb" stroke-width="0.4" stroke-linecap="butt" stroke-linejoin="miter" stroke-miterlimit="4" transform="translate(73.529588165)" d="M 0 0m 0 149.963559055v -149.963559055"/><path fill="none" transform="translate(71.669588165 152.798204724)" d="M 0 0h 3.72v 5.28h -3.72v -5.28Z "/><g transform="translate(71.669588071 152.798204677)"><g transform="matrix(1 0 0 -1 0 5.264)"><use xlink:href="#gAD9C87F854BDA42EDABFFB35EC1FA84E" x="0" y="0" fill="#111827" fill-rule="nonzero"/></g></g><path fill="none" stroke="#b4b6bb" stroke-width="0.4" stroke-linecap="butt" stroke-linejoin="miter" stroke-miterlimit="4" transform="translate(111.413644476)" d="M 0 0m 0 149.963559055v -149.963559055"/><path fill="none" transform="translate(109.553644476 152.798204724)" d="M 0 0h 3.72v 5.28h -3.72v -5.28Z "/><g transform="translate(109.553644382 152.798204677)"><g transform="matrix(1 0 0 -1 0 5.264)"><use xlink:href="#gF821431C61A4D7F3ECEFEC074E9C0EFC" x="0" y="0" fill="#111827" fill-rule="nonzero"/></g></g><path fill="none" stroke="#b4b6bb" stroke-width="0.4" stroke-linecap="butt" stroke-linejoin="miter" stroke-miterlimit="4" transform="translate(149.297700787)" d="M 0 0m 0 149.963559055v -149.963559055"/><path fill="none" transform="translate(147.437700787 152.798204724)" d="M 0 0h 3.72v 5.352h -3.72v -5.352Z "/><g transform="translate(147.437700693 152.798204677)"><g transform="matrix(1 0 0 -1 0 5.264)"><use xlink:href="#gAFC6ADE0F4BA5C584B85DD0E8532505B" x="0" y="0" fill="#111827" fill-rule="nonzero"/></g></g><path fill="none" stroke="#b4b6bb" stroke-width="0.4" stroke-linecap="butt" stroke-linejoin="miter" stroke-miterlimit="4" transform="translate(187.181757099)" d="M 0 0m 0 149.963559055v -149.963559055"/><path fill="none" transform="translate(185.321757099 152.798204724)" d="M 0 0h 3.72v 5.344h -3.72v -5.344Z "/><g transform="translate(185.321757004 152.798204646)"><g transform="matrix(1 0 0 -1 0 5.264)"><use xlink:href="#g7A967AE9E3CD4C643CC5E64A109A19AA" x="0" y="0" fill="#111827" fill-rule="nonzero"/></g></g><path fill="none" stroke="#b4b6bb" stroke-width="0.4" stroke-linecap="butt" stroke-linejoin="miter" stroke-miterlimit="4" transform="translate(225.06581341)" d="M 0 0m 0 149.963559055v -149.963559055"/><path fill="none" transform="translate(221.34581341 152.798204724)" d="M 0 0h 7.44v 5.344h -7.44v -5.344Z "/><g transform="translate(221.345813362 152.798204646)"><g transform="matrix(1 0 0 -1 0 5.264)"><use xlink:href="#g8C50DFC0B8272CD73341C65811BD0E92" x="0" y="0" fill="#111827" fill-rule="nonzero"/><use xlink:href="#g97663EC9AEA74EADA07472643E1BE1B4" x="3.72" y="0" fill="#111827" fill-rule="nonzero"/></g></g><path fill="none" stroke="#b4b6bb" stroke-width="0.4" stroke-linecap="butt" stroke-linejoin="miter" stroke-miterlimit="4" transform="translate(262.949869721)" d="M 0 0m 0 149.963559055v -149.963559055"/><path fill="none" transform="translate(259.229869721 152.798204724)" d="M 0 0h 7.44v 5.28h -7.44v -5.28Z "/><g transform="translate(259.229869674 152.798204677)"><g transform="matrix(1 0 0 -1 0 5.264)"><use xlink:href="#g8C50DFC0B8272CD73341C65811BD0E92" x="0" y="0" fill="#111827" fill-rule="nonzero"/><use xlink:href="#gAD9C87F854BDA42EDABFFB35EC1FA84E" x="3.72" y="0" fill="#111827" fill-rule="nonzero"/></g></g><path fill="none" stroke="#b4b6bb" stroke-width="0.2" stroke-linecap="butt" stroke-linejoin="miter" stroke-miterlimit="4" transform="translate(24.280314961 126.798250906)" d="M 0 0h 250.034771654"/><path fill="none" stroke="#b4b6bb" stroke-width="0.2" stroke-linecap="butt" stroke-linejoin="miter" stroke-miterlimit="4" transform="translate(24.280314961 92.284409508)" d="M 0 0h 250.034771654"/><path fill="none" stroke="#b4b6bb" stroke-width="0.2" stroke-linecap="butt" stroke-linejoin="miter" stroke-miterlimit="4" transform="translate(24.280314961 57.77056811)" d="M 0 0h 250.034771654"/><path fill="none" stroke="#b4b6bb" stroke-width="0.2" stroke-linecap="butt" stroke-linejoin="miter" stroke-miterlimit="4" transform="translate(24.280314961 23.256726712)" d="M 0 0h 250.034771654"/><path fill="none" stroke="#b4b6bb" stroke-width="0.4" stroke-linecap="butt" stroke-linejoin="miter" stroke-miterlimit="4" transform="translate(24.280314961 144.055171606)" d="M 0 0h 250.034771654"/><path fill="none" transform="translate(17.725669291 141.379171606)" d="M 0 0h 3.72v 5.352h -3.72v -5.352Z "/><g transform="translate(17.725669197 141.379171558)"><g transform="matrix(1 0 0 -1 0 5.264)"><use xlink:href="#gAFC6ADE0F4BA5C584B85DD0E8532505B" x="0" y="0" fill="#111827" fill-rule="nonzero"/></g></g><path fill="none" stroke="#b4b6bb" stroke-width="0.4" stroke-linecap="butt" stroke-linejoin="miter" stroke-miterlimit="4" transform="translate(24.280314961 109.541330207)" d="M 0 0h 250.034771654"/><path fill="none" transform="translate(17.725669291 106.869330207)" d="M 0 0h 3.72v 5.344h -3.72v -5.344Z "/><g transform="translate(17.725669197 106.869330129)"><g transform="matrix(1 0 0 -1 0 5.264)"><use xlink:href="#g7A967AE9E3CD4C643CC5E64A109A19AA" x="0" y="0" fill="#111827" fill-rule="nonzero"/></g></g><path fill="none" stroke="#b4b6bb" stroke-width="0.4" stroke-linecap="butt" stroke-linejoin="miter" stroke-miterlimit="4" transform="translate(24.280314961 75.027488809)" d="M 0 0h 250.034771654"/><path fill="none" transform="translate(14.005669291 72.355488809)" d="M 0 0h 7.44v 5.344h -7.44v -5.344Z "/><g transform="translate(14.005669244 72.35548873)"><g transform="matrix(1 0 0 -1 0 5.264)"><use xlink:href="#g8C50DFC0B8272CD73341C65811BD0E92" x="0" y="0" fill="#111827" fill-rule="nonzero"/><use xlink:href="#g97663EC9AEA74EADA07472643E1BE1B4" x="3.72" y="0" fill="#111827" fill-rule="nonzero"/></g></g><path fill="none" stroke="#b4b6bb" stroke-width="0.4" stroke-linecap="butt" stroke-linejoin="miter" stroke-miterlimit="4" transform="translate(24.280314961 40.513647411)" d="M 0 0h 250.034771654"/><path fill="none" transform="translate(14.005669291 37.873647411)" d="M 0 0h 7.44v 5.28h -7.44v -5.28Z "/><g transform="translate(14.005669244 37.873647364)"><g transform="matrix(1 0 0 -1 0 5.264)"><use xlink:href="#g8C50DFC0B8272CD73341C65811BD0E92" x="0" y="0" fill="#111827" fill-rule="nonzero"/><use xlink:href="#gAD9C87F854BDA42EDABFFB35EC1FA84E" x="3.72" y="0" fill="#111827" fill-rule="nonzero"/></g></g><path fill="none" stroke="#b4b6bb" stroke-width="0.4" stroke-linecap="butt" stroke-linejoin="miter" stroke-miterlimit="4" transform="translate(24.280314961 5.999806013)" d="M 0 0h 250.034771654"/><path fill="none" transform="translate(14.005669291 3.359806013)" d="M 0 0h 7.44v 5.28h -7.44v -5.28Z "/><g transform="translate(14.005669244 3.359805965)"><g transform="matrix(1 0 0 -1 0 5.264)"><use xlink:href="#g8C50DFC0B8272CD73341C65811BD0E92" x="0" y="0" fill="#111827" fill-rule="nonzero"/><use xlink:href="#gF821431C61A4D7F3ECEFEC074E9C0EFC" x="3.72" y="0" fill="#111827" fill-rule="nonzero"/></g></g><path fill="none" transform="translate(24.280314961 0)" d="M 0 0h 250.034771654v 149.963559055h -250.034771654v -149.963559055Z "/><g transform="translate(24.280314835 -1.26e-7)"><g clip-path="url(#c28F269F5A06267706258E7490DE2D3BC)"><g><path fill="#0072b280" fill-rule="nonzero" transform="translate(11.365216893 19.805342572)" d="M 0 0m 0 0l 9.471014078 2.074961231l 9.471014078 6.068951178l 0.987976783 1.002147856l -0.987976783 1.607231805l -9.471014078 20.799413082l -9.471014078 23.669441085v -55.222146237Z "/><path fill="#d55e0080" fill-rule="nonzero" transform="translate(31.295221832 7.004177436)" d="M 0 0m 0 21.947225402l 8.483037295 8.604713986l 9.471014078 12.422820636l 9.471014078 14.305209369l 9.471014078 15.112567273l 9.471014078 14.784221719l 9.471014078 13.344847747l 9.471014078 10.902613741l 9.471014078 7.641052622l 9.471014078 3.805269418l 6.044685264 -0.20198593l -6.044685264 -9.734099028l -9.471014078 -20.697392209l -9.471014078 -23.633420567l -9.471014078 -23.703788574l -9.471014078 -20.899963788l -9.471014078 -15.56192279l -9.471014078 -8.336927469l -9.471014078 -0.101041557l -9.471014078 8.147096107l -8.483037295 13.800129295Z "/><path fill="#0072b280" fill-rule="nonzero" transform="translate(121.591057013 44.660595575)" d="M 0 0m 0 85.012137842l 3.426328814 -0.114492348l 9.471014078 -4.414442757l 9.471014078 -8.180663607l 9.471014078 -11.332110821l 9.471014078 -13.631954386l 9.471014078 -14.907361966l 9.471014078 -15.062487187l 9.471014078 -14.08567245l 2.580253034 -3.282952319l -2.580253034 5.610539078l -9.471014078 23.595729567l -9.471014078 23.736460607l -9.471014078 20.999037221l -9.471014078 15.715384516l -9.471014078 8.526169552l -9.471014078 0.303117528l -9.471014078 -7.956688883l -3.426328814 -5.517611343Z "/><path fill="#d55e0080" fill-rule="nonzero" transform="translate(193.894737406 6.816525412)" d="M 0 0m 0 37.844070164l 6.890761043 -8.767372676l 9.471014078 -9.10940038l 9.471014078 -5.483907927l 9.471014078 -1.446301961l 9.471014078 2.699993026v -6.517099193l -9.471014078 -8.714808978l -9.471014078 -0.505172073l -9.471014078 7.765719256l -9.471014078 15.094981603l -6.890761043 14.983369304Z "/><path fill="none" stroke="#111827" stroke-width="1" stroke-linecap="butt" stroke-linejoin="miter" stroke-miterlimit="4" stroke-dashoffset="0" stroke-dasharray="" transform="translate(11.365216893 6.816525412)" d="M 0 0m 0 68.210963398l 9.471014078 -23.669441085l 9.471014078 -20.799413082l 9.471014078 -15.4073611l 9.471014078 -8.147096107l 9.471014078 0.101041557l 9.471014078 8.336927469l 9.471014078 15.56192279l 9.471014078 20.899963788l 9.471014078 23.703788574l 9.471014078 23.633420567l 9.471014078 20.697392209l 9.471014078 15.25171037l 9.471014078 7.956688883l 9.471014078 -0.303117528l 9.471014078 -8.526169552l 9.471014078 -15.715384516l 9.471014078 -20.999037221l 9.471014078 -23.736460607l 9.471014078 -23.595729567l 9.471014078 -20.593908382l 9.471014078 -15.094981603l 9.471014078 -7.765719256l 9.471014078 0.505172073l 9.471014078 8.714808978"/><path fill="none" stroke="#111827" stroke-width="1" stroke-linecap="butt" stroke-linejoin="miter" stroke-miterlimit="4" stroke-dashoffset="0" stroke-dasharray="3 3" transform="translate(11.365216893 19.805342572)" d="M 0 0m 0 0l 9.471014078 2.074961231l 9.471014078 6.068951178l 9.471014078 9.606861842l 9.471014078 12.422820636l 9.471014078 14.305209369l 9.471014078 15.112567273l 9.471014078 14.784221719l 9.471014078 13.344847747l 9.471014078 10.902613741l 9.471014078 7.641052622l 9.471014078 3.805269418l 9.471014078 -0.316478278l 9.471014078 -4.414442757l 9.471014078 -8.180663607l 9.471014078 -11.332110821l 9.471014078 -13.631954386l 9.471014078 -14.907361966l 9.471014078 -15.062487187l 9.471014078 -14.08567245l 9.471014078 -12.050324995l 9.471014078 -9.10940038l 9.471014078 -5.483907927l 9.471014078 -1.446301961l 9.471014078 2.699993026"/></g></g></g><path fill="none" transform="translate(139.019700787 166.037874016)" d="M 0 0h 20.556v 6.03h -20.556v -6.03Z "/><g transform="translate(139.019700787 166.037873874)"><g transform="matrix(1 0 0 -1 0 5.922)"><use xlink:href="#gFA9DDCB0200D3B5A2015D6E40F958057" x="0" y="0" fill="#111827" fill-rule="nonzero"/><use xlink:href="#g15283247E004048E8F39F157505A0F31" x="7.839" y="0" fill="#111827" fill-rule="nonzero"/><use xlink:href="#g15283247E004048E8F39F157505A0F31" x="11.925" y="0" fill="#111827" fill-rule="nonzero"/><use xlink:href="#g3F4E81852703ED4D13C26AD861BB81DD" x="15.948" y="0" fill="#111827" fill-rule="nonzero"/></g></g><path fill="none" transform="translate(1.483334646 64.672279528)" d="M 0 0m 0 20.619l 0 -20.619h 6.039v 20.619h -6.039Z "/><g transform="matrix(0 -1 1 0 1.483334504 85.291279528)"><g transform="matrix(1 0 0 -1 0 5.922)"><use xlink:href="#gA25977750DF0B39512646F59A0F0B8CA" x="0" y="0" fill="#111827" fill-rule="nonzero"/><use xlink:href="#gCD526F970F75B32D8B517499D55C4978" x="5.328" y="0" fill="#111827" fill-rule="nonzero"/><use xlink:href="#g1E3DE6493D0CDAC5230F4F7A69963EA0" x="9.441" y="0" fill="#111827" fill-rule="nonzero"/><use xlink:href="#gB47AF1E8EB8505E9D708624CF420FCE1" x="11.817" y="0" fill="#111827" fill-rule="nonzero"/><use xlink:href="#g15283247E004048E8F39F157505A0F31" x="16.596" y="0" fill="#111827" fill-rule="nonzero"/></g></g><path fill="#0072b2" fill-rule="nonzero" transform="translate(287.115086614 65.176173228)" d="M 0 0v 6.803149606h 6.803149606v -6.803149606h -6.803149606Z "/><path fill="none" transform="translate(298.170204724 65.893748031)" d="M 0 0h 24.072v 5.368h -24.072v -5.368Z "/><g transform="translate(298.170204677 65.893747906)"><g transform="matrix(1 0 0 -1 0 5.264)"><use xlink:href="#g8D1B85E3ABA097AFFEFA8B147B26839C" x="0" y="0" fill="#111827" fill-rule="nonzero"/><use xlink:href="#g9CB01113ED99ABC5A5F75E5016C1499E" x="7.56" y="0" fill="#111827" fill-rule="nonzero"/><use xlink:href="#g20EDBE1E989F56AA9FBFD4A2EF5BDC35" x="9.672" y="0" fill="#111827" fill-rule="nonzero"/><use xlink:href="#g7CADDE05683A2F282E92796EAE7002E6" x="13.248" y="0" fill="#111827" fill-rule="nonzero"/><use xlink:href="#g13CDF673763F5DB9C25A9A976EDAD0A7" x="16.904" y="0" fill="#111827" fill-rule="nonzero"/><use xlink:href="#g86ABD9B98157573BF6882A43FA434742" x="20.952" y="0" fill="#111827" fill-rule="nonzero"/></g></g><path fill="#d55e00" fill-rule="nonzero" transform="translate(287.115086614 76.383228346)" d="M 0 0v 6.803149606h 6.803149606v -6.803149606h -6.803149606Z "/><path fill="none" transform="translate(298.170204724 77.10080315)" d="M 0 0h 23.216v 5.368h -23.216v -5.368Z "/><g transform="translate(298.170204709 77.100803024)"><g transform="matrix(1 0 0 -1 0 5.264)"><use xlink:href="#gB2C2A6E3883310E6A7667C09A3228786" x="0" y="0" fill="#111827" fill-rule="nonzero"/><use xlink:href="#g9CB01113ED99ABC5A5F75E5016C1499E" x="6.704" y="0" fill="#111827" fill-rule="nonzero"/><use xlink:href="#g20EDBE1E989F56AA9FBFD4A2EF5BDC35" x="8.816" y="0" fill="#111827" fill-rule="nonzero"/><use xlink:href="#g7CADDE05683A2F282E92796EAE7002E6" x="12.392" y="0" fill="#111827" fill-rule="nonzero"/><use xlink:href="#g13CDF673763F5DB9C25A9A976EDAD0A7" x="16.048" y="0" fill="#111827" fill-rule="nonzero"/><use xlink:href="#g86ABD9B98157573BF6882A43FA434742" x="20.096" y="0" fill="#111827" fill-rule="nonzero"/></g></g></g></g></g><defs><symbol id="gE93A2019BA0D939175E5768E582AF8BF" overflow="visible"><path d="M 0 0m 6.9 7.356c -0.228 -0.048 -0.564 -0.048 -0.72 0l -1.716 -4.836l -0.084 -0.312l -0.12 0.384l -1.308 4.284c -0.12 0.396 0.312 0.444 0.888 0.48c 0.072 0.072 0.072 0.336 0 0.408c -0.444 -0.012 -1.644 -0.024 -2.112 -0.024c -0.492 0 -1.164 0.012 -1.608 0.024c -0.072 -0.072 -0.072 -0.336 0 -0.408c 0.468 -0.048 0.9 -0.132 1.08 -0.648l 2.256 -6.576c 0.084 -0.252 0.264 -0.276 0.396 -0.276c 0.12 0 0.312 0.024 0.408 0.276l 1.8 4.788l 1.836 -4.788c 0.084 -0.228 0.216 -0.276 0.396 -0.276c 0.156 0 0.324 0.06 0.408 0.276l 2.256 6.144c 0.252 0.708 0.732 1.044 1.26 1.08c 0.072 0.072 0.072 0.336 0 0.408c -0.396 -0.012 -0.804 -0.024 -1.224 -0.024c -0.492 0 -1.056 0.012 -1.5 0.024c -0.072 -0.072 -0.072 -0.336 0 -0.408c 0.684 -0.108 0.912 -0.36 0.768 -0.804l -1.356 -4.032l -0.144 -0.432l -0.18 0.504Z "/></symbol><symbol id="g5C8521CD324BD598695A36491E4CE69D" overflow="visible"><path d="M 0 0m 6.336 1.536v 1.872c 0 1.32 -0.564 1.92 -1.596 1.92c -0.444 0 -1.296 -0.444 -1.98 -0.864v 2.532c 0 0.78 0.036 1.224 0.036 1.224c 0 0.108 -0.084 0.156 -0.192 0.156c -0.444 -0.144 -1.404 -0.276 -2.256 -0.312c -0.036 -0.144 -0.024 -0.276 0.036 -0.384c 0.756 -0.06 0.816 -0.072 0.816 -0.9v -5.256c 0 -0.996 -0.192 -1.104 -0.924 -1.14c -0.072 -0.072 -0.072 -0.336 0 -0.408c 0.504 0.012 1.044 0.024 1.704 0.024c 0.576 0 0.948 -0.012 1.464 -0.024c 0.072 0.072 0.072 0.336 0 0.408c -0.504 0.036 -0.684 0.144 -0.684 1.14v 2.46c 0.504 0.312 0.9 0.456 1.116 0.456c 0.48 0 0.9 -0.216 0.9 -0.9v -2.004c 0 -1.008 -0.192 -1.116 -0.684 -1.152c -0.072 -0.072 -0.072 -0.336 0 -0.408c 0.504 0.012 0.888 0.024 1.464 0.024c 0.66 0 1.188 -0.012 1.704 -0.024c 0.072 0.072 0.072 0.336 0 0.408c -0.732 0.036 -0.924 0.144 -0.924 1.152Z "/></symbol><symbol id="g1094D23D321B642DA133CC49B1BA1EB9" overflow="visible"><path d="M 0 0m 2.784 1.464v 2.388c 0 0.6 0.048 1.272 0.048 1.272c 0 0.132 -0.108 0.204 -0.276 0.204c -0.336 -0.132 -1.308 -0.228 -2.136 -0.336c -0.024 -0.072 0 -0.312 0.024 -0.384c 0.66 -0.06 0.78 -0.156 0.78 -0.84v -2.304c 0 -0.996 -0.132 -1.02 -0.864 -1.08c -0.072 -0.072 -0.072 -0.336 0 -0.408c 0.504 0.012 1.008 0.024 1.644 0.024c 0.636 0 1.128 -0.012 1.644 -0.024c 0.072 0.072 0.072 0.336 0 0.408c -0.732 0.048 -0.864 0.084 -0.864 1.08Z m -1.62 5.688c 0 -0.396 0.288 -0.792 0.768 -0.792c 0.54 0 0.852 0.432 0.852 0.744c 0 0.36 -0.276 0.792 -0.78 0.792c -0.564 0 -0.84 -0.384 -0.84 -0.744Z "/></symbol><symbol id="gEF03CC905B39DF2CE13E9EED9CECE9CC" overflow="visible"><path d="M 0 0m 5.064 1.044c 0 0.144 -0.024 0.372 -0.156 0.372c -0.48 -0.444 -0.888 -0.672 -1.236 -0.672c -0.9 0 -1.608 0.648 -1.608 2.088c 0 1.332 0.3 1.992 0.936 1.992c 0.444 0 0.624 -0.468 0.66 -0.852c 0.036 -0.324 0.36 -0.564 0.744 -0.564c 0.384 0 0.66 0.3 0.66 0.672c 0 0.54 -0.648 1.248 -1.956 1.248c -1.416 0 -2.664 -1.14 -2.664 -2.916c 0 -0.78 0.276 -1.464 0.744 -1.908c 0.468 -0.444 1.02 -0.624 1.872 -0.624c 0.72 0 1.548 0.504 2.004 1.164Z "/></symbol><symbol id="gA421F3DD5F2809E5ED8290B7EF6AAC43" overflow="visible"><path d="M 0 0m 5.052 7.572c -0.66 0.096 -0.912 0.324 -2.028 0.324c -0.54 0 -1.248 -0.168 -1.752 -0.576c -0.444 -0.36 -0.78 -0.912 -0.78 -1.5c 0 -0.456 0.12 -1.032 0.396 -1.392c 0.552 -0.744 1.548 -1.152 2.064 -1.512c 0.552 -0.384 1.092 -0.864 1.092 -1.536c 0 -0.588 -0.516 -0.996 -1.248 -0.996c -0.804 0 -1.632 0.66 -1.872 1.752c -0.192 0.072 -0.384 0.024 -0.564 -0.024c -0.012 0 -0.024 -0.012 -0.036 -0.012c 0 -0.9 0.096 -1.536 0.228 -1.98c 0.684 0 0.72 -0.24 2.376 -0.24c 0.732 0 1.32 0.216 1.812 0.66c 0.432 0.372 0.816 0.924 0.816 1.668c 0 0.624 -0.264 1.044 -0.624 1.44c -0.468 0.516 -1.14 0.888 -1.608 1.128c -0.48 0.24 -1.332 0.864 -1.332 1.548c 0 0.672 0.408 1.08 1.02 1.08c 1.02 0 1.356 -0.924 1.572 -1.716c 0.168 -0.048 0.468 -0.048 0.6 0.06c 0 0.636 -0.048 1.128 -0.132 1.824Z "/></symbol><symbol id="gE18113BE1243CA6EC5596891CC422939" overflow="visible"><path d="M 0 0m 5.172 1.548c -0.492 -0.504 -1.14 -0.636 -1.596 -0.636c -0.936 0 -1.512 0.54 -1.512 1.716c 0 0.084 0.012 0.132 0.012 0.192h 2.88c 0.288 0 0.348 0.204 0.348 0.372c 0 1.02 -0.396 2.136 -2.16 2.136c -1.26 0 -2.7 -1.116 -2.7 -2.952c 0 -0.696 0.252 -1.428 0.768 -1.896c 0.456 -0.408 1.044 -0.6 1.896 -0.6c 0.828 0 1.644 0.42 2.244 1.296c 0 0.156 -0.06 0.372 -0.18 0.372Z m -3.048 1.752c 0.012 0.42 0.072 0.876 0.24 1.116c 0.192 0.288 0.516 0.408 0.648 0.408c 0.324 0 0.768 -0.312 0.768 -1.272c 0 -0.072 0 -0.228 -0.024 -0.252Z "/></symbol><symbol id="g56D9AC69DF1E60AEC4FA898FA388366B" overflow="visible"><path d="M 0 0m 2.736 3.216c 0 0.432 0.132 0.612 0.288 0.792c 0.096 0.12 0.204 0.204 0.384 0.204c 0.108 0 0.24 -0.108 0.336 -0.228c 0.084 -0.096 0.288 -0.192 0.564 -0.192c 0.348 0 0.684 0.36 0.684 0.864c 0 0.312 -0.36 0.672 -0.792 0.672c -0.42 0 -0.876 -0.36 -1.428 -1.152h -0.048c -0.024 0.36 -0.084 0.948 -0.084 0.948c -0.012 0.108 -0.108 0.204 -0.276 0.204c -0.564 -0.144 -1.2 -0.312 -1.992 -0.396c -0.024 -0.072 0 -0.3 0.024 -0.372c 0.66 -0.06 0.78 -0.168 0.78 -0.852v -2.244c 0 -0.996 -0.132 -1.02 -0.864 -1.08c -0.072 -0.072 -0.072 -0.336 0 -0.408c 0.504 0.012 1.008 0.024 1.644 0.024c 0.636 0 1.128 -0.012 1.644 -0.024c 0.072 0.072 0.072 0.336 0 0.408c -0.732 0.048 -0.864 0.084 -0.864 1.08Z "/></symbol><symbol id="g93ED4154508DB3ADD21415419B103611" overflow="visible"><path d="M 0 0m 0.576 1.752c 0.048 -0.588 0.108 -1.152 0.204 -1.608c 0.228 -0.072 0.996 -0.264 1.668 -0.264c 0.924 0 2.076 0.504 2.076 1.548c 0 0.408 -0.096 0.732 -0.372 1.032c -0.336 0.384 -0.84 0.684 -1.392 0.924c -0.48 0.204 -0.648 0.588 -0.648 0.936c 0 0.276 0.228 0.504 0.576 0.504c 0.42 0 0.828 -0.384 1.128 -1.116c 0.216 -0.036 0.348 -0.024 0.468 0.06c 0 0.432 -0.048 0.888 -0.156 1.272c -0.384 0.168 -0.684 0.288 -1.344 0.288c -0.636 0 -1.236 -0.24 -1.62 -0.624c -0.276 -0.276 -0.408 -0.612 -0.408 -0.936c 0 -0.36 0.144 -0.648 0.372 -0.9c 0.372 -0.408 1.032 -0.828 1.392 -0.996c 0.48 -0.216 0.612 -0.648 0.612 -0.936c 0 -0.384 -0.384 -0.588 -0.708 -0.588c -0.54 0 -1.116 0.552 -1.368 1.428c -0.192 0.036 -0.288 0.024 -0.48 -0.024Z "/></symbol><symbol id="g1124DC8CD4892BDFF9084EBC0B7A41F1" overflow="visible"><path d="M 0 0m 1.368 6.276v -4.812c 0 -0.996 -0.336 -1.044 -0.996 -1.08c -0.12 -0.072 -0.12 -0.336 0 -0.408c 0.48 0.012 1.368 0.024 1.848 0.024c 0.48 0 1.344 -0.012 1.824 -0.024c 0.12 0.072 0.12 0.336 0 0.408c -0.66 0.036 -0.996 0.084 -0.996 1.08v 4.812c 0 0.996 0.336 1.044 0.996 1.08c 0.12 0.072 0.12 0.336 0 0.408c -0.48 -0.012 -1.344 -0.024 -1.824 -0.024c -0.48 0 -1.368 0.012 -1.848 0.024c -0.12 -0.072 -0.12 -0.336 0 -0.408c 0.66 -0.036 0.996 -0.084 0.996 -1.08Z "/></symbol><symbol id="g482B6484D8169192ED302BC1FABC0EB8" overflow="visible"><path d="M 0 0m 0.444 2.484c 0 -1.572 1.248 -2.604 2.856 -2.604c 0.852 0 1.56 0.24 2.052 0.684c 0.612 0.54 0.816 1.356 0.816 2.028c 0 1.572 -1.068 2.736 -2.856 2.736c -0.996 0 -1.74 -0.348 -2.208 -0.888c -0.456 -0.528 -0.66 -1.248 -0.66 -1.956Z m 2.676 2.34c 0.816 0 1.368 -0.972 1.368 -2.616c 0 -1.44 -0.564 -1.824 -0.996 -1.824c -0.984 0 -1.368 1.476 -1.368 2.364c 0 1.104 0.192 2.076 0.996 2.076Z "/></symbol><symbol id="g3C2E9715FB9D690A986B8F0D57F3007C" overflow="visible"><path d="M 0 0m 2.736 1.464v 2.412c 0.48 0.324 0.96 0.564 1.176 0.564c 0.48 0 0.84 -0.216 0.84 -0.9v -2.004c 0 -1.008 -0.192 -1.116 -0.684 -1.152c -0.072 -0.072 -0.072 -0.336 0 -0.408c 0.504 0.012 0.888 0.024 1.464 0.024c 0.66 0 1.188 -0.012 1.704 -0.024c 0.072 0.072 0.072 0.336 0 0.408c -0.732 0.036 -0.924 0.144 -0.924 1.152v 1.872c 0 1.32 -0.564 1.92 -1.596 1.92c -0.48 0 -1.332 -0.528 -1.992 -0.984c -0.036 0.42 -0.084 0.78 -0.084 0.78c -0.012 0.144 -0.108 0.204 -0.276 0.204c -0.444 -0.12 -1.164 -0.288 -1.992 -0.396c -0.024 -0.072 0 -0.312 0.024 -0.384c 0.66 -0.06 0.78 -0.156 0.78 -0.84v -2.244c 0 -0.996 -0.132 -1.02 -0.864 -1.08c -0.072 -0.072 -0.072 -0.336 0 -0.408c 0.504 0.012 1.008 0.024 1.644 0.024c 0.552 0 0.888 -0.012 1.404 -0.024c 0.072 0.072 0.072 0.336 0 0.408c -0.504 0.048 -0.624 0.084 -0.624 1.08Z "/></symbol><symbol id="gE42B9079FD0460A9D9640B30B0684BC4" overflow="visible"><path d="M 0 0m 4.86 1.476v 4.56c 0 0.768 0.12 1.212 0.552 1.212h 0.264c 0.9 0 1.404 -0.3 1.608 -1.224c 0.132 0 0.36 0.012 0.468 0.06c -0.084 0.552 -0.144 1.176 -0.156 1.716c 0 0.012 -0.024 0.036 -0.036 0.036c -0.408 -0.036 -1.74 -0.096 -2.688 -0.096h -1.692c -0.924 0 -2.34 0.06 -2.796 0.096c -0.024 0 -0.048 -0.024 -0.048 -0.036c -0.048 -0.54 -0.168 -1.176 -0.3 -1.752c 0.12 -0.048 0.324 -0.06 0.468 -0.06c 0.24 0.96 0.732 1.26 1.524 1.26h 0.588c 0.444 0 0.564 -0.444 0.564 -1.176v -4.596c 0 -0.996 -0.204 -1.056 -1.164 -1.092c -0.072 -0.072 -0.072 -0.336 0 -0.408c 0.588 0.012 1.212 0.024 1.98 0.024c 0.792 0 1.428 -0.012 2.028 -0.024c 0.072 0.072 0.072 0.336 0 0.408c -0.96 0.036 -1.164 0.096 -1.164 1.092Z "/></symbol><symbol id="g60E64311C0ACD550FD96BE9E58C78EBF" overflow="visible"><path d="M 0 0m 1.14 3.708v -5.028c 0 -0.996 -0.132 -1.02 -0.864 -1.08c -0.072 -0.072 -0.072 -0.336 0 -0.408c 0.504 0.012 1.008 0.024 1.644 0.024c 0.636 0 1.128 -0.012 1.644 -0.024c 0.072 0.072 0.072 0.336 0 0.408c -0.732 0.048 -0.864 0.084 -0.864 1.08v 1.404c 0.264 -0.132 0.516 -0.204 0.804 -0.204c 1.824 0 3.012 1.2 3.012 2.964c 0 0.672 -0.252 1.416 -0.72 1.884c -0.42 0.42 -1.02 0.6 -1.644 0.6c -0.348 0 -0.996 -0.42 -1.416 -0.804h -0.072c -0.024 0.336 -0.06 0.6 -0.06 0.6c -0.012 0.144 -0.108 0.204 -0.276 0.204c -0.444 -0.12 -1.164 -0.288 -1.992 -0.396c -0.024 -0.072 0 -0.312 0.024 -0.384c 0.66 -0.06 0.78 -0.156 0.78 -0.84Z m 1.56 -2.928v 3.072c 0 0.072 0 0.132 0 0.204c 0.348 0.312 0.792 0.468 1.068 0.468c 0.492 0 1.068 -0.6 1.068 -2.004c 0 -1.008 -0.36 -2.136 -1.404 -2.136c -0.132 0 -0.432 0.072 -0.732 0.396Z "/></symbol><symbol id="g97663EC9AEA74EADA07472643E1BE1B4" overflow="visible"><path d="M 0 0m 1.824 -0.08c 0.616 0 1.552 0.624 1.552 2.504c 0 0.792 -0.192 1.472 -0.544 1.936c -0.208 0.28 -0.544 0.52 -0.976 0.52c -0.792 0 -1.544 -0.944 -1.544 -2.528c 0 -0.856 0.264 -1.656 0.704 -2.096c 0.224 -0.224 0.496 -0.336 0.808 -0.336Z m 0.032 4.68c 0.136 0 0.264 -0.048 0.36 -0.136c 0.248 -0.208 0.464 -0.816 0.464 -1.888c 0 -0.736 -0.024 -1.24 -0.136 -1.648c -0.176 -0.656 -0.568 -0.728 -0.712 -0.728c -0.744 0 -0.824 1.368 -0.824 2.064c 0 1.968 0.488 2.336 0.848 2.336Z "/></symbol><symbol id="gAD9C87F854BDA42EDABFFB35EC1FA84E" overflow="visible"><path d="M 0 0m 0.488 3.744c 0 -0.168 0.152 -0.312 0.32 -0.312c 0.136 0 0.376 0.144 0.376 0.32c 0 0.064 -0.016 0.112 -0.032 0.168c -0.016 0.056 -0.064 0.128 -0.064 0.192c 0 0.2 0.208 0.488 0.792 0.488c 0.288 0 0.696 -0.2 0.696 -0.968c 0 -0.512 -0.184 -0.928 -0.656 -1.408l -0.592 -0.584c -0.784 -0.8 -0.912 -1.184 -0.912 -1.656c 0 0 0.408 0.016 0.664 0.016h 1.4c 0.256 0 0.624 -0.016 0.624 -0.016c 0.104 0.424 0.184 1.024 0.192 1.264c -0.048 0.04 -0.152 0.056 -0.232 0.04c -0.136 -0.568 -0.272 -0.768 -0.56 -0.768h -1.424c 0 0.384 0.552 0.928 0.592 0.968l 0.808 0.776c 0.456 0.44 0.8 0.792 0.8 1.4c 0 0.864 -0.704 1.216 -1.352 1.216c -0.888 0 -1.44 -0.656 -1.44 -1.136Z "/></symbol><symbol id="gF821431C61A4D7F3ECEFEC074E9C0EFC" overflow="visible"><path d="M 0 0m 3.44 1.752h -0.664v 2.336c 0 0.4 0 0.712 0.016 0.776l -0.016 0.016h -0.256c -0.056 0 -0.096 -0.048 -0.128 -0.088c -0.504 -0.616 -1.432 -1.936 -2.168 -3.08c 0.024 -0.12 0.072 -0.336 0.312 -0.336h 1.632v -0.736c 0 -0.368 -0.304 -0.368 -0.648 -0.392c -0.048 -0.048 -0.048 -0.216 0 -0.264c 0.256 0.008 0.576 0.016 0.944 0.016c 0.312 0 0.616 -0.008 0.872 -0.016c 0.048 0.048 0.048 0.216 0 0.264c -0.392 0.032 -0.56 0.016 -0.56 0.392v 0.736h 0.552c 0.112 0 0.232 0.152 0.232 0.248c 0 0.08 -0.032 0.128 -0.12 0.128Z m -1.272 2.304v -2.304h -1.528c 0.408 0.656 0.976 1.552 1.528 2.304Z "/></symbol><symbol id="gAFC6ADE0F4BA5C584B85DD0E8532505B" overflow="visible"><path d="M 0 0m 1.152 2.744c 0.216 0.728 0.728 1.536 1.792 1.936c 0 0.096 -0.032 0.168 -0.096 0.208c -0.808 -0.24 -1.304 -0.576 -1.752 -1.096c -0.496 -0.576 -0.744 -1.304 -0.744 -1.936c 0 -1.624 0.92 -1.944 1.536 -1.944c 1.048 0 1.48 1.016 1.48 1.704c 0 0.688 -0.368 1.304 -1.456 1.304c -0.208 0 -0.52 -0.064 -0.76 -0.176Z m -0.072 -0.288c 0.264 0.176 0.528 0.184 0.664 0.184c 0.784 0 0.96 -0.768 0.96 -1.168c 0 -0.88 -0.336 -1.28 -0.728 -1.28c -0.504 0 -0.96 0.272 -0.96 1.64c 0 0.184 0.016 0.392 0.064 0.624Z "/></symbol><symbol id="g7A967AE9E3CD4C643CC5E64A109A19AA" overflow="visible"><path d="M 0 0m 3.144 3.88c 0 0.576 -0.448 1 -1.232 1c -0.816 0 -1.344 -0.488 -1.344 -1.104c 0 -0.448 0.216 -0.776 0.704 -1.08l 0.208 -0.128c -0.232 -0.12 -0.448 -0.264 -0.648 -0.44c -0.328 -0.288 -0.464 -0.648 -0.464 -0.96c 0 -0.816 0.576 -1.248 1.424 -1.248c 1.048 0 1.56 0.768 1.56 1.376c 0 0.464 -0.2 0.872 -0.624 1.128l -0.568 0.344c 0.376 0.184 0.984 0.6 0.984 1.112Z m -1.336 -3.68c -0.36 0 -0.904 0.248 -0.904 0.968c 0 0.24 0.104 0.8 0.792 1.256l 0.376 -0.224c 0.496 -0.304 0.696 -0.68 0.696 -1.064c 0 -0.8 -0.6 -0.936 -0.96 -0.936Z m 0.064 4.4c 0.52 0 0.712 -0.344 0.712 -0.712c 0 -0.432 -0.424 -0.792 -0.64 -0.952l -0.248 0.152c -0.504 0.328 -0.56 0.592 -0.56 0.84c 0 0.368 0.256 0.672 0.736 0.672Z "/></symbol><symbol id="g8C50DFC0B8272CD73341C65811BD0E92" overflow="visible"><path d="M 0 0m 2.304 0.976v 2.776c 0 0.48 0.008 0.968 0.024 1.072c 0 0.04 -0.016 0.04 -0.048 0.04c -0.44 -0.272 -0.864 -0.472 -1.568 -0.8c 0.016 -0.088 0.048 -0.168 0.12 -0.216c 0.368 0.152 0.544 0.2 0.696 0.2c 0.136 0 0.16 -0.192 0.16 -0.464v -2.608c 0 -0.664 -0.216 -0.704 -0.776 -0.728c -0.048 -0.048 -0.048 -0.216 0 -0.264c 0.392 0.008 0.68 0.016 1.112 0.016c 0.384 0 0.576 -0.008 0.976 -0.016c 0.048 0.048 0.048 0.216 0 0.264c -0.56 0.024 -0.696 0.064 -0.696 0.728Z "/></symbol><symbol id="gFA9DDCB0200D3B5A2015D6E40F958057" overflow="visible"><path d="M 0 0m 7.29 5.085l -1.404 -3.906l -0.027 0.009l -1.242 3.798c -0.153 0.486 0.162 0.513 0.468 0.54c 0.054 0.054 0.054 0.243 0 0.297c -0.369 -0.009 -0.765 -0.018 -1.125 -0.018c -0.297 0 -0.612 0.009 -0.9 0.018c -0.054 -0.054 -0.054 -0.243 0 -0.297c 0.477 -0.027 0.675 -0.306 0.756 -0.54l 0.207 -0.594c 0.036 -0.108 0.063 -0.198 0.063 -0.279c 0 -0.09 -0.009 -0.162 -0.081 -0.315l -1.161 -2.637l -0.045 0.009l -1.314 3.978c -0.108 0.315 0.135 0.36 0.45 0.378c 0.054 0.054 0.054 0.243 0 0.297c -0.297 -0.009 -0.693 -0.018 -1.044 -0.018c -0.315 0 -0.576 0.009 -0.837 0.018c -0.054 -0.054 -0.054 -0.243 0 -0.297c 0.405 -0.027 0.468 -0.036 0.639 -0.522l 1.692 -4.869c 0.045 -0.144 0.099 -0.243 0.198 -0.243c 0.117 0 0.171 0.09 0.234 0.243l 1.341 3.015c 0.081 0.18 0.108 0.225 0.153 0.225c 0.036 0 0.072 -0.099 0.126 -0.252l 1.035 -2.988c 0.054 -0.153 0.099 -0.243 0.207 -0.243c 0.099 0 0.162 0.099 0.207 0.234l 1.809 4.851c 0.117 0.315 0.279 0.522 0.774 0.549c 0.054 0.054 0.054 0.243 0 0.297c -0.261 -0.009 -0.549 -0.018 -0.783 -0.018c -0.234 0 -0.63 0.009 -0.99 0.018c -0.054 -0.054 -0.054 -0.243 0 -0.297c 0.369 -0.027 0.729 -0.054 0.594 -0.441Z "/></symbol><symbol id="g15283247E004048E8F39F157505A0F31" overflow="visible"><path d="M 0 0m 3.474 0.837c -0.333 -0.342 -0.594 -0.486 -1.116 -0.486c -0.324 0 -0.702 0.189 -0.981 0.648c -0.18 0.297 -0.288 0.711 -0.288 1.233l 2.394 -0.018c 0.108 0 0.171 0.054 0.171 0.153c 0 0.756 -0.27 1.566 -1.521 1.566c -0.783 0 -1.8 -0.747 -1.8 -2.115c 0 -0.504 0.126 -0.99 0.423 -1.332c 0.306 -0.36 0.729 -0.576 1.377 -0.576c 0.684 0 1.17 0.315 1.53 0.783c -0.027 0.09 -0.081 0.135 -0.189 0.144Z m -2.358 1.701c 0.171 1.017 0.801 1.098 1.017 1.098c 0.342 0 0.747 -0.189 0.747 -0.945c 0 -0.081 -0.036 -0.126 -0.135 -0.126Z "/></symbol><symbol id="g3F4E81852703ED4D13C26AD861BB81DD" overflow="visible"><path d="M 0 0m 0.774 1.098c 0 -0.747 -0.099 -0.783 -0.603 -0.819c -0.054 -0.054 -0.054 -0.243 0 -0.297c 0.297 0.009 0.603 0.018 0.963 0.018c 0.315 0 0.612 -0.009 0.819 -0.018c 0.054 0.054 0.054 0.243 0 0.297c -0.369 0.036 -0.468 0.072 -0.468 0.819v 0.783c 0.171 -0.009 0.297 -0.018 0.387 -0.045c 0.099 -0.072 0.18 -0.153 0.288 -0.297l 0.657 -0.882c 0.261 -0.351 0.369 -0.522 0.378 -0.63c 0 -0.027 0.009 -0.045 0.036 -0.045c 0.18 0.009 0.378 0.018 0.558 0.018c 0.279 0 0.558 -0.009 0.738 -0.018c 0.054 0.054 0.054 0.243 0 0.297c -0.306 0.036 -0.531 0.072 -0.774 0.378l -1.188 1.494c -0.036 0.045 -0.063 0.081 -0.063 0.126c 0 0.036 0 0.054 0.036 0.09l 0.792 0.819c 0.27 0.288 0.585 0.36 0.945 0.396c 0.054 0.054 0.054 0.243 0 0.297c -0.207 -0.009 -0.459 -0.018 -0.783 -0.018c -0.342 0 -0.675 0.009 -0.882 0.018c -0.054 -0.054 -0.054 -0.243 0 -0.297c 0.504 -0.036 0.288 -0.351 0.207 -0.459c -0.207 -0.261 -0.486 -0.567 -0.72 -0.738c -0.198 -0.144 -0.441 -0.252 -0.612 -0.279v 3.141c 0 0.585 0.036 0.945 0.036 0.945c 0 0.063 -0.036 0.09 -0.117 0.09c -0.225 -0.09 -0.9 -0.216 -1.26 -0.243c -0.018 -0.072 0 -0.216 0.054 -0.27c 0.027 0 0.054 0 0.081 0c 0.396 -0.027 0.495 -0.027 0.495 -0.738Z "/></symbol><symbol id="gA25977750DF0B39512646F59A0F0B8CA" overflow="visible"><path d="M 0 0m 4.032 5.526c 0.666 -0.045 0.666 -0.288 0.477 -0.774l -1.422 -3.609h -0.036l -1.44 3.663c -0.207 0.54 -0.153 0.657 0.459 0.72c 0.054 0.054 0.054 0.243 0 0.297c -0.36 -0.009 -0.765 -0.018 -1.089 -0.018c -0.324 0 -0.639 0.009 -0.936 0.018c -0.054 -0.054 -0.045 -0.243 0.009 -0.297c 0.495 -0.045 0.567 -0.198 0.81 -0.819l 1.773 -4.608c 0.054 -0.144 0.117 -0.207 0.207 -0.207c 0.099 0 0.162 0.081 0.216 0.207l 1.863 4.59c 0.171 0.423 0.315 0.774 0.882 0.837c 0.054 0.054 0.054 0.243 0 0.297c -0.27 -0.009 -0.585 -0.018 -0.792 -0.018c -0.207 0 -0.612 0.009 -0.981 0.018c -0.054 -0.054 -0.054 -0.243 0 -0.297Z "/></symbol><symbol id="gCD526F970F75B32D8B517499D55C4978" overflow="visible"><path d="M 0 0m 2.637 0.432c 0.054 -0.279 0.153 -0.522 0.603 -0.522c 0.342 0 0.666 0.153 0.855 0.333c -0.018 0.108 -0.054 0.189 -0.153 0.243c -0.063 -0.054 -0.216 -0.144 -0.333 -0.144c -0.261 0 -0.27 0.351 -0.27 0.765v 1.323c 0 1.278 -0.702 1.521 -1.359 1.521c -0.738 0 -1.485 -0.486 -1.485 -0.999c 0 -0.216 0.108 -0.324 0.315 -0.324c 0.261 0 0.423 0.189 0.423 0.306c 0 0.063 -0.009 0.126 -0.027 0.162c -0.009 0.027 -0.018 0.081 -0.018 0.18c 0 0.279 0.378 0.378 0.72 0.378c 0.306 0 0.729 -0.153 0.729 -1.17c 0 -0.063 -0.027 -0.099 -0.054 -0.108l -0.774 -0.189c -0.864 -0.216 -1.485 -0.693 -1.485 -1.305c 0 -0.738 0.504 -0.972 1.134 -0.972c 0.315 0 0.585 0.072 0.981 0.378l 0.18 0.144Z m 0 1.665v -1.188c 0 -0.117 -0.054 -0.18 -0.126 -0.234c -0.234 -0.189 -0.54 -0.396 -0.792 -0.396c -0.45 0 -0.648 0.36 -0.648 0.639c 0 0.405 0.189 0.819 0.855 0.99Z "/></symbol><symbol id="g1E3DE6493D0CDAC5230F4F7A69963EA0" overflow="visible"><path d="M 0 0m 0.855 1.098c 0 -0.747 -0.099 -0.792 -0.648 -0.819c -0.054 -0.054 -0.054 -0.243 0 -0.297c 0.315 0.009 0.648 0.018 1.008 0.018c 0.36 0 0.702 -0.009 0.999 -0.018c 0.054 0.054 0.054 0.243 0 0.297c -0.549 0.027 -0.648 0.072 -0.648 0.819v 4.149c 0 0.585 0.036 0.945 0.036 0.945c 0 0.063 -0.036 0.09 -0.117 0.09c -0.225 -0.09 -0.9 -0.216 -1.26 -0.243c -0.018 -0.072 0 -0.216 0.054 -0.27c 0.522 -0.036 0.576 -0.063 0.576 -0.738Z "/></symbol><symbol id="gB47AF1E8EB8505E9D708624CF420FCE1" overflow="visible"><path d="M 0 0m 1.953 -0.09c 0.351 0 0.774 0.18 1.215 0.54c 0.045 0.036 0.126 0.054 0.135 -0.009c 0.027 -0.225 0.099 -0.531 0.099 -0.531c 0.072 -0.027 0.117 -0.018 0.171 0c 0.198 0.162 0.513 0.297 1.062 0.36c 0.054 0.054 0.054 0.189 0 0.243c -0.576 0.045 -0.657 0.216 -0.657 0.657v 1.728c 0 0.27 0.036 0.927 0.036 0.927c 0 0.027 -0.027 0.054 -0.072 0.054c -0.045 -0.009 -0.18 -0.018 -0.315 -0.018c -0.288 0 -0.612 0.009 -0.918 0.018c -0.054 -0.054 -0.054 -0.243 0 -0.297c 0.441 -0.027 0.558 -0.135 0.558 -0.729v -1.737c 0 -0.171 -0.018 -0.243 -0.144 -0.351c -0.333 -0.288 -0.675 -0.432 -0.9 -0.432c -0.27 0 -0.72 0.126 -0.72 0.927v 1.638c 0 0.27 0.036 0.927 0.036 0.927c 0 0.027 -0.027 0.054 -0.072 0.054c -0.045 -0.009 -0.18 -0.018 -0.315 -0.018c -0.288 0 -0.612 0.009 -0.918 0.018c -0.054 -0.054 -0.054 -0.243 0 -0.297c 0.432 -0.036 0.558 -0.135 0.558 -0.72v -1.728c 0 -0.621 0.27 -1.224 1.161 -1.224Z "/></symbol><symbol id="g8D1B85E3ABA097AFFEFA8B147B26839C" overflow="visible"><path d="M 0 0m 1.24 0.632l 0.44 1.16c 0.04 0.104 0.088 0.136 0.28 0.136h 1.688l 0.464 -1.352c 0.096 -0.272 -0.208 -0.304 -0.592 -0.328c -0.048 -0.048 -0.048 -0.216 0 -0.264c 0.296 0.008 0.736 0.016 1.048 0.016c 0.328 0 0.632 -0.008 0.912 -0.016c 0.048 0.048 0.048 0.216 0 0.264c -0.312 0.032 -0.584 0.056 -0.72 0.44l -1.648 4.576c -0.12 -0.072 -0.336 -0.16 -0.44 -0.16l -1.816 -4.288c -0.208 -0.496 -0.448 -0.544 -0.8 -0.568c -0.048 -0.048 -0.048 -0.216 0 -0.264c 0.208 0.008 0.472 0.016 0.712 0.016c 0.328 0 0.728 -0.008 1.024 -0.016c 0.048 0.048 0.048 0.216 0 0.264c -0.304 0.024 -0.68 0.056 -0.552 0.384Z m 0.864 1.632c -0.176 0 -0.232 0.024 -0.2 0.104l 0.816 2.072h 0.048l 0.752 -2.176Z "/></symbol><symbol id="g9CB01113ED99ABC5A5F75E5016C1499E" overflow="visible"><path d="M 0 0m 0.76 0.976c 0 -0.664 -0.088 -0.704 -0.576 -0.728c -0.048 -0.048 -0.048 -0.216 0 -0.264c 0.28 0.008 0.576 0.016 0.896 0.016c 0.32 0 0.624 -0.008 0.888 -0.016c 0.048 0.048 0.048 0.216 0 0.264c -0.488 0.024 -0.576 0.064 -0.576 0.728v 3.688c 0 0.52 0.032 0.84 0.032 0.84c 0 0.056 -0.032 0.08 -0.104 0.08c -0.2 -0.08 -0.8 -0.192 -1.12 -0.216c -0.016 -0.064 0 -0.192 0.048 -0.24c 0.464 -0.032 0.512 -0.056 0.512 -0.656Z "/></symbol><symbol id="g20EDBE1E989F56AA9FBFD4A2EF5BDC35" overflow="visible"><path d="M 0 0m 3.088 0.744c -0.296 -0.304 -0.528 -0.432 -0.992 -0.432c -0.288 0 -0.624 0.168 -0.872 0.576c -0.16 0.264 -0.256 0.632 -0.256 1.096l 2.128 -0.016c 0.096 0 0.152 0.048 0.152 0.136c 0 0.672 -0.24 1.392 -1.352 1.392c -0.696 0 -1.6 -0.664 -1.6 -1.88c 0 -0.448 0.112 -0.88 0.376 -1.184c 0.272 -0.32 0.648 -0.512 1.224 -0.512c 0.608 0 1.04 0.28 1.36 0.696c -0.024 0.08 -0.072 0.12 -0.168 0.128Z m -2.096 1.512c 0.152 0.904 0.712 0.976 0.904 0.976c 0.304 0 0.664 -0.168 0.664 -0.84c 0 -0.072 -0.032 -0.112 -0.12 -0.112Z "/></symbol><symbol id="g7CADDE05683A2F282E92796EAE7002E6" overflow="visible"><path d="M 0 0m 2.344 0.384c 0.048 -0.248 0.136 -0.464 0.536 -0.464c 0.304 0 0.592 0.136 0.76 0.296c -0.016 0.096 -0.048 0.168 -0.136 0.216c -0.056 -0.048 -0.192 -0.128 -0.296 -0.128c -0.232 0 -0.24 0.312 -0.24 0.68v 1.176c 0 1.136 -0.624 1.352 -1.208 1.352c -0.656 0 -1.32 -0.432 -1.32 -0.888c 0 -0.192 0.096 -0.288 0.28 -0.288c 0.232 0 0.376 0.168 0.376 0.272c 0 0.056 -0.008 0.112 -0.024 0.144c -0.008 0.024 -0.016 0.072 -0.016 0.16c 0 0.248 0.336 0.336 0.64 0.336c 0.272 0 0.648 -0.136 0.648 -1.04c 0 -0.056 -0.024 -0.088 -0.048 -0.096l -0.688 -0.168c -0.768 -0.192 -1.32 -0.616 -1.32 -1.16c 0 -0.656 0.448 -0.864 1.008 -0.864c 0.28 0 0.52 0.064 0.872 0.336l 0.16 0.128Z m 0 1.48v -1.056c 0 -0.104 -0.048 -0.16 -0.112 -0.208c -0.208 -0.168 -0.48 -0.352 -0.704 -0.352c -0.4 0 -0.576 0.32 -0.576 0.568c 0 0.36 0.168 0.728 0.76 0.88Z "/></symbol><symbol id="g13CDF673763F5DB9C25A9A976EDAD0A7" overflow="visible"><path d="M 0 0m 2.672 0.4c 0.04 0.032 0.112 0.048 0.12 -0.008c 0.024 -0.192 0.088 -0.472 0.088 -0.472c 0.064 -0.024 0.104 -0.016 0.152 0c 0.176 0.144 0.456 0.264 0.944 0.32c 0.048 0.048 0.048 0.168 0 0.216c -0.512 0.04 -0.584 0.192 -0.584 0.584v 3.624c 0 0.52 0.032 0.84 0.032 0.84c 0 0.056 -0.032 0.08 -0.104 0.08c -0.2 -0.08 -0.8 -0.192 -1.12 -0.216c -0.016 -0.064 0 -0.192 0.048 -0.24c 0.024 0 0.048 0 0.072 0c 0.352 -0.024 0.44 -0.024 0.44 -0.656v -1.024c 0 -0.056 -0.016 -0.072 -0.072 -0.072c -0.032 0 -0.36 0.136 -0.624 0.136c -0.528 0 -0.88 -0.176 -1.2 -0.48c -0.344 -0.344 -0.552 -0.816 -0.552 -1.408c 0 -0.984 0.496 -1.704 1.36 -1.704c 0.312 0 0.608 0.16 1 0.48Z m 0.088 0.592c 0 -0.152 -0.016 -0.216 -0.128 -0.312c -0.296 -0.256 -0.552 -0.384 -0.752 -0.384c -0.432 0 -0.88 0.472 -0.88 1.472c 0 0.576 0.112 0.896 0.232 1.064c 0.248 0.376 0.584 0.4 0.744 0.4c 0.288 0 0.488 -0.104 0.648 -0.288c 0.112 -0.128 0.136 -0.184 0.136 -0.432Z "/></symbol><symbol id="g86ABD9B98157573BF6882A43FA434742" overflow="visible"><path d="M 0 0m 0.384 1.104c 0.032 -0.392 0.056 -0.768 0.056 -1.104c 0.08 0.016 0.16 0.024 0.2 0.024c 0.056 0 0.104 0 0.16 -0.016c 0.216 -0.056 0.432 -0.088 0.728 -0.088c 0.448 0 1.272 0.216 1.272 1.008c 0 0.544 -0.392 0.864 -0.936 1.064c -0.48 0.184 -0.8 0.304 -0.8 0.744c 0 0.328 0.288 0.512 0.56 0.512c 0.176 0 0.64 -0.064 0.744 -0.744c 0.048 -0.048 0.208 -0.04 0.256 0.008c 0.024 0.288 0.04 0.584 0.048 0.848c -0.248 0.04 -0.632 0.152 -1.048 0.152c -0.592 0 -1.128 -0.384 -1.128 -0.896c 0 -0.584 0.264 -0.832 0.88 -1.088c 0.664 -0.272 0.816 -0.44 0.816 -0.784c 0 -0.392 -0.384 -0.56 -0.68 -0.56c -0.312 0 -0.488 0.104 -0.568 0.192c -0.176 0.184 -0.264 0.536 -0.312 0.736c -0.048 0.048 -0.2 0.04 -0.248 -0.008Z "/></symbol><symbol id="gB2C2A6E3883310E6A7667C09A3228786" overflow="visible"><path d="M 0 0m 1.184 5.16c -0.288 0 -0.72 0.008 -1.032 0.016c -0.048 -0.048 -0.048 -0.216 0 -0.264c 0.56 -0.024 0.696 -0.064 0.696 -0.728v -3.208c 0 -0.664 -0.136 -0.704 -0.696 -0.728c -0.048 -0.048 -0.048 -0.216 0 -0.264c 0.312 0.008 0.744 0.016 1.04 0.016c 0.288 0 0.496 -0.016 1.168 -0.016c 1.592 0 2.016 0.8 2.016 1.488c 0 0.768 -0.536 1.208 -1.232 1.408v 0.016c 0.4 0.2 0.76 0.616 0.76 1.048c 0 0.536 -0.232 1.232 -1.72 1.232c -0.28 0 -0.712 -0.016 -1 -0.016Z m 0.344 -2.504h 0.552c 1.096 0 1.552 -0.616 1.552 -1.336c 0 -0.584 -0.224 -1.072 -1.44 -1.072c -0.56 0 -0.664 0.208 -0.664 0.696Z m 0 1.744c 0 0.424 0 0.504 0.696 0.504c 0.448 0 1.032 -0.24 1.032 -1.056c 0 -0.68 -0.472 -0.92 -1.136 -0.92h -0.592Z "/></symbol></defs><defs><clipPath id="c28F269F5A06267706258E7490DE2D3BC"><path d="M 0 0h 250.034771654v 149.963559055h -250.034771654Z "/></clipPath></defs></svg>