<svg viewBox="0 0 351.157480315 209.42519685" width="351.157480315pt" height="209.42519685pt" xmlns="http://www.w3.org/2000/svg" xmlns:xlink="http://www.w3.org/1999/xlink" xmlns:h5="http://www.w3.org/1999/xhtml"><path fill="#fafafa" fill-rule="nonzero" d="M 0 0v 209.42519685h 351.157480315v -209.42519685Z "/><g transform="translate(5.5 5.5)"><path fill="#fafafa" fill-rule="nonzero" d="M 0 0v 198.42519685h 340.157480315v -198.42519685Z "/><g transform="translate(5 5)"><g><g transform="matrix(1 0 0 -1 0 7.74)"><use xlink:href="#g94CA49381870409795489232C8E0F99F" x="0" y="0" fill="#111827" fill-rule="nonzero"/><use xlink:href="#gDC05A2A7E4AEFCF99C6614634AF8B2F0" x="7.848" y="0" fill="#111827" fill-rule="nonzero"/><use xlink:href="#g56D9AC69DF1E60AEC4FA898FA388366B" x="13.92" y="0" fill="#111827" fill-rule="nonzero"/><use xlink:href="#g93ED4154508DB3ADD21415419B103611" x="19.056" y="0" fill="#111827" fill-rule="nonzero"/><use xlink:href="#gFDA5AB05813F3BC32AAA0BB079CAB79A" x="27.18" y="0" fill="#111827" fill-rule="nonzero"/><use xlink:href="#g482B6484D8169192ED302BC1FABC0EB8" x="33.816" y="0" fill="#111827" fill-rule="nonzero"/><use xlink:href="#gC76A03CC6B2F66C4058A56BA6A9EE20" x="40.428" y="0" fill="#111827" fill-rule="nonzero"/><use xlink:href="#gC2725F9DC1D542B814F24406C37F92E1" x="50.604" y="0" fill="#111827" fill-rule="nonzero"/><use xlink:href="#gDC05A2A7E4AEFCF99C6614634AF8B2F0" x="59.076" y="0" fill="#111827" fill-rule="nonzero"/><use xlink:href="#g3C2E9715FB9D690A986B8F0D57F3007C" x="65.148" y="0" fill="#111827" fill-rule="nonzero"/><use xlink:href="#g4DE5D42EDA42FA72D6DE464A07815109" x="75.54" y="0" fill="#111827" fill-rule="nonzero"/><use xlink:href="#gE18113BE1243CA6EC5596891CC422939" x="84.132" y="0" fill="#111827" fill-rule="nonzero"/><use xlink:href="#gDC05A2A7E4AEFCF99C6614634AF8B2F0" x="90" y="0" fill="#111827" fill-rule="nonzero"/><use xlink:href="#g6318351890DB0E292B53BA9E457E848C" x="96.072" y="0" fill="#111827" fill-rule="nonzero"/><use xlink:href="#g1094D23D321B642DA133CC49B1BA1EB9" x="105.804" y="0" fill="#111827" fill-rule="nonzero"/><use xlink:href="#g3C2E9715FB9D690A986B8F0D57F3007C" x="109.668" y="0" fill="#111827" fill-rule="nonzero"/><use xlink:href="#g802D941971A5DE312358E16F5D16F1CA" x="120.06" y="0" fill="#111827" fill-rule="nonzero"/><use xlink:href="#g56D9AC69DF1E60AEC4FA898FA388366B" x="128.844" y="0" fill="#111827" fill-rule="nonzero"/><use xlink:href="#gE18113BE1243CA6EC5596891CC422939" x="133.884" y="0" fill="#111827" fill-rule="nonzero"/><use xlink:href="#gD4B05AE9CAE173022764EC3E80C7DD69" x="139.668" y="0" fill="#111827" fill-rule="nonzero"/><use xlink:href="#g93ED4154508DB3ADD21415419B103611" x="146.364" y="0" fill="#111827" fill-rule="nonzero"/><use xlink:href="#gEF03CC905B39DF2CE13E9EED9CECE9CC" x="151.488" y="0" fill="#111827" fill-rule="nonzero"/><use xlink:href="#gDC05A2A7E4AEFCF99C6614634AF8B2F0" x="156.96" y="0" fill="#111827" fill-rule="nonzero"/><use xlink:href="#g966BE685B7523A33FA7C5091B1A7882" x="163.032" y="0" fill="#111827" fill-rule="nonzero"/><use xlink:href="#gE18113BE1243CA6EC5596891CC422939" x="166.932" y="0" fill="#111827" fill-rule="nonzero"/></g></g><g transform="translate(0 14.94)"><path fill="none" transform="translate(62.061295276 152.798204724)" d="M 0 0h 20.944v 5.368h -20.944v -5.368Z "/><g transform="translate(62.061295244 152.798204598)"><g transform="matrix(1 0 0 -1 0 5.264)"><use xlink:href="#g8D1B85E3ABA097AFFEFA8B147B26839C" x="0" y="0" fill="#111827" fill-rule="nonzero"/><use xlink:href="#g13CDF673763F5DB9C25A9A976EDAD0A7" x="5.464" y="0" fill="#111827" fill-rule="nonzero"/><use xlink:href="#g20EDBE1E989F56AA9FBFD4A2EF5BDC35" x="9.512" y="0" fill="#111827" fill-rule="nonzero"/><use xlink:href="#g9CB01113ED99ABC5A5F75E5016C1499E" x="13.088" y="0" fill="#111827" fill-rule="nonzero"/><use xlink:href="#g2BFBF805A6B9D0BF9A5DDB8FE340411" x="15.2" y="0" fill="#111827" fill-rule="nonzero"/><use xlink:href="#g20EDBE1E989F56AA9FBFD4A2EF5BDC35" x="17.368" y="0" fill="#111827" fill-rule="nonzero"/></g></g><path fill="none" transform="translate(130.550929134 152.798204724)" d="M 0 0h 32.408v 7.136h -32.408v -7.136Z "/><g transform="translate(130.550929024 152.798204614)"><g transform="matrix(1 0 0 -1 0 5.264)"><use xlink:href="#g8C602F113ED136B9EC97C2B861CC969C" x="0" y="0" fill="#111827" fill-rule="nonzero"/><use xlink:href="#gD6C08740CFCAAF86BCA909E63B9538D" x="5.168" y="0" fill="#111827" fill-rule="nonzero"/><use xlink:href="#g2BFBF805A6B9D0BF9A5DDB8FE340411" x="9.472" y="0" fill="#111827" fill-rule="nonzero"/><use xlink:href="#g737E31D6A5E93E22E9ED4AD10D42FE71" x="11.64" y="0" fill="#111827" fill-rule="nonzero"/><use xlink:href="#g86ABD9B98157573BF6882A43FA434742" x="15.976" y="0" fill="#111827" fill-rule="nonzero"/><use xlink:href="#g3078E795B3E2291E912DCDEB76EE36F" x="19.096" y="0" fill="#111827" fill-rule="nonzero"/><use xlink:href="#gF14903D79C881A9B6AC2EE7D8BED6F03" x="21.624" y="0" fill="#111827" fill-rule="nonzero"/><use xlink:href="#g7CADDE05683A2F282E92796EAE7002E6" x="24.6" y="0" fill="#111827" fill-rule="nonzero"/><use xlink:href="#gE3B745958568E02614BCAB4547DCA2F1" x="28.256" y="0" fill="#111827" fill-rule="nonzero"/></g></g><path fill="none" transform="translate(208.956562992 152.798204724)" d="M 0 0h 24.04v 5.344h -24.04v -5.344Z "/><g transform="translate(208.956562961 152.798204646)"><g transform="matrix(1 0 0 -1 0 5.264)"><use xlink:href="#gB6B829643FAC67A26EA335D5C5653A06" x="0" y="0" fill="#111827" fill-rule="nonzero"/><use xlink:href="#g20EDBE1E989F56AA9FBFD4A2EF5BDC35" x="5.48" y="0" fill="#111827" fill-rule="nonzero"/><use xlink:href="#g737E31D6A5E93E22E9ED4AD10D42FE71" x="9.056" y="0" fill="#111827" fill-rule="nonzero"/><use xlink:href="#g3078E795B3E2291E912DCDEB76EE36F" x="13.392" y="0" fill="#111827" fill-rule="nonzero"/><use xlink:href="#g2B678EF10194558DA6DED0CDF87DA3E4" x="15.92" y="0" fill="#111827" fill-rule="nonzero"/><use xlink:href="#g2B678EF10194558DA6DED0CDF87DA3E4" x="20.008" y="0" fill="#111827" fill-rule="nonzero"/></g></g><path fill="none" stroke="#b4b6bb" stroke-width="0.2" stroke-linecap="butt" stroke-linejoin="miter" stroke-miterlimit="4" transform="translate(28.000314961 140.567346082)" d="M 0 0h 237.509228346"/><path fill="none" stroke="#b4b6bb" stroke-width="0.2" stroke-linecap="butt" stroke-linejoin="miter" stroke-miterlimit="4" transform="translate(28.000314961 121.774920135)" d="M 0 0h 237.509228346"/><path fill="none" stroke="#b4b6bb" stroke-width="0.2" stroke-linecap="butt" stroke-linejoin="miter" stroke-miterlimit="4" transform="translate(28.000314961 102.982494188)" d="M 0 0h 237.509228346"/><path fill="none" stroke="#b4b6bb" stroke-width="0.2" stroke-linecap="butt" stroke-linejoin="miter" stroke-miterlimit="4" transform="translate(28.000314961 84.190068241)" d="M 0 0h 237.509228346"/><path fill="none" stroke="#b4b6bb" stroke-width="0.2" stroke-linecap="butt" stroke-linejoin="miter" stroke-miterlimit="4" transform="translate(28.000314961 65.397642295)" d="M 0 0h 237.509228346"/><path fill="none" stroke="#b4b6bb" stroke-width="0.2" stroke-linecap="butt" stroke-linejoin="miter" stroke-miterlimit="4" transform="translate(28.000314961 46.605216348)" d="M 0 0h 237.509228346"/><path fill="none" stroke="#b4b6bb" stroke-width="0.2" stroke-linecap="butt" stroke-linejoin="miter" stroke-miterlimit="4" transform="translate(28.000314961 27.812790401)" d="M 0 0h 237.509228346"/><path fill="none" stroke="#b4b6bb" stroke-width="0.2" stroke-linecap="butt" stroke-linejoin="miter" stroke-miterlimit="4" transform="translate(28.000314961 9.020364454)" d="M 0 0h 237.509228346"/><path fill="none" stroke="#b4b6bb" stroke-width="0.4" stroke-linecap="butt" stroke-linejoin="miter" stroke-miterlimit="4" transform="translate(28.000314961 149.963559055)" d="M 0 0h 237.509228346"/><path fill="none" transform="translate(21.445669291 147.291559055)" d="M 0 0h 3.72v 5.344h -3.72v -5.344Z "/><g transform="translate(21.445669197 147.291558976)"><g transform="matrix(1 0 0 -1 0 5.264)"><use xlink:href="#g97663EC9AEA74EADA07472643E1BE1B4" x="0" y="0" fill="#111827" fill-rule="nonzero"/></g></g><path fill="none" stroke="#b4b6bb" stroke-width="0.4" stroke-linecap="butt" stroke-linejoin="miter" stroke-miterlimit="4" transform="translate(28.000314961 131.171133108)" d="M 0 0h 237.509228346"/><path fill="none" transform="translate(17.725669291 128.499133108)" d="M 0 0h 7.44v 5.344h -7.44v -5.344Z "/><g transform="translate(17.725669244 128.49913303)"><g transform="matrix(1 0 0 -1 0 5.264)"><use xlink:href="#gAD9C87F854BDA42EDABFFB35EC1FA84E" x="0" y="0" fill="#111827" fill-rule="nonzero"/><use xlink:href="#g97663EC9AEA74EADA07472643E1BE1B4" x="3.72" y="0" fill="#111827" fill-rule="nonzero"/></g></g><path fill="none" stroke="#b4b6bb" stroke-width="0.4" stroke-linecap="butt" stroke-linejoin="miter" stroke-miterlimit="4" transform="translate(28.000314961 112.378707162)" d="M 0 0h 237.509228346"/><path fill="none" transform="translate(17.725669291 109.706707162)" d="M 0 0h 7.44v 5.344h -7.44v -5.344Z "/><g transform="translate(17.725669244 109.706707083)"><g transform="matrix(1 0 0 -1 0 5.264)"><use xlink:href="#gF821431C61A4D7F3ECEFEC074E9C0EFC" x="0" y="0" fill="#111827" fill-rule="nonzero"/><use xlink:href="#g97663EC9AEA74EADA07472643E1BE1B4" x="3.72" y="0" fill="#111827" fill-rule="nonzero"/></g></g><path fill="none" stroke="#b4b6bb" stroke-width="0.4" stroke-linecap="butt" stroke-linejoin="miter" stroke-miterlimit="4" transform="translate(28.000314961 93.586281215)" d="M 0 0h 237.509228346"/><path fill="none" transform="translate(17.725669291 90.910281215)" d="M 0 0h 7.44v 5.352h -7.44v -5.352Z "/><g transform="translate(17.725669244 90.910281168)"><g transform="matrix(1 0 0 -1 0 5.264)"><use xlink:href="#gAFC6ADE0F4BA5C584B85DD0E8532505B" x="0" y="0" fill="#111827" fill-rule="nonzero"/><use xlink:href="#g97663EC9AEA74EADA07472643E1BE1B4" x="3.72" y="0" fill="#111827" fill-rule="nonzero"/></g></g><path fill="none" stroke="#b4b6bb" stroke-width="0.4" stroke-linecap="butt" stroke-linejoin="miter" stroke-miterlimit="4" transform="translate(28.000314961 74.793855268)" d="M 0 0h 237.509228346"/><path fill="none" transform="translate(17.725669291 72.121855268)" d="M 0 0h 7.44v 5.344h -7.44v -5.344Z "/><g transform="translate(17.725669244 72.121855189)"><g transform="matrix(1 0 0 -1 0 5.264)"><use xlink:href="#g7A967AE9E3CD4C643CC5E64A109A19AA" x="0" y="0" fill="#111827" fill-rule="nonzero"/><use xlink:href="#g97663EC9AEA74EADA07472643E1BE1B4" x="3.72" y="0" fill="#111827" fill-rule="nonzero"/></g></g><path fill="none" stroke="#b4b6bb" stroke-width="0.4" stroke-linecap="butt" stroke-linejoin="miter" stroke-miterlimit="4" transform="translate(28.000314961 56.001429321)" d="M 0 0h 237.509228346"/><path fill="none" transform="translate(14.005669291 53.329429321)" d="M 0 0h 11.16v 5.344h -11.16v -5.344Z "/><g transform="translate(14.005669291 53.329429243)"><g transform="matrix(1 0 0 -1 0 5.264)"><use xlink:href="#g8C50DFC0B8272CD73341C65811BD0E92" x="0" y="0" fill="#111827" fill-rule="nonzero"/><use xlink:href="#g97663EC9AEA74EADA07472643E1BE1B4" x="3.72" y="0" fill="#111827" fill-rule="nonzero"/><use xlink:href="#g97663EC9AEA74EADA07472643E1BE1B4" x="7.44" y="0" fill="#111827" fill-rule="nonzero"/></g></g><path fill="none" stroke="#b4b6bb" stroke-width="0.4" stroke-linecap="butt" stroke-linejoin="miter" stroke-miterlimit="4" transform="translate(28.000314961 37.209003375)" d="M 0 0h 237.509228346"/><path fill="none" transform="translate(14.005669291 34.537003375)" d="M 0 0h 11.16v 5.344h -11.16v -5.344Z "/><g transform="translate(14.005669291 34.537003296)"><g transform="matrix(1 0 0 -1 0 5.264)"><use xlink:href="#g8C50DFC0B8272CD73341C65811BD0E92" x="0" y="0" fill="#111827" fill-rule="nonzero"/><use xlink:href="#gAD9C87F854BDA42EDABFFB35EC1FA84E" x="3.72" y="0" fill="#111827" fill-rule="nonzero"/><use xlink:href="#g97663EC9AEA74EADA07472643E1BE1B4" x="7.44" y="0" fill="#111827" fill-rule="nonzero"/></g></g><path fill="none" stroke="#b4b6bb" stroke-width="0.4" stroke-linecap="butt" stroke-linejoin="miter" stroke-miterlimit="4" transform="translate(28.000314961 18.416577428)" d="M 0 0h 237.509228346"/><path fill="none" transform="translate(14.005669291 15.744577428)" d="M 0 0h 11.16v 5.344h -11.16v -5.344Z "/><g transform="translate(14.005669291 15.744577349)"><g transform="matrix(1 0 0 -1 0 5.264)"><use xlink:href="#g8C50DFC0B8272CD73341C65811BD0E92" x="0" y="0" fill="#111827" fill-rule="nonzero"/><use xlink:href="#gF821431C61A4D7F3ECEFEC074E9C0EFC" x="3.72" y="0" fill="#111827" fill-rule="nonzero"/><use xlink:href="#g97663EC9AEA74EADA07472643E1BE1B4" x="7.44" y="0" fill="#111827" fill-rule="nonzero"/></g></g><path fill="none" transform="translate(28.000314961 0)" d="M 0 0h 237.509228346v 149.963559055h -237.509228346v -149.963559055Z "/><g transform="translate(28.000314929 -1.26e-7)"><g clip-path="url(#c9F4D1396B753D376A53E51FEA5082FE8)"><g><path fill="url(#t83789E70C56105EFF687F1EC20E9E602)" fill-rule="nonzero" transform="translate(11.133245079 7.14112186)" d="M 0 0m 0 0v 142.822437195h 66.799470472v -142.822437195h -66.799470472Z "/><path fill="url(#tC3D753FAAAFF9BFAFE66248FBADE5BD7)" fill-rule="nonzero" transform="translate(159.576512795 33.450518185)" d="M 0 0m 0 0v 116.51304087h 66.799470472v -116.51304087h -66.799470472Z "/><path fill="url(#t3A0BB1A628B67E9795FD4A850CD400F1)" fill-rule="nonzero" transform="translate(85.354878937 86.069310836)" d="M 0 0m 0 0v 63.894248219h 66.799470472v -63.894248219h -66.799470472Z "/></g></g></g><path fill="none" transform="translate(133.250429134 164.039874016)" d="M 0 0h 27.009v 8.028h -27.009v -8.028Z "/><g transform="translate(133.250429134 164.039874016)"><g transform="matrix(1 0 0 -1 0 5.922)"><use xlink:href="#gA877B80847B622C91F0EE0DF55B2CE6F" x="0" y="0" fill="#111827" fill-rule="nonzero"/><use xlink:href="#g4F94A37786D24AC11F1E2C6578232409" x="4.365" y="0" fill="#111827" fill-rule="nonzero"/><use xlink:href="#g15283247E004048E8F39F157505A0F31" x="9.099" y="0" fill="#111827" fill-rule="nonzero"/><use xlink:href="#gECB1CD146348D219847309C79C322A37" x="13.185" y="0" fill="#111827" fill-rule="nonzero"/><use xlink:href="#gEDE113971A7C9D129D6A2104959F55B2" x="17.037" y="0" fill="#111827" fill-rule="nonzero"/><use xlink:href="#g15283247E004048E8F39F157505A0F31" x="19.476" y="0" fill="#111827" fill-rule="nonzero"/><use xlink:href="#gA1FEA12DCE93D0EA0BBFC1201B9D8E1C" x="23.499" y="0" fill="#111827" fill-rule="nonzero"/></g></g><path fill="none" transform="translate(1.483334646 63.556279528)" d="M 0 0m 0 22.851l 0 -22.851h 6.039v 22.851h -6.039Z "/><g transform="matrix(0 -1 1 0 1.483334504 86.407279528)"><g transform="matrix(1 0 0 -1 0 5.922)"><use xlink:href="#gC375F277B20C2526627B56EF0039913" x="0" y="0" fill="#111827" fill-rule="nonzero"/><use xlink:href="#gF71CD90141C058754731CB923424AFF5" x="5.814" y="0" fill="#111827" fill-rule="nonzero"/><use xlink:href="#gB47AF1E8EB8505E9D708624CF420FCE1" x="10.35" y="0" fill="#111827" fill-rule="nonzero"/><use xlink:href="#g75829AE9E8B7E42D7FCDFD5712A16351" x="15.129" y="0" fill="#111827" fill-rule="nonzero"/><use xlink:href="#g5277906DC426125FD25A938CB480528C" x="20.007" y="0" fill="#111827" fill-rule="nonzero"/></g></g><path fill="none" transform="translate(278.309543307 53.172645669)" d="M 0 0h 24.008v 7.136h -24.008v -7.136Z "/><g transform="translate(278.309543291 53.172645559)"><g transform="matrix(1 0 0 -1 0 5.264)"><use xlink:href="#gAC173AC16C94F352139132A9DCC12557" x="0" y="0" fill="#111827" fill-rule="nonzero"/><use xlink:href="#gE3B745958568E02614BCAB4547DCA2F1" x="3.88" y="0" fill="#111827" fill-rule="nonzero"/><use xlink:href="#g20EDBE1E989F56AA9FBFD4A2EF5BDC35" x="8.088" y="0" fill="#111827" fill-rule="nonzero"/><use xlink:href="#g903D50B8CD94CEB573691E7684D99C1C" x="11.72" y="0" fill="#111827" fill-rule="nonzero"/><use xlink:href="#g2BFBF805A6B9D0BF9A5DDB8FE340411" x="15.144" y="0" fill="#111827" fill-rule="nonzero"/><use xlink:href="#g20EDBE1E989F56AA9FBFD4A2EF5BDC35" x="17.312" y="0" fill="#111827" fill-rule="nonzero"/><use xlink:href="#g86ABD9B98157573BF6882A43FA434742" x="20.888" y="0" fill="#111827" fill-rule="nonzero"/></g></g><path fill="url(#t83789E70C56105EFF687F1EC20E9E602)" fill-rule="nonzero" transform="translate(278.309543307 65.972645669)" d="M 0 0v 6.803149606h 6.803149606v -6.803149606h -6.803149606Z "/><path fill="none" transform="translate(289.364661417 66.690220472)" d="M 0 0h 20.944v 5.368h -20.944v -5.368Z "/><g transform="translate(289.364661386 66.690220346)"><g transform="matrix(1 0 0 -1 0 5.264)"><use xlink:href="#g8D1B85E3ABA097AFFEFA8B147B26839C" x="0" y="0" fill="#111827" fill-rule="nonzero"/><use xlink:href="#g13CDF673763F5DB9C25A9A976EDAD0A7" x="5.464" y="0" fill="#111827" fill-rule="nonzero"/><use xlink:href="#g20EDBE1E989F56AA9FBFD4A2EF5BDC35" x="9.512" y="0" fill="#111827" fill-rule="nonzero"/><use xlink:href="#g9CB01113ED99ABC5A5F75E5016C1499E" x="13.088" y="0" fill="#111827" fill-rule="nonzero"/><use xlink:href="#g2BFBF805A6B9D0BF9A5DDB8FE340411" x="15.2" y="0" fill="#111827" fill-rule="nonzero"/><use xlink:href="#g20EDBE1E989F56AA9FBFD4A2EF5BDC35" x="17.368" y="0" fill="#111827" fill-rule="nonzero"/></g></g><path fill="url(#t3A0BB1A628B67E9795FD4A850CD400F1)" fill-rule="nonzero" transform="translate(278.309543307 77.179700787)" d="M 0 0v 6.803149606h 6.803149606v -6.803149606h -6.803149606Z "/><path fill="none" transform="translate(289.364661417 77.013275591)" d="M 0 0h 32.408v 7.136h -32.408v -7.136Z "/><g transform="translate(289.364661307 77.01327548)"><g transform="matrix(1 0 0 -1 0 5.264)"><use xlink:href="#g8C602F113ED136B9EC97C2B861CC969C" x="0" y="0" fill="#111827" fill-rule="nonzero"/><use xlink:href="#gD6C08740CFCAAF86BCA909E63B9538D" x="5.168" y="0" fill="#111827" fill-rule="nonzero"/><use xlink:href="#g2BFBF805A6B9D0BF9A5DDB8FE340411" x="9.472" y="0" fill="#111827" fill-rule="nonzero"/><use xlink:href="#g737E31D6A5E93E22E9ED4AD10D42FE71" x="11.64" y="0" fill="#111827" fill-rule="nonzero"/><use xlink:href="#g86ABD9B98157573BF6882A43FA434742" x="15.976" y="0" fill="#111827" fill-rule="nonzero"/><use xlink:href="#g3078E795B3E2291E912DCDEB76EE36F" x="19.096" y="0" fill="#111827" fill-rule="nonzero"/><use xlink:href="#gF14903D79C881A9B6AC2EE7D8BED6F03" x="21.624" y="0" fill="#111827" fill-rule="nonzero"/><use xlink:href="#g7CADDE05683A2F282E92796EAE7002E6" x="24.6" y="0" fill="#111827" fill-rule="nonzero"/><use xlink:href="#gE3B745958568E02614BCAB4547DCA2F1" x="28.256" y="0" fill="#111827" fill-rule="nonzero"/></g></g><path fill="url(#tC3D753FAAAFF9BFAFE66248FBADE5BD7)" fill-rule="nonzero" transform="translate(278.309543307 88.386755906)" d="M 0 0v 6.803149606h 6.803149606v -6.803149606h -6.803149606Z "/><path fill="none" transform="translate(289.364661417 89.116330709)" d="M 0 0h 24.04v 5.344h -24.04v -5.344Z "/><g transform="translate(289.364661386 89.11633063)"><g transform="matrix(1 0 0 -1 0 5.264)"><use xlink:href="#gB6B829643FAC67A26EA335D5C5653A06" x="0" y="0" fill="#111827" fill-rule="nonzero"/><use xlink:href="#g20EDBE1E989F56AA9FBFD4A2EF5BDC35" x="5.48" y="0" fill="#111827" fill-rule="nonzero"/><use xlink:href="#g737E31D6A5E93E22E9ED4AD10D42FE71" x="9.056" y="0" fill="#111827" fill-rule="nonzero"/><use xlink:href="#g3078E795B3E2291E912DCDEB76EE36F" x="13.392" y="0" fill="#111827" fill-rule="nonzero"/><use xlink:href="#g2B678EF10194558DA6DED0CDF87DA3E4" x="15.92" y="0" fill="#111827" fill-rule="nonzero"/><use xlink:href="#g2B678EF10194558DA6DED0CDF87DA3E4" x="20.008" y="0" fill="#111827" fill-rule="nonzero"/></g></g></g></g></g><defs><symbol id="g94CA49381870409795489232C8E0F99F" overflow="visible"><path d="M 0 0m 2.076 7.74c -0.48 0 -1.848 0.024 -1.848 0.024c -0.12 -0.072 -0.12 -0.336 0 -0.408c 0.66 -0.036 0.996 -0.084 0.996 -1.08v -4.812c 0 -0.996 -0.336 -1.044 -0.996 -1.08c -0.12 -0.072 -0.12 -0.336 0 -0.408c 0 0 1.368 0.024 1.848 0.024c 0.48 0 1.248 -0.024 1.968 -0.024c 2.46 0 3.252 1.032 3.252 2.256c 0 1.056 -0.528 1.74 -1.8 2.076v 0.024c 0.648 0.288 1.152 0.948 1.152 1.56c 0 0.828 -0.444 1.872 -2.868 1.872c -0.6 0 -1.32 -0.024 -1.704 -0.024Z m 0.828 -3.732h 0.852c 1.236 0 1.776 -0.732 1.776 -1.764c 0 -0.72 -0.252 -1.764 -1.836 -1.764c -0.72 0 -0.792 0.18 -0.792 0.528Z m 0 2.736c 0 0.348 0.06 0.516 0.84 0.516c 0.552 0 1.224 -0.216 1.224 -1.392c 0 -0.96 -0.54 -1.356 -1.392 -1.356h -0.672Z "/></symbol><symbol id="gDC05A2A7E4AEFCF99C6614634AF8B2F0" overflow="visible"><path d="M 0 0m 3.54 0.588c 0.084 -0.492 0.408 -0.708 0.936 -0.708c 0.66 0 1.128 0.252 1.572 0.672c -0.024 0.144 -0.072 0.24 -0.216 0.336c -0.156 -0.12 -0.276 -0.168 -0.504 -0.168c -0.264 0 -0.336 0.216 -0.336 0.804l 0.024 1.728c 0 1.728 -1.068 2.076 -2.052 2.076c -0.876 0 -2.22 -0.504 -2.22 -1.296c 0 -0.336 0.144 -0.6 0.612 -0.6c 0.432 0 0.744 0.264 0.744 0.552c 0 0.06 -0.012 0.132 -0.024 0.204c -0.024 0.12 -0.048 0.24 -0.024 0.36c 0.012 0.132 0.108 0.276 0.504 0.276c 0.504 0 0.924 -0.216 0.924 -1.74l -0.804 -0.252c -1.26 -0.396 -2.148 -0.744 -2.148 -1.692c 0 -0.828 0.456 -1.26 1.5 -1.26c 0.348 0 1.044 0.384 1.44 0.696Z m -0.06 2.028v -1.584c -0.3 -0.24 -0.6 -0.432 -0.816 -0.432c -0.516 0 -0.696 0.348 -0.696 0.72c 0 0.444 0.036 0.816 0.888 1.092Z "/></symbol><symbol id="g56D9AC69DF1E60AEC4FA898FA388366B" overflow="visible"><path d="M 0 0m 2.736 3.216c 0 0.432 0.132 0.612 0.288 0.792c 0.096 0.12 0.204 0.204 0.384 0.204c 0.108 0 0.24 -0.108 0.336 -0.228c 0.084 -0.096 0.288 -0.192 0.564 -0.192c 0.348 0 0.684 0.36 0.684 0.864c 0 0.312 -0.36 0.672 -0.792 0.672c -0.42 0 -0.876 -0.36 -1.428 -1.152h -0.048c -0.024 0.36 -0.084 0.948 -0.084 0.948c -0.012 0.108 -0.108 0.204 -0.276 0.204c -0.564 -0.144 -1.2 -0.312 -1.992 -0.396c -0.024 -0.072 0 -0.3 0.024 -0.372c 0.66 -0.06 0.78 -0.168 0.78 -0.852v -2.244c 0 -0.996 -0.132 -1.02 -0.864 -1.08c -0.072 -0.072 -0.072 -0.336 0 -0.408c 0.504 0.012 1.008 0.024 1.644 0.024c 0.636 0 1.128 -0.012 1.644 -0.024c 0.072 0.072 0.072 0.336 0 0.408c -0.732 0.048 -0.864 0.084 -0.864 1.08Z "/></symbol><symbol id="g93ED4154508DB3ADD21415419B103611" overflow="visible"><path d="M 0 0m 0.576 1.752c 0.048 -0.588 0.108 -1.152 0.204 -1.608c 0.228 -0.072 0.996 -0.264 1.668 -0.264c 0.924 0 2.076 0.504 2.076 1.548c 0 0.408 -0.096 0.732 -0.372 1.032c -0.336 0.384 -0.84 0.684 -1.392 0.924c -0.48 0.204 -0.648 0.588 -0.648 0.936c 0 0.276 0.228 0.504 0.576 0.504c 0.42 0 0.828 -0.384 1.128 -1.116c 0.216 -0.036 0.348 -0.024 0.468 0.06c 0 0.432 -0.048 0.888 -0.156 1.272c -0.384 0.168 -0.684 0.288 -1.344 0.288c -0.636 0 -1.236 -0.24 -1.62 -0.624c -0.276 -0.276 -0.408 -0.612 -0.408 -0.936c 0 -0.36 0.144 -0.648 0.372 -0.9c 0.372 -0.408 1.032 -0.828 1.392 -0.996c 0.48 -0.216 0.612 -0.648 0.612 -0.936c 0 -0.384 -0.384 -0.588 -0.708 -0.588c -0.54 0 -1.116 0.552 -1.368 1.428c -0.192 0.036 -0.288 0.024 -0.48 -0.024Z "/></symbol><symbol id="gFDA5AB05813F3BC32AAA0BB079CAB79A" overflow="visible"><path d="M 0 0m 4.644 1.464v 1.752c 0 0.48 0.048 0.732 0.204 0.996l 1.536 2.568c 0.276 0.456 0.504 0.528 1.044 0.576c 0.072 0.072 0.072 0.336 0 0.408c -0.36 -0.012 -0.84 -0.024 -1.116 -0.024c -0.276 0 -0.852 0.012 -1.332 0.024c -0.072 -0.072 -0.072 -0.336 0 -0.408c 0.528 -0.036 0.804 -0.228 0.612 -0.588l -1.236 -2.328c -0.084 -0.156 -0.168 -0.156 -0.276 0.036l -1.248 2.208c -0.252 0.456 -0.252 0.636 0.42 0.672c 0.072 0.072 0.072 0.336 0 0.408c -0.48 -0.012 -1.008 -0.024 -1.488 -0.024c -0.468 0 -1.344 0.012 -1.704 0.024c -0.072 -0.072 -0.06 -0.336 0.012 -0.408c 0.504 -0.036 0.732 -0.12 1.128 -0.792l 1.524 -2.58c 0.216 -0.348 0.24 -0.432 0.24 -0.876v -1.644c 0 -0.996 -0.204 -1.044 -1.164 -1.08c -0.072 -0.072 -0.072 -0.336 0 -0.408c 0.588 0.012 1.284 0.024 2.1 0.024c 0.66 0 1.308 -0.012 1.908 -0.024c 0.072 0.072 0.072 0.336 0 0.408c -0.96 0.036 -1.164 0.084 -1.164 1.08Z "/></symbol><symbol id="g482B6484D8169192ED302BC1FABC0EB8" overflow="visible"><path d="M 0 0m 0.444 2.484c 0 -1.572 1.248 -2.604 2.856 -2.604c 0.852 0 1.56 0.24 2.052 0.684c 0.612 0.54 0.816 1.356 0.816 2.028c 0 1.572 -1.068 2.736 -2.856 2.736c -0.996 0 -1.74 -0.348 -2.208 -0.888c -0.456 -0.528 -0.66 -1.248 -0.66 -1.956Z m 2.676 2.34c 0.816 0 1.368 -0.972 1.368 -2.616c 0 -1.44 -0.564 -1.824 -0.996 -1.824c -0.984 0 -1.368 1.476 -1.368 2.364c 0 1.104 0.192 2.076 0.996 2.076Z "/></symbol><symbol id="gC76A03CC6B2F66C4058A56BA6A9EE20" overflow="visible"><path d="M 0 0m 6.12 1.596v 2.076c 0 1.008 0.024 0.864 0.024 1.152c 0 0.204 -0.048 0.336 -0.12 0.408c -0.216 -0.012 -0.456 -0.024 -0.684 -0.024c -0.336 0 -1.116 0.012 -1.584 0.024c -0.072 -0.072 -0.072 -0.336 0 -0.408c 0.612 -0.06 0.804 -0.144 0.804 -1.152v -2.22c 0 -0.12 0 -0.24 0.012 -0.36c -0.492 -0.3 -0.888 -0.324 -1.104 -0.324c -0.48 0 -0.84 0.06 -0.84 0.9v 2.004c 0 1.008 0.024 0.864 0.024 1.152c 0 0.204 -0.048 0.336 -0.12 0.408c -0.216 -0.012 -0.468 -0.024 -0.684 -0.024c -0.612 0 -1.068 0.012 -1.584 0.024c -0.072 -0.072 -0.072 -0.336 0 -0.408c 0.552 -0.024 0.804 -0.144 0.804 -1.152v -1.872c 0 -1.272 0.504 -1.92 1.536 -1.92c 0.432 0 1.308 0.348 2.004 0.732c 0.024 -0.3 0.048 -0.528 0.048 -0.528c 0.012 -0.144 0.108 -0.204 0.276 -0.204c 0.444 0.12 1.164 0.288 1.992 0.396c 0.024 0.072 0 0.312 -0.024 0.384c -0.648 0.06 -0.78 0.252 -0.78 0.936Z "/></symbol><symbol id="gC2725F9DC1D542B814F24406C37F92E1" overflow="visible"><path d="M 0 0m 4.764 -0.12c 1.164 0 2.232 0.552 3.048 1.62c -0.06 0.108 -0.264 0.252 -0.396 0.252c -0.852 -0.936 -1.824 -1.248 -2.664 -1.248c -1.392 0 -2.496 1.632 -2.496 3.504c 0 1.86 0.96 3.396 2.388 3.396c 1.656 0 2.196 -0.936 2.508 -1.968c 0.144 -0.048 0.384 -0.012 0.516 0.06c -0.06 0.624 -0.156 1.2 -0.264 1.86c -0.612 0.06 -1.152 0.54 -2.628 0.54c -2.352 0 -4.332 -1.476 -4.332 -4.116c 0 -1.128 0.492 -2.448 1.452 -3.144c 0.768 -0.552 1.704 -0.756 2.868 -0.756Z "/></symbol><symbol id="g3C2E9715FB9D690A986B8F0D57F3007C" overflow="visible"><path d="M 0 0m 2.736 1.464v 2.412c 0.48 0.324 0.96 0.564 1.176 0.564c 0.48 0 0.84 -0.216 0.84 -0.9v -2.004c 0 -1.008 -0.192 -1.116 -0.684 -1.152c -0.072 -0.072 -0.072 -0.336 0 -0.408c 0.504 0.012 0.888 0.024 1.464 0.024c 0.66 0 1.188 -0.012 1.704 -0.024c 0.072 0.072 0.072 0.336 0 0.408c -0.732 0.036 -0.924 0.144 -0.924 1.152v 1.872c 0 1.32 -0.564 1.92 -1.596 1.92c -0.48 0 -1.332 -0.528 -1.992 -0.984c -0.036 0.42 -0.084 0.78 -0.084 0.78c -0.012 0.144 -0.108 0.204 -0.276 0.204c -0.444 -0.12 -1.164 -0.288 -1.992 -0.396c -0.024 -0.072 0 -0.312 0.024 -0.384c 0.66 -0.06 0.78 -0.156 0.78 -0.84v -2.244c 0 -0.996 -0.132 -1.02 -0.864 -1.08c -0.072 -0.072 -0.072 -0.336 0 -0.408c 0.504 0.012 1.008 0.024 1.644 0.024c 0.552 0 0.888 -0.012 1.404 -0.024c 0.072 0.072 0.072 0.336 0 0.408c -0.504 0.048 -0.624 0.084 -0.624 1.08Z "/></symbol><symbol id="g4DE5D42EDA42FA72D6DE464A07815109" overflow="visible"><path d="M 0 0m 4.344 7.848c -0.48 0 -3.492 -0.084 -3.972 -0.084c -0.12 -0.072 -0.12 -0.336 0 -0.408c 0.66 -0.036 0.996 -0.084 0.996 -1.08v -4.812c 0 -0.996 -0.336 -1.044 -0.996 -1.08c -0.12 -0.072 -0.12 -0.336 0 -0.408c 0.48 0.012 1.368 0.024 1.848 0.024c 0.48 0 1.344 -0.012 1.824 -0.024c 0.12 0.072 0.12 0.336 0 0.408c -0.66 0.036 -0.996 0.084 -0.996 1.08v 1.932c 0.948 0 1.056 -0.084 1.224 -0.36l 1.404 -2.088c 0.372 -0.54 0.864 -1.068 1.584 -1.068c 0.48 0 1.104 0.036 1.224 0.096c 0.048 0.084 0.036 0.312 -0.012 0.408c -0.54 0 -0.816 0.288 -1.152 0.792l -1.632 2.52c 0.648 0.264 1.584 0.888 1.584 2.112c 0 0.48 -0.18 1.2 -0.924 1.644c -0.444 0.264 -1.104 0.396 -2.004 0.396Z m 1.116 -2.244c 0 -1.476 -0.888 -1.704 -1.896 -1.704h -0.516v 2.388c 0 0.816 0.276 1.068 0.912 1.068c 0.696 0 1.5 -0.288 1.5 -1.752Z "/></symbol><symbol id="gE18113BE1243CA6EC5596891CC422939" overflow="visible"><path d="M 0 0m 5.172 1.548c -0.492 -0.504 -1.14 -0.636 -1.596 -0.636c -0.936 0 -1.512 0.54 -1.512 1.716c 0 0.084 0.012 0.132 0.012 0.192h 2.88c 0.288 0 0.348 0.204 0.348 0.372c 0 1.02 -0.396 2.136 -2.16 2.136c -1.26 0 -2.7 -1.116 -2.7 -2.952c 0 -0.696 0.252 -1.428 0.768 -1.896c 0.456 -0.408 1.044 -0.6 1.896 -0.6c 0.828 0 1.644 0.42 2.244 1.296c 0 0.156 -0.06 0.372 -0.18 0.372Z m -3.048 1.752c 0.012 0.42 0.072 0.876 0.24 1.116c 0.192 0.288 0.516 0.408 0.648 0.408c 0.324 0 0.768 -0.312 0.768 -1.272c 0 -0.072 0 -0.228 -0.024 -0.252Z "/></symbol><symbol id="g6318351890DB0E292B53BA9E457E848C" overflow="visible"><path d="M 0 0m 4.26 0.576c 0.024 -0.288 0.048 -0.492 0.048 -0.492c 0.012 -0.144 0.108 -0.204 0.276 -0.204c 0.444 0.12 1.164 0.288 1.992 0.396c 0.024 0.072 0 0.312 -0.024 0.384c -0.648 0.06 -0.78 0.252 -0.78 0.936v 5.4c 0 0.78 0.036 1.224 0.036 1.224c 0 0.108 -0.084 0.156 -0.192 0.156c -0.444 -0.144 -1.404 -0.276 -2.256 -0.312c -0.036 -0.144 -0.024 -0.3 0.036 -0.408c 0.756 -0.06 0.816 -0.072 0.816 -0.9v -1.56c -0.228 0.072 -0.516 0.132 -0.864 0.132c -1.548 0 -2.904 -1.356 -2.904 -2.952c 0 -0.708 0.252 -1.536 0.84 -1.992c 0.432 -0.336 0.732 -0.504 1.404 -0.504c 0.324 0 1.212 0.528 1.464 0.696Z m -0.036 0.564c -0.252 -0.204 -0.888 -0.468 -1.032 -0.468c -0.6 0 -1.068 0.672 -1.068 2.076c 0 0.636 0.072 1.188 0.3 1.56c 0.204 0.324 0.528 0.516 0.888 0.516c 0.312 0 0.612 -0.036 0.9 -0.432v -2.952c 0 -0.096 0 -0.204 0.012 -0.3Z "/></symbol><symbol id="g1094D23D321B642DA133CC49B1BA1EB9" overflow="visible"><path d="M 0 0m 2.784 1.464v 2.388c 0 0.6 0.048 1.272 0.048 1.272c 0 0.132 -0.108 0.204 -0.276 0.204c -0.336 -0.132 -1.308 -0.228 -2.136 -0.336c -0.024 -0.072 0 -0.312 0.024 -0.384c 0.66 -0.06 0.78 -0.156 0.78 -0.84v -2.304c 0 -0.996 -0.132 -1.02 -0.864 -1.08c -0.072 -0.072 -0.072 -0.336 0 -0.408c 0.504 0.012 1.008 0.024 1.644 0.024c 0.636 0 1.128 -0.012 1.644 -0.024c 0.072 0.072 0.072 0.336 0 0.408c -0.732 0.048 -0.864 0.084 -0.864 1.08Z m -1.62 5.688c 0 -0.396 0.288 -0.792 0.768 -0.792c 0.54 0 0.852 0.432 0.852 0.744c 0 0.36 -0.276 0.792 -0.78 0.792c -0.564 0 -0.84 -0.384 -0.84 -0.744Z "/></symbol><symbol id="g802D941971A5DE312358E16F5D16F1CA" overflow="visible"><path d="M 0 0m 4.74 7.896c -1.176 0 -2.244 -0.372 -3.072 -1.116c -0.804 -0.72 -1.272 -1.8 -1.272 -3.096c 0 -1.08 0.432 -2.196 1.26 -2.892c 0.756 -0.648 1.704 -0.912 2.964 -0.912c 1.344 0 2.64 0.408 3.408 1.056c -0.12 0.108 -0.18 0.204 -0.18 0.336v 1.404c 0 0.42 0.18 0.54 0.516 0.576c 0.072 0.072 0.072 0.372 0 0.444c -0.336 -0.012 -0.9 -0.024 -1.356 -0.024c -0.444 0 -1.236 0.012 -1.776 0.024c -0.072 -0.072 -0.072 -0.372 0 -0.444c 0.624 -0.048 0.936 -0.096 0.936 -0.576v -1.788c -0.384 -0.384 -0.672 -0.504 -1.284 -0.504c -2.028 0 -2.676 1.956 -2.676 3.54c 0 1.032 0.156 1.968 0.6 2.58c 0.468 0.636 1.128 0.888 1.764 0.888c 1.56 0 2.352 -0.924 2.652 -1.956c 0.192 -0.024 0.384 0 0.528 0.072c -0.108 0.504 -0.168 1.104 -0.252 1.968c -0.624 0 -1.26 0.42 -2.76 0.42Z "/></symbol><symbol id="gD4B05AE9CAE173022764EC3E80C7DD69" overflow="visible"><path d="M 0 0m 2.904 -2.016c 0.192 0.336 0.372 0.768 0.516 1.128c 0.96 2.316 1.548 3.612 2.184 4.956c 0.168 0.348 0.528 0.72 0.972 0.756c 0.072 0.072 0.072 0.336 0 0.408c -0.3 -0.012 -0.516 -0.024 -0.852 -0.024c -0.42 0 -0.828 0.012 -1.272 0.024c -0.072 -0.072 -0.072 -0.336 0 -0.408c 0.384 -0.036 0.768 -0.096 0.576 -0.528l -1.236 -2.772c 0 -0.012 0 -0.012 -0.012 -0.024c 0 0.012 0 0.024 -0.012 0.048l -1.116 2.508c -0.012 0.012 -0.012 0.024 -0.012 0.036c -0.216 0.468 -0.3 0.672 0.408 0.732c 0.072 0.072 0.072 0.336 0 0.408c -0.444 -0.012 -1.164 -0.024 -1.596 -0.024c -0.408 0 -1.092 0.012 -1.332 0.024c -0.072 -0.072 -0.072 -0.336 0 -0.408c 0.528 -0.048 0.624 -0.132 0.948 -0.888l 1.548 -3.552c 0.036 -0.06 0.084 -0.108 0.12 -0.156c 0.156 -0.216 0.288 -0.396 0.216 -0.564l -0.288 -0.66c -0.156 -0.372 -0.3 -0.588 -0.636 -0.588c -0.216 0 -0.252 0.048 -0.42 0.048c -0.456 0 -0.72 -0.312 -0.72 -0.552c 0 -0.156 0.036 -0.348 0.144 -0.48c 0.108 -0.132 0.312 -0.216 0.468 -0.216c 0.156 0 0.516 0.048 0.684 0.12c 0.252 0.12 0.588 0.408 0.72 0.648Z "/></symbol><symbol id="gEF03CC905B39DF2CE13E9EED9CECE9CC" overflow="visible"><path d="M 0 0m 5.064 1.044c 0 0.144 -0.024 0.372 -0.156 0.372c -0.48 -0.444 -0.888 -0.672 -1.236 -0.672c -0.9 0 -1.608 0.648 -1.608 2.088c 0 1.332 0.3 1.992 0.936 1.992c 0.444 0 0.624 -0.468 0.66 -0.852c 0.036 -0.324 0.36 -0.564 0.744 -0.564c 0.384 0 0.66 0.3 0.66 0.672c 0 0.54 -0.648 1.248 -1.956 1.248c -1.416 0 -2.664 -1.14 -2.664 -2.916c 0 -0.78 0.276 -1.464 0.744 -1.908c 0.468 -0.444 1.02 -0.624 1.872 -0.624c 0.72 0 1.548 0.504 2.004 1.164Z "/></symbol><symbol id="g966BE685B7523A33FA7C5091B1A7882" overflow="visible"><path d="M 0 0m 1.2 1.524c 0 -0.996 -0.192 -1.104 -0.924 -1.14c -0.072 -0.072 -0.072 -0.336 0 -0.408c 0.504 0.012 1.044 0.024 1.704 0.024c 0.66 0 1.188 -0.012 1.704 -0.024c 0.072 0.072 0.072 0.336 0 0.408c -0.732 0.036 -0.924 0.144 -0.924 1.14v 5.472c 0 0.78 0.036 1.224 0.036 1.224c 0 0.108 -0.084 0.156 -0.192 0.156c -0.444 -0.144 -1.404 -0.276 -2.256 -0.312c -0.036 -0.144 -0.024 -0.276 0.036 -0.384c 0.756 -0.06 0.816 -0.072 0.816 -0.9Z "/></symbol><symbol id="g8D1B85E3ABA097AFFEFA8B147B26839C" overflow="visible"><path d="M 0 0m 1.24 0.632l 0.44 1.16c 0.04 0.104 0.088 0.136 0.28 0.136h 1.688l 0.464 -1.352c 0.096 -0.272 -0.208 -0.304 -0.592 -0.328c -0.048 -0.048 -0.048 -0.216 0 -0.264c 0.296 0.008 0.736 0.016 1.048 0.016c 0.328 0 0.632 -0.008 0.912 -0.016c 0.048 0.048 0.048 0.216 0 0.264c -0.312 0.032 -0.584 0.056 -0.72 0.44l -1.648 4.576c -0.12 -0.072 -0.336 -0.16 -0.44 -0.16l -1.816 -4.288c -0.208 -0.496 -0.448 -0.544 -0.8 -0.568c -0.048 -0.048 -0.048 -0.216 0 -0.264c 0.208 0.008 0.472 0.016 0.712 0.016c 0.328 0 0.728 -0.008 1.024 -0.016c 0.048 0.048 0.048 0.216 0 0.264c -0.304 0.024 -0.68 0.056 -0.552 0.384Z m 0.864 1.632c -0.176 0 -0.232 0.024 -0.2 0.104l 0.816 2.072h 0.048l 0.752 -2.176Z "/></symbol><symbol id="g13CDF673763F5DB9C25A9A976EDAD0A7" overflow="visible"><path d="M 0 0m 2.672 0.4c 0.04 0.032 0.112 0.048 0.12 -0.008c 0.024 -0.192 0.088 -0.472 0.088 -0.472c 0.064 -0.024 0.104 -0.016 0.152 0c 0.176 0.144 0.456 0.264 0.944 0.32c 0.048 0.048 0.048 0.168 0 0.216c -0.512 0.04 -0.584 0.192 -0.584 0.584v 3.624c 0 0.52 0.032 0.84 0.032 0.84c 0 0.056 -0.032 0.08 -0.104 0.08c -0.2 -0.08 -0.8 -0.192 -1.12 -0.216c -0.016 -0.064 0 -0.192 0.048 -0.24c 0.024 0 0.048 0 0.072 0c 0.352 -0.024 0.44 -0.024 0.44 -0.656v -1.024c 0 -0.056 -0.016 -0.072 -0.072 -0.072c -0.032 0 -0.36 0.136 -0.624 0.136c -0.528 0 -0.88 -0.176 -1.2 -0.48c -0.344 -0.344 -0.552 -0.816 -0.552 -1.408c 0 -0.984 0.496 -1.704 1.36 -1.704c 0.312 0 0.608 0.16 1 0.48Z m 0.088 0.592c 0 -0.152 -0.016 -0.216 -0.128 -0.312c -0.296 -0.256 -0.552 -0.384 -0.752 -0.384c -0.432 0 -0.88 0.472 -0.88 1.472c 0 0.576 0.112 0.896 0.232 1.064c 0.248 0.376 0.584 0.4 0.744 0.4c 0.288 0 0.488 -0.104 0.648 -0.288c 0.112 -0.128 0.136 -0.184 0.136 -0.432Z "/></symbol><symbol id="g20EDBE1E989F56AA9FBFD4A2EF5BDC35" overflow="visible"><path d="M 0 0m 3.088 0.744c -0.296 -0.304 -0.528 -0.432 -0.992 -0.432c -0.288 0 -0.624 0.168 -0.872 0.576c -0.16 0.264 -0.256 0.632 -0.256 1.096l 2.128 -0.016c 0.096 0 0.152 0.048 0.152 0.136c 0 0.672 -0.24 1.392 -1.352 1.392c -0.696 0 -1.6 -0.664 -1.6 -1.88c 0 -0.448 0.112 -0.88 0.376 -1.184c 0.272 -0.32 0.648 -0.512 1.224 -0.512c 0.608 0 1.04 0.28 1.36 0.696c -0.024 0.08 -0.072 0.12 -0.168 0.128Z m -2.096 1.512c 0.152 0.904 0.712 0.976 0.904 0.976c 0.304 0 0.664 -0.168 0.664 -0.84c 0 -0.072 -0.032 -0.112 -0.12 -0.112Z "/></symbol><symbol id="g9CB01113ED99ABC5A5F75E5016C1499E" overflow="visible"><path d="M 0 0m 0.76 0.976c 0 -0.664 -0.088 -0.704 -0.576 -0.728c -0.048 -0.048 -0.048 -0.216 0 -0.264c 0.28 0.008 0.576 0.016 0.896 0.016c 0.32 0 0.624 -0.008 0.888 -0.016c 0.048 0.048 0.048 0.216 0 0.264c -0.488 0.024 -0.576 0.064 -0.576 0.728v 3.688c 0 0.52 0.032 0.84 0.032 0.84c 0 0.056 -0.032 0.08 -0.104 0.08c -0.2 -0.08 -0.8 -0.192 -1.12 -0.216c -0.016 -0.064 0 -0.192 0.048 -0.24c 0.464 -0.032 0.512 -0.056 0.512 -0.656Z "/></symbol><symbol id="g2BFBF805A6B9D0BF9A5DDB8FE340411" overflow="visible"><path d="M 0 0m 1.448 0.976v 1.592c 0 0.4 0.032 0.912 0.032 0.912c 0 0.032 -0.04 0.056 -0.104 0.056c -0.224 -0.088 -0.544 -0.16 -1.096 -0.232c -0.016 -0.048 0 -0.176 0.016 -0.224c 0.44 -0.04 0.52 -0.088 0.52 -0.544v -1.56c 0 -0.664 -0.088 -0.688 -0.576 -0.728c -0.048 -0.048 -0.048 -0.216 0 -0.264c 0.264 0.008 0.576 0.016 0.896 0.016c 0.32 0 0.624 -0.008 0.888 -0.016c 0.048 0.048 0.048 0.216 0 0.264c -0.488 0.032 -0.576 0.064 -0.576 0.728Z m -0.728 3.816c 0 -0.208 0.192 -0.416 0.384 -0.416c 0.224 0 0.416 0.216 0.416 0.384c 0 0.192 -0.168 0.416 -0.384 0.416c -0.192 0 -0.416 -0.192 -0.416 -0.384Z "/></symbol><symbol id="g8C602F113ED136B9EC97C2B861CC969C" overflow="visible"><path d="M 0 0m 2.856 -0.08c 0.776 0 1.488 0.368 2.032 1.08c -0.04 0.072 -0.096 0.12 -0.184 0.12c -0.568 -0.624 -1.112 -0.872 -1.856 -0.872c -1.08 0 -1.824 1.216 -1.824 2.384c 0 0.688 0.184 1.264 0.472 1.624c 0.4 0.488 0.864 0.712 1.28 0.712c 1.104 0 1.544 -0.656 1.752 -1.344c 0.096 -0.032 0.176 -0.008 0.264 0.04c -0.04 0.416 -0.096 0.8 -0.176 1.24c -0.408 0.04 -0.768 0.36 -1.752 0.36c -0.68 0 -1.248 -0.248 -1.72 -0.68c -0.528 -0.488 -0.848 -1.272 -0.848 -2.104c 0 -1.392 0.84 -2.56 2.56 -2.56Z "/></symbol><symbol id="gD6C08740CFCAAF86BCA909E63B9538D" overflow="visible"><path d="M 0 0m 1.336 2.288c 0 0.168 0.072 0.264 0.136 0.336c 0.304 0.296 0.712 0.472 1.024 0.472c 0.16 0 0.328 -0.104 0.424 -0.288c 0.08 -0.16 0.096 -0.376 0.096 -0.616v -1.216c 0 -0.656 -0.08 -0.688 -0.496 -0.728c -0.04 -0.048 -0.04 -0.216 0 -0.264c 0.224 0.008 0.496 0.016 0.816 0.016c 0.32 0 0.584 -0.008 0.848 -0.016c 0.04 0.048 0.04 0.216 0 0.264c -0.448 0.04 -0.536 0.072 -0.536 0.728v 1.192c 0 0.44 -0.032 0.832 -0.216 1.072c -0.136 0.176 -0.384 0.272 -0.664 0.272c -0.392 0 -0.872 -0.104 -1.36 -0.648c 0 -0.008 -0.008 -0.008 -0.016 -0.016c -0.024 -0.032 -0.064 -0.08 -0.064 0.016l 0.008 1.8c 0 0.52 0.032 0.84 0.032 0.84c 0 0.056 -0.032 0.08 -0.104 0.08c -0.2 -0.08 -0.8 -0.192 -1.12 -0.216c -0.016 -0.064 0 -0.192 0.048 -0.24c 0.024 0 0.048 0 0.072 0c 0.352 -0.024 0.44 -0.024 0.44 -0.656v -3.496c 0 -0.664 -0.096 -0.696 -0.56 -0.728c -0.048 -0.048 -0.048 -0.216 0 -0.264c 0.264 0.008 0.56 0.016 0.88 0.016c 0.304 0 0.568 -0.008 0.792 -0.016c 0.048 0.048 0.048 0.216 0 0.264c -0.408 0.032 -0.48 0.064 -0.48 0.728Z "/></symbol><symbol id="g737E31D6A5E93E22E9ED4AD10D42FE71" overflow="visible"><path d="M 0 0m 1.472 2.864c -0.048 -0.056 -0.096 -0.072 -0.096 0c -0.008 0.216 -0.024 0.528 -0.064 0.608c -0.016 0.04 -0.032 0.064 -0.096 0.064c -0.224 -0.088 -0.432 -0.16 -0.984 -0.232c -0.016 -0.048 0 -0.176 0.016 -0.224c 0.432 -0.04 0.52 -0.08 0.52 -0.544v -1.56c 0 -0.656 -0.08 -0.688 -0.56 -0.728c -0.048 -0.048 -0.048 -0.216 0 -0.264c 0.24 0.008 0.56 0.016 0.88 0.016c 0.32 0 0.56 -0.008 0.8 -0.016c 0.048 0.048 0.048 0.216 0 0.264c -0.408 0.04 -0.488 0.072 -0.488 0.728v 1.312c 0 0.168 0.072 0.264 0.136 0.336c 0.304 0.296 0.664 0.472 0.976 0.472c 0.16 0 0.328 -0.104 0.424 -0.288c 0.08 -0.16 0.096 -0.376 0.096 -0.616v -1.216c 0 -0.656 -0.08 -0.688 -0.496 -0.728c -0.04 -0.048 -0.04 -0.216 0 -0.264c 0.24 0.008 0.496 0.016 0.816 0.016c 0.32 0 0.608 -0.008 0.848 -0.016c 0.04 0.048 0.04 0.216 0 0.264c -0.448 0.04 -0.536 0.072 -0.536 0.728v 1.192c 0 0.44 -0.032 0.824 -0.216 1.072c -0.136 0.176 -0.384 0.272 -0.664 0.272c -0.392 0 -0.84 -0.104 -1.312 -0.648Z "/></symbol><symbol id="g86ABD9B98157573BF6882A43FA434742" overflow="visible"><path d="M 0 0m 0.384 1.104c 0.032 -0.392 0.056 -0.768 0.056 -1.104c 0.08 0.016 0.16 0.024 0.2 0.024c 0.056 0 0.104 0 0.16 -0.016c 0.216 -0.056 0.432 -0.088 0.728 -0.088c 0.448 0 1.272 0.216 1.272 1.008c 0 0.544 -0.392 0.864 -0.936 1.064c -0.48 0.184 -0.8 0.304 -0.8 0.744c 0 0.328 0.288 0.512 0.56 0.512c 0.176 0 0.64 -0.064 0.744 -0.744c 0.048 -0.048 0.208 -0.04 0.256 0.008c 0.024 0.288 0.04 0.584 0.048 0.848c -0.248 0.04 -0.632 0.152 -1.048 0.152c -0.592 0 -1.128 -0.384 -1.128 -0.896c 0 -0.584 0.264 -0.832 0.88 -1.088c 0.664 -0.272 0.816 -0.44 0.816 -0.784c 0 -0.392 -0.384 -0.56 -0.68 -0.56c -0.312 0 -0.488 0.104 -0.568 0.192c -0.176 0.184 -0.264 0.536 -0.312 0.736c -0.048 0.048 -0.2 0.04 -0.248 -0.008Z "/></symbol><symbol id="g3078E795B3E2291E912DCDEB76EE36F" overflow="visible"><path d="M 0 0m 0.344 3.432c -0.112 0 -0.144 -0.096 -0.144 -0.16v -0.104c 0 -0.04 0.008 -0.048 0.04 -0.048h 0.472v -2.408c 0 -0.568 0.248 -0.792 0.616 -0.792c 0.368 0 0.768 0.176 1.08 0.528c -0.016 0.08 -0.064 0.128 -0.144 0.136c -0.208 -0.16 -0.448 -0.224 -0.656 -0.224c -0.216 0 -0.264 0.24 -0.264 0.736v 2.024h 0.832c 0.08 0 0.192 0.032 0.192 0.104v 0.16c 0 0.032 -0.024 0.048 -0.064 0.048h -0.96v 0.312c 0 0.52 0.032 0.84 0.032 0.84c 0 0.048 -0.024 0.072 -0.064 0.072c -0.032 0 -0.104 -0.032 -0.176 -0.072c -0.088 -0.048 -0.168 -0.088 -0.272 -0.112c -0.096 -0.032 -0.176 -0.056 -0.176 -0.112c 0 -0.096 0.024 -0.04 0.024 -0.928Z "/></symbol><symbol id="gF14903D79C881A9B6AC2EE7D8BED6F03" overflow="visible"><path d="M 0 0m 1.408 2.864c -0.016 0.32 -0.024 0.528 -0.064 0.608c -0.016 0.04 -0.032 0.064 -0.096 0.064c -0.224 -0.088 -0.432 -0.16 -0.984 -0.232c -0.016 -0.048 0 -0.176 0.016 -0.224c 0.432 -0.04 0.52 -0.08 0.52 -0.544v -1.56c 0 -0.664 -0.096 -0.696 -0.592 -0.728c -0.048 -0.048 -0.048 -0.216 0 -0.264c 0.28 0.008 0.592 0.016 0.912 0.016c 0.32 0 0.688 -0.008 0.968 -0.016c 0.048 0.048 0.048 0.216 0 0.264c -0.56 0.04 -0.656 0.064 -0.656 0.728v 1.112c 0 0.208 0.096 0.392 0.192 0.536c 0.088 0.128 0.272 0.392 0.368 0.392c 0.072 0 0.144 -0.016 0.208 -0.104c 0.056 -0.08 0.152 -0.184 0.288 -0.184c 0.192 0 0.376 0.2 0.376 0.4c 0 0.152 -0.144 0.384 -0.48 0.384c -0.376 0 -0.704 -0.352 -0.888 -0.664c -0.048 -0.088 -0.088 -0.024 -0.088 0.016Z "/></symbol><symbol id="g7CADDE05683A2F282E92796EAE7002E6" overflow="visible"><path d="M 0 0m 2.344 0.384c 0.048 -0.248 0.136 -0.464 0.536 -0.464c 0.304 0 0.592 0.136 0.76 0.296c -0.016 0.096 -0.048 0.168 -0.136 0.216c -0.056 -0.048 -0.192 -0.128 -0.296 -0.128c -0.232 0 -0.24 0.312 -0.24 0.68v 1.176c 0 1.136 -0.624 1.352 -1.208 1.352c -0.656 0 -1.32 -0.432 -1.32 -0.888c 0 -0.192 0.096 -0.288 0.28 -0.288c 0.232 0 0.376 0.168 0.376 0.272c 0 0.056 -0.008 0.112 -0.024 0.144c -0.008 0.024 -0.016 0.072 -0.016 0.16c 0 0.248 0.336 0.336 0.64 0.336c 0.272 0 0.648 -0.136 0.648 -1.04c 0 -0.056 -0.024 -0.088 -0.048 -0.096l -0.688 -0.168c -0.768 -0.192 -1.32 -0.616 -1.32 -1.16c 0 -0.656 0.448 -0.864 1.008 -0.864c 0.28 0 0.52 0.064 0.872 0.336l 0.16 0.128Z m 0 1.48v -1.056c 0 -0.104 -0.048 -0.16 -0.112 -0.208c -0.208 -0.168 -0.48 -0.352 -0.704 -0.352c -0.4 0 -0.576 0.32 -0.576 0.568c 0 0.36 0.168 0.728 0.76 0.88Z "/></symbol><symbol id="gE3B745958568E02614BCAB4547DCA2F1" overflow="visible"><path d="M 0 0m 1.248 2.944c -0.008 0.24 -0.024 0.448 -0.064 0.528c -0.016 0.04 -0.032 0.064 -0.096 0.064c -0.224 -0.088 -0.432 -0.16 -0.984 -0.232c -0.016 -0.048 0 -0.176 0.016 -0.224c 0.432 -0.04 0.52 -0.08 0.52 -0.544v -3.416c 0 -0.664 -0.088 -0.704 -0.576 -0.728c -0.048 -0.048 -0.048 -0.216 0 -0.264c 0.28 0.008 0.576 0.016 0.896 0.016c 0.32 0 0.704 -0.008 0.968 -0.016c 0.048 0.048 0.048 0.216 0 0.264c -0.568 0.032 -0.656 0.064 -0.656 0.728v 0.864c 0 0.104 0.032 0.096 0.112 0.064c 0.2 -0.08 0.44 -0.128 0.696 -0.128c 0.448 0 0.848 0.136 1.176 0.448c 0.376 0.368 0.592 0.864 0.592 1.512c 0 0.848 -0.6 1.632 -1.416 1.632c -0.368 0 -0.776 -0.24 -1.096 -0.6c -0.048 -0.048 -0.08 -0.048 -0.088 0.032Z m 0.152 -0.296c 0.208 0.256 0.576 0.496 0.808 0.496c 0.512 0 0.952 -0.576 0.952 -1.48c 0 -0.656 -0.232 -1.472 -1.128 -1.472c -0.144 0 -0.424 0.04 -0.568 0.168c -0.16 0.144 -0.192 0.192 -0.192 0.48v 1.456c 0 0.168 0.032 0.24 0.128 0.352Z "/></symbol><symbol id="gB6B829643FAC67A26EA335D5C5653A06" overflow="visible"><path d="M 0 0m 3.016 5.264c -1.336 0 -2.72 -1.048 -2.72 -2.808c 0 -1.44 0.992 -2.536 2.52 -2.536c 0.944 0 1.688 0.2 2.232 0.664c -0.088 0.072 -0.128 0.136 -0.128 0.224v 0.928c 0 0.28 0.136 0.36 0.368 0.384c 0.048 0.048 0.048 0.24 0 0.288c -0.192 -0.008 -0.392 -0.016 -0.712 -0.016c -0.264 0 -0.64 0.008 -0.992 0.016c -0.048 -0.048 -0.048 -0.24 0 -0.288c 0.44 -0.032 0.656 -0.064 0.656 -0.384v -1.224c -0.272 -0.256 -0.808 -0.304 -1.24 -0.304c -1.264 0 -1.936 1.352 -1.936 2.408c 0 1.4 0.912 2.36 1.84 2.36c 1.16 0 1.488 -0.664 1.696 -1.352c 0.088 -0.008 0.176 0.008 0.264 0.048c -0.016 0.336 -0.056 0.656 -0.184 1.232c -0.48 0.08 -0.776 0.36 -1.664 0.36Z "/></symbol><symbol id="g2B678EF10194558DA6DED0CDF87DA3E4" overflow="visible"><path d="M 0 0m 0.328 1.64c 0 -0.816 0.544 -1.72 1.68 -1.72c 0.512 0 0.904 0.184 1.176 0.448c 0.36 0.352 0.52 0.856 0.52 1.344c 0 0.832 -0.456 1.8 -1.68 1.8c -0.528 0 -0.96 -0.216 -1.256 -0.56c -0.288 -0.344 -0.44 -0.808 -0.44 -1.312Z m 1.576 1.592c 0.688 0 1.112 -0.624 1.112 -1.776c 0 -1.008 -0.52 -1.256 -0.896 -1.256c -0.832 0 -1.104 1.008 -1.104 1.624c 0 0.696 0.168 1.408 0.888 1.408Z "/></symbol><symbol id="g97663EC9AEA74EADA07472643E1BE1B4" overflow="visible"><path d="M 0 0m 1.824 -0.08c 0.616 0 1.552 0.624 1.552 2.504c 0 0.792 -0.192 1.472 -0.544 1.936c -0.208 0.28 -0.544 0.52 -0.976 0.52c -0.792 0 -1.544 -0.944 -1.544 -2.528c 0 -0.856 0.264 -1.656 0.704 -2.096c 0.224 -0.224 0.496 -0.336 0.808 -0.336Z m 0.032 4.68c 0.136 0 0.264 -0.048 0.36 -0.136c 0.248 -0.208 0.464 -0.816 0.464 -1.888c 0 -0.736 -0.024 -1.24 -0.136 -1.648c -0.176 -0.656 -0.568 -0.728 -0.712 -0.728c -0.744 0 -0.824 1.368 -0.824 2.064c 0 1.968 0.488 2.336 0.848 2.336Z "/></symbol><symbol id="gAD9C87F854BDA42EDABFFB35EC1FA84E" overflow="visible"><path d="M 0 0m 0.488 3.744c 0 -0.168 0.152 -0.312 0.32 -0.312c 0.136 0 0.376 0.144 0.376 0.32c 0 0.064 -0.016 0.112 -0.032 0.168c -0.016 0.056 -0.064 0.128 -0.064 0.192c 0 0.2 0.208 0.488 0.792 0.488c 0.288 0 0.696 -0.2 0.696 -0.968c 0 -0.512 -0.184 -0.928 -0.656 -1.408l -0.592 -0.584c -0.784 -0.8 -0.912 -1.184 -0.912 -1.656c 0 0 0.408 0.016 0.664 0.016h 1.4c 0.256 0 0.624 -0.016 0.624 -0.016c 0.104 0.424 0.184 1.024 0.192 1.264c -0.048 0.04 -0.152 0.056 -0.232 0.04c -0.136 -0.568 -0.272 -0.768 -0.56 -0.768h -1.424c 0 0.384 0.552 0.928 0.592 0.968l 0.808 0.776c 0.456 0.44 0.8 0.792 0.8 1.4c 0 0.864 -0.704 1.216 -1.352 1.216c -0.888 0 -1.44 -0.656 -1.44 -1.136Z "/></symbol><symbol id="gF821431C61A4D7F3ECEFEC074E9C0EFC" overflow="visible"><path d="M 0 0m 3.44 1.752h -0.664v 2.336c 0 0.4 0 0.712 0.016 0.776l -0.016 0.016h -0.256c -0.056 0 -0.096 -0.048 -0.128 -0.088c -0.504 -0.616 -1.432 -1.936 -2.168 -3.08c 0.024 -0.12 0.072 -0.336 0.312 -0.336h 1.632v -0.736c 0 -0.368 -0.304 -0.368 -0.648 -0.392c -0.048 -0.048 -0.048 -0.216 0 -0.264c 0.256 0.008 0.576 0.016 0.944 0.016c 0.312 0 0.616 -0.008 0.872 -0.016c 0.048 0.048 0.048 0.216 0 0.264c -0.392 0.032 -0.56 0.016 -0.56 0.392v 0.736h 0.552c 0.112 0 0.232 0.152 0.232 0.248c 0 0.08 -0.032 0.128 -0.12 0.128Z m -1.272 2.304v -2.304h -1.528c 0.408 0.656 0.976 1.552 1.528 2.304Z "/></symbol><symbol id="gAFC6ADE0F4BA5C584B85DD0E8532505B" overflow="visible"><path d="M 0 0m 1.152 2.744c 0.216 0.728 0.728 1.536 1.792 1.936c 0 0.096 -0.032 0.168 -0.096 0.208c -0.808 -0.24 -1.304 -0.576 -1.752 -1.096c -0.496 -0.576 -0.744 -1.304 -0.744 -1.936c 0 -1.624 0.92 -1.944 1.536 -1.944c 1.048 0 1.48 1.016 1.48 1.704c 0 0.688 -0.368 1.304 -1.456 1.304c -0.208 0 -0.52 -0.064 -0.76 -0.176Z m -0.072 -0.288c 0.264 0.176 0.528 0.184 0.664 0.184c 0.784 0 0.96 -0.768 0.96 -1.168c 0 -0.88 -0.336 -1.28 -0.728 -1.28c -0.504 0 -0.96 0.272 -0.96 1.64c 0 0.184 0.016 0.392 0.064 0.624Z "/></symbol><symbol id="g7A967AE9E3CD4C643CC5E64A109A19AA" overflow="visible"><path d="M 0 0m 3.144 3.88c 0 0.576 -0.448 1 -1.232 1c -0.816 0 -1.344 -0.488 -1.344 -1.104c 0 -0.448 0.216 -0.776 0.704 -1.08l 0.208 -0.128c -0.232 -0.12 -0.448 -0.264 -0.648 -0.44c -0.328 -0.288 -0.464 -0.648 -0.464 -0.96c 0 -0.816 0.576 -1.248 1.424 -1.248c 1.048 0 1.56 0.768 1.56 1.376c 0 0.464 -0.2 0.872 -0.624 1.128l -0.568 0.344c 0.376 0.184 0.984 0.6 0.984 1.112Z m -1.336 -3.68c -0.36 0 -0.904 0.248 -0.904 0.968c 0 0.24 0.104 0.8 0.792 1.256l 0.376 -0.224c 0.496 -0.304 0.696 -0.68 0.696 -1.064c 0 -0.8 -0.6 -0.936 -0.96 -0.936Z m 0.064 4.4c 0.52 0 0.712 -0.344 0.712 -0.712c 0 -0.432 -0.424 -0.792 -0.64 -0.952l -0.248 0.152c -0.504 0.328 -0.56 0.592 -0.56 0.84c 0 0.368 0.256 0.672 0.736 0.672Z "/></symbol><symbol id="g8C50DFC0B8272CD73341C65811BD0E92" overflow="visible"><path d="M 0 0m 2.304 0.976v 2.776c 0 0.48 0.008 0.968 0.024 1.072c 0 0.04 -0.016 0.04 -0.048 0.04c -0.44 -0.272 -0.864 -0.472 -1.568 -0.8c 0.016 -0.088 0.048 -0.168 0.12 -0.216c 0.368 0.152 0.544 0.2 0.696 0.2c 0.136 0 0.16 -0.192 0.16 -0.464v -2.608c 0 -0.664 -0.216 -0.704 -0.776 -0.728c -0.048 -0.048 -0.048 -0.216 0 -0.264c 0.392 0.008 0.68 0.016 1.112 0.016c 0.384 0 0.576 -0.008 0.976 -0.016c 0.048 0.048 0.048 0.216 0 0.264c -0.56 0.024 -0.696 0.064 -0.696 0.728Z "/></symbol><symbol id="gA877B80847B622C91F0EE0DF55B2CE6F" overflow="visible"><path d="M 0 0m 3.555 5.679c -0.522 0.072 -0.504 0.243 -1.386 0.243c -0.909 0 -1.71 -0.603 -1.71 -1.557c 0 -0.945 0.783 -1.377 1.575 -1.683c 0.54 -0.207 1.206 -0.459 1.206 -1.341c 0 -0.729 -0.405 -1.107 -1.125 -1.107c -0.837 0 -1.377 0.387 -1.575 1.278c -0.117 0.036 -0.207 0.018 -0.297 -0.027c 0.036 -0.693 0.072 -0.927 0.18 -1.368c 0.567 0 0.819 -0.207 1.62 -0.207c 0.405 0 0.792 0.099 1.107 0.297c 0.522 0.324 0.846 0.873 0.846 1.449c 0 0.954 -0.72 1.377 -1.458 1.656c -0.54 0.198 -1.44 0.54 -1.44 1.296c 0 0.504 0.459 1.008 0.99 1.008c 0.873 0 1.152 -0.558 1.332 -1.152c 0.099 -0.018 0.216 -0.009 0.297 0.054c -0.036 0.432 -0.072 0.684 -0.162 1.161Z "/></symbol><symbol id="g4F94A37786D24AC11F1E2C6578232409" overflow="visible"><path d="M 0 0m 1.404 3.312c -0.009 0.27 -0.027 0.504 -0.072 0.594c -0.018 0.045 -0.036 0.072 -0.108 0.072c -0.252 -0.099 -0.486 -0.18 -1.107 -0.261c -0.018 -0.054 0 -0.198 0.018 -0.252c 0.486 -0.045 0.585 -0.09 0.585 -0.612v -3.843c 0 -0.747 -0.099 -0.792 -0.648 -0.819c -0.054 -0.054 -0.054 -0.243 0 -0.297c 0.315 0.009 0.648 0.018 1.008 0.018c 0.36 0 0.792 -0.009 1.089 -0.018c 0.054 0.054 0.054 0.243 0 0.297c -0.639 0.036 -0.738 0.072 -0.738 0.819v 0.972c 0 0.117 0.036 0.108 0.126 0.072c 0.225 -0.09 0.495 -0.144 0.783 -0.144c 0.504 0 0.954 0.153 1.323 0.504c 0.423 0.414 0.666 0.972 0.666 1.701c 0 0.954 -0.675 1.836 -1.593 1.836c -0.414 0 -0.873 -0.27 -1.233 -0.675c -0.054 -0.054 -0.09 -0.054 -0.099 0.036Z m 0.171 -0.333c 0.234 0.288 0.648 0.558 0.909 0.558c 0.576 0 1.071 -0.648 1.071 -1.665c 0 -0.738 -0.261 -1.656 -1.269 -1.656c -0.162 0 -0.477 0.045 -0.639 0.189c -0.18 0.162 -0.216 0.216 -0.216 0.54v 1.638c 0 0.189 0.036 0.27 0.144 0.396Z "/></symbol><symbol id="g15283247E004048E8F39F157505A0F31" overflow="visible"><path d="M 0 0m 3.474 0.837c -0.333 -0.342 -0.594 -0.486 -1.116 -0.486c -0.324 0 -0.702 0.189 -0.981 0.648c -0.18 0.297 -0.288 0.711 -0.288 1.233l 2.394 -0.018c 0.108 0 0.171 0.054 0.171 0.153c 0 0.756 -0.27 1.566 -1.521 1.566c -0.783 0 -1.8 -0.747 -1.8 -2.115c 0 -0.504 0.126 -0.99 0.423 -1.332c 0.306 -0.36 0.729 -0.576 1.377 -0.576c 0.684 0 1.17 0.315 1.53 0.783c -0.027 0.09 -0.081 0.135 -0.189 0.144Z m -2.358 1.701c 0.171 1.017 0.801 1.098 1.017 1.098c 0.342 0 0.747 -0.189 0.747 -0.945c 0 -0.081 -0.036 -0.126 -0.135 -0.126Z "/></symbol><symbol id="gECB1CD146348D219847309C79C322A37" overflow="visible"><path d="M 0 0m 3.582 0.819c -0.036 0.081 -0.108 0.117 -0.189 0.126c -0.306 -0.396 -0.693 -0.594 -1.08 -0.594c -0.657 0 -1.206 0.666 -1.206 1.719c 0 0.99 0.432 1.584 1.026 1.584c 0.531 0 0.603 -0.315 0.639 -0.63c 0.027 -0.243 0.153 -0.324 0.342 -0.324c 0.189 0 0.441 0.117 0.441 0.396c 0 0.495 -0.513 0.855 -1.377 0.855c -0.891 0 -1.845 -0.801 -1.845 -2.079c 0 -1.161 0.648 -1.962 1.782 -1.962c 0.54 0 1.017 0.171 1.467 0.909Z "/></symbol><symbol id="gEDE113971A7C9D129D6A2104959F55B2" overflow="visible"><path d="M 0 0m 1.629 1.098v 1.791c 0 0.45 0.036 1.026 0.036 1.026c 0 0.036 -0.045 0.063 -0.117 0.063c -0.252 -0.099 -0.612 -0.18 -1.233 -0.261c -0.018 -0.054 0 -0.198 0.018 -0.252c 0.495 -0.045 0.585 -0.099 0.585 -0.612v -1.755c 0 -0.747 -0.099 -0.774 -0.648 -0.819c -0.054 -0.054 -0.054 -0.243 0 -0.297c 0.297 0.009 0.648 0.018 1.008 0.018c 0.36 0 0.702 -0.009 0.999 -0.018c 0.054 0.054 0.054 0.243 0 0.297c -0.549 0.036 -0.648 0.072 -0.648 0.819Z m -0.819 4.293c 0 -0.234 0.216 -0.468 0.432 -0.468c 0.252 0 0.468 0.243 0.468 0.432c 0 0.216 -0.189 0.468 -0.432 0.468c -0.216 0 -0.468 -0.216 -0.468 -0.432Z "/></symbol><symbol id="gA1FEA12DCE93D0EA0BBFC1201B9D8E1C" overflow="visible"><path d="M 0 0m 0.432 1.242c 0.036 -0.441 0.063 -0.864 0.063 -1.242c 0.09 0.018 0.18 0.027 0.225 0.027c 0.063 0 0.117 0 0.18 -0.018c 0.243 -0.063 0.486 -0.099 0.819 -0.099c 0.504 0 1.431 0.243 1.431 1.134c 0 0.612 -0.441 0.972 -1.053 1.197c -0.54 0.207 -0.9 0.342 -0.9 0.837c 0 0.369 0.324 0.576 0.63 0.576c 0.198 0 0.72 -0.072 0.837 -0.837c 0.054 -0.054 0.234 -0.045 0.288 0.009c 0.027 0.324 0.045 0.657 0.054 0.954c -0.279 0.045 -0.711 0.171 -1.179 0.171c -0.666 0 -1.269 -0.432 -1.269 -1.008c 0 -0.657 0.297 -0.936 0.99 -1.224c 0.747 -0.306 0.918 -0.495 0.918 -0.882c 0 -0.441 -0.432 -0.63 -0.765 -0.63c -0.351 0 -0.549 0.117 -0.639 0.216c -0.198 0.207 -0.297 0.603 -0.351 0.828c -0.054 0.054 -0.225 0.045 -0.279 -0.009Z "/></symbol><symbol id="gC375F277B20C2526627B56EF0039913" overflow="visible"><path d="M 0 0m 3.213 -0.09c 0.873 0 1.674 0.414 2.286 1.215c -0.045 0.081 -0.108 0.135 -0.207 0.135c -0.639 -0.702 -1.251 -0.981 -2.088 -0.981c -1.215 0 -2.052 1.368 -2.052 2.682c 0 0.774 0.207 1.422 0.531 1.827c 0.45 0.549 0.972 0.801 1.44 0.801c 1.242 0 1.737 -0.738 1.971 -1.512c 0.108 -0.036 0.198 -0.009 0.297 0.045c -0.045 0.468 -0.108 0.9 -0.198 1.395c -0.459 0.045 -0.864 0.405 -1.971 0.405c -0.765 0 -1.404 -0.279 -1.935 -0.765c -0.594 -0.549 -0.954 -1.431 -0.954 -2.367c 0 -1.566 0.945 -2.88 2.88 -2.88Z "/></symbol><symbol id="gF71CD90141C058754731CB923424AFF5" overflow="visible"><path d="M 0 0m 0.369 1.845c 0 -0.918 0.612 -1.935 1.89 -1.935c 0.576 0 1.017 0.207 1.323 0.504c 0.405 0.396 0.585 0.963 0.585 1.512c 0 0.936 -0.513 2.025 -1.89 2.025c -0.594 0 -1.08 -0.243 -1.413 -0.63c -0.324 -0.387 -0.495 -0.909 -0.495 -1.476Z m 1.773 1.791c 0.774 0 1.251 -0.702 1.251 -1.998c 0 -1.134 -0.585 -1.413 -1.008 -1.413c -0.936 0 -1.242 1.134 -1.242 1.827c 0 0.783 0.189 1.584 0.999 1.584Z "/></symbol><symbol id="gB47AF1E8EB8505E9D708624CF420FCE1" overflow="visible"><path d="M 0 0m 1.953 -0.09c 0.351 0 0.774 0.18 1.215 0.54c 0.045 0.036 0.126 0.054 0.135 -0.009c 0.027 -0.225 0.099 -0.531 0.099 -0.531c 0.072 -0.027 0.117 -0.018 0.171 0c 0.198 0.162 0.513 0.297 1.062 0.36c 0.054 0.054 0.054 0.189 0 0.243c -0.576 0.045 -0.657 0.216 -0.657 0.657v 1.728c 0 0.27 0.036 0.927 0.036 0.927c 0 0.027 -0.027 0.054 -0.072 0.054c -0.045 -0.009 -0.18 -0.018 -0.315 -0.018c -0.288 0 -0.612 0.009 -0.918 0.018c -0.054 -0.054 -0.054 -0.243 0 -0.297c 0.441 -0.027 0.558 -0.135 0.558 -0.729v -1.737c 0 -0.171 -0.018 -0.243 -0.144 -0.351c -0.333 -0.288 -0.675 -0.432 -0.9 -0.432c -0.27 0 -0.72 0.126 -0.72 0.927v 1.638c 0 0.27 0.036 0.927 0.036 0.927c 0 0.027 -0.027 0.054 -0.072 0.054c -0.045 -0.009 -0.18 -0.018 -0.315 -0.018c -0.288 0 -0.612 0.009 -0.918 0.018c -0.054 -0.054 -0.054 -0.243 0 -0.297c 0.432 -0.036 0.558 -0.135 0.558 -0.72v -1.728c 0 -0.621 0.27 -1.224 1.161 -1.224Z "/></symbol><symbol id="g75829AE9E8B7E42D7FCDFD5712A16351" overflow="visible"><path d="M 0 0m 1.656 3.222c -0.054 -0.063 -0.108 -0.081 -0.108 0c -0.009 0.243 -0.027 0.594 -0.072 0.684c -0.018 0.045 -0.036 0.072 -0.108 0.072c -0.252 -0.099 -0.486 -0.18 -1.107 -0.261c -0.018 -0.054 0 -0.198 0.018 -0.252c 0.486 -0.045 0.585 -0.09 0.585 -0.612v -1.755c 0 -0.738 -0.09 -0.774 -0.63 -0.819c -0.054 -0.054 -0.054 -0.243 0 -0.297c 0.27 0.009 0.63 0.018 0.99 0.018c 0.36 0 0.63 -0.009 0.9 -0.018c 0.054 0.054 0.054 0.243 0 0.297c -0.459 0.045 -0.549 0.081 -0.549 0.819v 1.476c 0 0.189 0.081 0.297 0.153 0.378c 0.342 0.333 0.747 0.531 1.098 0.531c 0.18 0 0.369 -0.117 0.477 -0.324c 0.09 -0.18 0.108 -0.423 0.108 -0.693v -1.368c 0 -0.738 -0.09 -0.774 -0.558 -0.819c -0.045 -0.054 -0.045 -0.243 0 -0.297c 0.27 0.009 0.558 0.018 0.918 0.018c 0.36 0 0.684 -0.009 0.954 -0.018c 0.045 0.054 0.045 0.243 0 0.297c -0.504 0.045 -0.603 0.081 -0.603 0.819v 1.341c 0 0.495 -0.036 0.927 -0.243 1.206c -0.153 0.198 -0.432 0.306 -0.747 0.306c -0.441 0 -0.945 -0.117 -1.476 -0.729Z "/></symbol><symbol id="g5277906DC426125FD25A938CB480528C" overflow="visible"><path d="M 0 0m 0.387 3.861c -0.126 0 -0.162 -0.108 -0.162 -0.18v -0.117c 0 -0.045 0.009 -0.054 0.045 -0.054h 0.531v -2.709c 0 -0.639 0.279 -0.891 0.693 -0.891c 0.414 0 0.864 0.198 1.215 0.594c -0.018 0.09 -0.072 0.144 -0.162 0.153c -0.234 -0.18 -0.504 -0.252 -0.738 -0.252c -0.243 0 -0.297 0.27 -0.297 0.828v 2.277h 0.936c 0.09 0 0.216 0.036 0.216 0.117v 0.18c 0 0.036 -0.027 0.054 -0.072 0.054h -1.08v 0.351c 0 0.585 0.036 0.945 0.036 0.945c 0 0.054 -0.027 0.081 -0.072 0.081c -0.036 0 -0.117 -0.036 -0.198 -0.081c -0.099 -0.054 -0.189 -0.099 -0.306 -0.126c -0.108 -0.036 -0.198 -0.063 -0.198 -0.126c 0 -0.108 0.027 -0.045 0.027 -1.044Z "/></symbol><symbol id="gAC173AC16C94F352139132A9DCC12557" overflow="visible"><path d="M 0 0m 3.16 5.048c -0.464 0.064 -0.448 0.216 -1.232 0.216c -0.808 0 -1.52 -0.536 -1.52 -1.384c 0 -0.84 0.696 -1.224 1.4 -1.496c 0.48 -0.184 1.072 -0.408 1.072 -1.192c 0 -0.648 -0.36 -0.984 -1 -0.984c -0.744 0 -1.224 0.344 -1.4 1.136c -0.104 0.032 -0.184 0.016 -0.264 -0.024c 0.032 -0.616 0.064 -0.824 0.16 -1.216c 0.504 0 0.728 -0.184 1.44 -0.184c 0.36 0 0.704 0.088 0.984 0.264c 0.464 0.288 0.752 0.776 0.752 1.288c 0 0.848 -0.64 1.224 -1.296 1.472c -0.48 0.176 -1.28 0.48 -1.28 1.152c 0 0.448 0.408 0.896 0.88 0.896c 0.776 0 1.024 -0.496 1.184 -1.024c 0.088 -0.016 0.192 -0.008 0.264 0.048c -0.032 0.384 -0.064 0.608 -0.144 1.032Z "/></symbol><symbol id="g903D50B8CD94CEB573691E7684D99C1C" overflow="visible"><path d="M 0 0m 3.184 0.728c -0.032 0.072 -0.096 0.104 -0.168 0.112c -0.272 -0.352 -0.616 -0.528 -0.96 -0.528c -0.584 0 -1.072 0.592 -1.072 1.528c 0 0.88 0.384 1.408 0.912 1.408c 0.472 0 0.536 -0.28 0.568 -0.56c 0.024 -0.216 0.136 -0.288 0.304 -0.288c 0.168 0 0.392 0.104 0.392 0.352c 0 0.44 -0.456 0.76 -1.224 0.76c -0.792 0 -1.64 -0.712 -1.64 -1.848c 0 -1.032 0.576 -1.744 1.584 -1.744c 0.48 0 0.904 0.152 1.304 0.808Z "/></symbol></defs><defs><clipPath id="c9F4D1396B753D376A53E51FEA5082FE8"><path d="M 0 0h 237.509228346v 149.963559055h -237.509228346Z "/></clipPath></defs><defs><pattern id="t83789E70C56105EFF687F1EC20E9E602" width="6" height="6" x="0" y="0" patternUnits="userSpaceOnUse" viewBox="0 0 6 6"><path fill="#99c7e0" fill-rule="nonzero" d="M 0 0v 6h 6v -6Z "/><path fill="none" stroke="#0072b2" stroke-width="1" stroke-linecap="butt" stroke-linejoin="miter" stroke-miterlimit="4" transform="translate(0 6)" d="M 0 0l 6 -6"/></pattern><pattern id="tC3D753FAAAFF9BFAFE66248FBADE5BD7" width="7" height="7" x="0" y="0" patternUnits="userSpaceOnUse" viewBox="0 0 7 7"><path fill="#99d8c7" fill-rule="nonzero" d="M 0 0v 7h 7v -7Z "/><path fill="none" stroke="#009e73" stroke-width="0.8" stroke-linecap="butt" stroke-linejoin="miter" stroke-miterlimit="4" transform="translate(0 7)" d="M 0 0l 7 -7"/><path fill="none" stroke="#009e73" stroke-width="0.8" stroke-linecap="butt" stroke-linejoin="miter" stroke-miterlimit="4" d="M 0 0l 7 7"/></pattern><pattern id="t3A0BB1A628B67E9795FD4A850CD400F1" width="7" height="7" x="0" y="0" patternUnits="userSpaceOnUse" viewBox="0 0 7 7"><path fill="#eebf99" fill-rule="nonzero" d="M 0 0v 7h 7v -7Z "/><path fill="#d55e00" fill-rule="nonzero" transform="translate(2 2)" d="M 0 0m 0 1.5c 0 -0.827676 0.672324 -1.5 1.5 -1.5c 0.827676 0 1.5 0.672324 1.5 1.5c 0 0.827676 -0.672324 1.5 -1.5 1.5c -0.827676 0 -1.5 -0.672324 -1.5 -1.5"/></pattern></defs></svg>