<svg viewBox="0 0 356.003207736 237.771653543" width="356.003207736pt" height="237.771653543pt" xmlns="http://www.w3.org/2000/svg" xmlns:xlink="http://www.w3.org/1999/xlink" xmlns:h5="http://www.w3.org/1999/xhtml"><path fill="#161616" fill-rule="nonzero" d="M 0 0v 237.771653543h 356.003207736v -237.771653543Z "/><g transform="translate(5.5 5.5)"><path fill="#161616" fill-rule="nonzero" d="M 0 0v 226.771653543h 345.003207736v -226.771653543Z "/><g transform="translate(5 5)"><g><g transform="matrix(1 0 0 -1 0 7.74)"><use xlink:href="#g94CA49381870409795489232C8E0F99F" x="0" y="0" fill="#f5f5f4" fill-rule="nonzero"/><use xlink:href="#g482B6484D8169192ED302BC1FABC0EB8" x="7.848" y="0" fill="#f5f5f4" fill-rule="nonzero"/><use xlink:href="#g6318351890DB0E292B53BA9E457E848C" x="14.544" y="0" fill="#f5f5f4" fill-rule="nonzero"/><use xlink:href="#gD4B05AE9CAE173022764EC3E80C7DD69" x="21.276" y="0" fill="#f5f5f4" fill-rule="nonzero"/><use xlink:href="#g66EE1CE856028FC580A66CD64DF5012" x="30.972" y="0" fill="#f5f5f4" fill-rule="nonzero"/><use xlink:href="#gDC05A2A7E4AEFCF99C6614634AF8B2F0" x="41.76" y="0" fill="#f5f5f4" fill-rule="nonzero"/><use xlink:href="#g93ED4154508DB3ADD21415419B103611" x="47.832" y="0" fill="#f5f5f4" fill-rule="nonzero"/><use xlink:href="#g93ED4154508DB3ADD21415419B103611" x="52.956" y="0" fill="#f5f5f4" fill-rule="nonzero"/><use xlink:href="#gE8624B8EF49A117BA8F29A48ACE5ABEF" x="58.08" y="0" fill="#f5f5f4" fill-rule="nonzero"/><use xlink:href="#g4DE5D42EDA42FA72D6DE464A07815109" x="64.008" y="0" fill="#f5f5f4" fill-rule="nonzero"/><use xlink:href="#g1094D23D321B642DA133CC49B1BA1EB9" x="72.6" y="0" fill="#f5f5f4" fill-rule="nonzero"/><use xlink:href="#g6318351890DB0E292B53BA9E457E848C" x="76.464" y="0" fill="#f5f5f4" fill-rule="nonzero"/><use xlink:href="#g8D15A55F054D4F8515F5F3C5E6F83BE2" x="83.196" y="0" fill="#f5f5f4" fill-rule="nonzero"/><use xlink:href="#gE18113BE1243CA6EC5596891CC422939" x="89.448" y="0" fill="#f5f5f4" fill-rule="nonzero"/><use xlink:href="#g1BFCBE3615795918F079FB691FA6A4A7" x="98.316" y="0" fill="#f5f5f4" fill-rule="nonzero"/><use xlink:href="#gD4B05AE9CAE173022764EC3E80C7DD69" x="104.82" y="0" fill="#f5f5f4" fill-rule="nonzero"/><use xlink:href="#g4DE5D42EDA42FA72D6DE464A07815109" x="114.516" y="0" fill="#f5f5f4" fill-rule="nonzero"/><use xlink:href="#g1094D23D321B642DA133CC49B1BA1EB9" x="123.108" y="0" fill="#f5f5f4" fill-rule="nonzero"/><use xlink:href="#g6318351890DB0E292B53BA9E457E848C" x="126.972" y="0" fill="#f5f5f4" fill-rule="nonzero"/><use xlink:href="#g8D15A55F054D4F8515F5F3C5E6F83BE2" x="133.704" y="0" fill="#f5f5f4" fill-rule="nonzero"/><use xlink:href="#gE18113BE1243CA6EC5596891CC422939" x="139.956" y="0" fill="#f5f5f4" fill-rule="nonzero"/></g></g><g transform="translate(0 14.94)"><path fill="none" stroke="#595959" stroke-width="0.2" stroke-linecap="butt" stroke-linejoin="miter" stroke-miterlimit="4" transform="translate(73.357090391)" d="M 0 0m 0 178.310015748v -178.310015748"/><path fill="none" stroke="#595959" stroke-width="0.2" stroke-linecap="butt" stroke-linejoin="miter" stroke-miterlimit="4" transform="translate(129.84733869)" d="M 0 0m 0 178.310015748v -178.310015748"/><path fill="none" stroke="#595959" stroke-width="0.2" stroke-linecap="butt" stroke-linejoin="miter" stroke-miterlimit="4" transform="translate(186.337586989)" d="M 0 0m 0 178.310015748v -178.310015748"/><path fill="none" stroke="#595959" stroke-width="0.2" stroke-linecap="butt" stroke-linejoin="miter" stroke-miterlimit="4" transform="translate(242.827835287)" d="M 0 0m 0 178.310015748v -178.310015748"/><path fill="none" stroke="#595959" stroke-width="0.2" stroke-linecap="butt" stroke-linejoin="miter" stroke-miterlimit="4" transform="translate(299.318083586)" d="M 0 0m 0 178.310015748v -178.310015748"/><path fill="none" stroke="#595959" stroke-width="0.4" stroke-linecap="butt" stroke-linejoin="miter" stroke-miterlimit="4" transform="translate(101.602214541)" d="M 0 0m 0 178.310015748v -178.310015748"/><path fill="none" transform="translate(94.162214541 181.144661417)" d="M 0 0h 14.88v 5.344h -14.88v -5.344Z "/><g transform="translate(94.162214446 181.144661339)"><g transform="matrix(1 0 0 -1 0 5.264)"><use xlink:href="#g4DADFF8D06AE4DC17FB93571E5AFF437" x="0" y="0" fill="#f5f5f4" fill-rule="nonzero"/><use xlink:href="#g97663EC9AEA74EADA07472643E1BE1B4" x="3.72" y="0" fill="#f5f5f4" fill-rule="nonzero"/><use xlink:href="#g97663EC9AEA74EADA07472643E1BE1B4" x="7.44" y="0" fill="#f5f5f4" fill-rule="nonzero"/><use xlink:href="#g97663EC9AEA74EADA07472643E1BE1B4" x="11.16" y="0" fill="#f5f5f4" fill-rule="nonzero"/></g></g><path fill="none" stroke="#595959" stroke-width="0.4" stroke-linecap="butt" stroke-linejoin="miter" stroke-miterlimit="4" transform="translate(158.092462839)" d="M 0 0m 0 178.310015748v -178.310015748"/><path fill="none" transform="translate(150.652462839 181.144661417)" d="M 0 0h 14.88v 5.344h -14.88v -5.344Z "/><g transform="translate(150.652462745 181.144661339)"><g transform="matrix(1 0 0 -1 0 5.264)"><use xlink:href="#gF821431C61A4D7F3ECEFEC074E9C0EFC" x="0" y="0" fill="#f5f5f4" fill-rule="nonzero"/><use xlink:href="#g97663EC9AEA74EADA07472643E1BE1B4" x="3.72" y="0" fill="#f5f5f4" fill-rule="nonzero"/><use xlink:href="#g97663EC9AEA74EADA07472643E1BE1B4" x="7.44" y="0" fill="#f5f5f4" fill-rule="nonzero"/><use xlink:href="#g97663EC9AEA74EADA07472643E1BE1B4" x="11.16" y="0" fill="#f5f5f4" fill-rule="nonzero"/></g></g><path fill="none" stroke="#595959" stroke-width="0.4" stroke-linecap="butt" stroke-linejoin="miter" stroke-miterlimit="4" transform="translate(214.582711138)" d="M 0 0m 0 178.310015748v -178.310015748"/><path fill="none" transform="translate(207.142711138 181.144661417)" d="M 0 0h 14.88v 5.352h -14.88v -5.352Z "/><g transform="translate(207.142711044 181.14466137)"><g transform="matrix(1 0 0 -1 0 5.264)"><use xlink:href="#gD00C9D162D1CBC09F2F7551D594DBB72" x="0" y="0" fill="#f5f5f4" fill-rule="nonzero"/><use xlink:href="#g97663EC9AEA74EADA07472643E1BE1B4" x="3.72" y="0" fill="#f5f5f4" fill-rule="nonzero"/><use xlink:href="#g97663EC9AEA74EADA07472643E1BE1B4" x="7.44" y="0" fill="#f5f5f4" fill-rule="nonzero"/><use xlink:href="#g97663EC9AEA74EADA07472643E1BE1B4" x="11.16" y="0" fill="#f5f5f4" fill-rule="nonzero"/></g></g><path fill="none" stroke="#595959" stroke-width="0.4" stroke-linecap="butt" stroke-linejoin="miter" stroke-miterlimit="4" transform="translate(271.072959437)" d="M 0 0m 0 178.310015748v -178.310015748"/><path fill="none" transform="translate(263.632959437 181.144661417)" d="M 0 0h 14.88v 5.352h -14.88v -5.352Z "/><g transform="translate(263.632959342 181.14466137)"><g transform="matrix(1 0 0 -1 0 5.264)"><use xlink:href="#gAFC6ADE0F4BA5C584B85DD0E8532505B" x="0" y="0" fill="#f5f5f4" fill-rule="nonzero"/><use xlink:href="#g97663EC9AEA74EADA07472643E1BE1B4" x="3.72" y="0" fill="#f5f5f4" fill-rule="nonzero"/><use xlink:href="#g97663EC9AEA74EADA07472643E1BE1B4" x="7.44" y="0" fill="#f5f5f4" fill-rule="nonzero"/><use xlink:href="#g97663EC9AEA74EADA07472643E1BE1B4" x="11.16" y="0" fill="#f5f5f4" fill-rule="nonzero"/></g></g><path fill="none" stroke="#595959" stroke-width="0.4" stroke-linecap="butt" stroke-linejoin="miter" stroke-miterlimit="4" transform="translate(327.563207736)" d="M 0 0m 0 178.310015748v -178.310015748"/><path fill="none" transform="translate(320.123207736 181.144661417)" d="M 0 0h 14.88v 5.368h -14.88v -5.368Z "/><g transform="translate(320.123207641 181.144661291)"><g transform="matrix(1 0 0 -1 0 5.264)"><use xlink:href="#g38EF10439C70019A2C0B1A54E582194C" x="0" y="0" fill="#f5f5f4" fill-rule="nonzero"/><use xlink:href="#g97663EC9AEA74EADA07472643E1BE1B4" x="3.72" y="0" fill="#f5f5f4" fill-rule="nonzero"/><use xlink:href="#g97663EC9AEA74EADA07472643E1BE1B4" x="7.44" y="0" fill="#f5f5f4" fill-rule="nonzero"/><use xlink:href="#g97663EC9AEA74EADA07472643E1BE1B4" x="11.16" y="0" fill="#f5f5f4" fill-rule="nonzero"/></g></g><path fill="none" transform="translate(25.469669291 146.710878059)" d="M 0 0h 20.944v 5.368h -20.944v -5.368Z "/><g transform="translate(25.46966926 146.710877933)"><g transform="matrix(1 0 0 -1 0 5.264)"><use xlink:href="#g8D1B85E3ABA097AFFEFA8B147B26839C" x="0" y="0" fill="#f5f5f4" fill-rule="nonzero"/><use xlink:href="#g13CDF673763F5DB9C25A9A976EDAD0A7" x="5.464" y="0" fill="#f5f5f4" fill-rule="nonzero"/><use xlink:href="#g20EDBE1E989F56AA9FBFD4A2EF5BDC35" x="9.512" y="0" fill="#f5f5f4" fill-rule="nonzero"/><use xlink:href="#g9CB01113ED99ABC5A5F75E5016C1499E" x="13.088" y="0" fill="#f5f5f4" fill-rule="nonzero"/><use xlink:href="#g2BFBF805A6B9D0BF9A5DDB8FE340411" x="15.2" y="0" fill="#f5f5f4" fill-rule="nonzero"/><use xlink:href="#g20EDBE1E989F56AA9FBFD4A2EF5BDC35" x="17.368" y="0" fill="#f5f5f4" fill-rule="nonzero"/></g></g><path fill="none" transform="translate(14.005669291 97.634981911)" d="M 0 0h 32.408v 7.136h -32.408v -7.136Z "/><g transform="translate(14.005669181 97.634981801)"><g transform="matrix(1 0 0 -1 0 5.264)"><use xlink:href="#g8C602F113ED136B9EC97C2B861CC969C" x="0" y="0" fill="#f5f5f4" fill-rule="nonzero"/><use xlink:href="#gD6C08740CFCAAF86BCA909E63B9538D" x="5.168" y="0" fill="#f5f5f4" fill-rule="nonzero"/><use xlink:href="#g2BFBF805A6B9D0BF9A5DDB8FE340411" x="9.472" y="0" fill="#f5f5f4" fill-rule="nonzero"/><use xlink:href="#g737E31D6A5E93E22E9ED4AD10D42FE71" x="11.64" y="0" fill="#f5f5f4" fill-rule="nonzero"/><use xlink:href="#g86ABD9B98157573BF6882A43FA434742" x="15.976" y="0" fill="#f5f5f4" fill-rule="nonzero"/><use xlink:href="#g3078E795B3E2291E912DCDEB76EE36F" x="19.096" y="0" fill="#f5f5f4" fill-rule="nonzero"/><use xlink:href="#gF14903D79C881A9B6AC2EE7D8BED6F03" x="21.624" y="0" fill="#f5f5f4" fill-rule="nonzero"/><use xlink:href="#g7CADDE05683A2F282E92796EAE7002E6" x="24.6" y="0" fill="#f5f5f4" fill-rule="nonzero"/><use xlink:href="#gE3B745958568E02614BCAB4547DCA2F1" x="28.256" y="0" fill="#f5f5f4" fill-rule="nonzero"/></g></g><path fill="none" transform="translate(22.373669291 50.339085763)" d="M 0 0h 24.04v 5.344h -24.04v -5.344Z "/><g transform="translate(22.37366926 50.339085684)"><g transform="matrix(1 0 0 -1 0 5.264)"><use xlink:href="#gB6B829643FAC67A26EA335D5C5653A06" x="0" y="0" fill="#f5f5f4" fill-rule="nonzero"/><use xlink:href="#g20EDBE1E989F56AA9FBFD4A2EF5BDC35" x="5.48" y="0" fill="#f5f5f4" fill-rule="nonzero"/><use xlink:href="#g737E31D6A5E93E22E9ED4AD10D42FE71" x="9.056" y="0" fill="#f5f5f4" fill-rule="nonzero"/><use xlink:href="#g3078E795B3E2291E912DCDEB76EE36F" x="13.392" y="0" fill="#f5f5f4" fill-rule="nonzero"/><use xlink:href="#g2B678EF10194558DA6DED0CDF87DA3E4" x="15.92" y="0" fill="#f5f5f4" fill-rule="nonzero"/><use xlink:href="#g2B678EF10194558DA6DED0CDF87DA3E4" x="20.008" y="0" fill="#f5f5f4" fill-rule="nonzero"/></g></g><path fill="none" transform="translate(49.248314961 0)" d="M 0 0h 280.909165354v 178.310015748h -280.909165354v -178.310015748Z "/><g transform="translate(49.248314835 -1.26e-7)"><g clip-path="url(#cA24A426A1E39699DCE3E6D2D6E9683D)"><g><path fill="#009e73d9" fill-rule="nonzero" stroke="#f5f5f4d9" stroke-width="0.6" stroke-linecap="butt" stroke-linejoin="miter" stroke-miterlimit="4" transform="translate(76.6507875 7.035100344)" d="M 0 0m 0 45.961222941l 0.37473538 -0.001834977l 0.37473538 -0.002037992l 0.37473538 -0.002260222l 0.37473538 -0.002503101l 0.37473538 -0.002768131l 0.37473538 -0.003056877l 0.37473538 -0.003370969l 0.37473538 -0.003712098l 0.37473538 -0.004082017l 0.37473538 -0.004482533l 0.37473538 -0.004915509l 0.37473538 -0.005382854l 0.37473538 -0.005886527l 0.37473538 -0.006428525l 0.37473538 -0.007010882l 0.37473538 -0.007635663l 0.37473538 -0.008304956l 0.37473538 -0.009020869l 0.37473538 -0.009785519l 0.37473538 -0.010601033l 0.37473538 -0.011469531l 0.37473538 -0.012393128l 0.37473538 -0.013373921l 0.37473538 -0.014413984l 0.37473538 -0.015515364l 0.37473538 -0.016680067l 0.37473538 -0.017910057l 0.37473538 -0.019207247l 0.37473538 -0.020573496l 0.37473538 -0.022010598l 0.37473538 -0.023520279l 0.37473538 -0.025104196l 0.37473538 -0.026763923l 0.37473538 -0.028500958l 0.37473538 -0.03031671l 0.37473538 -0.032212502l 0.37473538 -0.034189566l 0.37473538 -0.03624904l 0.37473538 -0.038391968l 0.37473538 -0.040619298l 0.37473538 -0.042931878l 0.37473538 -0.045330461l 0.37473538 -0.047815699l 0.37473538 -0.050388142l 0.37473538 -0.053048241l 0.37473538 -0.055796344l 0.37473538 -0.058632693l 0.37473538 -0.061557427l 0.37473538 -0.064570573l 0.37473538 -0.067672051l 0.37473538 -0.070861661l 0.37473538 -0.074139086l 0.37473538 -0.077503883l 0.37473538 -0.080955478l 0.37473538 -0.084493159l 0.37473538 -0.088116063l 0.37473538 -0.091823177l 0.37473538 -0.095613317l 0.37473538 -0.099485126l 0.37473538 -0.103437055l 0.37473538 -0.10746736l 0.37473538 -0.111574081l 0.37473538 -0.115755034l 0.37473538 -0.120007799l 0.37473538 -0.124329703l 0.37473538 -0.128717815l 0.37473538 -0.133168928l 0.37473538 -0.137679553l 0.37473538 -0.142245911l 0.37473538 -0.14686392l 0.37473538 -0.151529195l 0.37473538 -0.156237043l 0.37473538 -0.160982462l 0.37473538 -0.165760141l 0.37473538 -0.170564467l 0.37473538 -0.175389532l 0.37473538 -0.180229141l 0.37473538 -0.18507683l 0.37473538 -0.189925881l 0.37473538 -0.194769343l 0.37473538 -0.199600057l 0.37473538 -0.204410684l 0.37473538 -0.209193735l 0.37473538 -0.213941607l 0.37473538 -0.218646619l 0.37473538 -0.223301052l 0.37473538 -0.227897192l 0.37473538 -0.232427377l 0.37473538 -0.236884041l 0.37473538 -0.241259765l 0.37473538 -0.245547326l 0.37473538 -0.249739746l 0.37473538 -0.253830348l 0.37473538 -0.257812803l 0.37473538 -0.261681183l 0.37473538 -0.265430013l 0.37473538 -0.269054318l 0.37473538 -0.272549671l 0.37473538 -0.275912241l 0.37473538 -0.279138837l 0.37473538 -0.282226948l 0.37473538 -0.285174781l 0.37473538 -0.287981298l 0.37473538 -0.29064625l 0.37473538 -0.293170198l 0.37473538 -0.295554545l 0.37473538 -0.297801552l 0.37473538 -0.299914351l 0.37473538 -0.30189696l 0.37473538 -0.303754284l 0.37473538 -0.305492117l 0.37473538 -0.307117133l 0.37473538 -0.308636877l 0.37473538 -0.310059745l 0.37473538 -0.311394958l 0.37473538 -0.312652534l 0.37473538 -0.313843244l 0.37473538 -0.31497857l 0.37473538 -0.316070648l 0.37473538 -0.317132211l 0.37473538 -0.318176515l 0.37473538 -0.319217262l 0.37473538 -0.32026852l 0.37473538 -0.321344621l 0.37473538 -0.322460066l 0.37473538 -0.323629412l 0.37473538 -0.324867157l 0.37473538 -0.326187615l 0.37473538 -0.327604783l 0.37473538 -0.32913221l 0.37473538 -0.330782848l 0.37473538 -0.332568913l 0.37473538 -0.334501731l 0.37473538 -0.336591588l 0.37473538 -0.338847579l 0.37473538 -0.341277458l 0.37473538 -0.34388749l 0.37473538 -0.346682305l 0.37473538 -0.349664765l 0.37473538 -0.35283583l 0.37473538 -0.356194442l 0.37473538 -0.359737416l 0.37473538 -0.363459346l 0.37473538 -0.36735253l 0.37473538 -0.371406904l 0.37473538 -0.375610008l 0.37473538 -0.379946959l 0.37473538 -0.384400457l 0.37473538 -0.388950808l 0.37473538 -0.393575977l 0.37473538 -0.398251655l 0.37473538 -0.402951366l 0.37473538 -0.407646589l 0.37473538 -0.412306904l 0.37473538 -0.416900173l 0.37473538 -0.421392732l 0.37473538 -0.425749613l 0.37473538 -0.429934785l 0.37473538 -0.43391141l 0.37473538 -0.437642117l 0.37473538 -0.441089295l 0.37473538 -0.444215386l 0.37473538 -0.446983194l 0.37473538 -0.449356196l 0.37473538 -0.451298853l 0.37473538 -0.452776918l 0.37473538 -0.453757739l 0.37473538 -0.454210552l 0.37473538 -0.454106764l 0.37473538 -0.453420211l 0.37473538 -0.452127404l 0.37473538 -0.45020775l 0.37473538 -0.447643749l 0.37473538 -0.444421159l 0.37473538 -0.440529133l 0.37473538 -0.435960328l 0.37473538 -0.430710977l 0.37473538 -0.424780928l 0.37473538 -0.418173649l 0.37473538 -0.410896203l 0.37473538 -0.402959181l 0.37473538 -0.394376614l 0.37473538 -0.38516584l 0.37473538 -0.375347358l 0.37473538 -0.36494464l 0.37473538 -0.353983929l 0.37473538 -0.342494011l 0.37473538 -0.330505967l 0.37473538 -0.318052918l 0.37473538 -0.305169744l 0.37473538 -0.291892814l 0.37473538 -0.278259692l 0.37473538 -0.264308858l 0.37473538 -0.250079424l 0.37473538 -0.235610858l 0.37473538 -0.220942715l 0.37473538 -0.206114387l 0.37473538 -0.191164861l 0.37473538 -0.1761325l 0.37473538 -0.161054841l 0.37473538 -0.145968414l 0.37473538 -0.130908588l 0.37473538 -0.115909434l 0.37473538 -0.10100362l 0.37473538 -0.08622232l 0.37473538 -0.071595162l 0.37473538 -0.057150182l 0.37473538 -0.042913814l 0.37473538 -0.028910891l 0.37473538 -0.015164676l 0.37473538 -0.001696896l 0.37473538 0.011472196l 0.37473538 0.024323755l 0.37473538 0.036840263l 0.37473538 0.049005443l 0.37473538 0.060804169l 0.37473538 0.07222237l 0.37473538 0.083246937l 0.37473538 0.093865635l 0.37473538 0.104067013l 0.37473538 0.113840328l 0.37473538 0.123175473l 0.37473538 0.132062919l 0.37473538 0.140493667l 0.37473538 0.148459209l 0.37473538 0.155951512l 0.37473538 0.162963005l 0.37473538 0.16948659l 0.37473538 0.175515653l 0.37473538 0.181044105l 0.37473538 0.186066421l 0.37473538 0.190577699l 0.37473538 0.194573723l 0.37473538 0.198051036l 0.37473538 0.201007025l 0.37473538 0.203440001l 0.37473538 0.205349288l 0.37473538 0.206735314l 0.37473538 0.207599693l 0.37473538 0.207945317l 0.37473538 0.207776426l 0.37473538 0.207098687l 0.37473538 0.205919255l 0.37473538 0.204246825l 0.37473538 0.202091674l 0.37473538 0.199465691l 0.37473538 0.196382392l 0.37473538 0.192856919l 0.37473538 0.188906026l 0.37473538 0.184548051l 0.37473538 0.179802871l 0.37473538 0.174691846l 0.37473538 0.169237738l 0.37473538 0.163464636l 0.37473538 0.157397846l 0.37473538 0.151063789l 0.37473538 0.144489877l 0.37473538 0.137704387l 0.37473538 0.130736322l 0.37473538 0.123615274l 0.37473538 0.116371278l 0.37473538 0.109034668l 0.37473538 0.101635926l 0.37473538 0.094205541l 0.37473538 0.086773868l 0.37473538 0.079370984l 0.37473538 0.072026566l 0.37473538 0.064769755l 0.37473538 0.05762905l 0.37473538 0.050632191l 0.37473538 0.043806068l 0.37473538 0.037176628l 0.37473538 0.030768799l 0.37473538 0.024606424l 0.37473538 0.018712202l 0.37473538 0.013107642l 0.37473538 0.007813029l 0.37473538 0.002847395l 0.37473538 -0.001771501l 0.37473538 -0.006027179l 0.37473538 -0.009904448l 0.37473538 -0.013389396l 0.37473538 -0.016469388l 0.37473538 -0.019133052l 0.37473538 -0.021370263l 0.37473538 -0.023172129l 0.37473538 -0.024530967l 0.37473538 -0.025440291l 0.37473538 -0.025894789l 0.37473538 -0.02589031l 0.37473538 -0.025423844l 0.37473538 -0.024493512l 0.37473538 -0.023098556l 0.37473538 -0.021239329l 0.37473538 -0.018917292l 0.37473538 -0.016135009l 0.37473538 -0.012896151l 0.37473538 -0.009205497l 0.37473538 -0.005068935l 0.37473538 -0.000493475l 0.37473538 0.004512755l 0.37473538 0.009940492l 0.37473538 0.015779342l 0.37473538 0.022017772l 0.37473538 0.028643111l 0.37473538 0.035641549l 0.37473538 0.04299815l 0.37473538 0.050696855l 0.37473538 0.05872051l 0.37473538 0.067050878l 0.37473538 0.075668679l 0.37473538 0.084553623l 0.37473538 0.093684456l 0.37473538 0.103039017l 0.37473538 0.112594297l 0.37473538 0.122326511l 0.37473538 0.132211178l 0.37473538 0.142223202l 0.37473538 0.152336975l 0.37473538 0.16252647l 0.37473538 0.172765356l 0.37473538 0.183027104l 0.37473538 0.193285114l 0.37473538 0.203512831l 0.37473538 0.213683873l 0.37473538 0.223772161l 0.37473538 0.233752042l 0.37473538 0.243598424l 0.37473538 0.2532869l 0.37473538 0.262793871l 0.37473538 0.272096667l 0.37473538 0.281173666l 0.37473538 0.2900044l 0.37473538 0.298569656l 0.37473538 0.306851577l 0.37473538 0.314833739l 0.37473538 0.322501231l 0.37473538 0.329840719l 0.37473538 0.336840497l 0.37473538 0.343490529l 0.37473538 0.349782476l 0.37473538 0.355709717l 0.37473538 0.361267342l 0.37473538 0.366452152l 0.37473538 0.371262629l 0.37473538 0.375698901l 0.37473538 0.379762695l 0.37473538 0.383457274l 0.37473538 0.386787366l 0.37473538 0.38975908l 0.37473538 0.392379812l 0.37473538 0.394658144l 0.37473538 0.396603731l 0.37473538 0.398227184l 0.37473538 0.399539944l 0.37473538 0.400554156l 0.37473538 0.401282533l 0.37473538 0.401738222l 0.37473538 0.401934668l 0.37473538 0.40188548l 0.37473538 0.401604293l 0.37473538 0.401104641l 0.37473538 0.40039983l 0.37473538 0.399502815l 0.37473538 0.398426089l 0.37473538 0.397181576l 0.37473538 0.395780534l 0.37473538 0.394233472l 0.37473538 0.392550071l 0.37473538 0.390739123l 0.37473538 0.38880848l 0.37473538 0.386765015l 0.37473538 0.3846146l 0.37473538 0.382362092l 0.37473538 0.38001134l 0.37473538 0.377565194l 0.37473538 0.375025545l 0.37473538 0.372393355l 0.37473538 0.369668719l 0.37473538 0.36685093l 0.37473538 0.363938551l 0.37473538 0.360929504l 0.37473538 0.357821163l 0.37473538 0.354610452l 0.37473538 0.351293957l 0.37473538 0.34786803l 0.37473538 0.344328909l 0.37473538 0.340672828l 0.37473538 0.336896135l 0.37473538 0.332995403l 0.37473538 0.328967538l 0.37473538 0.324809887l 0.37473538 0.320520334l 0.37473538 0.316097394l 0.37473538 0.311540291l 0.37473538 0.306849035l 0.37473538 0.302024481l 0.37473538 0.297068379l 0.37473538 0.291983415l 0.37473538 0.286773233l 0.37473538 0.281442451l 0.37473538 0.275996656l 0.37473538 0.270442394l 0.37473538 0.26478714l 0.37473538 0.259039263l 0.37473538 0.25320797l 0.37473538 0.24730325l 0.37473538 0.241335795l 0.37473538 0.235316924l 0.37473538 0.22925849l 0.37473538 0.223172786l 0.37473538 0.217072441l 0.37473538 0.210970315l 0.37473538 0.204879388l 0.37473538 0.198812653l 0.37473538 0.192783004l 0.37473538 0.186803126l 0.37473538 0.18088539l 0.37473538 0.175041754l 0.37473538 0.169283662l 0.37473538 0.163621959l 0.37473538 0.158066804l 0.37473538 0.1526276l 0.37473538 0.147312928l 0.37473538 0.142130493l 0.37473538 0.137087077l 0.37473538 0.132188508l 0.37473538 0.127439637l 0.37473538 0.122844323l 0.37473538 0.118405433l 0.37473538 0.114124853l 0.37473538 0.110003503l 0.37473538 0.106041367l 0.37473538 0.102237533l 0.37473538 0.098590234l 0.37473538 0.0950969l 0.37473538 0.091754225l 0.37473538 0.088558222l 0.37473538 0.085504297l 0.37473538 0.082587322l 0.37473538 0.079801707l 0.37473538 0.07714148l 0.37473538 0.074600361l 0.37473538 0.07217184l 0.37473538 0.069849252l 0.37473538 0.06762585l 0.37473538 0.065494875l 0.37473538 0.06344962l 0.37473538 0.061483494l 0.37473538 0.059590081l 0.37473538 0.057763186l 0.37473538 0.055996886l 0.37473538 0.054285568l 0.37473538 0.052623962l 0.37473538 0.051007172l 0.37473538 0.049430694l 0.37473538 0.047890434l 0.37473538 0.046382718l 0.37473538 0.044904294l 0.37473538 0.043452333l 0.37473538 0.042024422l 0.37473538 0.040618553l 0.37473538 0.039233109l 0.37473538 0.037866845l 0.37473538 0.036518864l 0.37473538 0.035188599l 0.37473538 0.033875779l 0.37473538 0.032580406l 0.37473538 0.031302722l 0.37473538 0.030043182l 0.37473538 0.028802421l 0.37473538 0.027581225l 0.37473538 0.0263805l 0.37473538 0.025201244l 0.37473538 0.024044519l 0.37473538 0.022911425l 0.37473538 0.021803073l 0.37473538 0.020720566l 0.37473538 0.019664973l 0.37473538 0.018637317l 0.37473538 0.017638551l 0.37473538 0.01666955l 0.37473538 0.015731094l 0.37473538 0.014823864l 0.37473538 0.013948426l 0.37473538 0.013105234l 0.37473538 0.01229462l 0.37473538 0.011516798l 0.37473538 0.010771855l 0.37473538 0.010059764l 0.37473538 0.009380377l 0.37473538 0.008733434l 0.37473538 0.008118569l 0.37473538 0.007535312l 0.37473538 0.006983101l 0.37473538 0.006461284l 0.37473538 0.005969134l 0.37473538 0.005505849l 0.37473538 0.005070569l 0.37473538 0.004662378l 0.37473538 0.004280316l 0.37473538 0.003923385l 0.37473538 0.003590562l 0.37473538 0.003280799l 0.37473538 0.002993039l 0.37473538 0.002726217l 0.37473538 0.002479269l 0.37473538 0.002251137l 0.37473538 0.002040775l 0.37473538 0.001847156l 0.37473538 0.001669273v 0.013748795h -191.489779429v -0.014762478Z "/><path fill="#56b4e9d9" fill-rule="nonzero" stroke="#f5f5f4d9" stroke-width="0.6" stroke-linecap="butt" stroke-linejoin="miter" stroke-miterlimit="4" transform="translate(12.768598425 28.915137689)" d="M 0 0m 0 72.255713991l 0.320755332 -0.00434567l 0.320755332 -0.004859326l 0.320755332 -0.005422909l 0.320755332 -0.006039817l 0.320755332 -0.006713495l 0.320755332 -0.007447407l 0.320755332 -0.00824501l 0.320755332 -0.009109718l 0.320755332 -0.010044872l 0.320755332 -0.011053695l 0.320755332 -0.012139255l 0.320755332 -0.013304419l 0.320755332 -0.014551805l 0.320755332 -0.015883733l 0.320755332 -0.017302176l 0.320755332 -0.018808704l 0.320755332 -0.020404432l 0.320755332 -0.022089968l 0.320755332 -0.02386536l 0.320755332 -0.025730044l 0.320755332 -0.027682794l 0.320755332 -0.029721679l 0.320755332 -0.031844018l 0.320755332 -0.034046346l 0.320755332 -0.03632438l 0.320755332 -0.038672997l 0.320755332 -0.041086213l 0.320755332 -0.043557183l 0.320755332 -0.046078191l 0.320755332 -0.048640671l 0.320755332 -0.051235222l 0.320755332 -0.053851642l 0.320755332 -0.056478974l 0.320755332 -0.059105557l 0.320755332 -0.061719096l 0.320755332 -0.064306738l 0.320755332 -0.06685516l 0.320755332 -0.06935067l 0.320755332 -0.071779313l 0.320755332 -0.07412699l 0.320755332 -0.076379577l 0.320755332 -0.07852306l 0.320755332 -0.080543665l 0.320755332 -0.082427997l 0.320755332 -0.084163176l 0.320755332 -0.085736971l 0.320755332 -0.087137935l 0.320755332 -0.088355532l 0.320755332 -0.089380255l 0.320755332 -0.090203739l 0.320755332 -0.090818859l 0.320755332 -0.091219817l 0.320755332 -0.091402215l 0.320755332 -0.091363109l 0.320755332 -0.091101047l 0.320755332 -0.090616095l 0.320755332 -0.089909831l 0.320755332 -0.088985336l 0.320755332 -0.087847155l 0.320755332 -0.086501241l 0.320755332 -0.084954889l 0.320755332 -0.083216645l 0.320755332 -0.081296204l 0.320755332 -0.079204295l 0.320755332 -0.076952556l 0.320755332 -0.074553397l 0.320755332 -0.072019864l 0.320755332 -0.069365491l 0.320755332 -0.066604161l 0.320755332 -0.063749963l 0.320755332 -0.06081706l 0.320755332 -0.057819564l 0.320755332 -0.054771419l 0.320755332 -0.051686307l 0.320755332 -0.048577561l 0.320755332 -0.045458105l 0.320755332 -0.042340409l 0.320755332 -0.039236468l 0.320755332 -0.036157804l 0.320755332 -0.033115491l 0.320755332 -0.030120202l 0.320755332 -0.027182278l 0.320755332 -0.024311823l 0.320755332 -0.021518811l 0.320755332 -0.018813219l 0.320755332 -0.016205167l 0.320755332 -0.01370508l 0.320755332 -0.011323846l 0.320755332 -0.009072996l 0.320755332 -0.00696487l 0.320755332 -0.005012791l 0.320755332 -0.003231226l 0.320755332 -0.001635944l 0.320755332 -0.000244152l 0.320755332 0.000925382l 0.320755332 0.001852232l 0.320755332 0.00251424l 0.320755332 0.002887474l 0.320755332 0.00294621l 0.320755332 0.002662958l 0.320755332 0.002008515l 0.320755332 0.000952062l 0.320755332 -0.00053871l 0.320755332 -0.002497425l 0.320755332 -0.004958822l 0.320755332 -0.007958511l 0.320755332 -0.011532692l 0.320755332 -0.015717853l 0.320755332 -0.020550421l 0.320755332 -0.026066405l 0.320755332 -0.032300999l 0.320755332 -0.039288179l 0.320755332 -0.047060273l 0.320755332 -0.055647534l 0.320755332 -0.065077697l 0.320755332 -0.075375538l 0.320755332 -0.086562444l 0.320755332 -0.098655987l 0.320755332 -0.111669514l 0.320755332 -0.125611761l 0.320755332 -0.14048649l 0.320755332 -0.156292158l 0.320755332 -0.173021619l 0.320755332 -0.190661868l 0.320755332 -0.209193831l 0.320755332 -0.228592193l 0.320755332 -0.248825288l 0.320755332 -0.269855032l 0.320755332 -0.29163692l 0.320755332 -0.314120075l 0.320755332 -0.337247354l 0.320755332 -0.360955519l 0.320755332 -0.38517546l 0.320755332 -0.409832482l 0.320755332 -0.434846648l 0.320755332 -0.460133172l 0.320755332 -0.485602874l 0.320755332 -0.511162682l 0.320755332 -0.536716175l 0.320755332 -0.56216418l 0.320755332 -0.587405399l 0.320755332 -0.612337072l 0.320755332 -0.636855671l 0.320755332 -0.660857614l 0.320755332 -0.684239993l 0.320755332 -0.706901323l 0.320755332 -0.728742281l 0.320755332 -0.749666453l 0.320755332 -0.769581064l 0.320755332 -0.788397702l 0.320755332 -0.806033007l 0.320755332 -0.822409339l 0.320755332 -0.837455411l 0.320755332 -0.851106873l 0.320755332 -0.86330686l 0.320755332 -0.874006473l 0.320755332 -0.883165219l 0.320755332 -0.890751376l 0.320755332 -0.8967423l 0.320755332 -0.90112466l 0.320755332 -0.9038946l 0.320755332 -0.905057835l 0.320755332 -0.904629662l 0.320755332 -0.902634904l 0.320755332 -0.899107777l 0.320755332 -0.894091676l 0.320755332 -0.887638901l 0.320755332 -0.879810297l 0.320755332 -0.870674833l 0.320755332 -0.86030912l 0.320755332 -0.848796856l 0.320755332 -0.836228225l 0.320755332 -0.822699233l 0.320755332 -0.808311003l 0.320755332 -0.793169027l 0.320755332 -0.777382378l 0.320755332 -0.761062894l 0.320755332 -0.744324337l 0.320755332 -0.727281531l 0.320755332 -0.710049496l 0.320755332 -0.692742566l 0.320755332 -0.675473518l 0.320755332 -0.658352704l 0.320755332 -0.641487196l 0.320755332 -0.624979954l 0.320755332 -0.608929026l 0.320755332 -0.593426766l 0.320755332 -0.578559108l 0.320755332 -0.564404873l 0.320755332 -0.551035132l 0.320755332 -0.538512615l 0.320755332 -0.526891193l 0.320755332 -0.516215411l 0.320755332 -0.506520098l 0.320755332 -0.497830042l 0.320755332 -0.490159745l 0.320755332 -0.483513255l 0.320755332 -0.47788407l 0.320755332 -0.473255139l 0.320755332 -0.469598928l 0.320755332 -0.466877586l 0.320755332 -0.46504318l 0.320755332 -0.464038028l 0.320755332 -0.463795098l 0.320755332 -0.464238501l 0.320755332 -0.465284052l 0.320755332 -0.466839916l 0.320755332 -0.468807309l 0.320755332 -0.471081284l 0.320755332 -0.473551567l 0.320755332 -0.476103447l 0.320755332 -0.478618725l 0.320755332 -0.480976698l 0.320755332 -0.483055182l 0.320755332 -0.484731557l 0.320755332 -0.485883837l 0.320755332 -0.486391749l 0.320755332 -0.486137805l 0.320755332 -0.485008378l 0.320755332 -0.482894754l 0.320755332 -0.479694151l 0.320755332 -0.475310713l 0.320755332 -0.469656447l 0.320755332 -0.462652113l 0.320755332 -0.45422804l 0.320755332 -0.44432488l 0.320755332 -0.432894272l 0.320755332 -0.419899423l 0.320755332 -0.405315588l 0.320755332 -0.38913046l 0.320755332 -0.371344439l 0.320755332 -0.351970804l 0.320755332 -0.331035762l 0.320755332 -0.30857839l 0.320755332 -0.284650449l 0.320755332 -0.259316096l 0.320755332 -0.232651468l 0.320755332 -0.204744158l 0.320755332 -0.175692586l 0.320755332 -0.145605258l 0.320755332 -0.114599931l 0.320755332 -0.082802687l 0.320755332 -0.05034692l 0.320755332 -0.017372252l 0.320755332 0.015976622l 0.320755332 0.049551132l 0.320755332 0.08320009l 0.320755332 0.116770962l 0.320755332 0.150111171l 0.320755332 0.183069404l 0.320755332 0.215496905l 0.320755332 0.247248761l 0.320755332 0.278185144l 0.320755332 0.30817252l 0.320755332 0.337084796l 0.320755332 0.364804393l 0.320755332 0.391223253l 0.320755332 0.416243747l 0.320755332 0.439779484l 0.320755332 0.461756023l 0.320755332 0.482111457l 0.320755332 0.500796887l 0.320755332 0.517776765l 0.320755332 0.533029116l 0.320755332 0.546545618l 0.320755332 0.558331559l 0.320755332 0.568405661l 0.320755332 0.576799777l 0.320755332 0.583558454l 0.320755332 0.58873839l 0.320755332 0.592407762l 0.320755332 0.594645456l 0.320755332 0.595540194l 0.320755332 0.595189568l 0.320755332 0.593699006l 0.320755332 0.591180654l 0.320755332 0.587752215l 0.320755332 0.583535731l 0.320755332 0.578656348l 0.320755332 0.573241045l 0.320755332 0.567417372l 0.320755332 0.561312187l 0.320755332 0.555050411l 0.320755332 0.548753823l 0.320755332 0.542539895l 0.320755332 0.536520676l 0.320755332 0.530801758l 0.320755332 0.5254813l 0.320755332 0.520649155l 0.320755332 0.516386074l 0.320755332 0.512763027l 0.320755332 0.509840614l 0.320755332 0.507668602l 0.320755332 0.506285567l 0.320755332 0.505718659l 0.320755332 0.505983482l 0.320755332 0.507084093l 0.320755332 0.509013123l 0.320755332 0.511752006l 0.320755332 0.515271324l 0.320755332 0.519531256l 0.320755332 0.524482133l 0.320755332 0.530065077l 0.320755332 0.536212741l 0.320755332 0.542850113l 0.320755332 0.549895401l 0.320755332 0.55726097l 0.320755332 0.564854331l 0.320755332 0.572579169l 0.320755332 0.580336396l 0.320755332 0.588025225l 0.320755332 0.59554424l 0.320755332 0.602792472l 0.320755332 0.609670448l 0.320755332 0.616081213l 0.320755332 0.621931319l 0.320755332 0.62713176l 0.320755332 0.63159885l 0.320755332 0.635255036l 0.320755332 0.638029642l 0.320755332 0.639859517l 0.320755332 0.640689619l 0.320755332 0.640473484l 0.320755332 0.639173623l 0.320755332 0.6367618l 0.320755332 0.633219232l 0.320755332 0.628536672l 0.320755332 0.622714409l 0.320755332 0.615762164l 0.320755332 0.607698896l 0.320755332 0.598552518l 0.320755332 0.588359537l 0.320755332 0.577164608l 0.320755332 0.565020024l 0.320755332 0.551985142l 0.320755332 0.538125753l 0.320755332 0.52351341l 0.320755332 0.508224713l 0.320755332 0.492340571l 0.320755332 0.475945439l 0.320755332 0.45912655l 0.320755332 0.441973136l 0.320755332 0.424575666l 0.320755332 0.407025089l 0.320755332 0.389412096l 0.320755332 0.371826421l 0.320755332 0.35435616l 0.320755332 0.337087138l 0.320755332 0.320102316l 0.320755332 0.303481242l 0.320755332 0.287299553l 0.320755332 0.271628527l 0.320755332 0.256534686l 0.320755332 0.242079452l 0.320755332 0.228318859l 0.320755332 0.215303306l 0.320755332 0.203077374l 0.320755332 0.191679683l 0.320755332 0.181142792l 0.320755332 0.171493157l 0.320755332 0.162751115l 0.320755332 0.154930915l 0.320755332 0.148040787l 0.320755332 0.142083034l 0.320755332 0.13705417l 0.320755332 0.132945067l 0.320755332 0.129741147l 0.320755332 0.127422582l 0.320755332 0.125964526l 0.320755332 0.125337358l 0.320755332 0.125506949l 0.320755332 0.126434945l 0.320755332 0.128079063l 0.320755332 0.130393403l 0.320755332 0.133328774l 0.320755332 0.136833034l 0.320755332 0.140851438l 0.320755332 0.145327001l 0.320755332 0.150200874l 0.320755332 0.155412722l 0.320755332 0.160901118l 0.320755332 0.166603943l 0.320755332 0.172458786l 0.320755332 0.178403357l 0.320755332 0.184375901l 0.320755332 0.190315605l 0.320755332 0.19616301l 0.320755332 0.201860419l 0.320755332 0.207352292l 0.320755332 0.212585634l 0.320755332 0.21751037l 0.320755332 0.222079698l 0.320755332 0.226250424l 0.320755332 0.229983276l 0.320755332 0.233243183l 0.320755332 0.235999529l 0.320755332 0.238226368l 0.320755332 0.239902606l 0.320755332 0.241012137l 0.320755332 0.241543946l 0.320755332 0.241492153l 0.320755332 0.240856027l 0.320755332 0.239639945l 0.320755332 0.2378533l 0.320755332 0.235510369l 0.320755332 0.232630133l 0.320755332 0.229236047l 0.320755332 0.225355773l 0.320755332 0.221020868l 0.320755332 0.216266435l 0.320755332 0.211130738l 0.320755332 0.205654792l 0.320755332 0.199881922l 0.320755332 0.193857303l 0.320755332 0.187627484l 0.320755332 0.181239901l 0.320755332 0.174742387l 0.320755332 0.168182684l 0.320755332 0.161607954l 0.320755332 0.155064314l 0.320755332 0.148596379l 0.320755332 0.142246835l 0.320755332 0.136056034l 0.320755332 0.130061623l 0.320755332 0.124298217l 0.320755332 0.1187971l 0.320755332 0.113585977l 0.320755332 0.108688773l 0.320755332 0.10412547l 0.320755332 0.099912007l 0.320755332 0.096060215l 0.320755332 0.092577811l 0.320755332 0.089468432l 0.320755332 0.086731725l 0.320755332 0.084363474l 0.320755332 0.082355768l 0.320755332 0.080697218l 0.320755332 0.079373197l 0.320755332 0.078366115l 0.320755332 0.077655728l 0.320755332 0.077219457l 0.320755332 0.077032733l 0.320755332 0.07706935l 0.320755332 0.077301828l 0.320755332 0.077701777l 0.320755332 0.078240258l 0.320755332 0.078888138l 0.320755332 0.079616435l 0.320755332 0.080396641l 0.320755332 0.081201038l 0.320755332 0.082002978l 0.320755332 0.082777146l 0.320755332 0.083499792l 0.320755332 0.084148938l 0.320755332 0.084704546l 0.320755332 0.085148659l 0.320755332 0.085465511l 0.320755332 0.085641601l 0.320755332 0.085665738l 0.320755332 0.085529054l 0.320755332 0.085224985l 0.320755332 0.084749232l 0.320755332 0.084099687l 0.320755332 0.083276344l 0.320755332 0.082281181l 0.320755332 0.081118032l 0.320755332 0.079792438l 0.320755332 0.078311489l 0.320755332 0.076683653l 0.320755332 0.074918601l 0.320755332 0.073027027l 0.320755332 0.07102047l 0.320755332 0.06891113l 0.320755332 0.066711693l 0.320755332 0.064435163l 0.320755332 0.062094695l 0.320755332 0.059703446l 0.320755332 0.057274428l 0.320755332 0.05482038l 0.320755332 0.052353647l 0.320755332 0.049886076l 0.320755332 0.047428924l 0.320755332 0.044992782l 0.320755332 0.042587509l 0.320755332 0.040222184l 0.320755332 0.037905069l 0.320755332 0.035643582l 0.320755332 0.033444287l 0.320755332 0.031312894l 0.320755332 0.029254263l 0.320755332 0.027272426l 0.320755332 0.02537061l 0.320755332 0.023551274l 0.320755332 0.021816142l 0.320755332 0.020166251l 0.320755332 0.018601998l 0.320755332 0.01712319l 0.320755332 0.015729094l 0.320755332 0.014418497l 0.320755332 0.013189752l 0.320755332 0.012040838l 0.320755332 0.010969408l 0.320755332 0.009972842l 0.320755332 0.009048294l 0.320755332 0.008192742l 0.320755332 0.007403025l 0.320755332 0.006675887l 0.320755332 0.006008017l 0.320755332 0.005396076l 0.320755332 0.004836731l 0.320755332 0.004326683v 0.032037056h -163.905974758v -0.032130231Z "/><path fill="#e69f00d9" fill-rule="nonzero" stroke="#f5f5f4d9" stroke-width="0.6" stroke-linecap="butt" stroke-linejoin="miter" stroke-miterlimit="4" transform="translate(18.238838634 97.366381107)" d="M 0 0m 0 51.985025357l 0.313163944 -0.005340678l 0.313163944 -0.005928403l 0.313163944 -0.006571928l 0.313163944 -0.00727548l 0.313163944 -0.008043489l 0.313163944 -0.008880581l 0.313163944 -0.009791575l 0.313163944 -0.010781475l 0.313163944 -0.011855461l 0.313163944 -0.013018877l 0.313163944 -0.014277221l 0.313163944 -0.015636124l 0.313163944 -0.017101338l 0.313163944 -0.018678712l 0.313163944 -0.020374169l 0.313163944 -0.022193681l 0.313163944 -0.024143243l 0.313163944 -0.026228839l 0.313163944 -0.028456411l 0.313163944 -0.030831823l 0.313163944 -0.033360825l 0.313163944 -0.036049011l 0.313163944 -0.038901778l 0.313163944 -0.041924282l 0.313163944 -0.045121393l 0.313163944 -0.048497652l 0.313163944 -0.052057216l 0.313163944 -0.05580382l 0.313163944 -0.05974072l 0.313163944 -0.063870652l 0.313163944 -0.068195779l 0.313163944 -0.07271765l 0.313163944 -0.077437152l 0.313163944 -0.082354466l 0.313163944 -0.087469033l 0.313163944 -0.092779511l 0.313163944 -0.098283742l 0.313163944 -0.103978725l 0.313163944 -0.109860589l 0.313163944 -0.115924573l 0.313163944 -0.122165012l 0.313163944 -0.128575327l 0.313163944 -0.135148021l 0.313163944 -0.141874686l 0.313163944 -0.14874601l 0.313163944 -0.155751796l 0.313163944 -0.162880984l 0.313163944 -0.170121688l 0.313163944 -0.177461227l 0.313163944 -0.184886179l 0.313163944 -0.192382428l 0.313163944 -0.199935225l 0.313163944 -0.207529257l 0.313163944 -0.215148716l 0.313163944 -0.22277738l 0.313163944 -0.230398693l 0.313163944 -0.237995856l 0.313163944 -0.245551917l 0.313163944 -0.253049867l 0.313163944 -0.260472735l 0.313163944 -0.26780369l 0.313163944 -0.275026141l 0.313163944 -0.282123833l 0.313163944 -0.289080951l 0.313163944 -0.29588221l 0.313163944 -0.302512957l 0.313163944 -0.308959256l 0.313163944 -0.315207974l 0.313163944 -0.321246864l 0.313163944 -0.327064637l 0.313163944 -0.332651032l 0.313163944 -0.337996872l 0.313163944 -0.343094119l 0.313163944 -0.347935918l 0.313163944 -0.352516627l 0.313163944 -0.356831846l 0.313163944 -0.36087843l 0.313163944 -0.364654497l 0.313163944 -0.368159421l 0.313163944 -0.371393822l 0.313163944 -0.374359542l 0.313163944 -0.377059611l 0.313163944 -0.379498211l 0.313163944 -0.381680624l 0.313163944 -0.383613176l 0.313163944 -0.385303177l 0.313163944 -0.38675885l 0.313163944 -0.387989254l 0.313163944 -0.38900421l 0.313163944 -0.389814212l 0.313163944 -0.390430347l 0.313163944 -0.390864204l 0.313163944 -0.391127784l 0.313163944 -0.391233415l 0.313163944 -0.391193659l 0.313163944 -0.391021228l 0.313163944 -0.390728899l 0.313163944 -0.390329431l 0.313163944 -0.389835488l 0.313163944 -0.389259566l 0.313163944 -0.38861392l 0.313163944 -0.387910506l 0.313163944 -0.387160917l 0.313163944 -0.386376333l 0.313163944 -0.385567475l 0.313163944 -0.384744562l 0.313163944 -0.383917277l 0.313163944 -0.383094739l 0.313163944 -0.382285479l 0.313163944 -0.381497421l 0.313163944 -0.380737871l 0.313163944 -0.38001351l 0.313163944 -0.379330385l 0.313163944 -0.378693916l 0.313163944 -0.378108896l 0.313163944 -0.377579493l 0.313163944 -0.377109268l 0.313163944 -0.376701175l 0.313163944 -0.376357579l 0.313163944 -0.376080262l 0.313163944 -0.375870439l 0.313163944 -0.375728768l 0.313163944 -0.375655357l 0.313163944 -0.375649777l 0.313163944 -0.375711069l 0.313163944 -0.375837746l 0.313163944 -0.376027801l 0.313163944 -0.376278705l 0.313163944 -0.376587411l 0.313163944 -0.376950346l 0.313163944 -0.377363409l 0.313163944 -0.377821965l 0.313163944 -0.378320837l 0.313163944 -0.378854297l 0.313163944 -0.379416054l 0.313163944 -0.379999248l 0.313163944 -0.380596437l 0.313163944 -0.38119959l 0.313163944 -0.38180008l 0.313163944 -0.382388676l 0.313163944 -0.382955543l 0.313163944 -0.38349024l 0.313163944 -0.383981728l 0.313163944 -0.384418379l 0.313163944 -0.384787985l 0.313163944 -0.385077789l 0.313163944 -0.385274499l 0.313163944 -0.385364335l 0.313163944 -0.385333058l 0.313163944 -0.385166028l 0.313163944 -0.384848253l 0.313163944 -0.384364458l 0.313163944 -0.383699156l 0.313163944 -0.382836727l 0.313163944 -0.381761505l 0.313163944 -0.380457877l 0.313163944 -0.378910381l 0.313163944 -0.377103819l 0.313163944 -0.375023366l 0.313163944 -0.372654694l 0.313163944 -0.369984094l 0.313163944 -0.366998601l 0.313163944 -0.363686126l 0.313163944 -0.360035584l 0.313163944 -0.356037023l 0.313163944 -0.35168175l 0.313163944 -0.346962457l 0.313163944 -0.341873341l 0.313163944 -0.336410217l 0.313163944 -0.330570622l 0.313163944 -0.324353915l 0.313163944 -0.317761361l 0.313163944 -0.310796206l 0.313163944 -0.303463741l 0.313163944 -0.295771346l 0.313163944 -0.287728523l 0.313163944 -0.27934691l 0.313163944 -0.270640279l 0.313163944 -0.261624517l 0.313163944 -0.252317583l 0.313163944 -0.242739452l 0.313163944 -0.232912039l 0.313163944 -0.222859096l 0.313163944 -0.212606101l 0.313163944 -0.202180124l 0.313163944 -0.191609671l 0.313163944 -0.180924517l 0.313163944 -0.170155521l 0.313163944 -0.159334425l 0.313163944 -0.148493644l 0.313163944 -0.13766604l 0.313163944 -0.126884688l 0.313163944 -0.116182641l 0.313163944 -0.105592679l 0.313163944 -0.095147062l 0.313163944 -0.084877282l 0.313163944 -0.074813817l 0.313163944 -0.064985888l 0.313163944 -0.055421222l 0.313163944 -0.046145828l 0.313163944 -0.037183782l 0.313163944 -0.028557025l 0.313163944 -0.020285182l 0.313163944 -0.012385393l 0.313163944 -0.004872166l 0.313163944 0.002242744l 0.313163944 0.00895044l 0.313163944 0.015244956l 0.313163944 0.021123316l 0.313163944 0.026585553l 0.313163944 0.031634714l 0.313163944 0.036276833l 0.313163944 0.040520878l 0.313163944 0.044378674l 0.313163944 0.047864801l 0.313163944 0.050996467l 0.313163944 0.053793361l 0.313163944 0.056277482l 0.313163944 0.058472951l 0.313163944 0.060405807l 0.313163944 0.062103781l 0.313163944 0.063596068l 0.313163944 0.064913081l 0.313163944 0.066086196l 0.313163944 0.067147497l 0.313163944 0.068129512l 0.313163944 0.069064956l 0.313163944 0.069986466l 0.313163944 0.070926346l 0.313163944 0.071916322l 0.313163944 0.072987294l 0.313163944 0.074169113l 0.313163944 0.075490355l 0.313163944 0.076978123l 0.313163944 0.078657854l 0.313163944 0.080553148l 0.313163944 0.08268561l 0.313163944 0.085074716l 0.313163944 0.087737693l 0.313163944 0.090689416l 0.313163944 0.093942332l 0.313163944 0.097506397l 0.313163944 0.101389029l 0.313163944 0.105595089l 0.313163944 0.110126868l 0.313163944 0.114984101l 0.313163944 0.120163992l 0.313163944 0.125661252l 0.313163944 0.131468158l 0.313163944 0.13757462l 0.313163944 0.143968259l 0.313163944 0.150634504l 0.313163944 0.157556689l 0.313163944 0.164716166l 0.313163944 0.172092423l 0.313163944 0.179663213l 0.313163944 0.18740468l 0.313163944 0.195291502l 0.313163944 0.203297032l 0.313163944 0.211393446l 0.313163944 0.21955189l 0.313163944 0.227742634l 0.313163944 0.235935231l 0.313163944 0.244098672l 0.313163944 0.252201544l 0.313163944 0.260212193l 0.313163944 0.268098889l 0.313163944 0.275829982l 0.313163944 0.283374072l 0.313163944 0.290700166l 0.313163944 0.297777849l 0.313163944 0.304577441l 0.313163944 0.31107016l 0.313163944 0.317228282l 0.313163944 0.323025301l 0.313163944 0.328436081l 0.313163944 0.333437011l 0.313163944 0.338006149l 0.313163944 0.342123369l 0.313163944 0.345770492l 0.313163944 0.348931419l 0.313163944 0.351592251l 0.313163944 0.353741403l 0.313163944 0.355369701l 0.313163944 0.35647048l 0.313163944 0.357039654l 0.313163944 0.35707579l 0.313163944 0.356580149l 0.313163944 0.355556729l 0.313163944 0.354012279l 0.313163944 0.3519563l 0.313163944 0.349401032l 0.313163944 0.346361418l 0.313163944 0.342855048l 0.313163944 0.338902093l 0.313163944 0.334525204l 0.313163944 0.329749412l 0.313163944 0.324601993l 0.313163944 0.319112323l 0.313163944 0.313311713l 0.313163944 0.307233229l 0.313163944 0.300911496l 0.313163944 0.294382489l 0.313163944 0.287683307l 0.313163944 0.280851943l 0.313163944 0.273927037l 0.313163944 0.266947629l 0.313163944 0.259952902l 0.313163944 0.252981923l 0.313163944 0.246073379l 0.313163944 0.239265326l 0.313163944 0.232594926l 0.313163944 0.226098197l 0.313163944 0.219809775l 0.313163944 0.213762677l 0.313163944 0.20798808l 0.313163944 0.202515116l 0.313163944 0.197370678l 0.313163944 0.192579247l 0.313163944 0.188162738l 0.313163944 0.184140358l 0.313163944 0.180528501l 0.313163944 0.177340649l 0.313163944 0.174587303l 0.313163944 0.172275943l 0.313163944 0.170410997l 0.313163944 0.168993849l 0.313163944 0.16802286l 0.313163944 0.167493418l 0.313163944 0.167398003l 0.313163944 0.167726286l 0.313163944 0.168465231l 0.313163944 0.169599233l 0.313163944 0.171110266l 0.313163944 0.172978042l 0.313163944 0.1751802l 0.313163944 0.17769249l 0.313163944 0.18048898l 0.313163944 0.183542272l 0.313163944 0.186823717l 0.313163944 0.190303644l 0.313163944 0.193951587l 0.313163944 0.19773652l 0.313163944 0.201627081l 0.313163944 0.205591805l 0.313163944 0.209599347l 0.313163944 0.2136187l 0.313163944 0.217619408l 0.313163944 0.221571767l 0.313163944 0.225447022l 0.313163944 0.229217547l 0.313163944 0.232857015l 0.313163944 0.236340555l 0.313163944 0.239644898l 0.313163944 0.242748502l 0.313163944 0.245631669l 0.313163944 0.248276643l 0.313163944 0.250667691l 0.313163944 0.252791174l 0.313163944 0.254635592l 0.313163944 0.256191627l 0.313163944 0.257452157l 0.313163944 0.258412264l 0.313163944 0.259069222l 0.313163944 0.259422473l 0.313163944 0.259473587l 0.313163944 0.259226214l 0.313163944 0.258686013l 0.313163944 0.257860579l 0.313163944 0.256759352l 0.313163944 0.255393521l 0.313163944 0.253775912l 0.313163944 0.25192087l 0.313163944 0.249844135l 0.313163944 0.247562706l 0.313163944 0.245094704l 0.313163944 0.242459222l 0.313163944 0.239676179l 0.313163944 0.236766164l 0.313163944 0.233750282l 0.313163944 0.230649991l 0.313163944 0.227486951l 0.313163944 0.224282859l 0.313163944 0.221059291l 0.313163944 0.217837555l 0.313163944 0.214638531l 0.313163944 0.211482525l 0.313163944 0.208389132l 0.313163944 0.205377092l 0.313163944 0.202464164l 0.313163944 0.199667007l 0.313163944 0.197001063l 0.313163944 0.194480453l 0.313163944 0.192117891l 0.313163944 0.189924591l 0.313163944 0.187910206l 0.313163944 0.186082762l 0.313163944 0.184448616l 0.313163944 0.183012422l 0.313163944 0.181777107l 0.313163944 0.180743868l 0.313163944 0.179912176l 0.313163944 0.179279795l 0.313163944 0.178842814l 0.313163944 0.178595696l 0.313163944 0.178531328l 0.313163944 0.178641097l 0.313163944 0.178914967l 0.313163944 0.179341572l 0.313163944 0.179908316l 0.313163944 0.180601483l 0.313163944 0.181406354l 0.313163944 0.182307333l 0.313163944 0.183288078l 0.313163944 0.184331633l 0.313163944 0.185420572l 0.313163944 0.186537131l 0.313163944 0.18766336l 0.313163944 0.188781257l 0.313163944 0.18987291l 0.313163944 0.190920636l 0.313163944 0.191907113l 0.313163944 0.192815509l 0.313163944 0.193629603l 0.313163944 0.194333904l 0.313163944 0.194913754l 0.313163944 0.195355432l 0.313163944 0.195646241l 0.313163944 0.195774587l 0.313163944 0.195730049l 0.313163944 0.195503438l 0.313163944 0.195086842l 0.313163944 0.194473664l 0.313163944 0.193658646l 0.313163944 0.192637878l 0.313163944 0.191408805l 0.313163944 0.189970216l 0.313163944 0.188322224l 0.313163944 0.186466237l 0.313163944 0.184404915l 0.313163944 0.18214213l 0.313163944 0.179682904l 0.313163944 0.177033344l 0.313163944 0.174200577l 0.313163944 0.17119267l 0.313163944 0.168018553l 0.313163944 0.164687928l 0.313163944 0.161211186l 0.313163944 0.157599316l 0.313163944 0.153863812l 0.313163944 0.150016579l 0.313163944 0.146069845l 0.313163944 0.142036069l 0.313163944 0.137927849l 0.313163944 0.133757838l 0.313163944 0.129538662l 0.313163944 0.125282836l 0.313163944 0.121002693l 0.313163944 0.11671031l 0.313163944 0.112417446l 0.313163944 0.108135476l 0.313163944 0.103875344l 0.313163944 0.099647507l 0.313163944 0.095461898l 0.313163944 0.091327887l 0.313163944 0.087254247l 0.313163944 0.083249137l 0.313163944 0.079320074l 0.313163944 0.075473928l 0.313163944 0.071716908l 0.313163944 0.068054562l 0.313163944 0.064491779l 0.313163944 0.061032796l 0.313163944 0.057681208l 0.313163944 0.054439985l 0.313163944 0.051311489l 0.313163944 0.048297496l 0.313163944 0.045399222l 0.313163944 0.042617348l 0.313163944 0.039952048l 0.313163944 0.037403022l 0.313163944 0.03496953l 0.313163944 0.032650417l 0.313163944 0.030444153l 0.313163944 0.028348866l 0.313163944 0.026362372l 0.313163944 0.024482212l 0.313163944 0.022705682l 0.313163944 0.021029867l 0.313163944 0.019451671l 0.313163944 0.017967847l 0.313163944 0.016575027l 0.313163944 0.015269746l 0.313163944 0.014048469l 0.313163944 0.012907619l 0.313163944 0.011843594l 0.313163944 0.010852787l 0.313163944 0.009931613l 0.313163944 0.009076517l 0.313163944 0.008283994l 0.313163944 0.007550604l 0.313163944 0.006872981l 0.313163944 0.006247847l 0.313163944 0.005672017l 0.313163944 0.00514241l 0.313163944 0.004656055l 0.313163944 0.004210095l 0.313163944 0.00380179l 0.313163944 0.003428523l 0.313163944 0.003087796l 0.313163944 0.002777238v 0.022337948h -160.026775377v -0.043471595Z "/></g></g></g><path fill="none" transform="translate(163.692897638 192.350330709)" d="M 0 0h 52.02v 8.064h -52.02v -8.064Z "/><g transform="translate(163.692897638 192.350330567)"><g transform="matrix(1 0 0 -1 0 5.922)"><use xlink:href="#gB4F0D25B5DE46FE4884AAF0D69A4CE76" x="0" y="0" fill="#f5f5f4" fill-rule="nonzero"/><use xlink:href="#gF71CD90141C058754731CB923424AFF5" x="5.292" y="0" fill="#f5f5f4" fill-rule="nonzero"/><use xlink:href="#gAB89768063FECB7A3B2DCA9C98B07790" x="9.891" y="0" fill="#f5f5f4" fill-rule="nonzero"/><use xlink:href="#gB7ADC05C7CC292D7AE42D71EE1DDDCEC" x="14.445" y="0" fill="#f5f5f4" fill-rule="nonzero"/><use xlink:href="#g7919E138A6B7887FFC9F09D86374A4A9" x="21.33" y="0" fill="#f5f5f4" fill-rule="nonzero"/><use xlink:href="#gCD526F970F75B32D8B517499D55C4978" x="28.881" y="0" fill="#f5f5f4" fill-rule="nonzero"/><use xlink:href="#gA1FEA12DCE93D0EA0BBFC1201B9D8E1C" x="32.994" y="0" fill="#f5f5f4" fill-rule="nonzero"/><use xlink:href="#gA1FEA12DCE93D0EA0BBFC1201B9D8E1C" x="36.504" y="0" fill="#f5f5f4" fill-rule="nonzero"/><use xlink:href="#g47516AA720979696FAFCA8A7B93ACEFC" x="42.264" y="0" fill="#f5f5f4" fill-rule="nonzero"/><use xlink:href="#g5CFA47AB4D57D4AB66E1F7926F37B7D0" x="44.838" y="0" fill="#f5f5f4" fill-rule="nonzero"/><use xlink:href="#gFB58F9CAD08F4D0DFA3961AF05C28A35" x="49.338" y="0" fill="#f5f5f4" fill-rule="nonzero"/></g></g><path fill="none" transform="translate(0.488834646 75.650507874)" d="M 0 0m 0 27.009l 0 -27.009h 8.028l 0 27.009h -8.028Z "/><g transform="matrix(0 -1 1 0 0.488834646 102.659507874)"><g transform="matrix(1 0 0 -1 0 5.922)"><use xlink:href="#gA877B80847B622C91F0EE0DF55B2CE6F" x="0" y="0" fill="#f5f5f4" fill-rule="nonzero"/><use xlink:href="#g4F94A37786D24AC11F1E2C6578232409" x="4.365" y="0" fill="#f5f5f4" fill-rule="nonzero"/><use xlink:href="#g15283247E004048E8F39F157505A0F31" x="9.099" y="0" fill="#f5f5f4" fill-rule="nonzero"/><use xlink:href="#gECB1CD146348D219847309C79C322A37" x="13.185" y="0" fill="#f5f5f4" fill-rule="nonzero"/><use xlink:href="#gEDE113971A7C9D129D6A2104959F55B2" x="17.037" y="0" fill="#f5f5f4" fill-rule="nonzero"/><use xlink:href="#g15283247E004048E8F39F157505A0F31" x="19.476" y="0" fill="#f5f5f4" fill-rule="nonzero"/><use xlink:href="#gA1FEA12DCE93D0EA0BBFC1201B9D8E1C" x="23.499" y="0" fill="#f5f5f4" fill-rule="nonzero"/></g></g></g></g></g><defs><symbol id="g94CA49381870409795489232C8E0F99F" overflow="visible"><path d="M 0 0m 2.076 7.74c -0.48 0 -1.848 0.024 -1.848 0.024c -0.12 -0.072 -0.12 -0.336 0 -0.408c 0.66 -0.036 0.996 -0.084 0.996 -1.08v -4.812c 0 -0.996 -0.336 -1.044 -0.996 -1.08c -0.12 -0.072 -0.12 -0.336 0 -0.408c 0 0 1.368 0.024 1.848 0.024c 0.48 0 1.248 -0.024 1.968 -0.024c 2.46 0 3.252 1.032 3.252 2.256c 0 1.056 -0.528 1.74 -1.8 2.076v 0.024c 0.648 0.288 1.152 0.948 1.152 1.56c 0 0.828 -0.444 1.872 -2.868 1.872c -0.6 0 -1.32 -0.024 -1.704 -0.024Z m 0.828 -3.732h 0.852c 1.236 0 1.776 -0.732 1.776 -1.764c 0 -0.72 -0.252 -1.764 -1.836 -1.764c -0.72 0 -0.792 0.18 -0.792 0.528Z m 0 2.736c 0 0.348 0.06 0.516 0.84 0.516c 0.552 0 1.224 -0.216 1.224 -1.392c 0 -0.96 -0.54 -1.356 -1.392 -1.356h -0.672Z "/></symbol><symbol id="g482B6484D8169192ED302BC1FABC0EB8" overflow="visible"><path d="M 0 0m 0.444 2.484c 0 -1.572 1.248 -2.604 2.856 -2.604c 0.852 0 1.56 0.24 2.052 0.684c 0.612 0.54 0.816 1.356 0.816 2.028c 0 1.572 -1.068 2.736 -2.856 2.736c -0.996 0 -1.74 -0.348 -2.208 -0.888c -0.456 -0.528 -0.66 -1.248 -0.66 -1.956Z m 2.676 2.34c 0.816 0 1.368 -0.972 1.368 -2.616c 0 -1.44 -0.564 -1.824 -0.996 -1.824c -0.984 0 -1.368 1.476 -1.368 2.364c 0 1.104 0.192 2.076 0.996 2.076Z "/></symbol><symbol id="g6318351890DB0E292B53BA9E457E848C" overflow="visible"><path d="M 0 0m 4.26 0.576c 0.024 -0.288 0.048 -0.492 0.048 -0.492c 0.012 -0.144 0.108 -0.204 0.276 -0.204c 0.444 0.12 1.164 0.288 1.992 0.396c 0.024 0.072 0 0.312 -0.024 0.384c -0.648 0.06 -0.78 0.252 -0.78 0.936v 5.4c 0 0.78 0.036 1.224 0.036 1.224c 0 0.108 -0.084 0.156 -0.192 0.156c -0.444 -0.144 -1.404 -0.276 -2.256 -0.312c -0.036 -0.144 -0.024 -0.3 0.036 -0.408c 0.756 -0.06 0.816 -0.072 0.816 -0.9v -1.56c -0.228 0.072 -0.516 0.132 -0.864 0.132c -1.548 0 -2.904 -1.356 -2.904 -2.952c 0 -0.708 0.252 -1.536 0.84 -1.992c 0.432 -0.336 0.732 -0.504 1.404 -0.504c 0.324 0 1.212 0.528 1.464 0.696Z m -0.036 0.564c -0.252 -0.204 -0.888 -0.468 -1.032 -0.468c -0.6 0 -1.068 0.672 -1.068 2.076c 0 0.636 0.072 1.188 0.3 1.56c 0.204 0.324 0.528 0.516 0.888 0.516c 0.312 0 0.612 -0.036 0.9 -0.432v -2.952c 0 -0.096 0 -0.204 0.012 -0.3Z "/></symbol><symbol id="gD4B05AE9CAE173022764EC3E80C7DD69" overflow="visible"><path d="M 0 0m 2.904 -2.016c 0.192 0.336 0.372 0.768 0.516 1.128c 0.96 2.316 1.548 3.612 2.184 4.956c 0.168 0.348 0.528 0.72 0.972 0.756c 0.072 0.072 0.072 0.336 0 0.408c -0.3 -0.012 -0.516 -0.024 -0.852 -0.024c -0.42 0 -0.828 0.012 -1.272 0.024c -0.072 -0.072 -0.072 -0.336 0 -0.408c 0.384 -0.036 0.768 -0.096 0.576 -0.528l -1.236 -2.772c 0 -0.012 0 -0.012 -0.012 -0.024c 0 0.012 0 0.024 -0.012 0.048l -1.116 2.508c -0.012 0.012 -0.012 0.024 -0.012 0.036c -0.216 0.468 -0.3 0.672 0.408 0.732c 0.072 0.072 0.072 0.336 0 0.408c -0.444 -0.012 -1.164 -0.024 -1.596 -0.024c -0.408 0 -1.092 0.012 -1.332 0.024c -0.072 -0.072 -0.072 -0.336 0 -0.408c 0.528 -0.048 0.624 -0.132 0.948 -0.888l 1.548 -3.552c 0.036 -0.06 0.084 -0.108 0.12 -0.156c 0.156 -0.216 0.288 -0.396 0.216 -0.564l -0.288 -0.66c -0.156 -0.372 -0.3 -0.588 -0.636 -0.588c -0.216 0 -0.252 0.048 -0.42 0.048c -0.456 0 -0.72 -0.312 -0.72 -0.552c 0 -0.156 0.036 -0.348 0.144 -0.48c 0.108 -0.132 0.312 -0.216 0.468 -0.216c 0.156 0 0.516 0.048 0.684 0.12c 0.252 0.12 0.588 0.408 0.72 0.648Z "/></symbol><symbol id="g66EE1CE856028FC580A66CD64DF5012" overflow="visible"><path d="M 0 0m 7.956 1.392c 0.06 -0.972 0.012 -0.972 -0.768 -1.008c -0.072 -0.072 -0.072 -0.336 0 -0.408c 0.564 0.012 1.644 0.024 2.004 0.024c 0.36 0 0.912 -0.012 1.308 -0.024c 0.072 0.072 0.072 0.336 0 0.408c -0.816 0.036 -0.852 0.072 -0.924 1.068l -0.36 5.052c -0.048 0.648 0.012 0.804 0.828 0.852c 0.072 0.072 0.072 0.336 0 0.408l -2.412 -0.024l -2.28 -5.328h -0.06l -2.148 5.328l -2.46 0.024c -0.072 -0.072 -0.072 -0.336 0 -0.408c 0.828 -0.048 0.9 -0.06 0.816 -0.96l -0.48 -4.944c -0.072 -0.72 -0.216 -1.008 -0.9 -1.068c -0.072 -0.072 -0.072 -0.336 0 -0.408c 0.36 0.012 0.744 0.024 1.032 0.024c 0.288 0 1.008 -0.012 1.368 -0.024c 0.072 0.072 0.072 0.336 0 0.408c -0.792 0.06 -0.852 0.42 -0.792 1.092l 0.312 4.5h 0.048l 2.364 -5.916c 0.036 -0.084 0.168 -0.156 0.24 -0.156c 0.072 0 0.18 0.048 0.228 0.156l 2.7 6.348h 0.024Z "/></symbol><symbol id="gDC05A2A7E4AEFCF99C6614634AF8B2F0" overflow="visible"><path d="M 0 0m 3.54 0.588c 0.084 -0.492 0.408 -0.708 0.936 -0.708c 0.66 0 1.128 0.252 1.572 0.672c -0.024 0.144 -0.072 0.24 -0.216 0.336c -0.156 -0.12 -0.276 -0.168 -0.504 -0.168c -0.264 0 -0.336 0.216 -0.336 0.804l 0.024 1.728c 0 1.728 -1.068 2.076 -2.052 2.076c -0.876 0 -2.22 -0.504 -2.22 -1.296c 0 -0.336 0.144 -0.6 0.612 -0.6c 0.432 0 0.744 0.264 0.744 0.552c 0 0.06 -0.012 0.132 -0.024 0.204c -0.024 0.12 -0.048 0.24 -0.024 0.36c 0.012 0.132 0.108 0.276 0.504 0.276c 0.504 0 0.924 -0.216 0.924 -1.74l -0.804 -0.252c -1.26 -0.396 -2.148 -0.744 -2.148 -1.692c 0 -0.828 0.456 -1.26 1.5 -1.26c 0.348 0 1.044 0.384 1.44 0.696Z m -0.06 2.028v -1.584c -0.3 -0.24 -0.6 -0.432 -0.816 -0.432c -0.516 0 -0.696 0.348 -0.696 0.72c 0 0.444 0.036 0.816 0.888 1.092Z "/></symbol><symbol id="g93ED4154508DB3ADD21415419B103611" overflow="visible"><path d="M 0 0m 0.576 1.752c 0.048 -0.588 0.108 -1.152 0.204 -1.608c 0.228 -0.072 0.996 -0.264 1.668 -0.264c 0.924 0 2.076 0.504 2.076 1.548c 0 0.408 -0.096 0.732 -0.372 1.032c -0.336 0.384 -0.84 0.684 -1.392 0.924c -0.48 0.204 -0.648 0.588 -0.648 0.936c 0 0.276 0.228 0.504 0.576 0.504c 0.42 0 0.828 -0.384 1.128 -1.116c 0.216 -0.036 0.348 -0.024 0.468 0.06c 0 0.432 -0.048 0.888 -0.156 1.272c -0.384 0.168 -0.684 0.288 -1.344 0.288c -0.636 0 -1.236 -0.24 -1.62 -0.624c -0.276 -0.276 -0.408 -0.612 -0.408 -0.936c 0 -0.36 0.144 -0.648 0.372 -0.9c 0.372 -0.408 1.032 -0.828 1.392 -0.996c 0.48 -0.216 0.612 -0.648 0.612 -0.936c 0 -0.384 -0.384 -0.588 -0.708 -0.588c -0.54 0 -1.116 0.552 -1.368 1.428c -0.192 0.036 -0.288 0.024 -0.48 -0.024Z "/></symbol><symbol id="gE8624B8EF49A117BA8F29A48ACE5ABEF" overflow="visible"><path d="M 0 0m 1.344 1.524c -0.312 0 -0.756 -0.48 -0.756 -0.756c 0 -0.3 0.252 -0.636 0.48 -0.696c 0.156 -0.036 0.432 -0.132 0.432 -0.396c 0 -0.312 -0.612 -1.164 -1.152 -1.308c -0.06 -0.156 -0.048 -0.276 0.084 -0.372c 0.444 0.072 0.972 0.372 1.308 0.708c 0.336 0.336 0.648 0.924 0.648 1.344c 0 0.984 -0.396 1.476 -1.044 1.476Z "/></symbol><symbol id="g4DE5D42EDA42FA72D6DE464A07815109" overflow="visible"><path d="M 0 0m 4.344 7.848c -0.48 0 -3.492 -0.084 -3.972 -0.084c -0.12 -0.072 -0.12 -0.336 0 -0.408c 0.66 -0.036 0.996 -0.084 0.996 -1.08v -4.812c 0 -0.996 -0.336 -1.044 -0.996 -1.08c -0.12 -0.072 -0.12 -0.336 0 -0.408c 0.48 0.012 1.368 0.024 1.848 0.024c 0.48 0 1.344 -0.012 1.824 -0.024c 0.12 0.072 0.12 0.336 0 0.408c -0.66 0.036 -0.996 0.084 -0.996 1.08v 1.932c 0.948 0 1.056 -0.084 1.224 -0.36l 1.404 -2.088c 0.372 -0.54 0.864 -1.068 1.584 -1.068c 0.48 0 1.104 0.036 1.224 0.096c 0.048 0.084 0.036 0.312 -0.012 0.408c -0.54 0 -0.816 0.288 -1.152 0.792l -1.632 2.52c 0.648 0.264 1.584 0.888 1.584 2.112c 0 0.48 -0.18 1.2 -0.924 1.644c -0.444 0.264 -1.104 0.396 -2.004 0.396Z m 1.116 -2.244c 0 -1.476 -0.888 -1.704 -1.896 -1.704h -0.516v 2.388c 0 0.816 0.276 1.068 0.912 1.068c 0.696 0 1.5 -0.288 1.5 -1.752Z "/></symbol><symbol id="g1094D23D321B642DA133CC49B1BA1EB9" overflow="visible"><path d="M 0 0m 2.784 1.464v 2.388c 0 0.6 0.048 1.272 0.048 1.272c 0 0.132 -0.108 0.204 -0.276 0.204c -0.336 -0.132 -1.308 -0.228 -2.136 -0.336c -0.024 -0.072 0 -0.312 0.024 -0.384c 0.66 -0.06 0.78 -0.156 0.78 -0.84v -2.304c 0 -0.996 -0.132 -1.02 -0.864 -1.08c -0.072 -0.072 -0.072 -0.336 0 -0.408c 0.504 0.012 1.008 0.024 1.644 0.024c 0.636 0 1.128 -0.012 1.644 -0.024c 0.072 0.072 0.072 0.336 0 0.408c -0.732 0.048 -0.864 0.084 -0.864 1.08Z m -1.62 5.688c 0 -0.396 0.288 -0.792 0.768 -0.792c 0.54 0 0.852 0.432 0.852 0.744c 0 0.36 -0.276 0.792 -0.78 0.792c -0.564 0 -0.84 -0.384 -0.84 -0.744Z "/></symbol><symbol id="g8D15A55F054D4F8515F5F3C5E6F83BE2" overflow="visible"><path d="M 0 0m 5.604 4.728c 0.336 0 0.528 0.144 0.528 0.588c 0 0.228 -0.312 0.576 -0.768 0.576c -0.528 0 -1.224 -0.396 -1.572 -0.708c -0.216 0.12 -0.468 0.144 -1.008 0.144c -0.516 0 -1.02 -0.12 -1.416 -0.384c -0.492 -0.312 -0.816 -0.78 -0.816 -1.392c 0 -0.588 0.348 -1.224 0.924 -1.536c -0.372 -0.324 -0.948 -0.96 -0.948 -1.2c 0 -0.228 0.036 -0.372 0.156 -0.552c 0.108 -0.168 0.252 -0.264 0.492 -0.336c -0.516 -0.312 -1.044 -0.996 -1.044 -1.2c 0 -0.444 0.144 -0.96 0.468 -1.188c 0.468 -0.324 1.26 -0.396 1.836 -0.396c 1.668 0 3.576 0.876 3.576 2.196c 0 0.252 -0.12 0.768 -0.6 1.092c -0.468 0.312 -2.268 0.396 -3.156 0.396c -0.216 0 -0.54 0.024 -0.54 0.504c 0 0.192 0.12 0.36 0.18 0.504c 0.252 -0.12 0.504 -0.132 0.876 -0.132c 0.612 0 1.176 0.156 1.584 0.516c 0.348 0.312 0.588 0.732 0.588 1.272c 0 0.672 -0.336 1.116 -0.744 1.452c 0.096 0.12 0.492 0.336 0.612 0.336c 0.108 0 0.192 -0.072 0.228 -0.144c 0.048 -0.156 0.264 -0.408 0.564 -0.408Z m -3.504 -5.028c 0.924 0 2.7 -0.036 2.7 -0.672c 0 -0.432 -0.192 -0.924 -0.588 -1.14c -0.372 -0.216 -0.984 -0.24 -1.44 -0.24c -0.792 0 -1.332 0.588 -1.332 1.2c 0 0.408 0 0.684 0.132 0.924c 0.12 -0.048 0.276 -0.072 0.528 -0.072Z m 1.38 3.756c 0 -1.152 -0.336 -1.296 -0.648 -1.296c -0.744 0 -0.84 0.888 -0.84 1.5c 0 0.888 0.216 1.212 0.684 1.212c 0.564 0 0.804 -0.468 0.804 -1.416Z "/></symbol><symbol id="gE18113BE1243CA6EC5596891CC422939" overflow="visible"><path d="M 0 0m 5.172 1.548c -0.492 -0.504 -1.14 -0.636 -1.596 -0.636c -0.936 0 -1.512 0.54 -1.512 1.716c 0 0.084 0.012 0.132 0.012 0.192h 2.88c 0.288 0 0.348 0.204 0.348 0.372c 0 1.02 -0.396 2.136 -2.16 2.136c -1.26 0 -2.7 -1.116 -2.7 -2.952c 0 -0.696 0.252 -1.428 0.768 -1.896c 0.456 -0.408 1.044 -0.6 1.896 -0.6c 0.828 0 1.644 0.42 2.244 1.296c 0 0.156 -0.06 0.372 -0.18 0.372Z m -3.048 1.752c 0.012 0.42 0.072 0.876 0.24 1.116c 0.192 0.288 0.516 0.408 0.648 0.408c 0.324 0 0.768 -0.312 0.768 -1.272c 0 -0.072 0 -0.228 -0.024 -0.252Z "/></symbol><symbol id="g1BFCBE3615795918F079FB691FA6A4A7" overflow="visible"><path d="M 0 0m 0.888 1.524c 0 -0.996 -0.024 -1.14 -0.072 -1.596c 0.144 -0.048 0.276 -0.084 0.408 -0.084c 0.156 0.132 0.276 0.3 0.384 0.516c 0.468 -0.36 1.2 -0.48 1.752 -0.48c 1.332 0 2.736 1.32 2.736 3.036c 0 0.684 -0.264 1.356 -0.648 1.8c -0.432 0.492 -1.008 0.612 -1.644 0.612c -0.372 0 -1.008 -0.42 -1.356 -0.672v 2.34c 0 0.78 0.036 1.224 0.036 1.224c 0 0.108 -0.084 0.156 -0.192 0.156c -0.444 -0.144 -1.404 -0.276 -2.256 -0.312c -0.036 -0.144 -0.024 -0.276 0.036 -0.384c 0.756 -0.06 0.816 -0.072 0.816 -0.9Z m 1.56 2.652c 0.396 0.264 0.66 0.3 0.936 0.3c 0.588 0 1.032 -0.54 1.032 -1.716c 0 -0.984 -0.168 -2.376 -1.116 -2.376c -0.348 0 -0.624 0.144 -0.852 0.42Z "/></symbol><symbol id="g4DADFF8D06AE4DC17FB93571E5AFF437" overflow="visible"><path d="M 0 0m 1.72 4.6c 0.344 0 0.664 -0.208 0.664 -0.72c 0 -0.4 -0.464 -1.016 -1.256 -1.128l 0.04 -0.256c 0.136 0.016 0.28 0.016 0.384 0.016c 0.456 0 1.048 -0.128 1.048 -1.032c 0 -1.064 -0.712 -1.28 -0.992 -1.28c -0.408 0 -0.48 0.184 -0.576 0.328c -0.08 0.112 -0.184 0.208 -0.344 0.208c -0.168 0 -0.336 -0.152 -0.336 -0.28c 0 -0.32 0.672 -0.536 1.152 -0.536c 0.952 0 1.8 0.616 1.8 1.672c 0 0.872 -0.656 1.184 -1.128 1.264l -0.008 0.016c 0.656 0.312 0.84 0.64 0.84 1.064c 0 0.24 -0.056 0.432 -0.248 0.632c -0.176 0.176 -0.456 0.312 -0.872 0.312c -1.176 0 -1.512 -0.768 -1.512 -1.032c 0 -0.112 0.08 -0.272 0.272 -0.272c 0.28 0 0.312 0.264 0.312 0.416c 0 0.512 0.552 0.608 0.76 0.608Z "/></symbol><symbol id="g97663EC9AEA74EADA07472643E1BE1B4" overflow="visible"><path d="M 0 0m 1.824 -0.08c 0.616 0 1.552 0.624 1.552 2.504c 0 0.792 -0.192 1.472 -0.544 1.936c -0.208 0.28 -0.544 0.52 -0.976 0.52c -0.792 0 -1.544 -0.944 -1.544 -2.528c 0 -0.856 0.264 -1.656 0.704 -2.096c 0.224 -0.224 0.496 -0.336 0.808 -0.336Z m 0.032 4.68c 0.136 0 0.264 -0.048 0.36 -0.136c 0.248 -0.208 0.464 -0.816 0.464 -1.888c 0 -0.736 -0.024 -1.24 -0.136 -1.648c -0.176 -0.656 -0.568 -0.728 -0.712 -0.728c -0.744 0 -0.824 1.368 -0.824 2.064c 0 1.968 0.488 2.336 0.848 2.336Z "/></symbol><symbol id="gF821431C61A4D7F3ECEFEC074E9C0EFC" overflow="visible"><path d="M 0 0m 3.44 1.752h -0.664v 2.336c 0 0.4 0 0.712 0.016 0.776l -0.016 0.016h -0.256c -0.056 0 -0.096 -0.048 -0.128 -0.088c -0.504 -0.616 -1.432 -1.936 -2.168 -3.08c 0.024 -0.12 0.072 -0.336 0.312 -0.336h 1.632v -0.736c 0 -0.368 -0.304 -0.368 -0.648 -0.392c -0.048 -0.048 -0.048 -0.216 0 -0.264c 0.256 0.008 0.576 0.016 0.944 0.016c 0.312 0 0.616 -0.008 0.872 -0.016c 0.048 0.048 0.048 0.216 0 0.264c -0.392 0.032 -0.56 0.016 -0.56 0.392v 0.736h 0.552c 0.112 0 0.232 0.152 0.232 0.248c 0 0.08 -0.032 0.128 -0.12 0.128Z m -1.272 2.304v -2.304h -1.528c 0.408 0.656 0.976 1.552 1.528 2.304Z "/></symbol><symbol id="gD00C9D162D1CBC09F2F7551D594DBB72" overflow="visible"><path d="M 0 0m 2.552 1.512c 0 -0.76 -0.4 -1.32 -0.88 -1.32c -0.304 0 -0.408 0.2 -0.528 0.36c -0.104 0.136 -0.24 0.256 -0.408 0.256c -0.152 0 -0.304 -0.136 -0.304 -0.296c 0 -0.328 0.68 -0.6 1.136 -0.6c 0.992 0 1.696 0.736 1.696 1.744c 0 0.776 -0.536 1.472 -1.432 1.472c -0.344 0 -0.64 -0.072 -0.784 -0.128l 0.16 1.336c 0.296 -0.032 0.552 -0.072 0.936 -0.072c 0.24 0 0.512 0.016 0.84 0.048l 0.128 0.544l -0.056 0.032c -0.456 -0.048 -0.888 -0.088 -1.312 -0.088c -0.296 0 -0.584 0.016 -0.864 0.04l -0.272 -2.304c 0.424 0.16 0.728 0.192 1.016 0.192c 0.52 0 0.928 -0.344 0.928 -1.216Z "/></symbol><symbol id="gAFC6ADE0F4BA5C584B85DD0E8532505B" overflow="visible"><path d="M 0 0m 1.152 2.744c 0.216 0.728 0.728 1.536 1.792 1.936c 0 0.096 -0.032 0.168 -0.096 0.208c -0.808 -0.24 -1.304 -0.576 -1.752 -1.096c -0.496 -0.576 -0.744 -1.304 -0.744 -1.936c 0 -1.624 0.92 -1.944 1.536 -1.944c 1.048 0 1.48 1.016 1.48 1.704c 0 0.688 -0.368 1.304 -1.456 1.304c -0.208 0 -0.52 -0.064 -0.76 -0.176Z m -0.072 -0.288c 0.264 0.176 0.528 0.184 0.664 0.184c 0.784 0 0.96 -0.768 0.96 -1.168c 0 -0.88 -0.336 -1.28 -0.728 -1.28c -0.504 0 -0.96 0.272 -0.96 1.64c 0 0.184 0.016 0.392 0.064 0.624Z "/></symbol><symbol id="g38EF10439C70019A2C0B1A54E582194C" overflow="visible"><path d="M 0 0m 1.36 4.28h 1.432c -0.624 -1.552 -1.256 -3.112 -1.8 -4.328l 0.064 -0.056l 0.544 0.024c 0.456 1.36 0.896 2.688 1.792 4.872l -0.128 0.096c -0.136 -0.04 -0.312 -0.088 -0.616 -0.088h -1.648c -0.272 0 -0.256 0.08 -0.4 0.112c -0.024 0 -0.032 0 -0.032 -0.024c -0.008 -0.384 -0.096 -0.864 -0.16 -1.28c 0.088 -0.024 0.168 -0.032 0.256 -0.024c 0.176 0.64 0.44 0.696 0.696 0.696Z "/></symbol><symbol id="g8D1B85E3ABA097AFFEFA8B147B26839C" overflow="visible"><path d="M 0 0m 1.24 0.632l 0.44 1.16c 0.04 0.104 0.088 0.136 0.28 0.136h 1.688l 0.464 -1.352c 0.096 -0.272 -0.208 -0.304 -0.592 -0.328c -0.048 -0.048 -0.048 -0.216 0 -0.264c 0.296 0.008 0.736 0.016 1.048 0.016c 0.328 0 0.632 -0.008 0.912 -0.016c 0.048 0.048 0.048 0.216 0 0.264c -0.312 0.032 -0.584 0.056 -0.72 0.44l -1.648 4.576c -0.12 -0.072 -0.336 -0.16 -0.44 -0.16l -1.816 -4.288c -0.208 -0.496 -0.448 -0.544 -0.8 -0.568c -0.048 -0.048 -0.048 -0.216 0 -0.264c 0.208 0.008 0.472 0.016 0.712 0.016c 0.328 0 0.728 -0.008 1.024 -0.016c 0.048 0.048 0.048 0.216 0 0.264c -0.304 0.024 -0.68 0.056 -0.552 0.384Z m 0.864 1.632c -0.176 0 -0.232 0.024 -0.2 0.104l 0.816 2.072h 0.048l 0.752 -2.176Z "/></symbol><symbol id="g13CDF673763F5DB9C25A9A976EDAD0A7" overflow="visible"><path d="M 0 0m 2.672 0.4c 0.04 0.032 0.112 0.048 0.12 -0.008c 0.024 -0.192 0.088 -0.472 0.088 -0.472c 0.064 -0.024 0.104 -0.016 0.152 0c 0.176 0.144 0.456 0.264 0.944 0.32c 0.048 0.048 0.048 0.168 0 0.216c -0.512 0.04 -0.584 0.192 -0.584 0.584v 3.624c 0 0.52 0.032 0.84 0.032 0.84c 0 0.056 -0.032 0.08 -0.104 0.08c -0.2 -0.08 -0.8 -0.192 -1.12 -0.216c -0.016 -0.064 0 -0.192 0.048 -0.24c 0.024 0 0.048 0 0.072 0c 0.352 -0.024 0.44 -0.024 0.44 -0.656v -1.024c 0 -0.056 -0.016 -0.072 -0.072 -0.072c -0.032 0 -0.36 0.136 -0.624 0.136c -0.528 0 -0.88 -0.176 -1.2 -0.48c -0.344 -0.344 -0.552 -0.816 -0.552 -1.408c 0 -0.984 0.496 -1.704 1.36 -1.704c 0.312 0 0.608 0.16 1 0.48Z m 0.088 0.592c 0 -0.152 -0.016 -0.216 -0.128 -0.312c -0.296 -0.256 -0.552 -0.384 -0.752 -0.384c -0.432 0 -0.88 0.472 -0.88 1.472c 0 0.576 0.112 0.896 0.232 1.064c 0.248 0.376 0.584 0.4 0.744 0.4c 0.288 0 0.488 -0.104 0.648 -0.288c 0.112 -0.128 0.136 -0.184 0.136 -0.432Z "/></symbol><symbol id="g20EDBE1E989F56AA9FBFD4A2EF5BDC35" overflow="visible"><path d="M 0 0m 3.088 0.744c -0.296 -0.304 -0.528 -0.432 -0.992 -0.432c -0.288 0 -0.624 0.168 -0.872 0.576c -0.16 0.264 -0.256 0.632 -0.256 1.096l 2.128 -0.016c 0.096 0 0.152 0.048 0.152 0.136c 0 0.672 -0.24 1.392 -1.352 1.392c -0.696 0 -1.6 -0.664 -1.6 -1.88c 0 -0.448 0.112 -0.88 0.376 -1.184c 0.272 -0.32 0.648 -0.512 1.224 -0.512c 0.608 0 1.04 0.28 1.36 0.696c -0.024 0.08 -0.072 0.12 -0.168 0.128Z m -2.096 1.512c 0.152 0.904 0.712 0.976 0.904 0.976c 0.304 0 0.664 -0.168 0.664 -0.84c 0 -0.072 -0.032 -0.112 -0.12 -0.112Z "/></symbol><symbol id="g9CB01113ED99ABC5A5F75E5016C1499E" overflow="visible"><path d="M 0 0m 0.76 0.976c 0 -0.664 -0.088 -0.704 -0.576 -0.728c -0.048 -0.048 -0.048 -0.216 0 -0.264c 0.28 0.008 0.576 0.016 0.896 0.016c 0.32 0 0.624 -0.008 0.888 -0.016c 0.048 0.048 0.048 0.216 0 0.264c -0.488 0.024 -0.576 0.064 -0.576 0.728v 3.688c 0 0.52 0.032 0.84 0.032 0.84c 0 0.056 -0.032 0.08 -0.104 0.08c -0.2 -0.08 -0.8 -0.192 -1.12 -0.216c -0.016 -0.064 0 -0.192 0.048 -0.24c 0.464 -0.032 0.512 -0.056 0.512 -0.656Z "/></symbol><symbol id="g2BFBF805A6B9D0BF9A5DDB8FE340411" overflow="visible"><path d="M 0 0m 1.448 0.976v 1.592c 0 0.4 0.032 0.912 0.032 0.912c 0 0.032 -0.04 0.056 -0.104 0.056c -0.224 -0.088 -0.544 -0.16 -1.096 -0.232c -0.016 -0.048 0 -0.176 0.016 -0.224c 0.44 -0.04 0.52 -0.088 0.52 -0.544v -1.56c 0 -0.664 -0.088 -0.688 -0.576 -0.728c -0.048 -0.048 -0.048 -0.216 0 -0.264c 0.264 0.008 0.576 0.016 0.896 0.016c 0.32 0 0.624 -0.008 0.888 -0.016c 0.048 0.048 0.048 0.216 0 0.264c -0.488 0.032 -0.576 0.064 -0.576 0.728Z m -0.728 3.816c 0 -0.208 0.192 -0.416 0.384 -0.416c 0.224 0 0.416 0.216 0.416 0.384c 0 0.192 -0.168 0.416 -0.384 0.416c -0.192 0 -0.416 -0.192 -0.416 -0.384Z "/></symbol><symbol id="g8C602F113ED136B9EC97C2B861CC969C" overflow="visible"><path d="M 0 0m 2.856 -0.08c 0.776 0 1.488 0.368 2.032 1.08c -0.04 0.072 -0.096 0.12 -0.184 0.12c -0.568 -0.624 -1.112 -0.872 -1.856 -0.872c -1.08 0 -1.824 1.216 -1.824 2.384c 0 0.688 0.184 1.264 0.472 1.624c 0.4 0.488 0.864 0.712 1.28 0.712c 1.104 0 1.544 -0.656 1.752 -1.344c 0.096 -0.032 0.176 -0.008 0.264 0.04c -0.04 0.416 -0.096 0.8 -0.176 1.24c -0.408 0.04 -0.768 0.36 -1.752 0.36c -0.68 0 -1.248 -0.248 -1.72 -0.68c -0.528 -0.488 -0.848 -1.272 -0.848 -2.104c 0 -1.392 0.84 -2.56 2.56 -2.56Z "/></symbol><symbol id="gD6C08740CFCAAF86BCA909E63B9538D" overflow="visible"><path d="M 0 0m 1.336 2.288c 0 0.168 0.072 0.264 0.136 0.336c 0.304 0.296 0.712 0.472 1.024 0.472c 0.16 0 0.328 -0.104 0.424 -0.288c 0.08 -0.16 0.096 -0.376 0.096 -0.616v -1.216c 0 -0.656 -0.08 -0.688 -0.496 -0.728c -0.04 -0.048 -0.04 -0.216 0 -0.264c 0.224 0.008 0.496 0.016 0.816 0.016c 0.32 0 0.584 -0.008 0.848 -0.016c 0.04 0.048 0.04 0.216 0 0.264c -0.448 0.04 -0.536 0.072 -0.536 0.728v 1.192c 0 0.44 -0.032 0.832 -0.216 1.072c -0.136 0.176 -0.384 0.272 -0.664 0.272c -0.392 0 -0.872 -0.104 -1.36 -0.648c 0 -0.008 -0.008 -0.008 -0.016 -0.016c -0.024 -0.032 -0.064 -0.08 -0.064 0.016l 0.008 1.8c 0 0.52 0.032 0.84 0.032 0.84c 0 0.056 -0.032 0.08 -0.104 0.08c -0.2 -0.08 -0.8 -0.192 -1.12 -0.216c -0.016 -0.064 0 -0.192 0.048 -0.24c 0.024 0 0.048 0 0.072 0c 0.352 -0.024 0.44 -0.024 0.44 -0.656v -3.496c 0 -0.664 -0.096 -0.696 -0.56 -0.728c -0.048 -0.048 -0.048 -0.216 0 -0.264c 0.264 0.008 0.56 0.016 0.88 0.016c 0.304 0 0.568 -0.008 0.792 -0.016c 0.048 0.048 0.048 0.216 0 0.264c -0.408 0.032 -0.48 0.064 -0.48 0.728Z "/></symbol><symbol id="g737E31D6A5E93E22E9ED4AD10D42FE71" overflow="visible"><path d="M 0 0m 1.472 2.864c -0.048 -0.056 -0.096 -0.072 -0.096 0c -0.008 0.216 -0.024 0.528 -0.064 0.608c -0.016 0.04 -0.032 0.064 -0.096 0.064c -0.224 -0.088 -0.432 -0.16 -0.984 -0.232c -0.016 -0.048 0 -0.176 0.016 -0.224c 0.432 -0.04 0.52 -0.08 0.52 -0.544v -1.56c 0 -0.656 -0.08 -0.688 -0.56 -0.728c -0.048 -0.048 -0.048 -0.216 0 -0.264c 0.24 0.008 0.56 0.016 0.88 0.016c 0.32 0 0.56 -0.008 0.8 -0.016c 0.048 0.048 0.048 0.216 0 0.264c -0.408 0.04 -0.488 0.072 -0.488 0.728v 1.312c 0 0.168 0.072 0.264 0.136 0.336c 0.304 0.296 0.664 0.472 0.976 0.472c 0.16 0 0.328 -0.104 0.424 -0.288c 0.08 -0.16 0.096 -0.376 0.096 -0.616v -1.216c 0 -0.656 -0.08 -0.688 -0.496 -0.728c -0.04 -0.048 -0.04 -0.216 0 -0.264c 0.24 0.008 0.496 0.016 0.816 0.016c 0.32 0 0.608 -0.008 0.848 -0.016c 0.04 0.048 0.04 0.216 0 0.264c -0.448 0.04 -0.536 0.072 -0.536 0.728v 1.192c 0 0.44 -0.032 0.824 -0.216 1.072c -0.136 0.176 -0.384 0.272 -0.664 0.272c -0.392 0 -0.84 -0.104 -1.312 -0.648Z "/></symbol><symbol id="g86ABD9B98157573BF6882A43FA434742" overflow="visible"><path d="M 0 0m 0.384 1.104c 0.032 -0.392 0.056 -0.768 0.056 -1.104c 0.08 0.016 0.16 0.024 0.2 0.024c 0.056 0 0.104 0 0.16 -0.016c 0.216 -0.056 0.432 -0.088 0.728 -0.088c 0.448 0 1.272 0.216 1.272 1.008c 0 0.544 -0.392 0.864 -0.936 1.064c -0.48 0.184 -0.8 0.304 -0.8 0.744c 0 0.328 0.288 0.512 0.56 0.512c 0.176 0 0.64 -0.064 0.744 -0.744c 0.048 -0.048 0.208 -0.04 0.256 0.008c 0.024 0.288 0.04 0.584 0.048 0.848c -0.248 0.04 -0.632 0.152 -1.048 0.152c -0.592 0 -1.128 -0.384 -1.128 -0.896c 0 -0.584 0.264 -0.832 0.88 -1.088c 0.664 -0.272 0.816 -0.44 0.816 -0.784c 0 -0.392 -0.384 -0.56 -0.68 -0.56c -0.312 0 -0.488 0.104 -0.568 0.192c -0.176 0.184 -0.264 0.536 -0.312 0.736c -0.048 0.048 -0.2 0.04 -0.248 -0.008Z "/></symbol><symbol id="g3078E795B3E2291E912DCDEB76EE36F" overflow="visible"><path d="M 0 0m 0.344 3.432c -0.112 0 -0.144 -0.096 -0.144 -0.16v -0.104c 0 -0.04 0.008 -0.048 0.04 -0.048h 0.472v -2.408c 0 -0.568 0.248 -0.792 0.616 -0.792c 0.368 0 0.768 0.176 1.08 0.528c -0.016 0.08 -0.064 0.128 -0.144 0.136c -0.208 -0.16 -0.448 -0.224 -0.656 -0.224c -0.216 0 -0.264 0.24 -0.264 0.736v 2.024h 0.832c 0.08 0 0.192 0.032 0.192 0.104v 0.16c 0 0.032 -0.024 0.048 -0.064 0.048h -0.96v 0.312c 0 0.52 0.032 0.84 0.032 0.84c 0 0.048 -0.024 0.072 -0.064 0.072c -0.032 0 -0.104 -0.032 -0.176 -0.072c -0.088 -0.048 -0.168 -0.088 -0.272 -0.112c -0.096 -0.032 -0.176 -0.056 -0.176 -0.112c 0 -0.096 0.024 -0.04 0.024 -0.928Z "/></symbol><symbol id="gF14903D79C881A9B6AC2EE7D8BED6F03" overflow="visible"><path d="M 0 0m 1.408 2.864c -0.016 0.32 -0.024 0.528 -0.064 0.608c -0.016 0.04 -0.032 0.064 -0.096 0.064c -0.224 -0.088 -0.432 -0.16 -0.984 -0.232c -0.016 -0.048 0 -0.176 0.016 -0.224c 0.432 -0.04 0.52 -0.08 0.52 -0.544v -1.56c 0 -0.664 -0.096 -0.696 -0.592 -0.728c -0.048 -0.048 -0.048 -0.216 0 -0.264c 0.28 0.008 0.592 0.016 0.912 0.016c 0.32 0 0.688 -0.008 0.968 -0.016c 0.048 0.048 0.048 0.216 0 0.264c -0.56 0.04 -0.656 0.064 -0.656 0.728v 1.112c 0 0.208 0.096 0.392 0.192 0.536c 0.088 0.128 0.272 0.392 0.368 0.392c 0.072 0 0.144 -0.016 0.208 -0.104c 0.056 -0.08 0.152 -0.184 0.288 -0.184c 0.192 0 0.376 0.2 0.376 0.4c 0 0.152 -0.144 0.384 -0.48 0.384c -0.376 0 -0.704 -0.352 -0.888 -0.664c -0.048 -0.088 -0.088 -0.024 -0.088 0.016Z "/></symbol><symbol id="g7CADDE05683A2F282E92796EAE7002E6" overflow="visible"><path d="M 0 0m 2.344 0.384c 0.048 -0.248 0.136 -0.464 0.536 -0.464c 0.304 0 0.592 0.136 0.76 0.296c -0.016 0.096 -0.048 0.168 -0.136 0.216c -0.056 -0.048 -0.192 -0.128 -0.296 -0.128c -0.232 0 -0.24 0.312 -0.24 0.68v 1.176c 0 1.136 -0.624 1.352 -1.208 1.352c -0.656 0 -1.32 -0.432 -1.32 -0.888c 0 -0.192 0.096 -0.288 0.28 -0.288c 0.232 0 0.376 0.168 0.376 0.272c 0 0.056 -0.008 0.112 -0.024 0.144c -0.008 0.024 -0.016 0.072 -0.016 0.16c 0 0.248 0.336 0.336 0.64 0.336c 0.272 0 0.648 -0.136 0.648 -1.04c 0 -0.056 -0.024 -0.088 -0.048 -0.096l -0.688 -0.168c -0.768 -0.192 -1.32 -0.616 -1.32 -1.16c 0 -0.656 0.448 -0.864 1.008 -0.864c 0.28 0 0.52 0.064 0.872 0.336l 0.16 0.128Z m 0 1.48v -1.056c 0 -0.104 -0.048 -0.16 -0.112 -0.208c -0.208 -0.168 -0.48 -0.352 -0.704 -0.352c -0.4 0 -0.576 0.32 -0.576 0.568c 0 0.36 0.168 0.728 0.76 0.88Z "/></symbol><symbol id="gE3B745958568E02614BCAB4547DCA2F1" overflow="visible"><path d="M 0 0m 1.248 2.944c -0.008 0.24 -0.024 0.448 -0.064 0.528c -0.016 0.04 -0.032 0.064 -0.096 0.064c -0.224 -0.088 -0.432 -0.16 -0.984 -0.232c -0.016 -0.048 0 -0.176 0.016 -0.224c 0.432 -0.04 0.52 -0.08 0.52 -0.544v -3.416c 0 -0.664 -0.088 -0.704 -0.576 -0.728c -0.048 -0.048 -0.048 -0.216 0 -0.264c 0.28 0.008 0.576 0.016 0.896 0.016c 0.32 0 0.704 -0.008 0.968 -0.016c 0.048 0.048 0.048 0.216 0 0.264c -0.568 0.032 -0.656 0.064 -0.656 0.728v 0.864c 0 0.104 0.032 0.096 0.112 0.064c 0.2 -0.08 0.44 -0.128 0.696 -0.128c 0.448 0 0.848 0.136 1.176 0.448c 0.376 0.368 0.592 0.864 0.592 1.512c 0 0.848 -0.6 1.632 -1.416 1.632c -0.368 0 -0.776 -0.24 -1.096 -0.6c -0.048 -0.048 -0.08 -0.048 -0.088 0.032Z m 0.152 -0.296c 0.208 0.256 0.576 0.496 0.808 0.496c 0.512 0 0.952 -0.576 0.952 -1.48c 0 -0.656 -0.232 -1.472 -1.128 -1.472c -0.144 0 -0.424 0.04 -0.568 0.168c -0.16 0.144 -0.192 0.192 -0.192 0.48v 1.456c 0 0.168 0.032 0.24 0.128 0.352Z "/></symbol><symbol id="gB6B829643FAC67A26EA335D5C5653A06" overflow="visible"><path d="M 0 0m 3.016 5.264c -1.336 0 -2.72 -1.048 -2.72 -2.808c 0 -1.44 0.992 -2.536 2.52 -2.536c 0.944 0 1.688 0.2 2.232 0.664c -0.088 0.072 -0.128 0.136 -0.128 0.224v 0.928c 0 0.28 0.136 0.36 0.368 0.384c 0.048 0.048 0.048 0.24 0 0.288c -0.192 -0.008 -0.392 -0.016 -0.712 -0.016c -0.264 0 -0.64 0.008 -0.992 0.016c -0.048 -0.048 -0.048 -0.24 0 -0.288c 0.44 -0.032 0.656 -0.064 0.656 -0.384v -1.224c -0.272 -0.256 -0.808 -0.304 -1.24 -0.304c -1.264 0 -1.936 1.352 -1.936 2.408c 0 1.4 0.912 2.36 1.84 2.36c 1.16 0 1.488 -0.664 1.696 -1.352c 0.088 -0.008 0.176 0.008 0.264 0.048c -0.016 0.336 -0.056 0.656 -0.184 1.232c -0.48 0.08 -0.776 0.36 -1.664 0.36Z "/></symbol><symbol id="g2B678EF10194558DA6DED0CDF87DA3E4" overflow="visible"><path d="M 0 0m 0.328 1.64c 0 -0.816 0.544 -1.72 1.68 -1.72c 0.512 0 0.904 0.184 1.176 0.448c 0.36 0.352 0.52 0.856 0.52 1.344c 0 0.832 -0.456 1.8 -1.68 1.8c -0.528 0 -0.96 -0.216 -1.256 -0.56c -0.288 -0.344 -0.44 -0.808 -0.44 -1.312Z m 1.576 1.592c 0.688 0 1.112 -0.624 1.112 -1.776c 0 -1.008 -0.52 -1.256 -0.896 -1.256c -0.832 0 -1.104 1.008 -1.104 1.624c 0 0.696 0.168 1.408 0.888 1.408Z "/></symbol><symbol id="gB4F0D25B5DE46FE4884AAF0D69A4CE76" overflow="visible"><path d="M 0 0m 1.332 5.805c -0.324 0 -0.81 0.009 -1.161 0.018c -0.054 -0.054 -0.054 -0.243 0 -0.297c 0.63 -0.027 0.783 -0.072 0.783 -0.819v -3.609c 0 -0.747 -0.153 -0.792 -0.783 -0.819c -0.054 -0.054 -0.054 -0.243 0 -0.297c 0.351 0.009 0.837 0.018 1.17 0.018c 0.324 0 0.558 -0.018 1.314 -0.018c 1.791 0 2.268 0.9 2.268 1.674c 0 0.864 -0.603 1.359 -1.386 1.584v 0.018c 0.45 0.225 0.855 0.693 0.855 1.179c 0 0.603 -0.261 1.386 -1.935 1.386c -0.315 0 -0.801 -0.018 -1.125 -0.018Z m 0.387 -2.817h 0.621c 1.233 0 1.746 -0.693 1.746 -1.503c 0 -0.657 -0.252 -1.206 -1.62 -1.206c -0.63 0 -0.747 0.234 -0.747 0.783Z m 0 1.962c 0 0.477 0 0.567 0.783 0.567c 0.504 0 1.161 -0.27 1.161 -1.188c 0 -0.765 -0.531 -1.035 -1.278 -1.035h -0.666Z "/></symbol><symbol id="gF71CD90141C058754731CB923424AFF5" overflow="visible"><path d="M 0 0m 0.369 1.845c 0 -0.918 0.612 -1.935 1.89 -1.935c 0.576 0 1.017 0.207 1.323 0.504c 0.405 0.396 0.585 0.963 0.585 1.512c 0 0.936 -0.513 2.025 -1.89 2.025c -0.594 0 -1.08 -0.243 -1.413 -0.63c -0.324 -0.387 -0.495 -0.909 -0.495 -1.476Z m 1.773 1.791c 0.774 0 1.251 -0.702 1.251 -1.998c 0 -1.134 -0.585 -1.413 -1.008 -1.413c -0.936 0 -1.242 1.134 -1.242 1.827c 0 0.783 0.189 1.584 0.999 1.584Z "/></symbol><symbol id="gAB89768063FECB7A3B2DCA9C98B07790" overflow="visible"><path d="M 0 0m 3.006 0.45c 0.045 0.036 0.126 0.054 0.135 -0.009c 0.027 -0.216 0.099 -0.531 0.099 -0.531c 0.072 -0.027 0.117 -0.018 0.171 0c 0.198 0.162 0.513 0.297 1.062 0.36c 0.054 0.054 0.054 0.189 0 0.243c -0.576 0.045 -0.657 0.216 -0.657 0.657v 4.077c 0 0.585 0.036 0.945 0.036 0.945c 0 0.063 -0.036 0.09 -0.117 0.09c -0.225 -0.09 -0.9 -0.216 -1.26 -0.243c -0.018 -0.072 0 -0.216 0.054 -0.27c 0.027 0 0.054 0 0.081 0c 0.396 -0.027 0.495 -0.027 0.495 -0.738v -1.152c 0 -0.063 -0.018 -0.081 -0.081 -0.081c -0.036 0 -0.405 0.153 -0.702 0.153c -0.594 0 -0.99 -0.198 -1.35 -0.54c -0.387 -0.387 -0.621 -0.918 -0.621 -1.584c 0 -1.107 0.558 -1.917 1.53 -1.917c 0.351 0 0.684 0.18 1.125 0.54Z m 0.099 0.666c 0 -0.171 -0.018 -0.243 -0.144 -0.351c -0.333 -0.288 -0.621 -0.432 -0.846 -0.432c -0.486 0 -0.99 0.531 -0.99 1.656c 0 0.648 0.126 1.008 0.261 1.197c 0.279 0.423 0.657 0.45 0.837 0.45c 0.324 0 0.549 -0.117 0.729 -0.324c 0.126 -0.144 0.153 -0.207 0.153 -0.486Z "/></symbol><symbol id="gB7ADC05C7CC292D7AE42D71EE1DDDCEC" overflow="visible"><path d="M 0 0m 1.836 -1.44c 0.144 0.252 0.261 0.504 0.369 0.774c 0.72 1.737 1.125 2.664 1.593 3.672c 0.18 0.378 0.306 0.522 0.729 0.576c 0.054 0.054 0.054 0.243 0 0.297c -0.18 -0.009 -0.387 -0.018 -0.639 -0.018c -0.27 0 -0.549 0.009 -0.819 0.018c -0.054 -0.054 -0.054 -0.243 0 -0.297c 0.288 -0.027 0.576 -0.081 0.432 -0.405l -0.891 -2.061c -0.063 -0.144 -0.144 -0.171 -0.216 0.009l -0.801 1.872c -0.162 0.378 -0.207 0.549 0.297 0.585c 0.054 0.054 0.054 0.243 0 0.297c -0.333 -0.009 -0.693 -0.018 -1.017 -0.018c -0.306 0 -0.549 0.009 -0.729 0.018c -0.054 -0.054 -0.054 -0.243 0 -0.297c 0.36 -0.045 0.477 -0.126 0.711 -0.675l 1.017 -2.367c 0.081 -0.18 0.216 -0.594 0.126 -0.846c -0.108 -0.297 -0.216 -0.549 -0.351 -0.828c -0.099 -0.18 -0.225 -0.261 -0.45 -0.261c -0.126 0 -0.162 0.027 -0.261 0.027c -0.261 0 -0.396 -0.27 -0.396 -0.387c 0 -0.189 0.18 -0.333 0.423 -0.333c 0.189 0 0.549 0.072 0.873 0.648Z "/></symbol><symbol id="g7919E138A6B7887FFC9F09D86374A4A9" overflow="visible"><path d="M 0 0m 5.967 1.044c 0.045 -0.729 0.009 -0.738 -0.576 -0.765c -0.054 -0.054 -0.054 -0.243 0 -0.297c 0.333 0.009 0.693 0.018 0.963 0.018c 0.27 0 0.684 -0.009 0.981 -0.018c 0.054 0.054 0.054 0.243 0 0.297c -0.612 0.027 -0.639 0.063 -0.693 0.81l -0.27 3.789c -0.036 0.486 0.009 0.612 0.621 0.648c 0.054 0.054 0.054 0.243 0 0.297l -1.179 -0.018l -1.908 -4.563c -0.036 -0.09 -0.063 -0.126 -0.081 -0.126c -0.018 0 -0.045 0.045 -0.072 0.117l -1.845 4.572l -1.305 0.018c -0.054 -0.054 -0.054 -0.243 0 -0.297c 0.621 -0.036 0.675 -0.054 0.612 -0.729l -0.36 -3.708c -0.054 -0.54 -0.162 -0.765 -0.675 -0.81c -0.054 -0.054 -0.054 -0.243 0 -0.297c 0.27 0.009 0.558 0.018 0.774 0.018c 0.216 0 0.576 -0.009 0.846 -0.018c 0.054 0.054 0.054 0.243 0 0.297c -0.594 0.045 -0.639 0.324 -0.594 0.828l 0.342 3.609h 0.018l 1.863 -4.671c 0.027 -0.063 0.081 -0.135 0.135 -0.135c 0.054 0 0.09 0.063 0.126 0.135l 2.025 4.761h 0.018Z "/></symbol><symbol id="gCD526F970F75B32D8B517499D55C4978" overflow="visible"><path d="M 0 0m 2.637 0.432c 0.054 -0.279 0.153 -0.522 0.603 -0.522c 0.342 0 0.666 0.153 0.855 0.333c -0.018 0.108 -0.054 0.189 -0.153 0.243c -0.063 -0.054 -0.216 -0.144 -0.333 -0.144c -0.261 0 -0.27 0.351 -0.27 0.765v 1.323c 0 1.278 -0.702 1.521 -1.359 1.521c -0.738 0 -1.485 -0.486 -1.485 -0.999c 0 -0.216 0.108 -0.324 0.315 -0.324c 0.261 0 0.423 0.189 0.423 0.306c 0 0.063 -0.009 0.126 -0.027 0.162c -0.009 0.027 -0.018 0.081 -0.018 0.18c 0 0.279 0.378 0.378 0.72 0.378c 0.306 0 0.729 -0.153 0.729 -1.17c 0 -0.063 -0.027 -0.099 -0.054 -0.108l -0.774 -0.189c -0.864 -0.216 -1.485 -0.693 -1.485 -1.305c 0 -0.738 0.504 -0.972 1.134 -0.972c 0.315 0 0.585 0.072 0.981 0.378l 0.18 0.144Z m 0 1.665v -1.188c 0 -0.117 -0.054 -0.18 -0.126 -0.234c -0.234 -0.189 -0.54 -0.396 -0.792 -0.396c -0.45 0 -0.648 0.36 -0.648 0.639c 0 0.405 0.189 0.819 0.855 0.99Z "/></symbol><symbol id="gA1FEA12DCE93D0EA0BBFC1201B9D8E1C" overflow="visible"><path d="M 0 0m 0.432 1.242c 0.036 -0.441 0.063 -0.864 0.063 -1.242c 0.09 0.018 0.18 0.027 0.225 0.027c 0.063 0 0.117 0 0.18 -0.018c 0.243 -0.063 0.486 -0.099 0.819 -0.099c 0.504 0 1.431 0.243 1.431 1.134c 0 0.612 -0.441 0.972 -1.053 1.197c -0.54 0.207 -0.9 0.342 -0.9 0.837c 0 0.369 0.324 0.576 0.63 0.576c 0.198 0 0.72 -0.072 0.837 -0.837c 0.054 -0.054 0.234 -0.045 0.288 0.009c 0.027 0.324 0.045 0.657 0.054 0.954c -0.279 0.045 -0.711 0.171 -1.179 0.171c -0.666 0 -1.269 -0.432 -1.269 -1.008c 0 -0.657 0.297 -0.936 0.99 -1.224c 0.747 -0.306 0.918 -0.495 0.918 -0.882c 0 -0.441 -0.432 -0.63 -0.765 -0.63c -0.351 0 -0.549 0.117 -0.639 0.216c -0.198 0.207 -0.297 0.603 -0.351 0.828c -0.054 0.054 -0.225 0.045 -0.279 -0.009Z "/></symbol><symbol id="g47516AA720979696FAFCA8A7B93ACEFC" overflow="visible"><path d="M 0 0m 0.396 2.268c 0 -0.405 0.036 -2.484 1.908 -4.104c 0.09 0.018 0.162 0.081 0.189 0.153c -0.297 0.342 -1.35 1.584 -1.35 3.951c 0 2.367 1.062 3.609 1.35 3.933c -0.027 0.09 -0.09 0.153 -0.189 0.162c -1.071 -0.918 -1.908 -2.421 -1.908 -4.095Z "/></symbol><symbol id="g5CFA47AB4D57D4AB66E1F7926F37B7D0" overflow="visible"><path d="M 0 0m 3.996 3.483c 0.171 0 0.333 0.162 0.333 0.342c 0 0.189 -0.171 0.333 -0.414 0.333c -0.234 0 -0.666 -0.153 -0.9 -0.459c -0.108 0.072 -0.405 0.252 -0.936 0.252c -0.801 0 -1.539 -0.54 -1.539 -1.368c 0 -0.486 0.216 -0.765 0.468 -1.008c -0.252 -0.216 -0.396 -0.603 -0.396 -0.909c 0 -0.324 0.18 -0.576 0.414 -0.693c -0.486 -0.288 -0.738 -0.702 -0.738 -1.089c 0 -0.783 0.738 -1.026 1.431 -1.026c 1.215 0 2.529 0.585 2.529 1.557c 0 0.288 -0.135 0.513 -0.396 0.729c -0.351 0.288 -0.981 0.297 -1.314 0.297c -0.162 0 -0.387 -0.018 -0.603 -0.045c -0.135 -0.009 -0.225 -0.018 -0.27 -0.018c -0.261 0 -0.576 0.126 -0.576 0.513c 0 0.18 0.054 0.369 0.162 0.522c 0.216 -0.126 0.468 -0.189 0.819 -0.189c 0.792 0 1.521 0.495 1.521 1.377c 0 0.423 -0.126 0.666 -0.387 0.936c 0.063 0.09 0.243 0.216 0.36 0.216c 0.063 0 0.126 -0.027 0.18 -0.108c 0.036 -0.072 0.153 -0.162 0.252 -0.162Z m -2.808 -3.573c 0.099 -0.027 0.243 -0.045 0.36 -0.045c 0.279 0 0.531 0.027 0.657 0.027c 0.45 0 0.828 -0.009 1.089 -0.153c 0.351 -0.198 0.459 -0.324 0.459 -0.558c 0 -0.648 -0.954 -0.99 -1.764 -0.99c -0.324 0 -1.08 0.261 -1.08 0.873c 0 0.306 0.018 0.531 0.279 0.846Z m 1.683 2.601c 0 -0.837 -0.423 -1.008 -0.756 -1.008c -0.756 0 -0.837 0.639 -0.837 1.215c 0 0.63 0.225 0.954 0.72 0.954c 0.567 0 0.873 -0.414 0.873 -1.161Z "/></symbol><symbol id="gFB58F9CAD08F4D0DFA3961AF05C28A35" overflow="visible"><path d="M 0 0m 2.286 2.268c 0 0.405 -0.036 2.484 -1.908 4.104c -0.09 -0.018 -0.162 -0.081 -0.189 -0.153c 0.297 -0.342 1.35 -1.584 1.35 -3.951c 0 -2.367 -1.062 -3.609 -1.35 -3.933c 0.027 -0.09 0.09 -0.153 0.189 -0.162c 1.071 0.918 1.908 2.421 1.908 4.095Z "/></symbol><symbol id="gA877B80847B622C91F0EE0DF55B2CE6F" overflow="visible"><path d="M 0 0m 3.555 5.679c -0.522 0.072 -0.504 0.243 -1.386 0.243c -0.909 0 -1.71 -0.603 -1.71 -1.557c 0 -0.945 0.783 -1.377 1.575 -1.683c 0.54 -0.207 1.206 -0.459 1.206 -1.341c 0 -0.729 -0.405 -1.107 -1.125 -1.107c -0.837 0 -1.377 0.387 -1.575 1.278c -0.117 0.036 -0.207 0.018 -0.297 -0.027c 0.036 -0.693 0.072 -0.927 0.18 -1.368c 0.567 0 0.819 -0.207 1.62 -0.207c 0.405 0 0.792 0.099 1.107 0.297c 0.522 0.324 0.846 0.873 0.846 1.449c 0 0.954 -0.72 1.377 -1.458 1.656c -0.54 0.198 -1.44 0.54 -1.44 1.296c 0 0.504 0.459 1.008 0.99 1.008c 0.873 0 1.152 -0.558 1.332 -1.152c 0.099 -0.018 0.216 -0.009 0.297 0.054c -0.036 0.432 -0.072 0.684 -0.162 1.161Z "/></symbol><symbol id="g4F94A37786D24AC11F1E2C6578232409" overflow="visible"><path d="M 0 0m 1.404 3.312c -0.009 0.27 -0.027 0.504 -0.072 0.594c -0.018 0.045 -0.036 0.072 -0.108 0.072c -0.252 -0.099 -0.486 -0.18 -1.107 -0.261c -0.018 -0.054 0 -0.198 0.018 -0.252c 0.486 -0.045 0.585 -0.09 0.585 -0.612v -3.843c 0 -0.747 -0.099 -0.792 -0.648 -0.819c -0.054 -0.054 -0.054 -0.243 0 -0.297c 0.315 0.009 0.648 0.018 1.008 0.018c 0.36 0 0.792 -0.009 1.089 -0.018c 0.054 0.054 0.054 0.243 0 0.297c -0.639 0.036 -0.738 0.072 -0.738 0.819v 0.972c 0 0.117 0.036 0.108 0.126 0.072c 0.225 -0.09 0.495 -0.144 0.783 -0.144c 0.504 0 0.954 0.153 1.323 0.504c 0.423 0.414 0.666 0.972 0.666 1.701c 0 0.954 -0.675 1.836 -1.593 1.836c -0.414 0 -0.873 -0.27 -1.233 -0.675c -0.054 -0.054 -0.09 -0.054 -0.099 0.036Z m 0.171 -0.333c 0.234 0.288 0.648 0.558 0.909 0.558c 0.576 0 1.071 -0.648 1.071 -1.665c 0 -0.738 -0.261 -1.656 -1.269 -1.656c -0.162 0 -0.477 0.045 -0.639 0.189c -0.18 0.162 -0.216 0.216 -0.216 0.54v 1.638c 0 0.189 0.036 0.27 0.144 0.396Z "/></symbol><symbol id="g15283247E004048E8F39F157505A0F31" overflow="visible"><path d="M 0 0m 3.474 0.837c -0.333 -0.342 -0.594 -0.486 -1.116 -0.486c -0.324 0 -0.702 0.189 -0.981 0.648c -0.18 0.297 -0.288 0.711 -0.288 1.233l 2.394 -0.018c 0.108 0 0.171 0.054 0.171 0.153c 0 0.756 -0.27 1.566 -1.521 1.566c -0.783 0 -1.8 -0.747 -1.8 -2.115c 0 -0.504 0.126 -0.99 0.423 -1.332c 0.306 -0.36 0.729 -0.576 1.377 -0.576c 0.684 0 1.17 0.315 1.53 0.783c -0.027 0.09 -0.081 0.135 -0.189 0.144Z m -2.358 1.701c 0.171 1.017 0.801 1.098 1.017 1.098c 0.342 0 0.747 -0.189 0.747 -0.945c 0 -0.081 -0.036 -0.126 -0.135 -0.126Z "/></symbol><symbol id="gECB1CD146348D219847309C79C322A37" overflow="visible"><path d="M 0 0m 3.582 0.819c -0.036 0.081 -0.108 0.117 -0.189 0.126c -0.306 -0.396 -0.693 -0.594 -1.08 -0.594c -0.657 0 -1.206 0.666 -1.206 1.719c 0 0.99 0.432 1.584 1.026 1.584c 0.531 0 0.603 -0.315 0.639 -0.63c 0.027 -0.243 0.153 -0.324 0.342 -0.324c 0.189 0 0.441 0.117 0.441 0.396c 0 0.495 -0.513 0.855 -1.377 0.855c -0.891 0 -1.845 -0.801 -1.845 -2.079c 0 -1.161 0.648 -1.962 1.782 -1.962c 0.54 0 1.017 0.171 1.467 0.909Z "/></symbol><symbol id="gEDE113971A7C9D129D6A2104959F55B2" overflow="visible"><path d="M 0 0m 1.629 1.098v 1.791c 0 0.45 0.036 1.026 0.036 1.026c 0 0.036 -0.045 0.063 -0.117 0.063c -0.252 -0.099 -0.612 -0.18 -1.233 -0.261c -0.018 -0.054 0 -0.198 0.018 -0.252c 0.495 -0.045 0.585 -0.099 0.585 -0.612v -1.755c 0 -0.747 -0.099 -0.774 -0.648 -0.819c -0.054 -0.054 -0.054 -0.243 0 -0.297c 0.297 0.009 0.648 0.018 1.008 0.018c 0.36 0 0.702 -0.009 0.999 -0.018c 0.054 0.054 0.054 0.243 0 0.297c -0.549 0.036 -0.648 0.072 -0.648 0.819Z m -0.819 4.293c 0 -0.234 0.216 -0.468 0.432 -0.468c 0.252 0 0.468 0.243 0.468 0.432c 0 0.216 -0.189 0.468 -0.432 0.468c -0.216 0 -0.468 -0.216 -0.468 -0.432Z "/></symbol></defs><defs><clipPath id="cA24A426A1E39699DCE3E6D2D6E9683D"><path d="M 0 0h 280.909165354v 178.310015748h -280.909165354Z "/></clipPath></defs></svg>