<svg viewBox="0 0 351.157480315 209.42519685" width="351.157480315pt" height="209.42519685pt" xmlns="http://www.w3.org/2000/svg" xmlns:xlink="http://www.w3.org/1999/xlink" xmlns:h5="http://www.w3.org/1999/xhtml"><path fill="#fafafa" fill-rule="nonzero" d="M 0 0v 209.42519685h 351.157480315v -209.42519685Z "/><g transform="translate(5.5 5.5)"><path fill="#fafafa" fill-rule="nonzero" d="M 0 0v 198.42519685h 340.157480315v -198.42519685Z "/><g transform="translate(5 5)"><g><g transform="matrix(1 0 0 -1 0 7.74)"><use xlink:href="#g7C8B8CE2FA3271B2DB9D5C00ED33FFB8" x="0" y="0" fill="#111827" fill-rule="nonzero"/><use xlink:href="#gA421F3DD5F2809E5ED8290B7EF6AAC43" x="11.88" y="0" fill="#111827" fill-rule="nonzero"/><use xlink:href="#g3E13159425B4C5FA6BE9D46173183F7B" x="17.928" y="0" fill="#111827" fill-rule="nonzero"/><use xlink:href="#g56D9AC69DF1E60AEC4FA898FA388366B" x="22.224" y="0" fill="#111827" fill-rule="nonzero"/><use xlink:href="#gE18113BE1243CA6EC5596891CC422939" x="27.264" y="0" fill="#111827" fill-rule="nonzero"/><use xlink:href="#gDC05A2A7E4AEFCF99C6614634AF8B2F0" x="33.132" y="0" fill="#111827" fill-rule="nonzero"/><use xlink:href="#gFEC70EFDBA18BA4C4D3D82E0B33EA29E" x="39.204" y="0" fill="#111827" fill-rule="nonzero"/><use xlink:href="#g8D15A55F054D4F8515F5F3C5E6F83BE2" x="50.064" y="0" fill="#111827" fill-rule="nonzero"/><use xlink:href="#g56D9AC69DF1E60AEC4FA898FA388366B" x="56.316" y="0" fill="#111827" fill-rule="nonzero"/><use xlink:href="#gDC05A2A7E4AEFCF99C6614634AF8B2F0" x="61.452" y="0" fill="#111827" fill-rule="nonzero"/><use xlink:href="#g60E64311C0ACD550FD96BE9E58C78EBF" x="67.524" y="0" fill="#111827" fill-rule="nonzero"/><use xlink:href="#g5C8521CD324BD598695A36491E4CE69D" x="74.496" y="0" fill="#111827" fill-rule="nonzero"/></g></g><g transform="translate(0 14.94)"><path fill="none" stroke="#b4b6bb" stroke-width="0.2" stroke-linecap="butt" stroke-linejoin="miter" stroke-miterlimit="4" transform="translate(48.444240515)" d="M 0 0m 0 149.963559055v -149.963559055"/><path fill="none" stroke="#b4b6bb" stroke-width="0.2" stroke-linecap="butt" stroke-linejoin="miter" stroke-miterlimit="4" transform="translate(113.600804581)" d="M 0 0m 0 149.963559055v -149.963559055"/><path fill="none" stroke="#b4b6bb" stroke-width="0.2" stroke-linecap="butt" stroke-linejoin="miter" stroke-miterlimit="4" transform="translate(178.757368647)" d="M 0 0m 0 149.963559055v -149.963559055"/><path fill="none" stroke="#b4b6bb" stroke-width="0.2" stroke-linecap="butt" stroke-linejoin="miter" stroke-miterlimit="4" transform="translate(243.913932713)" d="M 0 0m 0 149.963559055v -149.963559055"/><path fill="none" stroke="#b4b6bb" stroke-width="0.4" stroke-linecap="butt" stroke-linejoin="miter" stroke-miterlimit="4" transform="translate(15.865958482)" d="M 0 0m 0 149.963559055v -149.963559055"/><path fill="none" transform="translate(14.005958482 152.798204724)" d="M 0 0h 3.72v 5.344h -3.72v -5.344Z "/><g transform="translate(14.005958388 152.798204646)"><g transform="matrix(1 0 0 -1 0 5.264)"><use xlink:href="#g97663EC9AEA74EADA07472643E1BE1B4" x="0" y="0" fill="#111827" fill-rule="nonzero"/></g></g><path fill="none" stroke="#b4b6bb" stroke-width="0.4" stroke-linecap="butt" stroke-linejoin="miter" stroke-miterlimit="4" transform="translate(81.022522548)" d="M 0 0m 0 149.963559055v -149.963559055"/><path fill="none" transform="translate(79.162522548 152.798204724)" d="M 0 0h 3.72v 5.352h -3.72v -5.352Z "/><g transform="translate(79.162522454 152.798204677)"><g transform="matrix(1 0 0 -1 0 5.264)"><use xlink:href="#gD00C9D162D1CBC09F2F7551D594DBB72" x="0" y="0" fill="#111827" fill-rule="nonzero"/></g></g><path fill="none" stroke="#b4b6bb" stroke-width="0.4" stroke-linecap="butt" stroke-linejoin="miter" stroke-miterlimit="4" transform="translate(146.179086614)" d="M 0 0m 0 149.963559055v -149.963559055"/><path fill="none" transform="translate(142.459086614 152.798204724)" d="M 0 0h 7.44v 5.344h -7.44v -5.344Z "/><g transform="translate(142.459086567 152.798204646)"><g transform="matrix(1 0 0 -1 0 5.264)"><use xlink:href="#g8C50DFC0B8272CD73341C65811BD0E92" x="0" y="0" fill="#111827" fill-rule="nonzero"/><use xlink:href="#g97663EC9AEA74EADA07472643E1BE1B4" x="3.72" y="0" fill="#111827" fill-rule="nonzero"/></g></g><path fill="none" stroke="#b4b6bb" stroke-width="0.4" stroke-linecap="butt" stroke-linejoin="miter" stroke-miterlimit="4" transform="translate(211.33565068)" d="M 0 0m 0 149.963559055v -149.963559055"/><path fill="none" transform="translate(207.61565068 152.798204724)" d="M 0 0h 7.44v 5.352h -7.44v -5.352Z "/><g transform="translate(207.615650633 152.798204677)"><g transform="matrix(1 0 0 -1 0 5.264)"><use xlink:href="#g8C50DFC0B8272CD73341C65811BD0E92" x="0" y="0" fill="#111827" fill-rule="nonzero"/><use xlink:href="#gD00C9D162D1CBC09F2F7551D594DBB72" x="3.72" y="0" fill="#111827" fill-rule="nonzero"/></g></g><path fill="none" stroke="#b4b6bb" stroke-width="0.4" stroke-linecap="butt" stroke-linejoin="miter" stroke-miterlimit="4" transform="translate(276.492214746)" d="M 0 0m 0 149.963559055v -149.963559055"/><path fill="none" transform="translate(272.772214746 152.798204724)" d="M 0 0h 7.44v 5.344h -7.44v -5.344Z "/><g transform="translate(272.772214699 152.798204646)"><g transform="matrix(1 0 0 -1 0 5.264)"><use xlink:href="#gAD9C87F854BDA42EDABFFB35EC1FA84E" x="0" y="0" fill="#111827" fill-rule="nonzero"/><use xlink:href="#g97663EC9AEA74EADA07472643E1BE1B4" x="3.72" y="0" fill="#111827" fill-rule="nonzero"/></g></g><path fill="none" stroke="#b4b6bb" stroke-width="0.2" stroke-linecap="butt" stroke-linejoin="miter" stroke-miterlimit="4" transform="translate(2.834645669 131.648631765)" d="M 0 0h 286.68888189"/><path fill="none" stroke="#b4b6bb" stroke-width="0.2" stroke-linecap="butt" stroke-linejoin="miter" stroke-miterlimit="4" transform="translate(2.834645669 93.870730273)" d="M 0 0h 286.68888189"/><path fill="none" stroke="#b4b6bb" stroke-width="0.2" stroke-linecap="butt" stroke-linejoin="miter" stroke-miterlimit="4" transform="translate(2.834645669 56.092828782)" d="M 0 0h 286.68888189"/><path fill="none" stroke="#b4b6bb" stroke-width="0.2" stroke-linecap="butt" stroke-linejoin="miter" stroke-miterlimit="4" transform="translate(2.834645669 18.31492729)" d="M 0 0h 286.68888189"/><path fill="none" stroke="#b4b6bb" stroke-width="0.4" stroke-linecap="butt" stroke-linejoin="miter" stroke-miterlimit="4" transform="translate(2.834645669 112.759681019)" d="M 0 0h 286.68888189"/><path fill="none" stroke="#b4b6bb" stroke-width="0.4" stroke-linecap="butt" stroke-linejoin="miter" stroke-miterlimit="4" transform="translate(2.834645669 74.981779528)" d="M 0 0h 286.68888189"/><path fill="none" stroke="#b4b6bb" stroke-width="0.4" stroke-linecap="butt" stroke-linejoin="miter" stroke-miterlimit="4" transform="translate(2.834645669 37.203878036)" d="M 0 0h 286.68888189"/><path fill="none" transform="translate(2.834645669 0)" d="M 0 0h 286.68888189v 149.963559055h -286.68888189v -149.963559055Z "/><g transform="translate(2.834645622 -1.26e-7)"><g clip-path="url(#c2799D2F05C938AD5E6D4D2E0E13D65CF)"><g><path fill="url(#t1504AFB091525ACE7C1F1A88793241FD)" fill-rule="nonzero" transform="translate(13.031312813 6.816525412)" d="M 0 0m 0 21.915181262l 0.260626256 -0.072406083l 12.510060301 -3.475491993l 0.260626256 -0.072406083l 0.260626256 -0.074498918l 12.510060301 -3.575948072l 0.260626256 -0.074498918l 0.260626256 -0.072829463l 12.510060301 -3.495814218l 0.260626256 -0.072829463l 0.260626256 -0.067228228l 12.510060301 -3.226954925l 0.260626256 -0.067228228l 0.260626256 -0.057944235l 12.510060301 -2.781323271l 0.260626256 -0.057944235l 0.260626256 -0.045616684l 12.510060301 -2.189600836l 0.260626256 -0.045616684l 0.260626256 -0.031195769l 12.510060301 -1.497396901l 0.260626256 -0.031195769l 0.260626256 -0.015832216l 12.510060301 -0.759946376l 0.260626256 -0.015832216l 0.260626256 -0.00075203l 12.510060301 -0.036097418l 0.260626256 -0.00075203l 0.260626256 0.01287499l 12.510060301 0.617999514l 0.260626256 0.01287499l 0.260626256 0.024069525l 12.510060301 1.155337192l 0.260626256 0.024069525l 0.260626256 0.032173186l 12.510060301 1.544312905l 0.260626256 0.032173186l 0.260626256 0.036957216l 12.510060301 1.773946391l 0.260626256 0.036957216l 0.260626256 0.03867943l 12.510060301 1.856612646l 0.260626256 0.03867943l 0.260626256 0.038056719l 12.510060301 1.8267225l 0.260626256 0.038056719l 0.260626256 0.03613485l 12.510060301 1.734472795l 0.260626256 0.03613485l 0.260626256 0.034067541l 12.510060301 1.635241974l 0.260626256 0.034067541l 0.260626256 0.032852281l 12.510060301 1.576909491l 0.260626256 0.032852281l 0.260626256 0.03309483l 12.510060301 1.588551848l 0.260626256 0.03309483l 0.260626256 0.034874232l 12.510060301 1.673963113l 0.260626256 0.034874232v 16.807683429l -0.260626256 -0.015056335l -12.510060301 -0.722704056l -0.260626256 -0.015056335l -0.260626256 -0.005040256l -12.510060301 -0.241932282l -0.260626256 -0.005040256l -0.260626256 0.004963952l -12.510060301 0.238269692l -0.260626256 0.004963952l -0.260626256 0.01437195l -12.510060301 0.689853595l -0.260626256 0.01437195l -0.260626256 0.02266195l -12.510060301 1.087773585l -0.260626256 0.02266195l -0.260626256 0.02930349l -12.510060301 1.406567526l -0.260626256 0.02930349l -0.260626256 0.033720198l -12.510060301 1.618569488l -0.260626256 0.033720198l -0.260626256 0.035345684l -12.510060301 1.696592829l -0.260626256 0.035345684l -0.260626256 0.033784718l -12.510060301 1.621666467l -0.260626256 0.033784718l -0.260626256 0.029028757l -12.510060301 1.39338035l -0.260626256 0.029028757l -0.260626256 0.021628219l -12.510060301 1.038154488l -0.260626256 0.021628219l -0.260626256 0.012720871l -12.510060301 0.610601791l -0.260626256 0.012720871l -0.260626256 0.003863375l -12.510060301 0.185442003l -0.260626256 0.003863375l -0.260626256 -0.00330744l -12.510060301 -0.158757101l -0.260626256 -0.00330744l -0.260626256 -0.007481598l -12.510060301 -0.359116706l -0.260626256 -0.007481598l -0.260626256 -0.008013669l -12.510060301 -0.384656102l -0.260626256 -0.008013669l -0.260626256 -0.005074673l -12.510060301 -0.243584295l -0.260626256 -0.005074673l -0.260626256 0.000429835l -12.510060301 0.020632083l -0.260626256 0.000429835l -0.260626256 0.007138709l -12.510060301 0.342658046l -0.260626256 0.007138709l -0.260626256 0.013609284l -12.510060301 0.653245613l -0.260626256 0.013609284v -23.514093195Z "/><path fill="url(#tDF5AC96A25756EF09DC04605E31C197A)" fill-rule="nonzero" transform="translate(13.031312813 40.311119291)" d="M 0 0m 0 11.934680577l 0.260626256 -0.013609284l 12.510060301 -0.653245613l 0.260626256 -0.013609284l 0.260626256 -0.007138709l 12.510060301 -0.342658046l 0.260626256 -0.007138709l 0.260626256 -0.000429835l 12.510060301 -0.020632083l 0.260626256 -0.000429835l 0.260626256 0.005074673l 12.510060301 0.243584295l 0.260626256 0.005074673l 0.260626256 0.008013669l 12.510060301 0.384656102l 0.260626256 0.008013669l 0.260626256 0.007481598l 12.510060301 0.359116706l 0.260626256 0.007481598l 0.260626256 0.00330744l 12.510060301 0.158757101l 0.260626256 0.00330744l 0.260626256 -0.003863375l 12.510060301 -0.185442003l 0.260626256 -0.003863375l 0.260626256 -0.012720871l 12.510060301 -0.610601791l 0.260626256 -0.012720871l 0.260626256 -0.021628219l 12.510060301 -1.038154488l 0.260626256 -0.021628219l 0.260626256 -0.029028757l 12.510060301 -1.39338035l 0.260626256 -0.029028757l 0.260626256 -0.033784718l 12.510060301 -1.621666467l 0.260626256 -0.033784718l 0.260626256 -0.035345684l 12.510060301 -1.696592829l 0.260626256 -0.035345684l 0.260626256 -0.033720198l 12.510060301 -1.618569488l 0.260626256 -0.033720198l 0.260626256 -0.02930349l 12.510060301 -1.406567526l 0.260626256 -0.02930349l 0.260626256 -0.02266195l 12.510060301 -1.087773585l 0.260626256 -0.02266195l 0.260626256 -0.01437195l 12.510060301 -0.689853595l 0.260626256 -0.01437195l 0.260626256 -0.004963952l 12.510060301 -0.238269692l 0.260626256 -0.004963952l 0.260626256 0.005040256l 12.510060301 0.241932282l 0.260626256 0.005040256l 0.260626256 0.015056335l 12.510060301 0.722704056l 0.260626256 0.015056335v 45.33348179l -0.260626256 -0.027025176l -12.510060301 -1.297208429l -0.260626256 -0.027025176l -0.260626256 -0.039543464l -12.510060301 -1.898086284l -0.260626256 -0.039543464l -0.260626256 -0.04813433l -12.510060301 -2.310447851l -0.260626256 -0.04813433l -0.260626256 -0.051585954l -12.510060301 -2.476125778l -0.260626256 -0.051585954l -0.260626256 -0.049640951l -12.510060301 -2.382765635l -0.260626256 -0.049640951l -0.260626256 -0.043096138l -12.510060301 -2.068614608l -0.260626256 -0.043096138l -0.260626256 -0.033640011l -12.510060301 -1.614720538l -0.260626256 -0.033640011l -0.260626256 -0.023451116l -12.510060301 -1.125653551l -0.260626256 -0.023451116l -0.260626256 -0.014654773l -12.510060301 -0.703429101l -0.260626256 -0.014654773l -0.260626256 -0.008787476l -12.510060301 -0.421798832l -0.260626256 -0.008787476l -0.260626256 -0.006426356l -12.510060301 -0.308465078l -0.260626256 -0.006426356l -0.260626256 -0.007097026l -12.510060301 -0.340657266l -0.260626256 -0.007097026l -0.260626256 -0.009487219l -12.510060301 -0.455386528l -0.260626256 -0.009487219l -0.260626256 -0.011894423l -12.510060301 -0.570932309l -0.260626256 -0.011894423l -0.260626256 -0.012759684l -12.510060301 -0.612464812l -0.260626256 -0.012759684l -0.260626256 -0.011116276l -12.510060301 -0.533581265l -0.260626256 -0.011116276l -0.260626256 -0.006819895l -12.510060301 -0.327354984l -0.260626256 -0.006819895l -0.260626256 -0.000510022l -12.510060301 -0.024481033l -0.260626256 -0.000510022l -0.260626256 0.006653938l -12.510060301 0.319389037l -0.260626256 0.006653938l -0.260626256 0.013369717l -12.510060301 0.641746437l -0.260626256 0.013369717v -15.121299056Z "/><path fill="url(#t8E83163F83C65546A2A3FB395DE21293)" fill-rule="nonzero" transform="translate(13.031312813 66.365916139)" d="M 0 0m 0 1.001182785l 0.260626256 -0.013369717l 12.510060301 -0.641746437l 0.260626256 -0.013369717l 0.260626256 -0.006653938l 12.510060301 -0.319389037l 0.260626256 -0.006653938l 0.260626256 0.000510022l 12.510060301 0.024481033l 0.260626256 0.000510022l 0.260626256 0.006819895l 12.510060301 0.327354984l 0.260626256 0.006819895l 0.260626256 0.011116276l 12.510060301 0.533581265l 0.260626256 0.011116276l 0.260626256 0.012759684l 12.510060301 0.612464812l 0.260626256 0.012759684l 0.260626256 0.011894423l 12.510060301 0.570932309l 0.260626256 0.011894423l 0.260626256 0.009487219l 12.510060301 0.455386528l 0.260626256 0.009487219l 0.260626256 0.007097026l 12.510060301 0.340657266l 0.260626256 0.007097026l 0.260626256 0.006426356l 12.510060301 0.308465078l 0.260626256 0.006426356l 0.260626256 0.008787476l 12.510060301 0.421798832l 0.260626256 0.008787476l 0.260626256 0.014654773l 12.510060301 0.703429101l 0.260626256 0.014654773l 0.260626256 0.023451116l 12.510060301 1.125653551l 0.260626256 0.023451116l 0.260626256 0.033640011l 12.510060301 1.614720538l 0.260626256 0.033640011l 0.260626256 0.043096138l 12.510060301 2.068614608l 0.260626256 0.043096138l 0.260626256 0.049640951l 12.510060301 2.382765635l 0.260626256 0.049640951l 0.260626256 0.051585954l 12.510060301 2.476125778l 0.260626256 0.051585954l 0.260626256 0.04813433l 12.510060301 2.310447851l 0.260626256 0.04813433l 0.260626256 0.039543464l 12.510060301 1.898086284l 0.260626256 0.039543464l 0.260626256 0.027025176l 12.510060301 1.297208429l 0.260626256 0.027025176v 23.514093195l -0.260626256 0.031771624l -12.510060301 1.52503795l -0.260626256 0.031771624l -0.260626256 0.027816745l -12.510060301 1.335203743l -0.260626256 0.027816745l -0.260626256 0.024265298l -12.510060301 1.164734284l -0.260626256 0.024265298l -0.260626256 0.020716947l -12.510060301 0.994413443l -0.260626256 0.020716947l -0.260626256 0.016316953l -12.510060301 0.783213737l -0.260626256 0.016316953l -0.260626256 0.010002144l -12.510060301 0.480102934l -0.260626256 0.010002144l -0.260626256 0.000863197l -12.510060301 0.041433464l -0.260626256 0.000863197l -0.260626256 -0.011482275l -12.510060301 -0.551149177l -0.260626256 -0.011482275l -0.260626256 -0.026623614l -12.510060301 -1.277933474l -0.260626256 -0.026623614l -0.260626256 -0.043290684l -12.510060301 -2.077952834l -0.260626256 -0.043290684l -0.260626256 -0.059524638l -12.510060301 -2.857182621l -0.260626256 -0.059524638l -0.260626256 -0.07305493l -12.510060301 -3.506636639l -0.260626256 -0.07305493l -0.260626256 -0.08179012l -12.510060301 -3.925925749l -0.260626256 -0.08179012l -0.260626256 -0.084294051l -12.510060301 -4.046114443l -0.260626256 -0.084294051l -0.260626256 -0.080119892l -12.510060301 -3.845754838l -0.260626256 -0.080119892l -0.260626256 -0.069913076l -12.510060301 -3.355827644l -0.260626256 -0.069913076l -0.260626256 -0.055259387l -12.510060301 -2.652450552l -0.260626256 -0.055259387l -0.260626256 -0.038326255l -12.510060301 -1.839660216l -0.260626256 -0.038326255l -0.260626256 -0.021400636l -12.510060301 -1.02723053l -0.260626256 -0.021400636l -0.260626256 -0.00644818l -12.510060301 -0.30951262l -0.260626256 -0.00644818v -16.807683429Z "/><path fill="url(#tD3F5ABD3395DF4E1E968F9C9810BCA99)" fill-rule="nonzero" transform="translate(13.031312813 84.174782353)" d="M 0 0m 0 0l 0.260626256 0.00644818l 12.510060301 0.30951262l 0.260626256 0.00644818l 0.260626256 0.021400636l 12.510060301 1.02723053l 0.260626256 0.021400636l 0.260626256 0.038326255l 12.510060301 1.839660216l 0.260626256 0.038326255l 0.260626256 0.055259387l 12.510060301 2.652450552l 0.260626256 0.055259387l 0.260626256 0.069913076l 12.510060301 3.355827644l 0.260626256 0.069913076l 0.260626256 0.080119892l 12.510060301 3.845754838l 0.260626256 0.080119892l 0.260626256 0.084294051l 12.510060301 4.046114443l 0.260626256 0.084294051l 0.260626256 0.08179012l 12.510060301 3.925925749l 0.260626256 0.08179012l 0.260626256 0.07305493l 12.510060301 3.506636639l 0.260626256 0.07305493l 0.260626256 0.059524638l 12.510060301 2.857182621l 0.260626256 0.059524638l 0.260626256 0.043290684l 12.510060301 2.077952834l 0.260626256 0.043290684l 0.260626256 0.026623614l 12.510060301 1.277933474l 0.260626256 0.026623614l 0.260626256 0.011482275l 12.510060301 0.551149177l 0.260626256 0.011482275l 0.260626256 -0.000863197l 12.510060301 -0.041433464l 0.260626256 -0.000863197l 0.260626256 -0.010002144l 12.510060301 -0.480102934l 0.260626256 -0.010002144l 0.260626256 -0.016316953l 12.510060301 -0.783213737l 0.260626256 -0.016316953l 0.260626256 -0.020716947l 12.510060301 -0.994413443l 0.260626256 -0.020716947l 0.260626256 -0.024265298l 12.510060301 -1.164734284l 0.260626256 -0.024265298l 0.260626256 -0.027816745l 12.510060301 -1.335203743l 0.260626256 -0.027816745l 0.260626256 -0.031771624l 12.510060301 -1.52503795l 0.260626256 -0.031771624v 15.29176988l -0.260626256 0.034874232l -12.510060301 1.673963113l -0.260626256 0.034874232l -0.260626256 0.03309483l -12.510060301 1.588551848l -0.260626256 0.03309483l -0.260626256 0.032852281l -12.510060301 1.576909491l -0.260626256 0.032852281l -0.260626256 0.034067541l -12.510060301 1.635241974l -0.260626256 0.034067541l -0.260626256 0.03613485l -12.510060301 1.734472795l -0.260626256 0.03613485l -0.260626256 0.038056719l -12.510060301 1.8267225l -0.260626256 0.038056719l -0.260626256 0.03867943l -12.510060301 1.856612646l -0.260626256 0.03867943l -0.260626256 0.036957216l -12.510060301 1.773946391l -0.260626256 0.036957216l -0.260626256 0.032173186l -12.510060301 1.544312905l -0.260626256 0.032173186l -0.260626256 0.024069525l -12.510060301 1.155337192l -0.260626256 0.024069525l -0.260626256 0.01287499l -12.510060301 0.617999514l -0.260626256 0.01287499l -0.260626256 -0.00075203l -12.510060301 -0.036097418l -0.260626256 -0.00075203l -0.260626256 -0.015832216l -12.510060301 -0.759946376l -0.260626256 -0.015832216l -0.260626256 -0.031195769l -12.510060301 -1.497396901l -0.260626256 -0.031195769l -0.260626256 -0.045616684l -12.510060301 -2.189600836l -0.260626256 -0.045616684l -0.260626256 -0.057944235l -12.510060301 -2.781323271l -0.260626256 -0.057944235l -0.260626256 -0.067228228l -12.510060301 -3.226954925l -0.260626256 -0.067228228l -0.260626256 -0.072829463l -12.510060301 -3.495814218l -0.260626256 -0.072829463l -0.260626256 -0.074498918l -12.510060301 -3.575948072l -0.260626256 -0.074498918l -0.260626256 -0.072406083l -12.510060301 -3.475491993l -0.260626256 -0.072406083v -37.057070029Z "/></g></g></g><path fill="none" transform="translate(136.706586614 166.055874016)" d="M 0 0h 18.945v 6.012h -18.945v -6.012Z "/><g transform="translate(136.706586614 166.055874016)"><g transform="matrix(1 0 0 -1 0 5.922)"><use xlink:href="#g39DA3D4585A983D9BECB3808586FA77D" x="0" y="0" fill="#111827" fill-rule="nonzero"/><use xlink:href="#gEDE113971A7C9D129D6A2104959F55B2" x="5.373" y="0" fill="#111827" fill-rule="nonzero"/><use xlink:href="#g66B9A992694013ABABB01E28AE9743C7" x="7.812" y="0" fill="#111827" fill-rule="nonzero"/><use xlink:href="#g15283247E004048E8F39F157505A0F31" x="14.922" y="0" fill="#111827" fill-rule="nonzero"/></g></g><path fill="none" transform="translate(302.323527559 47.56911811)" d="M 0 0h 19.296v 5.344h -19.296v -5.344Z "/><g transform="translate(302.323527559 47.569118031)"><g transform="matrix(1 0 0 -1 0 5.264)"><use xlink:href="#gAC173AC16C94F352139132A9DCC12557" x="0" y="0" fill="#111827" fill-rule="nonzero"/><use xlink:href="#g20EDBE1E989F56AA9FBFD4A2EF5BDC35" x="3.88" y="0" fill="#111827" fill-rule="nonzero"/><use xlink:href="#gF14903D79C881A9B6AC2EE7D8BED6F03" x="7.456" y="0" fill="#111827" fill-rule="nonzero"/><use xlink:href="#g2BFBF805A6B9D0BF9A5DDB8FE340411" x="10.432" y="0" fill="#111827" fill-rule="nonzero"/><use xlink:href="#g20EDBE1E989F56AA9FBFD4A2EF5BDC35" x="12.6" y="0" fill="#111827" fill-rule="nonzero"/><use xlink:href="#g86ABD9B98157573BF6882A43FA434742" x="16.176" y="0" fill="#111827" fill-rule="nonzero"/></g></g><path fill="url(#t1504AFB091525ACE7C1F1A88793241FD)" fill-rule="nonzero" transform="translate(302.323527559 60.36911811)" d="M 0 0v 6.803149606h 6.803149606v -6.803149606h -6.803149606Z "/><path fill="none" transform="translate(313.378645669 61.130692913)" d="M 0 0h 5.56v 5.28h -5.56v -5.28Z "/><g transform="translate(313.378645591 61.130692866)"><g transform="matrix(1 0 0 -1 0 5.264)"><use xlink:href="#g8D1B85E3ABA097AFFEFA8B147B26839C" x="0" y="0" fill="#111827" fill-rule="nonzero"/></g></g><path fill="url(#tDF5AC96A25756EF09DC04605E31C197A)" fill-rule="nonzero" transform="translate(302.323527559 71.576173228)" d="M 0 0v 6.803149606h 6.803149606v -6.803149606h -6.803149606Z "/><path fill="none" transform="translate(313.378645669 72.337748031)" d="M 0 0h 4.704v 5.28h -4.704v -5.28Z "/><g transform="translate(313.378645622 72.337747984)"><g transform="matrix(1 0 0 -1 0 5.264)"><use xlink:href="#gB2C2A6E3883310E6A7667C09A3228786" x="0" y="0" fill="#111827" fill-rule="nonzero"/></g></g><path fill="url(#t8E83163F83C65546A2A3FB395DE21293)" fill-rule="nonzero" transform="translate(302.323527559 82.783228346)" d="M 0 0v 6.803149606h 6.803149606v -6.803149606h -6.803149606Z "/><path fill="none" transform="translate(313.378645669 83.51280315)" d="M 0 0h 5.168v 5.344h -5.168v -5.344Z "/><g transform="translate(313.378645606 83.512803071)"><g transform="matrix(1 0 0 -1 0 5.264)"><use xlink:href="#g8C602F113ED136B9EC97C2B861CC969C" x="0" y="0" fill="#111827" fill-rule="nonzero"/></g></g><path fill="url(#tD3F5ABD3395DF4E1E968F9C9810BCA99)" fill-rule="nonzero" transform="translate(302.323527559 93.990283465)" d="M 0 0v 6.803149606h 6.803149606v -6.803149606h -6.803149606Z "/><path fill="none" transform="translate(313.378645669 94.751858268)" d="M 0 0h 5.608v 5.28h -5.608v -5.28Z "/><g transform="translate(313.378645638 94.75185822)"><g transform="matrix(1 0 0 -1 0 5.264)"><use xlink:href="#gFE6E2B5509146F875FD8B916E3486C01" x="0" y="0" fill="#111827" fill-rule="nonzero"/></g></g></g></g></g><defs><symbol id="g7C8B8CE2FA3271B2DB9D5C00ED33FFB8" overflow="visible"><path d="M 0 0m 1.98 0.948l 0.636 1.668c 0.06 0.156 0.132 0.204 0.42 0.204h 2.28l 0.672 -1.956c 0.144 -0.432 -0.204 -0.444 -0.66 -0.468c -0.072 0 -0.156 -0.012 -0.228 -0.012c -0.072 -0.072 -0.072 -0.336 0 -0.408c 0.444 0.012 1.584 0.024 2.052 0.024c 0.492 0 1.164 -0.012 1.608 -0.024c 0.072 0.072 0.072 0.336 0 0.408c -0.468 0.048 -0.864 0.036 -1.08 0.648l -2.472 6.864c -0.18 -0.108 -0.9 -0.528 -1.32 -0.528l -2.604 -6.144c -0.312 -0.744 -0.672 -0.804 -1.2 -0.84c -0.072 -0.072 -0.072 -0.336 0 -0.408c 0.444 0.012 0.66 0.024 1.128 0.024c 0.492 0 1.152 -0.012 1.596 -0.024c 0.072 0.072 0.072 0.336 0 0.408c -0.456 0.036 -1.02 0.072 -0.828 0.564Z m 1.296 2.448c -0.264 0 -0.348 0.036 -0.3 0.156l 1.056 2.688h 0.084l 0.984 -2.844Z "/></symbol><symbol id="gA421F3DD5F2809E5ED8290B7EF6AAC43" overflow="visible"><path d="M 0 0m 5.052 7.572c -0.66 0.096 -0.912 0.324 -2.028 0.324c -0.54 0 -1.248 -0.168 -1.752 -0.576c -0.444 -0.36 -0.78 -0.912 -0.78 -1.5c 0 -0.456 0.12 -1.032 0.396 -1.392c 0.552 -0.744 1.548 -1.152 2.064 -1.512c 0.552 -0.384 1.092 -0.864 1.092 -1.536c 0 -0.588 -0.516 -0.996 -1.248 -0.996c -0.804 0 -1.632 0.66 -1.872 1.752c -0.192 0.072 -0.384 0.024 -0.564 -0.024c -0.012 0 -0.024 -0.012 -0.036 -0.012c 0 -0.9 0.096 -1.536 0.228 -1.98c 0.684 0 0.72 -0.24 2.376 -0.24c 0.732 0 1.32 0.216 1.812 0.66c 0.432 0.372 0.816 0.924 0.816 1.668c 0 0.624 -0.264 1.044 -0.624 1.44c -0.468 0.516 -1.14 0.888 -1.608 1.128c -0.48 0.24 -1.332 0.864 -1.332 1.548c 0 0.672 0.408 1.08 1.02 1.08c 1.02 0 1.356 -0.924 1.572 -1.716c 0.168 -0.048 0.468 -0.048 0.6 0.06c 0 0.636 -0.048 1.128 -0.132 1.824Z "/></symbol><symbol id="g3E13159425B4C5FA6BE9D46173183F7B" overflow="visible"><path d="M 0 0m 0.756 5.208c -0.168 0 -0.348 -0.048 -0.504 -0.18v -0.348c 0 -0.06 0.012 -0.072 0.06 -0.072h 0.78c -0.024 -1.212 -0.036 -2.748 -0.036 -3.348c 0 -0.42 0.108 -0.828 0.36 -1.044c 0.276 -0.228 0.708 -0.336 0.996 -0.336c 0.66 0 1.392 0.336 1.632 0.672c 0 0.144 -0.072 0.216 -0.216 0.336c -0.156 -0.12 -0.456 -0.168 -0.684 -0.168c -0.264 0 -0.528 0.204 -0.528 0.804c 0 0.6 -0.012 1.884 -0.012 3.084h 1.212c 0.12 0 0.288 0.048 0.288 0.156v 0.372c 0 0.048 -0.036 0.072 -0.096 0.072h -1.404l 0.012 0.408c 0.024 0.804 0.06 1.356 0.06 1.356c 0 0.072 -0.036 0.108 -0.096 0.108c -0.084 0 -0.528 -0.132 -0.72 -0.216c -0.204 -0.084 -0.552 -0.156 -0.636 -0.264c -0.084 -0.108 -0.132 -0.432 -0.132 -1.392Z "/></symbol><symbol id="g56D9AC69DF1E60AEC4FA898FA388366B" overflow="visible"><path d="M 0 0m 2.736 3.216c 0 0.432 0.132 0.612 0.288 0.792c 0.096 0.12 0.204 0.204 0.384 0.204c 0.108 0 0.24 -0.108 0.336 -0.228c 0.084 -0.096 0.288 -0.192 0.564 -0.192c 0.348 0 0.684 0.36 0.684 0.864c 0 0.312 -0.36 0.672 -0.792 0.672c -0.42 0 -0.876 -0.36 -1.428 -1.152h -0.048c -0.024 0.36 -0.084 0.948 -0.084 0.948c -0.012 0.108 -0.108 0.204 -0.276 0.204c -0.564 -0.144 -1.2 -0.312 -1.992 -0.396c -0.024 -0.072 0 -0.3 0.024 -0.372c 0.66 -0.06 0.78 -0.168 0.78 -0.852v -2.244c 0 -0.996 -0.132 -1.02 -0.864 -1.08c -0.072 -0.072 -0.072 -0.336 0 -0.408c 0.504 0.012 1.008 0.024 1.644 0.024c 0.636 0 1.128 -0.012 1.644 -0.024c 0.072 0.072 0.072 0.336 0 0.408c -0.732 0.048 -0.864 0.084 -0.864 1.08Z "/></symbol><symbol id="gE18113BE1243CA6EC5596891CC422939" overflow="visible"><path d="M 0 0m 5.172 1.548c -0.492 -0.504 -1.14 -0.636 -1.596 -0.636c -0.936 0 -1.512 0.54 -1.512 1.716c 0 0.084 0.012 0.132 0.012 0.192h 2.88c 0.288 0 0.348 0.204 0.348 0.372c 0 1.02 -0.396 2.136 -2.16 2.136c -1.26 0 -2.7 -1.116 -2.7 -2.952c 0 -0.696 0.252 -1.428 0.768 -1.896c 0.456 -0.408 1.044 -0.6 1.896 -0.6c 0.828 0 1.644 0.42 2.244 1.296c 0 0.156 -0.06 0.372 -0.18 0.372Z m -3.048 1.752c 0.012 0.42 0.072 0.876 0.24 1.116c 0.192 0.288 0.516 0.408 0.648 0.408c 0.324 0 0.768 -0.312 0.768 -1.272c 0 -0.072 0 -0.228 -0.024 -0.252Z "/></symbol><symbol id="gDC05A2A7E4AEFCF99C6614634AF8B2F0" overflow="visible"><path d="M 0 0m 3.54 0.588c 0.084 -0.492 0.408 -0.708 0.936 -0.708c 0.66 0 1.128 0.252 1.572 0.672c -0.024 0.144 -0.072 0.24 -0.216 0.336c -0.156 -0.12 -0.276 -0.168 -0.504 -0.168c -0.264 0 -0.336 0.216 -0.336 0.804l 0.024 1.728c 0 1.728 -1.068 2.076 -2.052 2.076c -0.876 0 -2.22 -0.504 -2.22 -1.296c 0 -0.336 0.144 -0.6 0.612 -0.6c 0.432 0 0.744 0.264 0.744 0.552c 0 0.06 -0.012 0.132 -0.024 0.204c -0.024 0.12 -0.048 0.24 -0.024 0.36c 0.012 0.132 0.108 0.276 0.504 0.276c 0.504 0 0.924 -0.216 0.924 -1.74l -0.804 -0.252c -1.26 -0.396 -2.148 -0.744 -2.148 -1.692c 0 -0.828 0.456 -1.26 1.5 -1.26c 0.348 0 1.044 0.384 1.44 0.696Z m -0.06 2.028v -1.584c -0.3 -0.24 -0.6 -0.432 -0.816 -0.432c -0.516 0 -0.696 0.348 -0.696 0.72c 0 0.444 0.036 0.816 0.888 1.092Z "/></symbol><symbol id="gFEC70EFDBA18BA4C4D3D82E0B33EA29E" overflow="visible"><path d="M 0 0m 2.736 1.464v 2.388c 0 0.06 0 0.12 0 0.18c 0.468 0.288 0.888 0.408 1.092 0.408c 0.48 0 0.84 -0.216 0.84 -0.9v -2.004c 0 -1.008 -0.192 -1.116 -0.684 -1.152c -0.072 -0.072 -0.072 -0.336 0 -0.408c 0.504 0.012 0.888 0.024 1.464 0.024c 0.576 0 0.948 -0.012 1.464 -0.024c 0.072 0.072 0.072 0.336 0 0.408c -0.48 0.036 -0.684 0.144 -0.684 1.152v 1.872c 0 0.3 -0.012 0.54 -0.048 0.66c 0.456 0.228 0.972 0.372 1.164 0.372c 0.48 0 0.816 -0.216 0.816 -0.9v -2.004c 0 -1.008 -0.192 -1.116 -0.684 -1.152c -0.072 -0.072 -0.072 -0.336 0 -0.408c 0.504 0.012 0.888 0.024 1.464 0.024c 0.66 0 1.188 -0.012 1.704 -0.024c 0.072 0.072 0.072 0.336 0 0.408c -0.732 0.036 -0.924 0.144 -0.924 1.152v 1.872c 0 1.32 -0.48 1.92 -1.512 1.92c -0.444 0 -1.452 -0.48 -2.148 -0.864c -0.18 0.516 -0.66 0.864 -1.368 0.864c -0.432 0 -1.296 -0.456 -1.98 -0.84c -0.036 0.36 -0.072 0.636 -0.072 0.636c -0.012 0.144 -0.108 0.204 -0.276 0.204c -0.444 -0.12 -1.164 -0.288 -1.992 -0.396c -0.024 -0.072 0 -0.312 0.024 -0.384c 0.66 -0.06 0.78 -0.156 0.78 -0.84v -2.244c 0 -0.996 -0.132 -1.02 -0.864 -1.08c -0.072 -0.072 -0.072 -0.336 0 -0.408c 0.504 0.012 1.008 0.024 1.644 0.024c 0.552 0 0.888 -0.012 1.404 -0.024c 0.072 0.072 0.072 0.336 0 0.408c -0.504 0.048 -0.624 0.084 -0.624 1.08Z "/></symbol><symbol id="g8D15A55F054D4F8515F5F3C5E6F83BE2" overflow="visible"><path d="M 0 0m 5.604 4.728c 0.336 0 0.528 0.144 0.528 0.588c 0 0.228 -0.312 0.576 -0.768 0.576c -0.528 0 -1.224 -0.396 -1.572 -0.708c -0.216 0.12 -0.468 0.144 -1.008 0.144c -0.516 0 -1.02 -0.12 -1.416 -0.384c -0.492 -0.312 -0.816 -0.78 -0.816 -1.392c 0 -0.588 0.348 -1.224 0.924 -1.536c -0.372 -0.324 -0.948 -0.96 -0.948 -1.2c 0 -0.228 0.036 -0.372 0.156 -0.552c 0.108 -0.168 0.252 -0.264 0.492 -0.336c -0.516 -0.312 -1.044 -0.996 -1.044 -1.2c 0 -0.444 0.144 -0.96 0.468 -1.188c 0.468 -0.324 1.26 -0.396 1.836 -0.396c 1.668 0 3.576 0.876 3.576 2.196c 0 0.252 -0.12 0.768 -0.6 1.092c -0.468 0.312 -2.268 0.396 -3.156 0.396c -0.216 0 -0.54 0.024 -0.54 0.504c 0 0.192 0.12 0.36 0.18 0.504c 0.252 -0.12 0.504 -0.132 0.876 -0.132c 0.612 0 1.176 0.156 1.584 0.516c 0.348 0.312 0.588 0.732 0.588 1.272c 0 0.672 -0.336 1.116 -0.744 1.452c 0.096 0.12 0.492 0.336 0.612 0.336c 0.108 0 0.192 -0.072 0.228 -0.144c 0.048 -0.156 0.264 -0.408 0.564 -0.408Z m -3.504 -5.028c 0.924 0 2.7 -0.036 2.7 -0.672c 0 -0.432 -0.192 -0.924 -0.588 -1.14c -0.372 -0.216 -0.984 -0.24 -1.44 -0.24c -0.792 0 -1.332 0.588 -1.332 1.2c 0 0.408 0 0.684 0.132 0.924c 0.12 -0.048 0.276 -0.072 0.528 -0.072Z m 1.38 3.756c 0 -1.152 -0.336 -1.296 -0.648 -1.296c -0.744 0 -0.84 0.888 -0.84 1.5c 0 0.888 0.216 1.212 0.684 1.212c 0.564 0 0.804 -0.468 0.804 -1.416Z "/></symbol><symbol id="g60E64311C0ACD550FD96BE9E58C78EBF" overflow="visible"><path d="M 0 0m 1.14 3.708v -5.028c 0 -0.996 -0.132 -1.02 -0.864 -1.08c -0.072 -0.072 -0.072 -0.336 0 -0.408c 0.504 0.012 1.008 0.024 1.644 0.024c 0.636 0 1.128 -0.012 1.644 -0.024c 0.072 0.072 0.072 0.336 0 0.408c -0.732 0.048 -0.864 0.084 -0.864 1.08v 1.404c 0.264 -0.132 0.516 -0.204 0.804 -0.204c 1.824 0 3.012 1.2 3.012 2.964c 0 0.672 -0.252 1.416 -0.72 1.884c -0.42 0.42 -1.02 0.6 -1.644 0.6c -0.348 0 -0.996 -0.42 -1.416 -0.804h -0.072c -0.024 0.336 -0.06 0.6 -0.06 0.6c -0.012 0.144 -0.108 0.204 -0.276 0.204c -0.444 -0.12 -1.164 -0.288 -1.992 -0.396c -0.024 -0.072 0 -0.312 0.024 -0.384c 0.66 -0.06 0.78 -0.156 0.78 -0.84Z m 1.56 -2.928v 3.072c 0 0.072 0 0.132 0 0.204c 0.348 0.312 0.792 0.468 1.068 0.468c 0.492 0 1.068 -0.6 1.068 -2.004c 0 -1.008 -0.36 -2.136 -1.404 -2.136c -0.132 0 -0.432 0.072 -0.732 0.396Z "/></symbol><symbol id="g5C8521CD324BD598695A36491E4CE69D" overflow="visible"><path d="M 0 0m 6.336 1.536v 1.872c 0 1.32 -0.564 1.92 -1.596 1.92c -0.444 0 -1.296 -0.444 -1.98 -0.864v 2.532c 0 0.78 0.036 1.224 0.036 1.224c 0 0.108 -0.084 0.156 -0.192 0.156c -0.444 -0.144 -1.404 -0.276 -2.256 -0.312c -0.036 -0.144 -0.024 -0.276 0.036 -0.384c 0.756 -0.06 0.816 -0.072 0.816 -0.9v -5.256c 0 -0.996 -0.192 -1.104 -0.924 -1.14c -0.072 -0.072 -0.072 -0.336 0 -0.408c 0.504 0.012 1.044 0.024 1.704 0.024c 0.576 0 0.948 -0.012 1.464 -0.024c 0.072 0.072 0.072 0.336 0 0.408c -0.504 0.036 -0.684 0.144 -0.684 1.14v 2.46c 0.504 0.312 0.9 0.456 1.116 0.456c 0.48 0 0.9 -0.216 0.9 -0.9v -2.004c 0 -1.008 -0.192 -1.116 -0.684 -1.152c -0.072 -0.072 -0.072 -0.336 0 -0.408c 0.504 0.012 0.888 0.024 1.464 0.024c 0.66 0 1.188 -0.012 1.704 -0.024c 0.072 0.072 0.072 0.336 0 0.408c -0.732 0.036 -0.924 0.144 -0.924 1.152Z "/></symbol><symbol id="g97663EC9AEA74EADA07472643E1BE1B4" overflow="visible"><path d="M 0 0m 1.824 -0.08c 0.616 0 1.552 0.624 1.552 2.504c 0 0.792 -0.192 1.472 -0.544 1.936c -0.208 0.28 -0.544 0.52 -0.976 0.52c -0.792 0 -1.544 -0.944 -1.544 -2.528c 0 -0.856 0.264 -1.656 0.704 -2.096c 0.224 -0.224 0.496 -0.336 0.808 -0.336Z m 0.032 4.68c 0.136 0 0.264 -0.048 0.36 -0.136c 0.248 -0.208 0.464 -0.816 0.464 -1.888c 0 -0.736 -0.024 -1.24 -0.136 -1.648c -0.176 -0.656 -0.568 -0.728 -0.712 -0.728c -0.744 0 -0.824 1.368 -0.824 2.064c 0 1.968 0.488 2.336 0.848 2.336Z "/></symbol><symbol id="gD00C9D162D1CBC09F2F7551D594DBB72" overflow="visible"><path d="M 0 0m 2.552 1.512c 0 -0.76 -0.4 -1.32 -0.88 -1.32c -0.304 0 -0.408 0.2 -0.528 0.36c -0.104 0.136 -0.24 0.256 -0.408 0.256c -0.152 0 -0.304 -0.136 -0.304 -0.296c 0 -0.328 0.68 -0.6 1.136 -0.6c 0.992 0 1.696 0.736 1.696 1.744c 0 0.776 -0.536 1.472 -1.432 1.472c -0.344 0 -0.64 -0.072 -0.784 -0.128l 0.16 1.336c 0.296 -0.032 0.552 -0.072 0.936 -0.072c 0.24 0 0.512 0.016 0.84 0.048l 0.128 0.544l -0.056 0.032c -0.456 -0.048 -0.888 -0.088 -1.312 -0.088c -0.296 0 -0.584 0.016 -0.864 0.04l -0.272 -2.304c 0.424 0.16 0.728 0.192 1.016 0.192c 0.52 0 0.928 -0.344 0.928 -1.216Z "/></symbol><symbol id="g8C50DFC0B8272CD73341C65811BD0E92" overflow="visible"><path d="M 0 0m 2.304 0.976v 2.776c 0 0.48 0.008 0.968 0.024 1.072c 0 0.04 -0.016 0.04 -0.048 0.04c -0.44 -0.272 -0.864 -0.472 -1.568 -0.8c 0.016 -0.088 0.048 -0.168 0.12 -0.216c 0.368 0.152 0.544 0.2 0.696 0.2c 0.136 0 0.16 -0.192 0.16 -0.464v -2.608c 0 -0.664 -0.216 -0.704 -0.776 -0.728c -0.048 -0.048 -0.048 -0.216 0 -0.264c 0.392 0.008 0.68 0.016 1.112 0.016c 0.384 0 0.576 -0.008 0.976 -0.016c 0.048 0.048 0.048 0.216 0 0.264c -0.56 0.024 -0.696 0.064 -0.696 0.728Z "/></symbol><symbol id="gAD9C87F854BDA42EDABFFB35EC1FA84E" overflow="visible"><path d="M 0 0m 0.488 3.744c 0 -0.168 0.152 -0.312 0.32 -0.312c 0.136 0 0.376 0.144 0.376 0.32c 0 0.064 -0.016 0.112 -0.032 0.168c -0.016 0.056 -0.064 0.128 -0.064 0.192c 0 0.2 0.208 0.488 0.792 0.488c 0.288 0 0.696 -0.2 0.696 -0.968c 0 -0.512 -0.184 -0.928 -0.656 -1.408l -0.592 -0.584c -0.784 -0.8 -0.912 -1.184 -0.912 -1.656c 0 0 0.408 0.016 0.664 0.016h 1.4c 0.256 0 0.624 -0.016 0.624 -0.016c 0.104 0.424 0.184 1.024 0.192 1.264c -0.048 0.04 -0.152 0.056 -0.232 0.04c -0.136 -0.568 -0.272 -0.768 -0.56 -0.768h -1.424c 0 0.384 0.552 0.928 0.592 0.968l 0.808 0.776c 0.456 0.44 0.8 0.792 0.8 1.4c 0 0.864 -0.704 1.216 -1.352 1.216c -0.888 0 -1.44 -0.656 -1.44 -1.136Z "/></symbol><symbol id="g39DA3D4585A983D9BECB3808586FA77D" overflow="visible"><path d="M 0 0m 3.15 1.098v 3.438c 0 0.576 0.09 0.918 0.414 0.918h 0.198c 0.675 0 1.098 -0.234 1.251 -0.927c 0.099 0 0.225 0.009 0.306 0.045c -0.063 0.414 -0.108 0.873 -0.117 1.278c 0 0.009 -0.018 0.027 -0.027 0.027c -0.306 -0.027 -1.305 -0.072 -2.016 -0.072h -0.774c -0.693 0 -1.755 0.045 -2.097 0.072c -0.018 0 -0.036 -0.018 -0.036 -0.027c -0.036 -0.405 -0.126 -0.873 -0.225 -1.305c 0.09 -0.036 0.198 -0.045 0.306 -0.045c 0.18 0.72 0.594 0.954 1.188 0.954h 0.441c 0.333 0 0.423 -0.342 0.423 -0.891v -3.465c 0 -0.747 -0.153 -0.792 -0.873 -0.819c -0.054 -0.054 -0.054 -0.243 0 -0.297c 0.441 0.009 0.9 0.018 1.26 0.018c 0.342 0 0.801 -0.009 1.251 -0.018c 0.054 0.054 0.054 0.243 0 0.297c -0.72 0.027 -0.873 0.072 -0.873 0.819Z "/></symbol><symbol id="gEDE113971A7C9D129D6A2104959F55B2" overflow="visible"><path d="M 0 0m 1.629 1.098v 1.791c 0 0.45 0.036 1.026 0.036 1.026c 0 0.036 -0.045 0.063 -0.117 0.063c -0.252 -0.099 -0.612 -0.18 -1.233 -0.261c -0.018 -0.054 0 -0.198 0.018 -0.252c 0.495 -0.045 0.585 -0.099 0.585 -0.612v -1.755c 0 -0.747 -0.099 -0.774 -0.648 -0.819c -0.054 -0.054 -0.054 -0.243 0 -0.297c 0.297 0.009 0.648 0.018 1.008 0.018c 0.36 0 0.702 -0.009 0.999 -0.018c 0.054 0.054 0.054 0.243 0 0.297c -0.549 0.036 -0.648 0.072 -0.648 0.819Z m -0.819 4.293c 0 -0.234 0.216 -0.468 0.432 -0.468c 0.252 0 0.468 0.243 0.468 0.432c 0 0.216 -0.189 0.468 -0.432 0.468c -0.216 0 -0.468 -0.216 -0.468 -0.432Z "/></symbol><symbol id="g66B9A992694013ABABB01E28AE9743C7" overflow="visible"><path d="M 0 0m 1.53 3.222c -0.009 0.27 -0.027 0.594 -0.072 0.684c -0.018 0.045 -0.036 0.072 -0.108 0.072c -0.252 -0.099 -0.486 -0.18 -1.107 -0.261c -0.018 -0.054 0 -0.198 0.018 -0.252c 0.486 -0.045 0.585 -0.09 0.585 -0.612v -1.755c 0 -0.738 -0.117 -0.783 -0.612 -0.819c -0.054 -0.054 -0.054 -0.243 0 -0.297c 0.27 0.009 0.612 0.018 0.972 0.018c 0.36 0 0.639 -0.009 0.909 -0.018c 0.054 0.054 0.054 0.243 0 0.297c -0.459 0.045 -0.558 0.081 -0.558 0.819v 1.476c 0 0.189 0.081 0.297 0.153 0.378c 0.36 0.351 0.693 0.531 0.972 0.531c 0.342 0 0.594 -0.216 0.594 -0.819v -1.566c 0 -0.738 -0.072 -0.783 -0.558 -0.819c -0.045 -0.054 -0.045 -0.243 0 -0.297c 0.225 0.009 0.558 0.018 0.918 0.018c 0.36 0 0.657 -0.009 0.882 -0.018c 0.045 0.054 0.045 0.243 0 0.297c -0.45 0.036 -0.531 0.081 -0.531 0.819v 1.431c 0 0.126 0 0.252 -0.009 0.36c 0.432 0.477 0.837 0.594 1.188 0.594c 0.342 0 0.54 -0.198 0.54 -0.801v -1.584c 0 -0.738 -0.09 -0.783 -0.558 -0.819c -0.045 -0.054 -0.045 -0.243 0 -0.297c 0.225 0.009 0.558 0.018 0.918 0.018c 0.36 0 0.675 -0.009 0.927 -0.018c 0.045 0.054 0.045 0.243 0 0.297c -0.495 0.036 -0.576 0.081 -0.576 0.819v 1.422c 0 0.801 -0.135 1.431 -0.927 1.431c -0.459 0 -1.017 -0.171 -1.485 -0.666c -0.027 -0.027 -0.081 -0.072 -0.099 0.009c -0.081 0.369 -0.432 0.657 -0.9 0.657c -0.522 0 -0.99 -0.306 -1.368 -0.729c -0.045 -0.045 -0.099 -0.108 -0.108 0Z "/></symbol><symbol id="g15283247E004048E8F39F157505A0F31" overflow="visible"><path d="M 0 0m 3.474 0.837c -0.333 -0.342 -0.594 -0.486 -1.116 -0.486c -0.324 0 -0.702 0.189 -0.981 0.648c -0.18 0.297 -0.288 0.711 -0.288 1.233l 2.394 -0.018c 0.108 0 0.171 0.054 0.171 0.153c 0 0.756 -0.27 1.566 -1.521 1.566c -0.783 0 -1.8 -0.747 -1.8 -2.115c 0 -0.504 0.126 -0.99 0.423 -1.332c 0.306 -0.36 0.729 -0.576 1.377 -0.576c 0.684 0 1.17 0.315 1.53 0.783c -0.027 0.09 -0.081 0.135 -0.189 0.144Z m -2.358 1.701c 0.171 1.017 0.801 1.098 1.017 1.098c 0.342 0 0.747 -0.189 0.747 -0.945c 0 -0.081 -0.036 -0.126 -0.135 -0.126Z "/></symbol><symbol id="gAC173AC16C94F352139132A9DCC12557" overflow="visible"><path d="M 0 0m 3.16 5.048c -0.464 0.064 -0.448 0.216 -1.232 0.216c -0.808 0 -1.52 -0.536 -1.52 -1.384c 0 -0.84 0.696 -1.224 1.4 -1.496c 0.48 -0.184 1.072 -0.408 1.072 -1.192c 0 -0.648 -0.36 -0.984 -1 -0.984c -0.744 0 -1.224 0.344 -1.4 1.136c -0.104 0.032 -0.184 0.016 -0.264 -0.024c 0.032 -0.616 0.064 -0.824 0.16 -1.216c 0.504 0 0.728 -0.184 1.44 -0.184c 0.36 0 0.704 0.088 0.984 0.264c 0.464 0.288 0.752 0.776 0.752 1.288c 0 0.848 -0.64 1.224 -1.296 1.472c -0.48 0.176 -1.28 0.48 -1.28 1.152c 0 0.448 0.408 0.896 0.88 0.896c 0.776 0 1.024 -0.496 1.184 -1.024c 0.088 -0.016 0.192 -0.008 0.264 0.048c -0.032 0.384 -0.064 0.608 -0.144 1.032Z "/></symbol><symbol id="g20EDBE1E989F56AA9FBFD4A2EF5BDC35" overflow="visible"><path d="M 0 0m 3.088 0.744c -0.296 -0.304 -0.528 -0.432 -0.992 -0.432c -0.288 0 -0.624 0.168 -0.872 0.576c -0.16 0.264 -0.256 0.632 -0.256 1.096l 2.128 -0.016c 0.096 0 0.152 0.048 0.152 0.136c 0 0.672 -0.24 1.392 -1.352 1.392c -0.696 0 -1.6 -0.664 -1.6 -1.88c 0 -0.448 0.112 -0.88 0.376 -1.184c 0.272 -0.32 0.648 -0.512 1.224 -0.512c 0.608 0 1.04 0.28 1.36 0.696c -0.024 0.08 -0.072 0.12 -0.168 0.128Z m -2.096 1.512c 0.152 0.904 0.712 0.976 0.904 0.976c 0.304 0 0.664 -0.168 0.664 -0.84c 0 -0.072 -0.032 -0.112 -0.12 -0.112Z "/></symbol><symbol id="gF14903D79C881A9B6AC2EE7D8BED6F03" overflow="visible"><path d="M 0 0m 1.408 2.864c -0.016 0.32 -0.024 0.528 -0.064 0.608c -0.016 0.04 -0.032 0.064 -0.096 0.064c -0.224 -0.088 -0.432 -0.16 -0.984 -0.232c -0.016 -0.048 0 -0.176 0.016 -0.224c 0.432 -0.04 0.52 -0.08 0.52 -0.544v -1.56c 0 -0.664 -0.096 -0.696 -0.592 -0.728c -0.048 -0.048 -0.048 -0.216 0 -0.264c 0.28 0.008 0.592 0.016 0.912 0.016c 0.32 0 0.688 -0.008 0.968 -0.016c 0.048 0.048 0.048 0.216 0 0.264c -0.56 0.04 -0.656 0.064 -0.656 0.728v 1.112c 0 0.208 0.096 0.392 0.192 0.536c 0.088 0.128 0.272 0.392 0.368 0.392c 0.072 0 0.144 -0.016 0.208 -0.104c 0.056 -0.08 0.152 -0.184 0.288 -0.184c 0.192 0 0.376 0.2 0.376 0.4c 0 0.152 -0.144 0.384 -0.48 0.384c -0.376 0 -0.704 -0.352 -0.888 -0.664c -0.048 -0.088 -0.088 -0.024 -0.088 0.016Z "/></symbol><symbol id="g2BFBF805A6B9D0BF9A5DDB8FE340411" overflow="visible"><path d="M 0 0m 1.448 0.976v 1.592c 0 0.4 0.032 0.912 0.032 0.912c 0 0.032 -0.04 0.056 -0.104 0.056c -0.224 -0.088 -0.544 -0.16 -1.096 -0.232c -0.016 -0.048 0 -0.176 0.016 -0.224c 0.44 -0.04 0.52 -0.088 0.52 -0.544v -1.56c 0 -0.664 -0.088 -0.688 -0.576 -0.728c -0.048 -0.048 -0.048 -0.216 0 -0.264c 0.264 0.008 0.576 0.016 0.896 0.016c 0.32 0 0.624 -0.008 0.888 -0.016c 0.048 0.048 0.048 0.216 0 0.264c -0.488 0.032 -0.576 0.064 -0.576 0.728Z m -0.728 3.816c 0 -0.208 0.192 -0.416 0.384 -0.416c 0.224 0 0.416 0.216 0.416 0.384c 0 0.192 -0.168 0.416 -0.384 0.416c -0.192 0 -0.416 -0.192 -0.416 -0.384Z "/></symbol><symbol id="g86ABD9B98157573BF6882A43FA434742" overflow="visible"><path d="M 0 0m 0.384 1.104c 0.032 -0.392 0.056 -0.768 0.056 -1.104c 0.08 0.016 0.16 0.024 0.2 0.024c 0.056 0 0.104 0 0.16 -0.016c 0.216 -0.056 0.432 -0.088 0.728 -0.088c 0.448 0 1.272 0.216 1.272 1.008c 0 0.544 -0.392 0.864 -0.936 1.064c -0.48 0.184 -0.8 0.304 -0.8 0.744c 0 0.328 0.288 0.512 0.56 0.512c 0.176 0 0.64 -0.064 0.744 -0.744c 0.048 -0.048 0.208 -0.04 0.256 0.008c 0.024 0.288 0.04 0.584 0.048 0.848c -0.248 0.04 -0.632 0.152 -1.048 0.152c -0.592 0 -1.128 -0.384 -1.128 -0.896c 0 -0.584 0.264 -0.832 0.88 -1.088c 0.664 -0.272 0.816 -0.44 0.816 -0.784c 0 -0.392 -0.384 -0.56 -0.68 -0.56c -0.312 0 -0.488 0.104 -0.568 0.192c -0.176 0.184 -0.264 0.536 -0.312 0.736c -0.048 0.048 -0.2 0.04 -0.248 -0.008Z "/></symbol><symbol id="g8D1B85E3ABA097AFFEFA8B147B26839C" overflow="visible"><path d="M 0 0m 1.24 0.632l 0.44 1.16c 0.04 0.104 0.088 0.136 0.28 0.136h 1.688l 0.464 -1.352c 0.096 -0.272 -0.208 -0.304 -0.592 -0.328c -0.048 -0.048 -0.048 -0.216 0 -0.264c 0.296 0.008 0.736 0.016 1.048 0.016c 0.328 0 0.632 -0.008 0.912 -0.016c 0.048 0.048 0.048 0.216 0 0.264c -0.312 0.032 -0.584 0.056 -0.72 0.44l -1.648 4.576c -0.12 -0.072 -0.336 -0.16 -0.44 -0.16l -1.816 -4.288c -0.208 -0.496 -0.448 -0.544 -0.8 -0.568c -0.048 -0.048 -0.048 -0.216 0 -0.264c 0.208 0.008 0.472 0.016 0.712 0.016c 0.328 0 0.728 -0.008 1.024 -0.016c 0.048 0.048 0.048 0.216 0 0.264c -0.304 0.024 -0.68 0.056 -0.552 0.384Z m 0.864 1.632c -0.176 0 -0.232 0.024 -0.2 0.104l 0.816 2.072h 0.048l 0.752 -2.176Z "/></symbol><symbol id="gB2C2A6E3883310E6A7667C09A3228786" overflow="visible"><path d="M 0 0m 1.184 5.16c -0.288 0 -0.72 0.008 -1.032 0.016c -0.048 -0.048 -0.048 -0.216 0 -0.264c 0.56 -0.024 0.696 -0.064 0.696 -0.728v -3.208c 0 -0.664 -0.136 -0.704 -0.696 -0.728c -0.048 -0.048 -0.048 -0.216 0 -0.264c 0.312 0.008 0.744 0.016 1.04 0.016c 0.288 0 0.496 -0.016 1.168 -0.016c 1.592 0 2.016 0.8 2.016 1.488c 0 0.768 -0.536 1.208 -1.232 1.408v 0.016c 0.4 0.2 0.76 0.616 0.76 1.048c 0 0.536 -0.232 1.232 -1.72 1.232c -0.28 0 -0.712 -0.016 -1 -0.016Z m 0.344 -2.504h 0.552c 1.096 0 1.552 -0.616 1.552 -1.336c 0 -0.584 -0.224 -1.072 -1.44 -1.072c -0.56 0 -0.664 0.208 -0.664 0.696Z m 0 1.744c 0 0.424 0 0.504 0.696 0.504c 0.448 0 1.032 -0.24 1.032 -1.056c 0 -0.68 -0.472 -0.92 -1.136 -0.92h -0.592Z "/></symbol><symbol id="g8C602F113ED136B9EC97C2B861CC969C" overflow="visible"><path d="M 0 0m 2.856 -0.08c 0.776 0 1.488 0.368 2.032 1.08c -0.04 0.072 -0.096 0.12 -0.184 0.12c -0.568 -0.624 -1.112 -0.872 -1.856 -0.872c -1.08 0 -1.824 1.216 -1.824 2.384c 0 0.688 0.184 1.264 0.472 1.624c 0.4 0.488 0.864 0.712 1.28 0.712c 1.104 0 1.544 -0.656 1.752 -1.344c 0.096 -0.032 0.176 -0.008 0.264 0.04c -0.04 0.416 -0.096 0.8 -0.176 1.24c -0.408 0.04 -0.768 0.36 -1.752 0.36c -0.68 0 -1.248 -0.248 -1.72 -0.68c -0.528 -0.488 -0.848 -1.272 -0.848 -2.104c 0 -1.392 0.84 -2.56 2.56 -2.56Z "/></symbol><symbol id="gFE6E2B5509146F875FD8B916E3486C01" overflow="visible"><path d="M 0 0m 1.184 5.16c -0.288 0 -0.712 0.008 -1.032 0.016c -0.048 -0.048 -0.048 -0.216 0 -0.264c 0.56 -0.024 0.696 -0.064 0.696 -0.728v -3.208c 0 -0.664 -0.136 -0.704 -0.696 -0.728c -0.048 -0.048 -0.048 -0.216 0 -0.264c 0.312 0.008 0.736 0.016 1.04 0.016c 0.296 0 0.632 -0.016 1.456 -0.016c 1.128 0 2.616 0.512 2.616 2.48c 0 1.488 -1.224 2.712 -2.76 2.712c -0.568 0 -1.008 -0.016 -1.32 -0.016Z m 0.344 -4.488v 3.84c 0 0.28 0.28 0.392 0.672 0.392c 1.728 0 2.296 -1.4 2.296 -2.632c 0 -1.616 -0.968 -2.016 -2.096 -2.016c -0.784 0 -0.872 0.16 -0.872 0.416Z "/></symbol></defs><defs><clipPath id="c2799D2F05C938AD5E6D4D2E0E13D65CF"><path d="M 0 0h 286.68888189v 149.963559055h -286.68888189Z "/></clipPath></defs><defs><pattern id="t1504AFB091525ACE7C1F1A88793241FD" width="7" height="7" x="0" y="0" patternUnits="userSpaceOnUse" viewBox="0 0 7 7"><path fill="#8cc0dc" fill-rule="nonzero" d="M 0 0v 7h 7v -7Z "/><path fill="none" stroke="#0072b2" stroke-width="1" stroke-linecap="butt" stroke-linejoin="miter" stroke-miterlimit="4" transform="translate(0 7)" d="M 0 0l 7 -7"/></pattern><pattern id="tDF5AC96A25756EF09DC04605E31C197A" width="7" height="7" x="0" y="0" patternUnits="userSpaceOnUse" viewBox="0 0 7 7"><path fill="#ecb78c" fill-rule="nonzero" d="M 0 0v 7h 7v -7Z "/><path fill="#d55e00" fill-rule="nonzero" transform="translate(2 2)" d="M 0 0m 0 1.4c 0 -0.7724976 0.6275024 -1.4 1.4 -1.4c 0.7724976 0 1.4 0.6275024 1.4 1.4c 0 0.7724976 -0.6275024 1.4 -1.4 1.4c -0.7724976 0 -1.4 -0.6275024 -1.4 -1.4"/></pattern><pattern id="t8E83163F83C65546A2A3FB395DE21293" width="7" height="7" x="0" y="0" patternUnits="userSpaceOnUse" viewBox="0 0 7 7"><path fill="#8cd3c0" fill-rule="nonzero" d="M 0 0v 7h 7v -7Z "/><path fill="none" stroke="#009e73" stroke-width="0.8" stroke-linecap="butt" stroke-linejoin="miter" stroke-miterlimit="4" transform="translate(0 7)" d="M 0 0l 7 -7"/><path fill="none" stroke="#009e73" stroke-width="0.8" stroke-linecap="butt" stroke-linejoin="miter" stroke-miterlimit="4" d="M 0 0l 7 7"/></pattern><pattern id="tD3F5ABD3395DF4E1E968F9C9810BCA99" width="7" height="7" x="0" y="0" patternUnits="userSpaceOnUse" viewBox="0 0 7 7"><path fill="#f4d48c" fill-rule="nonzero" d="M 0 0v 7h 7v -7Z "/><path fill="none" stroke="#e69f00" stroke-width="1" stroke-linecap="butt" stroke-linejoin="miter" stroke-miterlimit="4" transform="translate(0 3.5)" d="M 0 0h 7"/></pattern></defs></svg>