<svg viewBox="0 0 351.157480315 237.771653543" width="351.157480315pt" height="237.771653543pt" xmlns="http://www.w3.org/2000/svg" xmlns:xlink="http://www.w3.org/1999/xlink" xmlns:h5="http://www.w3.org/1999/xhtml"><path fill="#fafafa" fill-rule="nonzero" d="M 0 0v 237.771653543h 351.157480315v -237.771653543Z "/><g transform="translate(5.5 5.5)"><path fill="#fafafa" fill-rule="nonzero" d="M 0 0v 226.771653543h 340.157480315v -226.771653543Z "/><g transform="translate(5 5)"><g><g transform="matrix(1 0 0 -1 0 7.74)"><use xlink:href="#gA421F3DD5F2809E5ED8290B7EF6AAC43" x="0" y="0" fill="#111827" fill-rule="nonzero"/><use xlink:href="#g3E13159425B4C5FA6BE9D46173183F7B" x="6.048" y="0" fill="#111827" fill-rule="nonzero"/><use xlink:href="#gDC05A2A7E4AEFCF99C6614634AF8B2F0" x="10.344" y="0" fill="#111827" fill-rule="nonzero"/><use xlink:href="#gEF03CC905B39DF2CE13E9EED9CECE9CC" x="16.416" y="0" fill="#111827" fill-rule="nonzero"/><use xlink:href="#g91F4DC37C1AF53455CC7E1C6C0211EBC" x="21.888" y="0" fill="#111827" fill-rule="nonzero"/><use xlink:href="#gE18113BE1243CA6EC5596891CC422939" x="29.244" y="0" fill="#111827" fill-rule="nonzero"/><use xlink:href="#g6318351890DB0E292B53BA9E457E848C" x="35.196" y="0" fill="#111827" fill-rule="nonzero"/><use xlink:href="#g1BFCBE3615795918F079FB691FA6A4A7" x="44.928" y="0" fill="#111827" fill-rule="nonzero"/><use xlink:href="#gD4B05AE9CAE173022764EC3E80C7DD69" x="51.432" y="0" fill="#111827" fill-rule="nonzero"/><use xlink:href="#g3759E51EE41A8E4391E48F80499682E6" x="61.128" y="0" fill="#111827" fill-rule="nonzero"/><use xlink:href="#gE18113BE1243CA6EC5596891CC422939" x="69.936" y="0" fill="#111827" fill-rule="nonzero"/><use xlink:href="#gF69564A90E2BC6210A1CF4CC4EE9A895" x="75.804" y="0" fill="#111827" fill-rule="nonzero"/><use xlink:href="#gDC05A2A7E4AEFCF99C6614634AF8B2F0" x="80.496" y="0" fill="#111827" fill-rule="nonzero"/><use xlink:href="#gC76A03CC6B2F66C4058A56BA6A9EE20" x="86.568" y="0" fill="#111827" fill-rule="nonzero"/><use xlink:href="#g966BE685B7523A33FA7C5091B1A7882" x="93.744" y="0" fill="#111827" fill-rule="nonzero"/><use xlink:href="#g3E13159425B4C5FA6BE9D46173183F7B" x="97.644" y="0" fill="#111827" fill-rule="nonzero"/></g></g><g transform="translate(0 14.94)"><path fill="none" stroke="#b4b6bb" stroke-width="0.4" stroke-linecap="butt" stroke-linejoin="miter" stroke-miterlimit="4" transform="translate(36.781594035)" d="M 0 0m 0 178.310015748v -178.310015748"/><path fill="none" transform="translate(34.921594035 181.144661417)" d="M 0 0h 3.72v 5.344h -3.72v -5.344Z "/><g transform="translate(34.92159394 181.144661339)"><g transform="matrix(1 0 0 -1 0 5.264)"><use xlink:href="#g97663EC9AEA74EADA07472643E1BE1B4" x="0" y="0" fill="#111827" fill-rule="nonzero"/></g></g><path fill="none" stroke="#b4b6bb" stroke-width="0.4" stroke-linecap="butt" stroke-linejoin="miter" stroke-miterlimit="4" transform="translate(97.942450561)" d="M 0 0m 0 178.310015748v -178.310015748"/><path fill="none" transform="translate(96.082450561 181.144661417)" d="M 0 0h 3.72v 5.28h -3.72v -5.28Z "/><g transform="translate(96.082450466 181.14466137)"><g transform="matrix(1 0 0 -1 0 5.264)"><use xlink:href="#g8C50DFC0B8272CD73341C65811BD0E92" x="0" y="0" fill="#111827" fill-rule="nonzero"/></g></g><path fill="none" stroke="#b4b6bb" stroke-width="0.4" stroke-linecap="butt" stroke-linejoin="miter" stroke-miterlimit="4" transform="translate(159.103307087)" d="M 0 0m 0 178.310015748v -178.310015748"/><path fill="none" transform="translate(157.243307087 181.144661417)" d="M 0 0h 3.72v 5.28h -3.72v -5.28Z "/><g transform="translate(157.243306992 181.14466137)"><g transform="matrix(1 0 0 -1 0 5.264)"><use xlink:href="#gAD9C87F854BDA42EDABFFB35EC1FA84E" x="0" y="0" fill="#111827" fill-rule="nonzero"/></g></g><path fill="none" stroke="#b4b6bb" stroke-width="0.4" stroke-linecap="butt" stroke-linejoin="miter" stroke-miterlimit="4" transform="translate(220.264163613)" d="M 0 0m 0 178.310015748v -178.310015748"/><path fill="none" transform="translate(218.404163613 181.144661417)" d="M 0 0h 3.72v 5.344h -3.72v -5.344Z "/><g transform="translate(218.404163518 181.144661339)"><g transform="matrix(1 0 0 -1 0 5.264)"><use xlink:href="#g4DADFF8D06AE4DC17FB93571E5AFF437" x="0" y="0" fill="#111827" fill-rule="nonzero"/></g></g><path fill="none" stroke="#b4b6bb" stroke-width="0.4" stroke-linecap="butt" stroke-linejoin="miter" stroke-miterlimit="4" transform="translate(281.425020139)" d="M 0 0m 0 178.310015748v -178.310015748"/><path fill="none" transform="translate(279.565020139 181.144661417)" d="M 0 0h 3.72v 5.28h -3.72v -5.28Z "/><g transform="translate(279.565020044 181.14466137)"><g transform="matrix(1 0 0 -1 0 5.264)"><use xlink:href="#gF821431C61A4D7F3ECEFEC074E9C0EFC" x="0" y="0" fill="#111827" fill-rule="nonzero"/></g></g><path fill="none" stroke="#b4b6bb" stroke-width="0.4" stroke-linecap="butt" stroke-linejoin="miter" stroke-miterlimit="4" transform="translate(24.280314961 170.205015032)" d="M 0 0h 269.645984252"/><path fill="none" transform="translate(17.725669291 167.533015032)" d="M 0 0h 3.72v 5.344h -3.72v -5.344Z "/><g transform="translate(17.725669197 167.533014953)"><g transform="matrix(1 0 0 -1 0 5.264)"><use xlink:href="#g97663EC9AEA74EADA07472643E1BE1B4" x="0" y="0" fill="#111827" fill-rule="nonzero"/></g></g><path fill="none" stroke="#b4b6bb" stroke-width="0.4" stroke-linecap="butt" stroke-linejoin="miter" stroke-miterlimit="4" transform="translate(24.280314961 127.547116528)" d="M 0 0h 269.645984252"/><path fill="none" transform="translate(17.725669291 124.871116528)" d="M 0 0h 3.72v 5.352h -3.72v -5.352Z "/><g transform="translate(17.725669197 124.871116481)"><g transform="matrix(1 0 0 -1 0 5.264)"><use xlink:href="#gD00C9D162D1CBC09F2F7551D594DBB72" x="0" y="0" fill="#111827" fill-rule="nonzero"/></g></g><path fill="none" stroke="#b4b6bb" stroke-width="0.4" stroke-linecap="butt" stroke-linejoin="miter" stroke-miterlimit="4" transform="translate(24.280314961 84.889218024)" d="M 0 0h 269.645984252"/><path fill="none" transform="translate(14.005669291 82.217218024)" d="M 0 0h 7.44v 5.344h -7.44v -5.344Z "/><g transform="translate(14.005669244 82.217217945)"><g transform="matrix(1 0 0 -1 0 5.264)"><use xlink:href="#g8C50DFC0B8272CD73341C65811BD0E92" x="0" y="0" fill="#111827" fill-rule="nonzero"/><use xlink:href="#g97663EC9AEA74EADA07472643E1BE1B4" x="3.72" y="0" fill="#111827" fill-rule="nonzero"/></g></g><path fill="none" stroke="#b4b6bb" stroke-width="0.4" stroke-linecap="butt" stroke-linejoin="miter" stroke-miterlimit="4" transform="translate(24.280314961 42.231319519)" d="M 0 0h 269.645984252"/><path fill="none" transform="translate(14.005669291 39.555319519)" d="M 0 0h 7.44v 5.352h -7.44v -5.352Z "/><g transform="translate(14.005669244 39.555319472)"><g transform="matrix(1 0 0 -1 0 5.264)"><use xlink:href="#g8C50DFC0B8272CD73341C65811BD0E92" x="0" y="0" fill="#111827" fill-rule="nonzero"/><use xlink:href="#gD00C9D162D1CBC09F2F7551D594DBB72" x="3.72" y="0" fill="#111827" fill-rule="nonzero"/></g></g><path fill="none" transform="translate(24.280314961 0)" d="M 0 0h 269.645984252v 178.310015748h -269.645984252v -178.310015748Z "/><g transform="translate(24.280314835 -1.26e-7)"><g clip-path="url(#cB165ED2AF54053291CF24A6904E6751F)"><g><path fill="#e69f0066" fill-rule="nonzero" transform="translate(12.256635648 8.105000716)" d="M 0 0m 0 162.100014316l 0.244643426 -85.315797009l 0.244643426 -0.170631594l 60.671569674 -42.316635316l 0.244643426 -0.170631594l 0.244643426 0.034126319l 60.671569674 8.463327063l 0.244643426 0.034126319l 0.244643426 0.034126319l 60.671569674 8.463327063l 0.244643426 0.034126319l 0.244643426 -0.204757913l 60.671569674 -50.77996238l 0.244643426 -0.204757913l 0.244643426 162.100014316l -0.244643426 -85.315797009l -0.244643426 0.102378956l -60.671569674 25.38998119l -0.244643426 0.102378956h -0.244643426h -60.671569674h -0.244643426h -0.244643426h -60.671569674h -0.244643426l -0.244643426 0.068252638l -60.671569674 16.926654127l -0.244643426 0.068252638l -0.244643426 42.657898504Z "/><path fill="#56b4e966" fill-rule="nonzero" transform="translate(12.256635648 84.889218024)" d="M 0 0m 0 85.315797009l 0.244643426 -42.657898504l 0.244643426 -0.068252638l 60.671569674 -16.926654127l 0.244643426 -0.068252638h 0.244643426h 60.671569674h 0.244643426h 0.244643426h 60.671569674h 0.244643426l 0.244643426 -0.102378956l 60.671569674 -25.38998119l 0.244643426 -0.102378956l 0.244643426 85.315797009l -0.244643426 -34.126318803l -0.244643426 0.034126319l -60.671569674 8.463327063l -0.244643426 0.034126319l -0.244643426 0.034126319l -60.671569674 8.463327063l -0.244643426 0.034126319l -0.244643426 -0.034126319l -60.671569674 -8.463327063l -0.244643426 -0.034126319l -0.244643426 0.034126319l -60.671569674 8.463327063l -0.244643426 0.034126319l -0.244643426 17.063159402Z "/><path fill="#009e7366" fill-rule="nonzero" transform="translate(12.256635648 136.078696229)" d="M 0 0m 0 34.126318803l 0.244643426 -17.063159402l 0.244643426 -0.034126319l 60.671569674 -8.463327063l 0.244643426 -0.034126319l 0.244643426 0.034126319l 60.671569674 8.463327063l 0.244643426 0.034126319l 0.244643426 -0.034126319l 60.671569674 -8.463327063l 0.244643426 -0.034126319l 0.244643426 -0.034126319l 60.671569674 -8.463327063l 0.244643426 -0.034126319l 0.244643426 34.126318803h -0.244643426h -0.244643426h -60.671569674h -0.244643426h -0.244643426h -60.671569674h -0.244643426h -0.244643426h -60.671569674h -0.244643426h -0.244643426h -60.671569674h -0.244643426h -0.244643426Z "/></g></g></g><path fill="none" transform="translate(156.898307087 194.474330709)" d="M 0 0h 4.41v 5.94h -4.41v -5.94Z "/><g transform="translate(156.898307087 194.474330709)"><g transform="matrix(1 0 0 -1 0 5.922)"><use xlink:href="#g5753A6CBD42AFBCBE5DCDB8271F3FBDD" x="0" y="0" fill="#111827" fill-rule="nonzero"/></g></g><path fill="none" transform="translate(0.497834646 86.837507874)" d="M 0 0m 0 4.635v -4.635h 8.01v 4.635h -8.01Z "/><g transform="matrix(0 -1 1 0 0.497834504 91.472507874)"><g transform="matrix(1 0 0 -1 0 5.922)"><use xlink:href="#gB7ADC05C7CC292D7AE42D71EE1DDDCEC" x="0" y="0" fill="#111827" fill-rule="nonzero"/></g></g><path fill="none" transform="translate(306.726299213 67.345874016)" d="M 0 0h 20.824v 7.136h -20.824v -7.136Z "/><g transform="translate(306.726299134 67.345873906)"><g transform="matrix(1 0 0 -1 0 5.264)"><use xlink:href="#gB6B829643FAC67A26EA335D5C5653A06" x="0" y="0" fill="#111827" fill-rule="nonzero"/><use xlink:href="#gF14903D79C881A9B6AC2EE7D8BED6F03" x="5.48" y="0" fill="#111827" fill-rule="nonzero"/><use xlink:href="#g2B678EF10194558DA6DED0CDF87DA3E4" x="8.392" y="0" fill="#111827" fill-rule="nonzero"/><use xlink:href="#g7CA707F1BCB16774F6BEEBBEACACFCA3" x="12.424" y="0" fill="#111827" fill-rule="nonzero"/><use xlink:href="#gE3B745958568E02614BCAB4547DCA2F1" x="16.672" y="0" fill="#111827" fill-rule="nonzero"/></g></g><path fill="#e69f00" fill-rule="nonzero" transform="translate(306.726299213 80.145874016)" d="M 0 0v 6.803149606h 6.803149606v -6.803149606h -6.803149606Z "/><path fill="none" transform="translate(317.781417323 80.907448819)" d="M 0 0h 5.56v 5.28h -5.56v -5.28Z "/><g transform="translate(317.781417244 80.907448772)"><g transform="matrix(1 0 0 -1 0 5.264)"><use xlink:href="#g8D1B85E3ABA097AFFEFA8B147B26839C" x="0" y="0" fill="#111827" fill-rule="nonzero"/></g></g><path fill="#56b4e9" fill-rule="nonzero" transform="translate(306.726299213 91.352929134)" d="M 0 0v 6.803149606h 6.803149606v -6.803149606h -6.803149606Z "/><path fill="none" transform="translate(317.781417323 92.114503937)" d="M 0 0h 4.704v 5.28h -4.704v -5.28Z "/><g transform="translate(317.781417276 92.11450389)"><g transform="matrix(1 0 0 -1 0 5.264)"><use xlink:href="#gB2C2A6E3883310E6A7667C09A3228786" x="0" y="0" fill="#111827" fill-rule="nonzero"/></g></g><path fill="#009e73" fill-rule="nonzero" transform="translate(306.726299213 102.559984252)" d="M 0 0v 6.803149606h 6.803149606v -6.803149606h -6.803149606Z "/><path fill="none" transform="translate(317.781417323 103.289559055)" d="M 0 0h 5.168v 5.344h -5.168v -5.344Z "/><g transform="translate(317.78141726 103.289558976)"><g transform="matrix(1 0 0 -1 0 5.264)"><use xlink:href="#g8C602F113ED136B9EC97C2B861CC969C" x="0" y="0" fill="#111827" fill-rule="nonzero"/></g></g></g></g></g><defs><symbol id="gA421F3DD5F2809E5ED8290B7EF6AAC43" overflow="visible"><path d="M 0 0m 5.052 7.572c -0.66 0.096 -0.912 0.324 -2.028 0.324c -0.54 0 -1.248 -0.168 -1.752 -0.576c -0.444 -0.36 -0.78 -0.912 -0.78 -1.5c 0 -0.456 0.12 -1.032 0.396 -1.392c 0.552 -0.744 1.548 -1.152 2.064 -1.512c 0.552 -0.384 1.092 -0.864 1.092 -1.536c 0 -0.588 -0.516 -0.996 -1.248 -0.996c -0.804 0 -1.632 0.66 -1.872 1.752c -0.192 0.072 -0.384 0.024 -0.564 -0.024c -0.012 0 -0.024 -0.012 -0.036 -0.012c 0 -0.9 0.096 -1.536 0.228 -1.98c 0.684 0 0.72 -0.24 2.376 -0.24c 0.732 0 1.32 0.216 1.812 0.66c 0.432 0.372 0.816 0.924 0.816 1.668c 0 0.624 -0.264 1.044 -0.624 1.44c -0.468 0.516 -1.14 0.888 -1.608 1.128c -0.48 0.24 -1.332 0.864 -1.332 1.548c 0 0.672 0.408 1.08 1.02 1.08c 1.02 0 1.356 -0.924 1.572 -1.716c 0.168 -0.048 0.468 -0.048 0.6 0.06c 0 0.636 -0.048 1.128 -0.132 1.824Z "/></symbol><symbol id="g3E13159425B4C5FA6BE9D46173183F7B" overflow="visible"><path d="M 0 0m 0.756 5.208c -0.168 0 -0.348 -0.048 -0.504 -0.18v -0.348c 0 -0.06 0.012 -0.072 0.06 -0.072h 0.78c -0.024 -1.212 -0.036 -2.748 -0.036 -3.348c 0 -0.42 0.108 -0.828 0.36 -1.044c 0.276 -0.228 0.708 -0.336 0.996 -0.336c 0.66 0 1.392 0.336 1.632 0.672c 0 0.144 -0.072 0.216 -0.216 0.336c -0.156 -0.12 -0.456 -0.168 -0.684 -0.168c -0.264 0 -0.528 0.204 -0.528 0.804c 0 0.6 -0.012 1.884 -0.012 3.084h 1.212c 0.12 0 0.288 0.048 0.288 0.156v 0.372c 0 0.048 -0.036 0.072 -0.096 0.072h -1.404l 0.012 0.408c 0.024 0.804 0.06 1.356 0.06 1.356c 0 0.072 -0.036 0.108 -0.096 0.108c -0.084 0 -0.528 -0.132 -0.72 -0.216c -0.204 -0.084 -0.552 -0.156 -0.636 -0.264c -0.084 -0.108 -0.132 -0.432 -0.132 -1.392Z "/></symbol><symbol id="gDC05A2A7E4AEFCF99C6614634AF8B2F0" overflow="visible"><path d="M 0 0m 3.54 0.588c 0.084 -0.492 0.408 -0.708 0.936 -0.708c 0.66 0 1.128 0.252 1.572 0.672c -0.024 0.144 -0.072 0.24 -0.216 0.336c -0.156 -0.12 -0.276 -0.168 -0.504 -0.168c -0.264 0 -0.336 0.216 -0.336 0.804l 0.024 1.728c 0 1.728 -1.068 2.076 -2.052 2.076c -0.876 0 -2.22 -0.504 -2.22 -1.296c 0 -0.336 0.144 -0.6 0.612 -0.6c 0.432 0 0.744 0.264 0.744 0.552c 0 0.06 -0.012 0.132 -0.024 0.204c -0.024 0.12 -0.048 0.24 -0.024 0.36c 0.012 0.132 0.108 0.276 0.504 0.276c 0.504 0 0.924 -0.216 0.924 -1.74l -0.804 -0.252c -1.26 -0.396 -2.148 -0.744 -2.148 -1.692c 0 -0.828 0.456 -1.26 1.5 -1.26c 0.348 0 1.044 0.384 1.44 0.696Z m -0.06 2.028v -1.584c -0.3 -0.24 -0.6 -0.432 -0.816 -0.432c -0.516 0 -0.696 0.348 -0.696 0.72c 0 0.444 0.036 0.816 0.888 1.092Z "/></symbol><symbol id="gEF03CC905B39DF2CE13E9EED9CECE9CC" overflow="visible"><path d="M 0 0m 5.064 1.044c 0 0.144 -0.024 0.372 -0.156 0.372c -0.48 -0.444 -0.888 -0.672 -1.236 -0.672c -0.9 0 -1.608 0.648 -1.608 2.088c 0 1.332 0.3 1.992 0.936 1.992c 0.444 0 0.624 -0.468 0.66 -0.852c 0.036 -0.324 0.36 -0.564 0.744 -0.564c 0.384 0 0.66 0.3 0.66 0.672c 0 0.54 -0.648 1.248 -1.956 1.248c -1.416 0 -2.664 -1.14 -2.664 -2.916c 0 -0.78 0.276 -1.464 0.744 -1.908c 0.468 -0.444 1.02 -0.624 1.872 -0.624c 0.72 0 1.548 0.504 2.004 1.164Z "/></symbol><symbol id="g91F4DC37C1AF53455CC7E1C6C0211EBC" overflow="visible"><path d="M 0 0m 1.2 1.524c 0 -0.996 -0.192 -1.104 -0.924 -1.14c -0.072 -0.072 -0.072 -0.336 0 -0.408c 0.504 0.012 1.044 0.024 1.704 0.024c 0.528 0 1.056 -0.012 1.344 -0.024c 0.072 0.072 0.072 0.336 0 0.408c -0.36 0.048 -0.564 0.144 -0.564 1.14v 0.984c 0.336 0 0.708 -0.036 0.828 -0.228c 0.276 -0.408 0.612 -0.9 0.816 -1.344c 0.156 -0.336 0.192 -0.444 0.192 -0.624v -0.312l 0.024 -0.024c 0 0 0.54 0.024 0.96 0.024c 0.492 0 1.164 -0.012 1.608 -0.024c 0.072 0.072 0.072 0.336 0 0.408c -0.468 0.048 -0.732 0.012 -1.092 0.552l -1.392 2.052c -0.06 0.084 -0.084 0.18 -0.036 0.24l 0.6 0.66c 0.384 0.42 0.708 0.84 1.62 0.936c 0.072 0.072 0.072 0.336 0 0.408c -0.264 -0.012 -1.02 -0.024 -1.332 -0.024c -0.444 0 -1.008 0.012 -1.452 0.024c -0.072 -0.072 -0.072 -0.336 0 -0.408c 0.648 -0.048 0.84 -0.156 0.492 -0.636c -0.264 -0.36 -0.528 -0.648 -0.768 -0.864c -0.156 -0.132 -0.708 -0.336 -1.068 -0.336v 4.008c 0 0.78 0.036 1.224 0.036 1.224c 0 0.108 -0.084 0.156 -0.192 0.156c -0.444 -0.144 -1.404 -0.276 -2.256 -0.312c -0.036 -0.144 -0.024 -0.276 0.036 -0.384c 0.756 -0.06 0.816 -0.072 0.816 -0.9Z "/></symbol><symbol id="gE18113BE1243CA6EC5596891CC422939" overflow="visible"><path d="M 0 0m 5.172 1.548c -0.492 -0.504 -1.14 -0.636 -1.596 -0.636c -0.936 0 -1.512 0.54 -1.512 1.716c 0 0.084 0.012 0.132 0.012 0.192h 2.88c 0.288 0 0.348 0.204 0.348 0.372c 0 1.02 -0.396 2.136 -2.16 2.136c -1.26 0 -2.7 -1.116 -2.7 -2.952c 0 -0.696 0.252 -1.428 0.768 -1.896c 0.456 -0.408 1.044 -0.6 1.896 -0.6c 0.828 0 1.644 0.42 2.244 1.296c 0 0.156 -0.06 0.372 -0.18 0.372Z m -3.048 1.752c 0.012 0.42 0.072 0.876 0.24 1.116c 0.192 0.288 0.516 0.408 0.648 0.408c 0.324 0 0.768 -0.312 0.768 -1.272c 0 -0.072 0 -0.228 -0.024 -0.252Z "/></symbol><symbol id="g6318351890DB0E292B53BA9E457E848C" overflow="visible"><path d="M 0 0m 4.26 0.576c 0.024 -0.288 0.048 -0.492 0.048 -0.492c 0.012 -0.144 0.108 -0.204 0.276 -0.204c 0.444 0.12 1.164 0.288 1.992 0.396c 0.024 0.072 0 0.312 -0.024 0.384c -0.648 0.06 -0.78 0.252 -0.78 0.936v 5.4c 0 0.78 0.036 1.224 0.036 1.224c 0 0.108 -0.084 0.156 -0.192 0.156c -0.444 -0.144 -1.404 -0.276 -2.256 -0.312c -0.036 -0.144 -0.024 -0.3 0.036 -0.408c 0.756 -0.06 0.816 -0.072 0.816 -0.9v -1.56c -0.228 0.072 -0.516 0.132 -0.864 0.132c -1.548 0 -2.904 -1.356 -2.904 -2.952c 0 -0.708 0.252 -1.536 0.84 -1.992c 0.432 -0.336 0.732 -0.504 1.404 -0.504c 0.324 0 1.212 0.528 1.464 0.696Z m -0.036 0.564c -0.252 -0.204 -0.888 -0.468 -1.032 -0.468c -0.6 0 -1.068 0.672 -1.068 2.076c 0 0.636 0.072 1.188 0.3 1.56c 0.204 0.324 0.528 0.516 0.888 0.516c 0.312 0 0.612 -0.036 0.9 -0.432v -2.952c 0 -0.096 0 -0.204 0.012 -0.3Z "/></symbol><symbol id="g1BFCBE3615795918F079FB691FA6A4A7" overflow="visible"><path d="M 0 0m 0.888 1.524c 0 -0.996 -0.024 -1.14 -0.072 -1.596c 0.144 -0.048 0.276 -0.084 0.408 -0.084c 0.156 0.132 0.276 0.3 0.384 0.516c 0.468 -0.36 1.2 -0.48 1.752 -0.48c 1.332 0 2.736 1.32 2.736 3.036c 0 0.684 -0.264 1.356 -0.648 1.8c -0.432 0.492 -1.008 0.612 -1.644 0.612c -0.372 0 -1.008 -0.42 -1.356 -0.672v 2.34c 0 0.78 0.036 1.224 0.036 1.224c 0 0.108 -0.084 0.156 -0.192 0.156c -0.444 -0.144 -1.404 -0.276 -2.256 -0.312c -0.036 -0.144 -0.024 -0.276 0.036 -0.384c 0.756 -0.06 0.816 -0.072 0.816 -0.9Z m 1.56 2.652c 0.396 0.264 0.66 0.3 0.936 0.3c 0.588 0 1.032 -0.54 1.032 -1.716c 0 -0.984 -0.168 -2.376 -1.116 -2.376c -0.348 0 -0.624 0.144 -0.852 0.42Z "/></symbol><symbol id="gD4B05AE9CAE173022764EC3E80C7DD69" overflow="visible"><path d="M 0 0m 2.904 -2.016c 0.192 0.336 0.372 0.768 0.516 1.128c 0.96 2.316 1.548 3.612 2.184 4.956c 0.168 0.348 0.528 0.72 0.972 0.756c 0.072 0.072 0.072 0.336 0 0.408c -0.3 -0.012 -0.516 -0.024 -0.852 -0.024c -0.42 0 -0.828 0.012 -1.272 0.024c -0.072 -0.072 -0.072 -0.336 0 -0.408c 0.384 -0.036 0.768 -0.096 0.576 -0.528l -1.236 -2.772c 0 -0.012 0 -0.012 -0.012 -0.024c 0 0.012 0 0.024 -0.012 0.048l -1.116 2.508c -0.012 0.012 -0.012 0.024 -0.012 0.036c -0.216 0.468 -0.3 0.672 0.408 0.732c 0.072 0.072 0.072 0.336 0 0.408c -0.444 -0.012 -1.164 -0.024 -1.596 -0.024c -0.408 0 -1.092 0.012 -1.332 0.024c -0.072 -0.072 -0.072 -0.336 0 -0.408c 0.528 -0.048 0.624 -0.132 0.948 -0.888l 1.548 -3.552c 0.036 -0.06 0.084 -0.108 0.12 -0.156c 0.156 -0.216 0.288 -0.396 0.216 -0.564l -0.288 -0.66c -0.156 -0.372 -0.3 -0.588 -0.636 -0.588c -0.216 0 -0.252 0.048 -0.42 0.048c -0.456 0 -0.72 -0.312 -0.72 -0.552c 0 -0.156 0.036 -0.348 0.144 -0.48c 0.108 -0.132 0.312 -0.216 0.468 -0.216c 0.156 0 0.516 0.048 0.684 0.12c 0.252 0.12 0.588 0.408 0.72 0.648Z "/></symbol><symbol id="g3759E51EE41A8E4391E48F80499682E6" overflow="visible"><path d="M 0 0m 2.22 0c 0.48 0 1.464 -0.024 1.944 -0.024c 1.056 0 2.244 0.264 3.096 1.008c 0.576 0.504 0.972 1.5 0.972 2.724c 0 2.22 -1.44 4.044 -4.392 4.044c -0.636 0 -1.14 -0.012 -1.62 -0.012c -0.48 0 -1.848 0.024 -1.848 0.024c -0.12 -0.072 -0.12 -0.336 0 -0.408c 0.66 -0.036 0.996 -0.084 0.996 -1.08v -4.812c 0 -0.996 -0.336 -1.044 -0.996 -1.08c -0.12 -0.072 -0.12 -0.336 0 -0.408c 0 0 1.368 0.024 1.848 0.024Z m 0.828 1.428v 4.92c 0 0.66 0.312 0.9 0.744 0.9c 2.364 0 2.628 -2.028 2.628 -3.84c 0 -2.184 -1.308 -2.928 -2.22 -2.928c -0.84 0 -1.152 0.144 -1.152 0.948Z "/></symbol><symbol id="gF69564A90E2BC6210A1CF4CC4EE9A895" overflow="visible"><path d="M 0 0m 2.76 1.536v 3.072h 1.032c 0.216 0 0.42 0.06 0.42 0.204v 0.276c 0 0.072 -0.012 0.12 -0.24 0.12h -1.212v 0.612c 0 1.788 0.492 2.052 0.756 2.052c 0.204 0 0.252 -0.18 0.336 -0.468c 0.108 -0.384 0.42 -0.684 0.852 -0.684c 0.396 0 0.684 0.252 0.684 0.768c 0 0.324 -0.372 0.888 -1.644 0.888c -0.564 0 -1.236 -0.204 -1.692 -0.696c -0.444 -0.48 -0.852 -1.08 -0.852 -2.232v -0.24h -0.024c -0.408 0 -0.9 -0.06 -0.9 -0.156v -0.324c 0 -0.084 0.048 -0.12 0.324 -0.12h 0.6v -3.096c 0 -0.984 -0.192 -1.092 -0.924 -1.128c -0.072 -0.072 -0.072 -0.336 0 -0.408c 0.504 0.012 1.044 0.024 1.704 0.024c 0.66 0 1.188 -0.012 1.704 -0.024c 0.072 0.072 0.072 0.336 0 0.408c -0.732 0.036 -0.924 0.144 -0.924 1.152Z "/></symbol><symbol id="gC76A03CC6B2F66C4058A56BA6A9EE20" overflow="visible"><path d="M 0 0m 6.12 1.596v 2.076c 0 1.008 0.024 0.864 0.024 1.152c 0 0.204 -0.048 0.336 -0.12 0.408c -0.216 -0.012 -0.456 -0.024 -0.684 -0.024c -0.336 0 -1.116 0.012 -1.584 0.024c -0.072 -0.072 -0.072 -0.336 0 -0.408c 0.612 -0.06 0.804 -0.144 0.804 -1.152v -2.22c 0 -0.12 0 -0.24 0.012 -0.36c -0.492 -0.3 -0.888 -0.324 -1.104 -0.324c -0.48 0 -0.84 0.06 -0.84 0.9v 2.004c 0 1.008 0.024 0.864 0.024 1.152c 0 0.204 -0.048 0.336 -0.12 0.408c -0.216 -0.012 -0.468 -0.024 -0.684 -0.024c -0.612 0 -1.068 0.012 -1.584 0.024c -0.072 -0.072 -0.072 -0.336 0 -0.408c 0.552 -0.024 0.804 -0.144 0.804 -1.152v -1.872c 0 -1.272 0.504 -1.92 1.536 -1.92c 0.432 0 1.308 0.348 2.004 0.732c 0.024 -0.3 0.048 -0.528 0.048 -0.528c 0.012 -0.144 0.108 -0.204 0.276 -0.204c 0.444 0.12 1.164 0.288 1.992 0.396c 0.024 0.072 0 0.312 -0.024 0.384c -0.648 0.06 -0.78 0.252 -0.78 0.936Z "/></symbol><symbol id="g966BE685B7523A33FA7C5091B1A7882" overflow="visible"><path d="M 0 0m 1.2 1.524c 0 -0.996 -0.192 -1.104 -0.924 -1.14c -0.072 -0.072 -0.072 -0.336 0 -0.408c 0.504 0.012 1.044 0.024 1.704 0.024c 0.66 0 1.188 -0.012 1.704 -0.024c 0.072 0.072 0.072 0.336 0 0.408c -0.732 0.036 -0.924 0.144 -0.924 1.14v 5.472c 0 0.78 0.036 1.224 0.036 1.224c 0 0.108 -0.084 0.156 -0.192 0.156c -0.444 -0.144 -1.404 -0.276 -2.256 -0.312c -0.036 -0.144 -0.024 -0.276 0.036 -0.384c 0.756 -0.06 0.816 -0.072 0.816 -0.9Z "/></symbol><symbol id="g97663EC9AEA74EADA07472643E1BE1B4" overflow="visible"><path d="M 0 0m 1.824 -0.08c 0.616 0 1.552 0.624 1.552 2.504c 0 0.792 -0.192 1.472 -0.544 1.936c -0.208 0.28 -0.544 0.52 -0.976 0.52c -0.792 0 -1.544 -0.944 -1.544 -2.528c 0 -0.856 0.264 -1.656 0.704 -2.096c 0.224 -0.224 0.496 -0.336 0.808 -0.336Z m 0.032 4.68c 0.136 0 0.264 -0.048 0.36 -0.136c 0.248 -0.208 0.464 -0.816 0.464 -1.888c 0 -0.736 -0.024 -1.24 -0.136 -1.648c -0.176 -0.656 -0.568 -0.728 -0.712 -0.728c -0.744 0 -0.824 1.368 -0.824 2.064c 0 1.968 0.488 2.336 0.848 2.336Z "/></symbol><symbol id="g8C50DFC0B8272CD73341C65811BD0E92" overflow="visible"><path d="M 0 0m 2.304 0.976v 2.776c 0 0.48 0.008 0.968 0.024 1.072c 0 0.04 -0.016 0.04 -0.048 0.04c -0.44 -0.272 -0.864 -0.472 -1.568 -0.8c 0.016 -0.088 0.048 -0.168 0.12 -0.216c 0.368 0.152 0.544 0.2 0.696 0.2c 0.136 0 0.16 -0.192 0.16 -0.464v -2.608c 0 -0.664 -0.216 -0.704 -0.776 -0.728c -0.048 -0.048 -0.048 -0.216 0 -0.264c 0.392 0.008 0.68 0.016 1.112 0.016c 0.384 0 0.576 -0.008 0.976 -0.016c 0.048 0.048 0.048 0.216 0 0.264c -0.56 0.024 -0.696 0.064 -0.696 0.728Z "/></symbol><symbol id="gAD9C87F854BDA42EDABFFB35EC1FA84E" overflow="visible"><path d="M 0 0m 0.488 3.744c 0 -0.168 0.152 -0.312 0.32 -0.312c 0.136 0 0.376 0.144 0.376 0.32c 0 0.064 -0.016 0.112 -0.032 0.168c -0.016 0.056 -0.064 0.128 -0.064 0.192c 0 0.2 0.208 0.488 0.792 0.488c 0.288 0 0.696 -0.2 0.696 -0.968c 0 -0.512 -0.184 -0.928 -0.656 -1.408l -0.592 -0.584c -0.784 -0.8 -0.912 -1.184 -0.912 -1.656c 0 0 0.408 0.016 0.664 0.016h 1.4c 0.256 0 0.624 -0.016 0.624 -0.016c 0.104 0.424 0.184 1.024 0.192 1.264c -0.048 0.04 -0.152 0.056 -0.232 0.04c -0.136 -0.568 -0.272 -0.768 -0.56 -0.768h -1.424c 0 0.384 0.552 0.928 0.592 0.968l 0.808 0.776c 0.456 0.44 0.8 0.792 0.8 1.4c 0 0.864 -0.704 1.216 -1.352 1.216c -0.888 0 -1.44 -0.656 -1.44 -1.136Z "/></symbol><symbol id="g4DADFF8D06AE4DC17FB93571E5AFF437" overflow="visible"><path d="M 0 0m 1.72 4.6c 0.344 0 0.664 -0.208 0.664 -0.72c 0 -0.4 -0.464 -1.016 -1.256 -1.128l 0.04 -0.256c 0.136 0.016 0.28 0.016 0.384 0.016c 0.456 0 1.048 -0.128 1.048 -1.032c 0 -1.064 -0.712 -1.28 -0.992 -1.28c -0.408 0 -0.48 0.184 -0.576 0.328c -0.08 0.112 -0.184 0.208 -0.344 0.208c -0.168 0 -0.336 -0.152 -0.336 -0.28c 0 -0.32 0.672 -0.536 1.152 -0.536c 0.952 0 1.8 0.616 1.8 1.672c 0 0.872 -0.656 1.184 -1.128 1.264l -0.008 0.016c 0.656 0.312 0.84 0.64 0.84 1.064c 0 0.24 -0.056 0.432 -0.248 0.632c -0.176 0.176 -0.456 0.312 -0.872 0.312c -1.176 0 -1.512 -0.768 -1.512 -1.032c 0 -0.112 0.08 -0.272 0.272 -0.272c 0.28 0 0.312 0.264 0.312 0.416c 0 0.512 0.552 0.608 0.76 0.608Z "/></symbol><symbol id="gF821431C61A4D7F3ECEFEC074E9C0EFC" overflow="visible"><path d="M 0 0m 3.44 1.752h -0.664v 2.336c 0 0.4 0 0.712 0.016 0.776l -0.016 0.016h -0.256c -0.056 0 -0.096 -0.048 -0.128 -0.088c -0.504 -0.616 -1.432 -1.936 -2.168 -3.08c 0.024 -0.12 0.072 -0.336 0.312 -0.336h 1.632v -0.736c 0 -0.368 -0.304 -0.368 -0.648 -0.392c -0.048 -0.048 -0.048 -0.216 0 -0.264c 0.256 0.008 0.576 0.016 0.944 0.016c 0.312 0 0.616 -0.008 0.872 -0.016c 0.048 0.048 0.048 0.216 0 0.264c -0.392 0.032 -0.56 0.016 -0.56 0.392v 0.736h 0.552c 0.112 0 0.232 0.152 0.232 0.248c 0 0.08 -0.032 0.128 -0.12 0.128Z m -1.272 2.304v -2.304h -1.528c 0.408 0.656 0.976 1.552 1.528 2.304Z "/></symbol><symbol id="gD00C9D162D1CBC09F2F7551D594DBB72" overflow="visible"><path d="M 0 0m 2.552 1.512c 0 -0.76 -0.4 -1.32 -0.88 -1.32c -0.304 0 -0.408 0.2 -0.528 0.36c -0.104 0.136 -0.24 0.256 -0.408 0.256c -0.152 0 -0.304 -0.136 -0.304 -0.296c 0 -0.328 0.68 -0.6 1.136 -0.6c 0.992 0 1.696 0.736 1.696 1.744c 0 0.776 -0.536 1.472 -1.432 1.472c -0.344 0 -0.64 -0.072 -0.784 -0.128l 0.16 1.336c 0.296 -0.032 0.552 -0.072 0.936 -0.072c 0.24 0 0.512 0.016 0.84 0.048l 0.128 0.544l -0.056 0.032c -0.456 -0.048 -0.888 -0.088 -1.312 -0.088c -0.296 0 -0.584 0.016 -0.864 0.04l -0.272 -2.304c 0.424 0.16 0.728 0.192 1.016 0.192c 0.52 0 0.928 -0.344 0.928 -1.216Z "/></symbol><symbol id="g5753A6CBD42AFBCBE5DCDB8271F3FBDD" overflow="visible"><path d="M 0 0m 1.638 3.222c -0.207 0.306 -0.144 0.315 0.261 0.36c 0.054 0.054 0.054 0.243 0 0.297c -0.243 -0.009 -0.639 -0.018 -0.909 -0.018c -0.27 0 -0.54 0.009 -0.774 0.018c -0.054 -0.054 -0.054 -0.243 0 -0.297c 0.306 -0.027 0.558 -0.18 0.81 -0.549l 0.783 -1.143c 0.045 -0.063 0.045 -0.09 0.009 -0.135l -0.756 -0.972c -0.36 -0.459 -0.558 -0.486 -0.873 -0.504c -0.054 -0.054 -0.054 -0.243 0 -0.297c 0.18 0.009 0.378 0.018 0.648 0.018c 0.27 0 0.522 -0.009 0.756 -0.018c 0.054 0.054 0.054 0.243 0 0.297c -0.324 0.036 -0.396 0.072 -0.198 0.36l 0.567 0.819c 0.072 0.108 0.108 0.099 0.162 0.018l 0.522 -0.72c 0.315 -0.432 0.171 -0.45 -0.117 -0.477c -0.054 -0.054 -0.054 -0.243 0 -0.297c 0.27 0.009 0.567 0.018 0.891 0.018c 0.342 0 0.585 -0.009 0.801 -0.018c 0.054 0.054 0.054 0.243 0 0.297c -0.405 0.027 -0.54 0.054 -0.9 0.567l -0.81 1.143c -0.036 0.054 -0.045 0.081 0 0.135l 0.756 0.963c 0.333 0.423 0.549 0.468 0.873 0.495c 0.054 0.054 0.054 0.243 0 0.297c -0.18 -0.009 -0.387 -0.018 -0.657 -0.018c -0.27 0 -0.522 0.009 -0.756 0.018c -0.054 -0.054 -0.054 -0.243 0 -0.297c 0.333 -0.036 0.432 -0.063 0.216 -0.369l -0.585 -0.819c -0.063 -0.09 -0.099 -0.081 -0.171 0.018Z "/></symbol><symbol id="gB7ADC05C7CC292D7AE42D71EE1DDDCEC" overflow="visible"><path d="M 0 0m 1.836 -1.44c 0.144 0.252 0.261 0.504 0.369 0.774c 0.72 1.737 1.125 2.664 1.593 3.672c 0.18 0.378 0.306 0.522 0.729 0.576c 0.054 0.054 0.054 0.243 0 0.297c -0.18 -0.009 -0.387 -0.018 -0.639 -0.018c -0.27 0 -0.549 0.009 -0.819 0.018c -0.054 -0.054 -0.054 -0.243 0 -0.297c 0.288 -0.027 0.576 -0.081 0.432 -0.405l -0.891 -2.061c -0.063 -0.144 -0.144 -0.171 -0.216 0.009l -0.801 1.872c -0.162 0.378 -0.207 0.549 0.297 0.585c 0.054 0.054 0.054 0.243 0 0.297c -0.333 -0.009 -0.693 -0.018 -1.017 -0.018c -0.306 0 -0.549 0.009 -0.729 0.018c -0.054 -0.054 -0.054 -0.243 0 -0.297c 0.36 -0.045 0.477 -0.126 0.711 -0.675l 1.017 -2.367c 0.081 -0.18 0.216 -0.594 0.126 -0.846c -0.108 -0.297 -0.216 -0.549 -0.351 -0.828c -0.099 -0.18 -0.225 -0.261 -0.45 -0.261c -0.126 0 -0.162 0.027 -0.261 0.027c -0.261 0 -0.396 -0.27 -0.396 -0.387c 0 -0.189 0.18 -0.333 0.423 -0.333c 0.189 0 0.549 0.072 0.873 0.648Z "/></symbol><symbol id="gB6B829643FAC67A26EA335D5C5653A06" overflow="visible"><path d="M 0 0m 3.016 5.264c -1.336 0 -2.72 -1.048 -2.72 -2.808c 0 -1.44 0.992 -2.536 2.52 -2.536c 0.944 0 1.688 0.2 2.232 0.664c -0.088 0.072 -0.128 0.136 -0.128 0.224v 0.928c 0 0.28 0.136 0.36 0.368 0.384c 0.048 0.048 0.048 0.24 0 0.288c -0.192 -0.008 -0.392 -0.016 -0.712 -0.016c -0.264 0 -0.64 0.008 -0.992 0.016c -0.048 -0.048 -0.048 -0.24 0 -0.288c 0.44 -0.032 0.656 -0.064 0.656 -0.384v -1.224c -0.272 -0.256 -0.808 -0.304 -1.24 -0.304c -1.264 0 -1.936 1.352 -1.936 2.408c 0 1.4 0.912 2.36 1.84 2.36c 1.16 0 1.488 -0.664 1.696 -1.352c 0.088 -0.008 0.176 0.008 0.264 0.048c -0.016 0.336 -0.056 0.656 -0.184 1.232c -0.48 0.08 -0.776 0.36 -1.664 0.36Z "/></symbol><symbol id="gF14903D79C881A9B6AC2EE7D8BED6F03" overflow="visible"><path d="M 0 0m 1.408 2.864c -0.016 0.32 -0.024 0.528 -0.064 0.608c -0.016 0.04 -0.032 0.064 -0.096 0.064c -0.224 -0.088 -0.432 -0.16 -0.984 -0.232c -0.016 -0.048 0 -0.176 0.016 -0.224c 0.432 -0.04 0.52 -0.08 0.52 -0.544v -1.56c 0 -0.664 -0.096 -0.696 -0.592 -0.728c -0.048 -0.048 -0.048 -0.216 0 -0.264c 0.28 0.008 0.592 0.016 0.912 0.016c 0.32 0 0.688 -0.008 0.968 -0.016c 0.048 0.048 0.048 0.216 0 0.264c -0.56 0.04 -0.656 0.064 -0.656 0.728v 1.112c 0 0.208 0.096 0.392 0.192 0.536c 0.088 0.128 0.272 0.392 0.368 0.392c 0.072 0 0.144 -0.016 0.208 -0.104c 0.056 -0.08 0.152 -0.184 0.288 -0.184c 0.192 0 0.376 0.2 0.376 0.4c 0 0.152 -0.144 0.384 -0.48 0.384c -0.376 0 -0.704 -0.352 -0.888 -0.664c -0.048 -0.088 -0.088 -0.024 -0.088 0.016Z "/></symbol><symbol id="g2B678EF10194558DA6DED0CDF87DA3E4" overflow="visible"><path d="M 0 0m 0.328 1.64c 0 -0.816 0.544 -1.72 1.68 -1.72c 0.512 0 0.904 0.184 1.176 0.448c 0.36 0.352 0.52 0.856 0.52 1.344c 0 0.832 -0.456 1.8 -1.68 1.8c -0.528 0 -0.96 -0.216 -1.256 -0.56c -0.288 -0.344 -0.44 -0.808 -0.44 -1.312Z m 1.576 1.592c 0.688 0 1.112 -0.624 1.112 -1.776c 0 -1.008 -0.52 -1.256 -0.896 -1.256c -0.832 0 -1.104 1.008 -1.104 1.624c 0 0.696 0.168 1.408 0.888 1.408Z "/></symbol><symbol id="g7CA707F1BCB16774F6BEEBBEACACFCA3" overflow="visible"><path d="M 0 0m 1.736 -0.08c 0.312 0 0.688 0.16 1.08 0.48c 0.04 0.032 0.112 0.048 0.12 -0.008c 0.024 -0.2 0.088 -0.472 0.088 -0.472c 0.064 -0.024 0.104 -0.016 0.152 0c 0.176 0.144 0.456 0.264 0.944 0.32c 0.048 0.048 0.048 0.168 0 0.216c -0.512 0.04 -0.584 0.192 -0.584 0.584v 1.536c 0 0.24 0.032 0.824 0.032 0.824c 0 0.024 -0.024 0.048 -0.064 0.048c -0.04 -0.008 -0.16 -0.016 -0.28 -0.016c -0.256 0 -0.544 0.008 -0.816 0.016c -0.048 -0.048 -0.048 -0.216 0 -0.264c 0.392 -0.024 0.496 -0.12 0.496 -0.648v -1.544c 0 -0.152 -0.016 -0.216 -0.128 -0.312c -0.296 -0.256 -0.6 -0.384 -0.8 -0.384c -0.24 0 -0.64 0.112 -0.64 0.824v 1.456c 0 0.24 0.032 0.824 0.032 0.824c 0 0.024 -0.024 0.048 -0.064 0.048c -0.04 -0.008 -0.16 -0.016 -0.28 -0.016c -0.256 0 -0.544 0.008 -0.816 0.016c -0.048 -0.048 -0.048 -0.216 0 -0.264c 0.384 -0.032 0.496 -0.12 0.496 -0.64v -1.536c 0 -0.552 0.24 -1.088 1.032 -1.088Z "/></symbol><symbol id="gE3B745958568E02614BCAB4547DCA2F1" overflow="visible"><path d="M 0 0m 1.248 2.944c -0.008 0.24 -0.024 0.448 -0.064 0.528c -0.016 0.04 -0.032 0.064 -0.096 0.064c -0.224 -0.088 -0.432 -0.16 -0.984 -0.232c -0.016 -0.048 0 -0.176 0.016 -0.224c 0.432 -0.04 0.52 -0.08 0.52 -0.544v -3.416c 0 -0.664 -0.088 -0.704 -0.576 -0.728c -0.048 -0.048 -0.048 -0.216 0 -0.264c 0.28 0.008 0.576 0.016 0.896 0.016c 0.32 0 0.704 -0.008 0.968 -0.016c 0.048 0.048 0.048 0.216 0 0.264c -0.568 0.032 -0.656 0.064 -0.656 0.728v 0.864c 0 0.104 0.032 0.096 0.112 0.064c 0.2 -0.08 0.44 -0.128 0.696 -0.128c 0.448 0 0.848 0.136 1.176 0.448c 0.376 0.368 0.592 0.864 0.592 1.512c 0 0.848 -0.6 1.632 -1.416 1.632c -0.368 0 -0.776 -0.24 -1.096 -0.6c -0.048 -0.048 -0.08 -0.048 -0.088 0.032Z m 0.152 -0.296c 0.208 0.256 0.576 0.496 0.808 0.496c 0.512 0 0.952 -0.576 0.952 -1.48c 0 -0.656 -0.232 -1.472 -1.128 -1.472c -0.144 0 -0.424 0.04 -0.568 0.168c -0.16 0.144 -0.192 0.192 -0.192 0.48v 1.456c 0 0.168 0.032 0.24 0.128 0.352Z "/></symbol><symbol id="g8D1B85E3ABA097AFFEFA8B147B26839C" overflow="visible"><path d="M 0 0m 1.24 0.632l 0.44 1.16c 0.04 0.104 0.088 0.136 0.28 0.136h 1.688l 0.464 -1.352c 0.096 -0.272 -0.208 -0.304 -0.592 -0.328c -0.048 -0.048 -0.048 -0.216 0 -0.264c 0.296 0.008 0.736 0.016 1.048 0.016c 0.328 0 0.632 -0.008 0.912 -0.016c 0.048 0.048 0.048 0.216 0 0.264c -0.312 0.032 -0.584 0.056 -0.72 0.44l -1.648 4.576c -0.12 -0.072 -0.336 -0.16 -0.44 -0.16l -1.816 -4.288c -0.208 -0.496 -0.448 -0.544 -0.8 -0.568c -0.048 -0.048 -0.048 -0.216 0 -0.264c 0.208 0.008 0.472 0.016 0.712 0.016c 0.328 0 0.728 -0.008 1.024 -0.016c 0.048 0.048 0.048 0.216 0 0.264c -0.304 0.024 -0.68 0.056 -0.552 0.384Z m 0.864 1.632c -0.176 0 -0.232 0.024 -0.2 0.104l 0.816 2.072h 0.048l 0.752 -2.176Z "/></symbol><symbol id="gB2C2A6E3883310E6A7667C09A3228786" overflow="visible"><path d="M 0 0m 1.184 5.16c -0.288 0 -0.72 0.008 -1.032 0.016c -0.048 -0.048 -0.048 -0.216 0 -0.264c 0.56 -0.024 0.696 -0.064 0.696 -0.728v -3.208c 0 -0.664 -0.136 -0.704 -0.696 -0.728c -0.048 -0.048 -0.048 -0.216 0 -0.264c 0.312 0.008 0.744 0.016 1.04 0.016c 0.288 0 0.496 -0.016 1.168 -0.016c 1.592 0 2.016 0.8 2.016 1.488c 0 0.768 -0.536 1.208 -1.232 1.408v 0.016c 0.4 0.2 0.76 0.616 0.76 1.048c 0 0.536 -0.232 1.232 -1.72 1.232c -0.28 0 -0.712 -0.016 -1 -0.016Z m 0.344 -2.504h 0.552c 1.096 0 1.552 -0.616 1.552 -1.336c 0 -0.584 -0.224 -1.072 -1.44 -1.072c -0.56 0 -0.664 0.208 -0.664 0.696Z m 0 1.744c 0 0.424 0 0.504 0.696 0.504c 0.448 0 1.032 -0.24 1.032 -1.056c 0 -0.68 -0.472 -0.92 -1.136 -0.92h -0.592Z "/></symbol><symbol id="g8C602F113ED136B9EC97C2B861CC969C" overflow="visible"><path d="M 0 0m 2.856 -0.08c 0.776 0 1.488 0.368 2.032 1.08c -0.04 0.072 -0.096 0.12 -0.184 0.12c -0.568 -0.624 -1.112 -0.872 -1.856 -0.872c -1.08 0 -1.824 1.216 -1.824 2.384c 0 0.688 0.184 1.264 0.472 1.624c 0.4 0.488 0.864 0.712 1.28 0.712c 1.104 0 1.544 -0.656 1.752 -1.344c 0.096 -0.032 0.176 -0.008 0.264 0.04c -0.04 0.416 -0.096 0.8 -0.176 1.24c -0.408 0.04 -0.768 0.36 -1.752 0.36c -0.68 0 -1.248 -0.248 -1.72 -0.68c -0.528 -0.488 -0.848 -1.272 -0.848 -2.104c 0 -1.392 0.84 -2.56 2.56 -2.56Z "/></symbol></defs><defs><clipPath id="cB165ED2AF54053291CF24A6904E6751F"><path d="M 0 0h 269.645984252v 178.310015748h -269.645984252Z "/></clipPath></defs></svg>