<svg viewBox="0 0 294.464566929 294.464566929" width="294.464566929pt" height="294.464566929pt" xmlns="http://www.w3.org/2000/svg" xmlns:xlink="http://www.w3.org/1999/xlink" xmlns:h5="http://www.w3.org/1999/xhtml"><path fill="#fafafa" fill-rule="nonzero" d="M 0 0v 294.464566929h 294.464566929v -294.464566929Z "/><g transform="translate(5.5 5.5)"><path fill="#fafafa" fill-rule="nonzero" d="M 0 0v 283.464566929h 283.464566929v -283.464566929Z "/><g transform="translate(5 5)"><g><g transform="matrix(1 0 0 -1 0 7.74)"><use xlink:href="#g7C8B8CE2FA3271B2DB9D5C00ED33FFB8" x="0" y="0" fill="#111827" fill-rule="nonzero"/><use xlink:href="#g3C2E9715FB9D690A986B8F0D57F3007C" x="8.88" y="0" fill="#111827" fill-rule="nonzero"/><use xlink:href="#g8D15A55F054D4F8515F5F3C5E6F83BE2" x="16.272" y="0" fill="#111827" fill-rule="nonzero"/><use xlink:href="#gC76A03CC6B2F66C4058A56BA6A9EE20" x="22.524" y="0" fill="#111827" fill-rule="nonzero"/><use xlink:href="#g966BE685B7523A33FA7C5091B1A7882" x="29.7" y="0" fill="#111827" fill-rule="nonzero"/><use xlink:href="#gDC05A2A7E4AEFCF99C6614634AF8B2F0" x="33.6" y="0" fill="#111827" fill-rule="nonzero"/><use xlink:href="#g56D9AC69DF1E60AEC4FA898FA388366B" x="39.672" y="0" fill="#111827" fill-rule="nonzero"/><use xlink:href="#g7C8B8CE2FA3271B2DB9D5C00ED33FFB8" x="47.808" y="0" fill="#111827" fill-rule="nonzero"/><use xlink:href="#g898F8D390A5BE9CA3FA6421EA60BDB40" x="56.688" y="0" fill="#111827" fill-rule="nonzero"/><use xlink:href="#g1094D23D321B642DA133CC49B1BA1EB9" x="63.42" y="0" fill="#111827" fill-rule="nonzero"/><use xlink:href="#g93ED4154508DB3ADD21415419B103611" x="67.284" y="0" fill="#111827" fill-rule="nonzero"/><use xlink:href="#g7081628C2A16E15BC4BEFE73CB35101" x="75.408" y="0" fill="#111827" fill-rule="nonzero"/><use xlink:href="#g1094D23D321B642DA133CC49B1BA1EB9" x="85.212" y="0" fill="#111827" fill-rule="nonzero"/><use xlink:href="#g6318351890DB0E292B53BA9E457E848C" x="89.076" y="0" fill="#111827" fill-rule="nonzero"/><use xlink:href="#g6318351890DB0E292B53BA9E457E848C" x="95.808" y="0" fill="#111827" fill-rule="nonzero"/><use xlink:href="#gE18113BE1243CA6EC5596891CC422939" x="102.54" y="0" fill="#111827" fill-rule="nonzero"/><use xlink:href="#g3C2E9715FB9D690A986B8F0D57F3007C" x="108.408" y="0" fill="#111827" fill-rule="nonzero"/></g></g><g transform="translate(0 14.94)"><path fill="none" stroke="#b4b6bb" stroke-width="0.4" stroke-linecap="butt" stroke-linejoin="miter" stroke-miterlimit="4" transform="translate(135.352475283 109.12433355)" d="M 0 0m 15.379965662 0c -8.486418973 0 -15.379965662 6.893546689 -15.379965662 15.379965662c 0 8.486418973 6.893546689 15.379965662 15.379965662 15.379965662c 8.486418973 0 15.379965662 -6.893546689 15.379965662 -15.379965662c 0 -8.486418973 -6.893546689 -15.379965662 -15.379965662 -15.379965662Z "/><path fill="none" stroke="#b4b6bb" stroke-width="0.4" stroke-linecap="butt" stroke-linejoin="miter" stroke-miterlimit="4" transform="translate(119.972509621 93.744367888)" d="M 0 0m 30.759931324 0c -16.972837946 0 -30.759931324 13.787093378 -30.759931324 30.759931324c 0 16.972837946 13.787093378 30.759931324 30.759931324 30.759931324c 16.972837946 0 30.759931324 -13.787093378 30.759931324 -30.759931324c 0 -16.972837946 -13.787093378 -30.759931324 -30.759931324 -30.759931324Z "/><path fill="none" stroke="#b4b6bb" stroke-width="0.4" stroke-linecap="butt" stroke-linejoin="miter" stroke-miterlimit="4" transform="translate(104.592543958 78.364402226)" d="M 0 0m 46.139896987 0c -25.459256919 0 -46.139896987 20.680640068 -46.139896987 46.139896987c 0 25.459256919 20.680640068 46.139896987 46.139896987 46.139896987c 25.459256919 0 46.139896987 -20.680640068 46.139896987 -46.139896987c 0 -25.459256919 -20.680640068 -46.139896987 -46.139896987 -46.139896987Z "/><path fill="none" stroke="#b4b6bb" stroke-width="0.4" stroke-linecap="butt" stroke-linejoin="miter" stroke-miterlimit="4" transform="translate(89.212578296 62.984436564)" d="M 0 0m 61.519862649 0c -33.945675892 0 -61.519862649 27.574186757 -61.519862649 61.519862649c 0 33.945675892 27.574186757 61.519862649 61.519862649 61.519862649c 33.945675892 0 61.519862649 -27.574186757 61.519862649 -61.519862649c 0 -33.945675892 -27.574186757 -61.519862649 -61.519862649 -61.519862649Z "/><path fill="none" stroke="#b4b6bb" stroke-width="0.4" stroke-linecap="butt" stroke-linejoin="miter" stroke-miterlimit="4" transform="translate(73.832612634 47.604470902)" d="M 0 0m 76.899828311 0c -42.432094865 0 -76.899828311 34.467733446 -76.899828311 76.899828311c 0 42.432094865 34.467733446 76.899828311 76.899828311 76.899828311c 42.432094865 0 76.899828311 -34.467733446 76.899828311 -76.899828311c 0 -42.432094865 -34.467733446 -76.899828311 -76.899828311 -76.899828311Z "/><path fill="none" stroke="#b4b6bb" stroke-width="0.4" stroke-linecap="butt" stroke-linejoin="miter" stroke-miterlimit="4" transform="translate(58.452646972 32.224505239)" d="M 0 0m 92.279793973 0c -50.918513838 0 -92.279793973 41.361280135 -92.279793973 92.279793973c 0 50.918513838 41.361280135 92.279793973 92.279793973 92.279793973c 50.918513838 0 92.279793973 -41.361280135 92.279793973 -92.279793973c 0 -50.918513838 -41.361280135 -92.279793973 -92.279793973 -92.279793973Z "/><path fill="none" stroke="#b4b6bb" stroke-width="0.4" stroke-linecap="butt" stroke-linejoin="miter" stroke-miterlimit="4" transform="translate(43.07268131 16.844539577)" d="M 0 0m 107.659759635 0c -59.404932811 0 -107.659759635 48.254826825 -107.659759635 107.659759635c 0 59.404932811 48.254826825 107.659759635 107.659759635 107.659759635c 59.404932811 0 107.659759635 -48.254826825 107.659759635 -107.659759635c 0 -59.404932811 -48.254826825 -107.659759635 -107.659759635 -107.659759635Z "/><path fill="none" stroke="#b4b6bb" stroke-width="0.4" stroke-linecap="butt" stroke-linejoin="miter" stroke-miterlimit="4" transform="translate(150.732440945 77.536747979)" d="M 0 0m 0 46.967551233l 113.389699178 -46.967551233"/><path fill="none" stroke="#b4b6bb" stroke-width="0.4" stroke-linecap="butt" stroke-linejoin="miter" stroke-miterlimit="4" transform="translate(150.732440945 124.504299213)" d="M 0 0v 122.732125984"/><path fill="none" stroke="#b4b6bb" stroke-width="0.4" stroke-linecap="butt" stroke-linejoin="miter" stroke-miterlimit="4" transform="translate(37.342741766 77.536747979)" d="M 0 0m 113.389699178 46.967551233l -113.389699178 -46.967551233"/><path fill="none" transform="translate(28.000314961)" d="M 0 0h 245.464251969v 249.008598425h -245.464251969v -249.008598425Z "/><g transform="translate(28.000314866 0)"><g><path fill="#e69f00" fill-rule="nonzero" transform="translate(122.732125984 12.64970698)" d="M 0 0m 33.9307196 0l 9.281373142 3.247692926l 8.975560653 4.01630523l 8.606228016 4.756494095l 8.175989002 5.463021195l 7.687888418 6.13088643l 7.145380557 6.755363309l 6.552304753 7.332032403l 5.912858212 7.856812617l 5.231566304 8.325990076l 4.513250539 8.736244406l 3.762994448 9.08467223l 2.9861076 9.368807723l 2.188088033 9.586640053l 1.374583342 9.736627618l 0.551350709 9.817708956l -0.27578384 9.829310251l -1.100966664 9.771349403l -1.918357934 9.644236599l -2.722172961 9.44887142l -3.506723139 9.186636467l -4.266456196 8.859387579l -103.085782594 -55.100498755l 33.9307196 -111.854592233Z "/><path fill="#009e73" fill-rule="nonzero" transform="translate(27.385716953 33.254500286)" d="M 0 0m 11.250112705 136.200205806l -3.480530055 -7.22739513l -2.860747824 -7.494361328l -2.220720047 -7.708289843l -1.564976209 -7.867666699l -0.898157015 -7.971363986l -0.224981554 -8.018647837l 0.449786104 -8.009183622l 1.121370621 -7.94303832l 1.785019185 -7.820680043l 2.436035147 -7.642974721l 3.06981126 -7.411179977l 3.681862282 -7.126936226l 4.267856722 -6.792255062l 4.823647489 -6.40950503l 5.345301246 -5.981394855l 5.829126244 -5.510954279l 6.271698446 -5.001512614l 6.669885765 -4.456675186l 7.020870224 -3.880297814l 7.322167901 -3.27645953l 7.571646511 -2.649433703l 27.680323884 91.249798927l -84.096296327 44.950406879Z "/><path fill="#56b4e9" fill-rule="nonzero" transform="translate(82.309953605 124.504299213)" d="M 0 0m 80.844344759 33.173619551l -2.931294232 3.280119759l -3.196617618 3.022136217l -3.439318503 2.742764982l -3.65767929 2.443983166l -3.850154639 2.127905253l -4.015382398 1.796768129l -4.152193248 1.452915256l -4.259618977 1.098780085l -4.336899334 0.736868834l -4.383487402 0.369742754h -4.399053479l -4.383487402 -0.369742754l -4.336899334 -0.736868834l -4.259618977 -1.098780085l -4.152193248 -1.452915256l -4.015382398 -1.796768129l -3.850154639 -2.127905253l -3.65767929 -2.443983166l -3.439318503 -2.742764982l -3.196617618 -3.022136217l -2.931294232 -3.280119759l 40.422172379 -33.173619551l 40.422172379 33.173619551Z "/></g></g><path fill="none" transform="translate(148.872440945 121.832299213)" d="M 0 0h 3.72v 5.344h -3.72v -5.344Z "/><g transform="translate(148.87244085 121.832299134)"><g transform="matrix(1 0 0 -1 0 5.264)"><use xlink:href="#g97663EC9AEA74EADA07472643E1BE1B4" x="0" y="0" fill="#111827" fill-rule="nonzero"/></g></g><path fill="none" transform="translate(147.012440945 106.45233355)" d="M 0 0h 7.44v 5.344h -7.44v -5.344Z "/><g transform="translate(147.012440898 106.452333472)"><g transform="matrix(1 0 0 -1 0 5.264)"><use xlink:href="#gAD9C87F854BDA42EDABFFB35EC1FA84E" x="0" y="0" fill="#111827" fill-rule="nonzero"/><use xlink:href="#g97663EC9AEA74EADA07472643E1BE1B4" x="3.72" y="0" fill="#111827" fill-rule="nonzero"/></g></g><path fill="none" transform="translate(147.012440945 91.072367888)" d="M 0 0h 7.44v 5.344h -7.44v -5.344Z "/><g transform="translate(147.012440898 91.072367809)"><g transform="matrix(1 0 0 -1 0 5.264)"><use xlink:href="#gF821431C61A4D7F3ECEFEC074E9C0EFC" x="0" y="0" fill="#111827" fill-rule="nonzero"/><use xlink:href="#g97663EC9AEA74EADA07472643E1BE1B4" x="3.72" y="0" fill="#111827" fill-rule="nonzero"/></g></g><path fill="none" transform="translate(147.012440945 75.688402226)" d="M 0 0h 7.44v 5.352h -7.44v -5.352Z "/><g transform="translate(147.012440898 75.688402179)"><g transform="matrix(1 0 0 -1 0 5.264)"><use xlink:href="#gAFC6ADE0F4BA5C584B85DD0E8532505B" x="0" y="0" fill="#111827" fill-rule="nonzero"/><use xlink:href="#g97663EC9AEA74EADA07472643E1BE1B4" x="3.72" y="0" fill="#111827" fill-rule="nonzero"/></g></g><path fill="none" transform="translate(147.012440945 60.312436564)" d="M 0 0h 7.44v 5.344h -7.44v -5.344Z "/><g transform="translate(147.012440898 60.312436485)"><g transform="matrix(1 0 0 -1 0 5.264)"><use xlink:href="#g7A967AE9E3CD4C643CC5E64A109A19AA" x="0" y="0" fill="#111827" fill-rule="nonzero"/><use xlink:href="#g97663EC9AEA74EADA07472643E1BE1B4" x="3.72" y="0" fill="#111827" fill-rule="nonzero"/></g></g><path fill="none" transform="translate(145.152440945 44.932470902)" d="M 0 0h 11.16v 5.344h -11.16v -5.344Z "/><g transform="translate(145.152440945 44.932470823)"><g transform="matrix(1 0 0 -1 0 5.264)"><use xlink:href="#g8C50DFC0B8272CD73341C65811BD0E92" x="0" y="0" fill="#111827" fill-rule="nonzero"/><use xlink:href="#g97663EC9AEA74EADA07472643E1BE1B4" x="3.72" y="0" fill="#111827" fill-rule="nonzero"/><use xlink:href="#g97663EC9AEA74EADA07472643E1BE1B4" x="7.44" y="0" fill="#111827" fill-rule="nonzero"/></g></g><path fill="none" transform="translate(145.152440945 29.552505239)" d="M 0 0h 11.16v 5.344h -11.16v -5.344Z "/><g transform="translate(145.152440945 29.552505161)"><g transform="matrix(1 0 0 -1 0 5.264)"><use xlink:href="#g8C50DFC0B8272CD73341C65811BD0E92" x="0" y="0" fill="#111827" fill-rule="nonzero"/><use xlink:href="#gAD9C87F854BDA42EDABFFB35EC1FA84E" x="3.72" y="0" fill="#111827" fill-rule="nonzero"/><use xlink:href="#g97663EC9AEA74EADA07472643E1BE1B4" x="7.44" y="0" fill="#111827" fill-rule="nonzero"/></g></g><path fill="none" transform="translate(145.152440945 14.172539577)" d="M 0 0h 11.16v 5.344h -11.16v -5.344Z "/><g transform="translate(145.152440945 14.172539499)"><g transform="matrix(1 0 0 -1 0 5.264)"><use xlink:href="#g8C50DFC0B8272CD73341C65811BD0E92" x="0" y="0" fill="#111827" fill-rule="nonzero"/><use xlink:href="#gF821431C61A4D7F3ECEFEC074E9C0EFC" x="3.72" y="0" fill="#111827" fill-rule="nonzero"/><use xlink:href="#g97663EC9AEA74EADA07472643E1BE1B4" x="7.44" y="0" fill="#111827" fill-rule="nonzero"/></g></g><path fill="none" transform="translate(1.483334646 113.078799213)" d="M 0 0m 0 22.851l 0 -22.851h 6.039v 22.851h -6.039Z "/><g transform="matrix(0 -1 1 0 1.483334504 135.929799213)"><g transform="matrix(1 0 0 -1 0 5.922)"><use xlink:href="#gC375F277B20C2526627B56EF0039913" x="0" y="0" fill="#111827" fill-rule="nonzero"/><use xlink:href="#gF71CD90141C058754731CB923424AFF5" x="5.814" y="0" fill="#111827" fill-rule="nonzero"/><use xlink:href="#gB47AF1E8EB8505E9D708624CF420FCE1" x="10.35" y="0" fill="#111827" fill-rule="nonzero"/><use xlink:href="#g75829AE9E8B7E42D7FCDFD5712A16351" x="15.129" y="0" fill="#111827" fill-rule="nonzero"/><use xlink:href="#g5277906DC426125FD25A938CB480528C" x="20.007" y="0" fill="#111827" fill-rule="nonzero"/></g></g></g></g></g><defs><symbol id="g7C8B8CE2FA3271B2DB9D5C00ED33FFB8" overflow="visible"><path d="M 0 0m 1.98 0.948l 0.636 1.668c 0.06 0.156 0.132 0.204 0.42 0.204h 2.28l 0.672 -1.956c 0.144 -0.432 -0.204 -0.444 -0.66 -0.468c -0.072 0 -0.156 -0.012 -0.228 -0.012c -0.072 -0.072 -0.072 -0.336 0 -0.408c 0.444 0.012 1.584 0.024 2.052 0.024c 0.492 0 1.164 -0.012 1.608 -0.024c 0.072 0.072 0.072 0.336 0 0.408c -0.468 0.048 -0.864 0.036 -1.08 0.648l -2.472 6.864c -0.18 -0.108 -0.9 -0.528 -1.32 -0.528l -2.604 -6.144c -0.312 -0.744 -0.672 -0.804 -1.2 -0.84c -0.072 -0.072 -0.072 -0.336 0 -0.408c 0.444 0.012 0.66 0.024 1.128 0.024c 0.492 0 1.152 -0.012 1.596 -0.024c 0.072 0.072 0.072 0.336 0 0.408c -0.456 0.036 -1.02 0.072 -0.828 0.564Z m 1.296 2.448c -0.264 0 -0.348 0.036 -0.3 0.156l 1.056 2.688h 0.084l 0.984 -2.844Z "/></symbol><symbol id="g3C2E9715FB9D690A986B8F0D57F3007C" overflow="visible"><path d="M 0 0m 2.736 1.464v 2.412c 0.48 0.324 0.96 0.564 1.176 0.564c 0.48 0 0.84 -0.216 0.84 -0.9v -2.004c 0 -1.008 -0.192 -1.116 -0.684 -1.152c -0.072 -0.072 -0.072 -0.336 0 -0.408c 0.504 0.012 0.888 0.024 1.464 0.024c 0.66 0 1.188 -0.012 1.704 -0.024c 0.072 0.072 0.072 0.336 0 0.408c -0.732 0.036 -0.924 0.144 -0.924 1.152v 1.872c 0 1.32 -0.564 1.92 -1.596 1.92c -0.48 0 -1.332 -0.528 -1.992 -0.984c -0.036 0.42 -0.084 0.78 -0.084 0.78c -0.012 0.144 -0.108 0.204 -0.276 0.204c -0.444 -0.12 -1.164 -0.288 -1.992 -0.396c -0.024 -0.072 0 -0.312 0.024 -0.384c 0.66 -0.06 0.78 -0.156 0.78 -0.84v -2.244c 0 -0.996 -0.132 -1.02 -0.864 -1.08c -0.072 -0.072 -0.072 -0.336 0 -0.408c 0.504 0.012 1.008 0.024 1.644 0.024c 0.552 0 0.888 -0.012 1.404 -0.024c 0.072 0.072 0.072 0.336 0 0.408c -0.504 0.048 -0.624 0.084 -0.624 1.08Z "/></symbol><symbol id="g8D15A55F054D4F8515F5F3C5E6F83BE2" overflow="visible"><path d="M 0 0m 5.604 4.728c 0.336 0 0.528 0.144 0.528 0.588c 0 0.228 -0.312 0.576 -0.768 0.576c -0.528 0 -1.224 -0.396 -1.572 -0.708c -0.216 0.12 -0.468 0.144 -1.008 0.144c -0.516 0 -1.02 -0.12 -1.416 -0.384c -0.492 -0.312 -0.816 -0.78 -0.816 -1.392c 0 -0.588 0.348 -1.224 0.924 -1.536c -0.372 -0.324 -0.948 -0.96 -0.948 -1.2c 0 -0.228 0.036 -0.372 0.156 -0.552c 0.108 -0.168 0.252 -0.264 0.492 -0.336c -0.516 -0.312 -1.044 -0.996 -1.044 -1.2c 0 -0.444 0.144 -0.96 0.468 -1.188c 0.468 -0.324 1.26 -0.396 1.836 -0.396c 1.668 0 3.576 0.876 3.576 2.196c 0 0.252 -0.12 0.768 -0.6 1.092c -0.468 0.312 -2.268 0.396 -3.156 0.396c -0.216 0 -0.54 0.024 -0.54 0.504c 0 0.192 0.12 0.36 0.18 0.504c 0.252 -0.12 0.504 -0.132 0.876 -0.132c 0.612 0 1.176 0.156 1.584 0.516c 0.348 0.312 0.588 0.732 0.588 1.272c 0 0.672 -0.336 1.116 -0.744 1.452c 0.096 0.12 0.492 0.336 0.612 0.336c 0.108 0 0.192 -0.072 0.228 -0.144c 0.048 -0.156 0.264 -0.408 0.564 -0.408Z m -3.504 -5.028c 0.924 0 2.7 -0.036 2.7 -0.672c 0 -0.432 -0.192 -0.924 -0.588 -1.14c -0.372 -0.216 -0.984 -0.24 -1.44 -0.24c -0.792 0 -1.332 0.588 -1.332 1.2c 0 0.408 0 0.684 0.132 0.924c 0.12 -0.048 0.276 -0.072 0.528 -0.072Z m 1.38 3.756c 0 -1.152 -0.336 -1.296 -0.648 -1.296c -0.744 0 -0.84 0.888 -0.84 1.5c 0 0.888 0.216 1.212 0.684 1.212c 0.564 0 0.804 -0.468 0.804 -1.416Z "/></symbol><symbol id="gC76A03CC6B2F66C4058A56BA6A9EE20" overflow="visible"><path d="M 0 0m 6.12 1.596v 2.076c 0 1.008 0.024 0.864 0.024 1.152c 0 0.204 -0.048 0.336 -0.12 0.408c -0.216 -0.012 -0.456 -0.024 -0.684 -0.024c -0.336 0 -1.116 0.012 -1.584 0.024c -0.072 -0.072 -0.072 -0.336 0 -0.408c 0.612 -0.06 0.804 -0.144 0.804 -1.152v -2.22c 0 -0.12 0 -0.24 0.012 -0.36c -0.492 -0.3 -0.888 -0.324 -1.104 -0.324c -0.48 0 -0.84 0.06 -0.84 0.9v 2.004c 0 1.008 0.024 0.864 0.024 1.152c 0 0.204 -0.048 0.336 -0.12 0.408c -0.216 -0.012 -0.468 -0.024 -0.684 -0.024c -0.612 0 -1.068 0.012 -1.584 0.024c -0.072 -0.072 -0.072 -0.336 0 -0.408c 0.552 -0.024 0.804 -0.144 0.804 -1.152v -1.872c 0 -1.272 0.504 -1.92 1.536 -1.92c 0.432 0 1.308 0.348 2.004 0.732c 0.024 -0.3 0.048 -0.528 0.048 -0.528c 0.012 -0.144 0.108 -0.204 0.276 -0.204c 0.444 0.12 1.164 0.288 1.992 0.396c 0.024 0.072 0 0.312 -0.024 0.384c -0.648 0.06 -0.78 0.252 -0.78 0.936Z "/></symbol><symbol id="g966BE685B7523A33FA7C5091B1A7882" overflow="visible"><path d="M 0 0m 1.2 1.524c 0 -0.996 -0.192 -1.104 -0.924 -1.14c -0.072 -0.072 -0.072 -0.336 0 -0.408c 0.504 0.012 1.044 0.024 1.704 0.024c 0.66 0 1.188 -0.012 1.704 -0.024c 0.072 0.072 0.072 0.336 0 0.408c -0.732 0.036 -0.924 0.144 -0.924 1.14v 5.472c 0 0.78 0.036 1.224 0.036 1.224c 0 0.108 -0.084 0.156 -0.192 0.156c -0.444 -0.144 -1.404 -0.276 -2.256 -0.312c -0.036 -0.144 -0.024 -0.276 0.036 -0.384c 0.756 -0.06 0.816 -0.072 0.816 -0.9Z "/></symbol><symbol id="gDC05A2A7E4AEFCF99C6614634AF8B2F0" overflow="visible"><path d="M 0 0m 3.54 0.588c 0.084 -0.492 0.408 -0.708 0.936 -0.708c 0.66 0 1.128 0.252 1.572 0.672c -0.024 0.144 -0.072 0.24 -0.216 0.336c -0.156 -0.12 -0.276 -0.168 -0.504 -0.168c -0.264 0 -0.336 0.216 -0.336 0.804l 0.024 1.728c 0 1.728 -1.068 2.076 -2.052 2.076c -0.876 0 -2.22 -0.504 -2.22 -1.296c 0 -0.336 0.144 -0.6 0.612 -0.6c 0.432 0 0.744 0.264 0.744 0.552c 0 0.06 -0.012 0.132 -0.024 0.204c -0.024 0.12 -0.048 0.24 -0.024 0.36c 0.012 0.132 0.108 0.276 0.504 0.276c 0.504 0 0.924 -0.216 0.924 -1.74l -0.804 -0.252c -1.26 -0.396 -2.148 -0.744 -2.148 -1.692c 0 -0.828 0.456 -1.26 1.5 -1.26c 0.348 0 1.044 0.384 1.44 0.696Z m -0.06 2.028v -1.584c -0.3 -0.24 -0.6 -0.432 -0.816 -0.432c -0.516 0 -0.696 0.348 -0.696 0.72c 0 0.444 0.036 0.816 0.888 1.092Z "/></symbol><symbol id="g56D9AC69DF1E60AEC4FA898FA388366B" overflow="visible"><path d="M 0 0m 2.736 3.216c 0 0.432 0.132 0.612 0.288 0.792c 0.096 0.12 0.204 0.204 0.384 0.204c 0.108 0 0.24 -0.108 0.336 -0.228c 0.084 -0.096 0.288 -0.192 0.564 -0.192c 0.348 0 0.684 0.36 0.684 0.864c 0 0.312 -0.36 0.672 -0.792 0.672c -0.42 0 -0.876 -0.36 -1.428 -1.152h -0.048c -0.024 0.36 -0.084 0.948 -0.084 0.948c -0.012 0.108 -0.108 0.204 -0.276 0.204c -0.564 -0.144 -1.2 -0.312 -1.992 -0.396c -0.024 -0.072 0 -0.3 0.024 -0.372c 0.66 -0.06 0.78 -0.168 0.78 -0.852v -2.244c 0 -0.996 -0.132 -1.02 -0.864 -1.08c -0.072 -0.072 -0.072 -0.336 0 -0.408c 0.504 0.012 1.008 0.024 1.644 0.024c 0.636 0 1.128 -0.012 1.644 -0.024c 0.072 0.072 0.072 0.336 0 0.408c -0.732 0.048 -0.864 0.084 -0.864 1.08Z "/></symbol><symbol id="g898F8D390A5BE9CA3FA6421EA60BDB40" overflow="visible"><path d="M 0 0m 2.196 0.876l 0.744 1.044c 0.048 0.06 0.084 0.096 0.12 0.036l 0.576 -1.092c 0.204 -0.384 0.084 -0.42 -0.336 -0.48c -0.072 -0.072 -0.072 -0.336 0 -0.408c 0.24 0.012 0.996 0.024 1.632 0.024c 0.624 0 1.368 -0.012 1.608 -0.024c 0.072 0.072 0.072 0.336 0 0.408c -0.444 0.072 -0.852 0.228 -1.236 0.804l -1.056 1.572c -0.06 0.096 -0.06 0.132 -0.024 0.18l 1.068 1.296c 0.336 0.408 0.768 0.552 1.14 0.588c 0.072 0.072 0.072 0.336 0 0.408c -0.24 -0.012 -0.612 -0.024 -1.008 -0.024c -0.468 0 -0.96 0.012 -1.2 0.024c -0.072 -0.072 -0.072 -0.336 0 -0.408c 0.432 -0.036 0.528 -0.168 0.288 -0.516l -0.648 -0.924c -0.036 -0.06 -0.096 -0.06 -0.144 0.024l -0.54 0.912c -0.252 0.432 -0.096 0.456 0.36 0.504c 0.072 0.072 0.072 0.336 0 0.408c -0.24 -0.012 -1.02 -0.024 -1.68 -0.024c -0.588 0 -1.272 0.012 -1.512 0.024c -0.072 -0.072 -0.072 -0.336 0 -0.408c 0.54 0 0.78 -0.324 1.116 -0.804l 1.068 -1.524c 0.036 -0.048 0.036 -0.096 -0.036 -0.18l -1.104 -1.368c -0.3 -0.384 -0.828 -0.516 -1.188 -0.564c -0.072 -0.072 -0.072 -0.336 0 -0.408c 0.24 0.012 0.612 0.024 0.996 0.024c 0.516 0 1.08 -0.012 1.32 -0.024c 0.072 0.072 0.072 0.336 0 0.408c -0.216 0.048 -0.588 0.12 -0.324 0.492Z "/></symbol><symbol id="g1094D23D321B642DA133CC49B1BA1EB9" overflow="visible"><path d="M 0 0m 2.784 1.464v 2.388c 0 0.6 0.048 1.272 0.048 1.272c 0 0.132 -0.108 0.204 -0.276 0.204c -0.336 -0.132 -1.308 -0.228 -2.136 -0.336c -0.024 -0.072 0 -0.312 0.024 -0.384c 0.66 -0.06 0.78 -0.156 0.78 -0.84v -2.304c 0 -0.996 -0.132 -1.02 -0.864 -1.08c -0.072 -0.072 -0.072 -0.336 0 -0.408c 0.504 0.012 1.008 0.024 1.644 0.024c 0.636 0 1.128 -0.012 1.644 -0.024c 0.072 0.072 0.072 0.336 0 0.408c -0.732 0.048 -0.864 0.084 -0.864 1.08Z m -1.62 5.688c 0 -0.396 0.288 -0.792 0.768 -0.792c 0.54 0 0.852 0.432 0.852 0.744c 0 0.36 -0.276 0.792 -0.78 0.792c -0.564 0 -0.84 -0.384 -0.84 -0.744Z "/></symbol><symbol id="g93ED4154508DB3ADD21415419B103611" overflow="visible"><path d="M 0 0m 0.576 1.752c 0.048 -0.588 0.108 -1.152 0.204 -1.608c 0.228 -0.072 0.996 -0.264 1.668 -0.264c 0.924 0 2.076 0.504 2.076 1.548c 0 0.408 -0.096 0.732 -0.372 1.032c -0.336 0.384 -0.84 0.684 -1.392 0.924c -0.48 0.204 -0.648 0.588 -0.648 0.936c 0 0.276 0.228 0.504 0.576 0.504c 0.42 0 0.828 -0.384 1.128 -1.116c 0.216 -0.036 0.348 -0.024 0.468 0.06c 0 0.432 -0.048 0.888 -0.156 1.272c -0.384 0.168 -0.684 0.288 -1.344 0.288c -0.636 0 -1.236 -0.24 -1.62 -0.624c -0.276 -0.276 -0.408 -0.612 -0.408 -0.936c 0 -0.36 0.144 -0.648 0.372 -0.9c 0.372 -0.408 1.032 -0.828 1.392 -0.996c 0.48 -0.216 0.612 -0.648 0.612 -0.936c 0 -0.384 -0.384 -0.588 -0.708 -0.588c -0.54 0 -1.116 0.552 -1.368 1.428c -0.192 0.036 -0.288 0.024 -0.48 -0.024Z "/></symbol><symbol id="g7081628C2A16E15BC4BEFE73CB35101" overflow="visible"><path d="M 0 0m 6.768 6.276v -1.872h -3.72v 1.872c 0 0.996 0.336 1.044 0.996 1.08c 0.12 0.072 0.12 0.336 0 0.408c -0.48 -0.012 -1.344 -0.024 -1.824 -0.024c -0.48 0 -1.368 0.012 -1.848 0.024c -0.12 -0.072 -0.12 -0.336 0 -0.408c 0.66 -0.036 0.996 -0.084 0.996 -1.08v -4.812c 0 -0.996 -0.336 -1.044 -0.996 -1.08c -0.12 -0.072 -0.12 -0.336 0 -0.408c 0.48 0.012 1.368 0.024 1.848 0.024c 0.48 0 1.344 -0.012 1.824 -0.024c 0.12 0.072 0.12 0.336 0 0.408c -0.66 0.036 -0.996 0.084 -0.996 1.08v 2.364h 3.72v -2.364c 0 -0.996 -0.336 -1.044 -0.996 -1.08c -0.12 -0.072 -0.12 -0.336 0 -0.408c 0.48 0.012 1.368 0.024 1.848 0.024c 0.48 0 1.344 -0.012 1.824 -0.024c 0.12 0.072 0.12 0.336 0 0.408c -0.66 0.036 -0.996 0.084 -0.996 1.08v 4.812c 0 0.996 0.336 1.044 0.996 1.08c 0.12 0.072 0.12 0.336 0 0.408c -0.48 -0.012 -1.344 -0.024 -1.824 -0.024c -0.48 0 -1.368 0.012 -1.848 0.024c -0.12 -0.072 -0.12 -0.336 0 -0.408c 0.66 -0.036 0.996 -0.084 0.996 -1.08Z "/></symbol><symbol id="g6318351890DB0E292B53BA9E457E848C" overflow="visible"><path d="M 0 0m 4.26 0.576c 0.024 -0.288 0.048 -0.492 0.048 -0.492c 0.012 -0.144 0.108 -0.204 0.276 -0.204c 0.444 0.12 1.164 0.288 1.992 0.396c 0.024 0.072 0 0.312 -0.024 0.384c -0.648 0.06 -0.78 0.252 -0.78 0.936v 5.4c 0 0.78 0.036 1.224 0.036 1.224c 0 0.108 -0.084 0.156 -0.192 0.156c -0.444 -0.144 -1.404 -0.276 -2.256 -0.312c -0.036 -0.144 -0.024 -0.3 0.036 -0.408c 0.756 -0.06 0.816 -0.072 0.816 -0.9v -1.56c -0.228 0.072 -0.516 0.132 -0.864 0.132c -1.548 0 -2.904 -1.356 -2.904 -2.952c 0 -0.708 0.252 -1.536 0.84 -1.992c 0.432 -0.336 0.732 -0.504 1.404 -0.504c 0.324 0 1.212 0.528 1.464 0.696Z m -0.036 0.564c -0.252 -0.204 -0.888 -0.468 -1.032 -0.468c -0.6 0 -1.068 0.672 -1.068 2.076c 0 0.636 0.072 1.188 0.3 1.56c 0.204 0.324 0.528 0.516 0.888 0.516c 0.312 0 0.612 -0.036 0.9 -0.432v -2.952c 0 -0.096 0 -0.204 0.012 -0.3Z "/></symbol><symbol id="gE18113BE1243CA6EC5596891CC422939" overflow="visible"><path d="M 0 0m 5.172 1.548c -0.492 -0.504 -1.14 -0.636 -1.596 -0.636c -0.936 0 -1.512 0.54 -1.512 1.716c 0 0.084 0.012 0.132 0.012 0.192h 2.88c 0.288 0 0.348 0.204 0.348 0.372c 0 1.02 -0.396 2.136 -2.16 2.136c -1.26 0 -2.7 -1.116 -2.7 -2.952c 0 -0.696 0.252 -1.428 0.768 -1.896c 0.456 -0.408 1.044 -0.6 1.896 -0.6c 0.828 0 1.644 0.42 2.244 1.296c 0 0.156 -0.06 0.372 -0.18 0.372Z m -3.048 1.752c 0.012 0.42 0.072 0.876 0.24 1.116c 0.192 0.288 0.516 0.408 0.648 0.408c 0.324 0 0.768 -0.312 0.768 -1.272c 0 -0.072 0 -0.228 -0.024 -0.252Z "/></symbol><symbol id="g97663EC9AEA74EADA07472643E1BE1B4" overflow="visible"><path d="M 0 0m 1.824 -0.08c 0.616 0 1.552 0.624 1.552 2.504c 0 0.792 -0.192 1.472 -0.544 1.936c -0.208 0.28 -0.544 0.52 -0.976 0.52c -0.792 0 -1.544 -0.944 -1.544 -2.528c 0 -0.856 0.264 -1.656 0.704 -2.096c 0.224 -0.224 0.496 -0.336 0.808 -0.336Z m 0.032 4.68c 0.136 0 0.264 -0.048 0.36 -0.136c 0.248 -0.208 0.464 -0.816 0.464 -1.888c 0 -0.736 -0.024 -1.24 -0.136 -1.648c -0.176 -0.656 -0.568 -0.728 -0.712 -0.728c -0.744 0 -0.824 1.368 -0.824 2.064c 0 1.968 0.488 2.336 0.848 2.336Z "/></symbol><symbol id="gAD9C87F854BDA42EDABFFB35EC1FA84E" overflow="visible"><path d="M 0 0m 0.488 3.744c 0 -0.168 0.152 -0.312 0.32 -0.312c 0.136 0 0.376 0.144 0.376 0.32c 0 0.064 -0.016 0.112 -0.032 0.168c -0.016 0.056 -0.064 0.128 -0.064 0.192c 0 0.2 0.208 0.488 0.792 0.488c 0.288 0 0.696 -0.2 0.696 -0.968c 0 -0.512 -0.184 -0.928 -0.656 -1.408l -0.592 -0.584c -0.784 -0.8 -0.912 -1.184 -0.912 -1.656c 0 0 0.408 0.016 0.664 0.016h 1.4c 0.256 0 0.624 -0.016 0.624 -0.016c 0.104 0.424 0.184 1.024 0.192 1.264c -0.048 0.04 -0.152 0.056 -0.232 0.04c -0.136 -0.568 -0.272 -0.768 -0.56 -0.768h -1.424c 0 0.384 0.552 0.928 0.592 0.968l 0.808 0.776c 0.456 0.44 0.8 0.792 0.8 1.4c 0 0.864 -0.704 1.216 -1.352 1.216c -0.888 0 -1.44 -0.656 -1.44 -1.136Z "/></symbol><symbol id="gF821431C61A4D7F3ECEFEC074E9C0EFC" overflow="visible"><path d="M 0 0m 3.44 1.752h -0.664v 2.336c 0 0.4 0 0.712 0.016 0.776l -0.016 0.016h -0.256c -0.056 0 -0.096 -0.048 -0.128 -0.088c -0.504 -0.616 -1.432 -1.936 -2.168 -3.08c 0.024 -0.12 0.072 -0.336 0.312 -0.336h 1.632v -0.736c 0 -0.368 -0.304 -0.368 -0.648 -0.392c -0.048 -0.048 -0.048 -0.216 0 -0.264c 0.256 0.008 0.576 0.016 0.944 0.016c 0.312 0 0.616 -0.008 0.872 -0.016c 0.048 0.048 0.048 0.216 0 0.264c -0.392 0.032 -0.56 0.016 -0.56 0.392v 0.736h 0.552c 0.112 0 0.232 0.152 0.232 0.248c 0 0.08 -0.032 0.128 -0.12 0.128Z m -1.272 2.304v -2.304h -1.528c 0.408 0.656 0.976 1.552 1.528 2.304Z "/></symbol><symbol id="gAFC6ADE0F4BA5C584B85DD0E8532505B" overflow="visible"><path d="M 0 0m 1.152 2.744c 0.216 0.728 0.728 1.536 1.792 1.936c 0 0.096 -0.032 0.168 -0.096 0.208c -0.808 -0.24 -1.304 -0.576 -1.752 -1.096c -0.496 -0.576 -0.744 -1.304 -0.744 -1.936c 0 -1.624 0.92 -1.944 1.536 -1.944c 1.048 0 1.48 1.016 1.48 1.704c 0 0.688 -0.368 1.304 -1.456 1.304c -0.208 0 -0.52 -0.064 -0.76 -0.176Z m -0.072 -0.288c 0.264 0.176 0.528 0.184 0.664 0.184c 0.784 0 0.96 -0.768 0.96 -1.168c 0 -0.88 -0.336 -1.28 -0.728 -1.28c -0.504 0 -0.96 0.272 -0.96 1.64c 0 0.184 0.016 0.392 0.064 0.624Z "/></symbol><symbol id="g7A967AE9E3CD4C643CC5E64A109A19AA" overflow="visible"><path d="M 0 0m 3.144 3.88c 0 0.576 -0.448 1 -1.232 1c -0.816 0 -1.344 -0.488 -1.344 -1.104c 0 -0.448 0.216 -0.776 0.704 -1.08l 0.208 -0.128c -0.232 -0.12 -0.448 -0.264 -0.648 -0.44c -0.328 -0.288 -0.464 -0.648 -0.464 -0.96c 0 -0.816 0.576 -1.248 1.424 -1.248c 1.048 0 1.56 0.768 1.56 1.376c 0 0.464 -0.2 0.872 -0.624 1.128l -0.568 0.344c 0.376 0.184 0.984 0.6 0.984 1.112Z m -1.336 -3.68c -0.36 0 -0.904 0.248 -0.904 0.968c 0 0.24 0.104 0.8 0.792 1.256l 0.376 -0.224c 0.496 -0.304 0.696 -0.68 0.696 -1.064c 0 -0.8 -0.6 -0.936 -0.96 -0.936Z m 0.064 4.4c 0.52 0 0.712 -0.344 0.712 -0.712c 0 -0.432 -0.424 -0.792 -0.64 -0.952l -0.248 0.152c -0.504 0.328 -0.56 0.592 -0.56 0.84c 0 0.368 0.256 0.672 0.736 0.672Z "/></symbol><symbol id="g8C50DFC0B8272CD73341C65811BD0E92" overflow="visible"><path d="M 0 0m 2.304 0.976v 2.776c 0 0.48 0.008 0.968 0.024 1.072c 0 0.04 -0.016 0.04 -0.048 0.04c -0.44 -0.272 -0.864 -0.472 -1.568 -0.8c 0.016 -0.088 0.048 -0.168 0.12 -0.216c 0.368 0.152 0.544 0.2 0.696 0.2c 0.136 0 0.16 -0.192 0.16 -0.464v -2.608c 0 -0.664 -0.216 -0.704 -0.776 -0.728c -0.048 -0.048 -0.048 -0.216 0 -0.264c 0.392 0.008 0.68 0.016 1.112 0.016c 0.384 0 0.576 -0.008 0.976 -0.016c 0.048 0.048 0.048 0.216 0 0.264c -0.56 0.024 -0.696 0.064 -0.696 0.728Z "/></symbol><symbol id="gC375F277B20C2526627B56EF0039913" overflow="visible"><path d="M 0 0m 3.213 -0.09c 0.873 0 1.674 0.414 2.286 1.215c -0.045 0.081 -0.108 0.135 -0.207 0.135c -0.639 -0.702 -1.251 -0.981 -2.088 -0.981c -1.215 0 -2.052 1.368 -2.052 2.682c 0 0.774 0.207 1.422 0.531 1.827c 0.45 0.549 0.972 0.801 1.44 0.801c 1.242 0 1.737 -0.738 1.971 -1.512c 0.108 -0.036 0.198 -0.009 0.297 0.045c -0.045 0.468 -0.108 0.9 -0.198 1.395c -0.459 0.045 -0.864 0.405 -1.971 0.405c -0.765 0 -1.404 -0.279 -1.935 -0.765c -0.594 -0.549 -0.954 -1.431 -0.954 -2.367c 0 -1.566 0.945 -2.88 2.88 -2.88Z "/></symbol><symbol id="gF71CD90141C058754731CB923424AFF5" overflow="visible"><path d="M 0 0m 0.369 1.845c 0 -0.918 0.612 -1.935 1.89 -1.935c 0.576 0 1.017 0.207 1.323 0.504c 0.405 0.396 0.585 0.963 0.585 1.512c 0 0.936 -0.513 2.025 -1.89 2.025c -0.594 0 -1.08 -0.243 -1.413 -0.63c -0.324 -0.387 -0.495 -0.909 -0.495 -1.476Z m 1.773 1.791c 0.774 0 1.251 -0.702 1.251 -1.998c 0 -1.134 -0.585 -1.413 -1.008 -1.413c -0.936 0 -1.242 1.134 -1.242 1.827c 0 0.783 0.189 1.584 0.999 1.584Z "/></symbol><symbol id="gB47AF1E8EB8505E9D708624CF420FCE1" overflow="visible"><path d="M 0 0m 1.953 -0.09c 0.351 0 0.774 0.18 1.215 0.54c 0.045 0.036 0.126 0.054 0.135 -0.009c 0.027 -0.225 0.099 -0.531 0.099 -0.531c 0.072 -0.027 0.117 -0.018 0.171 0c 0.198 0.162 0.513 0.297 1.062 0.36c 0.054 0.054 0.054 0.189 0 0.243c -0.576 0.045 -0.657 0.216 -0.657 0.657v 1.728c 0 0.27 0.036 0.927 0.036 0.927c 0 0.027 -0.027 0.054 -0.072 0.054c -0.045 -0.009 -0.18 -0.018 -0.315 -0.018c -0.288 0 -0.612 0.009 -0.918 0.018c -0.054 -0.054 -0.054 -0.243 0 -0.297c 0.441 -0.027 0.558 -0.135 0.558 -0.729v -1.737c 0 -0.171 -0.018 -0.243 -0.144 -0.351c -0.333 -0.288 -0.675 -0.432 -0.9 -0.432c -0.27 0 -0.72 0.126 -0.72 0.927v 1.638c 0 0.27 0.036 0.927 0.036 0.927c 0 0.027 -0.027 0.054 -0.072 0.054c -0.045 -0.009 -0.18 -0.018 -0.315 -0.018c -0.288 0 -0.612 0.009 -0.918 0.018c -0.054 -0.054 -0.054 -0.243 0 -0.297c 0.432 -0.036 0.558 -0.135 0.558 -0.72v -1.728c 0 -0.621 0.27 -1.224 1.161 -1.224Z "/></symbol><symbol id="g75829AE9E8B7E42D7FCDFD5712A16351" overflow="visible"><path d="M 0 0m 1.656 3.222c -0.054 -0.063 -0.108 -0.081 -0.108 0c -0.009 0.243 -0.027 0.594 -0.072 0.684c -0.018 0.045 -0.036 0.072 -0.108 0.072c -0.252 -0.099 -0.486 -0.18 -1.107 -0.261c -0.018 -0.054 0 -0.198 0.018 -0.252c 0.486 -0.045 0.585 -0.09 0.585 -0.612v -1.755c 0 -0.738 -0.09 -0.774 -0.63 -0.819c -0.054 -0.054 -0.054 -0.243 0 -0.297c 0.27 0.009 0.63 0.018 0.99 0.018c 0.36 0 0.63 -0.009 0.9 -0.018c 0.054 0.054 0.054 0.243 0 0.297c -0.459 0.045 -0.549 0.081 -0.549 0.819v 1.476c 0 0.189 0.081 0.297 0.153 0.378c 0.342 0.333 0.747 0.531 1.098 0.531c 0.18 0 0.369 -0.117 0.477 -0.324c 0.09 -0.18 0.108 -0.423 0.108 -0.693v -1.368c 0 -0.738 -0.09 -0.774 -0.558 -0.819c -0.045 -0.054 -0.045 -0.243 0 -0.297c 0.27 0.009 0.558 0.018 0.918 0.018c 0.36 0 0.684 -0.009 0.954 -0.018c 0.045 0.054 0.045 0.243 0 0.297c -0.504 0.045 -0.603 0.081 -0.603 0.819v 1.341c 0 0.495 -0.036 0.927 -0.243 1.206c -0.153 0.198 -0.432 0.306 -0.747 0.306c -0.441 0 -0.945 -0.117 -1.476 -0.729Z "/></symbol><symbol id="g5277906DC426125FD25A938CB480528C" overflow="visible"><path d="M 0 0m 0.387 3.861c -0.126 0 -0.162 -0.108 -0.162 -0.18v -0.117c 0 -0.045 0.009 -0.054 0.045 -0.054h 0.531v -2.709c 0 -0.639 0.279 -0.891 0.693 -0.891c 0.414 0 0.864 0.198 1.215 0.594c -0.018 0.09 -0.072 0.144 -0.162 0.153c -0.234 -0.18 -0.504 -0.252 -0.738 -0.252c -0.243 0 -0.297 0.27 -0.297 0.828v 2.277h 0.936c 0.09 0 0.216 0.036 0.216 0.117v 0.18c 0 0.036 -0.027 0.054 -0.072 0.054h -1.08v 0.351c 0 0.585 0.036 0.945 0.036 0.945c 0 0.054 -0.027 0.081 -0.072 0.081c -0.036 0 -0.117 -0.036 -0.198 -0.081c -0.099 -0.054 -0.189 -0.099 -0.306 -0.126c -0.108 -0.036 -0.198 -0.063 -0.198 -0.126c 0 -0.108 0.027 -0.045 0.027 -1.044Z "/></symbol></defs></svg>