<svg class="typst-doc" viewBox="0 0 294.46456692913387 294.4645669291338" width="294.46456692913387pt" height="294.4645669291338pt" xmlns="http://www.w3.org/2000/svg" xmlns:xlink="http://www.w3.org/1999/xlink" xmlns:h5="http://www.w3.org/1999/xhtml">
    <path class="typst-shape" fill="#161616" fill-rule="nonzero" d="M 0 0v 294.46457 h 294.46457 v -294.46457 Z "/>
    <g>
        <g class="typst-group" transform="matrix(1 0 0 1 5.5 5.5)">
            <g>
                <path class="typst-shape" fill="#161616" fill-rule="nonzero" d="M 0 0v 283.46457 h 283.46457 v -283.46457 Z "/>
                <g class="typst-group" transform="matrix(1 0 0 1 5 5)">
                    <g>
                        <g class="typst-group">
                            <g>
                                <g class="typst-group">
                                    <g>
                                        <g class="typst-text" transform="matrix(1 0 0 -1 0 7.74)">
                                            <use xlink:href="#g9E3C05302A8D12EB240EF7F247BB6E71" x="0" y="0" fill="#f5f5f4" fill-rule="nonzero"/>
                                            <use xlink:href="#g1951DDF9F30EBD28D3C4AA231CFA709C" x="8.88" y="0" fill="#f5f5f4" fill-rule="nonzero"/>
                                            <use xlink:href="#gBCFB68765600734A11C90FA77D4E5684" x="16.272000000000002" y="0" fill="#f5f5f4" fill-rule="nonzero"/>
                                            <use xlink:href="#gE6E03275DEE727A825EEF7268B1D1963" x="22.524" y="0" fill="#f5f5f4" fill-rule="nonzero"/>
                                            <use xlink:href="#g16737E20F25473C2F8CD81D6D33FCAC" x="29.700000000000003" y="0" fill="#f5f5f4" fill-rule="nonzero"/>
                                            <use xlink:href="#g1C6A4AA9B7AC8C4DB8E9EB1C0AB0D435" x="33.6" y="0" fill="#f5f5f4" fill-rule="nonzero"/>
                                            <use xlink:href="#g9AF74FBC572B8628892E52E532F3364D" x="39.672000000000004" y="0" fill="#f5f5f4" fill-rule="nonzero"/>
                                            <use xlink:href="#g9E3C05302A8D12EB240EF7F247BB6E71" x="47.80800000000001" y="0" fill="#f5f5f4" fill-rule="nonzero"/>
                                            <use xlink:href="#gB83617D77D566DFE6CF1433F0C883814" x="56.68800000000001" y="0" fill="#f5f5f4" fill-rule="nonzero"/>
                                            <use xlink:href="#gD225DC8159FE01C84C86E20E78C68C8C" x="63.42000000000001" y="0" fill="#f5f5f4" fill-rule="nonzero"/>
                                            <use xlink:href="#gA7D11E60B885D5CBB2D392486D940CAD" x="67.284" y="0" fill="#f5f5f4" fill-rule="nonzero"/>
                                            <use xlink:href="#gE1F5FF9DBDB39AA1ED509037A1AB6AEE" x="75.408" y="0" fill="#f5f5f4" fill-rule="nonzero"/>
                                            <use xlink:href="#gD225DC8159FE01C84C86E20E78C68C8C" x="85.212" y="0" fill="#f5f5f4" fill-rule="nonzero"/>
                                            <use xlink:href="#g56ADBDA6CCEF262A635F0EB3A46D766B" x="89.07600000000001" y="0" fill="#f5f5f4" fill-rule="nonzero"/>
                                            <use xlink:href="#g56ADBDA6CCEF262A635F0EB3A46D766B" x="95.808" y="0" fill="#f5f5f4" fill-rule="nonzero"/>
                                            <use xlink:href="#gE18A31EE7F4C0507CDB4CF71BD10D20C" x="102.54" y="0" fill="#f5f5f4" fill-rule="nonzero"/>
                                            <use xlink:href="#g1951DDF9F30EBD28D3C4AA231CFA709C" x="108.408" y="0" fill="#f5f5f4" fill-rule="nonzero"/>
                                        </g>
                                    </g>
                                </g>
                                <g class="typst-group" transform="matrix(1 0 0 1 0 14.940000000000001)">
                                    <g>
                                        <path class="typst-shape" fill="none" stroke="#595959" stroke-width="0.4" stroke-linecap="butt" stroke-linejoin="miter" stroke-miterlimit="4" transform="matrix(1 0 0 1 135.35247528269494 109.12433355041145)" d="M 0 0m 15.379966 0 c -8.48642 0 -15.379966 6.8935466 -15.379966 15.379966 c 0 8.486419 6.8935466 15.379966 15.379966 15.379966 c 8.486419 0 15.379966 -6.893547 15.379966 -15.379966 c 0 -8.48642 -6.893547 -15.379966 -15.379966 -15.379966 Z "/>
                                        <path class="typst-shape" fill="none" stroke="#595959" stroke-width="0.4" stroke-linecap="butt" stroke-linejoin="miter" stroke-miterlimit="4" transform="matrix(1 0 0 1 119.97250962050796 93.74436788822447)" d="M 0 0m 30.759932 0 c -16.97284 0 -30.759932 13.787093 -30.759932 30.759932 c 0 16.972837 13.787093 30.759932 30.759932 30.759932 c 16.972837 0 30.759932 -13.787094 30.759932 -30.759932 c 0 -16.97284 -13.787094 -30.759932 -30.759932 -30.759932 Z "/>
                                        <path class="typst-shape" fill="none" stroke="#595959" stroke-width="0.4" stroke-linecap="butt" stroke-linejoin="miter" stroke-miterlimit="4" transform="matrix(1 0 0 1 104.592543958321 78.36440222603751)" d="M 0 0m 46.139896 0 c -25.459257 0 -46.139896 20.68064 -46.139896 46.139896 c 0 25.459255 20.68064 46.139896 46.139896 46.139896 c 25.459255 0 46.139896 -20.680641 46.139896 -46.139896 c 0 -25.459257 -20.680641 -46.139896 -46.139896 -46.139896 Z "/>
                                        <path class="typst-shape" fill="none" stroke="#595959" stroke-width="0.4" stroke-linecap="butt" stroke-linejoin="miter" stroke-miterlimit="4" transform="matrix(1 0 0 1 89.21257829613405 62.98443656385057)" d="M 0 0m 61.519863 0 c -33.94568 0 -61.519863 27.574186 -61.519863 61.519863 c 0 33.945675 27.574186 61.519863 61.519863 61.519863 c 33.945675 0 61.519863 -27.574188 61.519863 -61.519863 c 0 -33.94568 -27.574188 -61.519863 -61.519863 -61.519863 Z "/>
                                        <path class="typst-shape" fill="none" stroke="#595959" stroke-width="0.4" stroke-linecap="butt" stroke-linejoin="miter" stroke-miterlimit="4" transform="matrix(1 0 0 1 73.83261263394708 47.604470901663575)" d="M 0 0m 76.899826 0 c -42.43209 0 -76.899826 34.467735 -76.899826 76.899826 c 0 42.4321 34.467735 76.899826 76.899826 76.899826 c 42.4321 0 76.899826 -34.467728 76.899826 -76.899826 c 0 -42.43209 -34.467728 -76.899826 -76.899826 -76.899826 Z "/>
                                        <path class="typst-shape" fill="none" stroke="#595959" stroke-width="0.4" stroke-linecap="butt" stroke-linejoin="miter" stroke-miterlimit="4" transform="matrix(1 0 0 1 58.45264697176012 32.22450523947661)" d="M 0 0m 92.27979 0 c -50.918514 0 -92.27979 41.36128 -92.27979 92.27979 c 0 50.91851 41.36128 92.27979 92.27979 92.27979 c 50.91851 0 92.27979 -41.361282 92.27979 -92.27979 c 0 -50.918514 -41.361282 -92.27979 -92.27979 -92.27979 Z "/>
                                        <path class="typst-shape" fill="none" stroke="#595959" stroke-width="0.4" stroke-linecap="butt" stroke-linejoin="miter" stroke-miterlimit="4" transform="matrix(1 0 0 1 43.07268130957316 16.844539577289694)" d="M 0 0m 107.65976 0 c -59.404934 0 -107.65976 48.254826 -107.65976 107.65976 c 0 59.404938 48.254826 107.65976 107.65976 107.65976 c 59.404938 0 107.65976 -48.25482 107.65976 -107.65976 c 0 -59.404934 -48.25482 -107.65976 -107.65976 -107.65976 Z "/>
                                        <path class="typst-shape" fill="none" stroke="#595959" stroke-width="0.4" stroke-linecap="butt" stroke-linejoin="miter" stroke-miterlimit="4" transform="matrix(1 0 0 1 150.7324409448819 77.53674797948024)" d="M 0 0m 0 46.967552 l 113.3897 -46.967552 "/>
                                        <path class="typst-shape" fill="none" stroke="#595959" stroke-width="0.4" stroke-linecap="butt" stroke-linejoin="miter" stroke-miterlimit="4" transform="matrix(1 0 0 1 150.7324409448819 124.50429921259841)" d="M 0 0v 122.732124 "/>
                                        <path class="typst-shape" fill="none" stroke="#595959" stroke-width="0.4" stroke-linecap="butt" stroke-linejoin="miter" stroke-miterlimit="4" transform="matrix(1 0 0 1 37.34274176643482 77.53674797948032)" d="M 0 0m 113.3897 46.967552 l -113.3897 -46.967552 "/>
                                        <path class="typst-shape" fill="none" transform="matrix(1 0 0 1 28.00031496062992 0)" d="M 0 0h 245.46425 v 249.0086 h -245.46425 v -249.0086 Z "/>
                                        <g class="typst-group">
                                            <g>
                                                <g class="typst-group" transform="matrix(1 0 0 1 28.000314866141707 -0.000000000000028645502418044983)">
                                                    <g>
                                                        <g class="typst-group">
                                                            <g>
                                                                <path class="typst-shape" fill="#e69f00" fill-rule="nonzero" transform="matrix(1 0 0 1 122.73212598425195 12.649706979743321)" d="M 0 0m 33.93072 0 l 9.281372 3.2476928 l 8.975559 4.016305 l 8.606228 4.7564945 l 8.175991 5.4630203 l 7.687889 6.130886 l 7.145378 6.7553635 l 6.552307 7.332035 l 5.912857 7.8568115 l 5.2315674 8.325989 l 4.5132523 8.736244 l 3.7629929 9.084671 l 2.9861069 9.368813 l 2.1880875 9.586639 l 1.3745804 9.736626 l 0.55135345 9.817711 l -0.27578735 9.829308 l -1.1009598 9.771355 l -1.9183578 9.644226 l -2.7221756 9.448883 l -3.5067215 9.18663 l -4.2664566 8.85939 l -103.085785 -55.100502 l 33.93072 -111.85459 Z "/>
                                                                <path class="typst-shape" fill="#009e73" fill-rule="nonzero" transform="matrix(1 0 0 1 27.38571695256895 33.2545002857956)" d="M 0 0m 11.250113 136.20021 l -3.4805298 -7.2274017 l -2.8607478 -7.494362 l -2.22072 -7.70829 l -1.5649763 -7.8676605 l -0.898157 -7.971367 l -0.22498156 -8.018646 l 0.4497861 -8.009186 l 1.1213707 -7.943039 l 1.7850192 -7.8206787 l 2.4360352 -7.642975 l 3.0698113 -7.4111824 l 3.6818619 -7.126934 l 4.2678566 -6.7922554 l 4.8236485 -6.409506 l 5.3453007 -5.981394 l 5.8291245 -5.510954 l 6.271702 -5.0015135 l 6.6698837 -4.4566746 l 7.02087 -3.8802981 l 7.3221703 -3.2764597 l 7.571644 -2.6494336 l 27.680328 91.2498 l -84.0963 44.95041 Z "/>
                                                                <path class="typst-shape" fill="#56b4e9" fill-rule="nonzero" transform="matrix(1 0 0 1 82.30995360486835 124.50429921259841)" d="M 0 0m 80.844345 33.17362 l -2.9312973 3.2801208 l -3.1966171 3.0221367 l -3.4393158 2.7427635 l -3.6576767 2.443985 l -3.8501587 2.127903 l -4.015381 1.7967682 l -4.152195 1.4529152 l -4.259617 1.0987816 l -4.336899 0.7368698 l -4.3834877 0.36974335 h -4.3990555 l -4.3834877 -0.36974335 l -4.336899 -0.7368698 l -4.2596188 -1.0987816 l -4.152193 -1.4529152 l -4.015383 -1.7967682 l -3.850154 -2.127903 l -3.6576796 -2.443985 l -3.4393182 -2.7427635 l -3.1966178 -3.0221367 l -2.9312942 -3.2801208 l 40.422173 -33.17362 l 40.422173 33.17362 Z "/>
                                                            </g>
                                                        </g>
                                                    </g>
                                                </g>
                                            </g>
                                        </g>
                                        <path class="typst-shape" fill="none" transform="matrix(1 0 0 1 148.87244094488187 121.8322992125984)" d="M 0 0h 3.72 v 5.344 h -3.72 v -5.344 Z "/>
                                        <g class="typst-group">
                                            <g>
                                                <g class="typst-group" transform="matrix(1 0 0 1 148.8724408503937 121.83229913385826)">
                                                    <g>
                                                        <g class="typst-text" transform="matrix(1 0 0 -1 0 5.264)">
                                                            <use xlink:href="#gD19907EFE37A88D91A1842A7B6777F5E" x="0" y="0" fill="#f5f5f4" fill-rule="nonzero"/>
                                                        </g>
                                                    </g>
                                                </g>
                                            </g>
                                        </g>
                                        <path class="typst-shape" fill="none" transform="matrix(1 0 0 1 147.01244094488192 106.45233355041144)" d="M 0 0h 7.44 v 5.344 h -7.44 v -5.344 Z "/>
                                        <g class="typst-group">
                                            <g>
                                                <g class="typst-group" transform="matrix(1 0 0 1 147.0124408976378 106.45233347167128)">
                                                    <g>
                                                        <g class="typst-text" transform="matrix(1 0 0 -1 0 5.264)">
                                                            <use xlink:href="#gC1C81677E5DD09F667720744317FAC66" x="0" y="0" fill="#f5f5f4" fill-rule="nonzero"/>
                                                            <use xlink:href="#gD19907EFE37A88D91A1842A7B6777F5E" x="3.72" y="0" fill="#f5f5f4" fill-rule="nonzero"/>
                                                        </g>
                                                    </g>
                                                </g>
                                            </g>
                                        </g>
                                        <path class="typst-shape" fill="none" transform="matrix(1 0 0 1 147.01244094488192 91.07236788822446)" d="M 0 0h 7.44 v 5.344 h -7.44 v -5.344 Z "/>
                                        <g class="typst-group">
                                            <g>
                                                <g class="typst-group" transform="matrix(1 0 0 1 147.0124408976378 91.0723678094843)">
                                                    <g>
                                                        <g class="typst-text" transform="matrix(1 0 0 -1 0 5.264)">
                                                            <use xlink:href="#gD00E24DA30413591BFEF6B5262DCA198" x="0" y="0" fill="#f5f5f4" fill-rule="nonzero"/>
                                                            <use xlink:href="#gD19907EFE37A88D91A1842A7B6777F5E" x="3.72" y="0" fill="#f5f5f4" fill-rule="nonzero"/>
                                                        </g>
                                                    </g>
                                                </g>
                                            </g>
                                        </g>
                                        <path class="typst-shape" fill="none" transform="matrix(1 0 0 1 147.01244094488192 75.68840222603752)" d="M 0 0h 7.44 v 5.352 h -7.44 v -5.352 Z "/>
                                        <g class="typst-group">
                                            <g>
                                                <g class="typst-group" transform="matrix(1 0 0 1 147.0124408976378 75.68840217879342)">
                                                    <g>
                                                        <g class="typst-text" transform="matrix(1 0 0 -1 0 5.264)">
                                                            <use xlink:href="#gA969FD5A3A1009CB71FFC789F9A002CE" x="0" y="0" fill="#f5f5f4" fill-rule="nonzero"/>
                                                            <use xlink:href="#gD19907EFE37A88D91A1842A7B6777F5E" x="3.72" y="0" fill="#f5f5f4" fill-rule="nonzero"/>
                                                        </g>
                                                    </g>
                                                </g>
                                            </g>
                                        </g>
                                        <path class="typst-shape" fill="none" transform="matrix(1 0 0 1 147.01244094488192 60.31243656385056)" d="M 0 0h 7.44 v 5.344 h -7.44 v -5.344 Z "/>
                                        <g class="typst-group">
                                            <g>
                                                <g class="typst-group" transform="matrix(1 0 0 1 147.0124408976378 60.31243648511041)">
                                                    <g>
                                                        <g class="typst-text" transform="matrix(1 0 0 -1 0 5.264)">
                                                            <use xlink:href="#gF9420FD099620D6D5D037A1F08292FAD" x="0" y="0" fill="#f5f5f4" fill-rule="nonzero"/>
                                                            <use xlink:href="#gD19907EFE37A88D91A1842A7B6777F5E" x="3.72" y="0" fill="#f5f5f4" fill-rule="nonzero"/>
                                                        </g>
                                                    </g>
                                                </g>
                                            </g>
                                        </g>
                                        <path class="typst-shape" fill="none" transform="matrix(1 0 0 1 145.1524409448819 44.93247090166357)" d="M 0 0h 11.16 v 5.344 h -11.16 v -5.344 Z "/>
                                        <g class="typst-group">
                                            <g>
                                                <g class="typst-group" transform="matrix(1 0 0 1 145.1524409448819 44.93247082292342)">
                                                    <g>
                                                        <g class="typst-text" transform="matrix(1 0 0 -1 0 5.264)">
                                                            <use xlink:href="#g432531CD5C98677D6510903614E4467A" x="0" y="0" fill="#f5f5f4" fill-rule="nonzero"/>
                                                            <use xlink:href="#gD19907EFE37A88D91A1842A7B6777F5E" x="3.72" y="0" fill="#f5f5f4" fill-rule="nonzero"/>
                                                            <use xlink:href="#gD19907EFE37A88D91A1842A7B6777F5E" x="7.44" y="0" fill="#f5f5f4" fill-rule="nonzero"/>
                                                        </g>
                                                    </g>
                                                </g>
                                            </g>
                                        </g>
                                        <path class="typst-shape" fill="none" transform="matrix(1 0 0 1 145.1524409448819 29.552505239476627)" d="M 0 0h 11.16 v 5.344 h -11.16 v -5.344 Z "/>
                                        <g class="typst-group">
                                            <g>
                                                <g class="typst-group" transform="matrix(1 0 0 1 145.1524409448819 29.55250516073645)">
                                                    <g>
                                                        <g class="typst-text" transform="matrix(1 0 0 -1 0 5.264)">
                                                            <use xlink:href="#g432531CD5C98677D6510903614E4467A" x="0" y="0" fill="#f5f5f4" fill-rule="nonzero"/>
                                                            <use xlink:href="#gC1C81677E5DD09F667720744317FAC66" x="3.72" y="0" fill="#f5f5f4" fill-rule="nonzero"/>
                                                            <use xlink:href="#gD19907EFE37A88D91A1842A7B6777F5E" x="7.44" y="0" fill="#f5f5f4" fill-rule="nonzero"/>
                                                        </g>
                                                    </g>
                                                </g>
                                            </g>
                                        </g>
                                        <path class="typst-shape" fill="none" transform="matrix(1 0 0 1 145.1524409448819 14.172539577289712)" d="M 0 0h 11.16 v 5.344 h -11.16 v -5.344 Z "/>
                                        <g class="typst-group">
                                            <g>
                                                <g class="typst-group" transform="matrix(1 0 0 1 145.1524409448819 14.172539498549536)">
                                                    <g>
                                                        <g class="typst-text" transform="matrix(1 0 0 -1 0 5.264)">
                                                            <use xlink:href="#g432531CD5C98677D6510903614E4467A" x="0" y="0" fill="#f5f5f4" fill-rule="nonzero"/>
                                                            <use xlink:href="#gD00E24DA30413591BFEF6B5262DCA198" x="3.72" y="0" fill="#f5f5f4" fill-rule="nonzero"/>
                                                            <use xlink:href="#gD19907EFE37A88D91A1842A7B6777F5E" x="7.44" y="0" fill="#f5f5f4" fill-rule="nonzero"/>
                                                        </g>
                                                    </g>
                                                </g>
                                            </g>
                                        </g>
                                        <path class="typst-shape" fill="none" transform="matrix(1 0 0 1 1.4833346456692915 113.07879921259841)" d="M 0 0m 0 22.851 l 0.0000000000000015735444 -22.851 h 6.039 v 22.851 h -6.039 Z "/>
                                        <g class="typst-group">
                                            <g>
                                                <g class="typst-group" transform="matrix(0.00000000000000006123233995736766 -1 1 0.00000000000000006123233995736766 1.4833345039370085 135.9297992125984)">
                                                    <g>
                                                        <g class="typst-text" transform="matrix(1 0 0 -1 0 5.922000000000001)">
                                                            <use xlink:href="#gA8AF1DED67FBB66CA57265F6DAEF1D7F" x="0" y="0" fill="#f5f5f4" fill-rule="nonzero"/>
                                                            <use xlink:href="#g68280E27AE167FD83820414DF089996F" x="5.814" y="0" fill="#f5f5f4" fill-rule="nonzero"/>
                                                            <use xlink:href="#g418A47A35AB57644865506BF61FE4B72" x="10.35" y="0" fill="#f5f5f4" fill-rule="nonzero"/>
                                                            <use xlink:href="#gB6A4A840D6340EAD9040A87731938558" x="15.129" y="0" fill="#f5f5f4" fill-rule="nonzero"/>
                                                            <use xlink:href="#gFBD4E344D96ED3A9A07E1657F03CD509" x="20.007" y="0" fill="#f5f5f4" fill-rule="nonzero"/>
                                                        </g>
                                                    </g>
                                                </g>
                                            </g>
                                        </g>
                                    </g>
                                </g>
                            </g>
                        </g>
                    </g>
                </g>
            </g>
        </g>
    </g>
    <defs id="glyph">
        <symbol id="g9E3C05302A8D12EB240EF7F247BB6E71" overflow="visible">
            <path d="M 0 0m 1.98 0.948 l 0.6359999 1.668 c 0.06000018 0.15600014 0.13199997 0.204 0.42000008 0.204 h 2.28 l 0.67199993 -1.9559999 c 0.14400005 -0.432 -0.204 -0.444 -0.65999985 -0.46800002 c -0.07200003 0 -0.15600014 -0.0119999945 -0.22800016 -0.0119999945 c -0.07200003 -0.072 -0.07200003 -0.336 0 -0.408 c 0.44400024 0.012 1.5840001 0.024 2.052 0.024 c 0.4920001 0 1.164 -0.012 1.6080003 -0.024 c 0.07199955 0.072 0.07199955 0.336 0 0.408 c -0.4680004 0.048000008 -0.8640003 0.036000013 -1.0799999 0.64800006 l -2.4720001 6.864 c -0.1800003 -0.1079998 -0.9000001 -0.5279999 -1.3200002 -0.5279999 l -2.604 -6.144 c -0.31200004 -0.74399996 -0.67200005 -0.80399996 -1.2 -0.84 c -0.072 -0.072 -0.072 -0.336 0 -0.408 c 0.444 0.012 0.66 0.024 1.128 0.024 c 0.49199998 0 1.1520001 -0.012 1.5960001 -0.024 c 0.07200003 0.072 0.07200003 0.336 0 0.408 c -0.4560001 0.036000013 -1.0200001 0.072 -0.82800007 0.564 Z m 1.296 2.4480002 c -0.26399994 0 -0.34800005 0.035999775 -0.29999995 0.1559999 l 1.056 2.6880002 h 0.08400011 l 0.9839997 -2.844 Z "/>
        </symbol>
        <symbol id="g1951DDF9F30EBD28D3C4AA231CFA709C" overflow="visible">
            <path d="M 0 0m 2.736 1.464 v 2.412 c 0.48000002 0.32399988 0.96000004 0.5640001 1.1759999 0.5640001 c 0.48000026 0 0.8399999 -0.21600008 0.8399999 -0.9000001 v -2.004 c 0 -1.008 -0.19199991 -1.1159999 -0.684 -1.152 c -0.07199979 -0.072 -0.07199979 -0.336 0 -0.408 c 0.5040002 0.012 0.888 0.024 1.4640002 0.024 c 0.65999985 0 1.1880002 -0.012 1.704 -0.024 c 0.07200003 0.072 0.07200003 0.336 0 0.408 c -0.7319999 0.036000013 -0.9239998 0.144 -0.9239998 1.152 v 1.872 c 0 1.3200002 -0.5640001 1.9200001 -1.5960002 1.9200001 c -0.48000002 0 -1.332 -0.5279999 -1.9920001 -0.9840002 c -0.036000013 0.42000008 -0.08399987 0.7800002 -0.08399987 0.7800002 c -0.012000084 0.14400005 -0.10800004 0.204 -0.27600002 0.204 c -0.444 -0.119999886 -1.164 -0.2880001 -1.9920001 -0.3959999 c -0.024000019 -0.07200003 0 -0.31200027 0.023999989 -0.3840003 c 0.65999997 -0.059999943 0.78 -0.15599966 0.78 -0.8399999 v -2.244 c 0 -0.996 -0.13199997 -1.02 -0.86399996 -1.0799999 c -0.072 -0.072 -0.072 -0.336 0 -0.408 c 0.50399995 0.012 1.008 0.024 1.6439999 0.024 c 0.55200016 0 0.88800013 -0.012 1.4040002 -0.024 c 0.07199979 0.072 0.07199979 0.336 0 0.408 c -0.5040002 0.048000008 -0.6240001 0.08399999 -0.6240001 1.0799999 Z "/>
        </symbol>
        <symbol id="gBCFB68765600734A11C90FA77D4E5684" overflow="visible">
            <path d="M 0 0m 5.604 4.728 c 0.33599997 0 0.5279999 0.14400005 0.5279999 0.5879998 c 0 0.22800016 -0.3119998 0.5760002 -0.7680001 0.5760002 c -0.5279999 0 -1.224 -0.3960004 -1.5719998 -0.7080002 c -0.21600008 0.119999886 -0.46799994 0.14400005 -1.0080001 0.14400005 c -0.5159998 0 -1.0199999 -0.119999886 -1.4159999 -0.38399982 c -0.49200004 -0.31200027 -0.81600004 -0.7800002 -0.81600004 -1.3920002 c 0 -0.58800006 0.34800005 -1.224 0.9240001 -1.536 c -0.3720001 -0.324 -0.9480001 -0.96000004 -0.9480001 -1.2 c 0 -0.22799999 0.036000013 -0.37199998 0.15600002 -0.552 c 0.10799998 -0.168 0.25199997 -0.264 0.49199998 -0.336 c -0.516 -0.312 -1.044 -0.99599993 -1.044 -1.1999999 c 0 -0.444 0.144 -0.96000016 0.46800002 -1.1880001 c 0.46799994 -0.32399988 1.26 -0.3959999 1.8360001 -0.3959999 c 1.668 0 3.576 0.8759999 3.576 2.1959999 c 0 0.25200003 -0.119999886 0.768 -0.5999999 1.092 c -0.46799994 0.312 -2.2680001 0.396 -3.1560001 0.396 c -0.21600008 0 -0.5400001 0.023999989 -0.5400001 0.504 c 0 0.19200003 0.120000005 0.36 0.18000007 0.50399995 c 0.25199997 -0.120000005 0.50400007 -0.13199997 0.87600005 -0.13199997 c 0.612 0 1.1759999 0.15600002 1.5839999 0.51600003 c 0.34800005 0.31200004 0.5880003 0.7320001 0.5880003 1.2720001 c 0 0.67199993 -0.33600044 1.1159997 -0.74400043 1.4520001 c 0.096000195 0.119999886 0.4920001 0.33599997 0.61200047 0.33599997 c 0.1079998 0 0.19199991 -0.07200003 0.22799969 -0.14400005 c 0.04799986 -0.15600014 0.26399994 -0.408 0.5640001 -0.408 Z m -3.5040002 -5.0280004 c 0.924 0 2.7000003 -0.035999984 2.7000003 -0.672 c 0 -0.43200004 -0.19200039 -0.924 -0.5880003 -1.14 c -0.37199974 -0.21600008 -0.98399997 -0.24000001 -1.4399998 -0.24000001 c -0.79200006 0 -1.332 0.58799994 -1.332 1.2 c 0 0.40799993 0 0.68399996 0.13199997 0.92399997 c 0.120000005 -0.047999993 0.27600002 -0.07200001 0.5279999 -0.07200001 Z m 1.3800001 3.756 c 0 -1.1520002 -0.33599997 -1.296 -0.648 -1.296 c -0.74399996 0 -0.84000003 0.888 -0.84000003 1.5 c 0 0.8879998 0.21599996 1.2120001 0.68400013 1.2120001 c 0.5639999 0 0.8039999 -0.4680004 0.8039999 -1.4160001 Z "/>
        </symbol>
        <symbol id="gE6E03275DEE727A825EEF7268B1D1963" overflow="visible">
            <path d="M 0 0m 6.12 1.596 v 2.076 c 0 1.0079999 0.024000168 0.8640003 0.024000168 1.152 c 0 0.204 -0.04799986 0.33599997 -0.119999886 0.408 c -0.21600008 -0.011999607 -0.45600033 -0.023999691 -0.684 -0.023999691 c -0.33599997 0 -1.1160002 0.012000084 -1.5840001 0.023999691 c -0.07200003 -0.07200003 -0.07200003 -0.33599997 0 -0.408 c 0.612 -0.059999943 0.8039999 -0.14400005 0.8039999 -1.152 v -2.2199998 c 0 -0.120000005 0 -0.24000001 0.012000084 -0.36 c -0.4920001 -0.3 -0.888 -0.324 -1.1040001 -0.324 c -0.48000002 0 -0.8399999 0.060000002 -0.8399999 0.9 v 2.004 c 0 1.0079999 0.02399993 0.8640003 0.02399993 1.152 c 0 0.204 -0.04799986 0.33599997 -0.119999886 0.408 c -0.21600008 -0.011999607 -0.46799994 -0.023999691 -0.684 -0.023999691 c -0.612 0 -1.0680001 0.012000084 -1.5840001 0.023999691 c -0.072 -0.07200003 -0.072 -0.33599997 0 -0.408 c 0.552 -0.023999691 0.80399996 -0.14400005 0.80399996 -1.152 v -1.8719999 c 0 -1.2720001 0.50400007 -1.9200001 1.5360001 -1.9200001 c 0.43199992 0 1.3079998 0.348 2.0039997 0.732 c 0.024000168 -0.29999998 0.048000336 -0.528 0.048000336 -0.528 c 0.012000084 -0.144 0.1079998 -0.204 0.27600002 -0.204 c 0.44399977 0.120000005 1.164 0.288 1.9920001 0.396 c 0.023999691 0.072 0 0.312 -0.024000168 0.38400003 c -0.64800024 0.060000002 -0.7800002 0.25199997 -0.7800002 0.93599993 Z "/>
        </symbol>
        <symbol id="g16737E20F25473C2F8CD81D6D33FCAC" overflow="visible">
            <path d="M 0 0m 1.2 1.524 c 0 -0.99600005 -0.19200003 -1.1040001 -0.924 -1.1400001 c -0.072 -0.072 -0.072 -0.336 0 -0.408 c 0.50400007 0.012 1.044 0.024 1.704 0.024 c 0.6600001 0 1.188 -0.012 1.704 -0.024 c 0.07200003 0.072 0.07200003 0.336 0 0.408 c -0.7319999 0.036000013 -0.924 0.144 -0.924 1.1400001 v 5.472 c 0 0.77999973 0.036000013 1.224 0.036000013 1.224 c 0 0.1079998 -0.08399987 0.15600014 -0.19199991 0.15600014 c -0.444 -0.14400005 -1.404 -0.27600002 -2.256 -0.31200027 c -0.035999984 -0.14400005 -0.023999989 -0.27600002 0.036000013 -0.38399982 c 0.756 -0.06000042 0.81600004 -0.07200003 0.81600004 -0.9000001 Z "/>
        </symbol>
        <symbol id="g1C6A4AA9B7AC8C4DB8E9EB1C0AB0D435" overflow="visible">
            <path d="M 0 0m 3.54 0.588 c 0.08400011 -0.49199998 0.408 -0.708 0.9359999 -0.708 c 0.6600003 0 1.1280003 0.252 1.572 0.672 c -0.023999691 0.144 -0.07200003 0.24000001 -0.2159996 0.33600003 c -0.15600014 -0.120000005 -0.27600002 -0.16799998 -0.5040002 -0.16799998 c -0.26399994 0 -0.33599997 0.21599996 -0.33599997 0.804 l 0.024000168 1.728 c 0 1.7279999 -1.0680003 2.076 -2.0520003 2.076 c -0.8759999 0 -2.22 -0.5040002 -2.22 -1.296 c 0 -0.33599997 0.144 -0.60000014 0.61200005 -0.60000014 c 0.43199992 0 0.74399984 0.26400018 0.74399984 0.55200005 c 0 0.06000018 -0.0119998455 0.13200021 -0.02399993 0.20400023 c -0.02399993 0.119999886 -0.04799986 0.23999977 -0.02399993 0.35999966 c 0.012000084 0.13199997 0.10800004 0.27600002 0.50399995 0.27600002 c 0.50399995 0 0.924 -0.21600008 0.924 -1.7399998 l -0.8039999 -0.2520001 c -1.2600001 -0.3959999 -2.1480002 -0.74399996 -2.1480002 -1.692 c 0 -0.82799995 0.45600003 -1.26 1.5000001 -1.26 c 0.3479998 0 1.0439999 0.384 1.4399998 0.696 Z m -0.059999943 2.0279999 v -1.5839999 c -0.29999995 -0.24000007 -0.5999999 -0.43200004 -0.816 -0.43200004 c -0.51600003 0 -0.696 0.348 -0.696 0.72 c 0 0.444 0.035999894 0.81599987 0.8879999 1.0919999 Z "/>
        </symbol>
        <symbol id="g9AF74FBC572B8628892E52E532F3364D" overflow="visible">
            <path d="M 0 0m 2.736 3.216 c 0 0.43199992 0.13199997 0.612 0.28799987 0.7919998 c 0.096000195 0.12000036 0.204 0.204 0.38400006 0.204 c 0.10800004 0 0.24000001 -0.1079998 0.33599997 -0.22799993 c 0.08400011 -0.095999956 0.2880001 -0.19199991 0.5640001 -0.19199991 c 0.34800005 0 0.684 0.3599999 0.684 0.8640001 c 0 0.3119998 -0.36000013 0.67199993 -0.7920003 0.67199993 c -0.41999984 0 -0.8759997 -0.36000013 -1.4279997 -1.152 h -0.048000097 c -0.02399993 0.36000013 -0.08399987 0.94799995 -0.08399987 0.94799995 c -0.012000084 0.1079998 -0.10800004 0.204 -0.27600002 0.204 c -0.564 -0.14400005 -1.2 -0.3119998 -1.9920001 -0.3959999 c -0.024000019 -0.07200003 0 -0.3000002 0.023999989 -0.37200022 c 0.65999997 -0.059999943 0.78 -0.16799974 0.78 -0.852 v -2.244 c 0 -0.996 -0.13199997 -1.02 -0.86399996 -1.0799999 c -0.072 -0.072 -0.072 -0.336 0 -0.408 c 0.50399995 0.012 1.008 0.024 1.6439999 0.024 c 0.63600004 0 1.1280001 -0.012 1.6440002 -0.024 c 0.07199979 0.072 0.07199979 0.336 0 0.408 c -0.7320001 0.048000008 -0.8640001 0.08399999 -0.8640001 1.0799999 Z "/>
        </symbol>
        <symbol id="gB83617D77D566DFE6CF1433F0C883814" overflow="visible">
            <path d="M 0 0m 2.196 0.876 l 0.74399996 1.0440001 c 0.04799986 0.059999943 0.08399987 0.095999956 0.119999886 0.035999894 l 0.576 -1.092 c 0.20400023 -0.384 0.08400011 -0.42000002 -0.33599997 -0.48000002 c -0.07200003 -0.072 -0.07200003 -0.336 0 -0.408 c 0.24000001 0.012 0.99600005 0.024 1.6320002 0.024 c 0.6240001 0 1.368 -0.012 1.6079998 -0.024 c 0.07200003 0.072 0.07200003 0.336 0 0.408 c -0.44399977 0.072 -0.85199976 0.22799999 -1.2360001 0.80399996 l -1.0559998 1.572 c -0.059999943 0.095999956 -0.059999943 0.13199997 -0.024000168 0.18000007 l 1.0679998 1.296 c 0.33600044 0.408 0.7680001 0.55200005 1.1400003 0.5879998 c 0.07200003 0.07200003 0.07200003 0.33599997 0 0.408 c -0.24000025 -0.011999607 -0.612 -0.023999691 -1.0079999 -0.023999691 c -0.4680004 0 -0.96000004 0.012000084 -1.2000003 0.023999691 c -0.07200003 -0.07200003 -0.07200003 -0.33599997 0 -0.408 c 0.43200016 -0.035999775 0.5279999 -0.16799974 0.2880001 -0.5159998 l -0.648 -0.924 c -0.036000013 -0.059999943 -0.095999956 -0.059999943 -0.14400005 0.02399993 l -0.53999996 0.9120002 c -0.2520001 0.43199968 -0.095999956 0.45599985 0.3599999 0.5039997 c 0.07200003 0.07200003 0.07200003 0.33599997 0 0.408 c -0.24000001 -0.011999607 -1.02 -0.023999691 -1.68 -0.023999691 c -0.58800006 0 -1.2720001 0.012000084 -1.5120001 0.023999691 c -0.072 -0.07200003 -0.072 -0.33599997 0 -0.408 c 0.54 0 0.78000003 -0.32399988 1.1159999 -0.8039999 l 1.0680001 -1.5239999 c 0.036000013 -0.048000097 0.036000013 -0.095999956 -0.036000013 -0.18000007 l -1.1040001 -1.368 c -0.29999995 -0.384 -0.82799995 -0.51600003 -1.188 -0.564 c -0.072 -0.072 -0.072 -0.336 0 -0.408 c 0.24000001 0.012 0.612 0.024 0.99600005 0.024 c 0.5159999 0 1.0799999 -0.012 1.3199999 -0.024 c 0.07200003 0.072 0.07200003 0.336 0 0.408 c -0.21600008 0.048000008 -0.58799994 0.120000005 -0.32399988 0.49199998 Z "/>
        </symbol>
        <symbol id="gD225DC8159FE01C84C86E20E78C68C8C" overflow="visible">
            <path d="M 0 0m 2.784 1.464 v 2.388 c 0 0.60000014 0.048000097 1.2720001 0.048000097 1.2720001 c 0 0.13199997 -0.10800004 0.204 -0.27600002 0.204 c -0.33599997 -0.13199997 -1.308 -0.22800016 -2.136 -0.33599997 c -0.024000019 -0.07200003 0 -0.31200027 0.023999989 -0.3840003 c 0.65999997 -0.059999943 0.78 -0.15599966 0.78 -0.8399997 v -2.3040001 c 0 -0.996 -0.13199997 -1.02 -0.86399996 -1.0799999 c -0.07200003 -0.072 -0.07200003 -0.336 0 -0.408 c 0.504 0.012 1.008 0.024 1.6439999 0.024 c 0.63600016 0 1.128 -0.012 1.644 -0.024 c 0.07200003 0.072 0.07200003 0.336 0 0.408 c -0.7319999 0.048000008 -0.8640001 0.08399999 -0.8640001 1.0799999 Z m -1.6199999 5.6879997 c 0 -0.3959999 0.288 -0.7919998 0.768 -0.7919998 c 0.5400001 0 0.8519999 0.43200016 0.8519999 0.74399996 c 0 0.36000013 -0.27599978 0.7919998 -0.78 0.7919998 c -0.5639999 0 -0.8399999 -0.38399982 -0.8399999 -0.74399996 Z "/>
        </symbol>
        <symbol id="gA7D11E60B885D5CBB2D392486D940CAD" overflow="visible">
            <path d="M 0 0m 0.576 1.752 c 0.048000038 -0.58799994 0.10800004 -1.152 0.20400006 -1.608 c 0.22799999 -0.072 0.996 -0.264 1.668 -0.264 c 0.924 0 2.0760002 0.504 2.0760002 1.548 c 0 0.408 -0.096000195 0.7320001 -0.37200022 1.0320001 c -0.33599997 0.38400006 -0.8399999 0.684 -1.392 0.924 c -0.48000002 0.204 -0.648 0.58800006 -0.648 0.9360001 c 0 0.27600002 0.22799993 0.5039997 0.576 0.5039997 c 0.42000008 0 0.82800007 -0.38399982 1.128 -1.1159999 c 0.21600008 -0.036000013 0.34800005 -0.02399993 0.46799994 0.06000018 c 0 0.43199968 -0.04799986 0.888 -0.15599966 1.2719998 c -0.3840003 0.16800022 -0.68400025 0.2880001 -1.3440003 0.2880001 c -0.6359999 0 -1.236 -0.24000025 -1.6199999 -0.6240001 c -0.27600002 -0.27600002 -0.40800005 -0.612 -0.40800005 -0.9359999 c 0 -0.36000013 0.14400005 -0.648 0.37200004 -0.9000001 c 0.37199998 -0.408 1.0320001 -0.82800007 1.392 -0.99600005 c 0.48000002 -0.21599996 0.612 -0.648 0.612 -0.936 c 0 -0.384 -0.38400006 -0.588 -0.70799994 -0.588 c -0.53999996 0 -1.116 0.55200005 -1.368 1.428 c -0.19199997 0.036000013 -0.288 0.024000049 -0.48000002 -0.024000049 Z "/>
        </symbol>
        <symbol id="gE1F5FF9DBDB39AA1ED509037A1AB6AEE" overflow="visible">
            <path d="M 0 0m 6.768 6.276 v -1.8720002 h -3.72 v 1.8720002 c 0 0.9959998 0.33599997 1.0440001 0.99600005 1.0799999 c 0.119999886 0.07200003 0.119999886 0.33599997 0 0.408 c -0.48000002 -0.012000084 -1.3440001 -0.023999691 -1.8240001 -0.023999691 c -0.48000002 0 -1.368 0.011999607 -1.848 0.023999691 c -0.120000005 -0.07200003 -0.120000005 -0.33599997 0 -0.408 c 0.6600001 -0.035999775 0.99600005 -0.08400011 0.99600005 -1.0799999 v -4.8120003 c 0 -0.996 -0.33599997 -1.0439999 -0.99600005 -1.0799999 c -0.120000005 -0.072 -0.120000005 -0.336 0 -0.408 c 0.48 0.012 1.368 0.024 1.848 0.024 c 0.48000002 0 1.3440001 -0.012 1.8240001 -0.024 c 0.119999886 0.072 0.119999886 0.336 0 0.408 c -0.6600001 0.036000013 -0.99600005 0.08399999 -0.99600005 1.0799999 v 2.364 h 3.72 v -2.364 c 0 -0.996 -0.33599997 -1.0439999 -0.9960003 -1.0799999 c -0.119999886 -0.072 -0.119999886 -0.336 0 -0.408 c 0.48000002 0.012 1.368 0.024 1.848 0.024 c 0.4800005 0 1.3439999 -0.012 1.8240004 -0.024 c 0.119999886 0.072 0.119999886 0.336 0 0.408 c -0.65999985 0.036000013 -0.9960003 0.08399999 -0.9960003 1.0799999 v 4.8120003 c 0 0.9959998 0.33600044 1.0440001 0.9960003 1.0799999 c 0.119999886 0.07200003 0.119999886 0.33599997 0 0.408 c -0.4800005 -0.012000084 -1.3439999 -0.023999691 -1.8240004 -0.023999691 c -0.48000002 0 -1.368 0.011999607 -1.848 0.023999691 c -0.119999886 -0.07200003 -0.119999886 -0.33599997 0 -0.408 c 0.6600003 -0.035999775 0.9960003 -0.08400011 0.9960003 -1.0799999 Z "/>
        </symbol>
        <symbol id="g56ADBDA6CCEF262A635F0EB3A46D766B" overflow="visible">
            <path d="M 0 0m 4.26 0.576 c 0.023999691 -0.288 0.04799986 -0.49199998 0.04799986 -0.49199998 c 0.012000084 -0.144 0.1079998 -0.204 0.27600002 -0.204 c 0.44399977 0.120000005 1.164 0.288 1.9920001 0.396 c 0.023999691 0.072 0 0.312 -0.024000168 0.38400003 c -0.64799976 0.060000002 -0.7800002 0.25199997 -0.7800002 0.93599993 v 5.4000006 c 0 0.77999973 0.03600025 1.224 0.03600025 1.224 c 0 0.1079998 -0.08400011 0.15600014 -0.19199991 0.15600014 c -0.44400024 -0.14400005 -1.4040003 -0.27600002 -2.256 -0.31200027 c -0.036000013 -0.14400005 -0.024000168 -0.3000002 0.036000013 -0.408 c 0.7559998 -0.059999943 0.81599975 -0.07200003 0.81599975 -0.9000001 v -1.56 c -0.22799993 0.07200003 -0.5159998 0.13199997 -0.86399984 0.13199997 c -1.548 0 -2.904 -1.356 -2.904 -2.9520001 c 0 -0.70799994 0.25199997 -1.5359999 0.84000003 -1.9919999 c 0.43199992 -0.336 0.732 -0.504 1.4039999 -0.504 c 0.32400012 0 1.2120001 0.528 1.464 0.696 Z m -0.03600025 0.564 c -0.25199986 -0.204 -0.888 -0.468 -1.0320001 -0.468 c -0.5999999 0 -1.0679998 0.672 -1.0679998 2.076 c 0 0.63600016 0.07200003 1.1880002 0.29999995 1.5600002 c 0.204 0.32399988 0.5280001 0.5159998 0.888 0.5159998 c 0.31200004 0 0.612 -0.035999775 0.89999986 -0.43199968 v -2.9520001 c 0 -0.096000075 0 -0.204 0.012000084 -0.30000007 Z "/>
        </symbol>
        <symbol id="gE18A31EE7F4C0507CDB4CF71BD10D20C" overflow="visible">
            <path d="M 0 0m 5.172 1.548 c -0.4920001 -0.50399995 -1.1399999 -0.636 -1.596 -0.636 c -0.9359999 0 -1.5119998 0.54 -1.5119998 1.7160001 c 0 0.08400011 0.0119998455 0.13199997 0.0119998455 0.19199991 h 2.8799999 c 0.2880001 0 0.34800005 0.204 0.34800005 0.37199998 c 0 1.02 -0.3959999 2.1360002 -2.1599998 2.1360002 c -1.26 0 -2.7 -1.1160002 -2.7 -2.9520001 c 0 -0.69599986 0.25199997 -1.428 0.768 -1.8959999 c 0.45599997 -0.40800002 1.044 -0.6 1.896 -0.6 c 0.82800007 0 1.6439998 0.42000002 2.2440002 1.296 c 0 0.15600002 -0.06000042 0.37199998 -0.1800003 0.37199998 Z m -3.0479999 1.752 c 0.0119998455 0.42000008 0.07200003 0.87600017 0.24000001 1.1159999 c 0.19199991 0.2880001 0.51600003 0.408 0.648 0.408 c 0.32399988 0 0.7679999 -0.3119998 0.7679999 -1.2719998 c 0 -0.07200003 0 -0.22799993 -0.02399993 -0.2520001 Z "/>
        </symbol>
        <symbol id="gD19907EFE37A88D91A1842A7B6777F5E" overflow="visible">
            <path d="M 0 0m 1.8240001 -0.080000006 c 0.61599994 0 1.552 0.624 1.552 2.504 c 0 0.79200006 -0.19199991 1.4720001 -0.54400015 1.9360001 c -0.20799994 0.2800002 -0.5439999 0.52 -0.97599995 0.52 c -0.79200006 0 -1.544 -0.944 -1.544 -2.528 c 0 -0.85599995 0.26400003 -1.6559999 0.704 -2.096 c 0.22399998 -0.224 0.49600005 -0.33600003 0.8080001 -0.33600003 Z m 0.031999946 4.6800003 c 0.13600004 0 0.26400006 -0.048000336 0.36 -0.13600016 c 0.24800014 -0.20800018 0.464 -0.816 0.464 -1.888 c 0 -0.7360002 -0.02399993 -1.2400001 -0.13599992 -1.6480002 c -0.17600012 -0.656 -0.5680001 -0.72800004 -0.712 -0.72800004 c -0.7440001 0 -0.8240001 1.368 -0.8240001 2.0640001 c 0 1.9680002 0.48800004 2.3360002 0.84800005 2.3360002 Z "/>
        </symbol>
        <symbol id="gC1C81677E5DD09F667720744317FAC66" overflow="visible">
            <path d="M 0 0m 0.48800004 3.7440002 c 0 -0.16799998 0.15200001 -0.31200004 0.32 -0.31200004 c 0.13600004 0 0.376 0.14400005 0.376 0.31999993 c 0 0.06400013 -0.015999913 0.11199999 -0.031999946 0.16799998 c -0.016000032 0.055999994 -0.06400001 0.12800026 -0.06400001 0.19199991 c 0 0.20000029 0.20799994 0.4880004 0.79200006 0.4880004 c 0.2880001 0 0.6960001 -0.20000029 0.6960001 -0.9680002 c 0 -0.5120001 -0.18400002 -0.928 -0.65600014 -1.408 l -0.592 -0.5840001 c -0.78400004 -0.8000001 -0.91200006 -1.184 -0.91200006 -1.6560001 c 0 0 0.40800005 0.016 0.66400003 0.016 h 1.4 c 0.25600004 0 0.6240001 -0.016 0.6240001 -0.016 c 0.10400009 0.42400002 0.18400002 1.024 0.19200015 1.264 c -0.048000097 0.04000008 -0.15200019 0.055999994 -0.23200011 0.04000008 c -0.13599992 -0.5680001 -0.27200007 -0.76800007 -0.55999994 -0.76800007 h -1.4240001 c 0 0.384 0.55200005 0.92800003 0.592 0.968 l 0.80799997 0.77600014 c 0.4560001 0.44000006 0.8000002 0.79200006 0.8000002 1.4000001 c 0 0.8640001 -0.704 1.2159998 -1.3520001 1.2159998 c -0.888 0 -1.44 -0.65600014 -1.44 -1.1359999 Z "/>
        </symbol>
        <symbol id="gD00E24DA30413591BFEF6B5262DCA198" overflow="visible">
            <path d="M 0 0m 3.44 1.7520001 h -0.66400003 v 2.3360002 c 0 0.4000001 0 0.7119999 0.016000032 0.776 l -0.016000032 0.015999794 h -0.2559998 c -0.055999994 0 -0.096000195 -0.04799986 -0.12800002 -0.08799982 c -0.50400007 -0.6160002 -1.4320002 -1.9360001 -2.1680002 -3.0800002 c 0.024000004 -0.120000005 0.072 -0.33600008 0.312 -0.33600008 h 1.6320002 v -0.736 c 0 -0.36800003 -0.30400014 -0.36800003 -0.6480001 -0.39200002 c -0.047999978 -0.048000008 -0.047999978 -0.216 0 -0.264 c 0.25600004 0.008 0.5760001 0.016 0.9440001 0.016 c 0.3119998 0 0.61599994 -0.008 0.872 -0.016 c 0.04799986 0.048 0.04799986 0.216 0 0.264 c -0.39199996 0.03199999 -0.5600002 0.015999988 -0.5600002 0.39200002 v 0.736 h 0.55200005 c 0.11199999 0 0.23200011 0.15200007 0.23200011 0.24800003 c 0 0.08000004 -0.032000065 0.12800002 -0.120000124 0.12800002 Z m -1.2719998 2.3040001 v -2.3040001 h -1.5280001 c 0.40800005 0.65600014 0.976 1.552 1.5280001 2.3040001 Z "/>
        </symbol>
        <symbol id="gA969FD5A3A1009CB71FFC789F9A002CE" overflow="visible">
            <path d="M 0 0m 1.1520001 2.7440002 c 0.21599996 0.7279999 0.72800004 1.536 1.7920002 1.9360001 c 0 0.09599972 -0.032000065 0.16799974 -0.096000195 0.2079997 c -0.80799985 -0.23999977 -1.304 -0.57599974 -1.752 -1.0959997 c -0.49600005 -0.5760002 -0.7440001 -1.3040001 -0.7440001 -1.9360002 c 0 -1.6240001 0.9200001 -1.9440001 1.5360001 -1.9440001 c 1.048 0 1.4800001 1.016 1.4800001 1.7040001 c 0 0.6880001 -0.36800003 1.304 -1.4560002 1.304 c -0.20799994 0 -0.52 -0.06399989 -0.76 -0.17599988 Z m -0.07200003 -0.2880001 c 0.26400006 0.17600012 0.528 0.18400002 0.66400003 0.18400002 c 0.78400004 0 0.96000016 -0.768 0.96000016 -1.168 c 0 -0.8800001 -0.3360002 -1.2800001 -0.72800016 -1.2800001 c -0.50399995 0 -0.96000004 0.272 -0.96000004 1.6400001 c 0 0.1839999 0.016000032 0.39200008 0.06400001 0.62399995 Z "/>
        </symbol>
        <symbol id="gF9420FD099620D6D5D037A1F08292FAD" overflow="visible">
            <path d="M 0 0m 3.144 3.88 c 0 0.5760002 -0.44799995 1 -1.232 1 c -0.816 0 -1.3440001 -0.48799992 -1.3440001 -1.1039999 c 0 -0.4480002 0.21600002 -0.776 0.70400006 -1.0800002 l 0.20799994 -0.12800002 c -0.232 -0.119999886 -0.44799995 -0.26399994 -0.648 -0.44000006 c -0.328 -0.288 -0.464 -0.648 -0.464 -0.9599999 c 0 -0.8160001 0.57600003 -1.2480001 1.424 -1.2480001 c 1.0480001 0 1.5600002 0.768 1.5600002 1.376 c 0 0.4640001 -0.20000005 0.8720002 -0.6240001 1.128 l -0.5680001 0.3440001 c 0.37599993 0.18400002 0.98399997 0.60000014 0.98399997 1.112 Z m -1.336 -3.68 c -0.36 0 -0.90400004 0.24800001 -0.90400004 0.9680001 c 0 0.24000001 0.10399997 0.79999995 0.79200006 1.2559999 l 0.37599993 -0.22399998 c 0.49600005 -0.3039999 0.6960001 -0.67999995 0.6960001 -1.064 c 0 -0.8 -0.5999999 -0.93600005 -0.96000004 -0.93600005 Z m 0.06400001 4.4000006 c 0.5200001 0 0.712 -0.34400034 0.712 -0.71200013 c 0 -0.43200016 -0.42400002 -0.79200006 -0.64 -0.95200014 l -0.24800003 0.15199995 c -0.50400007 0.32800007 -0.56000006 0.592 -0.56000006 0.84000015 c 0 0.3679998 0.25600004 0.67200017 0.73600006 0.67200017 Z "/>
        </symbol>
        <symbol id="g432531CD5C98677D6510903614E4467A" overflow="visible">
            <path d="M 0 0m 2.3040001 0.9760001 v 2.776 c 0 0.48000026 0.007999897 0.9680002 0.02399993 1.0720003 c 0 0.03999996 -0.016000032 0.03999996 -0.04799986 0.03999996 c -0.44000018 -0.2720003 -0.8640002 -0.47200012 -1.5680002 -0.8000002 c 0.016000032 -0.08800006 0.048000038 -0.16799998 0.120000005 -0.21599984 c 0.36800003 0.15199971 0.544 0.20000005 0.6960001 0.20000005 c 0.13599992 0 0.15999997 -0.19200015 0.15999997 -0.46400023 v -2.608 c 0 -0.66400003 -0.21599996 -0.70400006 -0.776 -0.72800004 c -0.048000038 -0.048000008 -0.048000038 -0.216 0 -0.264 c 0.39199996 0.008 0.68000007 0.016 1.1120001 0.016 c 0.38400006 0 0.576 -0.008 0.9760001 -0.016 c 0.04799986 0.048 0.04799986 0.216 0 0.264 c -0.5600002 0.024000004 -0.6960001 0.063999996 -0.6960001 0.72800004 Z "/>
        </symbol>
        <symbol id="gA8AF1DED67FBB66CA57265F6DAEF1D7F" overflow="visible">
            <path d="M 0 0m 3.2129998 -0.089999996 c 0.87300014 0 1.6739998 0.414 2.2859998 1.215 c -0.0449996 0.08099997 -0.1079998 0.13499999 -0.20699978 0.13499999 c -0.63899994 -0.702 -1.2509999 -0.981 -2.088 -0.981 c -1.2149998 0 -2.0519998 1.368 -2.0519998 2.682 c 0 0.7739999 0.20700002 1.4219999 0.531 1.8269997 c 0.44999993 0.54900026 0.972 0.8010001 1.4399999 0.8010001 c 1.2419999 0 1.7369998 -0.7379999 1.971 -1.5120001 c 0.1079998 -0.035999775 0.19799995 -0.0089998245 0.29699993 0.045000076 c -0.045000076 0.46799994 -0.1079998 0.9000001 -0.19799995 1.395 c -0.4590001 0.045000076 -0.86399984 0.4050002 -1.971 0.4050002 c -0.7650001 0 -1.4039999 -0.27900028 -1.935 -0.76500034 c -0.594 -0.5489998 -0.954 -1.4309998 -0.954 -2.3669996 c 0 -1.566 0.94500005 -2.8799999 2.8799999 -2.8799999 Z "/>
        </symbol>
        <symbol id="g68280E27AE167FD83820414DF089996F" overflow="visible">
            <path d="M 0 0m 0.369 1.8449999 c 0 -0.9179999 0.612 -1.935 1.8899999 -1.935 c 0.576 0 1.017 0.20699999 1.323 0.50399995 c 0.40499997 0.39599997 0.58500004 0.963 0.58500004 1.5119998 c 0 0.9360001 -0.513 2.0249999 -1.8899999 2.0249999 c -0.594 0 -1.08 -0.24299979 -1.413 -0.6299999 c -0.324 -0.38700008 -0.49499997 -0.9089999 -0.49499997 -1.476 Z m 1.773 1.791 c 0.7739999 0 1.2509999 -0.70200014 1.2509999 -1.998 c 0 -1.134 -0.58500004 -1.4129999 -1.0079999 -1.4129999 c -0.9360001 0 -1.242 1.134 -1.242 1.8269998 c 0 0.783 0.18899989 1.5840001 0.99899995 1.5840001 Z "/>
        </symbol>
        <symbol id="g418A47A35AB57644865506BF61FE4B72" overflow="visible">
            <path d="M 0 0m 1.953 -0.089999996 c 0.35099995 0 0.77400005 0.17999999 1.2149998 0.53999996 c 0.045000076 0.035999984 0.12600017 0.05399996 0.13500023 -0.009000003 c 0.02699995 -0.225 0.09899998 -0.53099996 0.09899998 -0.53099996 c 0.07199979 -0.027000003 0.116999865 -0.018 0.171 0 c 0.19799995 0.162 0.513 0.297 1.0619998 0.35999998 c 0.0539999 0.05400002 0.0539999 0.18900001 0 0.24299997 c -0.57599974 0.045000017 -0.6569998 0.21600002 -0.6569998 0.657 v 1.7279998 c 0 0.26999998 0.036000013 0.92700005 0.036000013 0.92700005 c 0 0.02699995 -0.027000189 0.05400014 -0.07200003 0.05400014 c -0.045000076 -0.009000063 -0.18000007 -0.018000126 -0.31500006 -0.018000126 c -0.2880001 0 -0.612 0.009000063 -0.918 0.018000126 c -0.0539999 -0.05400014 -0.0539999 -0.24300003 0 -0.29700017 c 0.44099998 -0.02699995 0.5580001 -0.13499999 0.5580001 -0.72899985 v -1.737 c 0 -0.171 -0.018000126 -0.24299997 -0.14400005 -0.35099995 c -0.33299994 -0.28800002 -0.67499995 -0.432 -0.9000001 -0.432 c -0.26999986 0 -0.7199999 0.12600002 -0.7199999 0.92700005 v 1.6379998 c 0 0.26999998 0.036000013 0.92700005 0.036000013 0.92700005 c 0 0.02699995 -0.02699995 0.05400014 -0.07200003 0.05400014 c -0.044999957 -0.009000063 -0.17999995 -0.018000126 -0.31499994 -0.018000126 c -0.288 0 -0.612 0.009000063 -0.918 0.018000126 c -0.054000005 -0.05400014 -0.054000005 -0.24300003 0 -0.29700017 c 0.43199995 -0.036000013 0.55799997 -0.13499999 0.55799997 -0.7199998 v -1.728 c 0 -0.621 0.26999998 -1.224 1.161 -1.224 Z "/>
        </symbol>
        <symbol id="gB6A4A840D6340EAD9040A87731938558" overflow="visible">
            <path d="M 0 0m 1.6559999 3.222 c -0.05400002 -0.062999964 -0.10799992 -0.08100009 -0.10799992 0 c -0.009000063 0.24300003 -0.02700007 0.59399986 -0.07200003 0.684 c -0.018000007 0.044999838 -0.036000013 0.07200003 -0.10800004 0.07200003 c -0.25199997 -0.09899998 -0.48599994 -0.18000007 -1.1069999 -0.26100016 c -0.017999992 -0.0539999 0 -0.19799995 0.018000007 -0.25199986 c 0.486 -0.045000076 0.585 -0.09000015 0.585 -0.612 v -1.755 c 0 -0.7379999 -0.089999974 -0.7739999 -0.63 -0.81899995 c -0.054000005 -0.05399999 -0.054000005 -0.24299999 0 -0.297 c 0.26999995 0.009 0.63 0.018 0.99 0.018 c 0.3599999 0 0.63 -0.009 0.89999986 -0.018 c 0.05400014 0.053999998 0.05400014 0.243 0 0.297 c -0.45899987 0.045000017 -0.5489999 0.081 -0.5489999 0.81899995 v 1.476 c 0 0.18899989 0.08099997 0.29699993 0.153 0.37800002 c 0.342 0.33299994 0.747 0.5309999 1.098 0.5309999 c 0.17999983 0 0.36899996 -0.116999865 0.477 -0.32399988 c 0.089999914 -0.18000007 0.1079998 -0.4230001 0.1079998 -0.6930001 v -1.3679999 c 0 -0.7379999 -0.089999914 -0.7739999 -0.55799985 -0.81899995 c -0.045000076 -0.05399999 -0.045000076 -0.24299999 0 -0.297 c 0.26999998 0.009 0.55799985 0.018 0.918 0.018 c 0.36000013 0 0.684 -0.009 0.954 -0.018 c 0.045000076 0.053999998 0.045000076 0.243 0 0.297 c -0.5040002 0.045000017 -0.60300016 0.081 -0.60300016 0.81899995 v 1.341 c 0 0.4949999 -0.035999775 0.92700005 -0.24299979 1.2059999 c -0.15300012 0.1980002 -0.43200016 0.306 -0.747 0.306 c -0.44099998 0 -0.9450002 -0.116999865 -1.4760001 -0.72899985 Z "/>
        </symbol>
        <symbol id="gFBD4E344D96ED3A9A07E1657F03CD509" overflow="visible">
            <path d="M 0 0m 0.387 3.8609998 c -0.12600002 0 -0.162 -0.10800004 -0.162 -0.18000007 v -0.116999865 c 0 -0.045000076 0.009000003 -0.05400014 0.044999987 -0.05400014 h 0.53099996 v -2.7089999 c 0 -0.63899994 0.27899998 -0.8909999 0.693 -0.8909999 c 0.41399992 0 0.86399984 0.19799998 1.2149999 0.5939999 c -0.017999887 0.09000003 -0.07200003 0.14400005 -0.16199994 0.153 c -0.23399997 -0.17999998 -0.50399995 -0.25199997 -0.73800004 -0.25199997 c -0.24299991 0 -0.29699993 0.26999998 -0.29699993 0.82799995 v 2.277 h 0.936 c 0.089999914 0 0.21599984 0.036000013 0.21599984 0.1170001 v 0.18000007 c 0 0.036000013 -0.02699995 0.0539999 -0.07199979 0.0539999 h -1.08 v 0.35100007 c 0 0.58500004 0.036000013 0.9449997 0.036000013 0.9449997 c 0 0.054000378 -0.02700007 0.08100033 -0.07200003 0.08100033 c -0.036000013 0 -0.116999984 -0.03600025 -0.19799995 -0.08100033 c -0.0990001 -0.0539999 -0.18900001 -0.09899998 -0.30600005 -0.12599993 c -0.10799998 -0.035999775 -0.19799995 -0.062999725 -0.19799995 -0.12599993 c 0 -0.1079998 0.02699995 -0.045000076 0.02699995 -1.0439999 Z "/>
        </symbol>
    </defs>
</svg>
